<svg height="36" viewBox="0 0 32 36" width="32" xmlns="http://www.w3.org/2000/svg" xmlns:xlink="http://www.w3.org/1999/xlink"><linearGradient id="a" x1="50%" x2="50%" y1="0%" y2="100%"><stop offset="0" stop-color="#0868d2" stop-opacity=".7"/><stop offset="1" stop-color="#04b7a7"/></linearGradient><g fill="url(#a)"><path d="m28.1234136 25.8696948v2.5399471 4.0024531c0 .3406343.0259178.6923763-.0111076 1.0330106.0148102-.0999688.0259178-.196235.040728-.2962038-.0222153.1481019-.0592408.2887987-.1110764.4257929.0370254-.0888611.0740509-.1777222.1110764-.2665833-.0370255.0888611-.0814561.1740197-.1332917.2554757-.1295891.2036401.0592407-.0740509.0629433-.0703484.0037025.0074051-.0999688.1110764-.1110764.1221841-.0333229.0333229-.074051.0629432-.1073739.0962662-.0740509.0777535.2591783-.1666146.0703484-.0592408-.0925637.0518357-.1777222.1036713-.277691.1481019.0888611-.0370255.1777223-.0740509.2665834-.1110764-.1369943.0555382-.2813936.0925637-.4257929.1110764.0999688-.0148102.196235-.0259178.2962037-.040728-.2591782.0296204-.5294642.0111076-.7886424.0111076-.5553821 0-1.1107641 0-1.6661461 0-1.854976 0-3.7136545 0-5.5686305 0-2.2400408 0-4.4800816 0-6.7164199 0-1.9401346 0-3.88026912 0-5.82040366 0-.91823162 0-1.83646323.0037026-2.75469485 0-.07775348 0-.15550697-.0037025-.2295579-.0111076.09996876.0148102.19623498.0259178.29620374.040728-.14810187-.0222153-.28879865-.0592408-.42579288-.1110764.08886112.0370255.17772225.0740509.26658337.1110764-.08886112-.0370255-.1740197-.081456-.25547573-.1332917-.20364008-.1295891.07405094.0592408.07034839.0629433-.0074051.0037025-.11107641-.0999688-.12218405-.1110764-.03332292-.0333229-.06294329-.0740509-.09626622-.1073739-.07775348-.0740509.16661461.2591783.05924075.0703484-.05183565-.0925636-.10367131-.1777222-.14810187-.277691.03702547.0888611.07405094.1777223.11107641.2665834-.05553821-.1369942-.09256367-.2813936-.11107641-.4257929.01481019.0999688.02591783.196235.04072802.2962037-.02962038-.2813935-.01110764-.5775973-.01110764-.8589908 0-.5812999 0-1.1625997 0-1.7438996 0-1.347727 0-2.6954541 0-4.0468837 0-.3110139 0-.6220278 0-.9330418-.63313551.2628808-1.26256848.5220591-1.89570399.78494.61092023.4961412 1.27737866.873801 2.04380586 1.0885487.72940173.2073426 1.49212638.2480707 2.24374338.1481019 1.36623979-.1851273 2.66213118-.8700985 3.52852714-1.9512422-.5220591 0-1.04782075 0-1.56987986 0 .75531956.9404469 1.8882989 1.6365257 3.0731139 1.8771913 1.3255117.2739884 2.7028592.0851585 3.8913767-.5664897.59611-.3258241 1.144087-.7812374 1.5698799-1.3107016-.5220591 0-1.0478208 0-1.5698799 0 .7553196.9404469 1.8882989 1.6365257 3.0731139 1.8771913 1.3255117.2739884 2.7028592.0851585 3.8913767-.5664897.5961101-.3258241 1.144087-.7812374 1.5698799-1.3107016-.5220591 0-1.0478208 0-1.5698799 0 .825668 1.029308 2.0882364 1.7476021 3.3915329 1.9327295 1.4884238.2110451 3.0175757-.114779 4.2209034-1.0441182.2406656-.1851274.4257929-.3591471.5109515-.6627559.0740509-.2665834.040728-.6183254-.1110764-.8552883-.1518045-.236963-.3813624-.4443057-.6627559-.5109515-.2702859-.0629433-.6257304-.0666459-.8552883.1110764-.3295267.2554757-.6849712.4628183-1.0663335.6257304.0888611-.0370255.1777222-.0740509.2665833-.1110764-.3517419.1443993-.718294.2443681-1.0959538.2999063.0999687-.0148102.196235-.0259178.2962037-.040728-.399875.0518356-.8034526.0555382-1.2033277.0037025.0999688.0148102.196235.0259179.2962038.040728-.3961726-.0555382-.7812374-.1592095-1.1514921-.3147164.0888611.0370254.1777222.0740509.2665834.1110764-.1703172-.074051-.3369318-.155507-.4998439-.2517732-.0703484-.040728-.1443993-.0851586-.2110451-.1332917-.0370255-.0259178-.0777535-.0518357-.114779-.0777535s-.1777222-.1332917-.0222153-.0111076c.1592095.1258866.0074051.0037025-.0185127-.0148102-.0296204-.0222153-.0555382-.0481331-.0851586-.0703484-.0703484-.0592408-.1369942-.1221841-.2036401-.1888299-.1332916-.1295891-.2554757-.2665834-.3702546-.4109827-.1592096-.1999375-.5368693-.3369318-.78494-.3258241-.2739884.0111076-.6035151.0999687-.7849399.3258241-.1147789.1443993-.236963.2813936-.3702547.4109827-.0592407.0592408-.1184815.114779-.1814248.1703172-.0333229.0296203-.0703484.0592407-.1036713.0888611s-.1740197.1369942-.0185127.0148102c.1592095-.1258866.0074051-.0074051-.0222153.0111076-.0296204.0222153-.0592408.040728-.0925637.0629433-.0777535.0518357-.1555069.0999688-.236963.1481019-.1592095.0925637-.3295266.1777222-.4998438.2517732.0888611-.0370255.1777223-.074051.2665834-.1110764-.3702547.1555069-.751617.2591782-1.1514921.3147164.0999688-.0148101.196235-.0259178.2962038-.040728-.3887675.0481331-.7812374.0481331-1.1737074 0 .0999688.0148102.196235.0259179.2962038.040728-.3961726-.0555382-.7812374-.1592095-1.1514921-.3147164.0888611.0370254.1777222.0740509.2665834.1110764-.1703172-.074051-.3369318-.155507-.4998439-.2517732-.0703484-.040728-.1443993-.0851586-.2110451-.1332917-.0370255-.0259178-.0777535-.0518357-.114779-.0777535s-.1777222-.1332917-.0222153-.0111076c.1592096.1258866.0074051.0037025-.0185127-.0148102-.0296204-.0222153-.0555382-.0481331-.0851586-.0703484-.0703484-.0592408-.1369942-.1221841-.2036401-.1888299-.1332916-.1295891-.2554757-.2665834-.3702546-.4109827-.1592095-.1999375-.5368693-.3369318-.78494-.3258241-.2739884.0111076-.6035151.0999687-.7849399.3258241-.1147789.1443993-.236963.2813936-.3702547.4109827-.0592407.0592408-.1184815.114779-.1814248.1703172-.0333229.0296203-.0703484.0592407-.1036713.0888611s-.1740197.1369942-.0185127.0148102c.1592095-.1258866.0074051-.0074051-.0222153.0111076-.0296204.0222153-.0592407.040728-.0925637.0629433-.0777535.0518357-.1555069.0999688-.236963.1481019-.1592095.0925637-.3258241.1777222-.4998438.2517732.0888611-.0370255.1777223-.074051.2665834-.1110764-.3702547.1555069-.751617.2591782-1.1514921.3147164.0999688-.0148101.196235-.0259178.2962038-.040728-.3887675.0481331-.7812374.0481331-1.1737074 0 .0999688.0148102.196235.0259179.2962038.040728-.3961726-.0555382-.7812374-.1592095-1.1477896-.3147164.0888612.0370254.1777223.0740509.2665834.1110764-.1703171-.074051-.3369318-.155507-.4998438-.2517732-.0703484-.040728-.1443993-.0851586-.2110452-.1332917-.0370254-.0259178-.0777535-.0518357-.1147789-.0777535-.0370255-.0259178-.1777223-.1332917-.0222153-.0111076.1592095.1258866.0074051.0037025-.0185127-.0148102-.0296204-.0222153-.0555383-.0481331-.0851586-.0703484-.0703484-.0592408-.1369943-.1221841-.2036401-.1888299-.1332917-.1295891-.25547573-.2665834-.37025469-.4109827-.15920951-.1999375-.53686929-.3369318-.78493993-.3258241-.27398846.0111076-.60351513.0999687-.78493993.3258241-.11477895.1443993-.23696299.2813936-.37025468.4109827-.05924075.0592408-.1184815.114779-.18142479.1703172-.03332293.0296203-.07034839.0592407-.10367132.0888611-.03332292.0296204-.1740197.1369942-.01851273.0148102.15920951-.1258866.00740509-.0074051-.02221528.0111076-.02962038.0222153-.05924075.040728-.09256367.0629433-.07775349.0518357-.15550697.0999688-.23326045.1481019-.15920952.0925637-.32582412.1777222-.49614128.2517732.08886112-.0370255.17772225-.074051.26658337-.1110764-.37025468.1555069-.75161701.2591782-1.14778952.3147164.09996877-.0148101.19623499-.0259178.29620375-.040728-.39987506.0518357-.80345266.0481331-1.20703027-.0037025.09996877.0148102.19623498.0259178.29620375.040728-.37765978-.0555382-.74791446-.155507-1.09965641-.2999063.08886112.0370255.17772224.0740509.26658337.1110764-.1814248-.0777535-.3554445-.1629121-.52576165-.2628808-.07405094-.0444306-.14810188-.0925637-.22215281-.1406968-.04072802-.0259178-.07775349-.0555382-.1184815-.081456-.16291206-.1110764.20734262.162912.04443056.0333229-.35914704-.2887987-.7664272-.4183878-1.21443536-.2295579-.40357761.1703171-.68126942.5701922-.68126942 1.0144978v4.150555 2.5362446c0 .792345-.00370175 1.577285.49243953 2.254851.54057184.7368069 1.3440245 1.1811125 2.26966121 1.1959227h.15920951.9959851 4.0468837 5.64268134 5.8167011 4.5689428c.6368381 0 1.2699736.0074051 1.9068116 0 .9367444-.0111077 1.7587098-.473926 2.2955791-1.2329481.3258241-.4628184.4628183-1.0367131.4628183-1.5995003 0-.59611 0-1.1885175 0-1.7846275 0-1.7253869 0-3.4470711 0-5.172458 0-.1147789 0-.2295579 0-.3443368 0-.5812999-.5109514-1.1366819-1.110764-1.1107641-.6220279.0370255-1.1292768.4961413-1.1292768 1.1181692z"/><path d="m29.778452 22.4041109c0 .196235-.0148101.3887674-.0370254.5850024.0148102-.0999687.0259178-.196235.040728-.2962037-.0555382.3961725-.1592095.7775348-.3110139 1.1440869.0370254-.0888611.0740509-.1777222.1110764-.2665833-.1110764.2554757-.2406656.4998438-.39247.7294017-.040728.0629433-.0851586.122184-.1258866.1814248-.1110764.155507.1740197-.2073426.0370255-.0518357-.0888612.1036714-.1777223.2073427-.277691.3073114-.0962663.0962662-.196235.1925325-.3036089.277691-.0666458.0555382-.2184502.1406968.0481331-.0333229-.0666458.040728-.1258866.0925637-.1888299.1369943-.2443681.1666146-.5035463.3036088-.7738323.4183877.0888612-.0370254.1777223-.0740509.2665834-.1110764-.3517419.1443994-.7182941.2443681-1.0959538.2999063.0999687-.0148102.1962349-.0259178.2962037-.040728-.3998751.0518357-.8034527.0555382-1.2033277.0037026.0999687.0148102.196235.0259178.2962037.040728-.3961725-.0555382-.7812374-.1592095-1.151492-.3147165.0888611.0370255.1777222.0740509.2665833.1110764-.1703171-.0740509-.3369317-.155507-.4998438-.2517732-.0703484-.040728-.1443993-.0851586-.2110452-.1332917-.0370254-.0259178-.0777534-.0518356-.1147789-.0777534-.0370255-.0259179-.1777223-.1332917-.0222153-.0111077.1592095.1258866.0074051.0037026-.0185127-.0148102-.0296204-.0222153-.0555382-.0481331-.0851586-.0703484-.0703484-.0592407-.1369942-.122184-.2036401-.1888299-.1332917-.1295891-.2554757-.2665833-.3702547-.4109827-.1592095-.1999375-.5368693-.3369317-.7849399-.3258241-.2739885.0111077-.6035151.0999688-.7849399.3258241-.114779.1443994-.236963.2813936-.3702547.4109827-.0592408.0592408-.1184815.114779-.1814248.1703172-.0333229.0296204-.0703484.0592408-.1036713.0888611-.0333229.0296204-.1740197.1369943-.0185127.0148102.1592095-.1258866.007405-.0074051-.0222153.0111077-.0296204.0222152-.0592408.040728-.0925637.0629432-.0777535.0518357-.155507.0999688-.236963.1481019-.1592095.0925637-.3295267.1777223-.4998438.2517732.0888611-.0370255.1777222-.0740509.2665833-.1110764-.3702546.155507-.751617.2591783-1.151492.3147165.0999687-.0148102.196235-.0259178.2962037-.040728-.3887674.0481331-.7812374.0481331-1.1737073 0 .0999687.0148102.196235.0259178.2962037.040728-.3961725-.0555382-.7812374-.1592095-1.151492-.3147165.0888611.0370255.1777222.0740509.2665833.1110764-.1703171-.0740509-.3369317-.155507-.4998438-.2517732-.0703484-.040728-.1443993-.0851586-.2110452-.1332917-.0370254-.0259178-.0777534-.0518356-.1147789-.0777534-.0370255-.0259179-.1777223-.1332917-.0222153-.0111077.1592095.1258866.0074051.0037026-.0185127-.0148102-.0296204-.0222153-.0555382-.0481331-.0851586-.0703484-.0703484-.0592407-.1369942-.122184-.2036401-.1888299-.1332917-.1295891-.2554757-.2665833-.3702547-.4109827-.1592095-.1999375-.5368693-.3369317-.7849399-.3258241-.2739885.0111077-.6035151.0999688-.7849399.3258241-.114779.1443994-.236963.2813936-.3702547.4109827-.0592408.0592408-.1184815.114779-.1814248.1703172-.0333229.0296204-.0703484.0592408-.1036713.0888611-.0333229.0296204-.1740197.1369943-.0185127.0148102.1592095-.1258866.007405-.0074051-.0222153.0111077-.0296204.0222152-.0592408.040728-.0925637.0629432-.0777535.0518357-.155507.0999688-.236963.1481019-.1592095.0925637-.3295267.1777223-.4998438.2517732.0888611-.0370255.1777222-.0740509.2665834-.1110764-.3702547.155507-.7516171.2591783-1.1514921.3147165.0999687-.0148102.196235-.0259178.2962037-.040728-.3887674.0481331-.7812374.0481331-1.1737073 0 .0999687.0148102.196235.0259178.2962037.040728-.3961725-.0555382-.7812374-.1592095-1.151492-.3147165.0888611.0370255.1777222.0740509.2665833.1110764-.1703171-.0740509-.3369317-.155507-.4998438-.2517732-.0703484-.040728-.1443993-.0851586-.2110452-.1332917-.0370254-.0259178-.0777534-.0518356-.1147789-.0777534-.0370255-.0259179-.1777223-.1332917-.0222153-.0111077.1592095.1258866.0074051.0037026-.0185127-.0148102-.0296204-.0222153-.0555382-.0481331-.0851586-.0703484-.0703484-.0592407-.1369942-.122184-.2036401-.1888299-.1332917-.1295891-.25547571-.2665833-.37025466-.4109827-.15920951-.1999375-.53686929-.3369317-.78493993-.3258241-.27398847.0111077-.60351514.0999688-.78493993.3258241-.11477895.1443994-.236963.2813936-.37025468.4109827-.05924075.0592408-.1184815.114779-.1814248.1703172-.03332292.0296204-.07034839.0592408-.10367131.0888611-.03332292.0296204-.1740197.1369943-.01851273.0148102.15920951-.1258866.00740509-.0074051-.02221529.0111077-.02962037.0222152-.05924075.040728-.09256367.0629432-.07775348.0518357-.15550696.0999688-.23696299.1481019-.15920952.0925637-.32952667.1777223-.49984383.2517732.08886113-.0370255.17772225-.0740509.26658337-.1110764-.37025468.155507-.75531955.2591783-1.15149206.3147165.09996876-.0148102.19623498-.0259178.29620374-.040728-.39987505.0518356-.80345266.0481331-1.20332772-.0037026.09996877.0148102.19623498.0259178.29620375.040728-.37765978-.0555382-.74421192-.1555069-1.09595387-.2999063.08886113.0370255.17772225.074051.26658338.1110764-.27028592-.1147789-.5294642-.2554757-.77383229-.4183877-.0629433-.0444306-.13329169-.0851586-.18882989-.1369943.04443056.0333229.08886112.0666459.13329169.1036713-.02962038-.0222152-.05553821-.0444305-.08515858-.0703484-.10367131-.0888611-.20734262-.1814248-.30360884-.2813935-.09626622-.0999688-.18512734-.2036401-.27769102-.3073114-.13699423-.1592095.15920952.2221528.03702547.0518357-.04072801-.0592408-.08515857-.1184815-.12588659-.1814248-.15550697-.2295579-.28509611-.4776286-.39246996-.7331043.03702546.0888611.07405093.1777222.1110764.2665834-.15180442-.3665522-.25547573-.7516171-.31101393-1.144087.01481018.0999687.02591782.196235.04072801.2962037-.04813311-.399875-.04813311-.7997501.00370255-1.1996251-.01481019.0999687-.02591783.1962349-.04072802.2962037.05553821-.3813623.15550697-.7479145.30360884-1.103359-.03702546.0888612-.07405093.1777223-.1110764.2665834.10737386-.2554757.236963-.4998438.39246996-.7294017.04072802-.0592408.08145603-.1184815.1258866-.1777223.12588659-.1777222-.16661461.1999376-.02591783.033323.09256367-.1110764.18882989-.2184503.2925012-.3221216.09626622-.0962662.19993753-.1888299.30360884-.277691.01110764-.0074051.0629433-.0629433.07405094-.0592408 0 0-.23326046.1740197-.11107641.0851586.05924075-.040728.1184815-.0851586.17772225-.1258866.236963-.1592095.48873618-.2925012.75161701-.4035776-.08886113.0370255-.17772225.0740509-.26658338.1110764.3554445-.1481019.72199664-.2480706 1.10335896-.3036088-.09996876.0148102-.19623498.0259178-.29620374.040728.39617251-.0518357.79975011-.040728 1.19962517-.040728h1.56987986c1.68095627 0 3.36561506.0037025 5.04657136.0037025 3.676629.0037026 7.353258.0074051 11.0335896.0074051h1.9253243c.4480082 0 .9034214-.0148102 1.3514296.040728-.0999687-.0148102-.196235-.0259178-.2962037-.040728.3813623.0555382.7479144.155507 1.1033589.2999063-.0888611-.0370255-.1777222-.0740509-.2665833-.1110764.2554757.1073739.4998438.236963.7294017.3887674.0592407.040728.1184815.081456.1777222.1258866.1777223.1258866-.1999375-.1666146-.0333229-.0259178.1110764.0925637.2184503.1888299.3221216.2925012.0962662.0962662.1888299.196235.277691.3036088.0074051.0074051.0629433.0666459.0592407.074051 0 0-.1740197-.2332605-.0851585-.1110764.040728.0592407.0851585.1184815.1258866.1777222.1592095.236963.2925012.4887362.4035776.7479145-.0370255-.0888612-.074051-.1777223-.1110764-.2665834.1481018.3554445.2480706.7219966.3036088 1.0996564-.0148102-.0999688-.0259178-.196235-.040728-.2962037.0370255.2110451.0518356.4146852.0518356.6220278.0037026.5812999.507249 1.1366819 1.1107641 1.1107641.5998126-.0259179 1.1144666-.4887362 1.1107839-1.1107641-.0037224-.9034214-.2258752-1.7846276-.6405605-2.5880802-.3924699-.7664272-.9811749-1.3921576-1.666146-1.9068116-.6183254-.4628184-1.3736449-.7960476-2.1363696-.9367444-.5368693-.0999688-1.0663335-.1147789-1.6106078-.1147789-3.398938-.0037026-6.797876-.0037026-10.196814-.0074051-3.2915642-.0037026-6.58312831-.0074051-9.8709899-.0074051-.59981259 0-1.19592263.0370254-1.77722249.1925324-.84418068.2258554-1.60690532.6627559-2.26225611 1.2366507-1.25886593 1.1033589-1.97345747 2.8657712-1.8179505 4.5356198.08886112.9589597.37765978 1.9068116.93674435 2.6991567.55167948.7849399 1.2810812 1.462506 2.1585848 1.8734887.93304181.4369005 1.96605238.6553508 2.9953604.5331667.97376982-.1184815 1.90681162-.433198 2.69915664-1.029308.37395723-.2813936.71829409-.5812999 1.01079529-.947852-.5220591 0-1.04782076 0-1.56987986 0 .75531956.9404469 1.88829888 1.6365257 3.07311388 1.8771913 1.3255118.2739884 2.7028592.0851585 3.8913767-.5664897.5961101-.3258241 1.144087-.7812374 1.5698799-1.3107016-.5220591 0-1.0478208 0-1.5698799 0 .7553196.9404469 1.8882989 1.6365257 3.0731139 1.8771913 1.3255118.2739884 2.7028592.0851585 3.8913767-.5664897.5961101-.3258241 1.144087-.7812374 1.5698799-1.3107016-.5220591 0-1.0478208 0-1.5698799 0 1.0737386 1.3366194 2.8398535 2.1104517 4.5467275 2.0030778 1.8438684-.1147789 3.5396348-1.110764 4.4948919-2.7065617.5072489-.8515858.7701298-1.8438683.7775547-2.8324483.0036827-.5812999-.5146739-1.1366819-1.1107839-1.1107641-.6035151.0296204-1.1070615.4924388-1.1107641 1.1144666z"/><path d="m17.3490023 12.5294185v4.7540701.6849712c.3702547-.3702547.7405094-.7405094 1.1107641-1.110764-1.6291207 0-3.2582413-.0037026-4.8873619-.0037026l1.1107641 1.1107641c0-1.5995003 0-3.1990005 0-4.7985007 0-.2443681-.0148102-.4924388.0074051-.7331043-.0148102.0999687-.0259179.196235-.040728.2962037.0111076-.0666458.0259178-.1295891.0481331-.1925324-.0370255.0888611-.074051.1777222-.1110764.2665834.0185127-.0444306.0444305-.0851586.0629433-.1295892.0777534-.162912-.1777223.2073427-.0555382.074051.1184815-.1295892-.2406656.1369942-.074051.0555382.0444306-.0222153.0851586-.0444306.1295892-.0629433-.0888612.0370254-.1777223.0740509-.2665834.1110764.0629433-.0222153.1258866-.0370255.1925324-.0481331-.0999687.0148102-.196235.0259178-.2962037.040728.3887674-.0370255.7960475-.0074051 1.184815-.0074051h1.7957352c.1592095 0 .3221216-.0074051.4813311.0074051-.0999688-.0148102-.196235-.0259178-.2962038-.040728.0666459.0111076.1295892.0259178.1925325.0481331-.0888612-.0370255-.1777223-.074051-.2665834-.1110764.0444305.0185127.0851586.0444305.1295891.0629433.1629121.0777535-.2073426-.1777223-.0740509-.0555382.1295891.1184815-.1369942-.2406656-.0555382-.074051.0222153.0444306.0444305.0851586.0629433.1295892-.0370255-.0888612-.074051-.1777223-.1110764-.2665834.0222153.0629433.0370254.1258866.0481331.1925324-.0148102-.0999687-.0259178-.196235-.040728-.2962037.0148102.0259178.0185127.0592407.0185127.0962662.0185127.5812999.4961413 1.1366819 1.1107641 1.1107641.5850024-.0259179 1.1292767-.4887362 1.110764-1.1107641-.0333229-1.0848462-.8812061-1.9179193-1.9697549-1.9253244-.3332292-.0037025-.670161 0-1.0033902 0-.7368068 0-1.4736136-.0185127-2.2104205 0-1.0774411.0296204-1.9068116.8700986-1.9253243 1.9438371-.0037026.2110452 0 .4257929 0 .6405406v2.7509923 2.0215906c0 .5998126.5072489 1.1107641 1.110764 1.1107641 1.6291206 0 3.2582412.0037025 4.8873619.0037025.5998125 0 1.110764-.5109514 1.110764-1.110764 0-1.5846901 0-3.1693801 0-4.7540702 0-.2295579 0-.4554132 0-.6849711 0-.5812999-.5109515-1.1366819-1.110764-1.1107641-.6035152.0296204-1.1107641.4887362-1.1107641 1.1144666z"/><path d="m17.7414723 5.80929599c0 .13699423-.0111077.27028592-.0296204.40728015.0148102-.09996876.0259178-.19623498.040728-.29620374-.0370255.24807063-.1036713.48503363-.1999375.71459154.0370254-.08886113.0740509-.17772225.1110764-.26658338-.0703484.16291206-.155507.31841903-.2554757.4665209-.0222153.03332293-.0481332.06664585-.0703484.09996877-.0703484.10737386.1814248-.22215281.0703484-.09256367-.0592408.06664584-.114779.13329168-.1777223.19623498-.0555382.0555382-.1184815.11107641-.1777222.16291206-.1518045.13329169.0925636-.06664584.0925636-.07034839 0 .0074051-.1110764.07775349-.1184815.08515858-.1481018.09996876-.3036088.18142479-.4665209.25547573.0888612-.03702547.1777223-.07405094.2665834-.1110764-.2295579.09626621-.4665209.16291206-.7145915.19993753.0999687-.01481019.1962349-.02591783.2962037-.04072802-.2702859.03702547-.5442744.03702547-.8145603 0 .0999688.01481019.196235.02591783.2962037.04072802-.2480706-.03702547-.4850336-.10367132-.7145915-.19993753.0888611.03702546.1777223.07405093.2665834.1110764-.1629121-.07034839-.318419-.15550697-.4665209-.25547573-.0333229-.02221528-.0666459-.04813311-.0999688-.07034839-.1073738-.07034839.2221528.18142479.0925637.07034839-.0666459-.05924075-.1332917-.11477895-.196235-.17772225-.0555382-.0555382-.1110764-.1184815-.1629121-.17772225-.1332916-.15180442.0666459.09256367.0703484.09256367-.0074051 0-.0777535-.1110764-.0851585-.1184815-.0999688-.14810187-.1814248-.30360884-.2554758-.4665209.0370255.08886113.074051.17772225.1110764.26658338-.0962662-.22955791-.162912-.46652091-.1999375-.71459154.0148102.09996876.0259178.19623498.040728.29620374-.0259178-.19993753-.040728-.4035776-.0148102-.60721768-.0148102.09996877-.0259178.19623498-.040728.29620375.0370255-.27028592.1258866-.52576165.2295579-.77383229-.0370255.08886112-.0740509.17772225-.1110764.26658337.2999063-.6960788.7256992-1.33661941 1.1700048-1.94753964.1073739-.15180442.2221528-.29620374.3332292-.44430562.0111077-.01481018-.196235.25177319-.0999687.12958914.0111076-.01481018.0222152-.02962037.0370254-.04443056.0222153-.02962037.0481331-.05924075.0703484-.08886112.0555382-.07034839.114779-.14439933.1703172-.21474772.1666146-.20734262.3369317-.4109827.5109514-.61092023.0814561-.09256367.1629121-.18512734.2443681-.27769101-.5220591 0-1.0478207 0-1.5698798 0 .2332604.25547573.4591158.52576165.677566.79234502.1036714.12588659.2073427.25547573.3073114.38506487.033323.04072802.1443994.18512735.0074051.01110764-.1332917-.17031715-.0333229-.04072801 0 0 .0629433.08145603.1258866.16291206.1851274.24807064.2295579.31101394.4517107.62943296.6553508.95525709.2258553.35544449.4331979.72569918.5998125 1.11446659-.0370254-.08886112-.0740509-.17772224-.1110764-.26658337.1036714.24807064.1925325.50724892.2295579.77383229-.0148101-.09996876-.0259178-.19623498-.040728-.29620375.0037026.05924075.0111077.12218405.0111077.19253244.0074051.58129985.5072489 1.13668188 1.110764 1.11076405.5961101-.02591783 1.1181692-.48873618 1.1107641-1.11076405-.0111077-1.00709274-.5553821-1.97345746-1.0885488-2.79542286-.5183566-.79604757-1.1070615-1.55136713-1.7216843-2.27336376-.1184815-.14069678-.2406655-.28139356-.3628496-.41838779-.3924699-.42949544-1.1811124-.42949544-1.5698798 0-.3776598.41838779-.7368068.85528831-1.0811437 1.29959394-.7145915.92193416-1.3847525 1.8660836-1.8253556 2.95092983-.5257616 1.2884863-.1999375 2.69545409.6516482 3.76549013.9515546 1.19592263 2.6214032 1.68836132 4.0839092 1.29218885 1.7105766-.4665209 2.8990942-2.06231859 2.9176266-3.82102834.0036829-.58129985-.5146737-1.13668188-1.1107837-1.11076405-.6109203.02591783-1.1107641.48503363-1.1144666 1.11076405z"/></g></svg>