<svg height="32" viewBox="0 0 36 32" width="36" xmlns="http://www.w3.org/2000/svg" xmlns:xlink="http://www.w3.org/1999/xlink"><linearGradient id="a" x1="50%" x2="50%" y1="0%" y2="100%"><stop offset="0" stop-color="#0868d2" stop-opacity=".7"/><stop offset="1" stop-color="#04b7a7"/></linearGradient><path d="m18.8366534 20.940712c.2390438.2390439.3346613.5258964.3346613.8605578 0 .3346613-.1434263.6215139-.3346613.8605578-.2390438.2390438-.5258964.3346613-.8605578.3346613-.3346613 0-.6215139-.1434263-.8605578-.3346613-.2390438-.2390439-.3346613-.5258965-.3346613-.8605578 0-.3346614.1434263-.6215139.3346613-.8605578.4780877-.4302789 1.2908367-.4302789 1.7211156 0zm0-12.04780874c-1.1474104-.23904382-2.3426295.04780877-3.250996.76494024-.9083666.7649402-1.434263 1.8167331-1.434263 3.0119522 0 .6693227.5258964 1.1952191 1.1952191 1.1952191.6693228 0 1.1952192-.5258964 1.1952192-1.1952191 0-.4302789.191235-.8605578.5737051-1.1474104.3346614-.2868526.8127491-.3824701 1.2908367-.2868526.5258964.0956176 1.0039841.5737052 1.0996016 1.0996016.1434263.5737052-.0956175 1.1474104-.5258964 1.5298805-1.3386454 1.0517928-2.1035857 2.5816733-2.1035857 4.1593626 0 .6693227.5258964 1.1952191 1.1952191 1.1952191.6693228 0 1.1952192-.5258964 1.1952192-1.1952191 0-.8605578.4302789-1.6733068 1.1952191-2.247012 1.1952191-.9083665 1.7211155-2.3904382 1.3864542-3.8725099-.3346614-1.5298805-1.5298805-2.72509965-3.0119522-3.01195224zm17.1633466 6.98007964c0 3.3944224-1.2430279 6.7410359-3.5378486 9.4661355.4780876.9083665 1.0996016 1.6733068 1.9123506 2.1992032.5737052.3824701.8605578 1.0517928.7171315 1.7689243s-.6693227 1.1952191-1.3864542 1.2908366c-.5737052.0956176-1.1474104.1434263-1.7211156.1434263-1.7689243 0-3.3944223-.3824701-4.876494-1.0996016-2.7729083 1.434263-5.8804781 2.1992032-9.1314741 2.1992032-9.94422309 0-17.9760956-7.1235059-17.9760956-15.9203187 0-8.79681274 8.07968127-15.92055638 17.9760956-15.92055638 9.9442231-.0475711 18.0239044 7.12374364 18.0239044 15.87274758zm-2.3904382 0c0-7.45816729-6.9800797-13.52988044-15.5856574-13.52988044-8.60557771 0-15.58565739 6.07171315-15.58565739 13.52988044 0 7.4581674 6.98007968 13.5298805 15.58565739 13.5298805 3.0597609 0 5.9760956-.7649402 8.5577689-2.1992032.3824701-.191235.812749-.191235 1.1952191 0 1.0996016.6693227 2.3904383 1.0517929 3.87251 1.0996016-.7171315-.7649402-1.2430279-1.6733067-1.6733068-2.7729083-.1434263-.4302789-.0478087-.9083666.2390438-1.2430279 2.1992032-2.3904383 3.3944224-5.3067729 3.3944224-8.4143427z" fill="url(#a)"/></svg>