<svg height="29" viewBox="0 0 38 29" width="38" xmlns="http://www.w3.org/2000/svg" xmlns:xlink="http://www.w3.org/1999/xlink"><linearGradient id="a" x1="50%" x2="50%" y1="0%" y2="100%"><stop offset="0" stop-color="#0868d2" stop-opacity=".7"/><stop offset="1" stop-color="#04b7a7"/></linearGradient><g fill="url(#a)" stroke="url(#a)" stroke-width=".5" transform="translate(1 1)"><circle cx="28.8" cy="12" r="1.8"/><circle cx="22.2" cy="12" r="1.8"/><circle cx="15.6" cy="12" r="1.8"/><path d="m33.81 18.492c1.4117646-1.8708006 2.1800562-4.1483116 2.19-6.492 0-6.6-6.192-12-13.8-12-5.01 0-9.6 2.34-12 6.126-5.844.768-10.2 5.088-10.2 10.164.00862311 2.0018319.67008794 3.9462014 1.884 5.538l-1.35 5.016c-.05040356.2236969.03109849.4565599.21.6.18924845.1487667.44908668.1700262.66.054l4.392-2.43c1.91675135.9944214 4.04464623 1.5130186 6.204 1.512 2.9369606.0294317 5.7984319-.9300276 8.124-2.724.6879978.0944033 1.3815572.1425115 2.076.144 2.5078655.013428 4.9805235-.5903127 7.2-1.758l5.118 2.88c.0861232.0488722.1830037.0756689.282.078.1325697-.0004127.2612701-.0447194.366-.126.1811202-.1420171.2650393-.3751255.216-.6zm-27.732 5.4c-.18564065-.1071797-.41435935-.1071797-.6 0l-3.414 1.908 1.056-3.948c.0462038-.185069.00165563-.3810809-.12-.528-1.15368394-1.4252227-1.7884292-3.2003936-1.8-5.034 0-4.2 3.462-7.842 8.226-8.826-.67160554 1.41808404-1.02193836 2.9669239-1.026 4.536 0 5.454 4.164 10.134 10.08 11.55-1.9460199 1.2014007-4.1931459 1.8256024-6.48 1.8-2.06601193.0203976-4.1034753-.4832915-5.922-1.464zm23.61-2.85c-.1856406-.1071797-.4143594-.1071797-.6 0-2.1084674 1.1639197-4.4796352 1.7691045-6.888 1.758-.7231175.002259-1.445309-.0519053-2.16-.162-6.048-.894-10.44-5.364-10.44-10.638.00692225-1.7702748.5032086-3.50416206 1.434-5.01 2.166-3.57 6.468-5.79 11.166-5.79 6.948 0 12.6 4.842 12.6 10.8-.0119182 2.1811439-.7580122 4.2947246-2.118 6-.1136815.1461258-.1535376.3365493-.108.516l1.284 4.884z"/></g></svg>