<svg height="32" viewBox="0 0 31 32" width="31" xmlns="http://www.w3.org/2000/svg" xmlns:xlink="http://www.w3.org/1999/xlink"><linearGradient id="a" x1="50%" x2="50%" y1="0%" y2="100%"><stop offset="0" stop-color="#0868d2" stop-opacity=".7"/><stop offset="1" stop-color="#04b7a7"/></linearGradient><g fill="url(#a)"><path d="m25.0070691 0h-19.01474598c-3.31418988 0-5.99232312 2.7116099-5.99232312 5.99232312v13.12285288c0 3.3141899 2.7116099 5.9923231 5.99232312 5.9923231h.16738332l-.66953331 4.2515365c-.13390666.8703933.26781333 1.7073099 1.03777663 2.1425066.33476666.1673833.66953331.2678133 1.00429997.2678133.50214998 0 .9708233-.1673833 1.37254328-.50215l7.09705309-6.1262297h9.005223c3.3141899 0 5.9926298-2.7116099 5.9926298-5.9923232v-13.15632948c.03317-3.28071322-2.6784399-5.99232312-5.9926298-5.99232312zm3.2472365 19.1486526c0 1.7742633-1.4394966 3.2472366-3.2472365 3.2472366h-9.507373c-.3347666 0-.6695333.1339067-.90387.3347666l-6.09275307 5.2223599.63605664-3.9837232c.06695333-.40172-.06695333-.80344-.30128999-1.10473-.26781332-.30129-.63605664-.4686733-1.03777663-.4686733h-1.77426327c-1.77426327 0-3.24723655-1.4394966-3.24723655-3.2472366v-13.15632948c0-1.77426327 1.43949662-3.24723655 3.24723655-3.24723655h19.01474602c1.7742632 0 3.2472365 1.43949661 3.2472365 3.24723655v13.15632948z"/><path d="m19.4499426 13.3571895c-.7030099-.20086-1.4394966.2343367-1.6403566.9373466-.2678133 1.0377767-1.2386366 1.7407867-2.3098899 1.7407867s-2.0420766-.7364867-2.3098899-1.7407867c-.20086-.7030099-.9373466-1.1382066-1.6403566-.9373466s-1.1382066.90387-.9373467 1.6403566c.60258 2.1759833 2.61118 3.7159099 4.8875932 3.7159099 2.2764133 0 4.2850132-1.5399266 4.8875932-3.7159099.20086-.70301-.2343367-1.4394966-.9373467-1.6403566z"/><circle cx="11.64988" cy="8.469596" r="2.0086"/><circle cx="19.349513" cy="8.469596" r="2.0086"/></g></svg>