<svg height="40" viewBox="0 0 31 40" width="31" xmlns="http://www.w3.org/2000/svg" xmlns:xlink="http://www.w3.org/1999/xlink"><linearGradient id="a" x1="50%" x2="50%" y1="0%" y2="100%"><stop offset="0" stop-color="#0868d2" stop-opacity=".7"/><stop offset="1" stop-color="#04b7a7"/></linearGradient><g fill="url(#a)"><path d="m7.37379653 5.51094241c.00148899-1.92588821-1.4796453-3.52842635-3.39968961-3.67835132-1.9200443-.14992496-3.63197561 1.20328548-3.92944456 3.10606235-.29746894 1.90277688.91976656 3.71391603 2.79395523 4.15715914v6.92367822c-1.65972375.3942624-2.83137521 1.8768399-2.83137521 3.5827489 0 1.7059091 1.17165146 3.1884866 2.83137521 3.582749v6.9194358c-1.82064299.430579-3.03012241 2.1565741-2.81337334 4.0148419.21674907 1.8582677 1.79099743 3.2595678 3.66186332 3.2595678 1.8708659 0 3.44511425-1.4013001 3.66186333-3.2595678.21674907-1.8582678-.99273036-3.5842629-2.81337335-4.0148419v-6.9194358c1.65972376-.3942624 2.83137522-1.8768399 2.83137522-3.582749 0-1.705909-1.17165146-3.1884865-2.83137522-3.5827489v-6.92367822c1.66144002-.394521 2.83532754-1.87723393 2.83819898-3.58487017zm-5.67639796 0c0-1.09888593.89082307-1.989709 1.989709-1.989709 1.09888594 0 1.989709.89082307 1.989709 1.989709 0 1.09888594-.89082306 1.98970901-1.989709 1.98970901-1.09722879-.00233952-1.98546904-.89247772-1.98546655-1.98970901zm3.979418 28.17835219c0 1.098886-.89082306 1.989709-1.989709 1.989709-1.09888593 0-1.989709-.890823-1.989709-1.989709 0-1.0988859.89082307-1.989709 1.989709-1.989709 1.09888594 0 1.989709.8908231 1.989709 1.989709zm0-14.0891761c0 1.098886-.89082306 1.989709-1.989709 1.989709-1.09888593 0-1.989709-.890823-1.989709-1.989709 0-1.0988859.89082307-1.989709 1.989709-1.989709.53065705 0 1.03933612.211938 1.41297061.5887592.37363449.3768211.58126425.8872819.57673839 1.4179196z"/><path d="m26.7575501 11.089764v-11.089764h-15.9431267v11.089764zm-14.2461467-9.39278404h12.5491667v7.69580411h-12.5491667z"/><path d="m31 14.0552365h-20.1855766v11.0770367h20.1855766zm-1.69698 9.3800567h-16.7916166v-7.6830767h16.7916166z"/><path d="m26.7575501 28.1444126h-15.9431267v11.089764h15.9431267zm-1.69698 9.3927841h-12.5491667v-7.6958041h12.5491667z"/></g></svg>