<svg height="381" viewBox="0 0 759 381" width="759" xmlns="http://www.w3.org/2000/svg"><g fill="none" fill-rule="evenodd" transform="translate(0 .48855)"><path d="m640.504185 377.912291c19.09704-47.679146 19.064832-70.974768 21.238872-98.304241 11.997478-151.052628-85.201649-174.275544-113.675816-180.5743288-87.189342-19.2862763-47.506792-114.711888-274.706588-96.80837697-20.824769 1.64073779-69.921945 14.88862507-86.842875 23.47119447-11.867956 6.0146921-56.581395 32.9292009-69.700401 78.4578573-4.143559 14.369448-5.137636 30.592098-.960029 48.598206 14.786231 63.716799-23.762598 60.054558-51.93125 90.418844-37.5963921 40.521619-33.6663266 106.794715-3.5118217 134.824323.0296774.026928 580.0899087-.083478 580.0899087-.083478z" fill="#ebf3fa"/><path d="m481.087103 378h.143518c.861109 0 1.553373-.670101 1.532268-1.483796l-2.321618-95.090584-6.838218-.753864 5.833591 95.852425c.050654.82965.772466 1.475819 1.650459 1.475819" fill="#b0d4ff"/><path d="m518.873363 378h.143518c.861109 0 1.553373-.670101 1.532267-1.483796l-2.321617-95.090584-6.838218-.753864 5.82937 95.852425c.050653.82965.776686 1.475819 1.65468 1.475819" fill="#95c0f4"/><path d="m414.591379 378h-.143455c-.860728 0-1.548466-.670101-1.531589-1.483796l2.32059-95.090584 6.839411-.753864-5.83101 95.852425c-.050631.82965-.776342 1.475819-1.653947 1.475819" fill="#b0d4ff"/><path d="m522.839695 208.896056c0-11.584174-9.382292-20.972392-20.955128-20.972392h-47.398695c-11.572836 0-20.959154 9.388218-20.959154 20.972392v68.340585l89.312977-2.518299z" fill="#b0d4ff"/><path d="m516.58036 285.251908c3.458262 0 6.259335-2.793111 6.259335-6.241545v-4.063798h-97.328245v10.305343z" fill="#95c0f4"/><path d="m415.23687 285.251908h68.636772c2.550974 0 4.614908-2.065863 4.614908-4.615227v-1.070893c0-2.549364-2.063934-4.619223-4.614908-4.619223h-68.636772c-2.546982 0-4.610916 2.069859-4.610916 4.619223v1.070893c0 2.549364 2.063934 4.615227 4.610916 4.615227" fill="#cae5ff"/><path d="m205.050301 378h-.147739c-.856888 0-1.549152-.66614-1.528046-1.479868l2.321617-95.094481 6.838218-.753895-5.833591 95.856354c-.050653.825694-.772465 1.47189-1.650459 1.47189" fill="#b0d4ff"/><path d="m167.264042 378h-.147739c-.856888 0-1.549152-.66614-1.528047-1.479868l2.321618-95.094481 6.838218-.753895-5.833591 95.856354c-.050654.825694-.772466 1.47189-1.650459 1.47189" fill="#95c0f4"/><path d="m271.541808 378h.147674c.856509 0 1.548467-.66614 1.53159-1.479868l-2.32481-95.094481-6.835193-.753895 5.83101 95.856354c.050631.825694.772124 1.47189 1.649729 1.47189" fill="#b0d4ff"/><path d="m163.29771 210.041095c0-11.580146 9.386319-20.972393 20.959154-20.972393h47.394669c11.576862 0 20.959154 9.392247 20.959154 20.972393v68.340584l-89.312977-2.514269z" fill="#b0d4ff"/><path d="m260.625954 285.251908h-91.06516c-3.45812 0-6.263084-2.797107-6.263084-6.245541v-4.059802h97.328244z" fill="#95c0f4"/><path d="m202.259771 285.251908c-2.546982 0-4.610916-2.065863-4.610916-4.615227v-1.070893c0-2.553359 2.063934-4.619223 4.610916-4.619223h68.640764c2.546982 0 4.610915 2.065864 4.610915 4.619223v1.070893c0 2.549364-2.063933 4.615227-4.610915 4.615227z" fill="#b0d4ff"/><path d="m253.222547 274.946565h-34.963005s55.145095-25.399486 50.049048-16.385206c-6.681132 11.821676-15.086043 16.385206-15.086043 16.385206z" fill="#233862"/><path d="m241.988665 350.240329c-.904826 1.05977-1.022847 2.248486-.574368 3.513763 0 .004029.003934.012088.007868.016118.83008 2.345195 3.564228 4.960369 6.742922 7.575544.405204.334452.767135.640697 1.081857.922765.082615.072532.165229.149094.239976.221625.066878.060443.125888.120887.188833.173271 2.962322 2.796504 1.845058 3.437201 7.167796 9.11483 6.070203 6.467419 10.248139 6.584276 11.436215 5.995962 1.007111-.503693-1.034649-3.932835-3.300648-7.78911-.110153-.185359-.216372-.374747-.330459-.560106-.298986-.515782-.601906-1.035593-.900892-1.551375-2.651533-4.638006-1.970947-6.81396-1.341503-13.720599.511424-5.613156 8.525036-31.349858 8.525036-31.349858l-11.632916-2.055067s-3.501284 20.498293-7.360564 23.653427c-2.06143 1.684349-4.374637 1.704497-6.357387 2.949626-.137691.08865-.275381.1773-.409138.26998-1.129066.765613-2.277802 1.555404-3.182628 2.619204" fill="#ffb27d"/><path d="m241.991614 349.998339c-.908047 1.069008-1.026488 2.268087-.576412 3.544393 0 .004065.003948.012194.007896.016259 1.018592 2.361574 3.695359 4.987352 6.774824 7.617194.4027.345497.758023.658477 1.077813.955198.082909.073164.165818.150393.24083.223557.067117.06097.126337.12194.189506.174781 2.972869 2.820882 1.851627 3.467165 7.193316 9.194287 6.091815 6.523797 10.284625 6.641673 11.476931 6.048231 1.010697-.508084-1.038332-3.96712-3.312399-7.85701-1.18441-.447114-6.691916-2.751783-10.857091-8.235024-3.667722-4.816636-6.111555-11.007131-8.610659-14.596236-.138182.089423-.276363.178846-.410596.272333-1.133085.772288-2.285911 1.568964-3.193959 2.642037" fill="#233862"/><path d="m337.577712 342.021407c.72724 3.704947 5.897397 3.088132 11.671601 1.643487 5.774203-1.440587 4.403177.275943 12.621383-.653337s10.709896-4.06205 10.960257-5.307854c.222543-1.107831-3.838872-1.497399-8.194362-2.008706-.54841-.064928-1.09682-.133913-1.649205-.202899-4.915822-.628989-8.516254-3.871325-12.98699-6.533368-4.232296-2.520013-10.546962-12.790791-10.546962-12.790791l-11.270228.90899s5.913293 9.17512 8.20231 13.164127c1.347181 2.345519 1.27565 5.449883 1.108742 7.844099-.087427 1.302615-.170881 2.633637.083454 3.936252" fill="#ffb27d"/><path d="m349.206494 343.657274c5.784684-1.45031 4.41117.277806 12.644292-.657746 8.233123-.935552 10.729335-4.089465 10.980151-5.343677.222947-1.115309-3.84584-1.507505-8.209235-2.022263l-.039812.085793s-4.936689 3.591049-11.792316 3.758549c-5.585624.138903-11.501688-1.503419-15.359471-1.438053-.087587 1.311407-.171192 2.651411.083605 3.962818.728559 3.729952 5.908101 3.108974 11.692786 1.654579" fill="#233862"/><path d="m293.832061 269.234722-24.456584 66.337577s-3.756705.362897-7.357379-.677408c-3.312621-.967725-7.117335-3.491876-7.117335-3.491876s3.848722-40.333989 11.022066-63.486819c1.836345-5.943447 3.896731-10.749817 6.173158-13.459448 11.118084-13.245742 21.736074 14.777974 21.736074 14.777974" fill="#233862"/><path d="m282.364954 224.530431c-6.978334-2.23636-26.880847.634966-46.875762 4.524634l-4.186197-6.864825-43.191748-3.350545s-14.249942 31.416855-6.448028 51.432272c1.148994 2.943209 3.426896 4.82814 7.311783 4.892036h.630742s25.70373-.015974 34.048001-.015974c21.481376 0 45.457597-14.676108 48.559079-15.291107 5.078074-1.010355 7.106893 9.08521 12.184966 19.679962 5.078074 10.598746 47.723447 46.936398 47.723447 46.936398s6.552483.063091 9.260253-.947264c2.912661-1.086232 3.977289-2.495937 3.977289-2.495937s-47.253404-93.451868-62.993825-98.49965" fill="#2b478b"/><path d="m230.75232 96.4961425c-5.529937-2.894116-13.947328-3.2853857-15.312745-3.4682183-16.360902-2.1899905-26.207965 21.4914318-26.786259 28.6687118-1.068238 13.226358-8.092101 15.242717-17.975307 23.524194-19.822636 16.610961-14.011584 35.910402-3.172586 43.07968 6.505808 4.304768 17.967275 0 17.967275 0 .160638.11202 31.348358-17.367096 46.721341-25.8006 23.047428-3.264582 12.650183-58.630453-1.441719-66.0037675" fill="#233862"/><path d="m218.597974 155.713652c.067988.043665-7.534625 2.615951-12.613698.385049-4.783127-2.099907-8.402466-9.904097-8.334479-9.908066 2.175603-.09924 4.563167-1.988759 6.402832-14.373841l.92783.333444 15.569159 5.561379s-1.127794 4.958002-1.85966 9.67783c-.611889 3.965608-.943828 7.764494-.091984 8.324205" fill="#ffb27d"/><path d="m220.549618 137.249089s-1.161215 4.842924-1.914769 9.453201c-9.207366-1.558731-12.822781-10.19767-14.115765-14.885496z" fill="#ed975d"/><path d="m203.50672 125.884743c2.01825-13.345186.581874-22.706975 14.506176-21.432933 13.924301 1.278074 15.836756 6.769356 16.255868 11.385742.419113 4.616386-5.41591 26.682308-11.104447 26.27913 0 0-21.675848-2.886753-19.657597-16.231939z" fill="#ffb27d"/><path d="m233.145038 108.547563s-13.559089 11.822834-22.780064 12.776547c-9.224952.953714-12.716119-2.044247-12.716119-2.044247s5.435564-4.567365 8.708036-11.939533c.962258-2.17302 3.002086-3.66194 5.348087-3.86717 6.584707-.575447 19.066226-.837014 21.44006 5.074403" fill="#233862"/><path d="m223.984733 108.040173s4.740106 4.430671 6.236982 7.716518c1.438664 3.173372 1.871095 10.757331.72349 13.770027 0 0 7.392903-13.882501 3.205809-20.626922-4.436573-7.154148-10.166281-.859623-10.166281-.859623" fill="#233862"/><path d="m231.67807 224.819101c-1.141399.978615-4.34132 1.563398-8.550478 1.837887-13.244229.875184-36.520752-1.292886-37.405837-3.723511-3.055744-8.409724-.897099-11.023343-3.44422-23.900485-.268329-1.36847-.596731-2.852305-.981202-4.467418-2.126606-8.843338-4.193139-11.850789 3.344097-26.060598 6.836378-12.869186 13.937079-23.315703 14.577864-22.937783 18.034099 10.633488 19.48788 1.694675 19.48788 1.694675s18.186286 18.629489 17.869898 39.554348c-.64479 42.895961-.176216 33.929301-4.898002 38.002885z" fill="#fff"/><path d="m283.526718 298.093379-13.997607 37.479065s-3.796578.362039-7.43547-.675806c-3.347781-.965437-7.192878-3.483618-7.192878-3.483618s3.889572-40.238606 11.139055-63.336684z" fill="#2b478b"/><path d="m240.00064 157.838165c2.163819 7.988519 14.900123 54.950599 14.900123 54.950599s-9.367269 1.697811-13.698885-2.658835c-4.327639-4.36065-15.059228-40.431116-15.059228-40.431116l-6.73807-22.996523s18.432241 3.147356 20.59606 11.135875z" fill="#fff"/><path d="m223.984733 226.656495c-13.364616.877365-36.852717-1.296108-37.745847-3.732791-3.08352-8.430684-.905253-11.050816-3.475527-23.960051l6.44185-17.910218s-1.062865 19.94411 4.894028 25.188363c5.956892 5.244252 24.401437 10.125594 27.299057 14.508433 1.398293 2.105676 2.319712 4.211353 2.586439 5.906264" fill="#ebf3ff"/><path d="m207.954198 218.568576s12.934536-2.902629 15.02024-1.747175c2.085703 1.159453 7.184972 5.373462 7.827337 6.840769.638399 1.467307-4.647234-1.115473-6.368138-1.579254-1.11026-.299858-4.04452.723658-5.491824 1.211428-6.106433 2.055029-9.845632.999528-9.845632.999528z" fill="#ffb27d"/><path d="m199.488777 145.557252s-17.374328 1.088209-23.387908 9.61251c-8.468993 11.998509-25.264177 63.128198-15.636895 69.95167 10.841104 7.677917 49.334364 2.007141 49.334364 2.007141s1.281258-6.081878-.499809-9.028102c-1.785034-2.942194-30.746214-7.694039-32.083006-9.052285s16.707916-26.487807 16.707916-30.562544 5.565338-32.92839 5.565338-32.92839" fill="#fff"/><path d="m223.984733 219.984733s2.451602 3.77947 3.255641 4.229407c.80404.449936 1.324511.338523 1.324511.338523l-1.651152-3.552358z" fill="#ffb27d"/><path d="m222.839695 216.549618 8.015267 4.045167s-.342878.57848-1.327138.532369c-.988294-.046111-3.477182-.993476-3.477182-.993476z" fill="#ffb27d"/><path d="m227.419847 230.290076h63.37625l19.066498-46.946565h-63.279486z" fill="#f99746"/><path d="m291.541985 228h-83.587787v2.290076h82.846789z" fill="#ed7d2b"/><path d="m272.291402 203.954198c-1.517944 0-3.102046 1.281189-3.53942 2.860684-.433698 1.579495.444725 2.864507 1.962669 2.864507 1.52162 0 3.105722-1.285012 3.53942-2.864507.437374-1.579495-.441049-2.860684-1.962669-2.860684z" fill="#fff"/><g fill="#78acea"><path d="m556.23691 380.290076h.183518c1.073178 0 1.938902-.945121 1.914965-2.091332l-2.904364-134.247472-8.545533-1.065776 7.288837 135.321291c.063832 1.170342.969451 2.083289 2.062577 2.083289"/><path d="m208.908128 380.290076h-.183518c-1.073178 0-1.938902-.945121-1.914965-2.091332l2.904364-134.247472 8.545533-1.065776-7.288837 135.321291c-.063832 1.170342-.969451 2.083289-2.062577 2.083289"/><path d="m566.63621 246.320611h-366.97834c-3.006281 0-5.44413-2.423683-5.44413-5.412495v-5.205545c0-2.988812 2.437849-5.412495 5.44413-5.412495h366.97834c3.00628 0 5.440126 2.423683 5.440126 5.412495v5.205545c0 2.988812-2.433846 5.412495-5.440126 5.412495"/></g><path d="m444.977099 230.290076h-63.37625l-19.066498-46.946565h63.279486z" fill="#2b478b"/><path d="m464.442748 228v2.290076h-82.846788l-.740998-2.290076z" fill="#2b478b"/><path d="m398.142876 206.818706c-.437374-1.583319.441049-2.864508 1.962669-2.864508 1.517944 0 3.102046 1.281189 3.53942 2.864508.433698 1.579495-.444725 2.860683-1.962669 2.860683-1.52162 0-3.105722-1.281188-3.53942-2.860683" fill="#fff"/><path d="m759 378.979066v.335297c0 .536475-.388688.975713-.85879.975713h-757.28110647c-.47167815 0-.86010353-.439238-.86010353-.975713v-.335297c0-.536474.38842538-.979066.86010353-.979066h757.28110647c.470102 0 .85879.442592.85879.979066" fill="#2e3552"/></g></svg>