<svg height="474" viewBox="0 0 700 474" width="700" xmlns="http://www.w3.org/2000/svg"><g fill="none" fill-rule="evenodd"><path d="m452.635432 78.5445525c-.046238-.1960997-.100634-.3813201-.144151-.5804116-21.043319-96.132634-179.818786-76.26482587-179.818786-76.26482587-40.76752 3.87303673-71.043842 13.39107887-93.491408 24.98435077-35.449709 18.309074-58.80869 51.8364082-63.358965 89.5082182-2.662984 22.047751-13.581738 55.073277-48.7303628 67.004351-68.46245199 23.239309-44.4297695 76.321943-37.718319 94.914695 5.8451849 16.193863 38.8688067 35.352339-9.2281084 77.251308-48.097187 41.898968 5.0333159 113.650782 5.0333159 113.650782l427.4567843.63644z" fill="#ecf4fa"/><path d="m658.67881 202.940835v267.013245l23.423169.035358c16.833023.032638 38.69501-185.274763-23.423169-267.048603" fill="#ecf4fa"/><path d="m658.67881 472.83438h-206.043378v-3.171321h8.75241l.00272 1.539423 190.007265-.95738v-452.655185h-191.405258l.867626 281.180835h-8.224763v-287.9061566h206.043378z" fill="#cde0fc"/><path d="m461.390562 471.202482-.00272-1.539423h22.552823v.179508h123.654314v-48.067541l7.392495 43.816448h36.410353v4.653628zm190.007265-67.489841-65.153507-386.122724h-46.851778l37.726751 223.580293c-1.256561-.016319-2.518562-.021759-3.775123-.021759-6.513991 0-12.872952.184949-17.532019.359018-.388935-2.38801-1.022656-4.112382-1.974596-4.901132-3.100605-2.567519-8.015336-3.220278-12.214753-3.220278-4.346287 0-7.925582.701716-7.925582.701716s-1.259281.326379-3.127803.851306l-36.345078-217.349164h-22.729612l39.336889 235.242921c-2.037152 7.253784-4.036226 15.652616-4.191256 18.739623-.155031 3.002691.331819 17.322592.810509 29.806607h-12.497615v-2.608316h-34.093059l-.867626-281.180835h191.405258z" fill="#e2eefc"/><path d="m510.831616 252.832838-39.336889-235.242921h22.729612l36.345078 217.349164c-5.026245 1.408872-14.464052 4.248374-15.715173 6.016263-.761553 1.074332-2.404329 6.114176-4.022628 11.877494" fill="#eff6fd"/><path d="m651.397827 465.591474h-36.410353l-7.392495-43.816448v-120.395958h-8.12413c4.716184-13.237408 3.358989-50.319559 2.616476-55.88161-.427014-3.198519-12.4269-4.177657-24.968032-4.327248l-37.726751-223.580293h46.851778l65.153507 386.122724z" fill="#eff6fd"/><path d="m447.290967 15.3969187c-.220306.3051648-.552125.7300021-1.033535 1.3155814l-.019039.0252944c.019039.0693556 6.135935 22.225356 1.316398 23.9078423-4.417003 1.5429591-4.78962-14.7012206-2.997252-21.5100409-.979139 1.5130409-1.857643 3.1019651-2.583838 4.7624208-1.240242 2.8384138-2.091548 6.5003918-2.651833 10.5833993.900263 1.4714276 6.386159 10.715583 3.639131 12.6178315-2.23026 1.5432311-3.690808-4.5342272-4.093343-8.549511-.32094 3.6290681-.462371 7.4653871-.47869 11.2745078 2.970054.7275544 11.934611 3.3021446 12.10324 7.9024637.190388 5.1407491-7.517608 3.6244444-12.10052-5.9101888.027198 3.7873621.16591 7.5034647.356298 10.9152184 2.135066 1.9250951 10.911954 10.2031672 9.497643 14.9865308-1.43335 4.8442877-6.938284-.7044358-9.261018-11.2864752.432453 6.0595075.979138 10.6598265 1.221203 12.1124873.078875.4786899.16863 1.0944592.263824 1.8198377.035357.2654553.070715.5466856.108793.8404272 0 0 13.642663 18.3816934 9.734268 22.6137476-2.768786 3.000516-6.913805-9.2795131-9.092388-16.6818002.753392 7.8586744 1.414311 18.1086222.78331 21.2701522l-.048957-.009792c.48141 7.086243.813229 19.97089-3.092445 20.621473-5.398861.899992 0-13.499872 0-13.499872s-6.590146 2.630075-7.199388 0c-1.022656-4.403131 8.208444-10.603254 9.696191-11.570697-.016319-3.913562-.372617-9.4606539-.815949-14.4977775-.497729 10.8007135-3.195799 14.0125595-4.245653 14.3683135-1.302798.44034-3.98455-2.202246-3.065248-10.5510333.715315-6.4867925 4.686266-10.6810411 6.424237-12.2302558-.119673-.9214781-.233906-1.7159402-.337259-2.3450367-.233905-1.3936405-.742513-5.6659481-1.164087-11.3479433-1.055294 8.8816022-3.554817 16.1478978-5.806835 11.6473965-2.194902-4.3870845 3.538498-12.7804773 5.551171-15.506834-.233905-3.9611592-.397095-8.3648347-.399815-12.8367778-1.672695 4.3903483-9.018953 12.6455738-9.935536 7.9212305-.900263-4.6451962 8.216604-9.4788766 9.951855-10.3535737.054397-3.8278876.239345-7.6527833.611962-11.2429578-2.037152 3.6190046-8.257402 11.0335309-8.994475 7.0313023-.843147-4.5698569 9.584678-11.5842964 9.584678-11.5842964l.013599.0174069c.563004-3.3989705 1.346315-6.4492589 2.417928-8.899009.693556-1.5851165 1.520384-3.1063169 2.439687-4.5592497-3.853998 2.6145718-9.750588 4.9394818-9.513963 2.2117651.255664-2.960806 9.326295-5.3550716 12.220193-6.0448203.097914-.1422471.165909-.2018113.206707-.2001794 1.036255-1.275056 2.126906-2.4785804 3.239316-3.6103013h1.264721c-1.2756 1.258193-2.532161 2.6137558-3.715287 4.0617929" fill="#327f6b"/><path d="m455.137674 23.1051865c-2.877579 1.6218342-1.822285-6.4740093-.867625-11.7700607h2.812303c.519488 4.426794.6446 10.3116883-1.944678 11.7700607" fill="#327f6b"/><path d="m451.376151 22.6504311c-3.82408-.5349904-.386216-6.3070119 5.001765-11.3153053h5.640926c-2.844941 5.2111927-7.16947 11.8013388-10.642691 11.3153053" fill="#327f6b"/><path d="m466.658871 11.3351258h5.785076c2.967334 3.6992397 5.205753 8.2541376 3.19036 12.339593-2.847661 5.7682137-6.68262-4.5867199-8.975436-12.339593" fill="#327f6b"/><path d="m463.120373 11.3351258h.9601c-.247505 1.7121325-.514048 3.6113892-.791471 5.6670361 2.314575 4.5679531 14.140392 28.6727111 8.504906 33.8441943-6.231128 5.7187128-8.450509-23.5580724-8.450509-23.5580724l-.329099-8.2462501c-.943781 7.1126253-1.985476 15.7839847-2.806864 24.7360304 2.143225 1.7654411 11.007149 9.5457844 7.31906 14.6650469-3.432424 4.7618769-6.465034-8.4048161-7.441452-13.2879974-.527647 5.922428-.951941 11.9381462-1.177686 17.6794336 2.265617 1.0523019 11.814938 5.8013956 9.193022 9.9483191-2.534881 4.0158278-7.80591-4.8967804-9.277337-7.5575893-.106073 3.519459-.130552 6.9121739-.054397 10.0913822 2.472325 1.162183 13.53931 6.5776349 10.805882 9.1598407-3.073407 2.9020577-9.388851-4.8679503-9.388851-4.8679503s4.950089 19.8906547-.432453 17.7566767c-5.382541-2.1339779-1.786927-18.9490498-1.958277-19.375791l.092475-.541518c-.106074-2.6134838-.133272-5.3934212-.097914-8.2878634-.998177 2.5599032-2.929256 6.8245953-4.090623 4.9884387-1.368074-2.1603603 2.806863-6.5681155 4.147739-7.8940322.103354-3.9448402.310061-8.0596698.590203-12.2185606-1.944678 4.9090197-6.005383 12.0004303-8.067013 8.6748952-2.314575-3.7299738 6.377999-13.3772078 8.605539-15.7494428.519488-6.1111842 1.155928-12.1633481 1.811407-17.7583087-2.733429 7.1520628-11.638149 22.2838324-14.515729 17.1194208-2.994532-5.3776462 12.443219-22.2242681 15.560143-25.5394679.456931-3.5287064.900263-6.7228737 1.289199-9.4478706" fill="#3c8f7c"/><path d="m494.316814 16.6105065c-2.336334 6.2267769-6.949164 16.7269494-11.47496 16.605101-6.108736-.1648216 2.608316-13.787086 11.600072-20.1370712.019039-.4408843.035358-.8513065.048957-1.2372503 1.465988.2831342 2.923816.5855792 4.329968 1.0552937 5.124158 3.5684159 13.805853 11.0327151 11.14042 18.4192271-3.141403 8.7061732-11.439602-12.0107656-13.925525-18.6044474-.119673 3.0856462-.277423 7.6274889-.397095 13.1084886 3.663609 5.6161753 18.94089 29.9053377 13.452275 36.2104457-6.21481 7.1441753-12.353464-25.1537961-12.353464-25.1537961l-1.166807-7.6329286c-.141431 7.7817032-.193108 17.0410897.005439 26.5455327 2.994532 1.9846593 13.076939 9.2591144 9.71795 15.2285955-3.059808 5.4421062-7.746073-7.1662059-9.666273-12.9939839.16047 6.4084615.443332 12.8830149.892104 19.0502275 3.059808 1.0471343 13.53387 5.0360357 11.211136 9.8272868-2.213941 4.5725768-8.684414-3.6717694-10.97723-6.8379225.320939 3.8180962.709875 7.4893216 1.183125 10.9201141 3.35355 1.1540235 15.541104 5.6207989 12.90015 8.7447947-3.057088 3.6141091-11.058825-4.2399417-11.058825-4.2399417s8.001737 21.5114008 1.74613 19.8112358c-5.515814-1.49781-4.699865-16.5534244-4.593792-20.4188456-.514047-3.1196441-.94922-6.4892404-1.313677-10.0282821-.840427 2.9841965-2.328174 7.1300321-3.739765 5.3730225-1.699893-2.1149392 1.884841-7.0944024 3.394347-9.0099781-.372617-4.2442934-.655479-8.6795188-.864906-13.1762124-1.650936 5.652077-5.077921 13.1637012-7.667198 9.8767876-2.934696-3.7267099 4.849455-14.8742017 7.357137-18.2680046-.187668-6.6317594-.244784-13.2219055-.223026-19.3619199-2.472324 8.6376335-10.038889 25.0947759-13.746016 19.9080616-3.900235-5.460329 10.280954-25.2106405 13.84937-30.0124989.087034-5.2838121.214866-9.9295524.339979-13.5711316" fill="#3c8f7c"/><g fill="#327f6b"><path d="m488.014969 26.8906448c-3.277394 3.836319-6.663581-8.7464267-8.162207-15.331949-.048957 4.5165483-.106073 10.5632725-.141431 17.5662886 2.023553 2.0752297 8.290039 8.9833238 7.414254 14.1006824-.845867 4.966952-5.679003-5.38091-7.433293-9.3651878-.010879 3.6581702-.016319 7.5184238-.010879 11.5127649 2.532161 2.2008858 8.649057 8.1687349 5.73068 12.2204645-2.363532 3.2803859-4.509477-3.2186459-5.722521-8.1763505.01088 4.5475544.038078 9.2311002.081595 13.9554435 3.062528 2.4505661 11.572873 10.0290981 8.466828 16.3244147-2.757906 5.5868011-6.584706-6.2126338-8.43147-12.9178287.057116 5.0360357.133272 10.0905662.236625 15.0479989 1.680855 2.8095835 7.80047 13.5733074 4.45236 15.8927778-1.811406 1.2541132-3.231157-1.3843931-4.164058-4.8064822.144151 4.6234377.31822 9.0692701.524927 13.2316971 2.23298 1.478771 11.45592 7.905999 10.384308 12.528349-.669078 2.886555-7.901104 0-7.901104 0s5.926508 15.804111 0 14.816541c-4.202136-.700356-3.935593-14.308477-3.424265-22.170143-.089754-1.445861-.171349-2.935512-.250224-4.465688-.875785 3.292082-2.360812 5.674924-4.044386 3.661706-2.956454-3.540945 2.521282-11.9444014 3.620092-13.5553563-.15503-4.3272482-.282862-8.8437965-.386215-13.4566268-2.273777 4.427338-10.922834 14.999314-11.912852 9.6205798-.95466-5.1706672 9.252859-12.7622544 11.812218-14.5752926-.084315-4.5910716-.149591-9.2417075-.195828-13.8624253-1.640057 3.4987883-7.245625 14.7044845-11.426002 14.1191772-4.849455-.6791413 3.728886-11.0452262 11.417843-14.9133673-.043517-4.5315074-.070716-9.0287449-.084315-13.4071259-.016319.1150488-.029918.2279217-.048957.350314-.462371 2.9705974-5.630046 14.1839091-7.931022 10.4707983-2.300975-3.7131107 7.931022-14.1659582 7.931022-14.1659582s.016319.0282862.040798.0932901c-.00816-4.2296063-.00544-8.3243091.005439-12.2041454-1.626457 4.1129256-7.31634 13.2395844-9.138626 10.1784167-1.729811-2.9064095 6.37256-11.5391473 9.154945-14.3680416.024479-5.6145434.062556-10.6709778.103354-14.8886169-1.931079 4.2287904-7.786871 15.8704752-9.576519 11.6520202-1.9066-4.4956056 7.444173-13.1400387 9.609157-15.061054.005439-.414502.010879-.8162208.013599-1.2076042h4.648188c3.440584 5.0852646 7.452332 12.3765826 4.737942 15.555519"/><path d="m663.748572 15.3969187c.220306.3051648.549405.7300021 1.033535 1.3155814l.019039.0252944c-.019039.0693556-6.135935 22.225356-1.319118 23.9078423 4.419723 1.5429591 4.792339-14.7012206 2.999972-21.5100409.979139 1.5130409 1.854924 3.1019651 2.581118 4.7624208 1.242962 2.8384138 2.091549 6.5003918 2.651833 10.5833993-.897543 1.4714276-6.383439 10.715583-3.636411 12.6178315 2.23026 1.5432311 3.688088-4.5342272 4.090623-8.549511.32366 3.6290681.462371 7.4653871.47869 11.2745078-2.970054.7275544-11.934611 3.3021446-12.10324 7.9024637-.187668 5.1407491 7.517608 3.6244444 12.10052-5.9101888-.024478 3.7873621-.16319 7.5034647-.356298 10.9152184-2.135066 1.9250951-10.909234 10.2031672-9.494923 14.9865308 1.43335 4.8442877 6.938284-.7044358 9.261018-11.2864752-.432453 6.0595075-.979138 10.6598265-1.221203 12.1124873-.081595.4786899-.17135 1.0944592-.266544 1.8198377-.035357.2654553-.070715.5466856-.106073.8404272 0 0-13.642663 18.3816934-9.736988 22.6137476 2.771506 3.000516 6.916525-9.2795131 9.095108-16.6818002-.753392 7.8586744-1.417031 18.1086222-.78331 21.2701522l.048957-.009792c-.48413 7.086243-.813229 19.97089 3.092445 20.621473 5.398861.899992 0-13.499872 0-13.499872s6.587427 2.630075 7.199388 0c1.019936-4.403131-8.208444-10.603254-9.698911-11.570697.016319-3.913562.372617-9.4606539.818669-14.4977775.495009 10.8007135 3.193079 14.0125595 4.245653 14.3683135 1.302798.44034 3.98183-2.202246 3.065248-10.5510333-.715315-6.4867925-4.686266-10.6810411-6.424237-12.2302558.116953-.9214781.231186-1.7159402.337259-2.3450367.231186-1.3936405.742513-5.6659481 1.164087-11.3479433 1.055294 8.8816022 3.552097 16.1478978 5.804115 11.6473965 2.194903-4.3870845-3.535778-12.7804773-5.548451-15.506834.233905-3.9611592.397095-8.3648347.397095-12.8367778 1.675415 4.3903483 9.021673 12.6455738 9.938256 7.9212305.900263-4.6451962-8.216604-9.4788766-9.954575-10.3535737-.051677-3.8278876-.236625-7.6527833-.611962-11.2429578 2.039872 3.6190046 8.257402 11.0335309 8.997195 7.0313023.840428-4.5698569-9.584678-11.5842964-9.584678-11.5842964l-.016319.0174069c-.560284-3.3989705-1.343595-6.4492589-2.417928-8.899009-.690836-1.5851165-1.517664-3.1063169-2.436967-4.5592497 3.853998 2.6145718 9.750588 4.9394818 9.513963 2.2117651-.258384-2.960806-9.329014-5.3550716-12.220193-6.0448203-.097914-.1422471-.165909-.2018113-.206707-.2001794-1.036255-1.275056-2.129626-2.4785804-3.239316-3.6103013h-1.264721c1.2756 1.258193 2.532161 2.6137558 3.715287 4.0617929"/><path d="m655.899145 23.1051865c2.877579 1.6218342 1.825005-6.4740093.867625-11.7700607h-2.812303c-.516768 4.426794-.64188 10.3116883 1.944678 11.7700607"/><path d="m659.663388 22.6504311c3.82136-.5349904.386216-6.3070119-5.001766-11.3153053h-5.643645c2.844941 5.2111927 7.172189 11.8013388 10.645411 11.3153053"/><path d="m644.377948 11.3351258h-5.782356c-2.967334 3.6992397-5.208473 8.2541376-3.19036 12.339593 2.844941 5.7682137 6.68262-4.5867199 8.972716-12.339593"/></g><path d="m647.916446 11.3351258h-.95738c.244785 1.7121325.511328 3.6113892.791471 5.6670361-2.317295 4.5679531-14.140392 28.6727111-8.504906 33.8441943 6.231128 5.7187128 8.450509-23.5580724 8.450509-23.5580724l.326379-8.2462501c.943781 7.1126253 1.985476 15.7839847 2.806864 24.7360304-2.143225 1.7654411-11.004429 9.5457844-7.31634 14.6650469 3.429704 4.7618769 6.462314-8.4048161 7.441452-13.2879974.527647 5.922428.949221 11.9381462 1.177686 17.6794336-2.265617 1.0523019-11.814938 5.8013956-9.195742 9.9483191 2.537601 4.0158278 7.808629-4.8967804 9.280057-7.5575893.106073 3.519459.130552 6.9121739.054397 10.0913822-2.472325 1.162183-13.54203 6.5776349-10.805882 9.1598407 3.073407 2.9020577 9.388851-4.8679503 9.388851-4.8679503s-4.950089 19.8906547.432452 17.7566767c5.382542-2.1339779 1.786928-18.9490498 1.958277-19.375791l-.092474-.541518c.103354-2.6134838.133272-5.3934212.095194-8.2878634 1.000897 2.5599032 2.929256 6.8245953 4.093343 4.9884387 1.368074-2.1603603-2.809583-6.5681155-4.147739-7.8940322-.103354-3.9448402-.310061-8.0596698-.590203-12.2185606 1.944678 4.9090197 6.005383 12.0004303 8.067013 8.6748952 2.311855-3.7299738-6.380719-13.3772078-8.608259-15.7494428-.516768-6.1111842-1.153208-12.1633481-1.811406-17.7583087 2.733428 7.1520628 11.638149 22.2838324 14.515728 17.1194208 2.997252-5.3776462-12.440499-22.2242681-15.557423-25.5394679-.459651-3.5287064-.900263-6.7228737-1.291919-9.4478706" fill="#3c8f7c"/><path d="m616.722725 16.6105065c2.333614 6.2267769 6.946444 16.7269494 11.47496 16.605101 6.106016-.1648216-2.611036-13.787086-11.602792-20.1370712-.016319-.4408843-.032638-.8513065-.048957-1.2372503-1.465987.2831342-2.921096.5855792-4.327248 1.0552937-5.126878 3.5684159-13.808572 11.0327151-11.14042 18.4192271 3.141403 8.7061732 11.439601-12.0107656 13.922806-18.6044474.122392 3.0856462.277422 7.6274889.399814 13.1084886-3.663609 5.6161753-18.94089 29.9053377-13.454994 36.2104457 6.217529 7.1441753 12.353464-25.1537961 12.353464-25.1537961l1.169526-7.6329286c.138711 7.7817032.193108 17.0410897-.008159 26.5455327-2.994532 1.9846593-13.074219 9.2591144-9.71795 15.2285955 3.059808 5.4421062 7.748793-7.1662059 9.666273-12.9939839-.16047 6.4084615-.440612 12.8830149-.892104 19.0502275-3.057088 1.0471343-13.53387 5.0360357-11.211136 9.8272868 2.216661 4.5725768 8.687134-3.6717694 10.977231-6.8379225-.31822 3.8180962-.709876 7.4893216-1.183126 10.9201141-3.353549 1.1540235-15.538384 5.6207989-12.89743 8.7447947 3.054368 3.6141091 11.056106-4.2399417 11.056106-4.2399417s-7.999018 21.5114008-1.743411 19.8112358c5.513094-1.49781 4.697145-16.5534244 4.593792-20.4188456.514047-3.1196441.94922-6.4892404 1.313677-10.0282821.840427 2.9841965 2.328174 7.1300321 3.739765 5.3730225 1.697174-2.1149392-1.887561-7.0944024-3.394347-9.0099781.369897-4.2442934.652759-8.6795188.864906-13.1762124 1.650936 5.652077 5.077921 13.1637012 7.664479 9.8767876 2.937415-3.7267099-4.849456-14.8742017-7.354418-18.2680046.187668-6.6317594.242064-13.2219055.223026-19.3619199 2.469604 8.6376335 10.038889 25.0947759 13.743296 19.9080616 3.902955-5.460329-10.278234-25.2106405-13.84665-30.0124989-.087034-5.2838121-.217586-9.9295524-.339979-13.5711316" fill="#3c8f7c"/><path d="m623.02457 26.8906448c3.277394 3.836319 6.663581-8.7464267 8.159487-15.331949.051677 4.5165483.106073 10.5632725.141431 17.5662886-2.023553 2.0752297-8.287319 8.9833238-7.414254 14.1006824.848587 4.966952 5.681723-5.38091 7.433293-9.3651878.013599 3.6581702.019039 7.5184238.013599 11.5127649-2.532161 2.2008858-8.651776 8.1687349-5.73068 12.2204645 2.363532 3.2803859 4.509477-3.2186459 5.722521-8.1763505-.013599 4.5475544-.038078 9.2311002-.081595 13.9554435-3.062528 2.4505661-11.572873 10.0290981-8.466828 16.3244147 2.757906 5.5868011 6.581986-6.2126338 8.43147-12.9178287-.057116 5.0360357-.133272 10.0905662-.239345 15.0479989-1.678135 2.8095835-7.80047 13.5733074-4.44964 15.8927778 1.811406 1.2541132 3.231157-1.3843931 4.164058-4.8064822-.144151 4.6234377-.31822 9.0692701-.524927 13.2316971-2.23298 1.478771-11.45864 7.905999-10.384308 12.528349.669078 2.886555 7.901104 0 7.901104 0s-5.926508 15.804111 0 14.816541c4.202136-.700356 3.935593-14.308477 3.424265-22.170143.087034-1.445861.171349-2.935512.247504-4.465688.875785 3.292082 2.363532 5.674924 4.044386 3.661706 2.959174-3.540945-2.518562-11.9444014-3.617373-13.5553563.155031-4.3272482.280143-8.8437965.383496-13.4566268 2.273778 4.427338 10.922834 14.999314 11.915572 9.6205798.95466-5.1706672-9.252859-12.7622544-11.814938-14.5752926.087035-4.5910716.149591-9.2417075.195828-13.8624253 1.642777 3.4987883 7.245625 14.7044845 11.428722 14.1191772 4.849455-.6791413-3.728886-11.0452262-11.420563-14.9133673.043518-4.5315074.070716-9.0287449.084315-13.4071259.016319.1150488.032638.2279217.051677.350314.459651 2.9705974 5.627326 14.1839091 7.931022 10.4707983 2.300975-3.7131107-7.931022-14.1659582-7.931022-14.1659582s-.019039.0282862-.040798.0932901c.00544-4.2296063.00272-8.3243091-.008159-12.2041454 1.629177 4.1129256 7.31906 13.2395844 9.141346 10.1784167 1.729811-2.9064095-6.37256-11.5391473-9.154945-14.3680416-.024479-5.6145434-.062556-10.6709778-.103354-14.8886169 1.931079 4.2287904 7.784151 15.8704752 9.573799 11.6520202 1.9066-4.4956056-7.441453-13.1400387-9.609157-15.061054-.002719-.414502-.008159-.8162208-.013599-1.2076042h-4.645468c-3.443304 5.0852646-7.452332 12.3765826-4.737942 15.555519" fill="#327f6b"/><path d="m512.496152 9.79488655h-80.474306v4.04792175h248.198011v-4.04792175z" fill="#13375b"/><path d="m521.727252 76.831604h.652759v-61.7224432c6.562948 4.5864479 13.890168 7.4493401 21.791271 8.5122493 6.484073.8717053 13.362521.5407021 20.444956-.9843062 10.408786-2.2408672 18.236455-6.4489869 20.235529-7.5896833v25.2313113h.652759v-26.3842468l-.497729.3059807c-.084314.0519488-8.600099 5.2343113-20.548309 7.8029179-11.004429 2.3657075-27.258128 2.9346957-42.214468-7.7904066l-.516768-.3701688z" fill="#184655"/><path d="m585.178147 35.8119564c3.296433 0 5.970025 2.6727762 5.970025 5.9700251v12.7347841h-11.94005v-12.7347841c0-3.2972489 2.673592-5.9700251 5.970025-5.9700251" fill="#f47458"/><path d="m522.053631 74.5028863c3.296433 0 5.970025 2.6727761 5.970025 5.970025v12.7347842h-11.94005v-12.7347842c0-3.2972489 2.673593-5.970025 5.970025-5.970025" fill="#f47458"/><path d="m516.592214 181.557538c6.027142-2.582749 12.775038-5.201129 18.95449-3.006771 3.892076 1.381945 6.886607 4.476839 9.731549 7.471099 3.116924 3.283106 6.432396 7.018519 6.508551 11.546219.032638 1.84078-.492289 3.642939-1.066173 5.391789-1.12057 3.406042-2.485924 6.791685-4.694425 9.617044-3.576576 4.579376-9.07335 7.294854-14.670759 8.85794-4.952809 1.383305-6.182171.895367-11.322649.673429-3.467782-.149862-8.964557-5.662412-11.216575-8.304726-3.579295-4.198872-3.266515-22.396433.508608-26.984513.998177-1.2125 2.428807-2.39481 4.017188-3.486277 1.028095-.707156 2.094268-1.347132 3.187639-1.926999.024479.054396.043518.106345.062556.151766" fill="#13375b"/><path d="m449.246524 266.453742c-.440612-1.2756 5.749719-2.279217 6.081538-3.565696.334539-1.283759-7.803189-1.414311-8.091491-2.54576-.527647-2.083389 8.921039-.405255 8.738811-1.378953-.182229-.976419-9.843062-3.18492-8.793208-4.852176 1.052574-1.667255 9.780506 3.337231 10.049769 2.203062.266543-1.131449-8.534824-3.921994-8.368915-6.405198.087035-1.329996 14.442293 6.674461 16.112268 5.956426 1.669976-.715315-1.770608-6.970922-.437892-7.892944 1.329996-.922022 5.09424 12.707042 6.008103 13.166693.911142.454211 20.303524 11.610951 27.21189 13.397878.845867-2.311854 6.921966-14.567405 7.669919-16.754147 3.870317 2.774225 8.366194 3.394346 12.358903 5.923788-2.923816 7.259224-12.951826 25.117622-14.975379 26.023325-6.160413 2.757907-29.885483-17.058768-34.623425-20.453115-4.743382-3.397067-7.465931-2.311855-10.67805-3.388907-3.209398-1.079773-7.822228 1.838604-8.262841.565724" fill="#f48c7f"/><path d="m558.330713 362.49363-2.181303-1.830445c7.990858-9.353493 12.386102-27.179253 12.707042-51.548922.244784-18.576434-1.982756-34.514633-2.004514-34.672383l2.831342-.394375c.021759.16047 2.276497 16.280898 2.031712 35.066758-.144151 11.061545-1.11241 20.882848-2.877579 29.191926-2.2357 10.5067-5.768758 18.644429-10.5067 24.187441" fill="#13375b"/><path d="m548.495811 241.817529c1.335436 0 52.702129-2.997251 53.591514 3.679929.889384 6.674461 2.670872 58.740151-6.231129 60.518919-8.899281 1.781488-52.06569-6.228409-52.06569-6.228409z" fill="#f47458"/><path d="m514.081812 272.206181s13.115016-9.500364 17.080527-16.302656c3.965511-6.802293-2.70079-2.374411-9.508522-4.164059-2.578398-.677237-1.925639-15.649897-6.799573-10.784122-7.996298 7.985418-14.529328 23.844742-14.529328 23.844742z" fill="#466eb6"/><path d="m533.69722 234.087775s13.827612-2.70623 20.140335 2.518562c6.310004 5.224792-1.351755 51.679474-1.346315 59.37931.005439 7.702556 4.332688 29.45847 4.332688 29.45847s-41.915288 7.270103-48.57343-4.289171c0 0-1.893001-44.044913-1.610138-49.582485.280142-5.540292 6.494952-28.19103 8.213884-30.617117 1.716212-2.426088 18.842976-6.867569 18.842976-6.867569" fill="#86b1f2"/><path d="m533.784255 212.88861s.073435.409607.203987 1.106699c.625561 3.345118 3.040769 14.440661 4.672666 17.492309 1.971877 3.685369-6.750616 15.44319-15.146728 14.00984-2.499523-.429733 2.113307-10.803161 1.893001-11.904692-.424294-2.102428-1.000897-4.971848-1.58838-7.915791-.33182-1.660184-.669078-3.343486-.984579-4.92561-.897543-4.495878-1.631897-8.173087-1.631897-8.173087z" fill="#f7a491"/><path d="m533.988242 213.995309c-.130552-.697092-.203987-1.106699-.203987-1.106699l-12.58193-.310332s.734354 3.677209 1.631897 8.173087c.312781 1.573149.64732 3.24666.979139 4.897868 1.941958-.28259 3.970951-1.21658 6.005383-2.978485 2.21938-1.920471 3.671769-4.228246 4.550274-6.692412-.15503-.786302-.285582-1.464084-.380776-1.983027" fill="#f47458"/><path d="m525.317426 184.607555s5.929228-.677782 9.644515 4.076752c3.718006 4.754261 7.724315 19.457114-1.509505 27.450692-9.233821 7.993577-18.356128-1.05475-19.707883-10.648132-1.354475-9.593925-1.879402-21.225547 11.572873-20.879312" fill="#f7a491"/><path d="m524.653788 183.035765s7.920143 13.981554 13.588267 14.627514c5.668124.646231 6.410637 8.075445 6.410637 8.075445s-2.026273-17.119149-7.63456-20.420478c-5.611008-3.301057-12.364344-2.282481-12.364344-2.282481" fill="#13375b"/><path d="m472.373232 286.817103 38.743966-9.329014s13.69978-18.211976 26.896391-33.91355c4.060705 3.81864 6.397038 9.769626 10.482222 13.552909l-29.034177 33.179196c-1.047134 1.196725-2.553919 1.898441-4.153179 1.936518l-41.248929.981859z" fill="#f7a491"/><path d="m533.623785 276.239687s18.424123-15.024336 22.389633-21.826629c3.965511-6.805012 1.022656-18.201096-5.785076-19.990744-6.807733-1.789648-29.026017 29.006978-29.026017 29.006978z" fill="#466eb6"/><path d="m519.108056 211.446285 6.228409-.684037s.116953 2.359996-2.613756 2.739412c-3.32907.462371-3.614653-2.055375-3.614653-2.055375" fill="#fff"/><path d="m446.020807 290.69014c-.405255-.620121.614681-1.672695 1.378953-2.461446.845867-.875785 5.972745-3.070687 6.84581-3.33451.870346-.263824 8.344436.780591 11.202977 1.708053 2.86126.930181 4.746102.546685 4.746102.546685.750673-.15231 1.876682-.353578 2.752467-.533086l1.792367 6.609185c-6.715258-.084315-13.735137.410694-14.371577.397095-2.018113-.051677-5.714361-2.143226-6.571107-2.450566-.856747-.307341-2.594717-.065276-3.761524.47597-1.166807.543966-4.566593 1.833165-5.135038 1.531263-.571164-.299181 1.12057-2.488643 1.12057-2.488643" fill="#f7a491"/><path d="m536.330015 201.21592c-.527647 2.470964.46781 4.776292 2.21938 5.148908 1.75157.372617 3.598334-1.328364 4.123261-3.799057.527647-2.470965-.46781-4.776292-2.21938-5.148909-1.75157-.372616-3.598334 1.328365-4.123261 3.799058" fill="#f7a491"/><path d="m532.184995 175.266845c.394375-1.409415.96282-2.840589 2.061631-3.805313 1.724371-1.509777 4.626429-1.399624 6.231128.236354.63372.645143 1.082492 1.486386 1.841325 1.974052 1.718932 1.100714 4.362606.017678 5.820434 1.442597.459651.447956.698996 1.066717.998177 1.632713 1.055294 1.981124 2.951015 3.424809 3.938313 5.440747.783311 1.600347.922022 3.503956.383496 5.201945-.611962 1.920471-2.045312 3.509396-3.745205 4.591344s-3.65817 1.695541-5.632766 2.104059c-.96282.199636-1.974596.35113-2.921097.084315-1.041694-.293741-1.876682-1.056381-2.670872-1.794543-1.237522-1.154024-2.532161-2.39209-2.997252-4.020452-.174069-.610057-.252944-1.307421-.731634-1.721923-.837707-.722387-2.132346-.23309-2.915657-1.139609-.573883-.666086-.435172-1.441781-.459651-2.275681-.078875-2.710582.062556-5.322434.79963-7.950605" fill="#13375b"/><path d="m483.440217 431.449459s12.723361 15.11953 12.804955 16.433208c.084315 1.316397-.503168 15.671655-2.018113 16.988053-1.512225 1.316397-5.956426 2.249298-4.528515 3.728885 1.079772 1.11785 9.38885.878505 14.896504.579324 1.607419-.089754 3.622812-12.799516 4.259253-14.668039.924741-2.711669 3.17404-8.823125 2.333613-10.713407-.410694-.922022-2.368971-2.815023-5.132318-4.582912-2.902057-1.860363-14.01256-17.178441-14.01256-17.178441z" fill="#f48c7f"/><path d="m505.876088 439.124817s-8.542984 23.836583-11.885654 24.98707c-.889384.307341-5.148637 1.082492-5.953706 2.948295-.242065.563005 0 2.442407 0 2.442407h17.806722s2.252018-10.50398 3.144122-15.116811c0 0 4.713464-11.276411 4.188537-12.301787-.522207-1.022656-7.300021-2.959174-7.300021-2.959174" fill="#466eb6"/><path d="m407.230603 438.711403s-10.389747 14.493969-9.473165 19.079601c.48957 2.456006 2.668153 5.670844 1.417031 7.979979-1.251121 2.311855-2.679031 2.888459-2.679031 2.888459l-32.409485.516767c-1.765169.029918-.601082-1.093371.824108-2.129626 2.328174-1.694454 4.210296-2.815023 11.651749-6.37528.486849-.231185 2.252018-1.343595 2.891178-1.727091 1.615579-.976419 3.239317-2.513122 4.634589-4.052546 2.328174-2.562079 12.560171-23.442207 12.560171-23.442207z" fill="#f7a491"/><path d="m379.455708 458.941492c8.572901 2.173144 14.907384.696276 18.451321-.718035.916582 2.562079 2.126906 5.776917 1.485027 7.629121-.788751 2.268338-1.906601 2.782385-2.896618 2.806864-7.830389.203987-28.677879.481409-34.647904.557656-.834988.010788-1.294639-.952031-.758832-1.585752 1.479587-1.74885 17.727846-8.303638 18.367006-8.689854" fill="#466eb6"/><path d="m444.813203 349.288859s12.864792 14.551086 16.144906 16.854782c3.282834 2.303695 34.773016 59.768246 34.773016 59.768246l-11.219296 8.11597s-28.144792-34.773016-41.360442-53.373928c-11.175778-15.728772-7.060676-14.730595-13.631784-24.304393-3.617372-5.271029-2.795984-12.396982 1.974596-16.672553.592923-.533087 1.237523-1.087932 1.939239-1.667255 9.726109-8.034376 76.40816-17.075088 76.40816-17.075088l42.649642 4.13686s-34.846452 24.217359-36.14653 24.861959c-1.300078.641879-48.121937 7.408814-49.098356 7.408814-.973699 0-22.433151-8.053414-22.433151-8.053414" fill="#eab054"/><path d="m556.823928 325.444117s7.31634 21.750474-3.658171 31.898156c-10.971791 10.150403-76.163376 9.021674-97.622828 9.021674 0 0-8.779609 23.844742-9.756027 27.709619-.973699 3.867597-43.568944 53.809101-43.568944 53.809101l-11.703425-7.408815s45.845441-88.285655 49.422016-92.153252c3.576576-3.864877 54.622329-19.332546 67.304893-22.876483 12.679843-3.543937 49.582486 0 49.582486 0" fill="#f7cc7f"/><path d="m357.411492 242.402293h64.204288c1.697173 0 3.228437 1.017216 3.873037 2.575678l19.767718 47.779239h35.395857c.990018 0 1.792367.79419 1.792367 1.776048 0 .979139-.802349 1.773329-1.792367 1.773329h-100.739753c-2.768786 0-5.281908-1.610139-6.416077-4.115101l-19.90643-43.941561c-1.242961-2.744307.783311-5.847632 3.82136-5.847632" fill="#184655"/><path d="m391.977801 270.226145c.435173 2.145945 2.322735 3.582015 4.218455 3.203959 1.898441-.375337 3.084287-2.420648 2.649114-4.566593-.432453-2.145946-2.322734-3.579295-4.218455-3.203959s-3.081566 2.420648-2.649114 4.566593" fill="#fff"/><path d="m203.853473 470.245102h-4.8927l10.429185-90.643747h4.8927z" fill="#355389"/><path d="m259.089668 470.245102h4.892973l-10.430545-90.643747h-4.892973z" fill="#355389"/><path d="m120.967223 470.245102h-4.8927l10.429185-90.643747h4.892428z" fill="#355389"/><path d="m176.202602 470.245102h4.892701l-10.428913-90.643747h-4.892973z" fill="#355389"/><path d="m200.151514 389.452577h-66.737264c-7.821957 0-14.811918-6.342642-15.612636-14.164871l-11.028635-107.724274c-.800718-7.819508 4.890797-14.16215 12.712753-14.16215h66.737265c7.821684 0 14.811917 6.342642 15.612635 14.16215l11.028635 107.724274c.800718 7.822229-4.890796 14.164871-12.712753 14.164871" fill="#eab054"/><path d="m218.683342 389.452577h-66.737264c-7.821685 0-14.811918-6.342642-15.612636-14.164871l-11.028635-107.724274c-.800718-7.819508 4.890797-14.16215 12.712753-14.16215h66.737265c7.821684 0 14.811917 6.342642 15.612635 14.16215l11.028635 107.724274c.800718 7.822229-4.890796 14.164871-12.712753 14.164871" fill="#f7cc7f"/><path d="m227.625868 394.418985h-94.593483c-7.329939 0-13.880648-5.942827-14.631049-13.272767-.7504-7.329939 4.583457-13.272766 11.913396-13.272766h94.593755c7.329939 0 13.880376 5.942827 14.631049 13.272766.750673 7.32994-4.583456 13.272767-11.913668 13.272767" fill="#eab054"/><path d="m251.240241 394.418985h-94.592939c-7.329939 0-13.880376-5.942827-14.630777-13.272767-.750673-7.329939 4.583184-13.272766 11.913124-13.272766h94.593483c7.329939 0 13.882008 5.942827 14.629961 13.272766.750673 7.32994-4.582912 13.272767-11.912852 13.272767" fill="#f7cc7f"/><path d="m269.329825 285.481667c.440612-1.27288-5.749719-2.279217-6.081538-3.562976-.334539-1.286479 7.80319-1.414311 8.091492-2.54576.527646-2.08339-8.92104-.407975-8.738812-1.381674.182229-.973698 9.843062-3.1822 8.793208-4.849455-1.052574-1.667255-9.780506 3.334511-10.049769 2.203062-.266543-1.134169 8.537544-3.921994 8.368915-6.407918-.087035-1.327277-14.442293 6.674461-16.112268 5.959146s1.770608-6.973642.440612-7.892944c-1.332716-.922023-5.09696 12.707041-6.010822 13.163973-.911143.456931-20.304069 11.61367-27.210803 13.400598-.847499-2.311855-6.922782-14.567405-7.670735-16.754148-3.869229 2.774226-8.36565 3.391627-12.360263 5.921068 2.925448 7.259225 12.952098 25.117623 14.976195 26.023326 6.161773 2.757907 29.888475-17.058769 34.623697-20.453115 4.743383-3.397067 7.465932-2.309135 10.67805-3.388908 3.209398-1.079772 7.824948 1.838605 8.262841.565725" fill="#f48c7f"/><path d="m209.111991 227.679857c.286942-6.919517-.732178-13.75336-3.828432-20.196363-2.664072-5.543284-9.255578-8.689038-15.266401-8.696944-19.087761-.02446-21.514664 25.194612-33.664957 34.923169-3.712567 2.972773-7.862482 5.393421-11.375686 8.59738-12.971681 11.836696-7.128672 33.74764 4.782548 44.126508 8.265833 7.199388 21.256825 11.290011 31.444489 5.662684 5.31781-2.940135 9.354852-7.824948 12.2308-13.174852 4.081919-7.596483 6.713082-16.359772 9.616228-24.456704 3.09027-8.613699 5.679547-17.586415 6.061411-26.784878" fill="#13375b"/><path d="m201.973527 291.378257s-14.255168-14.616362-17.923402-20.967163c-3.668233-6.350802 2.497891-2.216661 8.796472-3.886636 2.38529-.633721 1.78176-14.610923 6.290421-10.066088 7.397663 7.452332 16.697575 20.485753 16.697575 20.485753z" fill="#96d9c9"/><path d="m181.705904 250.045013s-12.792988-2.526722-18.631101 2.352652c-5.837842 4.876654 1.250849 48.24161 1.244865 55.430118-.005983 7.188509-4.008484 27.500193-4.008484 27.500193s38.774157 6.785974 44.933482-4.006308c0 0 1.752114-41.115658 1.491282-46.283333-.260831-5.170395-6.009462-26.317067-7.59893-28.579965-1.589197-2.265618-17.431114-6.413357-17.431114-6.413357" fill="#50bfa5"/><path d="m181.625669 230.255536s-.067451.383496-.188212 1.033535c-.580411 3.122364-2.814751 13.482193-4.324256 16.329854-1.82419 3.440584 6.245 14.415095 14.011472 13.076939 2.312127-.399815-1.954197-10.085127-1.749122-11.110502.392471-1.963717.924742-4.642749 1.469251-7.392496.307341-1.547583.61849-3.119644.910599-4.596511.830636-4.196697 1.508417-7.629121 1.508417-7.629121z" fill="#f7a491"/><path d="m181.437457 231.289071c.120761-.650039.188212-1.033535.188212-1.033535l11.638149-.288302s-.677781 3.432424-1.508417 7.629121c-.290478 1.468707-.599722 3.029889-.905431 4.572032-1.796719-.263823-3.674217-1.136888-5.556611-2.779665-2.052383-1.792367-3.397339-3.949192-4.209208-6.247448.143607-.734353.26328-1.368074.353306-1.852203" fill="#f47458"/><path d="m189.458505 203.855786s-5.485351-.632632-8.923759 3.805585-7.144447 18.163291 1.397176 25.624054c8.541352 7.463212 16.980982-.984578 18.232375-9.938799 1.251393-8.955854 1.737699-19.814228-10.705792-19.49084" fill="#f7a491"/><path d="m202.69129 223.21417c-1.019664 1.97786-2.73098 3.073135-3.822448 2.446486-1.091467-.627192-1.149943-2.738868-.130551-4.716728 1.019664-1.977859 2.73098-3.073406 3.822447-2.446214 1.091468.626649 1.149944 2.738324.130552 4.716456" fill="#f7a491"/><path d="m190.072371 202.388438s-7.32858 13.051644-12.571323 13.654902c-5.24247.602986-5.930859 7.538551-5.930859 7.538551s1.874234-15.9809 7.064484-19.062467c5.189978-3.081838 11.437698-2.130986 11.437698-2.130986" fill="#13375b"/><path d="m178.875922 219.32291c.426469 2.317839-.431093 4.443385-1.915304 4.747734-1.48421.304077-3.032881-1.328092-3.45935-3.645931-.426198-2.317838.431093-4.443385 1.915303-4.747734 1.484211-.304349 3.032882 1.328093 3.459351 3.645931" fill="#f7a491"/><path d="m228.197576 434.283521s-11.769245 14.113193-11.847304 15.339836c-.077515 1.229363.467811 14.629961 1.867707 15.859324 1.399624 1.226643 5.511462 2.096989 4.189625 3.478662-.998993 1.044414-8.685775.821388-13.779743.541246-1.487202-.081595-3.351917-11.94821-3.941032-13.69162-.855386-2.532161-2.935512-8.235643-2.157913-10.000812.379145-.862186 2.191639-2.630075 4.746102-4.278291 2.68692-1.735251 12.963794-16.036113 12.963794-16.036113z" fill="#f48c7f"/><path d="m207.441472 441.447551s7.903008 22.253642 10.996269 23.327975c.821389.282862 4.762965 1.006336 5.506566 2.749747.224114.524927 0 2.279217 0 2.279217h-16.472645s-2.083389-9.802265-2.906953-14.110474c0 0-4.360431-10.525739-3.876029-11.483119.484674-.95738 6.752792-2.763346 6.752792-2.763346" fill="#f7cc7f"/><path d="m298.69582 441.061335s9.611877 13.53115 8.76601 17.812161c-.454212 2.292816-2.469605 5.292788-1.313678 7.449612 1.158647 2.156825 2.480484 2.695351 2.480484 2.695351l29.980677.48413c1.631898.024478.554846-1.022656-.761552-1.990915-2.156824-1.580221-3.894795-2.624635-10.781403-5.950986-.448771-.214867-2.083389-1.253842-2.673592-1.612859-1.493186-.911143-2.994532-2.344493-4.28917-3.780563-2.151385-2.390729-11.61911-21.883745-11.61911-21.883745z" fill="#f7a491"/><path d="m324.390047 459.945109c-7.931022 2.031712-13.792254.650039-17.069648-.669078-.845867 2.39345-1.966437 5.393421-1.370794 7.123233.726194 2.116027 1.762449 2.597437 2.679031 2.619195 7.242906.190388 26.529214.448772 32.050467.522263.772432.008104 1.196725-.88944.701716-1.482363-1.370794-1.631897-16.40057-7.751513-16.990772-8.11325" fill="#f7cc7f"/><path d="m263.930964 357.584338s-11.901973 13.585547-14.937302 15.736932-32.165788 55.791856-32.165788 55.791856l10.377781 7.577444s26.03366-32.461161 38.262012-49.827271c10.338071-14.678918 6.53031-13.748736 12.609128-22.686095 3.34811-4.920171 2.589278-11.572873-1.825005-15.565582-.549405-.495009-1.145048-1.014496-1.795087-1.553023-8.997195-7.501288-70.682649-15.940918-70.682649-15.940918l-39.454386 3.862157s32.235688 22.6045 33.438668 23.205582c1.203253.603803 44.514628 6.919246 45.417611 6.919246.902984 0 20.755017-7.520328 20.755017-7.520328" fill="#13375b"/><path d="m160.311184 335.327976s-6.767751 20.300805 3.38374 29.77669c10.151218 9.473165 70.45799 8.420591 90.308663 8.420591 0 0 8.12141 22.259082 9.024394 25.868295.902983 3.609214 40.305148 50.229805 40.305148 50.229805l10.82764-6.916525s-42.410296-82.413544-45.717609-86.022757c-3.310032-3.611933-50.532522-18.048787-62.262873-21.356099-11.730623-3.310032-45.869103 0-45.869103 0" fill="#355389"/><path d="m193.925825 228.563802-7.30929-.546686s-.038601 2.787825 3.168894 3.122364c3.910842.405255 4.140396-2.575678 4.140396-2.575678" fill="#fff"/><path d="m238.292222 291.661119c.439797-1.27288-5.748903-2.279217-6.082898-3.562976-.333723-1.28648 7.803462-1.414312 8.091764-2.54576.530367-2.08339-8.921312-.407975-8.738539-1.381674.182772-.973699 9.84279-3.1822 8.792936-4.849455s-9.778874 3.33451-10.047593 2.203062c-.268719-1.134169 8.535096-3.921994 8.368642-6.407918-.08921-1.327277-14.442293 6.677181-16.11254 5.959146-1.670791-.715315 1.769521-6.970922.438437-7.892945-1.331085-.922022-5.094784 12.707042-6.009463 13.163974-.911959.456931-20.303797 11.61367-27.210803 13.400598-.847227-2.311855-6.922509-14.567405-7.670734-16.754148-3.869229 2.774226-8.365923 3.391627-12.360264 5.923788 2.925448 7.256504 12.952099 25.117623 14.975924 26.023326 6.162317 2.757906 29.887386-17.061489 34.625057-20.453116 4.742022-3.397066 7.466203-2.311854 10.676689-3.391627 3.210759-1.077052 7.823861 1.841325 8.263385.565725" fill="#f7a491"/><path d="m167.896516 290.866929s-8.395297-18.611791-9.669809-25.832938c-1.274784-7.223866 4.921259-16.289057 11.411315-15.704293 6.490057.584763 16.220518 32.716825 16.220518 32.716825z" fill="#96d9c9"/><path d="m299.065717 469.663059h195.887537v-170.892307h-195.887537z" fill="#44a088"/><path d="m494.787344 469.842567h112.807635v-168.463499h-112.807635z" fill="#96d9c9"/><path d="m298.758376 332.319845h.307341v-30.940777h-.307341z" fill="#9bd5ce"/><path d="m483.940665 332.319845h-184.874948v-30.940777h195.721627-10.846679z" fill="#2c8c70"/><path d="m494.787344 332.319845h112.807635v-30.940777h-112.807635z" fill="#62bea5"/><path d="m483.940665 469.842567h10.846679v-.179508h-10.846679z" fill="#94d0cf"/><path d="m483.940665 469.663059h10.846679v-137.343214h-10.846679z" fill="#2c8c70"/><path d="m494.787344 469.842567v-137.522722z" fill="#62bea5"/><path d="m483.940665 332.319845h10.846679v-30.940777h-10.846679z" fill="#1d7a5c"/><path d="m285.278903 301.379068h335.072075v-5.213912h-335.072075z" fill="#355389"/><path d="m554.835732 445.584411h.897544c.296461-3.02717.878505-6.36984 1.91476-9.86754 3.919274-13.229249 2.205781-14.940022 8.817686-23.208302 6.614625-8.268281 7.104194-25.416804 7.104194-25.416804s3.18492-19.473977 0-28.046878c-3.1822-8.572902-3.429705-17.148523-11.14586-26.210994 0 0-1.468708 12.124998-3.304593 17.638092-1.838604 5.510374-3.582015 10.775963-2.2221 24.005212 1.362634 13.226529 2.208501 14.33078 2.521282 17.757765.31278 3.429704-.176789 17.885597.557565 20.273607.734353 2.38529-4.286451 18.921851-4.653628 26.023325-.111513 2.135066-.310061 4.569313-.48685 7.052517" fill="#215e4b"/><path d="m557.650756 445.584411c1.2756-2.945575 3.522178-5.869391 7.455051-7.626401 10.289114-4.591072 17.230118-4.490438 22.006138-15.513906 4.77602-11.023467 4.77602-26.088601 6.429676-29.210965 0 0-4.408843-.734354-8.817686 7.16403-4.408843 7.901104-7.400655 13.781375-9.946415 18.372446-2.54576 4.593792-6.220249 3.307313-9.345333 6.799573-2.616476 2.923817-5.034404 9.728829-5.950986 13.183012-.299182 1.12329-.731634 2.203062-1.305518 3.212118-.519488.919303-1.131449 2.037152-1.498626 2.834062-.081595.176789-.16319.446052-.244785.786031z" fill="#3c8f7c"/><path d="m528.622019 393.339213c-.737074 9.429647 5.265589 8.695293 5.510374 14.697956.244784 5.999944 8.083332 16.166665 11.714304 23.393251 1.890281 3.758804 2.586558 9.503083 2.820463 14.153991h2.918377c-1.12873-11.768701-5.90203-19.960826-8.75785-26.526494-3.67449-8.450509-4.223895-12.307227-1.101531-18.921851 3.122364-6.614625-1.468708-23.700592 2.975493-31.316113 4.446921-7.618242 2.167704-19.574611 1.145048-24.165683-1.022656-4.593791.106073-7.716155 1.022656-12.560171.919302-4.841296-1.022656-11.874774-1.022656-11.874774-.16319 5.999943-4.732503 14.205668-8.039815 19.473977-3.307312 5.265589-9.55204 19.596369-8.817686 26.088601.734354 6.489513.367177 6.979082.367177 6.979082-2.328174 8.698014 0 11.14586-.734354 20.578228" fill="#215e4b"/><path d="m546.126839 437.919932c.375337 1.12601 1.577501 4.000869 2.679032 7.664479h1.789648c-.813229-4.664507-2.219381-10.074247-4.591072-13.174852-4.77602-6.247448-14.33078-8.942799-15.432311-13.474034-1.10153-4.531236.122393-18.127662-6.859409-25.718705 0 0 .981859 8.453229 0 10.716127-.979138 2.265618-9.307255 12.799516-4.408843 21.617202 4.901132 8.817687 15.92188 7.716156 19.351585 9.674433 3.429704 1.960997 6.859409.859466 7.47137 2.69535" fill="#3c8f7c"/><path d="m541.717996 397.250327c-.122392 9.062471 6.981802 12.492175 6.85941 17.51298-.122393 5.023524 1.468707 10.411506 2.817743 14.453172.851306 2.559359.380776 9.682592.228465 16.367932h1.971876c.495009-4.914731 1.038975-12.002606.859466-15.144009-.244784-4.286451 1.716213-7.716155 1.960997-15.187526.244785-7.471371 1.835885-14.205668-1.471427-23.638035-3.304593-9.429648-2.692631-20.6979-16.533842-31.109406 0 0-2.447846 11.023467-.611961 17.02613 1.838604 5.999944 4.041666 10.653571 3.919273 19.718762" fill="#3c8f7c"/><path d="m541.717996 397.250327c-.122392 9.062471 6.981802 12.492175 6.85941 17.51298-.122393 5.023524 1.468707 10.411506 2.817743 14.453172.851306 2.559359.380776 9.682592.228465 16.367932h.818669c.111513-1.397992.217586-2.273777.217586-2.273777l.407974-16.903738s-.815948-13.22653-2.287376-24.005213c-1.468708-10.778683-12.369783-41.896248-12.369783-41.896248s-2.447846 11.023467-.611961 17.02613c1.838604 5.999944 4.041666 10.653571 3.919273 19.718762" fill="#327f6b"/><path d="m555.738716 437.849217h-18.970809c-1.294638 0-2.252018 1.213044-1.952837 2.477764l6.916526 29.162009c.214866.905703 1.022655 1.547582 1.952837 1.547582h22.786729c.932901 0 1.74069-.641879 1.955557-1.547582l6.913806-29.162009c.301901-1.26472-.655479-2.477764-1.952838-2.477764z" fill="#f47458"/><path d="m343.893941 223.962123c0 3.372316 2.736149 6.105744 6.106017 6.105744 3.372588 0 6.106016-2.733428 6.106016-6.105744 0-3.372044-2.733428-6.106017-6.106016-6.106017-3.369868 0-6.106017 2.733973-6.106017 6.106017" fill="#f7cc7f"/><path d="m333.011905 292.933999h1.607419c.176789 0 .32094-.144151.32094-.32094v-6.579267c0-.176789-.144151-.32094-.32094-.32094h-1.607419c-.176789 0-.32094.144151-.32094.32094v6.579267c0 .176789.144151.32094.32094.32094" fill="#b75742"/><path d="m321.996597 209.754823c1.882122-2.463893 3.992709-3.825167 6.271926-4.045746 3.516739-.34025 6.318163 2.107324 6.345361 2.132074l1.403432-1.579132c-.144151-.1262-3.530338-3.081839-7.95278-2.654554-2.888459.279327-5.494055 1.916664-7.746074 4.866047z" fill="#50bfa5"/><path d="m337.975593 204.274911 9.620036 9.619764c.443332.442244.443332 1.159463 0 1.601436l-4.006308 4.008756c-.443333.442516-1.161367.442516-1.60198 0l-9.620036-9.619764c-.443332-.442244-.443332-1.159463 0-1.601707l4.009029-4.008485c.440612-.442244 1.158647-.442244 1.599259 0" fill="#b75742"/><path d="m359.481282 212.916353-20.52655 20.526822c-5.668124-5.668124-5.668124-14.858698 0-20.526822 5.668124-5.668396 14.858426-5.668396 20.52655 0" fill="#f47458"/><path d="m319.091819 209.878575-18.641709 37.976975 2.466885 1.210324 18.644429-37.975343zm-21.592723 38.983312 20.586386-41.93215 6.424237 3.153914-20.583667 41.933238z" fill="#b75742"/><path d="m301.478206 252.011449-2.602877.889384 13.669861 40.033166 2.602877-.886664zm-5.401581-.484129 6.775094-2.314575 15.095052 44.205383-6.775094 2.314575z" fill="#b75742"/><path d="m337.858641 234.985319 1.117849 1.117849c.125112.125112.32366.125112.446052 0l22.721453-22.718461c.122393-.123208.122393-.323387 0-.446596l-1.11785-1.118121c-.125112-.123209-.323659-.123209-.448771 0l-22.718733 22.719277c-.122393.122392-.122393.323659 0 .446052" fill="#96d9c9"/><path d="m295.130124 251.179181c0 2.883019 2.336334 5.219353 5.219352 5.219353 2.883019 0 5.219353-2.336334 5.219353-5.219353 0-2.883018-2.336334-5.219352-5.219353-5.219352-2.883018 0-5.219352 2.336334-5.219352 5.219352" fill="#f47458"/><path d="m347.489556 289.158876h-44.452888c-1.128729 0-2.042592.913863-2.042592 2.039872v5.107839h48.535352v-5.107839c0-1.126009-.913863-2.039872-2.039872-2.039872" fill="#50bfa5"/><path d="m330.659253 103.262632c0 21.013944-17.050609 38.04905-38.080328 38.04905-21.02972 0-38.077609-17.035106-38.077609-38.04905 0-21.0139442 17.047889-38.0490502 38.077609-38.0490502 21.029719 0 38.080328 17.035106 38.080328 38.0490502" fill="#355389"/><path d="m326.054582 101.163468c1.161367 18.473895-12.886551 34.389792-31.37323 35.548983-18.489398 1.159463-34.416718-12.876759-35.578085-31.350655-1.161367-18.4738956 12.886551-34.3897919 31.375949-35.5492551 18.486679-1.1591912 34.416719 12.8767592 35.575366 31.3509271" fill="#fff"/><path d="m262.39698 103.518296h10.34623v-.794462h-10.34623z" fill="#c5ddf9"/><path d="m312.485354 103.518296h10.34623v-.794462h-10.34623z" fill="#c5ddf9"/><path d="m292.141032 83.6649029h.79419v-10.3388867h-.79419z" fill="#c5ddf9"/><path d="m292.141032 133.512572h.79419v-10.338887h-.79419z" fill="#c5ddf9"/><path d="m293.514546 103.262632c0 .51568-.418854.933989-.935621.933989-.516768 0-.935622-.418309-.935622-.933989 0-.515952.418854-.933989.935622-.933989.516767 0 .935621.418037.935621.933989" fill="#b0c1ec"/><path d="m292.578925 103.680126c-.106074 0-.214867-.040798-.296462-.122393l-16.792225-16.7816176c-.16319-.1629177-.16319-.4272851 0-.5904749.16319-.1629177.427013-.1629177.590203 0l16.794945 16.7818895c.16319.162918.16319.427286 0 .590203-.081595.081595-.190388.122393-.296461.122393" fill="#b0c1ec"/><path d="m297.980505 120.222399c-.070715-.035086-.127832-.096554-.15231-.175973l-5.428779-16.384795c-.054397-.15911.032638-.330731.193108-.383496.15775-.052765.331819.033454.383496.192836l5.428779 16.384523c.051676.15911-.035358.331003-.193108.383768-.078875.026382-.16319.017679-.231186-.016863" fill="#b0c1ec"/><path d="m9.013343 473.563294h682.357814v-5.056163h-682.357814z" fill="#355389"/></g></svg>