<svg height="416" viewBox="0 0 850 416" width="850" xmlns="http://www.w3.org/2000/svg"><g fill="none" fill-rule="evenodd"><path d="m42.1318914 412.938593s-71.2019583-88.294818-28.4820029-172.317032c42.7260531-84.022213 123.8976275-64.084811 237.8256385-149.5314293 138.312411-103.7327837 235.429272-109.4328428 358.875675-64.0854211 69.78731 25.6338026 81.177672 131.0184324 192.258093 196.5276494 100.135185 59.05549 18.512387 159.499825-34.177184 175.165232-52.695669 15.665406-88.293599 15.665406-88.293599 15.665406z" fill="#ecf4fa"/><path d="m466.069217 223.111014c-17.774575 36.077203-40.055294 134.661153-46.134625 140.062429-6.079331 5.401885-41.189452 26.334419-47.268783 36.462573-6.073234 10.128764-3.371986 6.752509-.670739 7.428126 2.701248.675007 155.300392 1.350014 155.300392 1.350014s-17.55506-104.660842-19.579471-105.335849c-2.024412-.675617-41.646774-79.967293-41.646774-79.967293" fill="#86b1f2"/><path d="m440.794565 407.925127c28.030778.195733 57.604256.350003 73.884913.429882l-22.292915-133.30992c-11.884269-23.050239-26.317346-51.934075-26.317346-51.934075-2.243926 4.548218-4.554925 10.090958-6.896413 16.313584-2.310999 100.126648 12.109882 128.190964 1.274404 146.032003-8.451308 13.921486-16.164802 20.149599-19.652643 22.468526" fill="#5b83cb"/><path d="m757.651511 415.095933h-732.7819939c-3.1219836 0-5.6524976-2.531124-5.6524976-5.652498 0-3.121984 2.530514-5.652498 5.6524976-5.652498h732.7819939c3.121984 0 5.652498 2.530514 5.652498 5.652498 0 3.121374-2.530514 5.652498-5.652498 5.652498" fill="#355389"/><path d="m559.655554 179.567879c25.341726 23.395975 81.763044 45.58279 81.763044 45.58279s8.567162 79.197773 2.71954 124.040921c-5.847622 44.843758-2.597588 53.942023-2.597588 53.942023h-116.330475s-15.616016-21.666078-44.195581-89.036289c-18.195311-42.893738-14.945277-90.98631-14.945277-90.98631l70.836101-31.845453z" fill="#86b1f2"/><path d="m525.210075 403.133613h116.330475s-3.250034-9.098265 2.597588-53.942023c4.817123-36.924773-.146343-97.141861-2.042704-117.256094l-10.585476-4.534194c-26.555153 7.653128-41.866288 47.268783-46.366335 85.984429-3.012226 25.903927-45.927305 51.404802-74.000767 65.444582 9.225705 17.58128 14.067219 24.3033 14.067219 24.3033" fill="#5b83cb"/><path d="m496.685388 98.2774014c-14.018438 31.2326416 2.811005 60.1652586 2.298805 58.9451236-.506103-1.219525 21.22583-52.732254 21.22583-52.732254z" fill="#2e5b9a"/><path d="m549.826184 121.372763 17.78677 65.004943c.500005 1.834775.073171 3.789673-1.121963 5.265908-4.176873 5.138468-10.115959 15.70809-22.09779 19.098979-2.329293.659153-5.195176.835374-7.518371.843947-2.445147.00911-4.548828-1.71042-5.012247-4.108615l-11.914758-61.655518z" fill="#f09959"/><path d="m546.429807 126.805746-6.500067 2.664662-19.981915 16.351999 10.725721 54.662762c18.195311-11.3428 20.847777-18.997758 15.756261-73.679423" fill="#e38540"/><path d="m549.173738 150.127939c-3.932968 21.384369-19.939231 35.846714-35.738176 32.302775-15.805042-3.54333-23.341705-17.384327-21.488028-45.135835 1.457333-21.771567 12.189151-45.4364466 27.994193-41.8925074 15.805042 3.5433294 33.171076 33.3405894 29.232011 54.7255674" fill="#f09959"/><path d="m641.418598 225.150669c23.536829 5.314689 27.908826 53.121283 35.561344 103.540709.884156 5.803109 5.402495 54.921911 5.402495 54.921911s.451224 9.003752-8.554967 13.505018c-7.689104 3.846382-10.80499 6.753119-55.372525 7.203124-42.799225.432321-97.988822-1.350624-97.988822-1.350624s-.48781-15.926385 3.90248-23.709392c6.603727-11.70439 74.281258-28.511272 80.586202-29.411281.89635-12.605009-6.219577-58.21219 3.597598-89.135071 6.756168-21.271563 14.01234-32.413142 23.109996-35.325367 3.030519-.970742 6.268358-1.02684 9.756199-.239027" fill="#86b1f2"/><path d="m544.673691 403.940939c21.09778.317076 50.055398.620128 73.781254.380492 44.567535-.450005 47.683421-3.356742 55.372525-7.203124 9.006191-4.501266 9.457416-12.154394 9.457416-12.154394s-4.548828-52.265786-5.402495-58.073164c-4.951271-33.763155-10.304985-72.398312-22.756334-91.047896 11.707438 34.309503 13.591604 63.258583 13.798924 75.623346.109757 6.26165-.469518 14.836739-2.298805 20.827045-2.024411 6.639703-7.201294 10.804381-15.305037 8.553138-16.207485-4.501876-36.463793 4.95188-36.463793 4.95188s15.305037-5.402495 29.707626-.450004c14.408686 4.95188 44.122409 37.815026 11.707438 49.969421-9.920834 3.719551-69.329987 6.752509-111.598719 8.62326" fill="#5b83cb"/><path d="m527.972298 380.76204s6.000063-10.203765 18.305068-10.203765c12.305006 0 11.408655 20.107526 9.603759 26.710034-1.7988 6.603117-9.000094 6.90312-9.000094 6.90312l-26.414908-1.200622z" fill="#96cfe0"/><path d="m501.19763 408.753794h-166.489532c-2.512221 0-4.567121-2.05429-4.567121-4.564682v-1.312209c0-2.511001 2.0549-4.565291 4.567121-4.565291h166.489532c2.512222 0 4.567121 2.05429 4.567121 4.565291v1.312209c0 2.510392-2.054899 4.564682-4.567121 4.564682" fill="#44a088"/><path d="m524.673484 381.962662c-25.811244-9.303755-32.585704-5.80128-38.415033-7.503127-14.408686-4.201263-18.012382-.600006-27.311259 24.910015-1.853678 5.08298 3.597598 5.401885 9.000093 5.401885s12.006223-10.503767 14.103805-11.704389c2.103681-1.200623 7.804959-1.800629 7.804959-1.800629s-1.798799 0-4.500046 5.401885c-2.701248 5.401886-6.00616 7.503127-1.7988 7.503127 4.201264 0 4.798831-6.90312 12.60379-5.402495 7.798861 1.500625 4.79883 5.402495 24.30513 5.102492 19.512398-.300613 34.232063-.00061 33.914986-11.704999-.298784-11.104384.932937-16.656881-9.603758-18.606901-8.103743-1.500625-20.103867 8.403136-20.103867 8.403136" fill="#f09959"/><path d="m525.008853 381.962662c17.256277-1.95063 12.189151 19.545325 10.390352 21.345953-1.798799 1.800629 9.609856.632324 9.609856.632324s5.359811-8.62326.859765-18.527022c-4.506145-9.903761-13.506238-10.353766-13.506238-10.353766l-7.652519 4.201264z" fill="#a86b48"/><path d="m543.027333 380.091911c-.225612 2.663442-4.75005 4.459802-10.109861 4.012237-5.36591-.448176-9.530587-2.970763-9.304975-5.635425.219515-2.663442 4.743952-4.460412 10.109861-4.012236 5.359812.448175 9.524489 2.970762 9.304975 5.635424" fill="#2e5b9a"/><path d="m541.655367 378.766897c-.201221 2.379903-4.243946 3.985407-9.036679 3.585403-4.786635-.400614-8.512283-2.654905-8.311062-5.034808.195124-2.380513 4.243947-3.985407 9.030582-3.584793 4.792732.400004 8.512283 2.653686 8.317159 5.034198" fill="#3e6bab"/><path d="m538.661434 377.663837c-.140246 1.713432-3.05491 2.868322-6.500068 2.580515-3.451255-.288418-6.128112-1.910996-5.987867-3.624428.140246-1.712823 3.05491-2.868323 6.506165-2.580515 3.445158.287808 6.122015 1.910996 5.98177 3.624428" fill="#f0ceb4"/><path d="m328.616571 375.774793h-167.721252c-8.823262 0-16.384317-6.388481-17.981894-15.186133l-21.872178-120.744546c-2.060997-11.387313 6.561043-21.883763 17.981894-21.883763h167.721252c8.823262 0 16.384317 6.38909 17.975796 15.186743l21.878276 120.744545c2.060997 11.387313-6.561043 21.883154-17.981894 21.883154" fill="#44a088"/><path d="m336.452019 354.344083-22.323403-118.245739c-1.628066-8.615943-9.347658-14.872716-18.353849-14.872716h-170.440793c-3.579305 4.154922-5.372007 9.840956-4.280532 15.766018l22.640479 123.278108c1.652456 8.98241 9.481806 15.505039 18.616047 15.505039h155.794299c11.65256 0 20.451432-10.279375 18.347752-21.43071" fill="#96d9c9"/><path d="m296.012575 391.943863h-31.841794c-5.676888 0-10.280595-5.05676-10.280595-11.295239v-58.213409c0-9.928761-7.329344-17.977625-16.366023-17.977625h-16.628222c-9.042776 0-16.366023 8.048864-16.366023 17.977625v65.19275c0 11.148286 8.256183 20.166063 18.408728 20.096346l86.891145-.596754c0-8.386062-6.189089-15.183694-13.817216-15.183694" fill="#44a088"/><path d="m205.792126 323.741936v64.193959c0 10.450108 8.103743 18.99349 18.353849 19.730692l84.799661-.529883c-.006098-1.389039-6.689094-3.920773-14.951375-3.920773h-34.439382c-6.140307 0-11.122066-4.97932-11.122066-11.122066v-68.351929c0-9.776321-7.926912-17.702013-17.701404-17.702013h-7.231782c-9.780589 0-17.707501 7.925692-17.707501 17.702013" fill="#96d9c9"/><path d="m383.300066 384.546835c12.817206-7.120196 28.482002-4.747 34.177183 2.373196 5.695182 7.119586 6.646411 11.865976-6.170795 11.865976s-38.445521.9494-42.719956.475005c-4.268337-.475005 14.713568-14.714177 14.713568-14.714177" fill="#f09959"/><path d="m402.288067 380.27484c13.762338-3.322596 23.170973 4.687243 34.652799 12.340981 9.963518 6.645191 11.969636 13.105014.945132 7.594591-16.134314-8.069596-25.628315-9.018386-25.628315-9.018386z" fill="#f09959"/><path d="m389.751352 384.502932c-6.951292 0-13.018428-2.216486-17.927015-1.807945-4.908588.40915-20.445334 16.356877-17.994089 17.583109.176831.088416.365857.168904.573176.244515 3.689063 1.357331 7.85374-.146953 9.93303-3.483573 2.201243-3.529305 5.77445-7.635445 9.939128-6.165918 6.951291 2.453684 14.250148 2.217097 14.250148 2.217097z" fill="#f09959"/><path d="m385.672041 401.634208c-7.115927-2.848201 4.274435-26.580764 8.073255-26.580764s18.036772 11.391582 18.036772 11.391582-3.347595 1.890263-14.713567-1.898191c-2.84759-.9494-5.219566 15.188572-8.542771 17.087373-3.323206 1.8988-2.853689 0-2.853689 0" fill="#f7a96f"/><path d="m491.935339 149.79318c-.658543 26.133808 8.243988 30.553366 14.469663 34.102183 6.231771 3.548817 33.061318-2.313439 37.000383-8.77692 10.073276-16.536148 1.59148-31.95582 3.847601-31.722891 2.256121.23354 4.317118 6.670801 10.18913 15.025156.548787.778057 4.365899 5.941525 4.567121 4.224434 2.725638-23.402681 14.914789-30.66983 12.01232-54.339588-2.140266-17.4495711-13.213552-16.0648006-13.213552-16.0648006s-7.146416-14.601371-29.390549-12.9428172c-14.902593 1.1103774-28.189317 6.9165352-43.549232 10.8708445-15.366013 3.9536996 18.17092 38.7754023 38.097956 26.0533193 19.927036-12.721474 10.091568 15.300768 13.231845 17.473962 3.146374 2.173193 1.512211.288417 2.957347 14.6282 1.43904 14.339173-16.768466 23.701466-21.988033 24.928917-16.689197 3.925041-19.481909 1.171964-23.134386-5.112248-3.170765-5.453105-5.097614-18.347751-5.097614-18.347751" fill="#2e5b9a"/><path d="m561.015324 141.701023c-1.914654 6.586653-6.597629 10.841576-10.451328 9.503757-3.859796-1.337209-3.969553-6.689704-3.518329-14.34771.408541-6.90373 6.591532-10.841576 10.451328-9.503757 3.853699 1.337819 5.432983 7.761056 3.518329 14.34771" fill="#f09959"/><path d="m196.340809 124.018522h-142.4648933c-1.5548942 0-2.8110048-1.25733-2.8110048-2.807956v-61.3073433c0-1.5506258 1.2561106-2.8079559 2.8110048-2.8079559h142.4648933c1.554894 0 2.811004 1.2573301 2.811004 2.8079559v61.3073433c0 1.550626-1.25611 2.807956-2.811004 2.807956" fill="#8ae3cd"/><path d="m192.834675 120.877636h-135.4526254c-1.250013 0-2.2683162-1.015255-2.2683162-2.268316v-41.6638473c0-1.252452 1.0183032-2.2677064 2.2683162-2.2677064h135.4526254c1.250013 0 2.268316 1.0152544 2.268316 2.2677064v41.6638473c0 1.253061-1.018303 2.268316-2.268316 2.268316" fill="#fff"/><path d="m61.7174605 67.2417135h-3.2866195c-.6951292 0-1.2622082-.5634205-1.2622082-1.2573301v-2.7073452c0-.6939096.567079-1.2567203 1.2622082-1.2567203h3.2866195c.6890315 0 1.2561106.5628107 1.2561106 1.2567203v2.7073452c0 .6939096-.5670791 1.2573301-1.2561106 1.2573301" fill="#fff"/><path d="m72.2602528 67.2417135h-3.2866195c-.6890315 0-1.2561106-.5634205-1.2561106-1.2573301v-2.7073452c0-.6939096.5670791-1.2567203 1.2561106-1.2567203h3.2866195c.6951291 0 1.2622082.5628107 1.2622082 1.2567203v2.7073452c0 .6939096-.5670791 1.2573301-1.2622082 1.2573301" fill="#fff"/><path d="m82.8091427 67.2417135h-3.2866194c-.6951292 0-1.2561106-.5634205-1.2561106-1.2573301v-2.7073452c0-.6939096.5609814-1.2567203 1.2561106-1.2567203h3.2866194c.6951292 0 1.2622082.5628107 1.2622082 1.2567203v2.7073452c0 .6939096-.567079 1.2573301-1.2622082 1.2573301" fill="#fff"/><path d="m189.40781 84.8034811h-74.049549c-1.213427 0-2.213438-.9963518-2.213438-2.2146571s1.000011-2.2152669 2.213438-2.2152669h74.049549c1.219525 0 2.213437.9969616 2.213437 2.2152669s-.993912 2.2146571-2.213437 2.2146571" fill="#77c8b5"/><path d="m133.71211 118.978836h-74.0434513c-1.2195248 0-2.2195352-.996962-2.2195352-2.215267s1.0000104-2.214657 2.2195352-2.214657h74.0434513c1.219525 0 2.213438.996352 2.213438 2.214657s-.993913 2.215267-2.213438 2.215267" fill="#77c8b5"/><path d="m147.352495 118.978836h-7.658616c-.420736 0-.756105-.340857-.756105-.757325v-2.915274c0-.416468.335369-.757325.756105-.757325h7.658616c.420736 0 .756106.340857.756106.757325v2.915274c0 .416468-.33537.757325-.756106.757325" fill="#b7e1ff"/><path d="m158.901396 118.978836h-7.658616c-.414639 0-.756106-.340857-.756106-.757325v-2.915274c0-.416468.341467-.757325.756106-.757325h7.658616c.420736 0 .762203.340857.762203.757325v2.915274c0 .416468-.341467.757325-.762203.757325" fill="#b7e1ff"/><path d="m190.115134 94.4548008h-122.6171258c-.8231792 0-1.5000155-.6762266-1.5000155-1.5030644 0-.8262281.6768363-1.5030644 1.5000155-1.5030644h122.6171258c.829277 0 1.506113.6768363 1.506113 1.5030644 0 .8268378-.676836 1.5030644-1.506113 1.5030644" fill="#77c8b5"/><path d="m190.115134 100.942063h-122.6171258c-.8231792 0-1.5000155-.676836-1.5000155-1.5030642 0-.8268378.6768363-1.5030643 1.5000155-1.5030643h122.6171258c.829277 0 1.506113.6762265 1.506113 1.5030643 0 .8262282-.676836 1.5030642-1.506113 1.5030642" fill="#77c8b5"/><path d="m229.80457 171.006815h-142.4709901c-1.5487965 0-2.8049071-1.257331-2.8049071-2.807347v-61.307953c0-1.550626 1.2561106-2.807956 2.8049071-2.807956h142.4709901c1.548797 0 2.811005 1.25733 2.811005 2.807956v61.307953c0 1.550016-1.262208 2.807347-2.811005 2.807347" fill="#96d9c9"/><path d="m226.298436 167.865928h-135.4526245c-1.2561106 0-2.2683162-1.015254-2.2683162-2.267706v-41.663847c0-1.252452 1.0122056-2.267707 2.2683162-2.267707h135.4526245c1.250013 0 2.268317 1.015255 2.268317 2.267707v41.663847c0 1.252452-1.018304 2.267706-2.268317 2.267706" fill="#fff"/><path d="m95.1751247 114.230006h-3.2866195c-.6951291 0-1.2561106-.562811-1.2561106-1.25672v-2.707346c0-.694519.5609815-1.25733 1.2561106-1.25733h3.2866195c.6951292 0 1.2561106.562811 1.2561106 1.25733v2.707346c0 .693909-.5609814 1.25672-1.2561106 1.25672" fill="#fff"/><path d="m105.724015 114.230006h-3.28662c-.695129 0-1.25611-.562811-1.25611-1.25672v-2.707346c0-.694519.560981-1.25733 1.25611-1.25733h3.28662c.695129 0 1.25611.562811 1.25611 1.25733v2.707346c0 .693909-.560981 1.25672-1.25611 1.25672" fill="#fff"/><path d="m116.272905 114.230006h-3.28662c-.695129 0-1.25611-.562811-1.25611-1.25672v-2.707346c0-.694519.560981-1.25733 1.25611-1.25733h3.28662c.695129 0 1.25611.562811 1.25611 1.25733v2.707346c0 .693909-.560981 1.25672-1.25611 1.25672" fill="#fff"/><g fill="#44a088"><path d="m222.865474 131.791774h-74.043451c-1.219525 0-2.213438-.996352-2.213438-2.214658 0-1.218305.993913-2.215266 2.213438-2.215266h74.043451c1.219525 0 2.219535.996961 2.219535 2.215266 0 1.218306-1.00001 2.214658-2.219535 2.214658"/><path d="m167.175872 165.967128h-74.049549c-1.2134273 0-2.2134376-.996352-2.2134376-2.214657s1.0000103-2.215267 2.2134376-2.215267h74.049549c1.219525 0 2.213437.996962 2.213437 2.215267s-.993912 2.214657-2.213437 2.214657"/><path d="m180.816257 165.967128h-7.664713c-.414639 0-.756106-.340247-.756106-.757325v-2.915274c0-.416468.341467-.757325.756106-.757325h7.664713c.414639 0 .756106.340857.756106.757325v2.915274c0 .417078-.341467.757325-.756106.757325"/><path d="m192.365158 165.967128h-7.658616c-.420737 0-.762204-.340247-.762204-.757325v-2.915274c0-.416468.341467-.757325.762204-.757325h7.658616c.414638 0 .756105.340857.756105.757325v2.915274c0 .417078-.341467.757325-.756105.757325"/><path d="m223.578896 141.443703h-122.617126c-.829277 0-1.5061131-.676836-1.5061131-1.503064 0-.826838.6768361-1.503065 1.5061131-1.503065h122.617126c.829277 0 1.506113.676227 1.506113 1.503065 0 .826228-.676836 1.503064-1.506113 1.503064"/><path d="m223.578896 147.930356h-122.617126c-.829277 0-1.5061131-.676227-1.5061131-1.503065s.6768361-1.502454 1.5061131-1.502454h122.617126c.829277 0 1.506113.675616 1.506113 1.502454s-.676836 1.503065-1.506113 1.503065"/></g><path d="m285.299049 154.632254c0 10.616574-8.609846 19.222761-19.22581 19.222761-10.615963 0-19.219711-8.606187-19.219711-19.222761 0-10.616573 8.603748-19.22276 19.219711-19.22276 10.615964 0 19.22581 8.606187 19.22581 19.22276" fill="#4cc645"/><path d="m264.164683 161.734767-.054879-.00061c-.396345-.014634-.774398-.193904-1.042693-.495736l-5.219567-5.932989c-.536591-.607323-.475614-1.531723.134148-2.065875.603665-.533542 1.530504-.474395 2.060997.132319l4.201263 4.774439 10.054983-9.837907c.573176-.565249 1.500015-.555493 2.067094.022562.567079.577445.554884 1.503674-.018293 2.069533l-11.158652 10.917187c-.274393.268295-.640251.417077-1.024401.417077" fill="#fff"/><path d="m408.458863 65.3398645h-122.22078c-3.134179 0-5.695181-2.5634412-5.695181-5.6964006v-43.668136c0-3.1323496 2.561002-5.6957908 5.695181-5.6957908h122.22078c3.134179 0 5.695181 2.5634412 5.695181 5.6957908v43.668136c0 3.1329594-2.561002 5.6964006-5.695181 5.6964006" fill="#96d9c9"/><path d="m296.677216 57.033071v30.378364l35.00646-35.005851s-34.293038 4.627487-35.00646 4.627487" fill="#96d9c9"/><path d="m402.416118 59.8812713h-110.13529c-2.658564 0-4.829318-2.1731933-4.829318-4.8293184v-34.4845042c0-2.6561251 2.170754-4.8293184 4.829318-4.8293184h110.13529c2.658564 0 4.829318 2.1731933 4.829318 4.8293184v34.4845042c0 2.6561251-2.170754 4.8293184-4.829318 4.8293184" fill="#fff"/><path d="m352.689992 26.6553168h-54.110318c-1.304891 0-2.378073-1.067694-2.378073-2.3731954 0-1.3055013 1.073182-2.3738051 2.378073-2.3738051h54.110318c1.304891 0 2.371976 1.0683038 2.371976 2.3738051 0 1.3055014-1.067085 2.3731954-2.371976 2.3731954" fill="#44a088"/><path d="m397.885583 35.7291914h-100.360798c-.725617 0-1.323184-.5939086-1.323184-1.3195259v-.0274393c0-.7250075.597567-1.3195259 1.323184-1.3195259h100.360798c.725617 0 1.317087.5945184 1.317087 1.3195259v.0274393c0 .7256173-.59147 1.3195259-1.317087 1.3195259" fill="#44a088"/><path d="m397.885583 40.8950987h-100.360798c-.725617 0-1.323184-.5939086-1.323184-1.3195259v-.0274393c0-.7256173.597567-1.3195259 1.323184-1.3195259h100.360798c.725617 0 1.317087.5939086 1.317087 1.3195259v.0274393c0 .7256173-.59147 1.3195259-1.317087 1.3195259" fill="#44a088"/><path d="m377.141465 57.9824711h-3.286619c-.69513 0-1.256111-.5628107-1.256111-1.2567204v-2.7073451c0-.6945194.560981-1.2573301 1.256111-1.2573301h3.286619c.695129 0 1.256111.5628107 1.256111 1.2573301v2.7073451c0 .6939097-.560982 1.2567204-1.256111 1.2567204" fill="#44a088"/><path d="m387.690355 57.9824711h-3.286619c-.69513 0-1.256111-.5628107-1.256111-1.2567204v-2.7073451c0-.6945194.560981-1.2573301 1.256111-1.2573301h3.286619c.695129 0 1.256111.5628107 1.256111 1.2573301v2.7073451c0 .6939097-.560982 1.2567204-1.256111 1.2567204" fill="#44a088"/><path d="m398.239245 57.9824711h-3.286619c-.69513 0-1.262209-.5628107-1.262209-1.2567204v-2.7073451c0-.6945194.567079-1.2573301 1.262209-1.2573301h3.286619c.695129 0 1.256111.5628107 1.256111 1.2573301v2.7073451c0 .6939097-.560982 1.2567204-1.256111 1.2567204" fill="#44a088"/></g></svg>