<svg height="336" viewBox="0 0 450 336" width="450" xmlns="http://www.w3.org/2000/svg"><g fill="none" fill-rule="evenodd"><path d="m114.995641 330.518436c-7.783561 1.715493-15.8570604-2.476456-18.7806624-10.142339l-83.9836445-220.227352c-3.21596221-8.4328955 1.0175103-17.8741573 9.4554009-21.0873801l-9.9390361 3.5840259c-8.43789061 3.2132228-12.67136312 12.6544846-9.45600625 21.0867752l83.98424985 220.227956c3.2159622 8.432896 12.6628889 12.663559 21.1013845 9.449126l3.378788-1.28662c.118034-.041738.236673-.079242.353496-.124609z" fill="#77e0b5"/><path d="m124.2864 135.903108-66.6781 25.470478-3.2777028-8.570208 66.6780998-25.470477z" fill="#77e0b5"/><path d="m100.972641 167.438302-35.8162423 13.681603-3.2777028-8.569603 35.8162427-13.681603z" fill="#77e0b5"/><path d="m36.0390179 192.227058c-19.635952 10.914191-32.38721477 32.374188-31.02892018 56.296729 1.89338032 33.337793 30.47204358 58.829441 63.83197648 56.937318 3.372735-.191148 6.6637544-.65934 9.8555046-1.373121z" fill="#ff688f"/><path d="m101.547072 335.7c-2.4423883 0-4.8787232-.515374-7.1740232-1.543702-4.2806859-1.916925-7.5577835-5.38481-9.2284132-9.765488l-83.9836445-220.227351c-1.6706297-4.3806779-1.53443706-9.1484909.38376059-13.4263359 1.91819765-4.2778449 5.38838608-7.5533723 9.77197311-9.2222884l120.9893032-46.0781725 62.705512 27.9632656 24.330663 63.8011052-2.262008.861981-23.972931-62.8623022-60.873872-27.147257-120.0547191 45.7218871c-3.77889173 1.4396593-6.77089268 4.2633273-8.42396866 7.9507909-1.65428658 3.6880685-1.7717149 7.7989613-.33170474 11.5753452l83.9842498 220.227956c1.4400102 3.776384 4.2655535 6.766399 7.9560713 8.418983 3.6905179 1.652584 7.8041404 1.769329 11.5824274.330275l55.5442-21.153314.862554 2.261717-55.544201 21.152709c-2.032599.774271-4.149335 1.160196-6.261229 1.160196" fill="#4f3cc9"/><path d="m363.660397 152.422897-91.641302-15.542272-4.276449 25.182545-38.921435-6.609125 4.039776-25.214605-90.807198-15.400726c-8.96087-1.519506-17.457475 4.507102-18.978596 13.46263l-24.2979769 143.079758c-1.5205151 8.954923 4.5106999 17.446493 13.4715709 18.965999l221.606003 37.584183c8.96087 1.519506 17.457475-4.507707 18.978595-13.46263l24.297978-143.080363c1.52112-8.954923-4.510095-17.445888-13.470966-18.965394" fill="#ff688f"/><path d="m363.660397 152.408379-11.444418-1.940515c8.96087 1.519506 14.992085 10.011076 13.47157 18.965394l-24.298582 143.080363c-1.520516 8.954923-10.01712 14.982135-18.977991 13.462629l11.443814 1.940516c8.96087 1.520111 17.45808-4.507102 18.978595-13.462025l24.297978-143.080362c1.52112-8.954923-4.510095-17.446494-13.470966-18.966" fill="#fff"/><path d="m336.645831 329.363079c-.993298 0-1.99386-.084081-2.993817-.253452l-39.421413-6.685948.405551-2.385116 39.421413 6.685947c4.014354.681721 8.05413-.241354 11.37602-2.596831 3.320679-2.356081 5.524579-5.86268 6.206147-9.875579l24.298583-143.080362c.681569-4.012295-.241515-8.04939-2.598555-11.36847-2.357646-3.318475-5.866574-5.520912-9.882138-6.202028l-91.638882-15.541667.405552-2.385117 91.638881 15.541667c4.652946.788789 8.719355 3.340857 11.450472 7.186804 2.731722 3.845947 3.801288 8.524235 3.01137 13.174093l-24.298582 143.080362c-.788707 4.649253-3.343076 8.713569-7.191577 11.442873-3.02166 2.143156-6.557221 3.262824-10.189025 3.262824" fill="#4f3cc9"/><path d="m272.320534 318.70839-160.274523-27.182946c-4.652341-.788788-8.719355-3.340856-11.451077-7.186803-2.7311165-3.845948-3.8006827-8.52484-3.0113707-13.174093l24.2985827-143.079758c.789312-4.649858 3.343681-8.713568 7.192182-11.443477 3.847896-2.729909 8.529291-3.79816 13.181631-3.009372l37.357944 6.335711-.404946 2.385116-37.357338-6.335106c-4.01617-.680511-8.055341.24075-11.37602 2.596831-3.320679 2.355476-5.525184 5.86268-6.206753 9.874974l-24.2979771 143.080363c-.6815685 4.012294.2415151 8.049389 2.5985551 11.36847 2.357646 3.318475 5.866574 5.520912 9.881533 6.202028l160.275129 27.182341z" fill="#4f3cc9"/><path d="m232.407012 148.310794-3.688097-.62486c-5.168056-.877104-10.06857 2.59925-10.945046 7.763877-.87708 5.164022 2.600977 10.061283 7.769034 10.937781l42.280248 7.170472c5.167451.876498 10.067965-2.599251 10.945046-7.763877.877686-5.164627-2.601582-10.061284-7.769034-10.937782l-1.975701-.335114z" fill="#fff"/><path d="m235.20229 131.849076-39.118763-6.633926.404946-2.385721 39.119369 6.634531z" fill="#4f3cc9"/><path d="m98.5090679 272.945975 24.8348791-146.237935c1.372216-8.082659 9.041981-13.523119 17.130007-12.151209l-6.931297-1.175923c-8.088027-1.371306-15.757791 4.06855-17.130007 12.151814l-24.8348794 146.238539c-1.3728218 8.082054 4.0712519 15.746728 12.1592784 17.118639l6.931298 1.175318c-8.088027-1.37191-13.5321009-9.035979-12.1592791-17.119243" fill="#4f3cc9"/><path d="m131.028238 114.378386c-2.804963 0-5.534869.864401-7.868302 2.519404-2.972027 2.108073-4.944096 5.246288-5.554239 8.836968l-24.8342736 146.239144c-.610143 3.590075.2160923 7.203136 2.325565 10.172585 1.800164 2.534526 4.3509008 4.341359 7.2932666 5.195477-3.9338482-3.56104-6.0263724-8.991822-5.0748399-14.59863l24.8348789-146.237935c.717887-4.227638 3.040425-7.922966 6.539668-10.404866.963639-.68414 1.985386-1.25335 3.047689-1.704-.237278-.012098-.473346-.018147-.709413-.018147zm-20.562667 176.879693-6.930692-1.175923c-4.2310514-.716806-7.9282275-3.037803-10.4123812-6.534723-2.4835485-3.497525-3.4562666-7.751174-2.73838-11.978813l24.8348792-146.238539c.717886-4.227639 3.040425-7.923571 6.539668-10.405471 3.498637-2.482505 7.756927-3.453368 11.986162-2.736563l6.904059 1.171085c.00908.001209.018159.003024.027239.004839l-.404946 2.385116c-3.593065-.608528-7.208525.216554-10.179946 2.324022-2.971421 2.108072-4.944096 5.246893-5.553633 8.836967l-24.8348792 146.23854c-1.2578147 7.408197 3.7468112 14.459503 11.1581112 15.721927l.009685.001815z" fill="#4f3cc9"/><path d="m269.433856 174.903964c-.601669 0-1.207575-.050812-1.813481-.153645l-42.280248-7.170471c-2.818279-.47787-5.281248-2.023387-6.93614-4.353457-1.654286-2.328861-2.301958-5.162812-1.82377-7.979221.478187-2.81641 2.025336-5.278348 4.356348-6.931537 2.331013-1.653188 5.166846-2.30043 7.984521-1.82256l3.688096.625465-.404946 2.385117-3.688096-.625466c-2.181504-.369593-4.375113.131868-6.178304 1.410624-1.803796 1.279362-3.000475 3.183583-3.370919 5.363034-.369839 2.179451.13135 4.372209 1.411561 6.174203 1.280211 1.802599 3.186302 2.999089 5.366595 3.368682l42.280854 7.170471c2.177871.367779 4.374507-.131263 6.177698-1.410019 1.803796-1.279361 3.00108-3.184188 3.371524-5.363639.763284-4.498028-2.276536-8.778897-6.778761-9.542884l-1.975096-.334509.40434-2.385722 1.975702.335114c5.818754.98659 9.748366 6.5196 8.760515 12.332679-.478187 2.816409-2.025941 5.278347-4.356348 6.932141-1.830429 1.297508-3.971983 1.9756-6.171645 1.9756" fill="#4f3cc9"/><path d="m271.369607 155.731694-1.636733-.277649-.086558.255872c3.370919 1.540073 4.969518 5.26625 4.290976 9.264632-.803234 4.728494-5.289116 7.910262-10.020751 7.108166l4.545202.771246c4.73103.802096 9.216913-2.380277 10.020752-7.108166.802628-4.728495-2.381858-9.211401-7.112888-10.014101" fill="#4f3cc9"/><path d="m191.445109 150.984447c-.682174 4.016529-4.493752 6.720427-8.512948 6.038706s-6.72489-4.49077-6.042716-8.507298c.682173-4.016529 4.493146-6.720427 8.512948-6.038706 4.019196.681721 6.724889 4.490165 6.042716 8.507298" fill="#fff"/><path d="m319.652621 172.728142c-.682173 4.016529-4.493751 6.720427-8.512947 6.038706-4.019197-.681721-6.72489-4.490769-6.042716-8.507903.682173-4.016528 4.493751-6.719821 8.512947-6.0381s6.72489 4.490769 6.042716 8.507297" fill="#fff"/><path d="m184.163947 143.5823c-2.953261 0-5.570581 2.130453-6.081455 5.135591-.568982 3.352955 1.697263 6.543191 5.051839 7.112401 3.355787.571025 6.547537-1.695531 7.117125-5.048486.568982-3.35235-1.696658-6.543191-5.051839-7.112401-.347443-.058675-.69428-.087105-1.03567-.087105zm.021186 14.756508c-.48303 0-.969692-.040528-1.455748-.1234-2.262614-.383505-4.240736-1.624758-5.568766-3.49571-1.328634-1.869743-1.849193-4.145372-1.464827-6.406484.792944-4.668005 5.237061-7.822553 9.908771-7.028925 4.671105.792417 7.826537 5.23419 7.033593 9.902194-.38376 2.261112-1.625837 4.237922-3.497427 5.565675-1.46967 1.042241-3.189329 1.58665-4.955596 1.58665z" fill="#4f3cc9"/><path d="m312.36117 165.32539c-1.268105 0-2.502313.390765-3.558562 1.139629-1.343767.953321-2.235981 2.373019-2.511998 3.996567-.568982 3.35235 1.696658 6.543796 5.051839 7.112401 1.623417.274625 3.260149-.097388 4.604522-1.051314 1.344373-.95332 2.235981-2.373018 2.512603-3.997172.275412-1.624153-.098664-3.257985-1.052618-4.601465-.953954-1.343481-2.374594-2.235102-3.999826-2.510331-.348653-.05928-.698517-.088315-1.04596-.088315zm.031476 14.757718c-.48303 0-.969086-.041133-1.455748-.123399-4.671105-.792418-7.825932-5.234795-7.032988-9.903405.383761-2.260507 1.625837-4.237317 3.497427-5.564465 1.870984-1.327753 4.145099-1.847966 6.411344-1.463855 2.262614.384111 4.240736 1.625363 5.568766 3.495711 1.328635 1.870347 1.849193 4.145372 1.464827 6.406484-.384366 2.261717-1.626443 4.237921-3.497427 5.565674-1.46967 1.042241-3.189934 1.587255-4.956201 1.587255z" fill="#4f3cc9"/><path d="m313.609905 164.220845c-.516321-.087711-1.027195-.111302-1.5302-.088921 3.161486 1.261215 5.127502 4.590578 4.535518 8.080845-.593195 3.489661-3.548272 5.984869-6.949456 6.133674.467897.186309.957585.33209 1.473907.420405 4.019196.681721 7.830774-2.022177 8.512947-6.038706.682174-4.017133-2.02352-7.825576-6.042716-8.507297" fill="#4f3cc9"/><path d="m185.402393 142.477149c-.516322-.08771-1.027801-.111301-1.5302-.089525 3.161485 1.261819 5.127501 4.591788 4.534912 8.081449-.59259 3.489662-3.548272 5.98487-6.948851 6.133675.467292.186309.957585.332694 1.473907.420405 4.019196.681721 7.830774-2.022177 8.512948-6.038706.682173-4.017133-2.02352-7.825577-6.042716-8.507298" fill="#4f3cc9"/><path d="m206.701105 241.289802c-4.103333 24.160871-27.028488 40.422973-51.205405 36.322968s-40.450425-27.01055-36.347092-51.172026c4.102728-24.160871 27.028489-40.423578 51.205406-36.322363 24.176917 4.100004 40.450424 27.010549 36.347091 51.171421" fill="#fff"/><path d="m284.425336 237.410585-56.798988-9.633015 1.535647-9.045053 56.799594 9.633015z" fill="#fff"/><path d="m328.933696 266.673174-104.891939-17.789472 1.536253-9.045658 104.891939 17.789472z" fill="#4f3cc9"/><path d="m257.563911 276.282597-37.106139-6.292763 1.535648-9.046263 37.106138 6.293973z" fill="#4f3cc9"/><path d="m314.570517 285.950696-48.50758-8.226625 1.535647-9.045053 48.508186 8.22602z" fill="#4f3cc9"/><path d="m354.007668 200.206279-91.810181-15.570702.405551-2.385116 91.810182 15.570702z" fill="#fff"/><path d="m246.197576 181.922001-110.811779-18.793604.404946-2.385116 110.812384 18.792998z" fill="#fff"/><path d="m268.733523 163.458067-37.339784-6.332686 12.568462-74.0105887 8.747199 1.483817-.405552 2.3851163-6.359893-1.0785348-11.757965 69.2397512 32.566384 5.522727 7.736953-45.560984 2.3867.404677z" fill="#4f3cc9"/><path d="m278.201635 107.705747-2.387305-.404678 2.696009-15.8725464-6.359894-1.0791396.405551-2.3851164 8.746594 1.4832121z" fill="#4f3cc9"/><path d="m326.332114 127.955947c-5.846599-4.353458-9.104327-11.752581-7.799904-19.431167l12.400188-73.0215789c.675516-3.97842.463661-7.9060285-.498767-11.5692961-.848632-3.2410482-2.282589-6.2800602-4.198971-8.9718603-3.588222-5.05755953-8.876128-8.90532134-15.205151-10.62383907-2.241428-.1609031-4.449565-.05020661-6.589303.31938661 9.943274 5.50397496 15.814084 16.85671726 13.803881 28.69398346l-12.400189 73.0215783c-1.85343 10.910562 5.493104 21.253123 16.411516 23.104718l12.688312 2.15223c-3.229279-.548038-6.146223-1.841917-8.60677-3.672946z" fill="#77e0b5"/><path d="m358.099501 115.208912c.547797-3.227135.302045-6.678688-.931558-10.112699l-21.476671-65.3744471-4.084569 24.048965 12.867481 39.1726471c4.053698 11.261402-2.539236 22.660722-12.815425 25.916288 1.778373 1.323518 3.797656 2.360315 5.997319 3.043851 10.330665.379876 18.829691-7.191038 20.443423-16.694605" fill="#77e0b5"/><path d="m271.524564 56.2288516 5.084525-29.9382605c2.010204-11.8378712 11.301568-20.62402752 22.509314-22.53550799 2.985948-.51597875 6.105062-.53715021 9.261705-.0018147l-12.687706-2.15223023c-15.002376-2.54420471-29.22573 7.54490379-31.771624 22.53732262l-5.08392 29.9382605c-.409789 2.4135466.909767 4.7188162 3.055557 5.6545948.384366.1705815.792944.293376 1.220287.3653589l2.38791.4052823c.427343.0725878.853474.0919446 1.272948.0568605 2.334039-.1760256 4.341821-1.9163197 4.751004-4.3298662" fill="#77e0b5"/><path d="m265.23428 69.494889c-.374681-.1639276-.777811-.2855123-1.200311-.3568903l-2.387911-.4046774c-.421894-.071983-.842578-.0901299-1.250551-.0592801-2.343724.1639276-4.362402 1.9132952-4.773401 4.3322858l-4.266158 25.1208458 12.688311 2.1516252 4.266159-25.1208456c.410999-2.4189907-.918241-4.7357534-3.076138-5.6630634" fill="#77e0b5"/><g fill="#4f3cc9"><path d="m332.024966 130.012603-.731808-2.305875c4.857537-1.539467 8.956633-5.075101 11.245274-9.701368 2.266246-4.579689 2.549527-9.78303.796576-14.652466l-12.878376-39.2047062 2.300748-.7543089 12.866875 39.1726471c1.966622 5.461632 1.645207 11.337015-.915215 16.511925-2.579791 5.211808-7.203077 9.197487-12.684074 10.934152"/><path d="m340.062753 133.724867-18.010115-3.054134c-5.59903-.949691-10.492886-4.020763-13.779668-8.647635-3.286177-4.626871-4.573046-10.256665-3.622724-15.852585l12.400188-73.0215784c1.869168-11.0043205-3.43387-22.0292076-13.196159-27.43337421l1.172468-2.1165412c10.659949 5.90139352 16.451465 17.93888131 14.410997 29.95459281l-12.400794 73.021579c-.841973 4.958356.298413 9.947562 3.210514 14.047566 2.912707 4.100005 7.249081 6.821445 12.21073 7.66286l18.010114 3.054134z"/><path d="m348.470378 67.203532-13.799038-42.0047834 2.300748-.7549138 13.798433 42.0047834z"/><path d="m291.069116 2.42007127c-12.60478 0-23.776814 9.09525963-25.954685 21.92032583l-5.084526 29.9388654c-.308703 1.8195358.656146 3.6058022 2.346751 4.3431739.298413.1324729.611354.2262322.938216.2818829l7.710319 1.3071865c.326862.0556507.65433.0701683.969692.0441576 1.849193-.1391267 3.349128-1.5068031 3.658437-3.3269438l5.08392-29.9382605c1.918802-11.2989063 10.375457-20.32944175 21.358637-23.07628759l-6.606251-1.12027273c-1.484802-.25163794-2.962341-.37382751-4.42051-.37382751zm52.647231 131.61510873c-1.209996 0-2.430887-.102832-3.653594-.310313-3.251675-.551063-6.243676-1.804413-8.897919-3.726782l-.004843-.00121-.229409-.168161c-6.44403-4.799268-9.613384-12.693804-8.270222-20.603461l12.400189-73.021579c.633144-3.726782.472739-7.4475151-.476372-11.0599712-.807471-3.0843794-2.157291-5.970352-4.014354-8.5780711-4.06883-5.7350463-10.130916-9.54046522-17.070688-10.71699355-2.95992-.50146118-5.939209-.50146118-8.852521.00120979-11.00376 1.87639634-19.652295 10.53491896-21.522069 21.54528846l-5.084525 29.9382605c-.495136 2.9186371-2.902416 5.1120005-5.853862 5.3339984-.509058.0429478-1.039907.0193568-1.566518-.0701683l-7.709714-1.3077914c-.526006-.089525-1.034459-.2413546-1.50962-.4530692-2.704483-1.178948-4.252237-4.0437491-3.757101-6.9617813l5.08392-29.9388654c2.653638-15.62514309 17.533138-26.18002373 33.168053-23.52754212l17.989534 3.05110997c.007263.0012098.012711.0024196.019975.00362939 7.577153 1.28480524 14.19672 5.44046057 18.639627 11.70176896 2.025941 2.8460492 3.500453 5.9975724 4.381771 9.3656494 1.03688 3.9457554 1.212417 8.010071.521769 12.078016l-12.400793 73.0209737c-1.180337 6.953313 1.574386 13.893923 7.193997 18.15725l.141035.102833c2.400623 1.786871 5.120844 2.947672 8.086211 3.450343 5.11358.86924 10.200526-.334509 14.318386-3.385014 3.922348-2.905934 6.634095-7.296291 7.440961-12.045957.540533-3.180558.244541-6.377449-.877686-9.501146l-8.586189-26.1334469 2.300747-.7549138 8.574689 26.1019917c1.254183 3.488452 1.585887 7.096674.975744 10.692193-.909766 5.359404-3.966534 10.311106-8.385834 13.584819-3.667517 2.717206-8.010549 4.136903-12.512775 4.136903z"/><path d="m270.559715 101.383948-2.387306-.404677 4.266159-25.1208457c.311125-1.8298192-.660383-3.6185052-2.360672-4.349223-.296598-.1300533-.605301-.2219979-.924294-.2758339l-7.71032-1.3077914c-.318388-.053836-.638592-.0695634-.955164-.0447625-1.854641.1294484-3.36184 1.4977296-3.672359 3.3281537l-4.266159 25.1208457-2.387305-.4046773 4.266159-25.1208458c.498767-2.9349694 2.917549-5.1295425 5.882311-5.3370229.50361-.0387135 1.024774-.0145175 1.538674.0731928l7.709109 1.3077914c.5139.0865005 1.012668.2353057 1.483592.4415762 2.723247 1.1698744 4.281896 4.0383049 3.783734 6.9732743z"/><path d="m261.581291 68.7962308-2.387306-.4046774 1.505383-8.8629784 2.3867.4046773z"/><path d="m271.783028 70.5262416-2.386701-.4046774 1.505383-8.8629784 2.387305.4052822z"/><path d="m271.547566 102.778845-22.778673-3.8634889.405551-2.3851163 22.778673 3.8628842z"/><path d="m232.789562 156.135161-5.388992-.914002 12.163516-71.6254721 5.388992.9146071z"/><path d="m228.796394 154.230335 3.002896.509324 11.757359-69.2391455-3.002291-.5093249zm4.984045 3.299723-7.776297-1.31868 12.569067-74.0105879 7.776297 1.3186795z"/><path d="m255.249241 120.795154c-1.790479 0-3.533139.552272-5.022784 1.608426-1.897012 1.3459-3.156038 3.349325-3.545246 5.641287s.137403 4.598441 1.484802 6.494194c1.346189 1.895753 3.350945 3.154548 5.645034 3.543498 4.734661.800281 9.239309-2.393585 10.043753-7.125104.388603-2.291962-.138008-4.598441-1.485408-6.494195-1.346188-1.895753-3.350944-3.153942-5.645033-3.542892-.49211-.084081-.986035-.125214-1.475118-.125214zm.024212 19.831005c-.616196 0-1.240261-.051417-1.867957-.158484-2.931471-.496622-5.493104-2.105048-7.213973-4.527668-1.721475-2.423225-2.395175-5.370897-1.897618-8.299818.497557-2.929525 2.107052-5.489457 4.531281-7.209789 2.424229-1.719728 5.372043-2.393585 8.304724-1.895754 2.931471.497227 5.493103 2.105654 7.213973 4.528274 1.721475 2.42262 2.395174 5.370292 1.897617 8.299212-.920662 5.419894-5.641401 9.264027-10.968047 9.264027z"/><path d="m255.265584 125.515785c-1.907907 0-3.599722 1.377354-3.929611 3.31908-.367418 2.166143 1.096804 4.227638 3.264991 4.595417 1.048381.177235 2.105841-.063515 2.975053-.679302.868001-.615787 1.444852-1.533419 1.622811-2.582918.368628-2.166143-1.095594-4.227638-3.263781-4.596022-.224567-.038109-.449133-.056255-.669463-.056255zm.016343 10.391557c-.360759 0-.723939-.030244-1.086514-.091944-3.483505-.590986-5.837519-3.904018-5.246141-7.385211.591379-3.481798 3.900558-5.834854 7.391326-5.243263 1.687578.286117 3.162091 1.212217 4.152968 2.607114.991482 1.395502 1.378875 3.092243 1.092567 4.779306-.286307 1.686458-1.212417 3.160597-2.608845 4.150816-1.0962.777295-2.378832 1.183182-3.695361 1.183182z"/><path d="m161.390722 249.368831c-.539322 0-1.073198-.044157-1.60102-.133682-8.686669-1.473534-13.514547-14.434098-12.573909-25.615654.056293-.665388.647066-1.158986 1.308054-1.10394.666436.056256 1.160967.641798 1.105279 1.307186-.833499 9.902195 3.300704 21.795112 10.565522 23.027291 3.618487.610948 7.774482-1.607216 11.407496-6.091332.420684-.519003 1.183363-.598849 1.702105-.17905.519953.42101.600458 1.182578.179169 1.702186-3.706256 4.57485-8.031734 7.086995-12.092696 7.086995"/><path d="m177.207833 234.87122c-.157984 0-.317783-.031455-.472135-.096179-.61559-.260712-.903108-.970863-.642224-1.586045.792944-1.870348 1.601626-4.591183 2.061654-6.931537.128324-.65571.765706-1.080954 1.420641-.95453.656146.128239 1.083488.763987.954559 1.419698-.495741 2.529082-1.341952 5.367872-2.207531 7.410011-.195513.461538-.643435.738582-1.114964.738582"/><path d="m121.777429 266.298741c-.260885 0-.523585-.084081-.745125-.257082-.526612-.411331-.619223-1.171084-.207618-1.697346l4.11907-5.265645c1.938778-2.817619 4.862986-4.760554 8.238747-5.47252l10.619394-2.241151c1.529595-.323016 2.872757-1.262423 3.685676-2.578079l3.319468-5.376946c.35168-.568 1.09741-.74463 1.666393-.393789.568982.350841.74573 1.096077.394656 1.665287l-3.320679 5.376341c-1.159151 1.876396-3.07069 3.215642-5.245536 3.674761l-10.619394 2.24115c-2.775303.584937-5.17653 2.184895-6.761813 4.503472l-.046003.062305-4.142677 5.294075c-.238488.305474-.595011.465167-.954559.465167"/><path d="m178.999523 262.061424c-.213066 0-.429764-.056255-.625881-.174815l-5.457391-3.301538c-1.901854-1.150518-3.264386-3.045061-3.738336-5.198501l-1.360111-6.170574c-.143456-.652081.269359-1.297508.921873-1.441474.653725-.143966 1.298975.26918 1.443037.921866l1.359505 6.170573c.33231 1.509223 1.290501 2.838791 2.628215 3.648146l5.457391 3.301538c.572009.346002.75481 1.090027.408578 1.661657-.227593.375642-.627092.583122-1.03688.583122"/><path d="m190.429414 277.94244c-.504215 0-.974534-.317572-1.145834-.820848l-2.18574-6.438544c-.470319-1.745133-1.384323-3.361423-2.642138-4.675263-.462449-.48271-.445501-1.249116.037529-1.711259.48303-.460933 1.24934-.443996 1.711185.038108 1.528989 1.596934 2.642137 3.560435 3.220804 5.680606l2.150634 6.327242c.214881.632724-.124087 1.31989-.757232 1.535234-.128323.043552-.260279.064724-.389208.064724"/><path d="m179.343939 227.699538c-.067189 0-.134982-.004839-.203381-.016937-4.723766-.800886-7.910069-2.279864-10.523152-7.400333-8.8501 8.242352-20.082058 4.883349-20.577799 4.729705-.638592-.198407-.994509-.876499-.795971-1.514667.198539-.637564.87587-.993244 1.513252-.796652.460634.142151 11.382073 3.366867 19.329065-5.319481l1.267499-1.385218.739072 1.725171c2.360672 5.511234 4.823641 6.7912 9.452374 7.576359.659778.111301 1.103464.736767.991483 1.394897-.10048.590381-.612564 1.007156-1.192442 1.007156"/><path d="m156.464786 268.78548-8.089843-11.389036c-.386787-.544409-.259068-1.299323.286307-1.686458.545376-.38653 1.300791-.258897 1.688184.286722l6.687966 9.415856 9.422715-6.684132c.545376-.385926 1.300186-.258897 1.687578.286722.387393.544409.259069 1.299322-.286307 1.686458z"/><path d="m178.685977 252.239681c-.756626 0-1.548964-.062304-2.373989-.202036-.659172-.111906-1.102858-.736162-.990877-1.395502.11198-.658735.737256-1.10515 1.395823-.990219 4.542781.772456 7.908858-1.341061 9.28289-2.418991l-4.885381-8.396601.284491-.580703c1.59073-3.248307 2.567685-7.714881 3.107008-10.889995.717282-4.223404.668858-7.610838-.160404-11.327336-1.800164-9.171477-11.545504-17.966707-22.66185-15.966306-9.682389 1.739689-16.081022 8.97307-18.016168 20.36755-.538717 3.175719-1.091357 7.713671-.661593 11.30435l.076873.642403-7.387694 6.319379c.934584 1.472928 3.397552 4.565776 7.967572 5.340652.659778.111301 1.102858.736162.990877 1.395502-.111981.65813-.736651 1.10394-1.395823.989614-7.219421-1.22371-10.084914-7.235195-10.203553-7.490463l-.385576-.832341 7.865881-6.727685c-.332915-3.751583.211856-8.19759.746336-11.346088 2.087682-12.29457 9.368238-20.438929 19.974315-22.344965 12.497642-2.24357 23.448741 7.605394 25.459549 17.852381.883739 3.956643.940637 7.737261.177959 12.228635-.534481 3.147894-1.488435 7.524943-3.040425 10.956534l5.203769 8.94464-.639197.65813c-.173116.17905-3.872108 3.909461-9.730813 3.909461"/><path d="m158.744348 77.8110389c-7.080806 0-13.765746-4.3099046-16.430885-11.3055602l-11.189587-29.3672359 2.263219-.8607712 11.188982 29.3678409c1.438799 3.7763837 4.263132 6.7670038 7.95365 8.4207974 3.688702 1.6531886 7.802325 1.7723537 11.582427.3345091l16.026544-6.0979857.861343 2.261112-16.025939 6.0985906c-2.049548.7797146-4.157205 1.148703-6.229754 1.148703"/><path d="m106.735709 78.2653179-29.7154182 11.3515325-3.2783082-8.5702074 29.7154174-11.3509276z"/><path d="m139.544818 88.6508269-54.8759486 20.9621661-3.2783082-8.569603 54.8759488-20.9627705z"/></g><path d="m69.9606697 103.024434c1.757793 10.815592-5.5917671 21.008138-16.4151474 22.76416-10.8233803 1.756626-21.0220904-5.588056-22.7792781-16.404253-1.757793-10.8161969 5.5917671-21.0081382 16.4151474-22.7647646 10.8233803-1.7560214 21.0220904 5.5886608 22.7792781 16.4048576" fill="#77e0b5"/><path d="m442.950541 34.0508388-.436422-6.1524265-5.792727-.9865901-9.159409 15.709224c-4.872064 8.3560732-8.186085 17.4622211-9.800422 26.9300984l-20.321757 119.1983494 22.137659 3.769125 21.82593-128.0171703c1.733581-10.1677453 2.25656-20.465544 1.547148-30.4506099" fill="#77e0b5"/><path d="m442.110384 103.352289c-1.327425 7.783234-5.827835 13.509812-10.053438 12.790587-4.224393-.719224-6.573565-7.612047-5.247351-15.395886 1.327424-7.7832341 5.827834-13.5098118 10.053438-12.790587 4.224393.7192247 6.57417 7.6120475 5.247351 15.395886" fill="#fff"/><path d="m423.745563 69.4725077.392235-2.3004304 19.993079 3.3813847-.39284 2.3010354z" fill="#fff"/><path d="m388.925645 306.699333c8.585584-.273415 16.081627-6.543191 17.580351-15.334187l16.745642-98.221061-29.088327-4.952307-16.745641 98.220456c-1.49933 8.790995 3.496216 17.187597 11.507975 20.287099" fill="#77e0b5"/><path d="m428.251421 195.223122-32.208651-5.484013 20.525744-120.3912104c1.64097-9.6275707 4.886591-18.8347366 9.644254-27.3656256l9.213886-16.5179738 10.097625 1.7197275 3.220199 18.6345151c1.663367 9.6227314 1.673657 19.3845896.032687 29.0133701l-6.652859 39.0226321-2.386701-.406492 6.652859-39.0226322c1.594967-9.3571808 1.584072-18.8432051-.032081-28.1949419l-2.928444-16.9492668-6.721863-1.1444686-8.380387 15.0238736c-4.623892 8.2901392-7.776903 17.2378035-9.372475 26.5937745l-20.118377 118.0054894 27.434645 4.671634 11.208957-65.74767 2.387306.406492z" fill="#4f3cc9"/><path d="m435.896368 32.8495097 3.096112-5.5505522-2.925418-.4984367-8.796833 15.7709237c-4.678369 8.3887378-7.894331 17.5118228-9.508668 26.9797001l-20.321757 119.1983494 6.418607 1.092448 21.82593-128.0171709c1.733581-10.1671404 5.186821-19.9658974 10.212027-28.9752614" fill="#4f3cc9"/><path d="m395.646903 309.161271c-1.110121 0-2.227506-.093759-3.34368-.283697-5.177137-.881338-9.700548-3.724968-12.737341-8.006442-3.036794-4.281474-4.223788-9.488444-3.341865-14.662144l16.949023-99.413317 38.76224 6.600052-9.069824 53.197832-2.3867-.406492 8.663062-50.812716-33.988235-5.786463-16.54226 97.027596c-.773575 4.536137.266937 9.102518 2.929655 12.856521 2.663322 3.754002 6.629857 6.247396 11.169007 7.019851 4.537938.774271 9.107958-.26676 12.864454-2.928315 3.7571-2.66095 6.25215-6.624853 7.025118-11.160989l6.111721-35.848728 2.3867.406492-6.11172 35.848728c-.881923 5.1737-3.726836 9.694109-8.011154 12.728887-3.360629 2.380277-7.291451 3.623344-11.328201 3.623344" fill="#4f3cc9"/><path d="m384.644354 287.643203 16.745641-98.221061-7.226684-1.230364-16.745641 98.220456c-1.711185 10.038297 5.04397 19.56243 15.088934 21.272479 1.237839.21111 2.4666.291561 3.67478.255267-8.028102-3.090428-13.03757-11.495498-11.53703-20.296777" fill="#4f3cc9"/><path d="m445.4353 28.055686-2.3867-.406492 1.317134-7.729398c.130745-.7651971-.044792-1.5352334-.493925-2.1679576-.448528-.6333291-1.117991-1.0537339-1.883091-1.1837871-.765705-.1300533-1.535647.0447625-2.169397.4935975-.63375.4488349-1.055039 1.1172482-1.184573 1.8824453l-1.31774 7.729398-2.3867-.4064921 1.317134-7.7293979c.239094-1.4021557 1.010247-2.6276808 2.171213-3.4497384 1.161572-.8226625 2.573738-1.142654 3.976825-.9055336 1.403087.238935 2.628821 1.0095762 3.45203 2.1703772.822603 1.160196 1.144018 2.5714251.905529 3.9735808z" fill="#4f3cc9"/><path d="m417.566049 70.7016623.392235-2.3010354 29.821951 5.0775213-.392841 2.3004304z" fill="#4f3cc9"/><path d="m412.810807 265.28977-23.668464-4.029837.760257-4.457499 23.66786 4.029836z" fill="#fff"/><path d="m416.958933 274.034793-35.686104-6.076209 1.331662-7.811665 35.686103 6.07621z" fill="#4f3cc9"/><path d="m427.822263 193.702406-28.929738-4.925086 1.332872-7.811665 28.929132 4.925087z" fill="#4f3cc9"/><path d="m422.776477 228.73815c-.906135 5.314037-4.258895 9.176921-7.488174 8.627068s-5.112974-5.304359-4.206839-10.618395c.906135-5.314642 4.258895-9.177526 7.488173-8.627068 3.229279.549853 5.112975 5.303753 4.20684 10.618395" fill="#fff"/><path d="m45.7080899 167.486694-5.0348905-13.187401 2.2620084-.862586 5.0348905 13.187401z" fill="#4f3cc9"/><path d="m80.1242723 257.635379-5.0342852-13.1874 2.2620084-.862586 5.0348905 13.187401z" fill="#4f3cc9"/></g></svg>