<svg height="35" viewBox="0 0 33 35" width="33" xmlns="http://www.w3.org/2000/svg" xmlns:xlink="http://www.w3.org/1999/xlink"><linearGradient id="a" x1="50%" x2="50%" y1="0%" y2="100%"><stop offset="0" stop-color="#0868d2" stop-opacity=".7"/><stop offset="1" stop-color="#04b7a7"/></linearGradient><path d="m14.4665735 25.9621596-3.743898 5.691428c-.4418643.6675082-1.13121971 1.1317163-1.91589144 1.2901507-.1863711.0371803-.3759355.056019-.56597894.0562541-.55382281.0013008-1.09522641-.16406-1.55380554-.4745863-.65490144-.4378445-1.09613437-1.1302996-1.21632741-1.9088607-.1242537-.7759334.07525054-1.5688675.55191735-2.1936078l5.15005678-6.6792546c.2378338-.3077278.6800988-.364388.9878266-.1265543.3077278.2378338.3643881.6800988.1265543.9878266l-5.15005678 6.6792546c-.24154387.3184142-.34077687.7224866-.27420915 1.1165675s.29301874.7431392.62574886.9645476c.30980081.2070602.6899647.2805586 1.05461914.203893.4158068-.0833258.78135508-.3287112 1.01594978-.681987l3.72983635-5.6984588c.2163795-.3169343.6469257-.4018155.9674047-.1907215.320479.2110939.4124883.6401734.206738.9641089zm14.7927911-25.19836672c-1.3112431-.93509564-3.0935495-1.00540358-5.0129563-.19334684-1.979338.90447463-3.6747468 2.33129178-4.903979 4.12707624-1.778791 2.49593197-2.6119401 5.35394982-2.2252464 7.64598882.0855783.5305425.0384769 1.0740196-.1371005 1.5819287-.0810075.2379988-.0288907.5011358.1367186.6902898.1656093.1891539.419551.2755879.6661678.2267431.2466167-.0488449.4484416-.2255479.5294491-.4635467.2504943-.7282912.3169166-1.507243.1933469-2.2674311-.3199012-1.9053453.4394246-4.43291584 1.982684-6.59840048 1.0748467-1.58224301 2.5597787-2.8423694 4.2958153-3.64546684 1.4553744-.6116791 2.7490405-.59761751 3.6489822.04570016.8999417.64331768 1.3393663 1.85964509 1.2339044 3.43454301-.1918355 1.90351858-.8978562 3.71900021-2.0424457 5.25200335-1.5291978 2.169-3.6876516 3.7122594-5.5929969 4.0286451-.7440793.1280747-1.4460739.4344435-2.0459611.8929109-.1638781.1251818-.3200139.2601865-.4675478.4042707-.2558436.2745534-.2509592.7016415.0110964.970272.2620557.2686305.6888917.2840945.9696994.0351315.1109582-.1045203.228369-.2019713.3515397-.2917779.4171959-.3203034.905653-.5349833 1.4237358-.6257407 2.2955543-.3831783 4.7246938-2.1092383 6.5070001-4.5981395 1.2957779-1.74611217 2.0917658-3.81203479 2.3025852-5.97617512.1265542-2.07759971-.5202788-3.74038256-1.8244912-4.6754782zm-15.3447085 12.78549942c-.0325736-.0578342-.0325736-.1284819 0-.1863161.6231947-1.408492.457517-3.0412193-.4359092-4.29581527l-6.27849934-8.76036968c-.1437738-.21069227-.39038256-.32699016-.6444077-.30389535s-.47561737.18195939-.57903761.41512542c-.10342023.23316603-.07244478.50405641.08094124.70785746l6.27146851 8.76036968c.6053176.84878514.7175838 1.95407214.2952934 2.90723344-.2416658.5310619-.1728389 1.151854.1792852 1.6170827l11.6008106 15.003715c.3119353.3909845.3828059.9221333.1842956 1.3812261s-.6340358.7712774-1.1325624.8118207-.9787728-.1971651-1.2488564-.6181489l-10.5250991-15.7841332c-.3255794-.4878526-.8925098-.7578195-1.4764668-.7030794-1.03846412.0957195-2.05027907-.3640748-2.66115562-1.2092966l-6.26092231-8.7392773c-.14377381-.21069228-.39038256-.32699016-.6444077-.30389535-.25402514.0230948-.47561737.18195939-.57903761.41512542-.10342023.23316603-.07244478.50405641.08094124.70785746l6.26795311 8.75685427c.90268994 1.2519048 2.40049857 1.9326053 3.93724479 1.7893372.0662758-.0103551.1330962.0150366.1757699.0667925l10.5110374 15.7806178c.412176.6255911 1.062651 1.0550062 1.7998834 1.1882042.165843.030385.3340981.0457002.5027017.0457002 1.0510588-.0028732 2.0092244-.6025649 2.4711964-1.5466595.4619719-.9440946.3475264-2.068645-.2951655-2.9003179zm-4.49267754-1.8931067c.26263175.000484.50363838-.1454214.62492084-.3783282.1212825-.2329069.1026183-.5139803-.04839571-.7288125l-5.73009734-8.1822881c-.14380404-.20593342-.38656951-.3195198-.63684903-.29797225s-.47004966.17495545-.57652514.40243642c-.10647548.22748098-.08348013.49447525.0603239.70040867l5.73009735 8.18228806c.13113646.1889956.34646092.3018881.57652513.3022679z" fill="url(#a)" stroke="url(#a)" stroke-width=".5" transform="translate(1 .996948)"/></svg>