<svg height="35" viewBox="0 0 27 35" width="27" xmlns="http://www.w3.org/2000/svg" xmlns:xlink="http://www.w3.org/1999/xlink"><linearGradient id="a" x1="50%" x2="50%" y1="0%" y2="100%"><stop offset="0" stop-color="#0868d2" stop-opacity=".7"/><stop offset="1" stop-color="#04b7a7"/></linearGradient><path d="m18.4819864 21.2671643c2.2222983-1.5860061 3.6752892-4.1836544 3.6752892-7.1158032v-3.5681503c0-.0107575-.0007268-.0213696-.0008722-.0322725.6272792-.3054261 1.0604871-.94709716 1.0604871-1.69169141v-1.34483432c0-3.03986925-2.3000722-5.54171754-5.2546082-5.86240769-.6847011-.99739576-1.8327021-1.65200488-3.1339248-1.65200488h-3.9260556c-4.02272788 0-7.2837076 3.26097972-7.2837076 7.28370756v1.3207026c0 .78835116.42797451 1.47523284 1.06310381 1.84578544-.00072686.0444838-.00334355.0883861-.00334355.1330152v3.5680049c0 2.9321488 1.45313629 5.5297971 3.67528929 7.1158032-4.89539462 2.0026416-8.35364385 6.8170641-8.35364385 12.4246351 0 .7226431.58570289 1.308346 1.308346 1.308346s1.308346-.5857029 1.308346-1.308346c0-5.9557364 4.84538673-10.8011231 10.8011231-10.8011231 5.9557364 0 10.8011231 4.8453867 10.8011231 10.8011231 0 .7226431.5857029 1.308346 1.308346 1.308346s1.308346-.5857029 1.308346-1.308346c0-5.607571-3.4582492-10.4219935-8.3536438-12.4244897zm-5.0640259-.99318c-3.3761142 0-6.12276857-2.7466544-6.12276857-6.1226232v-3.4094043h4.72312907c1.801011 0 3.002218-.4787093 4.0391548-1.35748168.0276207-.02325948.0553867-.04622822.0825712-.06992382.0484088-.04244856.0962361-.08635084.1439181-.13054386.0178807-.01671775.0361976-.03256328.0539329-.04957177.0117751-.01104826.023841-.02151503.0356161-.03270865.0296558-.02892899.0574218-.06018392.0864962-.08983976.0399772-.0407041.0798091-.0814082.1187687-.12327527.0337263-.03648832.0668711-.07355812.0998705-.11091867.0446291-.05058938.0882406-.10219636.131416-.1545302.0274753-.03343551.0550959-.06687101.0819897-.10103338.0518977-.06599879.1019056-.13374204.1511867-.20221215.0167177-.02325948.0341623-.04564673.050444-.06919696.0609108-.08751381.1200771-.17677208.1766267-.26821093.2186391-.35368954.6662388-.51752353 1.0418795-.3394431.4365515.20686404.5875927.738634.342932 1.14000548-.1144075.18767496-.2360837.36866283-.364447.54296359-.4282653.581051-.0293651 1.41374053.6924058 1.41592113h.0183168.5391839v3.4094043c.0001454 3.3759688-2.746509 6.1226232-6.1226231 6.1226232z" fill="url(#a)"/></svg>