<svg height="30" viewBox="0 0 30 30" width="30" xmlns="http://www.w3.org/2000/svg" xmlns:xlink="http://www.w3.org/1999/xlink"><linearGradient id="a" x1="50%" x2="50%" y1="0%" y2="100%"><stop offset="0" stop-color="#0868d2" stop-opacity=".7"/><stop offset="1" stop-color="#04b7a7"/></linearGradient><path d="m9.64285714 12.8571429h-8.57142857c-.59173366 0-1.07142857.4796949-1.07142857 1.0714285v12.8571429c0 1.775201 1.43908473 3.2142857 3.21428571 3.2142857h6.42857143c.59173366 0 1.07142856-.4796949 1.07142856-1.0714286v-15c0-.5917336-.4796949-1.0714285-1.07142856-1.0714285zm-1.07142857 15h-5.35714286c-.59173366 0-1.07142857-.479695-1.07142857-1.0714286v-11.7857143h6.42857143zm21.42857143-24.64285719v6.42857143c0 .59173366-.4796949 1.07142856-1.0714286 1.07142856h-27.85714283c-.59173366 0-1.07142857-.4796949-1.07142857-1.07142856v-6.42857143c0-1.77520098 1.43908473-3.21428571 3.21428571-3.21428571h13.92857139c.5917337 0 1.0714286.47969491 1.0714286 1.07142857s-.4796949 1.07142857-1.0714286 1.07142857h-13.92857139c-.59173366 0-1.07142857.47969491-1.07142857 1.07142857v5.35714286h25.71428576v-5.35714286c0-.59173366-.479695-1.07142857-1.0714286-1.07142857h-5.3571429c-.5917336 0-1.0714285-.47969491-1.0714285-1.07142857s.4796949-1.07142857 1.0714285-1.07142857h5.3571429c1.775201 0 3.2142857 1.43908473 3.2142857 3.21428571zm0 10.71428569v4.2857143c0 .5917337-.4796949 1.0714286-1.0714286 1.0714286-.5917336 0-1.0714285-.4796949-1.0714285-1.0714286v-3.2142857h-12.8571429v12.8571429h11.7857143c.5917336 0 1.0714286-.479695 1.0714286-1.0714286v-4.2857143c0-.5917337.4796949-1.0714286 1.0714285-1.0714286.5917337 0 1.0714286.4796949 1.0714286 1.0714286v4.2857143c0 1.775201-1.4390847 3.2142857-3.2142857 3.2142857h-12.8571429c-.5917336 0-1.0714285-.4796949-1.0714285-1.0714286v-15c0-.5917336.4796949-1.0714285 1.0714285-1.0714285h15c.5917337 0 1.0714286.4796949 1.0714286 1.0714285z" fill="url(#a)"/></svg>