<svg height="35" viewBox="0 0 35 35" width="35" xmlns="http://www.w3.org/2000/svg" xmlns:xlink="http://www.w3.org/1999/xlink"><linearGradient id="a" x1="50%" x2="50%" y1="0%" y2="100%"><stop offset="0" stop-color="#0868d2" stop-opacity=".7"/><stop offset="1" stop-color="#04b7a7"/></linearGradient><g fill="url(#a)"><path d="m33.9555776 31.1082821c-.1920132-.0110797-.3845056-.0110797-.5765188 0-2.0589956-2.2955385-9.2140056-11.055643-10.0581939-22.42010291 1.3074623-.36028632 4.9518847-.88527496 7.7109389 3.66462651.1747069.2941361.4917582.4741711.8338932.4735192.1777767-.0036721.3515713-.0533225.504454-.1441145.4326354-.2990639.5702538-.8761127.3191443-1.3382063-2.5222697-4.11755798-5.7548929-4.87930619-8.0094932-4.76607335.7818063-.85477393 1.8175935-1.43576414 2.9546588-1.65731707 1.7501463-.26764126 3.6341274.5970459 5.6313532 2.5940615.1815109.18166645.4277973.2837403.684616.2837403.2568188 0 .5031052-.10207385.6846161-.2837403.3536516-.3918053.3536516-.98757661 0-1.37938191-2.4604998-2.46024086-4.9209997-3.51021813-7.3094347-3.13963792-1.5888707.31419904-3.0334547 1.13391416-4.1179913 2.33671413-.21243-.93862189-.6192478-1.82230544-1.1942175-2.5940615-1.3517653-1.64613456-3.3386715-2.64135385-5.4666335-2.73824276-.5133523-.00573612-.9525229.36751961-1.0294979.8750478-.0417054.52183345.3435244.98039204.8647782 1.02938948 1.5842034.04484243 3.0774075.75030712 4.1179914 1.94554612.3819376.51372482.658355 1.09798874.8133033 1.71908044-.886704-.60943608-1.894553-1.02025811-2.9546588-1.2043857-2.5634497-.45293137-5.3430938.42204969-8.2359828 2.60435539-.33138746.17999625-.52974966.53446801-.50980943.91102568.01994022.37655767.25462973.70810244.60317403.85210117s.7488364.07479229 1.0287881-.17786704c2.4502048-1.84260718 4.7048051-2.5940615 6.7226209-2.25436297 1.3049996.24811679 2.4877644.93013024 3.3561629 1.93525223v.16470231c-1.3589371 10.29389487 2.4399099 19.41428567 4.6224453 23.60390087-.8775426-.6405268-1.9404149-.9767061-3.0267236-.9573322-1.2059512-.0158707-2.3791883.3921688-3.3149831 1.1529162-.6110436.527593-1.3959787.8099932-2.2031253.7926299-.8012408.0191852-1.5803696-.2637705-2.1825355-.7926299-1.9460532-1.5384034-4.6942078-1.5384034-6.64026103 0-.60636113.5286497-1.38855973.8113866-2.1928304.7926299-.80362126.0148085-1.58444366-.2674309-2.1928304-.7926299-.93579474-.7607474-2.10903182-1.1687869-3.31498304-1.1529162-.49870878.051364-.87781203.4714783-.87781203.972773s.37910325.921409.87781203.9727731c.80916214-.0185146 1.59566026.2681227 2.20312538.8029238.92866879.7792747 2.10262145 1.2057902 3.31498304 1.2043857 1.20467813.0187756 2.37777595-.3855727 3.31498305-1.1426224.606407-.5365808 1.3936278-.8234815 2.2031254-.8029238.8029559-.0184032 1.5829789.2685562 2.1825354.8029238 1.9479504 1.5218144 4.6820157 1.5218144 6.6299661 0 1.2694381-1.0713856 3.1265176-1.0713856 4.3959558 0 1.9479504 1.5218144 4.6820156 1.5218144 6.6299661 0 .3168728-.2412386.662734-.441817 1.0294978-.5970459.3879897-.1458686.8004158-.2157639 1.2148074-.2058779.4987088-.051364.8778121-.4714783.8778121-.972773s-.3791033-.921409-.8778121-.9727731zm-3.314983 1.1529162c-.5398201.4546056-1.2106578.7250762-1.914866.7720422-2.6127902-4.5227817-4.394487-9.4768418-5.260734-14.6276246 1.8309537 4.8827843 4.4957341 9.4106928 7.8756585 13.3820633-.2436078.1421242-.4774782.300314-.7000585.4735191z"/><path d="m3.81188087 21.3942994h2.05899568c.09093792.359893.22942252.7060681.41179914 1.0293895l-1.45159196 1.4308513c-.28146641.2768981-.3664567.6970121-.21474942 1.0615241.15170728.3645119.50968178.6003059.90451298.595793.25652377-.0034746.50250755-.102592.68976355-.2779352l1.47218191-1.4720269c.32335543.1823574.66956693.3208274 1.02949784.4117558v2.0587789c.05136944.4986563.47152802.8777197.97287546.8777197.50134745 0 .92150605-.3790634.97287545-.8777197v-2.0587789c.3599309-.0909284.7061424-.2293984 1.0294978-.4117558l1.472182 1.4720269c.3918465.3536144.9876805.3536144 1.3795271 0 .3536516-.3918053.3536516-.9875766 0-1.3793819l-1.4721819-1.4720269c.1823766-.3233214.3208612-.6694965.4117991-1.0293895h2.0589957c.3714708.0382593.7323082-.1383332.92998-.4551287s.1976718-.7184932 0-1.0352888c-.1976718-.3167955-.5585092-.4933879-.92998-.4551286h-2.0589957c-.088866-.3605625-.2274604-.7070122-.4117991-1.0293895l1.4721819-1.4823209c.1816855-.1814918.2837701-.4277523.2837701-.684544s-.1020846-.5030522-.2837701-.684544c-.3918466-.3536144-.9876806-.3536144-1.3795271 0l-1.472182 1.472027c-.3211131-.1869932-.6679932-.3257306-1.0294978-.4117558v-2.058779c.0382633-.3714317-.1383477-.7322311-.4551766-.9298821-.31682884-.197651-.71856886-.197651-1.03539773 0-.31682888.197651-.49343989.5584504-.45517658.9298821v2.058779c-.36150457.0860252-.7083847.2247626-1.02949784.4117558l-1.47218191-1.3896758c-.39184654-.3536144-.98768056-.3536144-1.37952711 0-.18168557.1814918-.28377017.4277523-.28377017.684544s.1020846.5030522.28377017.684544l1.47218192 1.4823208c-.18433872.3223774-.32293318.6688271-.41179914 1.0293895h-2.05899568c-.37147085-.0382593-.73230821.1383332-.92998002.4551287-.1976718.3167955-.1976718.7184933 0 1.0352888.19767181.3167955.55850917.4933879.92998002.4551286zm5.82695778-2.9234936c.78790625-.004141 1.50055115.4672241 1.80496285 1.1938849s.1404923 1.5651577-.4151696 2.1237164c-.5556618.5585587-1.39336555.7269068-2.12170754.4263863-.72834199-.3005204-1.20354165-1.0105797-1.20354165-1.798414 0-1.0704883.86487-1.9398822 1.93545594-1.9455736z"/></g></svg>