<svg height="34" viewBox="0 0 20 34" width="20" xmlns="http://www.w3.org/2000/svg" xmlns:xlink="http://www.w3.org/1999/xlink"><linearGradient id="a" x1="50%" x2="50%" y1="0%" y2="100%"><stop offset="0" stop-color="#0868d2" stop-opacity=".7"/><stop offset="1" stop-color="#04b7a7"/></linearGradient><path d="m9.56621036 34c1.04833734 0 1.89801574-.8496784 1.89801574-1.8980158v-3.8812313h1.108863c3.6167745 0 6.5593316-2.9423462 6.5593316-6.5593316s-2.9423462-6.5595425-6.5593316-6.5595425h-6.0137575c-1.52368488 0-2.76330007-1.2396152-2.76330007-2.7633001s1.23961519-2.76330005 2.76330007-2.76330005h9.9829303c1.0483373 0 1.8980157-.84967839 1.8980157-1.89801576 0-1.04833738-.8496784-1.89801577-1.8980157-1.89801577h-5.0780358v-3.88123135c0-1.04833738-.8496784-1.89801577-1.89801574-1.89801577-1.04833738 0-1.89801577.84967839-1.89801577 1.89801577v3.88123135h-1.10886299c-3.61677449 0-6.5593316 2.94234622-6.5593316 6.55933158 0 3.6169854 2.94234622 6.5593316 6.5593316 6.5593316h6.0137575c1.5236849 0 2.7633001 1.2396152 2.7633001 2.763511 0 1.5236849-1.2396152 2.7633-2.7633001 2.7633h-8.95230769c-1.04833737 0-1.89801577.8496784-1.89801577 1.8980158s.8496784 1.8980158 1.89801577 1.8980158h4.04741318v3.8812313c0 1.0483374.84988928 1.8980158 1.89801577 1.8980158z" fill="url(#a)" transform="translate(0 -.003052)"/></svg>