<svg height="33" viewBox="0 0 33 33" width="33" xmlns="http://www.w3.org/2000/svg" xmlns:xlink="http://www.w3.org/1999/xlink"><linearGradient id="a" x1="50%" x2="50%" y1="0%" y2="100%"><stop offset="0" stop-color="#0868d2" stop-opacity=".7"/><stop offset="1" stop-color="#04b7a7"/></linearGradient><g fill="url(#a)" stroke="url(#a)" stroke-width=".5" transform="translate(1 1)"><path d="m13.9653465 24.0940594h3.069307c.5217821 0 .920792-.3990099.920792-.9207921s-.3990099-.9207921-.920792-.9207921h-3.069307c-.5217821 0-.920792.3990099-.920792.9207921s.3990099.9207921.920792.9207921z"/><path d="m15.5 17.3415842c.6752475 0 1.2891089-.3683169 1.5960396-.9207921h4.5425743c.5217821 0 .920792-.3990099.920792-.9207921s-.3990099-.9207921-.920792-.9207921h-4.5425743c-.1534653-.2762376-.3990099-.5217822-.6752475-.6752475v-7.61188119c0-.52178218-.3990099-.92079208-.9207921-.92079208s-.9207921.3990099-.9207921.92079208v7.61188119c-.5524752.3069307-.9207921.9207921-.9207921 1.5960396 0 1.0128713.8287129 1.8415842 1.8415842 1.8415842z"/><path d="m15.5 31c8.5326733 0 15.5-6.9673267 15.5-15.5 0-8.53267327-6.9673267-15.5-15.5-15.5-8.53267327 0-15.5 6.96732673-15.5 15.5 0 8.5326733 6.96732673 15.5 15.5 15.5zm0-29.15841584c7.519802 0 13.6584158 6.13861386 13.6584158 13.65841584 0 7.519802-6.1386138 13.6584158-13.6584158 13.6584158-7.51980198 0-13.65841584-6.1386138-13.65841584-13.6584158 0-7.51980198 6.13861386-13.65841584 13.65841584-13.65841584z"/></g></svg>