<svg height="26" viewBox="0 0 35 26" width="35" xmlns="http://www.w3.org/2000/svg" xmlns:xlink="http://www.w3.org/1999/xlink"><linearGradient id="a" x1="50%" x2="50%" y1="0%" y2="100%"><stop offset="0" stop-color="#0868d2" stop-opacity=".7"/><stop offset="1" stop-color="#04b7a7"/></linearGradient><path d="m7.22216013 9.84229882c-2.97220818 0-5.41114998 2.44137618-5.41114998 5.41357568 0 2.9722043 2.4389418 5.4111437 5.41114998 5.4111437 2.97219577 0 5.41113757-2.4389394 5.41113757-5.4111437 0-2.9721995-2.4389418-5.41357568-5.41113757-5.41357568zm20.55569217 0c-2.9722084 0-5.4111503 2.44137618-5.4111503 5.41357568 0 2.9722043 2.4389419 5.4111437 5.4111503 5.4111437 2.9721958 0 5.403844-2.4389394 5.403844-5.4111437 0-2.9721995-2.4316482-5.41357568-5.403844-5.41357568zm-20.55569217 2.49165298c1.6269196 0 2.92191377 1.2950003 2.92191377 2.9219227 0 1.6269272-1.29499417 2.9194907-2.92191377 2.9194907-1.62693183 0-2.92192583-1.2925635-2.92192583-2.9194907 0-1.6269224 1.294994-2.9219227 2.92192583-2.9219227zm20.55569217 0c1.6269196 0 2.9146201 1.2950003 2.9146201 2.9219227 0 1.6269272-1.2877005 2.9194907-2.9146201 2.9194907-1.6269323 0-2.9194991-1.2925635-2.9194991-2.9194907 0-1.6269224 1.2925668-2.9219227 2.9194991-2.9219227zm-20.55569217 9.9957914c-3.97975897 0-7.22216013 3.2496958-7.22216013 7.2294455v3.3716341c.00139866.684513.55524916 1.2394469 1.23975809 1.2421923h11.95264461c.3305035.0012507.6479392-.128984.8823253-.3620017.2343862-.2330177.3664774-.5496854.367153-.8801906v-3.3716341c0-3.9797544-3.2399618-7.2294455-7.21972087-7.2294455zm20.55569217 0c-3.979759 0-7.2197208 3.2496911-7.2197208 7.2294455v3.3716341c.0013986.6845082.5552415 1.2394401 1.2397456 1.2421923h11.9526569c.3305013.0012474.6479338-.1289887.8823173-.3620061.2343836-.2330173.3664731-.5496831.3671487-.8801862v-3.3716341c0-3.9797497-3.2423886-7.2294455-7.2221477-7.2294455zm-20.55569217 2.4892257c2.64412855 0 4.73049697 2.0960898 4.73049697 4.7402198v2.1221643h-9.46343297v-2.1221643c0-2.64413 2.08879512-4.7402198 4.732936-4.7402198zm20.55569217 0c2.6441408 0 4.7329238 2.0960898 4.7329238 4.7402198v2.1221643h-9.4731534v-2.1221643c0-2.64413 2.0960884-4.7402198 4.7402296-4.7402198z" fill="url(#a)" transform="translate(0 -9)"/></svg>