<svg height="35" viewBox="0 0 35 35" width="35" xmlns="http://www.w3.org/2000/svg" xmlns:xlink="http://www.w3.org/1999/xlink"><linearGradient id="a" x1="50%" x2="50%" y1="0%" y2="100%"><stop offset="0" stop-color="#0868d2" stop-opacity=".7"/><stop offset="1" stop-color="#04b7a7"/></linearGradient><g fill="url(#a)" stroke="url(#a)" stroke-width=".5" transform="translate(1 1)"><path d="m32.4252049 0h-31.85040982c-.30430328 0-.57479508.2704918-.57479508.57479508v8.79098361c0 .30430328.2704918.57479508.57479508.57479508h31.85040982c.3043033 0 .5747951-.2704918.5747951-.57479508v-8.79098361c0-.30430328-.2704918-.57479508-.5747951-.57479508zm-.5747951 8.79098361h-30.70081964v-7.64139345h30.70081964z"/><path d="m9.36577869 23.1946721h-8.79098361c-.30430328 0-.57479508.2704918-.57479508.5747951v8.7909836c0 .3043033.2704918.5747951.57479508.5747951h8.79098361c.30430328 0 .57479508-.2704918.57479508-.5747951v-8.7909836c0-.3043033-.2704918-.5747951-.57479508-.5747951zm-.60860656 8.7909836h-7.60758197v-7.6413934h7.60758197z"/><path d="m20.8954918 23.1946721h-8.7909836c-.3043033 0-.5747951.2704918-.5747951.5747951v8.7909836c0 .3043033.2704918.5747951.5747951.5747951h8.7909836c.3043033 0 .5747951-.2704918.5747951-.5747951v-8.7909836c0-.3043033-.2704918-.5747951-.5747951-.5747951zm-.5747951 8.7909836h-7.6413934v-7.6413934h7.6075819z"/><path d="m32.4252049 23.1946721h-8.7909836c-.3043033 0-.5747951.2704918-.5747951.5747951v8.7909836c0 .3043033.2704918.5747951.5747951.5747951h8.7909836c.3043033 0 .5747951-.2704918.5747951-.5747951v-8.7909836c0-.3043033-.2704918-.5747951-.5747951-.5747951zm-.5747951 8.7909836h-7.6075819v-7.6413934h7.6075819z"/><path d="m16.5004918 10.9211066c-.3043156 0-.5748184.2704918-.5748184.574795v5.9846312h-10.95536316c-.30431564 0-.57481844.2704918-.57481844.5747951v3.5840164c0 .3043032.2705028.574795.57481844.574795s.57481843-.2704918.57481843-.574795v-2.9754099h10.38054473v2.9754099c0 .3043032.2705028.574795.5748184.574795s.5748184-.2704918.5748184-.574795v-2.9754099h10.3805447v2.9754099c0 .3043032.2705028.574795.5748185.574795.3043156 0 .5748184-.2704918.5748184-.574795v-3.5840164c0-.3043033-.2705028-.5747951-.5748184-.5747951h-10.9553632v-5.9846312c0-.3043032-.2705028-.574795-.5748184-.574795z"/></g></svg>