<svg height="35" viewBox="0 0 32 35" width="32" xmlns="http://www.w3.org/2000/svg" xmlns:xlink="http://www.w3.org/1999/xlink"><linearGradient id="a" x1="50%" x2="50%" y1="0%" y2="100%"><stop offset="0" stop-color="#0868d2" stop-opacity=".7"/><stop offset="1" stop-color="#04b7a7"/></linearGradient><path d="m26.1124227 10.1487239h-1.8659945c-.0680257-.4549697-.2286383-.89313673-.5011427-1.27995453-.4595262-.65006004-1.1465774-1.08269504-1.9311394-1.21943501l-1.7585215-.30709682.8260293-1.68343733c.5973909-1.2250359.2902826-2.69776237-.7464575-3.58432266l-.9392294-.80025136c-.4225465-.3597774-1.0457039-.36762784-1.474976-.01121327l-5.0669311 4.18591427c-.370566-.35108912-.8674277-.5702128-1.4169011-.5702128h-2.36041153c-1.13985174 0-2.06787934.92802759-2.06787934 2.06787934v3.20213017h-1.82130207c-2.75044297 0-4.98756586 2.2371229-4.98756586 4.9875659v10.1062593c0 2.750443 2.23712289 4.9875658 4.98756586 4.9875658h.37882963v2.7717448c0 1.0221755.61868124 1.9143252 1.57696287 2.2729893.28245516.1053497.5727378.1569055.85966909.1569055.68032555 0 1.33823604-.2902826 1.8044879-.8249045l3.87236725-4.3767236h12.6325515c2.750443 0 4.9875659-2.2371229 4.9875659-4.9875658v-10.1062593c0-2.7504545-2.2371229-4.9875774-4.9875773-4.9875774zm-7.6718769-6.50288438.2051099.17371968c.2364888.20286042.3093464.55367408.1748445.83051686l-1.4996292 3.05418843c-.159155.32391099-.1569055.70386539.0067257 1.02553832.1647559.32278622.4696147.54807319.8260293.61084227l3.2671373.57048826c.1838082.03137881.3429632.13225236.4494377.28244366s.1468285.3328747.1154382.5133316l-.8193036 4.6939203c-.1445789.8406054-.9224152 1.4200574-1.7708596 1.3270228l-2.5206798-.2947702c-.4079704-.0448302-.8024894-.1905339-1.1387385-.420297l-2.4321328-1.6760919v-6.44855107zm-7.4320368 3.52827925v8.24909083h-1.90423669v-8.24909083zm17.7960866 18.06843033c0 1.4839397-1.2082217 2.6921615-2.6921615 2.6921615h-13.1492459c-.3283986 0-.6410963.1412161-.8596576.38668l-4.22093137 4.7701294c-.02353984.0269027-.05379388.0650071-.13337714.0336283-.08742222-.0325036-.08742222-.0919098-.08742222-.1232886v-3.9194355c0-.6343706-.51333155-1.1477022-1.14770219-1.1477022h-1.52653182c-1.48393975 0-2.69216148-1.2082217-2.69216148-2.6921614v-10.1062593c0-1.4839398 1.20822173-2.692173 2.69216148-2.692173h1.82130207v3.2066293c0 1.1398517.9280276 2.0678793 2.06787934 2.0678793h2.36041153c.6902763 0 1.2985821-.3434567 1.6740604-.8650519l1.524707 1.0510982c.65006.4449615 1.4077308.7251557 2.1810794.8092151l2.515079.2936454c.1501913.017939.2992579.0257779.4471996.0257779 1.8773455 0 3.5238031-1.3516873 3.8488274-3.2402346l.5847086-3.3489587h2.0996139c1.4839398 0 2.6921615 1.2082217 2.6921615 2.6921615z" fill="url(#a)" transform="translate(0 -1)"/></svg>