<svg height="32" viewBox="0 0 38 32" width="38" xmlns="http://www.w3.org/2000/svg" xmlns:xlink="http://www.w3.org/1999/xlink"><linearGradient id="a" x1="50%" x2="50%" y1="0%" y2="100%"><stop offset="0" stop-color="#0868d2" stop-opacity=".7"/><stop offset="1" stop-color="#04b7a7"/></linearGradient><g fill="url(#a)" stroke="url(#a)" stroke-width=".5" transform="translate(1 1)"><path d="m18.2962099 18.5830426c2.0440111 0 3.8867593 1.2312711 4.6689713 3.11969.7822119 1.8884189.3498438 4.0620851-1.0954912 5.5074184-1.4453349 1.4453333-3.6190017 1.8776988-5.5074197 1.0954846s-3.1196845-2.6249638-3.1196845-4.6689749c.0031542-2.789731 2.2638931-5.0504672 5.0536241-5.0536181m0-1.7830426c-2.7651846 0-5.2580948 1.6656955-6.3162879 4.2203917-1.058193 2.5546963-.4732754 5.4952809 1.4820062 7.4505608s4.8958667 2.540195 7.4505621 1.4819997c2.5546953-1.0581953 4.2203862-3.551107 4.2203862-6.3162915 0-1.8131972-.7202856-3.5521313-2.0024102-4.8342547-1.2821245-1.2821235-3.0210593-2.002406-4.8342564-2.002406z"/><path d="m23.4323234 8.83105322h-8.8310532v-8.83105322h8.8310532zm-7.2256136-1.6054337h5.6201502v-5.62015016h-5.6201502z"/><path d="m31.5865557 14.6114335c-2.4372794-.0001608-4.4129694-1.9771306-4.4128622-4.4157207.0001072-2.43859011 1.9759709-4.41533247 4.4132503-4.41533247 2.4372793 0 4.4130562 1.9769365 4.4130562 4.41552657-.0025312 2.4376919-1.9770625 4.4131548-4.4134443 4.4155266zm0-7.22561949c-1.5510872.00017069-2.8083695 1.25835973-2.8082558 2.81028109.0001138 1.5519214 1.2575804 2.8099259 2.8086676 2.8098691 1.5510872-.0000569 2.8084617-1.2581537 2.8084617-2.8100751-.0017746-1.55134622-1.258361-2.80847016-2.8088735-2.81007509z"/><path d="m10.0063992 14.1273969h-10.0063992l5.00321744-8.6656344zm-7.22563139-1.6054693h4.44483983l-2.22241992-3.84932743z"/></g></svg>