<svg height="24" viewBox="0 0 36 24" width="36" xmlns="http://www.w3.org/2000/svg" xmlns:xlink="http://www.w3.org/1999/xlink"><linearGradient id="a" x1="50%" x2="50%" y1="0%" y2="100%"><stop offset="0" stop-color="#0868d2" stop-opacity=".7"/><stop offset="1" stop-color="#04b7a7"/></linearGradient><path d="m12.0560935 20.8873273c.6492585-.1224576 1.1963884-.5571636 1.4624374-1.1619366l4.0066778-9.0631051 4.5916527 14.5081803c.2488892.7814158.9489095 1.3322255 1.7669449 1.3903172h.1402338c.7655245-.0007466 1.4636987-.4376886 1.7989983-1.1258765l4.4073456-9.0070117h3.7662771c1.1064135 0 2.0033389-.8969254 2.0033389-2.0033389s-.8969254-2.0033389-2.0033389-2.0033389h-5.0283806c-.7655246.0007466-1.4636988.4376885-1.7989984 1.1258765l-2.7646076 5.6414023-4.6838064-14.79265442c-.2526138-.79379221-.9700838-1.34842923-1.8019112-1.39295961-.8318274-.04453037-1.6044102.43033938-1.9403258 1.19262572l-4.9522538 11.24674461-3.41769616-3.3936561c-.37511635-.3720529-.88201771-.5808617-1.41035059-.5809683h-4.19499165c-1.10641352 0-2.0033389.8969254-2.0033389 2.0033389s.89692538 2.0033389 2.0033389 2.0033389h3.36961602l4.90016698 4.8641068c.4676701.4654158 1.1345181.6707151 1.7829716.5489149z" fill="url(#a)" transform="translate(0 -3)"/></svg>