<svg height="37" viewBox="0 0 37 37" width="37" xmlns="http://www.w3.org/2000/svg" xmlns:xlink="http://www.w3.org/1999/xlink"><linearGradient id="a" x1="50%" x2="50%" y1="0%" y2="100%"><stop offset="0" stop-color="#0868d2" stop-opacity=".7"/><stop offset="1" stop-color="#04b7a7"/></linearGradient><g fill="url(#a)" transform="translate(1 1)"><path d="m34.3810276 16.8810276h-16.2619177l.0029573-16.26191766c0-.16423401-.0667114-.32165932-.1828031-.43775103s-.2750301-.18135891-.4392641-.18135891c-4.6442186 0-9.03053204 1.82865076-12.35097503 5.14902497-3.32037421 3.32044299-5.14902497 7.70675643-5.14902497 12.35097503 0 4.6441498 1.82865076 9.030532 5.14902497 12.3509063 3.32044299 3.3204429 7.70675643 5.1490937 12.35097503 5.1490937s9.030532-1.8286508 12.350975-5.1490937c3.3203742-3.3203743 5.149025-7.7067565 5.149025-12.3509063 0-.3418791-.2770933-.6189724-.6189724-.6189724zm-5.4054859 12.0945829c-3.0866089 3.086609-7.1620607 4.7865135-11.4755417 4.7865135s-8.38900155-1.6999045-11.47554175-4.7865135-4.78651347-7.1620607-4.78651347-11.4756105 1.6999045-8.38893277 4.78651347-11.47554175c2.93867458-2.93867457 6.77334605-4.62042255 10.85952665-4.77482177l-.0029573 16.25022602c0 .164234.0651297.3216593.1812901.437751.1160918.1160917.2735171.1813589.4376823.1813589h16.2503635c-.1546055 4.0831545-1.836216 7.9181011-4.7748218 10.8566381z" stroke="url(#a)" stroke-width=".5"/><path d="m20.5711347 15.2353864h11.1159875c.3418791 0 .6189724-.2770933.6189724-.6189724 0-3.0890849-1.2527313-6.11352153-3.4369473-8.29780631-2.1843536-2.18435356-5.2087214-3.43722245-8.2977375-3.43722245-.3418103 0-.6189724.27709331-.6189724.61897239l-.0002751 11.11605637c0 .1641652.0651984.3215905.1812901.4376822s.2735858.1812902.4376823.1812902z"/></g></svg>