<svg height="34" viewBox="0 0 34 34" width="34" xmlns="http://www.w3.org/2000/svg" xmlns:xlink="http://www.w3.org/1999/xlink"><linearGradient id="a" x1="50%" x2="50%" y1="0%" y2="100%"><stop offset="0" stop-color="#0868d2" stop-opacity=".7"/><stop offset="1" stop-color="#04b7a7"/></linearGradient><path d="m13.6006048 27.2012096c2.6970141 0 5.2109286-.7922855 7.3274847-2.1516878l8.0981873 8.0986319c.568273.5680359 1.3144279.8519352 2.0608199.8519352.7461548 0 1.492784-.2841365 2.061057-.8521723 1.1358346-1.136309 1.1358346-2.9853309-.0002371-4.1216398l-8.0983948-8.0981873c1.3594023-2.1165858 2.1516878-4.6304706 2.1516878-7.3274847 0-7.49949643-6.1011084-13.6006048-13.6006048-13.6006048-7.49949643 0-13.6006048 6.10110837-13.6006048 13.6006048 0 7.4994964 6.10110837 13.6006048 13.6006048 13.6006048zm-6.2538199-3.7699674c.41799258-3.1011023 3.0655852-5.4590144 6.2538199-5.4590144 3.1884126 0 5.8357977 2.3578528 6.2537902 5.4590144-1.8086131 1.154601-3.9534821 1.8270238-6.2537902 1.8270238s-4.44520677-.6723931-6.2538199-1.8270238zm3.3394046-10.3163733c0-1.6071027 1.3073126-2.9144153 2.9144153-2.9144153s2.9144153 1.3073126 2.9144153 2.9144153-1.3073126 2.9144153-2.9144153 2.9144153-2.9144153-1.3073126-2.9144153-2.9144153zm21.0877681 17.2851297c.3787696.3787696.3787696.9954265.0002372 1.373959-.3790068.3790068-.9951894.3787696-1.3741962.0002372l-7.9008867-7.9010943c.4899457-.4249893.949029-.8840132 1.3739886-1.373959zm-18.1733528-28.45705506c6.4281737 0 11.6576612 5.22948758 11.6576612 11.65766126 0 3.3522713-1.4242106 6.376499-3.6969469 8.5051215-.6654855-2.4447481-2.4165538-4.4217857-4.6985104-5.4024183.9771343-.8891125 1.5951549-2.1663334 1.5951549-3.5884391 0-2.6784255-2.1789333-4.85735885-4.8573588-4.85735885s-4.85735886 2.17893335-4.85735886 4.85735885c0 1.4221057.61805029 2.6993266 1.59515496 3.5884391-2.28198618.980603-4.0331732 2.9575813-4.69862898 5.4024183-2.27267709-2.1287411-3.69682838-5.1529094-3.69682838-8.5051215 0-6.42817368 5.22948758-11.65766126 11.65766126-11.65766126z" fill="url(#a)"/></svg>