<svg height="33" viewBox="0 0 33 33" width="33" xmlns="http://www.w3.org/2000/svg" xmlns:xlink="http://www.w3.org/1999/xlink"><linearGradient id="a" x1="50%" x2="50%" y1="0%" y2="100%"><stop offset="0" stop-color="#0868d2" stop-opacity=".7"/><stop offset="1" stop-color="#04b7a7"/></linearGradient><path d="m9.08990163.00000738c-.27489118-.001039-.53882557.10769832-.7332041.30207744-.19437854.19437913-.30311506.45831383-.30207527.73320501v8.5037843c-.00104083.27489185.10769523.53882757.30207388.73320757.19437865.1943799.45831363.3031178.73320549.3020713h4.94073927 4.7332727l4.7514119 1.9799221c.3179939.1309277.6803255.094746.96615-.0964777s.4575348-.5123294.4578696-.8562219v-10.56628567c.0010345-.27384477-.1068754-.53686134-.2999473-.73106554-.193072-.1942042-.4554531-.30365009-.7292992-.30421691zm1.02722787 2.06451999h12.7576867v7.98413173l-3.508663-1.46026951c-.1252948-.05116631-.259435-.07717187-.394773-.07653402h-4.9407393-3.9135114zm3.6395804 2.06250121c-.5599367.03938901-.985873.51882612-.9590419 1.07950485.026831.56067873.4966025.99725214 1.0577417.98299258h5.2831452c.3738786.00828733.7229585-.18643491.9123311-.50891262.1893726-.32247772.1893726-.72219447 0-1.04467219s-.5384525-.51719995-.9123311-.50891262h-5.283144c-.0328811-.00157516-.0658188-.00157516-.0986999 0zm-7.77263437 8.71527022c-2.46268677 0-4.48352426 2.0228546-4.48352426 4.4855342 0 2.4626835 2.02083749 4.4835191 4.48352426 4.4835191 2.46267649 0 4.48351397-2.0208356 4.48351397-4.4835191 0-2.4626796-2.02083748-4.4855342-4.48351397-4.4855342zm21.03185927 0c-2.462687 0-4.4835246 2.0228546-4.4835246 4.4855342 0 2.4626835 2.0208376 4.4835191 4.4835246 4.4835191 2.4626765 0 4.4774707-2.0208356 4.4774707-4.4835191 0-2.4626796-2.0147942-4.4855342-4.4774707-4.4855342zm-21.03185927 2.0645125c1.3480191 0 2.42101425 1.0730002 2.42101425 2.4210217 0 1.3480253-1.07299515 2.4190065-2.42101425 2.4190065-1.34802923 0-2.42102426-1.0709812-2.42102426-2.4190065 0-1.3480215 1.07299503-2.4210217 2.42102426-2.4210217zm21.03185927 0c1.3480191 0 2.4149709 1.0730002 2.4149709 2.4210217 0 1.3480253-1.0669518 2.4190065-2.4149709 2.4190065-1.3480296 0-2.4190136-1.0709812-2.4190136-2.4190065 0-1.3480215 1.070984-2.4210217 2.4190136-2.4210217zm-21.03185927 8.2822271c-3.29751457 0-5.98407553 2.6926052-5.98407553 5.990112v2.7936398c.00115889.5671678.46006359 1.0269702 1.02722813 1.029245h9.90361987c.2738457.0010363.5368638-.1068725.7310695-.2999443s.3036527-.4554536.3042125-.7293007v-2.7936398c0-3.2975107-2.68453981-5.990112-5.98205447-5.990112zm21.03185927 0c-3.2975147 0-5.9820544 2.6926013-5.9820544 5.990112v2.7936398c.0011588.5671638.4600572 1.0269645 1.0272177 1.029245h9.90363c.273844.0010336.5368595-.1068764.731063-.2999479s.3036491-.4554518.3042089-.7292971v-2.7936398c0-3.2975068-2.6865506-5.990112-5.9840652-5.990112zm-21.03185927 2.0625013c2.19084938 0 3.91955466 1.7367602 3.91955466 3.9276107v1.7583648h-7.8411302v-1.7583648c0-2.1908505 1.73071596-3.9276107 3.92157554-3.9276107zm21.03185927 0c2.1908595 0 3.9215654 1.7367602 3.9215654 3.9276107v1.7583648h-7.8491843v-1.7583648c0-2.1908505 1.736759-3.9276107 3.9276189-3.9276107z" fill="url(#a)"/></svg>