<svg height="30" viewBox="0 0 33 30" width="33" xmlns="http://www.w3.org/2000/svg" xmlns:xlink="http://www.w3.org/1999/xlink"><linearGradient id="a" x1="50%" x2="50%" y1="0%" y2="100%"><stop offset="0" stop-color="#0868d2" stop-opacity=".7"/><stop offset="1" stop-color="#04b7a7"/></linearGradient><path d="m15.6990633 15.6990633h2.8562364c.787186 0 1.4253263.6334783 1.4253263 1.4271875 0 .788214-.6392786 1.4271876-1.4253263 1.4271876h-4.2851762c-.0014401 0-.0028794 0-.0043176 0-.7854219-.0033069-1.4211178-.6456541-1.4211178-1.4332747v-5.696576c0-.7915758.6334784-1.43327471 1.4271876-1.43327471.7882139 0 1.4271876.64362621 1.4271876 1.43327471zm14.2689621-.4151.5942683-.5942683c.5572441-.5572441 1.4569165-.5610429 2.0181537.0001942.5573514.5573515.5613867 1.4569614.0001943 2.0181538l-3.0279106 3.0279106c-.2785898.2785899-.6427671.4188504-1.0074532.4193332-.3647943.0005199-.7299426-.1387696-1.0105062-.4193332l-3.0279106-3.0279106c-.5572441-.5572441-.5610429-1.4569166.0001943-2.0181538.5573514-.5573513 1.4569613-.5613866 2.0181537-.0001942l.5879062.5879062c.0022947-.0970992.0034485-.1944807.0034485-.2921317 0-6.69981839-5.4312759-12.13109436-12.1310943-12.13109436-6.69981839 0-12.13109436 5.43127597-12.13109436 12.13109436 0 6.6998184 5.43127597 12.1310943 12.13109436 12.1310943 2.9058298 0 5.5730328-1.0216829 7.6619836-2.7254236l2.3223322 1.769396c-2.6504932 2.3697085-6.1491584 3.8104028-9.9843158 3.8104028-8.27624625 0-14.9854695-6.7092233-14.9854695-14.9854695 0-8.27624625 6.70922325-14.9854695 14.9854695-14.9854695 8.2762462 0 14.9854695 6.70922325 14.9854695 14.9854695 0 .0997284-.0009742.1992294-.0029136.2984938z" fill="url(#a)"/></svg>