<svg height="36" viewBox="0 0 36 36" width="36" xmlns="http://www.w3.org/2000/svg" xmlns:xlink="http://www.w3.org/1999/xlink"><linearGradient id="a" x1="50%" x2="50%" y1="0%" y2="100%"><stop offset="0" stop-color="#0868d2" stop-opacity=".7"/><stop offset="1" stop-color="#04b7a7"/></linearGradient><path d="m32.629415 31.5013249h-29.25892378c-1.85849516 0-3.37049122-1.511996-3.37049122-3.3704912v-19.13395016c0-1.85849516 1.51199606-3.37049122 3.37049122-3.37049122h15.75445898c.6221234 0 1.1249971.50399869 1.1249971 1.12499707s-.5028737 1.12499707-1.1249971 1.12499707h-15.75445898c-.61762339 0-1.12049708.50287369-1.12049708 1.12049708v19.13395016c0 .6176234.50287369 1.1204971 1.12049708 1.1204971h29.25892378c.6176234 0 1.1204971-.5028737 1.1204971-1.1204971v-16.879456c0-.6209984.5028737-1.1249971 1.1249971-1.1249971s1.1249971.5039987 1.1249971 1.1249971v16.879456c0 1.8584952-1.5119961 3.3704912-3.3704913 3.3704912zm-14.6294619 3.3749913c-.6209984 0-1.124997-.5028737-1.124997-1.1249971v-2.2499942c0-.6221233.5039986-1.124997 1.124997-1.124997s1.1249971.5028737 1.1249971 1.124997v2.2499942c0 .6221234-.5039987 1.1249971-1.1249971 1.1249971zm5.6249854 1.124997h-11.2499707c-.6209984 0-1.1249971-.5028737-1.1249971-1.124997 0-.6221234.5039987-1.1249971 1.1249971-1.1249971h11.2499707c.6221234 0 1.124997.5028737 1.124997 1.1249971 0 .6221233-.5028736 1.124997-1.124997 1.124997zm-11.2499707-10.1249736h-6.3461085c-.62099838 0-1.12499707-.5028737-1.12499707-1.1249971s.50399869-1.1249971 1.12499707-1.1249971h1.84612019c.60187344 0 .85274778-.4331238 1.41524632-2.4401186.73349809-2.6122432 1.84049519-6.5598579 7.58473029-6.5598579.2981242 0 .5849984.1181247.7953729.3296241l3.3749912 3.3749912c.1822495.1822496.2969992.4207489.3228742.6772483.0112499.0956247.2272494 2.3602438-1.5041211 4.2862388-1.542371 1.7133705-4.0623644 2.5818683-7.4891055 2.5818683zm-1.5176211-2.2499942h1.5176211c2.7224929 0 4.7339876-.6356233 5.8162348-1.8382452.7289981-.8111229.8999977-1.7111205.9359976-2.1937443l-2.707868-2.7078679c-3.6348655.1754995-4.2806138 2.4772435-4.962362 4.9083622-.1664996.5939985-.3476241 1.2363718-.5996235 1.8314952zm9.3926006-3.3749912c-.2857493 0-.5714985-.1079997-.789748-.3239991-.4421238-.4364989-.4466238-1.148622-.0112499-1.5907459l13.9690886-14.1625881c.4443738-.44324884.4443738-1.15762198.005625-1.59524584-.4409989-.43987386-1.153122-.43762386-1.5918709 0l-14.1670881 13.97358864c-.4421238.4364988-1.154247.4297488-1.5907459-.01125-.4364988-.4421239-.4308738-1.154247.01125-1.5907459l14.1614631-13.96796358c1.3106216-1.31062159 3.450366-1.31062159 4.7677376.00449998 1.3151216 1.31624658 1.3151216 3.457116 0 4.77336257l-13.9634636 14.15583813c-.2193744.2227494-.5107487.3352491-.8009979.3352491zm2.2499941-3.3749912c-.2879992 0-.5759985-.1102497-.7953729-.3296241l-2.2499942-2.2499942c-.4398738-.4398738-.4398738-1.150872 0-1.5907458.4398739-.4398739 1.150872-.4398739 1.5907459 0l2.2499941 2.2499941c.4398739.4398739.4398739 1.150872 0 1.5907459-.2193744.2193744-.5073736.3296241-.7953729.3296241z" fill="url(#a)"/></svg>