<svg height="36" viewBox="0 0 30 36" width="30" xmlns="http://www.w3.org/2000/svg" xmlns:xlink="http://www.w3.org/1999/xlink"><linearGradient id="a" x1="50%" x2="50%" y1="0%" y2="100%"><stop offset="0" stop-color="#0868d2" stop-opacity=".7"/><stop offset="1" stop-color="#04b7a7"/></linearGradient><g fill="url(#a)"><path d="m28.4101651 6.75297608h-9.8202531c-.5992546 0-1.084951.4856964-1.084951 1.08495099 0 .5992546.4856964 1.084951 1.084951 1.084951h9.8202531c.5992546 0 1.0849509-.4856964 1.0849509-1.084951 0-.59925459-.4856963-1.08495099-1.0849509-1.08495099z"/><path d="m7.65746356 0c-4.22238817 0-7.65746356 3.43519594-7.65746356 7.65746356 0 4.22226764 3.43519594 7.65746354 7.65746356 7.65746354 4.22226764 0 7.65746354-3.4351959 7.65746354-7.65746354 0-4.22238817-3.4351959-7.65746356-7.65746354-7.65746356zm0 13.1450251c-3.02592832 0-5.48756157-2.4616332-5.48756157-5.48756154 0-3.02592832 2.4617538-5.48756157 5.48756157-5.48756157 3.02580774 0 5.48756154 2.4617538 5.48756154 5.48756157 0 3.02580774-2.4617538 5.48756154-5.48756154 5.48756154z"/><path d="m8.82366533 5.80484946-2.10263503 2.24633076-.56959927-.46267132c-.46508233-.37780405-1.1484809-.30716169-1.5261644.15792064-.37792459.46508233-.30716168 1.14836035.15792065 1.5261644l1.35462159 1.10062246c.20059538.1629838.44266.2429085.68376022.2429085.29052577 0 .57972548-.1162103.79249643-.3435678l2.79386938-2.98482073c.4093882-.43747635.3867247-1.12400923-.0506311-1.53351795-.43759687-.40950873-1.12412975-.38672476-1.53363847.05063104z"/><path d="m28.4101651 27.438049h-9.8202531c-.5992546 0-1.084951.4856964-1.084951 1.084951s.4856964 1.0849509 1.084951 1.0849509h9.8202531c.5992546 0 1.0849509-.4856963 1.0849509-1.0849509s-.4856963-1.084951-1.0849509-1.084951z"/><path d="m7.65746356 20.6850729c-4.22238817 0-7.65746356 3.4351959-7.65746356 7.6574635 0 4.2222677 3.43519594 7.6574636 7.65746356 7.6574636 4.22226764 0 7.65746354-3.4351959 7.65746354-7.6574636 0-4.2222676-3.4351959-7.6574635-7.65746354-7.6574635zm0 13.1451457c-3.02592832 0-5.48756157-2.4616333-5.48756157-5.4875616s2.4617538-5.4875616 5.48756157-5.4875616c3.02580774 0 5.48756154 2.4617538 5.48756154 5.4875616s-2.4617538 5.4875616-5.48756154 5.4875616z"/><path d="m8.82366533 26.489927-2.10263503 2.2456933-.56959927-.4625152c-.46508233-.3777971-1.1484809-.307058-1.5261644.1578674-.37792459.4649254-.30716168 1.1479728.15792065 1.5256494l1.35462159 1.1002511c.20059538.1629288.44266.2428266.68376022.2428266.29064632 0 .57972548-.1161711.79249643-.3434519l2.79386938-2.9839341c.4093882-.4373288.3867247-1.1237505-.0506311-1.5330006-.43759687-.4093705-1.12412975-.3865942-1.53363847.050614z"/></g></svg>