<svg height="35" viewBox="0 0 44 35" width="44" xmlns="http://www.w3.org/2000/svg" xmlns:xlink="http://www.w3.org/1999/xlink"><linearGradient id="a" x1="50%" x2="50%" y1="0%" y2="100%"><stop offset="0" stop-color="#0868d2"/><stop offset="1" stop-color="#04b7a7"/></linearGradient><linearGradient id="b" x1="50%" x2="50%" y1="0%" y2="100%"><stop offset="0" stop-color="#0868d2" stop-opacity=".7"/><stop offset="1" stop-color="#04b7a7"/></linearGradient><g fill="none" stroke-width=".5" transform="translate(1 1)"><path d="m4.10520733 30.1840258c-.33172077 0-.60076205-.2691332-.60076205-.6009673 0-1.6015777-1.30255224-2.904675-2.90368323-2.904675-.33172078 0-.60076205-.2691332-.60076205-.6009673s.26904127-.6009673.60076205-.6009673c1.60113099 0 2.90368323-1.3030973 2.90368323-2.904675 0-.3318341.26904128-.6009673.60076205-.6009673.33172078 0 .60076205.2691332.60076205.6009673 0 1.6015777 1.30255225 2.904675 2.90368324 2.904675.33172078 0 .60076205.2691332.60076205.6009673s-.26904127.6009673-.60076205.6009673c-1.60113099 0-2.90368324 1.3030973-2.90368324 2.904675 0 .3318341-.26904127.6009673-.60076205.6009673zm-1.36823556-4.1066096c.55710667.3409488 1.0273031.8113058 1.36823556 1.3686028.34093247-.557297.81102877-1.027654 1.36823557-1.3686028-.55710667-.3409488-1.0273031-.8113058-1.36823557-1.3686028-.34093246.557297-.81102876 1.027654-1.36823556 1.3686028z" fill="url(#a)" stroke="url(#a)"/><path d="m19.8797919 14.5461892c-2.3393606 0-4.2426385-1.9032779-4.2426385-4.2426385 0-2.33936059 1.9032779-4.24263853 4.2426385-4.24263853 2.3394363 0 4.2426385 1.90327794 4.2426385 4.24263853 0 2.3393606-1.9032022 4.2426385-4.2426385 4.2426385zm0-7.57614021c-1.8381231 0-3.3335017 1.49537856-3.3335017 3.33350171 0 1.8381231 1.4953786 3.3335017 3.3335017 3.3335017s3.3335017-1.4953786 3.3335017-3.3335017c0-1.83812315-1.4953786-3.33350171-3.3335017-3.33350171z" fill="url(#a)" stroke="url(#a)"/><path d="m29.3120865 33.4865397h-18.8645892c-1.31589974 0-2.38648412-1.0705843-2.38648412-2.3864841v-28.71357143c0-1.3158998 1.07058438-2.38648417 2.38648412-2.38648417h18.8645892c1.3158998 0 2.3864841 1.07058437 2.3864841 2.38648417v28.71357143c0 1.3158998-1.0705843 2.3864841-2.3864841 2.3864841zm-18.8645892-32.57740287c-.81458655 0-1.47734729.66276074-1.47734729 1.47734734v28.71357143c0 .8145866.66276074 1.4773473 1.47734729 1.4773473h18.8645892c.8145866 0 1.4773473-.6627607 1.4773473-1.4773473v-28.71357143c0-.8145866-.6627607-1.47734734-1.4773473-1.47734734z" fill="url(#a)" stroke="url(#a)"/><path d="m26.2816304 30.4560836h-12.803677c-1.3158998 0-2.3864841-1.0705843-2.3864841-2.3864841v-22.65265925c0-1.31589979 1.0705843-2.38648417 2.3864841-2.38648417h12.803677c1.3158998 0 2.3864842 1.07058438 2.3864842 2.38648417v22.65265925c0 1.3158998-1.0705844 2.3864841-2.3864842 2.3864841zm-12.803677-26.51649069c-.8145866 0-1.4773473.66276074-1.4773473 1.47734734v22.65265925c0 .8145866.6627607 1.4773473 1.4773473 1.4773473h12.803677c.8145866 0 1.4773473-.6627607 1.4773473-1.4773473v-22.65265925c0-.8145866-.6627607-1.47734734-1.4773473-1.47734734z" fill="url(#a)" stroke="url(#a)"/><g fill="url(#b)" stroke="url(#b)"><path d="m21.39502 18.3342593h-6.8185262c-.2509976 0-.4545685-.2035709-.4545685-.4545684s.2035709-.4545684.4545685-.4545684h6.8185262c.2509975 0 .4545684.2035709.4545684.4545684s-.2035709.4545684-.4545684.4545684z"/><path d="m25.1830901 18.3342593h-1.5152281c-.2509975 0-.4545684-.2035709-.4545684-.4545684s.2035709-.4545684.4545684-.4545684h1.5152281c.2509975 0 .4545684.2035709.4545684.4545684s-.2035709.4545684-.4545684.4545684z"/><path d="m16.0917218 21.3647154h-1.515228c-.2509976 0-.4545685-.2035709-.4545685-.4545684s.2035709-.4545684.4545685-.4545684h1.515228c.2509975 0 .4545684.2035709.4545684.4545684s-.2035709.4545684-.4545684.4545684z"/><path d="m22.910248 21.3647154h-4.5456841c-.2509976 0-.4545684-.2035709-.4545684-.4545684s.2035708-.4545684.4545684-.4545684h4.5456841c.2509975 0 .4545684.2035709.4545684.4545684s-.2035709.4545684-.4545684.4545684z"/><path d="m22.152634 24.3951715h-7.5761402c-.2510733 0-.4545685-.2035709-.4545685-.4545684 0-.2509976.2034952-.4545685.4545685-.4545685h7.5761402c.2509975 0 .4545684.2035709.4545684.4545685 0 .2509975-.2035709.4545684-.4545684.4545684z"/><path d="m25.1830901 24.3951715h-.7576141c-.2509975 0-.4545684-.2035709-.4545684-.4545684 0-.2509976.2035709-.4545685.4545684-.4545685h.7576141c.2509975 0 .4545684.2035709.4545684.4545685 0 .2509975-.2035709.4545684-.4545684.4545684z"/><path d="m36.3947169 14.2448516c-.4529342 0-.8202853-.3674766-.8202853-.8205655 0-2.1869439-1.7786521-3.96606674-3.9647125-3.96606674-.4529342 0-.8202853-.3674766-.8202853-.82056553s.3673511-.82056552.8202853-.82056552c2.1860604 0 3.9647125-1.77912282 3.9647125-3.9660667 0-.45308893.3673511-.82056553.8202853-.82056553s.8202853.3674766.8202853.82056553c0 2.18694388 1.7786521 3.9660667 3.9647125 3.9660667.4529342 0 .8202853.36747659.8202853.82056552s-.3673511.82056553-.8202853.82056553c-2.1860604 0-3.9647125 1.77912284-3.9647125 3.96606674 0 .4530889-.3673511.8205655-.8202853.8205655zm-1.8680631-5.60719777c.7606779.46567094 1.4026879 1.10776346 1.8680631 1.86883797.4653752-.76093775 1.1073852-1.40316703 1.8680631-1.86883797-.7606779-.46567093-1.4026879-1.10776346-1.8680631-1.86883798-.4653752.76107452-1.1073852 1.40316705-1.8680631 1.86883798z"/></g></g></svg>