<svg height="34" viewBox="0 0 44 34" width="44" xmlns="http://www.w3.org/2000/svg" xmlns:xlink="http://www.w3.org/1999/xlink"><linearGradient id="a" x1="50%" x2="50%" y1="0%" y2="100%"><stop offset="0" stop-color="#0868d2" stop-opacity=".7"/><stop offset="1" stop-color="#04b7a7"/></linearGradient><path d="m178.707702 17.682944c-.369229-1.1368897-1.938452-1.2733165-2.953831-1.4552188-1.615377-.2728535-3.230753-.2728535-4.846129-.0454756-.230769.0454756-.184615 1.1368897.046153 1.0914141 1.246148-.1364268 2.446142-.1819023 3.692289-.0454756 1.015379.0909512 2.353834.227378 3.230753.7276094-7.15381.6821338-14.169159 2.9559132-20.44605 6.3665823-3.276906 1.7735479-6.323044 3.9109005-9.138415 6.3211066-2.861523 2.4556817-5.538433 5.2751681-7.476884 8.5494104-2.261527 3.6835226-3.553828 7.9582278-3.461521 12.2784086 0 .0909512.046153.5457071.230768.5457071.184614 0 .184614-.4092803.184614-.5457071-.138461-7.7308498 4.799976-14.3702856 10.47687-19.2361734 5.353819-4.5930344 11.723017-8.0946546 18.553751-10.2774828 3.415367-1.0914141 6.923042-1.8190235 10.47687-2.2283038-.230768.227378-.461536.4547559-.692304.6821338-.876919.8640362-1.753838 1.6825968-2.723063 2.4556818-.276922.2273779 0 1.3642676.13846 1.2278408 1.246148-1.0459385 2.399988-2.1373526 3.507675-3.3197179.369229-.3638047.692304-.773085.923072-1.1823652h.184614c.323076-.0454756.323076-1.000463.184615-1.5006944-.046154-.1364268-.046154-.2728535-.092307-.4092803z" fill="url(#a)" transform="matrix(.22495105 .97437006 -.97437006 .22495105 19.694864 -144.701247)"/></svg>