<svg height="91" viewBox="0 0 63 91" width="63" xmlns="http://www.w3.org/2000/svg" xmlns:xlink="http://www.w3.org/1999/xlink"><linearGradient id="a" x1="50%" x2="50%" y1="0%" y2="100%"><stop offset="0" stop-color="#0868d2" stop-opacity=".7"/><stop offset="1" stop-color="#04b7a7"/></linearGradient><path d="m584.316446 85.6793662c-.728201-2.2421991-3.823057-2.511263-5.825611-2.8700148-3.185881-.5381278-6.371762-.5381278-9.557643-.089688-.455126.089688-.364101 2.2421991.091025 2.1525112 2.45768-.2690639 4.824334-.3587519 7.282014-.089688 2.002554.1793759 4.642284.4484398 6.371762 1.4350074-14.108902 1.3453195-27.944729 5.8297177-40.324153 12.556315-6.462787 3.497831-12.470449 7.713165-18.022985 12.466627-5.643561 4.84315-10.923021 10.403804-14.746078 16.861337-4.460234 7.264725-7.008939 15.695394-6.826888 24.215751 0 .179375.091025 1.076255.455126 1.076255.3641 0 .3641-.807192.3641-1.076255-.273075-15.246954 9.466619-28.341397 20.662715-37.938009 10.558921-9.058485 23.120395-15.9644579 36.592121-20.2694801 6.735863-2.1525112 13.653776-3.5875186 20.662715-4.3947103-.455126.4484398-.910252.8968797-1.365378 1.3453195-1.729478 1.7040713-3.458956 3.3184547-5.370485 4.84315-.546151.4484399 0 2.690639.273075 2.4215751 2.45768-2.0628232 4.73331-4.2153343 6.917914-6.5472214.728201-.7175037 1.365378-1.5246954 1.820503-2.3318871h.364101c.637176-.0896879.637176-1.9731352.364101-2.9597028-.091025-.2690639-.091025-.5381278-.182051-.8071917z" fill="url(#a)" transform="matrix(.95630476 -.2923717 .2923717 .95630476 -522.711251 91.116903)"/></svg>