<svg width="24" height="40" viewBox="0 0 24 40" fill="none" xmlns="http://www.w3.org/2000/svg">
<g clip-path="url(#clip0_202_2)">
<path d="M19.4077 39.8574C18.6947 39.5273 18.0649 39.0415 17.5647 38.4355C11.9827 32.8509 6.39873 27.2682 0.812729 21.6875C0.462687 21.395 0.210095 21.0027 0.088608 20.563C-0.0328787 20.1233 -0.0176655 19.657 0.132553 19.2263C0.264297 18.8753 0.471687 18.5576 0.739731 18.2954C6.5804 12.4374 12.4283 6.58674 18.2837 0.743409C18.4909 0.508028 18.7462 0.32001 19.0325 0.191895C19.3187 0.0637794 19.629 -0.00129884 19.9426 0.000976867C20.2562 0.00325257 20.5655 0.0728223 20.8498 0.205078C21.1342 0.337334 21.3868 0.528971 21.5906 0.767334C21.9046 1.07633 22.2146 1.39042 22.5266 1.70142C22.8071 1.91186 23.0346 2.18488 23.1909 2.49878C23.3472 2.81268 23.4279 3.15888 23.4267 3.50952C23.4256 3.86016 23.3424 4.2057 23.1841 4.51855C23.0257 4.83141 22.7965 5.10295 22.5146 5.31152L17.7837 10.0425C14.593 13.2331 11.402 16.4232 8.21068 19.6126C8.09521 19.7131 7.9733 19.8058 7.84569 19.8904C8.00669 20.0614 8.10663 20.1745 8.21263 20.2805C12.9973 25.0672 17.7841 29.8522 22.5727 34.6355C22.9133 34.9277 23.1618 35.3124 23.2883 35.7429C23.4149 36.1735 23.4139 36.6315 23.2856 37.0615C23.2744 37.1122 23.2553 37.1607 23.2287 37.2053C22.5806 38.3304 21.6066 39.2328 20.4355 39.7935C20.4019 39.8116 20.3704 39.8334 20.3415 39.8584L19.4077 39.8574Z" fill="white"/>
</g>
<defs>
<clipPath id="clip0_202_2">
<rect width="23.426" height="39.857" fill="white" transform="translate(23.4258 39.8574) rotate(180)"/>
</clipPath>
</defs>
</svg>
