<svg xmlns="http://www.w3.org/2000/svg" width="23.426" height="39.857" viewBox="0 0 23.426 39.857">
  <path id="Caminho_1769" data-name="Caminho 1769" d="M2138.357,3498.114a5.251,5.251,0,0,1,1.843,1.422q8.373,8.377,16.752,16.748a2.244,2.244,0,0,1,.68,2.461,2.561,2.561,0,0,1-.607.931q-8.761,8.787-17.544,17.552a2.189,2.189,0,0,1-3.307-.024c-.314-.309-.624-.623-.936-.934a2.251,2.251,0,0,1,.012-3.61l4.731-4.731q4.786-4.786,9.573-9.57a3.506,3.506,0,0,1,.365-.278c-.161-.171-.261-.284-.367-.39q-7.177-7.18-14.36-14.355a2.322,2.322,0,0,1-.713-2.426.489.489,0,0,1,.057-.144,6.425,6.425,0,0,1,2.793-2.588.521.521,0,0,0,.094-.065Z" transform="translate(-2134.339 -3498.114)" fill="#fff"/>
</svg>
