<svg height="41" viewBox="0 0 190 41" width="190" xmlns="http://www.w3.org/2000/svg"><g fill="none"><g fill="#333"><path d="m65.1863971 26.056717v4.3424803c-.0000633.312053-.2530164.5650694-.5650694.5650694h-2.5431563c-.1584416 0-.3103939-.0629407-.4224291-.1749758-.1120352-.1120352-.1749759-.2639875-.1749759-.4224291v-16.6626675c0-.1770122.0702662-.3467849.195422-.4719623.1251558-.1251773.2949164-.195503.4719287-.195503h2.3872118c.172674 0 .3382758.0685945.4603747.1906935.122099.122099.1906935.2877007.1906935.4603747 1.0186342-.5647163 2.1654238-.8578698 3.3301026-.8513823 2.9206312.010551 5.5299707 1.8274251 6.5530961 4.5630074 1.0231254 2.7355822.2464674 5.8188413-1.9504993 7.7432979-2.1969666 1.9244567-5.3556423 2.2883958-7.9326994.9139968zm.2793241-7.5620459c-1.1455039 2.7940434 1.4197827 5.5061014 4.2819372 4.489481.8771668-.3130441 1.5674629-1.0033402 1.880507-1.880507 1.0166204-2.8621545-1.6954376-5.4274411-4.489481-4.2819372-.7584691.3118996-1.3608036.9140278-1.6729632 1.6723899z"/><path d="m109.519463 26.056717v4.3424803c0 .3120793-.25299.5650694-.56507.5650694h-2.543156c-.329937 0-.597405-.2674673-.597405-.5974049v-16.6626675c0-.3685861.298765-.667402.667351-.6674653h2.387212c.359575 0 .651068.2914932.651068.6510682 1.018634-.5647163 2.165424-.8578698 3.330102-.8513823 2.920632.010551 5.529971 1.8274251 6.553097 4.5630074 1.023125 2.7355822.246467 5.8188413-1.9505 7.7432979-2.196966 1.9244567-5.355642 2.2883958-7.932699.9139968zm.279324-7.5620459c-1.145389 2.7940434 1.419783 5.5061014 4.281937 4.489481.877167-.3130441 1.567463-1.0033402 1.880507-1.880507 1.016621-2.8621545-1.695323-5.4274411-4.489481-4.2819372-.758426.3119646-1.360738.9140711-1.672963 1.6723899z"/><path d="m89.9566868 21.7431322c.0973935.0267974.1778875.0954075.2197736.1873268.0418861.0919192.0408506.197681-.0028273.2887625-1.5854738 3.2687568-4.6730598 5.3343331-8.3426856 4.5135606-3.4055522-.7511708-5.9341461-4.0562764-5.5835003-7.7117984.8074713-8.5643331 12.4717743-8.4240978 13.8192034-.3505311.0542221.3265594-.1419765.6427335-.4586603.739131-2.8365841.8599879-5.7123838 1.6640193-8.5894447 2.5061195-.0637493.0190163-.1127074.0702992-.1287478.1348614-.0160405.0645623.003224.1327951.0506609.1794355 1.734309 1.734309 4.5204405 1.0418467 5.6914001-.9990766.1160567-.2062151.3573213-.307293.5857091-.2453833zm-9.8482378-2.5072662 5.627073-1.6578274c.0522659-.0150617.0953337-.0522223.1178881-.1017185s.0223404-.1063794-.0005857-.1557045c-1.2222149-2.5371938-6.2760773-1.0365721-5.9828787 1.7593059.0065659.0545723.0369202.1034507.082925.1335307.0460047.03008.1029536.0382845.1555783.0224138z"/><path d="m138.66067 21.7431322c.097393.0267974.177887.0954075.219774.1873268.041886.0919192.04085.197681-.002828.2887625-1.585474 3.2687568-4.67306 5.3343331-8.342685 4.5135606-3.405553-.7511708-5.934146-4.0562764-5.583615-7.7117984.807471-8.5643331 12.471774-8.4240978 13.819318-.3505311.054222.3265594-.141977.6427335-.458661.739131-2.836584.8599879-5.712383 1.6640193-8.589559 2.5061195-.063731.0190446-.112659.0703395-.128675.1348979s.003264.1327748.050703.179399c1.734309 1.734309 4.52044 1.0418467 5.691285-.9990766.116098-.2062333.357403-.3073085.585824-.2453833zm-9.848238-2.5072662 5.626958-1.6578274c.052287-.0150356.095383-.0521856.117961-.1016851s.022379-.1063973-.000544-.1557379c-1.222214-2.5371938-6.276077-1.0365721-5.982878 1.7593059.006552.0546265.03694.1035541.083001.1336424.046062.0300883.103076.0382533.155731.0223021z"/><path d="m105.040875 19.5592215c.056205 2.941127-1.679735 5.6215515-4.386585 6.7732237-2.7068499 1.1516723-5.8418962.543686-7.9220174-1.536334-2.0801211-2.0800199-2.6882599-5.2150367-1.5367193-7.9219429s3.8318807-4.4429765 6.7730104-4.3869142c3.8744903.0745651 6.9975573 3.1974807 7.0723113 7.0719674zm-3.683959.3200302c.075457-1.4592706-.755832-2.8142315-2.0909251-3.4081091-1.3350932-.5938775-2.898069-.3039359-3.9313254.729285s-1.3232516 2.5961868-.7294198 3.9313003 1.9487642 2.1664485 3.4080373 2.0910422c1.8071385-.0919475 3.251624-1.5363831 3.343633-3.3435184z"/><path d="m123.767284 8.98549789c.290421 0 .525854.23543283.525854.52585395v16.87582986c0 .2904211-.235433.5258539-.525854.5258539h-2.729028c-.290421 0-.525854-.2354328-.525854-.5258539v-16.87582986c0-.29042112.235433-.52585395.525854-.52585395z"/><path d="m170.574707 21.7431322c.097394.0267974.177888.0954075.219774.1873268.041886.0919192.040851.197681-.002827.2887625-1.585474 3.2687568-4.67306 5.3343331-8.342686 4.5135606-3.405552-.7511708-5.934146-4.0562764-5.584188-7.7117984.807471-8.5643331 12.471774-8.4240978 13.819318-.3505311.054222.3265594-.141977.6427335-.45866.739131-2.836585.8599879-5.712384 1.6640193-8.589445 2.5061195-.063749.0190163-.112708.0702992-.128748.1348614-.016041.0645623.003224.1327951.050661.1794355 1.734309 1.734309 4.52044 1.0418467 5.691285-.9990766.116127-.2062011.357406-.3072655.585824-.2453833zm-9.848237-2.5072662 5.626958-1.6578274c.052287-.0150356.095383-.0521856.117961-.1016851s.022379-.1063973-.000544-.1557379c-1.222215-2.5371938-6.276077-1.0365721-5.982879 1.7593059.006566.0545723.03692.1034507.082925.1335307s.102954.0382845.155579.0224138z"/><path d="m151.215576 12.7463971h.049192c.165881 0 .321297.0810523.416285.2170451.094987.1359928.117571.3098043.060492.465556l-.025112.068799-4.882782 12.7439892c-.075242.1964186-.263803.3261074-.47414.3261074h-3.333198c-.210131 0-.398559-.1294224-.474026-.3255341l-4.870971-12.8073989c-.059307-.1560184-.038126-.3312214.056651-.4686125.094777-.137391.251037-.2194112.417947-.2193779h3.070043c.210665-.000016.399457.1300581.474484.3269101l2.530772 6.6404828c.074994.1968919.263794.3270115.474484.3270115.210691 0 .39949-.1301196.474484-.3270115l2.530658-6.6404828c.075027-.196852.263819-.3269261.474484-.3269101h3.030253z"/><path d="m156.346608 9.8206035c.118352 1.1326332-.691311 2.1517522-1.821373 2.2925533s-2.165045-.6484827-2.32824-1.7755286c-.108486-.74921422.1964-1.49856207.797142-1.95921407s1.403533-.5606764 2.098944-.26151969c.695411.2991567 1.174852.9507806 1.253527 1.70370906z"/><path d="m155.632818 12.7463971c.290377 0 .525791.235363.525854.5257393v12.7695594c0 .2904212-.235433.525854-.525854.525854h-2.729028c-.290421 0-.525854-.2354328-.525854-.525854v-12.7695594c0-.1394546.055406-.2731958.154026-.3717944.09862-.0985985.232373-.1539449.371828-.1539449z"/><path d="m189.45236 12.7462824h.018575c.164758.0002284.319555.0790138.416608.2121509.097054.1331371.124694.3046171.074388.4615063l-.008829.027405-4.116476 12.7622209c-.068749.2130396-.267023.3575256-.490881.3575256h-3.312673c-.232142 0-.435656-.1551608-.497303-.378968l-1.172679-4.2610682c-.061992-.2238711-.265936-.3787189-.498231-.3782906s-.435666.1560271-.496832.3801253l-1.155136 4.2573989c-.061002.2246992-.264929.3808026-.497761.3808026h-3.346615c-.206353 0-.392836-.1230298-.47414-.3126916l-.006536-.0152504c-.006421-.0152887-.012154-.0305774-.017199-.0458661l-4.084026-12.7736873c-.050054-.1568591-.022243-.3281878.074858-.4611602.0971-.1329723.25183-.2116203.416482-.2116944h3.047683c.224636.0000489.423429.1454228.491569.359475l1.596252 5.0223295c.069147.2165436.271858.3623282.499149.3589764.227291-.0033519.425614-.1550504.488347-.3735389l1.426548-4.9928606c.063343-.2213608.26568-.373968.495926-.3740374h3.101804c.230694.0000618.433317.1532461.496271.3751841l1.408087 4.9705009c.062182.2184529.259896.3705563.48699.3746449.227094.0040887.430156-.1407989.500161-.3568718l1.615057-5.0068498c.06879-.2129943.267054-.357411.490882-.357411z"/></g><path d="m54.2671877 13.6644056-13.2334943-1.4940857-25.8035365-2.91340982-12.51637899-1.41313217c-2.42608328-.27393482-3.69875075 2.79702479-1.79003621 4.31943269l16.0085033 12.7689861 12.8919071 10.2830477 5.4447556 4.3429391c1.0504547.8378389 2.5812151.6655013 3.4190826-.3849306l17.2074412-21.5741159c.5520922-.6920895.6846607-1.6294526.3461425-2.4474985s-1.0946849-1.3876386-1.9743863-1.4872329z" fill="#aee6e1"/><path d="m20.8361316.03302354 20.6938322 3.43341581c1.0075618.16718165 1.7183705.94908268 1.5876524 1.74646349l-.6191913 3.77465902-1.5343332 9.35666864-2.1213035 12.9385758c-.237586 1.448793-2.7226071 1.5973989-3.4952203.2090344l-4.2917984-7.7121425-8.1102595-14.57347008-4.0168317-7.21816536c-.6055461-1.08805672.4727641-2.19342788 1.9074533-1.95503922z" fill="#81d8d0"/></g></svg>