<svg height="42" viewBox="0 0 190 42" width="190" xmlns="http://www.w3.org/2000/svg" xmlns:xlink="http://www.w3.org/1999/xlink"><mask id="a" fill="#fff"><path d="m0 0h20.158643v13.7758674h-20.158643z" fill="#fff" fill-rule="evenodd"/></mask><mask id="b" fill="#fff"><path d="m0 0h57.5139088v33.4195214h-57.5139088z" fill="#fff" fill-rule="evenodd"/></mask><g fill="#fff" fill-rule="evenodd"><path d="m65.8865107 19.0644947c-1.1416593 2.7849248 1.4151862 5.4882123 4.2678615 4.4749003.8723404-.309927 1.5647843-1.0023709 1.8747114-1.8747114 1.013312-2.8526753-1.6899756-5.4095207-4.4749004-4.2678614-.7540926.3090854-1.3585871.9133695-1.6676725 1.6676725m-.2783662 7.5373497v4.3282478c0 .3109791-.252276.5632551-.5632551.5632551h-2.5347528c-.3288636 0-.5954471-.2665836-.5954471-.5954471v-16.6081334c0-.3673676.2977235-.6653016.6650912-.6653016h2.3794738c.3583202 0 .64889.2905698.64889.64889.973335-.5489474 2.1213064-.8485646 3.3191439-.8485646 3.8432635 0 6.987771 3.1445075 6.987771 7.0128092 0 3.8432636-3.1445075 6.9877711-6.987771 6.9877711-1.1978375 0-2.3458089-.2994068-3.3191439-.8235265"/><path d="m110.074363 19.0644947c-1.141659 2.7849248 1.415186 5.4882123 4.267861 4.4749003.872341-.309927 1.564785-1.0023709 1.874712-1.8747114 1.013312-2.8526753-1.689976-5.4095207-4.474901-4.2678614-.754092.3090854-1.358587.9133695-1.667672 1.6676725m-.278366 7.5373497v4.3282478c0 .3109791-.252276.5632551-.563255.5632551h-2.534753c-.328864 0-.595447-.2665836-.595447-.5954471v-16.6081334c0-.3673676.297723-.6653016.665091-.6653016h2.379474c.35832 0 .64889.2905698.64889.64889.973335-.5489474 2.121306-.8485646 3.319143-.8485646 3.843264 0 6.987771 3.1445075 6.987771 7.0128092 0 3.8432636-3.144507 6.9877711-6.987771 6.9877711-1.197837 0-2.345808-.2994068-3.319143-.8235265"/><path d="m80.4813597 19.8032488 5.6085642-1.6523129c.1087796-.0319816.1662202-.1542271.1169854-.2564841-1.2182468-2.5290719-6.2555605-1.0333005-5.9633076 1.7533075.0119931.1142501.1275057.187892.237758.1554895zm9.8160394 2.4991944c.2038827.0563886.3084542.2840472.2160862.474464-1.5801439 3.2579159-4.6577425 5.3169424-8.3154286 4.4986761-3.3938377-.7486221-5.9144935-4.0429382-5.5652206-7.6865271.8048003-8.5363541 12.4309566-8.3964346 13.7741841-.3492728.0542846.3250762-.1420236.641105-.4574211.736629-2.8272163.8574017-5.6935679 1.6586251-8.5613924 2.497932-.1369739.0401874-.1786341.2122989-.0776396.3132935 1.7284797 1.7284797 4.5056195 1.0383502 5.6725274-.9958484.1176166-.2049348.3562162-.3076126.5838747-.2447014z"/><path d="m129.026012 19.8032488 5.608564-1.6523129c.108779-.0319816.16622-.1542271.116985-.2564841-1.218247-2.5290719-6.25556-1.0333005-5.963307 1.7533075.011993.1142501.127505.187892.237758.1554895zm9.816039 2.4991944c.203883.0563886.308454.2840472.216086.474464-1.580144 3.2579159-4.657742 5.3169424-8.315428 4.4986761-3.393838-.7486221-5.914494-4.0429382-5.565221-7.6865271.8048-8.5363541 12.430957-8.3964346 13.774184-.3492728.054285.3250762-.142023.641105-.457421.736629-2.827216.8574017-5.693568 1.6586251-8.561392 2.497932-.136974.0401874-.178635.2122989-.07764.3132935 1.72848 1.7284797 4.505619 1.0383502 5.672527-.9958484.117617-.2049348.356217-.3076126.584086-.2447014z"/><path d="m101.66017 20.4445853c.104571-2.0903768-1.605603-3.8005513-3.6957695-3.6959798-1.7892868.0894222-3.243398 1.543323-3.3328202 3.3326098-.1045715 2.0903768 1.605603 3.8003409 3.6959798 3.6959798 1.7890769-.0894222 3.2431879-1.543323 3.3326099-3.3326098m3.671783-.3189745c.076167 4.0766031-3.246764 7.3995343-7.3233674 7.3233675-3.8422115-.0717482-6.9772507-3.2067874-7.0487885-7.0489989-.0759563-4.0766031 3.246554-7.3991135 7.3231571-7.3231571 3.8422118.0715378 6.9772508 3.206577 7.0489988 7.0487885"/><path d="m123.997177 9.58651364c.289518 0 .52412.23460193.52412.52411966v.324445 16.4961977c0 .2893074-.234602.5239093-.52412.5239093h-2.72033c-.289307 0-.523909-.2346019-.523909-.5239093v-16.4961977-.324445c0-.28951773.234602-.52411966.523909-.52411966z"/><path d="m160.835298 19.8032488 5.608564-1.6523129c.10878-.0319816.16622-.1542271.116986-.2564841-1.218247-2.5290719-6.255561-1.0333005-5.963308 1.7533075.011993.1142501.127506.187892.237758.1554895zm9.816039 2.4991944c.203883.0563886.308455.2840472.216087.474464-1.580144 3.2579159-4.657743 5.3169424-8.315429 4.4986761-3.393838-.7486221-5.914493-4.0429382-5.565221-7.6865271.804801-8.5363541 12.430957-8.3964346 13.774185-.3492728.054284.3250762-.142024.641105-.457422.736629-2.827216.8574017-5.693568 1.6586251-8.561392 2.497932-.136974.0401874-.178634.2122989-.07764.3132935 1.72848 1.7284797 4.50562 1.0383502 5.672528-.9958484.117616-.2049348.356216-.3076126.584085-.2447014z"/><path d="m151.355592 13.3350527h.049024c.351798 0 .596289.3501145.475095.6804508l-.025038.0681713-4.866675 12.7021691c-.075115.1958873-.263007.3250762-.47257.3250762h-.001263-3.321037c-.209564 0-.397246-.1289785-.47236-.324445l-4.855313-12.7652906c-.125823-.3313884.118879-.6861318.473201-.6861318h.039556 3.020369c.209984 0 .398297.1296097.472991.3259178l2.522339 6.6187201c.165589.434487.780393.434487.945982 0l2.522339-6.6187201c.074904-.1963081.263007-.3259178.472991-.3259178h.02567z"/><path d="m156.469745 10.4188771c.141814 1.329972-.959658 2.4314438-2.28963 2.2896307-.943668-.1005738-1.718381-.8338363-1.846307-1.7743481-.185998-1.36742416.994165-2.54758759 2.361589-2.36158929.940512.12771603 1.673775.90263882 1.774348 1.84630669"/><path d="m155.758323 13.3350527c.289518 0 .52412.2346019.52412.5241197v12.7276281c0 .2895177-.234602.5241196-.52412.5241196h-2.72033c-.289308 0-.52391-.2346019-.52391-.5241196v-12.7276281c0-.2895178.234602-.5241197.52391-.5241197z"/><path d="m19.6257285 0h.0185156c.3484312 0 .5960783.33959418.4894028.67140337l-.008837.02735269-4.1026933 12.72089514c-.0683818.212299-.2661628.3562162-.4891924.3562162h-3.3018906c-.2314459 0-.4342766-.1546479-.495715-.3776776l-1.1688015-4.2470313c-.1386571-.50455195-.85466642-.50328952-.99164029.00168325l-1.1513379 4.24366485c-.06080713.2238713-.26426908.3793608-.49634614.3793608h-.03092958-3.30462593c-.2057764 0-.3915643-.1224559-.47257035-.3116103l-.00652256-.0151492c-.00652256-.0151491-.01220351-.0305087-.01725324-.0460787l-4.07050128-12.73246745c-.10604428-.33159878.14139237-.67056175.48961317-.67056175h.04460593 2.99322606c.22387126 0 .42207307.14496926.48982358.35832026l1.59108501 5.00554252c.1542271.48519466.84435655.4750952.98427608-.01451797l1.42191914-4.97650659c.06291119-.22071517.26468989-.37283822.4942421-.37283822h.03640012 3.05529558c.2299731 0 .4319622.15275426.4946629.37410066l1.4029827 4.95483483c.1386571.48940277.8277345.50181669.9840657.01788446l1.6098111-4.99060375c.0683817-.21229896.2661627-.3562162.4891923-.3562162z" mask="url(#a)" transform="translate(169.841357 13.335053)"/><path d="m3.03520192 1.26182479c-.85382478 0-1.39519767.55547004-1.62474987 1.10925683-.24975111.60302164-.23923085 1.46841872.53884802 2.088904l34.23252443 27.30535018c.7728188.6164876 1.9039577.4894028 2.5206557-.2838368l17.1520312-21.50363391c.413236-.51780749.5083392-1.19257734.2550112-1.80464641-.2535384-.61227948-.7976465-1.02193863-1.4560048-1.09600131l-51.38476598-5.80192664c-.08016443-.00904743-.1582248-.01346594-.2335499-.01346594m34.25903548 32.15771761c-.6890774 0-1.3529062-.2312354-1.8995392-.6671953l-34.23273483-27.30513973c-1.09242441-.87149882-1.45263832-2.26859014-.917788-3.55921636.53506073-1.29104703 1.77876656-2.02346794 3.16617923-1.86713679l51.3849764 5.80171624c1.1214603.126664 2.0487166.82478885 2.4806787 1.86776801.4317517 1.04276876.2693188 2.19242342-.4342766 3.07465293l-17.1522415 21.5036339c-.5089705.6381593-1.2361313 1.0400335-2.0472438 1.1313494-.1163541.0130451-.2327082.0195677-.3480104.0195677" mask="url(#b)" transform="translate(0 7.800338)"/><path d="m21.0166298 1.26195347c-.4538443 0-.7951217.19062722-.9501904.41071118-.1350803.19210006-.1397092.40481984-.0130452.63226798l16.3646945 29.40666807c.293305.5268549.9960587.7065411 1.5374316.6116483.2076701-.0361897.6987561-.1685347.7721875-.6152252l4.2611285-25.98421515c.0723795-.4429032-.414288-.90831976-1.0629676-1.01583688l-20.6260334-3.4222425h.0002104c-.0986801-.01641161-.193152-.0237758-.2834159-.0237758m16.6460063 32.34918643c-.983224 0-1.9041681-.4885611-2.3474921-1.2855765l-16.3646945-29.40666805c-.3608451-.64846919-.3294947-1.38615023.0839518-1.97318107.5041311-.71558849 1.4747308-1.07117348 2.4718416-.90558449h.0002105l20.6260333 3.4222425c1.3453316.22345045 2.2881578 1.3293408 2.1021595 2.46573992l-4.2611285 25.98421519c-.1397091.8512999-.830049 1.4852511-1.8012799 1.6546274-.1700075.0298776-.3408566.0441851-.5096017.0441851"/></g></svg>