<svg height="100" viewBox="0 0 229 100" width="229" xmlns="http://www.w3.org/2000/svg" xmlns:xlink="http://www.w3.org/1999/xlink"><mask id="a" fill="#fff"><path d="m0 0h46.7257781v17.3149496h-46.7257781z" fill="#fff" fill-rule="evenodd"/></mask><g fill="none" fill-rule="evenodd" transform="matrix(0 1 -1 0 229 0)"><path d="m90.6810367 224.738019h-15.2052415-31.5205366v-17.315074h31.5205366 15.2052415z" fill="#c2a673"/><path d="m78.9189573 229h15.2052415v-17.315074h-15.2052415z" fill="#d4d5d6"/><path d="m47.3984207 229h31.5205366v-17.315074h-31.5205366z" fill="#fff"/><path d="m90.3132222 203.85894h-15.2039942-31.5217838v-17.315074h31.5217838 15.2039942z" fill="#c2a673"/><path d="m78.5522654 208.120424h15.2052415v-17.315074h-15.2052415z" fill="#d4d5d6"/><path d="m47.0317288 208.121667h31.5192894v-17.315074h-31.5192894z" fill="#fff"/><path d="m90.6810367 182.429142h-15.2052415-31.5205366v-17.31383h31.5205366 15.2052415z" fill="#c2a673"/><path d="m78.9202046 186.691123h15.2039942v-17.315074h-15.2039942z" fill="#d4d5d6"/><path d="m47.3984207 186.692367h31.5205366v-17.315074h-31.5205366z" fill="#fff"/><path d="m89.1426768 59.6238267h-15.2052414-31.5205366v-17.315074h31.5205366 15.2052414z" fill="#c2a673"/><path d="m77.3810964 63.8861806h15.2039942v-17.315074h-15.2039942z" fill="#d4d5d6"/><path d="m45.8605598 63.8861806h31.5205366v-17.315074h-31.5205366z" fill="#fff"/><path d="m88.7748624 38.7447479h-15.2039942-31.5205366v-17.315074h31.5205366 15.2039942z" fill="#c2a673"/><path d="m77.0131573 43.0066042h15.2052414v-17.315074h-15.2052414z" fill="#d4d5d6"/><path d="m45.4938679 43.0066042h31.5192894v-17.315074h-31.5192894z" fill="#fff"/><path d="m46.7257781 17.3149496h-15.2052415-31.5205366v-17.31507397h31.5205366 15.2052415z" fill="#c2a673" mask="url(#a)" transform="translate(42.416899)"/><path d="m77.3810964 21.5773035h15.2039942v-17.31383032h-15.2039942z" fill="#d4d5d6"/><path d="m45.861807 21.5760597h31.5192894v-17.31383024h-31.5192894z" fill="#fff"/><path d="m47.7588764 149.396926h52.2411236v-21.7166h-52.2411236z" fill="#6bd4ff"/><path d="m73.8796876 124.464936-21.6398112 21.578547h-30.6025596l-21.6373168-21.578547v-30.5159215l21.6373168-21.5773034h30.6025596l21.6398112 21.5773034z" fill="#c2a673"/><path d="m77.7712366 136.180657-21.638564 21.578547h-30.6025596l-21.638564-21.578547v-30.515922l21.638564-21.5773031h30.6025596l21.638564 21.5773031z" fill="#fff"/><g fill="#f04a6b"><path d="m3.8910501 136.180657 36.9398438-15.257961-36.9398438-15.257961z"/><path d="m40.8311434 120.923193-15.3012798 36.835265h30.6038068z"/><path d="m77.7712366 136.180657-36.9398438-15.257961 36.9398438-15.257961z"/><path d="m56.1331715 84.0871832-15.302527 36.8365078-15.3000326-36.8365078z"/></g></g></svg>