<svg height="344" viewBox="0 0 279 344" width="279" xmlns="http://www.w3.org/2000/svg"><g fill="none" fill-rule="evenodd"><path d="m230 75.499637c0 41.697785-33.802578 75.500363-75.500363 75.500363-41.697059 0-75.499637-33.802578-75.499637-75.500363 0-41.6970588 33.802578-75.499637 75.499637-75.499637 41.697785 0 75.500363 33.8025782 75.500363 75.499637" fill="#f2b165"/><path d="m211.419934 192.419277c-13.34727 13.347303-24.419934 7.138538-24.419934 7.138538l31.557738-31.557815s6.20875 11.071974-7.137804 24.419277" fill="#2a212e"/><path d="m216.060338 169c1.575574.197647 2.363361.296832 3.939662.495203-7.198467 57.980031-8.865695 116.345219-5.015504 174.504797h-3.978215c-3.845099-58.32537-2.164778-116.854902 5.054057-175" fill="#a66e6c"/><g fill="#2a212e"><path d="m220 170.487808c-1.467031 10.820781-2.664066 21.65438-3.756535 32.512192-1.69723-.138153-2.546235-.20082-4.243465-.338973 1.097152-10.905524 2.300429-21.792533 3.772922-32.661027 1.690987.195123 2.536091.292685 4.227078.487808"/><path d="m192.5 183c-22.416089 0-26.5-16-26.5-16h53s-4.084627 16-26.5 16"/><path d="m251 183.439439s-6.273522 8.451351-20.220094 2.3444c-13.945867-6.1077-12.75454-16.783839-12.75454-16.783839z"/><path d="m237.097832 168.369721c-13.434951 7.679606-21.097832.788422-21.097832.788422l31.764328-18.158143s2.767721 9.690116-10.666496 17.369721"/><path d="m202.862004 149.557695c20.29543 7.660848 19.125494 22.442305 19.125494 22.442305l-47.987498-18.113057s8.565855-11.990096 28.862004-4.329248"/></g><path d="m233.5407 181.743749c-13.22199-3.900728-17.5407-13.743749-17.5407-13.743749l35 15.30389s-4.23731 2.339839-17.4593-1.560141" fill="#9b8936"/><path d="m239.456129 160.863379c-6.314715 2.878077-19.456129 6.136621-19.456129 6.136621l28-16s-2.229893 6.986004-8.543871 9.863379" fill="#9b8936"/><path d="m52 161.884175s-5.6678768 1.521603-10.0050288-6.465342c-4.3378446-7.986945-.2500737-12.418833-.2500737-12.418833z" fill="#2a212e"/><path d="m76 150.200118s-6.8441671 8.895329-22.0578013 2.466901c-15.21435-6.428427-13.9145166-17.667019-13.9145166-17.667019z" fill="#2a212e"/><path d="m59.9087816 149.060926c-7.118391-1.772454-11.9087816-14.060926-11.9087816-14.060926l28 14.552582s-8.9728275 1.280797-16.0912184-.491656" fill="#9b8936"/><path d="m60.3677219 142.884633c-16.4939118 1.299827-20.3677219-8.812885-20.3677219-8.812885l39-3.071748s-2.1376467 10.585503-18.6322781 11.884633" fill="#2a212e"/><path d="m63.6989374 137.964873c-7.2118144.47148-20.6989374-3.959097-20.6989374-3.959097l36-3.005776s-8.0885278 6.493394-15.3010626 6.964873" fill="#9b8936"/><path d="m33.4595997 156.4596c-11.7293631 11.729363-21.4595997 6.272872-21.4595997 6.272872l27.7324724-27.732472s5.4564905 9.730237-6.2728727 21.4596" fill="#2a212e"/><path d="m28.6170955 154.004582c-4.5779676 7.076189-16.6170955 7.995418-16.6170955 7.995418l27-27s-5.804937 11.928393-10.3829045 19.004582" fill="#9b8936"/><path d="m41.373375 132c19.5021667 67.287421 19.5021667 137.712579 0 205-1.7497951-.553633-2.62358-.830449-4.373375-1.384807 19.2388444-66.378709 19.2388444-135.851677 0-202.230386 1.749795-.554358 2.6235799-.831174 4.373375-1.384807" fill="#a66e6c"/><path d="m51 172.199154c-1.7267849.336972-2.5944481.464591-4.321233.800846-2.3517302-13.059454-5.0842642-25.893065-8.678767-38.629887 1.6790955-.548475 2.5175756-.822354 4.196671-1.370113 3.6436159 12.911043 6.4530224 25.654317 8.803329 39.199154" fill="#2a212e"/><path d="m20 146c-16.91736236 0-20-11-20-11h40s-3.0826376 11-20 11" fill="#2a212e"/><path d="m62.0760486 132.85108c-14.694239 8.776947-23.0760486.900771-23.0760486.900771l34.7421986-20.751851s3.027344 11.074134-11.66615 19.85108" fill="#2a212e"/><path d="m32.2463937 111.634109c12.4435412 13.030462 6.1744219 23.365891 6.1744219 23.365891l-29.4208156-30.809693s10.8035866-5.5859339 23.2463937 7.443802" fill="#2a212e"/><path d="m60.6026172 129.034256c-7.6985893 5.914152-22.6026172 5.965744-22.6026172 5.965744l36-21s-5.6987935 9.119377-13.3973828 15.034256" fill="#9b8936"/><path d="m41.5623661 133.378349-2.9854398 1.621651s-.1659011-8.929832-2.243169-14.413478c-2.0772679-5.482928-5.3337573-9.586522-5.3337573-9.586522 14.2877401 12.57317 10.5623661 22.378349 10.5623661 22.378349" fill="#9b8936"/><path d="m214.339057 104.339708c-16.582076 16.582043-30.339057 8.868606-30.339057 8.868606l39.20839-39.208314s7.713452 13.7569545-8.869333 30.339708" fill="#2a212e"/><path d="m223.841949 106.647371c-6.867747 11.349982-15.841949 9.188115-15.841949 9.188115l16.237577-26.835486s6.471355 6.2981169-.395628 17.647371" fill="#2a212e"/><path d="m202.852451 23 21.147549 51.9648563s-15.846125 1.7904298-24.78999-20.1875998c-8.944582-21.9780297 3.642441-31.7772565 3.642441-31.7772565" fill="#2a212e"/><path d="m264 113.208314s-13.756981 7.713437-30.339057-8.868606c-16.582785-16.5827535-8.869333-30.339708-8.869333-30.339708z" fill="#2a212e"/><path d="m246 100.029815c-6.418509-7.4623179-18-24.029815-18-24.029815l36 37s-11.581491-5.507867-18-12.970185" fill="#9b8936"/><path d="m222 73.0134136c1.995771-1.6052205 2.993295-2.4074684 4.989066-4.0134136 62.983351 81.12125 63.997477 192.890978 3.045265 275h-8.034331c62.162667-80.137826 62.162667-190.848761 0-270.9865864" fill="#a66e6c"/><path d="m258 121.488236c-2.384692 1.009068-3.575941 1.502696-5.959902 2.511764-8.109122-18.272266-17.68811-35.2235837-30.040098-50.9739075 2.021979-1.6102916 3.032603-2.4150739 5.054582-4.0260925 12.725669 16.1937901 22.830445 33.15674 30.945418 52.488236" fill="#2a212e"/><path d="m239 48.028679-13.019161 31.971321s-7.460658-6.1510473-1.954795-19.6721691c5.506574-13.5218574 14.973956-12.2991519 14.973956-12.2991519" fill="#2a212e"/><path d="m239 49-11.23251 27s-3.626727-9.2757506-.489983-17.7963725c3.136744-8.5206218 11.722493-9.2036275 11.722493-9.2036275" fill="#9b8936"/><path d="m265.738031 85.5665133c-3.646235 1.4642998-8.265516 2.4334867-14.094472 2.4334867-23.68511 0-28.643559-16-28.643559-16h56s-2.084485 9.0908613-13.261969 13.5665133" fill="#2a212e"/><path d="m203.861276 97.7341208c-21.975677 8.9992832-31.861276-3.4540758-31.861276-3.4540758l51.960049-21.280045s1.876903 15.7341245-20.098773 24.7341208" fill="#2a212e"/><path d="m224 72.5336991s-11.734767 10.8297905-32.306011-1.238279c-20.571245-12.0680696-16.333105-27.2954201-16.333105-27.2954201z" fill="#2a212e"/><path d="m265.442746 86-42.442746-15h56s-2.130897 10.0514345-13.557254 15" fill="#9b8936"/><path d="m223 71s-19.077601-10.4110096-22.89411-24.2479834c-3.815803-13.8369739 3.467692-23.7520166 3.467692-23.7520166z" fill="#9b8936"/><path d="m245 294c-.63539-1.2342-1-2.673979-1-4.208194v-10.791806l.00063 10.793259c0 1.534214.364609 2.973267.99937 4.206741" fill="#3b4d66"/></g></svg>