<svg height="321" viewBox="0 0 500 321" width="500" xmlns="http://www.w3.org/2000/svg" xmlns:xlink="http://www.w3.org/1999/xlink"><mask id="a" fill="#fff"><path d="m111.429639 49.9075898c2.713271-11.4865135 4.119783-23.2398652-2.029966-31.0629639-2.775616-3.5337363-7.720852-5.9951321-11.7683141-7.7457904-7.8954193-3.41153942-15.9678996-8.00015964-24.4194398-9.48647358-8.912896-1.56860985-18.8223206-2.53371638-27.7032958-.29177639-5.6407609 1.42396855-10.9184223 4.05993137-15.9621638 6.90537467-4.3768953 2.4663834-9.7465785 4.591114-11.8713092 9.1847219-5.1489805 11.1298978-9.71889712 22.7386082-13.50899767 34.3971949-3.17163434 9.7558056-6.65250179 19.9804485-1.65539462 29.8659325 1.6192343 3.2045527 3.97140093 5.9452558 5.8233082 9.0051672 2.06288409 3.4115394 2.83247549 6.6135983 3.10305439 10.5463453.6172193 8.972747.3770649 17.972927.3513786 26.958144-.0074814 2.591074.0266838 5.2819 1.1603723 7.611124 2.2357054 4.591114 8.3106396 4.653459 12.6867868 4.645978 14.4237291-.024938 28.8474583-.049876 43.2719356-.074814 6.0001197-.009976 10.5862461.7257 16.2197749 1.88283 4.740743.975082 8.8106496-1.418981 11.0850092-5.83054 2.1546564-4.177141 2.3192483-9.05255 2.5486793-13.74591.8977735-18.259716 3.4888477-36.4371362 7.7283337-54.2205334 1.199525-5.0350132 3.304305-11.6211795 4.940248-18.5440108" fill="#fff" fill-rule="evenodd"/></mask><g fill="none" fill-rule="evenodd" transform="translate(0 .148)"><path d="m316.559931 207.017098c-11.553846 4.089857-25.486792 3.670896-36.000718-3.072381-10.334371-6.628561-19.748524-11.416687-32.462243-11.184762-11.361075.209481-20.755776 6.349254-31.759487 7.656013-8.727107 1.037428-17.59287-2.768135-23.917933-8.870501-6.174188-5.955231-10.27452-15.037706-7.589678-23.185001 1.405764-4.266918 4.477645-7.785691 6.231047-11.920437 4.043223-9.538844-6.603124-15.292076-3.95569-25.332176 2.251666-8.538824 11.62118-14.628721 11.481526-23.459321-.102247-6.46397-5.106087-11.4722991-6.867968-17.4517201-1.777841-6.0327887-1.384815-12.7902801 1.750908-18.3018614 2.304036-4.0492079 6.005856-7.3644861 10.295467-9.1922033 3.852197-1.6414293 8.156023-1.6723526 11.134886-5.0390033 5.308585-5.9988728 7.256005-12.5007481 14.539941-16.8871199 6.166457-3.7132911 14.31026-3.9494554 21.385464-3.3010634 15.718518 1.4411759 30.97568 9.7385983 39.831218 22.9535751 3.13722 4.6836346 5.401604 9.4759996 5.481407 15.041946.084789 6.0849094.084789 12.2054804 3.813043 17.378651 3.129738 4.3434781 8.154776 6.8859229 13.134926 8.8435683 4.982643 1.960138 10.204692 3.546205 14.578844 6.633548 4.374152 3.089838 7.848037 8.124851 7.336805 13.456628-.426443 4.458942-3.513786 8.334331-3.925266 12.79826-.748144 8.112382 7.067473 14.005267 11.888018 20.576471 6.745771 9.197191 7.863 22.207425 2.785592 32.422093-5.845503 11.760833-16.469157 14.414253-27.596561 18.840775-.526195.206986-1.057377.406492-1.593548.596022" fill="#0b2d4e"/><path d="m232.558256 55.3227995c3.821023-2.2322142 8.261511-3.2554266 12.672821-3.4312406 4.42727-.16933 8.863768.400008 13.163105 1.4701042 8.62112 2.1703675 16.474145 7.3018913 21.950563 14.3596381 2.70579 3.549198 4.800595 7.586685 6.042515 11.8940028 1.249401 4.3202857 1.50377 8.8375828 1.4514 13.2578705-.042395 4.4292654-.359109 8.8350895-.211974 13.1917845.092271 2.164632.359109 4.324276 1.017476 6.341772.648392 2.010015 1.770609 3.865414 3.43149 5.077408 1.638437 1.244414 3.745711 1.768115 5.872936 2.024978 2.134705.251876 4.364176.264345 6.591153.563603 4.401585.591034 8.880477 1.638436 12.715965 4.164671 1.885324 1.259377 3.581119 3.012529 4.406572 5.229531.852884 2.214508.680811 4.633509.109727 6.843029-.663354 2.231965-1.930213 4.10482-2.810529 6.057478-.882811 1.952657-1.448907 4.057437-1.640931 6.197131-.406492 4.311807.698268 8.631095 2.231965 12.720952 1.50377 4.119783 3.31428 8.182208 4.369164 12.511471.51622 2.162138.830441 4.384128.795527 6.616093-.027432 2.22947-.433924 4.448966-1.159624 6.543771-1.448907 4.199585-4.179634 7.922851-7.713371 10.563802 3.471391-2.723247 6.089897-6.488908 7.421595-10.661061 1.394043-4.17714 1.207006-8.710897.057358-12.912976-1.104761-4.236992-2.942703-8.252035-4.5163-12.384287-1.598536-4.10482-2.820505-8.546305-2.453914-13.080061.172073-2.251915.738169-4.473905 1.643424-6.548759.920218-2.064879 2.149669-3.907809 2.730728-5.930293.511232-2.039941.645898-4.20956-.112222-6.139773-.728194-1.932707-2.236952-3.506305-3.997586-4.67341-3.576131-2.344187-7.942802-3.371639-12.224683-3.922772-2.149668-.279307-4.341732-.281801-6.58866-.533676-2.217002-.259357-4.566176-.800515-6.478932-2.239446-1.920238-1.4115-3.164652-3.536231-3.850451-5.703356-.700762-2.184582-.962613-4.443979-1.049896-6.680931-.129679-4.458942.20948-8.8640177.269332-13.2503895.069827-4.3771446-.164592-8.7685041-1.354142-12.9486373-1.199525-4.1694099-3.177121-8.1081418-5.765701-11.6057179-5.244494-6.9505127-12.880556-12.0907649-21.33459-14.3504109-4.222029-1.1556341-8.608651-1.8232284-12.999013-1.7566436-4.376895.0735676-8.809652.9825633-12.682297 3.1247507" fill="#73b8d4"/><path d="m288.172831 153.113279c.408986 9.970274-1.902781 17.459201-11.02017 22.389474-7.26199 3.927759-15.957924 5.217062-23.973046 5.414073-13.441166.331678-28.418024-3.134726-38.472838-12.57631-1.824724-1.713252-3.575882-3.815538-3.707804-6.314341-.120202-2.271866 1.130197-4.414053 1.240423-6.685919.18554-3.832994-2.794569-7.007621-4.126765-10.606196-1.759636-4.753213-.563603-10.060052 1.016978-14.875609 1.58058-4.815557 3.559173-9.678497 3.321762-14.740942-.307987-6.56871-4.2542-12.301991-7.413864-18.0669444-3.159415-5.7657011-5.646247-12.7798061-2.946443-18.7744394 1.779088-3.9504529 6.022315-6.9876706 10.357813-7.4684782 4.58039-.5084889 8.695934 4.7255307 11.630157 7.60888 3.947959 3.8798779 8.346551 7.3011432 13.079064 10.1727715 6.545018 3.9716503 13.7297 6.9011352 19.88693 11.4530965 3.72576 2.753172 7.720853 6.533796 9.498943 10.920417 2.005027 4.942742-1.503771 9.728374 2.738209 14.274599 2.738209 2.935221 6.942782 3.932747 10.252075 6.199625 7.084929 4.855459 8.31438 13.803268 8.638576 21.676243" fill="#061f33"/><path d="m213.942423 208.902422c9.437345-14.543931 15.31028-32.392167 7.109618-48.813941-.831189-1.663375-1.83071-3.478873-3.596082-4.064919-3.796335-1.264365-8.946064.094765-12.247376 2.029965-11.451102 6.720833-18.458224 19.361983-24.89127 30.611584-6.683674 11.686018-12.48778 23.850849-19.204373 35.519411-2.720254 4.72578-5.46769 9.5164-6.926822 14.768375-1.277831 4.603583-1.417983 9.873015.325693 14.376845 7.539552 19.469217 28.271137-4.379139 34.581238-11.583772 9.004669-10.282001 17.413315-21.379479 24.849374-32.843548" fill="#26a8d1"/><path d="m299.337643 192.632771c2.713271-11.486514 4.119783-23.239865-2.029966-31.062964-2.775617-3.533736-7.720852-5.995132-11.768315-7.745791-7.895419-3.411539-15.967899-8.000159-24.419439-9.486473-8.912896-1.56861-18.822321-2.533716-27.703296-.291777-5.640761 1.423969-10.918423 4.059932-15.962164 6.905375-4.376895 2.466384-9.746579 4.591114-11.871309 9.184722-5.148981 11.129898-9.718897 22.738608-13.508998 34.397195-3.171634 9.755806-6.652502 19.980449-1.655395 29.865933 1.619235 3.204552 3.971401 5.945255 5.823309 9.005167 2.062884 3.411539 2.832475 6.613598 3.103054 10.546345.617219 8.972747.377065 17.972927.351379 26.958144-.007482 2.591074.026683 5.2819 1.160372 7.611124 2.235705 4.591114 8.31064 4.653459 12.686787 4.645978 14.423729-.024938 28.847458-.049876 43.271935-.074815 6.00012-.009975 10.586246.725701 16.219775 1.882831 4.740743.975082 8.81065-1.418981 11.085009-5.83054 2.154657-4.174647 2.319249-9.05255 2.54868-13.74591.897773-18.259716 3.488847-36.437136 7.728333-54.220533 1.199526-5.035014 3.304306-11.62118 4.940249-18.544011" fill="#3dc8e8"/><g fill="#26a8d1" transform="translate(187.908003 142.725181)"><path d="m78.0224889 16.492958c3.3965765-5.7108371 4.1671654-12.84813658-.2818011-18.35198703-2.0324595-2.51625968-5.6285412-2.79806081-8.7059094-2.85541856-6.0524898-.11222169-12.12094.53118266-18.0168183 1.91026255-5.6190647 1.31424068-11.3493536 3.54121778-13.7833173 9.21464767-1.8082655 4.21704177-1.1768315 9.09245077 1.2055103 12.94788927 2.1638836 3.5038105 5.753232 6.0973785 9.7587982 7.0500159 6.4674607 1.5386841 14.0376865 1.3316974 20.2073857-1.2593767 3.8654137-1.62098 7.3343109-4.8155574 9.6161519-8.6560331" mask="url(#a)"/><path d="m116.539467 102.569488c-.044889-8.8056617-.089778-17.6138175-.134666-26.4219733-.014963-3.0673928 1.975102-21.7311068-2.795567-21.5191325-.513726.0224443-.985057.2867888-1.404018.5885404-2.371619 1.6957944-3.593588 4.5387439-4.700842 7.2370521-3.476379 8.4615155-6.396636 22.0054266-13.6336886 27.928238-7.3542614 6.022564-18.6662078 8.5587742-27.806041 10.0051873-10.6765223 1.688313-21.5268634 1.813004-32.3146098 2.468877-6.9779447.423949-14.676602 1.428956-19.260484 6.708363-3.273382 3.768155-4.93974942 9.419141-6.68816335 14.022724-1.52771128 4.025018-2.74444378 8.805662.35611683 12.45162 1.32271966 1.553647 3.15866652 2.576111 5.00558612 3.446453 6.7320545 3.174627 14.0910542 4.773162 21.431849 6.002613 20.5440508 3.438972 41.4848676 4.152203 62.2907689 3.159664 4.4464729-.211974 9.2720059-.653379 12.5538669-3.665908 2.441445-2.239446 3.591094-5.538764 4.409065-8.748305 2.788086-10.940367 2.748185-22.374511 2.690827-33.664013" mask="url(#a)"/></g><path d="m206.073937 94.8727157c-7.870482 8.0974183-.731436 27.8833493 11.819936 25.0204493 13.486803-3.077368 11.458084-24.0947451-.73767-27.545188-4.755956-1.3456627-8.549049-.0817971-11.082266 2.5247387" fill="#cbfff2"/><path d="m313.44765 206.184163c2.1372.271826 4.306819.421455 6.476438.421455 5.907849 0 11.818191-1.107254 17.060191-3.847957 4.566176-2.389075 8.007641-5.788145 10.319408-9.845583s3.498823-8.768255 3.593588-13.793293c.004987-.31422.007481-.628441.007481-.942662 0-3.476378-.364097-7.010115-1.259377-10.376765-.892785-3.364157-2.316754-6.563722-4.434003-9.361783-2.406532-3.177121-5.583653-5.703356-8.496429-8.32685-1.456388-1.311746-2.845443-2.645938-4.047462-4.089857-1.199526-1.443919-2.212015-2.995072-2.920258-4.743237-.685799-1.6933-1.054884-3.626007-1.054884-5.561208 0-1.613498.256863-3.224503.790539-4.695854.536171-1.473845 1.346661-2.805542 2.456409-3.877883 1.127204-1.089797 2.154656-2.254409 2.907788-3.566156s1.226957-2.775616 1.226957-4.419041c0-.256863-.012469-.518713-.034913-.783058-.236912-2.650925-1.316735-5.219555-2.860406-7.476458-1.546166-2.256903-3.556181-4.204573-5.690887-5.616072-6.2096-4.102326-13.865613-5.5761712-21.020369-6.4879101-2.391569-.3024998-4.745731-.7920357-6.646018-1.8110087-.952638-.5092371-1.79056-1.1471551-2.481346-1.9611364-.690787-.8144801-1.236933-1.8062704-1.593548-3.0442004-.389036-1.3496528-.54864-2.7531721-.625948-4.1863678-.079802-1.4329463-.077308-2.8935739-.152123-4.3539522-.321702-6.1574794-.773083-12.3251835-1.695794-18.4440088-.543652-3.5938373-1.975102-7.1061268-3.910303-10.331877-1.9352-3.2257501-4.374152-6.1662078-6.947769-8.6156332-.740663-.7040041-1.508759-1.3783317-2.304286-2.0212373-3.980129-3.2237551-8.952797-5.8120861-14.361882-7.5986554-5.409086-1.7863199-11.257083-2.7703794-16.986374-2.7703794-7.694917 0-15.188333 1.7738508-21.1089 5.8021107-5.038754 3.4294949-8.573238 8.6817194-9.69745 14.6913156-.180054.9633608-.378811 1.7222289-.622955 2.3247346-.183296.4526275-.390282.8169739-.635923 1.1282021-.368586.4650966-.829194.8227097-1.47983 1.1573797-.64914.3336725-1.485067.6349254-2.552919.9661041-3.465156 1.0758319-7.192662 2.0015361-10.76605 3.3060509-3.572141 1.305263-6.997147 2.9923291-9.833862 5.6118327-3.954942 3.6549358-6.00012 8.9520489-6.000868 14.2546485 0 .6748264.033168 1.3496528.100002 2.0217361.188782 1.9070206.666347 3.5746349 1.333194 5.0848894 1.000768 2.2666288 2.419998 4.1763926 3.920028 6.0604701 1.501526 1.8843268 3.085847 3.7454612 4.453705 5.9125872 1.160621 1.837941 1.655644 3.818031 1.656641 5.840515.000499 2.144681-.562355 4.334251-1.496788 6.401624-.933933 2.067373-2.238448 4.012549-3.702567 5.658467-1.656392 1.865374-3.694588 3.506304-5.580411 5.289382-1.883329 1.780585-3.622765 3.710798-4.624032 6.179675-.625449 1.543671-.89553 3.167145-.89553 4.795607 0 3.169639 1.015233 6.36671 2.445935 9.182228.876576 1.720732 1.884825 3.331737 2.626237 5.030025 1.030195 2.354162 1.543173 4.930273 1.542923 7.506384.00025 3.0649-.7257 6.129799-2.158397 8.830601l.881314.468837c1.513248-2.855419 2.27436-6.077428 2.274609-9.299438 0-2.708283-.538165-5.416566-1.626466-7.905394-.782809-1.788066-1.803278-3.414033-2.651175-5.082396-1.380327-2.713271-2.338949-5.77817-2.337453-8.730847 0-1.521228.251127-3.010035.82246-4.419041.913734-2.259397 2.536958-4.087363 4.384876-5.833034 1.845423-1.745671 3.907309-3.401564 5.640761-5.349234 1.526713-1.718239 2.884845-3.740723 3.865912-5.910342.980568-2.172114 1.58482-4.493856 1.585318-6.813104.000998-2.184582-.542654-4.369164-1.810759-6.374192-1.889564-2.9888376-4.126267-5.3564659-5.950742-7.8702317-.913485-1.2566336-1.725471-2.5481806-2.353663-3.9718997-.628192-1.4239686-1.074585-2.9803587-1.253392-4.780644-.063342-.6391649-.095014-1.281073-.095014-1.9232304-.000748-5.0497267 1.954154-10.0827448 5.679914-13.5217162 2.696812-2.4913215 5.992638-4.127015 9.499691-5.4075891 3.506055-1.281073 7.216353-2.204034 10.719166-3.2905894.968598-.3007541 1.773851-.5823059 2.460648-.9070006.514973-.2436458.964109-.5132272 1.355638-.8349294.588291-.4818051 1.035432-1.0833134 1.372346-1.8327049.338411-.750389.577069-1.6469156.788046-2.7711276 1.073588-5.739516 4.451211-10.7640551 9.27824-14.0499062 5.704104-3.8846162 13.003003-5.6300375 20.547542-5.6292894 5.61707-.0002494 11.36282.9663535 16.674647 2.7200044 5.309333 1.7529028 10.179754 4.2936019 14.047662 7.4265821.773082.6264464 1.521227 1.2833173 2.24194 1.9688672 2.513766 2.3910701 4.897853 5.2681849 6.780684 8.4061527 1.88283 3.1379679 3.26191 6.5360406 3.77813 9.9672812.91523 6.0686996 1.366611 12.2039841 1.685819 18.3474982.074814 1.4242179.072321 2.8860925.154617 4.3566954.079802 1.4701041.244393 2.9501835.660861 4.4070704.391529 1.3631195 1.007501 2.4918203 1.793053 3.4140332 1.174587 1.3853145 2.713271 2.2990484 4.39909 2.9217541 1.688313.6229551 3.533736.9621139 5.364197 1.1940388 7.109867.9002669 14.616252 2.3741119 20.596421 6.3293029 2.022484 1.336685 3.950203 3.204553 5.416567 5.349234 1.468857 2.144681 2.473865 4.563682 2.688333 7.00014.022444.236912.032419.468837.032419.695774-.002494 1.448907-.411479 2.728234-1.094785 3.922772-.683305 1.192044-1.645918 2.29431-2.733221 3.344206-1.234439 1.192044-2.122237 2.660901-2.703296 4.254449-.578565 1.596042-.850391 3.319269-.850391 5.037507 0 2.059892.391529 4.114796 1.129698 5.935281.755626 1.865374 1.827967 3.506304 3.077368 5.007581 1.875349 2.251915 4.144721 4.199585 6.371699 6.162218 2.22947 1.960139 4.416546 3.937734 6.142267 6.219575 2.024978 2.675864 3.39907 5.750738 4.266918 9.015143.865354 3.264404 1.224463 6.71335 1.224463 10.119902 0 .309233-.002494.615973-.007481.925206-.092272 4.877903-1.24192 9.421634-3.46391 13.316974-2.219496 3.895339-5.508838 7.149768-9.912916 9.454054-5.064939 2.650925-10.813183 3.735735-16.598835 3.735735-2.122237 0-4.251955-.147135-6.351747-.413973z" fill="#0b2d4e"/><path d="m335.872037 217.161938c2.41152 4.351708 4.81057 8.710897 7.164732 13.097519 4.77815 8.90292 13.648651 28.686357-.553627 33.571742-7.15725 2.463889-11.249601.054864-15.980369-5.15721-17.895619-19.723586-33.155275-41.833753-45.247785-65.554924-4.501337-8.8306-16.4517-31.838541-1.935201-37.095503 4.581139-1.660881 9.865533-1.27434 14.159883 1.034933 1.962633 1.057378 3.703316 2.478852 5.366691 3.962673 10.474024 9.341832 17.93552 21.394441 24.571563 33.621618 4.099832 7.553767 8.299417 15.027731 12.454113 22.519152" fill="#3dc8e8"/><path d="m253.630995 162.130915c4.321782-1.386561 7.88295-4.074894 9.217142-8.344306 1.2095-3.877883-.698269-8.237072-1.037428-12.147374-.326689-3.748205-.369084-7.518854-.122197-11.272046.226938-3.471391.558615-7.084929.024939-10.543851-.301752-1.977595-1.389056-1.638437-3.389095-2.423988-1.997546-.785552-4.24198-.793034-6.414093-.788046-4.449965.012469-16.047952-.311727-18.797383 3.593588-1.262369 1.790559-1.361623 4.047462-1.421724 6.179674-.072321 2.578605-.528689 5.912836-.950642 9.508918-.187785 1.598536-.072072 3.194578-.316964 4.783138-.274569 1.77809-.950144 3.48386-1.542176 5.18963-2.23795 6.446512-.142397 12.57631 6.828815 15.528988 5.001845 2.117249 12.142885 2.58858 17.920806.735675" fill="#f8a17a"/><path d="m261.691006 119.823338c-.301751-1.977595-1.389055-1.638437-3.389095-2.423988-1.997546-.785552-4.24198-.793034-6.414093-.788046-4.449964.012469-16.047951-.311727-18.797382 3.593588-1.26237 1.790559-1.361623 4.047462-1.421724 6.179674-.072321 2.576112-.52844 5.912836-.950643 9.508918-.188033 1.598536-.071822 3.194578-.316964 4.783138-.208981 1.354142-.650636 2.665889-1.110496 3.96766 4.312555 1.60103 9.183725 1.960139 13.682817.850391 8.106396-1.995052 14.243676-7.04004 18.620322-13.598775.024938-.508738.037407-1.01997.07232-1.528709.226937-3.471391.558615-7.084929.024938-10.543851" fill="#e5785c"/><path d="m268.149988 94.4233301c-.034913-5.9410162-.855379-11.5765401-2.384087-16.256434-6.593648-20.1911759-31.782181-25.1793053-46.949815-10.6857493-16.914053 16.1629159-10.441355 54.8085742 7.374461 68.3824112 4.763437 3.630996 11.236883 4.905335 17.022036 3.354182 17.503342-4.69336 25.049627-26.234937 24.937405-44.7944099" fill="#f8a17a"/><path d="m264.840695 94.9223426c7.748284-4.2369923 10.134866 6.4916504 8.800674 11.8309094-.551133 2.204533-1.421474 4.356695-2.790579 6.169699-1.842929 2.443939-7.114855 6.498883-10.152322 3.825513-1.37908-1.214488-1.521228-3.27438-1.563622-5.109828-.114716-4.922791.453874-13.8441663 5.705849-16.7162934" fill="#f8a17a"/><path d="m239.599793 130.264943c-1.89954 0-3.812545-.139654-5.727297-.421455l.342401-2.324236c6.955002 1.024958 13.890551.054864 20.057009-2.803048 1.675844-.775577 3.094825-1.591054 4.341732-2.493816 2.264385-1.64093 4.20956-3.783117 5.62106-6.197131l2.027472 1.187056c-1.576091 2.693321-3.743217 5.082396-6.271946 6.912857-1.369104.992538-2.91527 1.88283-4.730767 2.723246-4.880397 2.26189-10.210678 3.416527-15.659664 3.416527" fill="#cbfff2"/><path d="m227.079593 125.666347c2.833223-2.431469 9.135095-2.224483 11.212692.301752 1.539931 1.870362 1.069598 4.244474-.625449 5.828047-2.005775 1.870361-4.486374 1.763127-6.98792 1.197031-3.132232-.70575-7.014354-4.396597-3.599323-7.32683" fill="#cbfff2"/><path d="m268.189889 78.9988329c-6.942782-21.2580301-33.462014-26.5097558-49.430662-11.2503491-3.527751 3.3711395-6.074435 7.6797043-7.768484 12.5192023.356117.5508838.754379 1.1030146 1.231695 1.6558934 2.190568 2.5377065 5.215067 4.1955949 8.25802 5.6026056 8.889704 4.1093089 18.470943 6.5210777 28.09682 8.3246049.709241.1329204 1.422722.2640951 2.135953.4044969 2.648432.5227037 5.279407 1.1758339 7.593668 2.5397015 6.541278 3.8559376 3.728254 12.3374036 8.521367 16.0531886.433924.336665.870341.553627 1.309253.708243 1.770609-6.331797 2.601049-13.052629 2.561148-19.4422831-.037407-6.2549876-.900267-12.1880237-2.508778-17.115304" fill="#e5785c"/><path d="m251.39903 93.8275577c2.531223.9386721 5.025038 2.0032818 7.092411 3.7182786 5.84301 4.8507207 1.710758 12.7735717 5.850491 17.2075757 3.665909 3.927759 9.234598-1.261871 10.69348-4.890372 2.688333-6.683425 2.528729-14.122726 2.331718-21.3238671-.109728-4.0157909-.229431-8.0891889-1.406512-11.9299139-1.284315-4.1901085-3.788106-7.9288364-6.765721-11.143115-8.601169-9.2802351-21.579733-14.1045208-34.146068-13.3129838-9.826879.6189649-27.065877 8.876985-19.361733 21.3877084 1.75789 2.8544211 4.479142 4.9736654 7.258998 6.8477676 8.120361 5.4746728 17.194108 9.383479 26.409504 12.6992558.679315.2441445 1.362621.4875409 2.043432.7396657" fill="#0b2d4e"/><path d="m268.095124 91.870162c-10.937874 2.8050435-15.164891 23.411938-2.962653 27.514265 13.112482 4.406571 22.342092-14.583832 13.735935-23.889255-3.356675-3.6285013-7.252015-4.5280205-10.773282-3.62501" fill="#cbfff2"/><path d="m271.681231 94.5148532c-7.551273 1.2132411-12.202239 17.2534618-4.421535 21.6700088 8.361763 4.743236 16.2098-9.541338 11.289502-17.7694323-1.917744-3.2090415-4.436497-4.291108-6.867967-3.9005765" fill="#79d4be"/><path d="m273.204952 93.3118366-2.917764-.3374132c1.980089-17.1018374 1.13718-38.9528968-14.117489-45.9323378-7.223835-3.3050534-27.911779-6.9719595-37.015701 5.3145699-1.095284 1.2297003-1.828465 2.260893-1.828465 2.260893 5.646247-17.4227915 32.267975-13.8134926 40.066136-10.2460897 16.858191 7.7133708 17.905594 30.8714388 15.813283 48.9403778" fill="#cbfff2"/><path d="m158.476977 266.502075h59.981247v-11.740883h-59.981247z" fill="#79d4be"/><path d="m168.769701 255.898372-15.137459-77.063882c-.400008-2.037447-2.184832-3.50381-4.258938-3.50381h-100.6324314c-1.4571363 0-2.7052908.718219-3.4878501 1.788066l-.0132172-.01247-4.6469755 5.493876 4.1225261-.905255 14.904038 75.876825c.400008 2.037447 2.1845822 3.503811 4.2591872 3.503811h100.6324319c2.732723 0 4.785631-2.493816 4.258688-5.177161" fill="#79d4be"/><path d="m59.2774918 266.502075h100.6324312c2.732723 0 4.785632-2.493815 4.258689-5.174667l-15.137709-77.066375c-.399758-2.037447-2.184332-3.503811-4.258937-3.503811h-100.632432c-2.7327229 0-4.7856317 2.493815-4.2589379 5.177161l15.1377085 77.063881c.400008 2.037447 2.1843329 3.503811 4.2591872 3.503811" fill="#cbfff2"/><path d="m90.9309911 221.720633c.9284475 5.199605 5.8951301 9.411659 11.0934879 9.411659 5.198608 0 8.600172-4.212054 7.597409-9.411659-1.002265-5.199605-5.969197-9.411659-11.0934884-9.411659-5.1242918 0-8.5256065 4.212054-7.5974085 9.411659" fill="#79d4be"/><path d="m315.352925 74.4004868h102.076849c5.623554 0 10.224643-4.6010893 10.224643-10.2246429v-53.951201c0-5.6235536-4.601089-10.2246429-10.224643-10.2246429h-102.076849c-5.623554 0-10.224643 4.6010893-10.224643 10.2246429v53.951201c0 5.6235536 4.601089 10.2246429 10.224643 10.2246429" fill="#04b7a7"/><path d="m321.255786 93.9849174v-34.1902083l26.776095 14.6057777z" fill="#04b7a7"/><g fill="#fff"><path d="m382.199645 40.5506843h-56.163215c-1.234439 0-2.244434-1.0099952-2.244434-2.2444338v-2.0025337c0-1.2344386 1.009995-2.2444338 2.244434-2.2444338h56.163215c1.234438 0 2.244434 1.0099952 2.244434 2.2444338v2.0025337c0 1.2344386-1.009996 2.2444338-2.244434 2.2444338"/><path d="m406.746269 40.5506843h-15.391828c-1.234439 0-2.244434-1.0099952-2.244434-2.2444338v-2.0025337c0-1.2344386 1.009995-2.2444338 2.244434-2.2444338h15.391828c1.234439 0 2.244434 1.0099952 2.244434 2.2444338v2.0025337c0 1.2344386-1.009995 2.2444338-2.244434 2.2444338"/><path d="m350.58056 19.3185899h56.165709c1.234439 0 2.244434 1.0099952 2.244434 2.2444338v2.0025337c0 1.2341892-1.009995 2.2444338-2.244434 2.2444338h-56.165709c-1.234438 0-2.244434-1.0102446-2.244434-2.2444338v-2.0025337c0-1.2344386 1.009996-2.2444338 2.244434-2.2444338"/><path d="m326.03643 19.3185899h15.389334c1.234439 0 2.244434 1.0099952 2.244434 2.2444338v2.0025337c0 1.2341892-1.009995 2.2444338-2.244434 2.2444338h-15.389334c-1.234439 0-2.244434-1.0102446-2.244434-2.2444338v-2.0025337c0-1.2344386 1.009995-2.2444338 2.244434-2.2444338"/><path d="m364.146916 54.027013h-38.110486c-1.234439 0-2.244434-1.0099952-2.244434-2.2444338v-2.0025337c0-1.2344386 1.009995-2.2444338 2.244434-2.2444338h38.110486c1.234438 0 2.244433 1.0099952 2.244433 2.2444338v2.0025337c0 1.2344386-1.009995 2.2444338-2.244433 2.2444338"/></g><path d="m266.007801 248.247347c1.221969-.209481 2.443939-.41148 3.670896-.603504 5.960218-.93518 11.893005-2.044928 17.795866-3.326749 11.688513-2.541198 23.446852-4.72578 35.344845-5.852985 1.26187-.117209 2.523741-.226937 3.785612-.321702 5.334271-.401504 10.925405-.533677 15.808295 2.017496 4.88289 2.54868 8.765761 8.583713 7.573717 14.401784-.837922 4.087363-3.962672 7.162238-7.436557 8.713391-3.471391 1.551153-7.29441 1.820485-11.045108 2.07236-12.149869.817972-24.297243 1.635943-36.447111 2.453915-6.015083.401504-12.027672.817971-18.042754 1.234438-5.743257.401505-11.573797 1.211994-17.332017 1.204564-2.436458 0-5.15721-.458913-7.204633-2.082387-2.845443-2.26189-4.557946-7.07246-4.833512-10.83064-.142896-1.952657.238159-4.321782 1.733201-5.531282.801014-.645898 1.81849-.84291 2.79856-1.024958 4.616052-.850391 9.20966-1.735696 13.8307-2.523741" fill="#3dc8e8"/><path d="m252.3791 266.758938c-2.937715.605997-5.234519 3.187096-8.158517 4.049956-2.086575.615972-4.319787.286789-6.324815-.46385-1.843428-.69328-3.718278-1.062365-5.610585-1.668362-1.475092-.471331-3.466404-1.466364-5.050974-1.13718-4.152701.865354-8.29418 3.820525-12.058345 5.738269-.846401.43143-1.773602.875329-2.707037.698268-.933435-.17706-1.711505-1.306759-1.180572-2.094804-1.083064 1.009995-2.516758 3.034973-4.263925 2.249421-.714478-.321702-1.14541-1.266858-.749392-1.942682-.600511.658367-1.231196 1.339179-2.060141 1.665868-.828944.32669-1.916497.184543-2.404786-.561108-.230179-.349134-.299008-.783058-.319956-1.202019-.071573-1.441425.363598-2.865394.964607-4.177141 2.964897-6.468957 9.669271-11.269551 15.374123-15.12499 1.008748-.680811 2.037447-1.371598 3.201809-1.728214 1.042415-.319208 2.147923-.354121 3.23797-.359109 7.074455-.03242 14.15315 1.112242 20.857523 3.371638 1.450653.488788 3.047692.072321 4.494853-.199505 1.069847-.199505 2.18957-.39901 3.234479-.092271 1.169599.341653 2.077348 1.266858 2.790579 2.256903 1.309253 1.817991 2.311767 4.227017 2.154656 6.511352-.117209 1.733201-.249381 3.606057-2.289322 3.970154-.827947.147135-1.680832.054863-2.51626.142147-.20948.022444-.413973.054864-.615972.097259" fill="#f8a17a"/><path d="m467.5405 280.749242h-431.4587328c-4.3953495 0-7.9585129-3.396577-7.9585129-7.586186 0-4.18961 3.5631634-7.586187 7.9585129-7.586187h431.4587328c4.394102 0 7.957764 3.396577 7.957764 7.586187 0 4.189609-3.563662 7.586186-7.957764 7.586186" fill="#63bda7"/><path d="m0 41h500v-41h-500z" fill="#fff" transform="translate(0 279.852)"/></g></svg>