<svg height="18" viewBox="0 0 18 18" width="18" xmlns="http://www.w3.org/2000/svg"><path d="m41.6258 22.7876c-.0544-.0894-.1988-.1436-.4152-.251-.2168001-.1072-1.282-.6276-1.48-.6988-.1986-.0716-.3433999-.1076-.4876.1072-.1442.2152-.5594.699-.686.8426-.1264.1438-.2524.1618-.4692.0542-.2164-.1076-.9144-.3346-1.7418-1.0666-.6438-.5696-1.0786-1.2728-1.205-1.4882-.1262-.2152-.0132-.3314.095-.4382.0976-.0964.2168-.2512.325-.3766.1086-.1256.1446-.2148.2164-.3586.0726-.1432.0364-.2686-.018-.3764-.054-.1076-.4876-1.1652-.668-1.5954-.1804-.43-.3606-.3584-.4872-.3584-.1262 0-.2708-.018-.4152-.018s-.3792.0538-.5778.2686c-.1984.2154-.7578.7354-.7578 1.7926 0 1.0576.7758 2.0794.8844 2.2228.1082.143 1.498 2.384 3.7002 3.2444 2.202.8604 2.202.5732 2.5992.5374.3968-.036 1.2812-.52 1.4624-1.0216.1802-.5022.1802-.9326.1262-1.022m-4.4622-9.3914c-4.0968 0-7.4292 3.3072-7.4292 7.3718 0 1.6132.5258 3.1070001 1.4152 4.3222l-.9282 2.7376001 2.855-.9074001c1.173.7704 2.5782 1.2196 4.0874 1.2196 4.0962 0 7.4292-3.3066 7.4292-7.3716 0-4.0646-3.3328-7.3722-7.4294-7.3722m8.8364 7.3718c0 4.8426-3.9558 8.7682-8.8364 8.7682-1.5494 0-3.005-.3958-4.2714-1.0909999l-4.8922 1.5547999 1.595-4.7046c-.8046-1.321-1.268-2.8706-1.268-4.5274 0-4.8426 3.9562-8.768 8.8366-8.768 4.881 0 8.8364 3.9254 8.8364 8.768" fill="#fff" transform="translate(-28 -12)"/></svg>