<svg height="433" viewBox="0 0 757 433" width="757" xmlns="http://www.w3.org/2000/svg" xmlns:xlink="http://www.w3.org/1999/xlink"><linearGradient id="a"><stop offset="0" stop-color="#fbfbfb"/><stop offset="1" stop-color="#f9e8f4"/></linearGradient><linearGradient id="b" x1="6.683809%" x2="93.3165%" xlink:href="#a" y1="49.999533%" y2="49.999533%"/><linearGradient id="c" x1="6.683526%" x2="93.316315%" xlink:href="#a" y1="49.999789%" y2="49.999789%"/><linearGradient id="d" x1="6.683587%" x2="93.316348%" xlink:href="#a" y1="50.000226%" y2="50.000226%"/><mask id="e" fill="#fff"><path d="m0 0h294.233784v170.111565h-294.233784z" fill="#fff" fill-rule="evenodd"/></mask><mask id="f" fill="#fff"><path d="m8.53131604 0-8.53131604 30.3886813h55.28229l8.5313161-30.3886813z" fill="#fff" fill-rule="evenodd"/></mask><mask id="g" fill="#fff"><path d="m10.7432987 0-10.7432987 38.2681634h69.6173196l10.7432987-38.2681634z" fill="#fff" fill-rule="evenodd"/></mask><mask id="h" fill="#fff"><path d="m13.6330291 0-13.6330291 48.5609592h88.3410982l13.6330288-48.5609592z" fill="#fff" fill-rule="evenodd"/></mask><g fill="none" fill-rule="evenodd"><g transform="translate(.391704)"><path d="m311.64656 432.468187h-225.459105c-3.0302634 0-4.8189859-2.360821-3.994725-5.272811l41.17816-145.505799c.823928-2.91199 3.948877-5.272811 6.979473-5.272811h225.458772c3.030596 0 4.818986 2.360821 3.995057 5.272811l-41.178159 145.505799c-.824261 2.91199-3.948878 5.272811-6.979473 5.272811" fill="#fff"/><path d="m351.408559 285.837958c-.255485.903332-1.224597 1.635233-2.164474 1.635233s-1.4947-.731901-1.238883-1.635233c.255484-.902999 1.224597-1.635233 2.164474-1.635233.939876 0 1.494367.732234 1.238883 1.635233" fill="#c9def5"/><path d="m346.06588 285.837958c-.255485.903332-1.224597 1.635233-2.164474 1.635233s-1.4947-.731901-1.239215-1.635233c.255816-.902999 1.224929-1.635233 2.164806-1.635233.939876 0 1.494367.732234 1.238883 1.635233" fill="#c9def5"/><path d="m340.723201 285.837958c-.255484.903332-1.224597 1.635233-2.164474 1.635233s-1.4947-.731901-1.239215-1.635233c.255816-.902999 1.224929-1.635233 2.164806-1.635233.939544 0 1.494367.732234 1.238883 1.635233" fill="#c9def5"/><path d="m354.651914 299.967703h-236.484466l.411964-1.455496h236.484466z" fill="#25385e"/><path d="m117.549668 302.221314h236.443934l-35.36747 124.974029c-.824261 2.91199-3.949209 5.272811-6.979473 5.272811h-225.4697357c-3.0305956 0-4.8189859-2.360821-3.9950572-5.272811z" fill="#e1eaf5"/><path d="m167.294858 313.029364h-33.795028l-9.190459 32.475082h33.795028z" fill="#fff"/><path d="m208.822856 313.029364h-33.795029l-9.190459 32.475082h33.795029z" fill="#25385e"/><path d="m250.350886 313.029364h-33.795028l-9.190459 32.475082h33.795028z" fill="#fff"/><path d="m291.878917 313.029364h-33.795029l-9.190459 32.475082h33.795029z" fill="#fff"/><path d="m145.611216 320.254421h-8.334304c-1.039214 0-1.652509-.809643-1.370114-1.808324l.002326-.007309c.282727-.998681 1.354166-1.808324 2.393379-1.808324h8.334305c1.039213 0 1.652508.809643 1.369781 1.808324l-.001993.007309c-.282728.998681-1.354167 1.808324-2.39338 1.808324" fill="#44b8fa"/><path d="m186.443558 319.508998h-8.334304c-1.039213 0-1.652508-.809642-1.370114-1.808324l.002326-.007309c.282395-.998681 1.354167-1.808324 2.39338-1.808324h8.334304c1.039213 0 1.652508.809643 1.369781 1.808324l-.001993.007309c-.282727.998682-1.354167 1.808324-2.39338 1.808324" fill="#44b8fa"/><path d="m228.646512 319.508998h-8.334304c-1.039213 0-1.652508-.809642-1.370113-1.808324l.002325-.007309c.282395-.998681 1.354167-1.808324 2.39338-1.808324h8.334304c1.039213 0 1.652509.809643 1.369782 1.808324l-.001994.007309c-.282727.998682-1.354166 1.808324-2.39338 1.808324" fill="#44b8fa"/><path d="m269.351146 319.508998h-8.334304c-1.039213 0-1.652509-.809642-1.370114-1.808324l.002326-.007309c.282395-.998681 1.354166-1.808324 2.39338-1.808324h8.334304c1.039213 0 1.652508.809643 1.369781 1.808324l-.001993.007309c-.282727.998682-1.354167 1.808324-2.39338 1.808324" fill="#44b8fa"/><path d="m333.406914 313.029364h-33.795028l-9.190459 32.475082h33.795028z" fill="#fff"/><path d="m310.87911 319.508998h-8.334304c-1.039213 0-1.652509-.809642-1.369782-1.808324l.001994-.007309c.282727-.998681 1.354166-1.808324 2.39338-1.808324h8.334304c1.039213 0 1.652508.809643 1.369781 1.808324l-.001993.007309c-.282727.998682-1.354167 1.808324-2.39338 1.808324" fill="#44b8fa"/><path d="m156.698405 350.472503h-33.795028l-9.190459 32.475081h33.795028z" fill="#44b8fa"/><path d="m198.226435 350.472503h-33.795028l-9.190459 32.475081h33.795028z" fill="#fff"/><path d="m239.754466 350.472503h-33.795028l-9.190459 32.475081h33.795028z" fill="#fff"/><path d="m281.282496 350.472503h-33.795028l-9.190459 32.475081h33.795028z" fill="#fbb766"/><path d="m135.014796 357.69756h-8.334304c-1.039214 0-1.652509-.809643-1.370114-1.808324l.002326-.007309c.282394-.998682 1.354166-1.808325 2.393379-1.808325h8.334304c1.039214 0 1.652509.809643 1.369782 1.808325l-.001994.007309c-.282727.998681-1.354166 1.808324-2.393379 1.808324" fill="#fff"/><path d="m175.847138 356.95217h-8.334304c-1.039213 0-1.652509-.809643-1.370114-1.807992l.002326-.007641c.282395-.998681 1.354167-1.808324 2.39338-1.808324h8.334304c1.039213 0 1.652508.809643 1.369781 1.808324l-.001993.007641c-.282727.998349-1.354167 1.807992-2.39338 1.807992" fill="#44b8fa"/><path d="m218.050092 356.95217h-8.334304c-1.039213 0-1.652508-.809643-1.369781-1.807992l.001993-.007641c.282727-.998681 1.354167-1.808324 2.39338-1.808324h8.334304c1.039213 0 1.652509.809643 1.369781 1.808324l-.001993.007641c-.282727.998349-1.354166 1.807992-2.39338 1.807992" fill="#44b8fa"/><path d="m258.754726 356.95217h-8.334304c-1.039214 0-1.652509-.809643-1.370114-1.807992l.002326-.007641c.282395-.998681 1.354166-1.808324 2.393379-1.808324h8.334305c1.039213 0 1.652508.809643 1.369781 1.808324l-.001993.007641c-.282728.998349-1.354167 1.807992-2.39338 1.807992" fill="#fff"/><path d="m322.810494 350.472503h-33.795029l-9.190458 32.475081h33.795028z" fill="#fff"/><path d="m300.282723 356.95217h-8.334304c-1.039213 0-1.652509-.809643-1.369781-1.807992l.001993-.007641c.282727-.998681 1.354167-1.808324 2.39338-1.808324h8.334304c1.039213 0 1.652508.809643 1.369781 1.808324l-.001993.007641c-.282727.998349-1.354167 1.807992-2.39338 1.807992" fill="#44b8fa"/><path d="m146.101985 387.915674h-33.795028l-9.190459 32.475082h33.795028z" fill="#fff"/><path d="m187.630015 387.915674h-33.795028l-9.190459 32.475082h33.795028z" fill="#6983b5"/><path d="m229.158046 387.915674h-33.795028l-9.190459 32.475082h33.795028z" fill="#fff"/><path d="m270.686076 387.915674h-33.795028l-9.190459 32.475082h33.795028z" fill="#fff"/><path d="m124.418376 395.140698h-8.334305c-1.039213 0-1.652508-.809643-1.370113-1.808324l.002325-.007309c.282395-.998681 1.354167-1.808324 2.39338-1.808324h8.334304c1.039214 0 1.652509.809643 1.369782 1.808324l-.001994.007309c-.282727.998681-1.354166 1.808324-2.393379 1.808324" fill="#44b8fa"/><path d="m165.250718 394.395308h-8.334304c-1.039213 0-1.652509-.809642-1.370114-1.808324l.002326-.007309c.282395-.998681 1.354166-1.808324 2.39338-1.808324h8.334304c1.039213 0 1.652508.809643 1.369781 1.808324l-.001993.007309c-.282727.998682-1.354167 1.808324-2.39338 1.808324" fill="#fff"/><path d="m207.453672 394.395308h-8.334304c-1.039213 0-1.652508-.809642-1.370113-1.808324l.002325-.007309c.282395-.998681 1.354167-1.808324 2.39338-1.808324h8.334304c1.039213 0 1.652509.809643 1.369781 1.808324l-.001993.007309c-.282727.998682-1.354167 1.808324-2.39338 1.808324" fill="#44b8fa"/><path d="m248.158306 394.395308h-8.334304c-1.039214 0-1.652509-.809642-1.370114-1.808324l.002326-.007309c.282727-.998681 1.354166-1.808324 2.393379-1.808324h8.334304c1.039214 0 1.652509.809643 1.369782 1.808324l-.001994.007309c-.282727.998682-1.354166 1.808324-2.393379 1.808324" fill="#44b8fa"/><path d="m312.214074 387.915674h-33.795029l-9.190459 32.475082h33.795029z" fill="#fff"/><path d="m289.686303 394.395308h-8.334304c-1.039213 0-1.652509-.809642-1.370114-1.808324l.002326-.007309c.282395-.998681 1.354166-1.808324 2.39338-1.808324h8.334304c1.039213 0 1.652508.809643 1.369781 1.808324l-.001993.007309c-.282727.998682-1.354167 1.808324-2.39338 1.808324" fill="#44b8fa"/><g fill="#c9def5"><path d="m144.076516 327.889814h-4.344231l.377745-1.3339h4.343898z"/><path d="m159.378266 327.889814h-13.06392l.377412-1.3339h13.063921z"/><path d="m138.920649 332.076701h-7.833302l.377413-1.333901h7.833302z"/><path d="m158.19337 332.076701h-9.114046l.377745-1.333901h9.113714z"/><path d="m146.550395 336.263621h-11.293138l.377412-1.333901h11.293138z"/><path d="m157.008475 336.263621h-8.607065l.377413-1.333901h8.607064z"/><path d="m135.357955 340.450175h-6.640267l.377413-1.333901h6.640267z"/><path d="m155.823678 340.450175h-18.22776l.377413-1.333901h18.22776z"/><path d="m147.73529 332.076701h-7.260206l.377744-1.333901h7.259875z"/><path d="m217.288656 365.726811h-7.887788l.377745-1.333901h7.887455z"/><path d="m232.590406 365.726811h-13.06392l.377413-1.333901h13.06392z"/><path d="m212.132889 369.913365h-7.833302l.377412-1.333901h7.833303z"/><path d="m230.220714 374.100251h-23.785956l.377413-1.3339h23.785956z"/><path d="m213.324828 378.287138h-11.395132l.377412-1.333901h11.395133z"/><path d="m229.035819 378.287138h-13.063921l.377413-1.333901h13.06392z"/><path d="m231.40561 369.913365h-17.71812l.377412-1.333901h17.718121z"/><path d="m165.118358 401.574252h-4.344231l.377745-1.333901h4.343898z"/><path d="m180.420108 401.574252h-13.06392l.377412-1.333901h13.063921z"/><path d="m159.962491 405.761138h-7.833302l.377412-1.3339h7.833303z"/><path d="m179.235212 405.761138h-4.028944l.377744-1.3339h4.028613z"/><path d="m162.88086 409.948025h-6.581795l.377413-1.333901h6.581794z"/><path d="m171.522675 409.948025h-6.527641l.377413-1.333901h6.527641z"/><path d="m156.399797 414.134579h-6.640267l.377413-1.333901h6.640267z"/><path d="m176.86552 414.134579h-18.22776l.377413-1.333901h18.22776z"/><path d="m173.589706 405.761138h-12.072548l.377413-1.3339h12.072548z"/><path d="m315.52125 327.651141h-7.996095l.377413-1.333901h7.996095z"/><path d="m325.924412 327.651141h-8.681483l.377412-1.333901h8.681484z"/><path d="m308.283868 331.837695h-10.650275l.377413-1.3339h10.650274z"/><path d="m324.739616 331.837695h-4.028944l.377744-1.3339h4.028613z"/><path d="m323.116543 336.024615h-21.313173l.377412-1.333901h21.313174z"/><path d="m322.369825 340.211501h-27.106256l.377745-1.3339h27.105923z"/><path d="m319.09411 331.837695h-8.681483l.377412-1.3339h8.681484z"/><path d="m247.715211 401.574252h-4.343898l.377413-1.333901h4.343898z"/><path d="m263.016264 401.574252h-13.063256l.377413-1.333901h13.063256z"/><path d="m242.559378 405.761138h-7.833302l.377412-1.3339h7.833303z"/><path d="m261.831368 405.761138h-4.028944l.377744-1.3339h4.028613z"/><path d="m245.477747 409.948025h-6.582459l.377412-1.333901h6.582459z"/><path d="m254.118831 409.948025h-6.527641l.377413-1.333901h6.527641z"/><path d="m238.99592 414.134579h-6.639602l.377412-1.333901h6.639602z"/><path d="m259.461676 414.134579h-18.227095l.377412-1.333901h18.227096z"/><path d="m256.18656 405.761138h-12.073545l.377745-1.3339h12.073213z"/></g><path d="m239.905377 170.111565h-232.97844978c-5.01699457 0-7.96652624-4.010672-6.58777467-8.958231l42.40873715-152.19523621c1.3787516-4.94755865 6.5635219-8.95823068 11.5805165-8.95823068h232.9784498c5.016995 0 7.966527 4.01067203 6.587775 8.95823068l-42.409069 152.19523621c-1.37842 4.947559-6.56319 8.958231-11.580185 8.958231" fill="#fff" mask="url(#e)" transform="translate(433.388981)"/><path d="m719.153862 38.1335774h-251.146409l-34.279419 123.0195236c-1.378751 4.947559 1.57078 8.958563 6.587775 8.958563h232.97845c5.016995 0 10.201765-4.011004 11.580517-8.958563z" fill="#e6effa"/><path d="m672.420895 148.660815h-218.100558l26.032823-93.4248709h218.100558z" fill="#fff"/><path d="m531.697337 69.839581h-5.165501l4.069476-14.6034708h5.165169z" fill="#25385e"/><path d="m566.748192 148.666928h-4.754202l3.711334-13.319073h4.754201z" fill="#44b8fa"/><path d="m585.261237 83.2336043h-5.03427l3.709007-13.3110989h5.034271z" fill="#fbb766"/><path d="m645.918532 69.1493082h-5.09972l3.887748-13.951637h5.099719z" fill="#6983b5"/><path d="m634.47918 109.344966h-4.860847l3.709008-13.3107663h4.860847z" fill="#fbb766"/><path d="m513.21665 135.456328h-5.263508l3.709007-13.310766h5.263509z" fill="#fbb766"/><path d="m694.162744 70.634506h-218.100558l.396682-1.4239347h218.100558z" fill="#c9def5"/><path d="m690.5248 83.6902867h-218.100558l.396682-1.4239347h218.100558z" fill="#c9def5"/><path d="m686.886823 96.7461006h-218.100558l.396681-1.4239347h218.100558z" fill="#c9def5"/><path d="m683.248912 109.801549h-218.100558l.396682-1.423935h218.100558z" fill="#c9def5"/><path d="m679.610935 122.857363h-218.100891l.397014-1.423935h218.100558z" fill="#c9def5"/><path d="m675.972957 135.913144h-218.10089l.397014-1.423935h218.100558z" fill="#c9def5"/><path d="m562.71835 148.678888h-1.443869l26.050099-93.4866653h1.443869z" fill="#c9def5"/><path d="m619.379624 148.678888h-1.443868l26.050099-93.4866653h1.443868z" fill="#c9def5"/><path d="m504.990254 148.678888h-1.443868l26.050099-93.4866653h1.443868z" fill="#c9def5"/><path d="m518.777637 61.402452h-23.834462l.362795-1.3026711h23.834794z" fill="#25385e"/><path d="m517.781879 64.9759103h-30.511938l.363127-1.3026711h30.511938z" fill="#25385e"/><path d="m514.865371 75.4424952h-23.834461l.362794-1.3026711h23.834794z" fill="#25385e"/><path d="m513.869547 79.0163521h-30.511938l.363127-1.302671h30.511938z" fill="#25385e"/><path d="m511.385269 87.9318249h-23.834461l.362794-1.3026711h23.834794z" fill="#25385e"/><path d="m510.389412 91.5056154h-30.511938l.363126-1.3026711h30.511939z" fill="#25385e"/><path d="m507.485628 100.813019h-23.835458l.363127-1.302671h23.835458z" fill="#25385e"/><path d="m506.489904 104.386444h-30.511938l.363126-1.302671h30.511939z" fill="#25385e"/><path d="m503.585257 113.694246h-23.834462l.362794-1.302671h23.834794z" fill="#25385e"/><path d="m502.589499 117.267672h-30.511274l.363127-1.302672h30.511274z" fill="#25385e"/><path d="m499.685715 126.575075h-23.834462l.362795-1.302671h23.834794z" fill="#25385e"/><path d="m498.689891 130.148899h-30.511938l.363126-1.302671h30.511939z" fill="#25385e"/><path d="m495.569992 140.231892h-23.835458l.363126-1.302671h23.835459z" fill="#25385e"/><path d="m494.574135 143.805716h-30.511938l.363126-1.302671h30.511939z" fill="#25385e"/><path d="m518.979965 47.3881566h-19.661662l.40831-1.4664601h19.661994z" fill="#25385e"/><path d="m570.100684 47.3881566h-19.661662l.40831-1.4664601h19.661994z" fill="#25385e"/><path d="m625.153636 47.3881566h-19.661662l.40831-1.4664601h19.661994z" fill="#25385e"/><path d="m680.206688 47.3881566h-19.661994l.408642-1.4664601h19.661994z" fill="#25385e"/><path d="m528.877441 158.561547h-12.976876l.414954-1.489052h12.976876z" fill="#25385e"/><path d="m520.060507 162.259957h-5.190418l.381067-1.367788h5.190418z" fill="#6983b5"/><path d="m568.594224 158.561547h-12.976877l.414955-1.489052h12.976876z" fill="#25385e"/><path d="m559.777323 162.259957h-5.190418l.381067-1.367788h5.190418z" fill="#6983b5"/><path d="m608.311106 158.561547h-12.976876l.414954-1.489052h12.976877z" fill="#25385e"/><path d="m599.494173 162.259957h-5.190419l.381067-1.367788h5.190419z" fill="#6983b5"/><path d="m648.027889 158.561547h-12.976876l.414954-1.489052h12.976876z" fill="#25385e"/><path d="m639.210922 162.259957h-5.190418l.381067-1.367788h5.190418z" fill="#6983b5"/><path d="m511.180251 164.285525h-9.306739l2.557501-9.177834h9.306739z" fill="#fbb766"/><path d="m550.307227 164.285525h-9.306407l2.557169-9.177834h9.306739z" fill="#25385e"/><path d="m589.43417 164.285525h-9.306407l2.557169-9.177834h9.306739z" fill="#44b8fa"/><path d="m628.561146 164.285525h-9.306407l2.557169-9.177834h9.306739z" fill="#6983b5"/><path d="m520.013829 25.4543454h-20.123461c-2.804679 0-4.453201-2.2418833-3.682761-5.0076922.770772-2.7654766 3.668808-5.0073599 6.473155-5.0073599h20.123793c2.804348 0 4.452869 2.2418833 3.68243 5.0073599-.770772 2.7658089-3.668808 5.0076922-6.473156 5.0076922" fill="#fbb766"/><path d="m547.697001 22.8028898h-12.685179c-1.036887 0-1.78839-.9890466-1.509982-1.9880601.189038-.6777477.806321-1.1468555 1.509982-1.1468555h12.685179c1.03722 0 1.78839.9893788 1.509982 1.9880601-.189038.67808-.80632 1.1468555-1.509982 1.1468555" fill="#e1eaf5"/><path d="m705.054781 22.8028898h-12.685178c-1.03722 0-1.788391-.9890466-1.509983-1.9880601.189039-.6777477.806321-1.1468555 1.509983-1.1468555h12.685178c1.03722 0 1.788391.9893788 1.509983 1.9880601-.189039.67808-.806321 1.1468555-1.509983 1.1468555" fill="#e1eaf5"/><path d="m686.524327 22.8028898h-3.661831c-1.036888 0-1.788058-.9890466-1.50965-1.9880601.188706-.6777477.80632-1.1468555 1.50965-1.1468555h3.661831c1.03722 0 1.78839.9893788 1.509982 1.9880601-.189038.67808-.80632 1.1468555-1.509982 1.1468555" fill="#e1eaf5"/><path d="m581.12857 22.8028898h-27.497954c-1.03722 0-1.78839-.9890466-1.509982-1.9880601.189039-.6777477.806321-1.1468555 1.509982-1.1468555h27.497954c1.03722 0 1.788391.9893788 1.509983 1.9880601-.189039.67808-.806321 1.1468555-1.509983 1.1468555" fill="#e1eaf5"/><path d="m146.463583 360.903639h-127.5680751l64.3252392-229.129242h127.5677429z" fill="#25385e"/><path d="m434.193321 415.683731h144.851308l66.044526-235.255218h-144.850976z" fill="#86b1f2"/><path d="m582.877857 361.224838h-121.940775l13.116412-46.721073h121.940776z" fill="#fff"/><path d="m536.146717 314.337285h60.109914l-24.059713 85.702533h-60.110246z" fill="#9b99ff"/><path d="m575.573298 350.06994c2.755178 0 5.528628-2.498364 5.804046-5.210684 1.237554-12.178529-5.866173-21.358024-17.478916-21.358024-11.61241 0-23.870342 9.179495-29.470731 21.358024-1.247189 2.71232.123257 5.210684 2.878434 5.210684z" fill="#25385e"/><path d="m583.966407 358.1166-11.769888 41.925344h-60.110246l5.274473-18.787899 7.217681-8.152574.202328-.225916 7.321004-8.267859c3.751866-4.238913 9.058564-6.828308 14.011106-6.828308h35.184411c.670107 0 1.312638.055482 1.919954.166779.01196 0 .018604.003987.029568.007641.245517.043854.487713.099337.719609.162792" fill="#fff"/><path d="m583.966407 358.1166-3.092391 11.015727c-1.38606 1.264797-2.81963 2.557501-4.303698 3.874126-.269106.237876-.543195.479739-.817284.721602-5.164837 4.556192-10.848948 9.322354-16.726416 13.831038-5.993084 4.595728-12.187832 8.921685-18.239388 12.482851h-28.700957l5.274473-18.787899 7.217681-8.152574.202328-.225916 7.321004-8.267859c3.751866-4.238913 9.058564-6.828308 14.011106-6.828308h35.184411c.670107 0 1.312638.055482 1.919954.166779.01196 0 .018604.003987.029568.007641.245517.043854.487713.099337.719609.162792" fill="#fff"/><path d="m583.97644 358.080886-11.779854 41.960892h-12.708767l-.461135-12.482851-.293026-7.910712c-.056479-1.748855.190368-3.517312.701668-5.253874.064453-.230235.135882-.456151.211298-.682399 2.276103-6.808375 8.524007-12.990166 16.011791-15.155304 1.825268-.527248 3.592728-.777084 5.26218-.777084.789044 0 1.554501.055482 2.296701.166447.011628 0 .018605.003986.029236.007973.249172.031894.490703.075416.729908.126912" fill="#ffb293"/><path d="m547.707367 366.851108 14.45729-9.039627-.404656-22.134112-14.096489 2.915644z" fill="#ffb293"/><path d="m544.021283 337.406157-.16977.604325c-.10432.468776-.164121.937884-.196679 1.406991-.271432 4.437255 3.100696 7.332633 7.662868 6.791432.287046-.026911.570438-.072094.867783-.135218.517281-.108307 1.026921-.252494 1.530913-.441865 4.313997-1.551511 7.788783-5.736271 8.0446-9.957244.133556-2.209989-.642531-4.040573-2.01929-5.240253-1.189381-1.06413-2.83757-1.650515-4.750879-1.614302-.564125.017941-1.159148.081064-1.762808.207311-.086048.017941-.172427.036213-.252162.063124-2.524943.577414-4.860183 2.08341-6.554884 4.040573-1.006987 1.145526-1.791713 2.462151-2.257498 3.833261-.058805.144188-.110633.297678-.142194.441865" fill="#ffb293"/><path d="m556.606394 336.783825h-.081396l-12.503782.622266-.169437.604325-2.851856 10.029338c-.053157.18937-.094685.369771-.118274.550171-.002657.008971.006313.008971.003987.017941-.344189 2.317964 1.552175 4.076785 4.050207 3.562827l7.123329-1.470115z" fill="#ffb293"/><path d="m544.56079 335.838865s4.174793 5.17713 11.012072 6.150229c2.923285.415619 5.315336.757151 6.316343.662798l-.129237-6.971832c.287711-4.70935-3.528275-7.693102-8.528326-6.65854-3.696051.764128-7.069507 3.52894-8.670852 6.817345" fill="#25385e"/><path d="m547.683712 351.602215 5.510355-1.139878-5.505704 4.057848z" fill="#25385e"/><path d="m554.045039 341.340682c-.094353 1.54387 1.157819 2.520624 2.796706 2.181418 1.63922-.338874 3.044217-1.865135 3.13857-3.409005.094354-1.54387-1.157819-2.520624-2.796706-2.18175-1.638887.339206-3.044217 1.865468-3.13857 3.409337" fill="#ffb293"/><path d="m544.556471 345.732654h-1.457822l.773097-2.753184h.517946l-.627581 2.235238h.939544z" fill="#233559"/><path d="m545.078669 348.515905.145516-.517946c1.380081 0 2.732586-1.328917 2.745875-1.342206l.333891.304654c-.063788.063456-1.583405 1.555498-3.225282 1.555498" fill="#233559"/><path d="m562.030369 350.462436-14.339348 5.869163-.75117 12.538998 15.224739-11.058917z" fill="#fff"/><path d="m615.686032 245.128507h-121.940776l13.116413-46.721073h121.940775z" fill="#fff"/><path d="m506.861569 198.407334h60.754771l-23.116514 82.342699h-60.754771z" fill="#fbe5a2"/><path d="m555.215051 242.581671-10.729345 38.218661h-60.754771l13.183191-46.959614c2.777436-1.499019 5.919329-2.340555 9.16986-2.340555h32.780068c.11628 0 .226248.007973.342196.007973.175417.003987.350502.007974.52459.015947.095018.003987.185052.01196.28007.015947h.003986c.162128.007974.321931.024253.483062.036213.007973 0 .01495.003987.022924.003987.039867 0 .083057.003987.120599.01196h.028239c.042858.003987.081729.007974.124918.01196 1.095693.108307 2.150188.320602 3.157175.617282.257478.068107.506318.152162.755158.236548.29668.100001.59768.212294.885723.328575.299006.120267.587049.236547.865125.372761.282395.136214.560803.272428.838879.424921.272096.144188.541866.296349.811304.464789.263458.160134.522929.320601.774094.497015.254156.180068.504989.356482.748845.544856.240866.184387.478078.380735.710638.581401.233225.196348.449507.396682.676752.601003-.002326.007973-.002326.007973.005647.007973.216946.212627.431566.432895.638213.653163.218939.2206.415287.449174.615621.677416.015615.015947.038871.032226.056147.056147 1.221939 1.458818 2.196035 3.113985 2.881092 4.913671" fill="#2fe2e7"/><path d="m555.215051 242.581671-3.395716 12.095804c-3.953528 8.728992-9.345942 18.828763-15.714113 26.122857h-34.24686c-5.826305-6.228303-9.742624-13.450303-12.3679-20.516156l7.423664-26.443458c2.777436-1.499019 5.919329-2.340555 9.16986-2.340555h32.780068c.11628 0 .226248.007973.342196.007973.175417.003987.350502.007974.52459.015947.095018.003987.185052.01196.28007.015947h.003986c.162128.007974.321931.024253.483062.036213.007973 0 .01495.003987.022924.003987.039867 0 .083057.003987.120599.01196h.028239c.042858.003987.081729.007974.124918.01196 1.095693.108307 2.150188.320602 3.157175.617282.257478.068107.506318.152162.755158.236548.29668.100001.59768.212294.885723.328575.299006.120267.587049.236547.865125.372761.282395.136214.560803.272428.838879.424921.272096.144188.541866.296349.811304.464789.263458.160134.522929.320601.774094.497015.254156.180068.504989.356482.748845.544856.240866.184387.478078.380735.710638.581401.233225.196348.449507.396682.676752.601003-.002326.007973-.002326.007973.005647.007973.216946.212627.431566.432895.638213.653163.218939.2206.415287.449174.615621.677416.015615.015947.038871.032226.056147.056147 1.221939 1.458818 2.196035 3.113985 2.881092 4.913671" fill="#2fe2e7"/><path d="m529.486417 240.008289-8.802415-8.481149 12.03999-20.766657 11.689487 2.735576z" fill="#ffb293"/><path d="m552.659842 208.910033-1.886065-.441533c-3.024616-.707649-6.78379 1.331575-8.396431 4.554531l1.886398.441533c3.024283.707648 6.783457-1.331243 8.396098-4.554531" fill="#25385e"/><path d="m553.478123 205.995318-1.886066-.441532c-3.024615-.707649-6.78379 1.331575-8.396431 4.554531l1.886398.441533c3.024284.707648 6.783458-1.331243 8.396099-4.554532" fill="#25385e"/><path d="m549.433331 204.276497-2.108992.226913c-3.382094.364123-6.575149 3.317974-7.131966 6.597741l2.108992-.226912c3.382094-.364124 6.57515-3.317974 7.131966-6.597742" fill="#25385e"/><path d="m548.453653 212.387776-.088705.315617c-.151164.51562-.363791 1.043865-.628246 1.572109-2.075768 4.136255-6.728972 6.848575-10.715391 6.384783-.268109-.032226-.53057-.083722-.79137-.14153-.428576-.103323-.835225-.23854-1.204996-.412629-3.22794-1.468785-4.28011-5.386101-2.29803-9.348267 2.205338-4.413334 7.358547-7.209708 11.507094-6.243253.924262.219271 1.72427.605654 2.383081 1.127586l.341864.296348.051827.045184c1.557159 1.503005 2.106666 3.863162 1.431576 6.403387z" fill="#ffb293"/><path d="m545.685951 222.361199c-.027243.096679-.054154.193358-.09236.283392-.794028 2.300023-3.629273 4.091071-5.768829 3.588741l-5.914014-1.378752 1.113965-4.748221 1.951515-8.304736 1.156157.057808 10.321368.528245-.088705.31595z" fill="#ffb293"/><path d="m548.775351 210.912013h-6.28312c-2.559495-.036213-3.858512 3.987416-7.4529 5.385105-2.961492 1.151839-5.221316 1.09536-6.110694 1.006987l3.793727-6.541263c2.210986-4.418317 7.363198-7.217681 11.509087-6.246907 3.065147.71695 4.773803 3.310665 4.5439 6.396078" fill="#25385e"/><path d="m537.541516 225.701466-4.569482-1.069446 3.02827 3.807015z" fill="#25385e"/><path d="m536.881077 216.422069c-.724592 1.44852-2.413978 2.364808-3.773128 2.046865-1.35915-.318276-1.873441-1.750184-1.148849-3.198704s2.413978-2.364808 3.773128-2.046865c1.35915.318276 1.873441 1.750184 1.148849 3.198704" fill="#ffb293"/><path d="m545.494886 219.801738h-1.229249l.122593-.436882h.792035l.529241-1.884404h.436881z" fill="#233559"/><path d="m542.507579 222.148141c-1.384067 0-1.959156-1.25782-1.983076-1.311642l.425586-.256813c.005315.010964.5216 1.131573 1.680083 1.131573z" fill="#233559"/><path d="m541.911294 231.76764c-2.412649 3.086078-4.931279 6.114348-7.577818 9.045607-2.286402 2.544877-4.849218 6.532957-8.173172 5.727634-1.633572-.39934-2.979101-2.744547-4.015324-3.82695-1.653505-1.752509-3.293056-3.5306-4.870481-5.347562-1.664469-1.919954-3.287741-3.872133-4.867824-5.862851h3.788411c2.857836 3.498375 5.855873 6.887446 9.003082 10.134323.440203.451167 2.468131 3.073453 3.625286 1.842875.92559-.979411 1.846862-1.965136 2.752187-2.963817 1.499019-1.668788 2.989067-3.3502 4.423965-5.063839 1.088716-1.307987 2.159823-2.622286 3.207342-3.943229.943199.012957 1.845866.103323 2.704346.257809" fill="#2bcdd1"/><g fill="#b4d3e6" transform="translate(564.275542 211.596937)"><path d="m27.008813 1.84187921h-7.7515739l.5169488-1.84187921h7.7519061z"/><path d="m54.3153699 1.84187921h-23.3121973l.5169488-1.84187921h23.3125295z"/><path d="m17.9416111 8.89909387h-13.97887975l.51694878-1.84187921h13.97921197z"/><path d="m52.3341537 8.89909387h-7.1901063l.517281-1.84187921h7.1901063z"/><path d="m23.2826289 15.9565411h-11.7459667l.517281-1.8418792h11.7459667z"/><path d="m38.7038489 15.9565411h-11.6489557l.5169488-1.8418792h11.6492879z"/><path d="m11.8499545 23.0139551h-11.8499545l.51728101-1.8418792h11.84995449z"/><path d="m48.3715885 23.0139551h-32.5282379l.517281-1.8418792h32.5279057z"/><path d="m42.2596991 8.89909387h-21.5447375l.517281-1.84187921h21.5447375z"/></g><g fill="#b4d3e6" transform="translate(470.062889 326.357374)"><path d="m27.008813 1.84187921h-7.7515739l.5169488-1.84187921h7.7519061z"/><path d="m54.3153699 1.84187921h-23.3121973l.5169488-1.84187921h23.3125295z"/><path d="m17.9415447 8.8992932h-13.9788798l.51694878-1.8418792h13.97921202z"/><path d="m52.3340873 8.8992932h-7.1901064l.517281-1.8418792h7.1901064z"/><path d="m23.2826289 15.9565079h-11.7459667l.517281-1.8418792h11.7459667z"/><path d="m38.7038489 15.9565079h-11.6489557l.5169488-1.8418792h11.6492879z"/><path d="m11.8499545 23.0139551h-11.8499545l.51728101-1.8418792h11.84995449z"/><path d="m48.3715885 23.0139551h-32.5279057l.5169488-1.8418792h32.5282379z"/><path d="m42.2596326 8.8992932h-21.5447375l.5172811-1.8418792h21.5444052z"/></g><path d="m560.668362 255.222829c-.292694 1.0432-1.375761 1.888724-2.418629 1.888724-1.0432 0-1.65118-.845524-1.358486-1.888724.293027-1.042867 1.375762-1.888391 2.41863-1.888391 1.0432 0 1.651179.845524 1.358485 1.888391" fill="#25385e"/><path d="m558.220298 263.943051c-.292695 1.042868-1.375762 1.888391-2.41863 1.888391-1.0432 0-1.651179-.845523-1.358485-1.888391s1.375761-1.888724 2.418629-1.888724c1.0432 0 1.65118.845856 1.358486 1.888724" fill="#25385e"/><path d="m610.220827 255.472633h-44.567896l.368775-1.312638h44.567563z" fill="#bfe0f3"/><path d="m607.658641 264.599303h-44.567895l.368774-1.312638h44.567563z" fill="#bfe0f3"/><path d="m466.047898 371.334376c-.292694 1.042868-1.375762 1.888391-2.418629 1.888391-1.0432 0-1.65118-.845523-1.358486-1.888391s1.375762-1.888723 2.418629-1.888723c1.0432 0 1.65118.845855 1.358486 1.888723" fill="#25385e"/><path d="m463.599833 380.054598c-.292694 1.042867-1.375761 1.888391-2.418629 1.888391-1.0432 0-1.65118-.845524-1.358486-1.888391.292694-1.042868 1.375762-1.888392 2.41863-1.888392 1.0432 0 1.651179.845524 1.358485 1.888392" fill="#25385e"/><path d="m515.600462 371.584312h-44.567895l.368774-1.312638h44.567563z" fill="#bfe0f3"/><path d="m513.038243 380.710983h-44.567895l.368774-1.312638h44.567563z" fill="#bfe0f3"/><path d="m142.309754 357.696596h-142.309754l64.8860422-231.127601h142.3097538z" fill="#3f96e8"/><path d="m131.25107 142.265467h-59.6886475l-22.7108623 80.897833h59.6886468z" fill="#fff"/><path d="m92.4169868 164.416025c-.308641 1.099015-.4388749 2.162148-.4066487 3.159501.1358818 4.288415 3.2684718 7.399743 7.9954299 7.399743 5.832286 0 11.8865-4.726959 13.523726-10.559244.95084-3.387742.200002-6.402723-1.745533-8.330982-1.398685-1.393369-3.412659-2.222282-5.851222-2.222282-5.825973 0-11.8801874 4.726959-13.5157522 10.553264" fill="#25385e"/><path d="m92.4169868 164.416025c-.308641 1.099015-.4388749 2.162148-.4066487 3.159501 2.5771027 1.41131 5.9482333 2.198361 9.8808319.684724 5.237927-2.012313 8.257559-7.634297 9.892791-12.175207-1.398685-1.393369-3.412659-2.222282-5.851222-2.222282-5.825973 0-11.8801874 4.726959-13.5157522 10.553264" fill="#30497a"/><path d="m57.9679984 190.685528-9.1173685 32.476743h59.6889791l10.444957-37.205695c-.98805-2.090719-2.749197-3.657844-5.141248-4.520311-.010964-.003987-.024253-.011628-.0402-.011628-1.301674-.468776-2.789065-.724593-4.437254-.744526-.077742-.003987-.15648-.003987-.231232-.003987h-30.5670884c-.3265814 0-.6518339.007973-.9764219.027907-.1634568.007642-.3282426.019602-.4890416.031562-.1006654.007641-.2013309.015615-.2990063.027575-.2664479.023256-.5352214.054818-.8013371.090366-4.4289487.586717-9.0363045 2.622286-13.0841863 5.539924-1.780749 1.279747-3.4502012 2.724945-4.949552 4.29207" fill="#25385e"/><path d="m58.2631509 189.634155-9.4123881 33.527916h55.1487342c2.250521-2.279757 4.431274-4.661841 6.528638-7.083461l8.456232-30.121901c-.98805-2.091051-2.749198-3.658176-5.141249-4.520311-.010631-.003987-.024252-.011961-.039867-.011961-1.252505-.503992-2.699695-.74818-4.255193-.74818-.059137 0-.121928 0-.182062.003987-.077741-.003987-.15648-.003987-.231231-.003987h-30.5670885c-.3269137 0-.6518339.007973-.9764219.027575-.1634569.007973-.3282426.019601-.4890416.031562-.1006654.007973-.2013309.015614-.2993386.027575-.2664478.023588-.5352213.05515-.8010048.090698-4.4289487.586385-9.0366368 2.622286-13.0845185 5.539924-.8199419.480403-1.6289202 1.019944-2.4285961 1.610315z" fill="#30497a"/><path d="m82.8577201 188.60647 12.6453114-7.906725-.3538242-19.360329-12.3296936 2.550524z" fill="#ffb293"/><path d="m74.47408 181.131843s-2.2940433 16.944026 10.8516054 15.839031c13.1506322-1.099346 21.3686556-16.295514 21.3686556-16.295514h-28.1278606c-1.3694491 0-2.7408916.156148-4.0924004.456483" fill="#ffb293"/><path d="m79.6292819 162.854348-.031894.114287c-.1518288.540537-.2468463 1.093034-.2820626 1.645532-.2282416 3.766151 2.5359062 6.264847 6.3528885 5.976472.3611333-.02392.7305722-.078074 1.106988-.156147.453493-.096015.9033315-.222262 1.3392163-.38439 3.7781115-1.369449 6.8093716-5.021313 7.0339586-8.709391.2149524-3.525617-2.1986934-5.94624-5.6432468-6.000393-.581069-.00598-1.1847296.048173-1.8166297.180401-3.7492076.774758-7.0339587 3.873793-8.0592183 7.333629" fill="#ffb293"/><path d="m76.9932751 172.158263c-.0388709.138208-.0714293.276415-.0983399.41429-.3518308 2.066466 1.3232693 3.652197 3.5355841 3.195714l6.2369406-1.291376 1.4468585-4.426955 2.5279327-7.742271-1.5535041.078074-9.4595647.468443-.031894.114287z" fill="#ffb293"/><path d="m76.9932751 172.158263c-.0388709.138208-.0714293.276415-.0983399.41429.8395434 1.117287 2.0804198 2.323944 4.1661553 1.699021 1.9020127-.570438 3.7701381-2.346203 4.9096845-3.709673 2.4551745-2.925278 3.0229544-6.596412 3.0229544-6.596412l.0950176-1.57975.4162833-7.045587c-.5810691-.00598-1.1847297.048173-1.8166298.1804-3.7492076.774759-7.0339586 3.874126-8.0592182 7.33363l-.031894.114287z" fill="#ffb293"/><path d="m80.1054994 161.480812s3.6515322 4.528286 9.6319917 5.379457c2.5568366.363791 4.6492167.662133 5.5246409.57974l-.1129579-6.098068c.2514975-4.119311-3.0860779-6.728973-7.4595444-5.82398-3.232591.668445-6.1834516 3.08641-7.5841303 5.962851" fill="#25385e"/><path d="m82.8370222 175.268627 4.8196504-.99702-4.8156636 3.549206z" fill="#25385e"/><path d="m88.401132 166.293121c-.0827251 1.350512 1.0126349 2.204673 2.4462043 1.907992 1.4335694-.296348 2.6628178-1.631578 2.7452106-2.981758.0827251-1.350512-1.0126349-2.204673-2.4462043-1.908325-1.4335694.296681-2.6624855 1.631578-2.7452106 2.982091" fill="#ffb293"/><path d="m79.3730003 170.117113h1.275096l.1269116-.453161h-.8219353l.549175-1.955834h-.4528285z" fill="#233559"/><path d="m81.104978 172.550792c1.435895 0 2.7654767-1.304997 2.820959-1.360479l-.2916974-.26678c-.0119602.011628-1.2003444 1.174098-2.4020178 1.174098z" fill="#30497a"/><g fill="#b4d3e6" transform="translate(127.513988 165.671486)"><path d="m38.2265019 1.87742774h-18.3061663l.5269156-1.87742774h18.3064986z"/><path d="m57.0030384 1.87742774h-14.5513108l.5272479-1.87742774h14.5513108z"/><path d="m18.6784957 8.8107541h-14.7855325l.52691566-1.87742774h14.78586474z"/><path d="m55.0566067 8.8107541h-22.7660124l.5272479-1.87742774h22.7656801z"/><path d="m24.4764284 15.7444459h-22.53012953l.52724789-1.8774277h22.53012954z"/><path d="m40.7879565 15.7444459h-12.3220523l.5269157-1.8774277h12.3223845z"/><path d="m27.6929728 22.6778055h-27.6929728l.52691566-1.8774278h27.69297274z"/><path d="m51.1636435 22.6778055h-19.2453786l.5269157-1.8774278h19.2453785z"/><path d="m29.2388689 8.8107541h-7.6266557l.5272479-1.87742774h7.6263235z"/></g><g fill="#b4d3e6" transform="translate(103.335138 332.736209)"><path d="m33.3262527 2.34719996h-33.3262527l.65881069-2.34719996h33.32625271z"/><path d="m31.3798209 9.28052632h-22.76468341l.65914292-2.34719996h22.76435119z"/></g><path d="m58.8235885 240.662847c-.4093065 1.458155-1.9232754 2.640226-3.3814297 2.640226-1.4584866 0-2.3086614-1.182071-1.8993549-2.640226.4096387-1.458154 1.9236076-2.640226 3.381762-2.640226s2.3083291 1.182072 1.8990226 2.640226" fill="#fff"/><path d="m49.2955846 274.602129c-.4093065 1.458155-1.9232754 2.640227-3.3814297 2.640227-1.4584866 0-2.3086614-1.182072-1.8993549-2.640227.4096387-1.458154 1.9236076-2.640226 3.381762-2.640226 1.4581543 0 2.3083291 1.182072 1.8990226 2.640226" fill="#fff"/><g fill="#b4d3e6" transform="translate(31.885574 239.724167)"><path d="m65.3404987 1.87742774h-30.2125998l.5269157-1.87742774h30.212932z"/><path d="m127.849872 1.87742774h-53.1324341l.5269157-1.87742774h53.1324344z"/><path d="m44.9495603 18.8469359h-35.42162283l.52691563-1.8774277h35.4219551z"/><path d="m123.085903 18.8469359h-67.7182965l.5269157-1.8774277h67.7186288z"/><path d="m66.2304745 35.8168096h-40.8651998l.5272479-1.8774277h40.8651998z"/><path d="m118.321868 35.8168096h-32.2966738l.5272479-1.8774277h32.2966739z"/><path d="m39.8223321 52.7862846h-39.8223321l.52691566-1.8774278h39.82266434z"/><path d="m113.5579 52.7862846h-64.3587948l.5269157-1.8774278h64.3587941z"/><path d="m80.8162375 35.8168096h-8.9854734l.5269156-1.8774277h8.9854735z"/></g><path d="m280.248001 266.81617h-160.375718l68.394716-243.6257347h160.375385z" fill="#25385e"/><path d="m287.369103 261.340433h-160.375718l68.394716-243.6257345h160.375718z" fill="#fff9f1"/><path d="m350.340807 37.0314067h-160.375718l5.422979-19.3168079h160.375718z" fill="#97aebc"/><path d="m343.758713 28.2560682c-.53954 1.9219465-2.535241 3.4801019-4.457188 3.4801019-1.922278 0-3.042888-1.5581554-2.503347-3.4801019.53954-1.9219464 2.535241-3.4801018 4.457188-3.4801018 1.922278 0 3.042888 1.5581554 2.503347 3.4801018" fill="#fff"/><path d="m273.31617 233.121276c-.554823 1.976764-2.607336 3.579106-4.5841 3.579106-1.976765 0-3.129268-1.602342-2.574445-3.579106.555155-1.976765 2.607335-3.579107 4.5841-3.579107 1.976764 0 3.129267 1.602342 2.574445 3.579107" fill="#fff"/><path d="m261.711965 233.121276c-.554823 1.976764-2.607335 3.579106-4.5841 3.579106-1.976432 0-3.129267-1.602342-2.574112-3.579106.554823-1.976765 2.607003-3.579107 4.583767-3.579107 1.976765 0 3.129268 1.602342 2.574445 3.579107" fill="#fff"/><path d="m229.771009 234.463482h17.720446c.601335 0 1.12958-.400336 1.29204-.979412.240534-.856155-.402994-1.705001-1.29204-1.705001h-17.720446c-.601667 0-1.12958.400336-1.292372.979412-.240202.856155.403326 1.705001 1.292372 1.705001" fill="#fff"/><path d="m168.049118 234.463482h38.002713c.601667 0 1.129579-.400336 1.292372-.979412.240201-.856155-.403327-1.705001-1.292372-1.705001h-38.002713c-.601667 0-1.129579.400336-1.292372.979412-.240201.856155.403327 1.705001 1.292372 1.705001" fill="#fff"/><path d="m157.829779 241.566976h64.17341c.601667 0 1.129912-.400336 1.292372-.979412.240202-.856155-.402994-1.705001-1.292372-1.705001h-64.17341c-.601668 0-1.12958.400337-1.292372.979412-.240202.856155.403326 1.705001 1.292372 1.705001" fill="#fff"/><path d="m155.835572 248.670503h56.228812c.601667 0 1.129579-.400336 1.292371-.979411.240202-.856155-.403326-1.705001-1.292371-1.705001h-56.228812c-.601667 0-1.129579.400336-1.292372.979412-.240201.856155.403327 1.705 1.292372 1.705" fill="#fff"/><path d="m320.666585 58.9750186h-113.349326l-45.227371 161.1033004h113.349326z" fill="#86b1f2"/><path d="m181.998696 149.164574-19.908509 70.915672h113.349659l23.271333-82.894199c-2.325938-1.809653-4.954536-3.312658-7.867854-4.441906-2.030254-.785058-4.174129-1.405662-6.45887-1.816629l-.005648-.007642c-.540869-.097343-1.098682-.187045-1.661146-.261796h-.00731c-1.870783-.261465-3.807015-.39635-5.818331-.39635h-53.321473c-3.559172 0-7.131302.418941-10.67353 1.211308h-.007642c-.455486.104984-.896354.209637-1.346525.321598l-.016944.007641h-.007641c-3.249535.814959-6.45289 1.944206-9.5692 3.349868-7.34559 3.312326-14.197487 8.14294-19.950369 14.012435" fill="#fcbd9d"/><path d="m183.394623 144.192198-8.625669 30.724565c3.237907 10.2815 8.147924 20.091567 15.603481 26.828844 6.800734 6.138933 15.708134 9.728006 27.397953 8.785804 14.052967-1.128915 28.734844-8.972849 42.708076-19.860003 11.297457-8.785803 22.109527-19.545713 31.735871-30.343165l7.229642-25.75209c-2.652519-1.099014-5.555871-1.704668-8.600752-1.831912-2.030253-.785058-4.174129-1.405662-6.45887-1.816962l-.005315-.007309c-.541202-.097343-1.099015-.187045-1.661479-.261797h-.007309c-1.870783-.261796-3.807016-.396349-5.818332-.396349h-53.32114c-3.559173 0-7.131302.418609-10.673863 1.211308h-.007641c-.455487.104652-.896023.209304-1.346193.321598l-.017276.007309h-.007309c-3.249867.81529-6.45289 1.944206-9.569533 3.349868-3.860172.912634-7.79277 2.534909-11.630683 4.860514z" fill="#ffd4bf"/><path d="m252.916859 111.687582c29.917912-1.001672 31.466433 19.248368 31.466433 19.248368l-54.727467 32.247837-18.138391-31.371416s11.481513-19.123118 41.399425-20.124789" fill="#ffd4bf"/><path d="m243.115663 102.17197c-1.933907 6.888442 2.082745 12.472552 8.971188 12.472552 6.888442 0 14.040342-5.58411 15.973916-12.472552 1.933907-6.8884424-2.082413-12.4725524-8.970855-12.4725524s-14.040342 5.58411-15.974249 12.4725524" fill="#25385e"/><path d="m235.039767 146.14946 25.380324-15.869264-.710306-38.8575383-24.747095 5.1186568z" fill="#b37475"/><path d="m223.595797 88.78891c-1.933907 6.8884422 2.082745 12.472552 8.971187 12.472552s14.040342-5.5841098 15.973917-12.472552c1.933907-6.8884422-2.082413-12.4725521-8.970856-12.4725521-6.888442 0-14.040342 5.5841099-15.974248 12.4725521" fill="#25385e"/><path d="m227.929495 97.996213c-.505321 8.266197 6.199067 13.495818 14.974903 11.68085 8.775837-1.815301 16.299834-9.9881417 16.805155-18.2543388.505653-8.2661971-6.199067-13.4958184-14.974903-11.6805175-8.775837 1.8149686-16.299834 9.9878092-16.805155 18.2540063" fill="#b37475"/><path d="m230.16985 120.378268 12.51541-2.588731 7.9745-24.4211784-22.096571 1.0963567-5.296067 18.6686287c-1.338884 4.540245 2.170454 8.223671 6.902728 7.244924" fill="#b37475"/><path d="m229.631904 91.7065477h11.64065c4.827292-.0677748 3.030264 7.4608732 8.28746 10.0761823 4.331274 2.155504 8.619025 2.049855 10.376186 1.884072l-.226581-12.2389947c.504656-8.267526-6.194415-13.505453-14.971581-11.6891555-6.48877 1.3415419-12.12504 5.7831153-15.106134 11.9678959" fill="#25385e"/><path d="m244.144311 101.365151c-.165782 2.710327 2.032579 4.424962 4.909685 3.829607 2.877438-.595023 5.34424-3.274452 5.510023-5.9847785.165782-2.7103266-2.032579-4.424962-4.909685-3.8299393-2.877438.5953549-5.34424 3.2747842-5.510023 5.9851108" fill="#b37475"/><path d="m248.218506 94.7095018-4.010008 21.6387582s-4.969486 5.98046-11.422375 7.865196c-6.452558 1.88507-14.527723-.031561-14.987196-2.230255-.459805-2.199025 6.992098-14.280544 6.992098-14.280544s5.613346-.247511 7.624662.560471c2.011981.807982 2.255172 3.152524 2.255172 3.152524s3.905024-.26379 5.817668-4.840913c1.912644-4.577455 4.237252-14.1360244 4.237252-14.1360244z" fill="#25385e"/><path d="m225.470068 107.358634h2.286402l.227909-.811636h-1.473437l.786387-2.801026h-.812965z" fill="#233559"/><path d="m226.108546 113.22886c2.574777 0 4.957858-2.338895 5.058191-2.439228l-.523593-.477413c-.02093.020598-2.151517 2.105005-4.306688 2.105005z" fill="#b37475"/><path d="m238.552095 159.204278 46.260271-27.258749-.85848-2.019622-46.259939 27.258749z" fill="#25385e"/><path d="m221.689531 158.911251 2.415307-1.433569-11.37985-26.382328-2.415307 1.433569z" fill="#25385e"/><path d="m234.08092 191.366h2.470789l12.693817-45.216074h-2.470789z" fill="#fff"/><path d="m206.958053 191.894311h2.470789l12.693817-45.216074h-2.47079z" fill="#fff"/><path d="m473.492957 365.743389h-172.997441l73.777495-262.799019h172.997109z" fill="#25385e"/><path d="m468.449816 358.031982h-172.997441l73.777495-262.7990197h172.997109z" fill="#fff9f1"/><path d="m536.377351 116.069819h-172.997441l5.849893-20.836757h172.997109z" fill="#bdbac4"/><path d="m529.277279 106.603875c-.582066 2.073443-2.73458 3.754191-4.808023 3.754191s-3.282093-1.680748-2.700359-3.754191c.582065-2.073443 2.734911-3.754191 4.808354-3.754191 2.073111 0 3.282093 1.680748 2.700028 3.754191" fill="#fff"/><path d="m453.290891 327.592004c-.598677 2.132248-2.812321 3.860837-4.944901 3.860837-2.132247 0-3.375449-1.728589-2.776772-3.860837.598677-2.132247 2.812321-3.860836 4.944568-3.860836 2.13258 0 3.375782 1.728589 2.777105 3.860836" fill="#bdbac4"/><path d="m440.773455 327.592004c-.598677 2.132248-2.812321 3.860837-4.944901 3.860837-2.132248 0-3.37545-1.728589-2.776773-3.860837.598678-2.132247 2.812321-3.860836 4.944569-3.860836 2.13258 0 3.375782 1.728589 2.777105 3.860836" fill="#bdbac4"/><path d="m404.82269 327.564296c-.228906.814959.246514 1.475431 1.061473 1.475431h19.549368c.648844 0 1.218617-.431566 1.394034-1.05649l.101995-.363458c.228906-.814959-.246182-1.475763-1.061141-1.475763h-19.5497c-.648844 0-1.218617.431898-1.394034 1.056821z" fill="#bdbac4"/><path d="m338.243309 327.564296c-.228906.814959.246514 1.475431 1.06114 1.475431h41.428328c.648844 0 1.218617-.431566 1.394035-1.05649l.101994-.363458c.228906-.814959-.246514-1.475763-1.06114-1.475763h-41.428329c-.648844 0-1.218617.431898-1.394034 1.056821z" fill="#bdbac4"/><path d="m327.219708 335.226866c-.228906.814958.246514 1.47543 1.06114 1.47543h69.658849c.648843 0 1.218617-.431566 1.394034-1.056489l.101994-.363459c.228906-.814958-.246514-1.475762-1.06114-1.475762h-69.658848c-.648844 0-1.218618.431898-1.394035 1.056489z" fill="#bdbac4"/><path d="m325.068557 342.889402c-.228906.814959.246514 1.475431 1.06114 1.475431h61.088994c.648843 0 1.218617-.431566 1.393701-1.05649l.102327-.363458c.228574-.814959-.246514-1.475431-1.061473-1.475431h-61.088661c-.648844 0-1.218617.431566-1.394034 1.056489z" fill="#bdbac4"/><path d="m381.686375 141.202832h122.270015l-48.786875 173.782167h-122.270015z" fill="#86b1f2"/><path d="m424.33651 173.285617c-14.166589 12.262251-32.21561 15.287863-37.683108 22.030789-3.192723 3.937914-6.664519 23.48695 23.74775 14.327056 4.418982-1.331243 6.267174 4.486424 10.225021 5.270153 6.545914 1.296691 14.71809-5.055201 21.63743-4.755198 4.630279.200999 6.881797 1.637558 11.114399 2.848867 16.369934 4.685097 26.387311-16.309469 15.207463-22.499897-4.746227-2.627602-7.577818-9.277503-7.577818-9.277503z" fill="#25385e"/><path d="m476.187071 240.130051-21.013503 74.850928h-122.270015l24.326161-86.65138c.54087-.088705 1.077752-.161131 1.614302-.23389 1.572774-.201663 3.141561-.330568 4.701709-.3711l31.250485-.95981 33.762802-1.032237h.008305l16.693858-.50831c1.285727-.040532 2.555508-.024253 3.795719.040199.887385.056479 1.754171.129238 2.611987.23389 6.297406.725921 11.752279 2.814979 16.216776 5.960858.007974 0 .0103-.008306.018605-.008306.203325.137211.398675.274421.592033.419606.335219.241863.66014.492031.983066.750173.271764.209637.538876.435553.798347.661469.059137.048173.112294.088705.163125.137211.312296.265783.606318.540204.898348.822267.280069.266448.557813.540537.833563.822932.448178.443526.873431.911305 1.288385 1.38739.999014 1.1535 1.912977 2.379426 2.725942 3.67811" fill="#fcc98b"/><path d="m467.359473 259.996167c-.6422 2.258495-1.300678 4.46051-1.953509 6.614021-2.226932 7.242931-4.521308 13.921736-6.878143 20.075951-.868115 2.258163-1.739884 4.444232-2.617634 6.565516-.694692 1.669784-1.399682 3.291063-2.101683 4.87181-.990375 2.234242-1.993708 4.371805-3.000695 6.43661-1.833241 3.742563-3.694057 7.210705-5.579126 10.421037h-93.209254c-.603329-1.75849-1.146856-3.557179-1.641213-5.388095-.535221-2.000353-1.008648-4.048878-1.416626-6.129963-.695023-3.5007-1.219946-7.089773-1.597358-10.743963-.240866-2.274442-.42027-4.565163-.555155-6.871831-.387712-6.606047-.385386-13.308773-.144852-19.882594l10.565556-37.634934c.540869-.089038 1.077419-.161464 1.614302-.234222 1.572773-.201663 3.14156-.330568 4.701709-.370768l31.250152-.95981 33.763134-1.032569h.008306l16.693525-.508311c1.285727-.040199 2.55584-.02392 3.796052.040532.887384.056479 1.754171.129237 2.611987.23389 6.297406.725921 11.752279 2.814979 16.216776 5.960858.007973 0 .010299-.008306.018273-.008306.203656.137211.399007.274421.592364.419273.33522.242196.66014.492364.983067.750506.271763.209305.538876.435553.798347.661137.058804.048505.111961.088705.163124.13721.312296.266116.606319.540537.898348.8226.28007.266116.557813.540537.833564.8226.448177.443858.873431.911637 1.288053 1.387722-1.96414 8.404404-3.993396 16.236377-6.101391 23.544093" fill="#fcc98b"/><path d="m472.711487 235.645388c-.451832.403326-1.026588.725921-1.698356.935557-7.088444 2.121284-13.999146 5.016995-20.641406 9.082152-4.153863 2.556837-8.376165 5.501053-12.714415 7.824-.094021.048174-.188374.096679-.290701.145185-1.004329.532231-2.015967 1.032236-3.035911 1.476094-.333226.153158-.680405.298342-1.017618.435553-9.807741 3.992399-19.521461 5.32331-28.528862 3.93592-1.059811-.161131-2.115968-.362794-3.153188-.604989-1.075094-.249837-2.13557-.524258-3.170796-.830573-16.497511-4.758853-28.625541-16.002821-42.815719-24.068684l1.671114-5.952552c.384721-.048173.775091-.088705 1.167786-.137211.116612.072758.243856.137211.360469.209969 12.333348 7.267184 23.364689 17.188215 37.26184 22.18893.915292.330901 1.845534.637216 2.790727.919611 1.136556.346847 2.30102.653163 3.482095.927584 12.693152 2.911658 25.058394 1.185726 38.550558-7.138279.116945-.072426.234222-.145184.351499-.217942 8.805737-5.508694 17.311472-10.178841 26.623526-13.32472.203325.13721.399008.274421.592033.419605.335552.241863.660472.492032.983067.750174.272095.209305.539208.435553.798346.661136.059137.048506.112294.089038.163125.137211.312628.266116.606651.540537.898348.8226.280069.266115.558145.540537.833896.822932.179403.193689.359139.387047.538543.580737" fill="#e6a37f"/><path d="m467.359473 259.996167c1.186391-.346847 2.37112-.717948 3.560833-1.104995l-1.863806 6.637942c-1.216956.3711-2.432251.734226-3.650536 1.081074-12.063245 3.435915-24.030144 5.436268-35.832922 6.307373-.058805.008306-.10731.008306-.157809.016279-2.453513.177411-4.893405.306315-7.327649.387047h-.007974c-2.458497.080732-4.914003.120932-7.365856.120932-3.925953-.007974-7.825661-.136879-11.696132-.3711h-.008306c-3.057838-.169105-6.087105-.4113-9.100424-.709642-15.232381-1.508321-31.985044-3.548874-46.692502-8.364205l1.974771-7.033294c2.892056.902999 5.856206 1.693373 8.86122 2.395373 13.058936 3.073121 26.443126 5.73461 40.309712 6.936616.883065.072426 1.774104.145184 2.659163.209636h.008306c3.009665.225916 6.043251.395353 9.097102.492032h.007974c5.378792.17741 10.805758.15349 16.276578-.112958 1.880085-.088705 3.752862-.209637 5.640921-.354821.058472-.007974.12525-.015947.181729-.015947 11.576862-.927916 23.323161-2.976442 35.125607-6.517342" fill="#e6a37f"/><path d="m463.33003 285.927826-1.81364 6.460863c-1.86879.306648-3.740902.596684-5.606037.863132-12.202782 1.806663-24.3245 3.008336-36.29605 3.589073-.018273.007973-.034552.007973-.050499.007973-3.092058.15349-6.172488.266448-9.241955.338874-21.603542.500005-42.698441-.984063-62.957783-4.468484-2.617635-.443526-5.216332-.927584-7.805727-1.443536l1.81829-6.477142c1.799354.3711 3.613658.717947 5.432614 1.048848 19.8208 3.637578 40.455893 5.32331 61.608932 5.04922 4.567156-.064784 9.167535-.217942 13.786852-.468111.021927.008306.054153.008306.080731 0 11.952614-.62891 24.053401-1.871115 36.241897-3.742563 1.598355-.233889 3.20103-.483726 4.802375-.758147" fill="#e6a37f"/><path d="m459.999132 297.792664-1.789055 6.372158c-2.466138.136879-4.938256.266116-7.402401.395353-11.718723.62891-23.438776 1.2339-35.147866 1.79869h-.007973-.007974c-.836221.048173-1.670448.088373-2.502018.120599-10.200769.508311-20.400872.984395-30.588019 1.443868-10.621371.484058-21.408856 1.185727-32.175411 1.669785-5.385769.250168-10.763564.443526-16.109466.524258l1.759154-6.267174c4.293067-.064452 8.6064-.201663 12.933687-.387047 12.829034-.532564 25.742454-1.452174 38.353214-2.040885 7.982141-.362794 15.958634-.733894 23.947752-1.120941h.007973c2.338562-.112958 4.671476-.23389 7.009706-.346848.016279 0 .024253 0 .042858-.007973 11.815735-.573096 23.651071-1.185726 35.485078-1.822942 2.062148-.104985 4.126288-.217943 6.190761-.330901" fill="#e6a37f"/><path d="m416.961684 247.630094-22.599233-20.067646 28.248128-51.700194 29.310929 5.798066z" fill="#ffb293"/><path d="m389.030237 226.948123 25.1471 82.959316 34.950522-84.801195z" fill="#ffb293"/><path d="m460.251826 183.308177c-5.136265 10.971541-17.726094 18.198857-28.120552 16.14269-10.394126-2.056168-14.656628-12.617072-9.520695-23.588613 5.136265-10.97154 17.726426-18.198856 28.120552-16.142689 10.394458 2.056167 14.65696 12.617072 9.520695 23.588612" fill="#ffb293"/><path d="m441.545788 213.162169-14.823406-2.932256 6.555216-32.149164 28.612915.557148-6.074812 24.608889c-1.409981 5.983117-8.664872 11.024032-14.269913 9.915383" fill="#ffb293"/><path d="m462.561749 175.00909s-16.13239 12.384843-33.293362 15.145004c-7.336951 1.180079-13.341996 2.147863-15.562284 1.999024l8.901419-16.284219c5.137926-10.973201 17.726427-18.211149 28.121881-16.153653 7.68546 1.519285 12.15029 7.731973 11.832346 15.293844" fill="#25385e"/><path d="m435.826959 212.030928-11.457591-2.266468 7.84792 9.078165z" fill="#25385e"/><path d="m442.659886 188.70099-14.92374-4.470145.521268-.934561 14.92374 4.470477z" fill="#fff"/><path d="m433.589295 188.713349c-1.68407 3.597046-5.812019 5.966838-9.219695 5.292745-3.408008-.674094-4.805697-4.13692-3.121626-7.733966 1.68407-3.597379 5.811687-5.966838 9.219695-5.292745s4.805697 4.136587 3.121626 7.733966" fill="#ffb293"/><path d="m454.136813 197.346725-3.404021.10432.299671-1.198683 2.192713-.06711 1.292372-5.173475 1.211308-.037209z" fill="#233559"/><path d="m446.080685 203.985763c-3.832597.117609-5.540256-3.256844-5.610356-3.400367l1.154829-.735223c.01495.029901 1.546527 3.035247 4.754865 2.936907z" fill="#233559"/><path d="m446.634278 194.848228c-.569108.01628-1.075426-.104652-1.513636-.354821h-.007974c-1.624269-.879411-2.31896-3.347542-1.593704-6.275146.248508-1.000343.646851-1.960153 1.131241-2.823285 1.340878-2.363147 3.416978-4.040905 5.357197-4.113663h.01628c.504324-.015947.961139.080732 1.366791.274421.156812.072426.301332.161131.443526.25781.008306 0 .013954.008306.013954.008306 1.400346 1.016289 1.980086 3.347542 1.288717 6.097736-.92991 3.742563-3.850205 6.847911-6.502392 6.928642m7.705062-6.960868c.03721-.161463.07442-.322594.103656-.484058.559142-2.709994-.000997-5.024968-1.333236-6.28312-.718945-.685722-1.663472-1.056822-2.785743-1.024263-.853497.02392-1.726928.290368-2.571455.741868-1.867461.992036-3.592063 2.91199-4.661509 5.226631-.224587.484058-.421267.984063-.582398 1.500348-.071429.225915-.134885.451831-.192361.685721-.031894.112958-.053156.21761-.076745.330568-.727914 3.339237.235551 6.114016 2.252183 7.089773.540537.258142 1.163467.395353 1.847859.3711 3.191062-.104652 6.642593-3.492394 7.871841-7.67051.045515-.161463.090699-.322594.127908-.484058" fill="#fff"/><path d="m459.197297 194.57394c-.423925.016279-.792699-.19369-1.090709-.597016-.751835-1.00001-1.003665-3.234252-.267112-6.202389.04186-.17741.089369-.346847.136878-.516284.690705-2.460158 1.827261-4.412005 2.931591-5.501053l.002326-.007973.010299-.007974c.079071-.080732.143191-.137211.217942-.201663.020599-.016279.030898-.024253.041197-.032226.522264-.451832 1.027917-.702001 1.467789-.717948 1.358485-.0402 2.228262 2.234242 1.578753 5.783115-.058472.322927-.131562.669775-.220932 1.01629-1.027917 4.121637-3.320632 6.944589-4.808022 6.985121m5.785108-7.017347.015947-.056147c1.078417-4.388085.15947-7.751574-2.111317-7.678816-.456151.016279-.926587.169437-1.396692.435553-.018272.007973-.038871.02392-.059469.0402-.347179.201663-.69602.467778-1.038881.798679-1.390047 1.33091-2.663482 3.597046-3.401696 6.226641-.045183.161464-.090698.322927-.127908.484058-.03721.161132-.074419.322595-.111629.484058-.063123.282063-.113622.548511-.164121.814294-.492364 2.960496-.006977 5.283443 1.21164 6.114016.331565.225916.717283.34718 1.157155.3309 2.27876-.072758 4.925631-3.581431 6.026971-7.993436" fill="#fff"/><path d="m457.227011 188.276766-3.606349.110632.242195-.970441 3.606681-.1103z" fill="#fff"/><path d="m441.283626 244.776378-22.821827 33.929248-23.945758-33.660807 19.661329 64.862454z" fill="#fff"/><path d="m679.972367 292.653775h-116.842717l55.423487-197.4209456h116.842385z" fill="#37bfb3"/><path d="m624.931142 105.547718h40.43596l-15.385539 54.80388h-40.435959z" fill="#2fe2e7"/><path d="m650.190569 134.497049c-.080067.11462-.16246.226913-.239538.330901-1.306657 1.747194-2.731589 3.51565-4.258847 5.260186-6.681131 7.625991-14.585863 12.152948-24.101906 15.407134-3.624622 1.243202-7.376155 1.912644-11.190479 1.81663l7.406055-26.381332c13.104784-1.984406 11.180845-7.88214 16.974923-11.864573 7.1921-4.942907 16.465616-6.810036 20.586921-6.060526 4.9954.914959-1.439217 16.215447-5.177129 21.49158" fill="#25385e"/><path d="m653.420801 148.103733-3.438905 12.248962h-40.43596l7.091102-25.258065c1.269116-.976422 2.701356-1.717957 4.219644-2.166135.006313-.002658.018273-.007973.026246-.007973 1.026257-.301332 2.092381-.46944 3.165149-.480072.05216-.005315.102991-.005315.15349-.005315h19.765982c.442529 0 .870108.026578 1.283401.074751.023256.002658.04917.005316.072426.007974.085051.010631.170102.021263.254156.034552.312628.045515.615621.106645.915624.178739l-.000665.002658c1.397357.333558 2.643881.93888 3.698045 1.763141.613627.475088 1.162802 1.026921 1.637558 1.635232 2.029921 2.603349 2.708665 6.276476 1.375429 10.037644z" fill="#fff"/><path d="m655.477101 140.778941-3.339901 11.896798c-.841537 1.240545-1.73025 2.486072-2.662153 3.715985-.785723 1.04021-1.597691 2.069789-2.43657 3.072789-.249172.298674-.502995.59469-.756154.888381h-35.418633c-.039535-.096347-.078738-.194686-.115616-.291033-.221596-.578743-.43223-1.168118-.624591-1.765799l6.513356-23.201565c1.269116-.976089 2.701688-1.717625 4.219976-2.165802.00598-.002658.018273-.007974.026246-.007974 1.011639-.325585 2.043543-.485719 3.049201-.485719.039867 0 .080067 0 .115948.005316.05216-.005316.102659-.005316.15349-.005316h19.765649c.442862 0 .870109.026911 1.283402.074752.023256.002657.04917.005315.072426.007973.085051.010631.170101.021595.254488.034884.312627.045183.615621.106646.915291.178739l-.000664.002658c1.397689.333226 2.643881.93888 3.698376 1.763141.613628.474756 1.162803 1.026921 1.637559 1.635233.336548.311963.649176.661468.931571 1.042867z" fill="#fff"/><path d="m638.312076 137.563991-5.306366-5.112677 7.257881-12.519064 7.046915 1.649186z" fill="#b37475"/><path d="m641.982313 160.352761h-20.961011c.160134-1.605664.352827-3.232923.568776-4.857524 1.722942-12.98784 4.188083-23.060036 4.188083-23.060036h18.189222c.442861 0 .870108.026579 1.283401.074752.023256.002658.04917.005316.072426.007973.085051.010632.170102.021263.254488.034552.312628.045516.615621.106646.915292.17874l-.000665.002657c-.010299.122593-.238873 2.99837-.80034 7.354228-.77343 5.96717-1.4143 12.040986-3.709672 20.264658" fill="#30497a"/><path d="m646.446909 132.730686s-4.668486 10.95659-12.767571 10.241965c-8.104402-.710971-7.90141-10.536985-7.90141-10.536985h18.188558c.885391 0 1.715632.100666 2.480423.29502" fill="#b37475"/><path d="m649.749302 120.911928-.020598.073755c-.09834.349505-.237544.706984-.415287 1.06413-1.219614 2.435241-3.914326 4.050872-6.277805 3.864491-.224919-.015282-.44419-.050498-.659143-.100997-.258142-.062127-.503327-.143523-.726253-.248508-1.945867-.885391-2.580093-3.246877-1.386393-5.631619 1.141208-2.279757 3.580768-3.845221 5.827634-3.880106.377745-.003654.748513.03123 1.108982.116613 2.143211.501002 3.141892 2.505009 2.548863 4.742241" fill="#b37475"/><path d="m648.075929 126.928102c-.024917.08937-.054153.178739-.086712.268109-.522928 1.335894-2.181749 2.361486-3.446546 2.066134l-3.564156-.834892.671435-2.862488 1.176424-5.006363.97609.050499 5.946904.302993-.020598.073755z" fill="#b37475"/><path d="m649.940101 120.023779s-4.005356 2.928269-8.181478 3.478441c-1.785401.235218-3.246545.428244-3.782763.374755l2.287066-3.942898c1.332904-2.663814 4.438584-4.351207 6.937945-3.766151 1.847859.43223 2.87777 1.996034 2.73923 3.855853" fill="#25385e"/><path d="m643.167906 128.939352-2.754845-.644525 1.8256 2.294708z" fill="#25385e"/><path d="m642.8287 123.135539c-.436882.873098-1.455164 1.425595-2.274442 1.233899-.81961-.191696-1.129579-1.05516-.692698-1.928259.436882-.873098 1.455164-1.425596 2.274774-1.233899.819277.191696 1.129247 1.05516.692366 1.928259" fill="#b37475"/><path d="m647.278446 125.608188h-.824593l.082061-.293026h.531567l.35482-1.264797h.293359z" fill="#233559"/><path d="m645.274672 127.181859c-.928581 0-1.314632-.843863-1.330579-.879743l.285717-.172427c.003323.007641.349838.759144 1.127254.759144z" fill="#233559"/><path d="m606.260487 163.490567h45.538005l17.120772-60.98567h-45.538005zm46.354293 1.133566h-47.806799l17.757323-63.252803h47.806799z" fill="#fff"/><path d="m701.632321 119.920556h-14.738023l.318275-1.133567h14.738024z" fill="#fff"/><path d="m716.749485 119.920556h-11.715401l.318275-1.133567h11.715402z" fill="#fff"/><path d="m685.89369 125.502838h-11.904108l.318275-1.133566h11.904108z" fill="#fff"/><path d="m715.18226 125.502838h-18.329422l.318275-1.133566h18.329423z" fill="#fff"/><path d="m690.562242 131.084988h-18.139719l.318275-1.133566h18.13972z" fill="#fff"/><path d="m703.694801 131.084988h-9.920367l.318276-1.133566h9.920367z" fill="#fff"/><path d="m693.152202 136.667271h-22.296905l.318276-1.133566h22.296905z" fill="#fff"/><path d="m712.048075 136.667271h-15.494842l.318276-1.133566h15.494842z" fill="#fff"/><path d="m687.805636 142.249554h-10.959248l.318276-1.133567h10.959248z" fill="#fff"/><path d="m710.48085 142.249554h-19.273618l.318276-1.133567h19.273618z" fill="#fff"/><path d="m680.569914 147.83187h-12.848968l.318276-1.133567h12.848968z" fill="#fff"/><path d="m708.913691 147.83187h-24.564369l.318275-1.133567h24.56437z" fill="#fff"/><path d="m688.450692 153.414152h-22.296904l.318275-1.133566h22.296905z" fill="#fff"/><path d="m707.346566 153.414152h-11.715402l.318276-1.133566h11.715401z" fill="#fff"/><path d="m686.505922 158.996468h-21.91916l.318275-1.133566h21.91916z" fill="#fff"/><path d="m705.77944 158.996468h-15.872587l.318276-1.133566h15.872587z" fill="#fff"/><path d="m694.396766 125.502838h-6.140926l.318275-1.133566h6.140927z" fill="#fff"/><path d="m693.741543 153.414152h-3.259833l.318275-1.133566h3.259834z" fill="#fff"/><path d="m616.113478 185.482851c-.44851 1.597026-2.106666 2.891723-3.703692 2.891723s-2.528265-1.294697-2.080088-2.891723c.44851-1.597027 2.106666-2.891724 3.703692-2.891724 1.597359 0 2.528265 1.294697 2.080088 2.891724" fill="#fff"/><path d="m610.242953 206.394027c-.448509 1.597026-2.106666 2.891724-3.703692 2.891724s-2.528265-1.294698-2.080088-2.891724c.44851-1.597026 2.106666-2.891724 3.703692-2.891724 1.597359 0 2.528598 1.294698 2.080088 2.891724" fill="#fff"/><path d="m604.372428 227.30517c-.448509 1.597026-2.106666 2.891724-3.703692 2.891724s-2.528265-1.294698-2.080088-2.891724c.44851-1.597026 2.106666-2.891724 3.703693-2.891724 1.597358 0 2.528597 1.294698 2.080087 2.891724" fill="#fff"/><path d="m598.501903 248.216313c-.448509 1.597026-2.106666 2.891724-3.703692 2.891724s-2.528265-1.294698-2.080087-2.891724c.448509-1.597026 2.106666-2.891724 3.703692-2.891724 1.597358 0 2.528597 1.294698 2.080087 2.891724" fill="#fff"/><path d="m592.631379 269.127489c-.44851 1.597026-2.106666 2.891724-3.703693 2.891724-1.597026 0-2.528265-1.294698-2.080087-2.891724.448509-1.597026 2.106666-2.891724 3.703692-2.891724 1.597358 0 2.528597 1.294698 2.080088 2.891724" fill="#fff"/><path d="m691.991027 185.865413h-68.24488l.564125-2.009988h68.244881z" fill="#fff"/><path d="m685.94575 207.398921h-68.244881l.564126-2.009987h68.24488z" fill="#fff"/><path d="m679.900506 228.932628h-68.244881l.564126-2.009987h68.24488z" fill="#fff"/><path d="m673.855228 250.466136h-68.24488l.564125-2.009987h68.244881z" fill="#fff"/><path d="m667.809984 271.999811h-68.24488l.564125-2.009988h68.24488z" fill="#fff"/></g><path d="m8.53131604 0-8.53131604 30.3886813h55.28229l8.5313161-30.3886813z" fill="url(#b)" mask="url(#f)" transform="translate(693.186394 113.553979)"/><g transform="translate(292.131317 120.339663)"><path d="m424.820236 0 1.090709 5.12563355 5.425969.82193527-5.213343 3.99007382-.615288 5.63361216-4.312669-2.6598278-5.806039 2.6598278 2.547867-5.63361216-2.97312-3.99007382 5.887103-.82193527z" fill="#ffc778"/><g fill="#edbdb2"><path d="m452.671616 4.11110495h-13.675555c-.894361 0-1.415961-.72492432-1.164796-1.61928558.251166-.89436126 1.179747-1.61928558 2.073776-1.61928558h13.675886c.894361 0 1.415629.72492432 1.164464 1.61928558-.250833.89436126-1.179414 1.61928558-2.073775 1.61928558"/><path d="m451.010635 10.0278097h-13.675554c-.894361 0-1.415961-.72492435-1.164796-1.61928561s1.179414-1.61928558 2.073775-1.61928558h13.675887c.894029 0 1.415629.72492432 1.164464 1.61928558-.250834.89436126-1.179414 1.61928561-2.073776 1.61928561"/><path d="m443.223513 15.9444812h-7.549579c-.894361 0-1.415629-.7249244-1.164796-1.6192856.251166-.8943613 1.179747-1.6192856 2.074108-1.6192856h7.549578c.894029 0 1.415629.7249243 1.164464 1.6192856-.250833.8943612-1.179414 1.6192856-2.073775 1.6192856"/></g><path d="m69.6173196 168.69567h-69.6173196l10.7432987-38.268496h69.6173196z" fill="#25385e"/></g><path d="m10.7432987 0-10.7432987 38.2681634h69.6173196l10.7432987-38.2681634z" fill="url(#c)" mask="url(#g)" transform="translate(289.57963 245.465288)"/><g transform="translate(296.374084 66.2328)"><path d="m23.1328932 187.777658 1.3734359 6.454883 6.8329599 1.034894-6.5651831 5.024636-.7747587 7.094424-5.4309523-3.349535-7.3117023 3.349535 3.2083383-7.094424-3.7438919-5.024636 7.4140289-1.034894z" fill="#ffc778"/><g fill="#edbdb2"><path d="m58.2062733 192.954787h-17.2217699c-1.1262573 0-1.7830746-.912966-1.4667924-2.039223.3162823-1.126258 1.4853972-2.039224 2.6116545-2.039224h17.2217699c1.1262573 0 1.7830746.912966 1.4667924 2.039224-.3162823 1.126257-1.4853972 2.039223-2.6116545 2.039223"/><path d="m56.1145244 200.405693h-17.2217699c-1.1262573 0-1.7827424-.912966-1.4667923-2.039223.3162823-1.126257 1.4853972-2.039223 2.6116545-2.039223h17.2217699c1.1262573 0 1.7830746.912966 1.4667923 2.039223s-1.4853972 2.039223-2.6116545 2.039223"/><path d="m46.3081456 207.8566h-9.5070735c-1.1262573 0-1.7830746-.912966-1.4667923-2.039224.3162823-1.126257 1.4853971-2.039223 2.6116545-2.039223h9.5070734c1.1262573 0 1.7830746.912966 1.4667924 2.039223-.3162823 1.126258-1.4853972 2.039224-2.6116545 2.039224"/></g><path d="m88.3414304 48.5609592h-88.3414304l13.6330291-48.5609592h88.3410979z" fill="#25385e"/></g><path d="m13.6330291 0-13.6330291 48.5609592h88.3410982l13.6330288-48.5609592z" fill="url(#d)" mask="url(#h)" transform="translate(293.136144 59.504924)"/><g transform="translate(315.362749 70.348756)"><path d="m15.7499941 0 1.7428749 8.19078101 8.6705201 1.31363463-8.3306495 6.37581236-.9833987 9.0024172-6.8917645-4.2502094-9.27816749 4.2502094 4.07146999-9.0024172-4.7508789-6.37581236 9.40806914-1.31363463z" fill="#ffc778"/><g fill="#edbdb2"><path d="m60.2565267 6.56953528h-21.8537107c-1.4292504 0-2.2624815-1.15848355-1.8611485-2.58773397.4010007-1.42891819 1.8847368-2.58740174 3.3139872-2.58740174h21.8537107c1.4292504 0 2.2624815 1.15848355 1.8611485 2.58740174-.4010008 1.42925042-1.8847368 2.58773397-3.3139872 2.58773397"/><path d="m57.6022472 16.0244155h-21.8537107c-1.4292504 0-2.2624815-1.1584835-1.8611485-2.5877339.4010007-1.4289182 1.8847368-2.587734 3.3139872-2.587734h21.8537107c1.4292504 0 2.2624815 1.1588158 1.8611485 2.587734-.4010008 1.4292504-1.8847368 2.5877339-3.3139872 2.5877339"/><path d="m45.1583 25.4792626h-12.0642424c-1.4289181 0-2.2624814-1.1584836-1.8611485-2.587734.401333-1.4289182 1.8850691-2.5874018 3.3139872-2.5874018h12.0642424c1.4292504 0 2.2624815 1.1584836 1.8611485 2.5874018-.4010008 1.4292504-1.8847368 2.587734-3.3139872 2.587734"/></g></g></g></svg>