<svg height="383" viewBox="0 0 400 383" width="400" xmlns="http://www.w3.org/2000/svg" xmlns:xlink="http://www.w3.org/1999/xlink"><mask id="a" fill="#fff"><path d="m0 0h112.920849v173.275412h-112.920849z" fill="#fff" fill-rule="evenodd"/></mask><mask id="b" fill="#fff"><path d="m0 0h163.735905v147.131916h-163.735905z" fill="#fff" fill-rule="evenodd"/></mask><mask id="c" fill="#fff"><path d="m0 0h52.3252478v154.274751h-52.3252478z" fill="#fff" fill-rule="evenodd"/></mask><mask id="d" fill="#fff"><path d="m0 0h9.91972813v14.6179739h-9.91972813z" fill="#fff" fill-rule="evenodd"/></mask><mask id="e" fill="#fff"><path d="m0 0h9.89573512v9.97179038h-9.89573512z" fill="#fff" fill-rule="evenodd"/></mask><mask id="f" fill="#fff"><path d="m0 0h83.2846889v83.2845603h-83.2846889z" fill="#fff" fill-rule="evenodd"/></mask><g fill="none" fill-rule="evenodd"><path d="m120.516495 44.7530258c-.18019 0-.363712-.038158-.537845-.1193193-.952132-.4421476-1.923039-.8736957-2.885165-1.2831365-.650502-.2764936-.953342-1.0281445-.676849-1.6783437.276494-.650502 1.028145-.9533428 1.678344-.6765463.987867.4200402 1.984213.8630963 2.961177 1.3167518.641114.2973896.919425 1.0584286.621732 1.6995425-.216531.4666777-.678666.7410515-1.161394.7410515" fill="#52d1bd"/><path d="m86.6846958 2.69457804c-.0245301 0-.0490602-.00060568-.0735903-.00211989-2.102018-.11901643-4.2152411-.15808289-6.2884892-.11780507-.7201554.00757102-1.2910103-.54753616-1.3046382-1.2537609-.0139306-.70683042.5475362-1.29101032 1.2540638-1.304941 2.138056-.04179203 4.3169956-.0015142 6.4838215.12143916.705619.03967214 1.2452813.64444522 1.2053064 1.34976144-.0387637.68108895-.6029561 1.20742626-1.276474 1.20742626zm-19.0844214 1.15200639c-.6053788 0-1.143224-.43094245-1.2567893-1.04752632-.1284045-.69501963.331005-1.36248075 1.0260246-1.4905824 2.1035322-.38793907 4.2658155-.69380827 6.4268874-.90912808.7031963-.07147043 1.3303796.44366177 1.400033 1.1468581.0702591.70319634-.4430561 1.33007679-1.1465552 1.40003301-2.0905101.20805163-4.1819286.50392709-6.2161103.878844-.0784357.01453636-.1565687.02150169-.2334902.02150169zm31.7395327.49635607c-.0847955 0-.1704994-.0081767-.256809-.02574146-2.0584089-.41913167-4.1471019-.76830711-6.2082364-1.03753258-.7007736-.09145792-1.1947069-.73378325-1.103249-1.43455686.0917607-.70077361.7343889-1.19500979 1.4348597-1.10324903 2.1207941.27709933 4.2697524.63626852 6.3872152 1.06751382.6925974.14112381 1.1395904.81676163.9987694 1.50935853-.123559.60598444-.6568621 1.02420758-1.2525499 1.02420758zm-44.0272981 2.914237c-.5163436 0-1.0030087-.31525727-1.1968268-.82705822-.2501465-.66079862.0826755-1.39942732.743777-1.64987666 2.0020805-.75801052 4.0813854-1.43667675 6.1794664-2.01722256.681089-.18866982 1.3861024.21077719 1.5744694.89186615.1886698.68108895-.2107772 1.38610233-.8918662 1.57446931-2.0229765.55995263-4.0268741 1.21408876-5.95597 1.94454076-.1489976.05632839-.3022351.08328122-.4530498.08328122zm56.328388.48303108c-.140518 0-.282853-.0230159-.423068-.07207611-1.982699-.69441395-4.00507-1.32735122-6.01139-1.88185272-.681089-.18836698-1.080839-.89307752-.892472-1.57416647.188367-.6813918.892775-1.08083881 1.574167-.89247183 2.061134.5693407 4.138925 1.21984273 6.175529 1.93272997.667158.2337931 1.018454.96394226.784964 1.6307977-.184431.52694299-.679272.85703946-1.20773.85703946zm-67.7545713 5.16979522c-.4257942 0-.8425031-.212897-1.0853814-.6002304-.3752198-.5990191-.194121-1.3885251.4045953-1.7640477 1.8197703-1.14049842 3.7328156-2.20801223 5.6864416-3.17256017.6338458-.31283455 1.4012444-.0526943 1.7137761.58084865.3128346.63384579.0529971 1.40094153-.5808486 1.71377608-1.8760988.92669284-3.7131311 1.95150614-5.4599168 3.04657844-.2113829.1323414-.4463873.1956351-.6786662.1956351zm-10.0255446 7.8705295c-.3328221 0-.6647356-.1287073-.9157906-.3855163-.4936305-.5057441-.4839396-1.3158433.0215017-1.8094738.1677738-.1638368.3361533-.3261595.5051384-.4872708 1.3942791-1.3294711 2.8748677-2.6104877 4.4008825-3.8076174.5560157-.4363936 1.3606637-.3388788 1.7967545.2171369.4360907.5560157.3388788 1.3603609-.2171369 1.7967544-1.4615097 1.1462525-2.8797131 2.3730605-4.2143325 3.6459004-.1614142.1538431-.3228283.3092005-.4833339.466072-.2486323.2428783-.5714606.3640146-.8936832.3640146zm-8.2066828 9.7641931c-.2513579 0-.5054413-.074196-.7280293-.2280392-.5808487-.4027782-.7253037-1.1998552-.3225255-1.7807039 1.2428587-1.7931203 2.5689985-3.5329407 3.9411702-5.1707037.4536555-.5414794 1.2607262-.612647 1.8028113-.1586886.5414793.4536555.6129497 1.2607262.1589914 1.8025084-1.3225058 1.5784062-2.6007968 3.2555386-3.7997435 4.9847595-.2483295.3585635-.6471708.5508675-1.0526746.5508675zm-6.3205903 11.0794306c-.1786761 0-.3600777-.0375523-.5329998-.1168966-.6423254-.2946641-.9239673-1.0544917-.6293032-1.696817.8964088-1.9524146 1.8954805-3.8966525 2.9690512-5.7785053.3503868-.6138583 1.1320189-.8276639 1.7458772-.4772771.6135554.350084.827361 1.1317161.4769742 1.7455744-1.036624 1.8170448-2.0008691 3.6934464-2.8657824 5.5780247-.2156227.4691004-.679272.7458969-1.1638172.7458969zm28.4761202 10.7020909c-.0469403 0-.0941835-.0027255-.1420323-.0078738-1.9793675-.2183483-4.0356565-.2234966-6.1028478-.0142336-.7004707.0708648-1.3306824-.441239-1.40185-1.1447382-.0711676-.7031963.441239-1.3306824 1.1444353-1.40185 2.2455646-.2271306 4.4835581-.2213767 6.6409959.0169591.7022878.0772244 1.2092433.7098588 1.1317161 1.4121466-.072379.6547418-.6268805 1.1395899-1.2704172 1.1395899zm-32.6928755 1.3337109c-.1002403 0-.2022977-.0121136-.304355-.0369466-.6865401-.1674709-1.107186-.859765-.939715-1.5463051.5054413-2.0726424 1.1308075-4.171632 1.8582311-6.239429.2347017-.6665526.9654565-1.0178479 1.6317063-.7825406.6665526.2343988 1.0169394.9651536.7825406 1.6317062-.6995623 1.9884527-1.3007012 4.0059781-1.786155 5.9968535-.1426381.5844828-.665947.9766616-1.242253.9766616zm14.1008732 2.1401759c-.4818197 0-.9430462-.2731624-1.1604859-.7383259-.2989039-.6405082-.0221074-1.40185.6180981-1.7010567 2.0344845-.9500116 4.1034928-1.7334607 6.1494852-2.3279372.6795748-.1968465 1.3888279.1932124 1.5859773.8715758.1971493.6786662-.1932125 1.3888279-.8718787 1.5859772-1.9200106.5578328-3.8651571 1.2943416-5.7806251 2.1892362-.175042.081767-.3594721.1205306-.5405709.1205306zm30.5778354.641114c-.2204681 0-.4436617-.0569341-.6471708-.1765562-1.835518-1.0790218-3.7028344-1.9542317-5.5498604-2.6014025-.6668555-.2334902-1.0181508-.9636394-.7843577-1.6304948.2337931-.6671583.9630337-1.0184536 1.6307977-.7846605 2.0032919.7019849 4.0220286 1.6474539 6.0001847 2.8103626.6093157.3579578.8128247 1.1423155.4548669 1.7513283-.2386385.4058067-.6656441.6314231-1.1044604.6314231zm-41.3159644 6.2161102c-.3682544 0-.7334804-.1580829-.9866553-.4639521-.4506271-.5442049-.3746141-1.3509728.1698937-1.8015999 1.6916687-1.4006387 3.4675271-2.6995229 5.2779094-3.8609173.5947793-.3818823 1.3861024-.2086574 1.7679846.386122.3815794.5947793.2086573 1.3864052-.386122 1.7679846-1.7237698 1.1056717-3.4154385 2.3433821-5.027763 3.6783043-.2386385.1974522-.5278515.2940584-.8152474.2940584zm51.0759177 1.9451465c-.3597749 0-.7177327-.1508148-.9709076-.445176-1.3273513-1.5432767-2.8070314-3.0005466-4.3981569-4.3318348-.5420851-.4536555-.6138583-1.2607262-.1602028-1.8028113.4533526-.542085 1.2604234-.6135554 1.8025084-.1602028 1.6980284 1.4206262 3.2779488 2.9772279 4.6964551 4.6258932.4606209.5357254.4000527 1.3437047-.1359755 1.8046284-.2413641.2077487-.5381481.3095033-.8337207.3095033zm-59.8640548 7.2857439c-.26438002 0-.5314856-.081767-.76043324-.2513579-.5678265-.4206459-.68744862-1.2219626-.26680275-1.7900919 1.10536892-1.4927023 2.32218329-2.9590575 3.62439869-4.3684786-.0563284-.1465749-.0866125-.306172-.0850983-.4727344.0205932-2.1338163.1771619-4.3272922.4645578-6.5192539.0920636-.7004708.7352975-1.1925871 1.4354654-1.1023405.7007736.0920636 1.1941013.7346918 1.1020377 1.4354654-.2674085 2.0381185-.4158005 4.0756314-.4412391 6.0592387.4391192.4924191.4333652 1.2480069-.0299812 1.7337635-1.4542415 1.5241978-2.8046087 3.1250142-4.0132463 4.757629-.251055.3388788-.6377827.5181606-1.0296587.5181606zm66.1822223 3.7119196c-.5426907 0-1.0466178-.3482669-1.2195399-.8930775-.591448-1.8651965-1.4297114-3.734027-2.4911684-5.5550087-.3558379-.6105271-.1496033-1.3939762.4609237-1.7498142.6108299-.3558379 1.3939762-.1499062 1.750117.4609237 1.1562462 1.9833044 2.0714311 4.0256628 2.7198132 6.070141.2138056.6738208-.1592942 1.3930677-.8328122 1.6065704-.1287073.0408835-.2592317.0602653-.3873334.0602653zm-60.7910504 3.3257977c-.561164 0-1.0759934-.3718885-1.2325621-.9391093-.5753975-2.0820305-1.0057343-4.2485536-1.2788967-6.4399096-.0878238-.7010765.4100465-1.3406762 1.1111229-1.4281972.7013793-.0884295 1.3406763.4100464 1.4281972 1.1114257.2580204 2.0684027.6641299 4.1122752 1.2062149 6.0749864.188367.681089-.2113828 1.3857995-.8924718 1.5741665-.114171.0314954-.2286448.0466375-.3416044.0466375zm-11.37136914 4.1910138c-.13930677 0-.2813391-.0230159-.42034303-.0711676-.66746112-.2322789-1.02057349-.9615195-.78829459-1.6292835.72560655-2.0856646 1.61202156-4.1134866 2.63501778-6.0271376.33312488-.6232463 1.1074888-.8585536 1.73164368-.5254287.62324637.3331248.85855367 1.1083973.52542879 1.7316436-.96030817 1.7967545-1.79312037 3.7016231-2.474815 5.6619116-.18382437.5281544-.67896907.8594622-1.20863763.8594622zm72.55035864 5.0662237c-.1117483 0-.2250107-.0148392-.3379703-.045729-.6816947-.1862471-1.0835644-.8900491-.8973173-1.5717437.4615294-1.6886403.6953225-3.4369402.6953225-5.1967481 0-.2471181-.0045427-.4936305-.0136279-.7398401-.0254386-.7062247.5263373-1.2994898 1.2325621-1.3249285.7119787-.0230159 1.2994898.5260345 1.3252313 1.2325621.0099937.2767965.0151423.5545015.0151423.8322065.0003026 1.9875442-.2643803 3.9629747-.7855693 5.8714774-.1553573.568735-.6710952.9427434-1.2337734.9427434zm-56.093384 2.4312059c-.4327595 0-.8549196-.2192567-1.095678-.6165838-1.1226308-1.8521744-2.136239-3.8130685-3.0135688-5.828474-.2819448-.6477765.0145364-1.4018501.6629185-1.6837949.6474737-.2822476 1.4018501.0145364 1.6837949.6626157.8316008 1.9103197 1.7922118 3.7688537 2.8557887 5.5232105.3661345.6044702.1732249 1.3912506-.4312453 1.757688-.207446.1256789-.4360908.1853385-.66201.1853385zm-18.88727204 4.9965704c-.02543863 0-.05087726-.0009086-.07661873-.0024228-.70561906-.041792-1.24376715-.6474736-1.20197512-1.3530927.13113006-2.212252.40186974-4.3981569.80525368-6.4971464.13324995-.6941112.80373948-1.1480695 1.49815343-1.0151224.69380826.13325 1.1483723.8040423 1.01512235 1.4981534-.38248793 1.9896641-.63929692 4.0638207-.76346165 6.165233-.04027783.6798776-.60416739 1.2043979-1.27647396 1.2043979zm68.28424034 3.2346425c-.3488726 0-.6965339-.1420323-.9491031-.4206459-.4742487-.5239145-.4342737-1.3331051.0896409-1.8076567 1.5372199-1.3918563 2.8488234-2.9357387 3.8984696-4.5877352.3788538-.5965964 1.1701768-.7728497 1.7661675-.3939959.5965964.3788538.7728497 1.1695712.3939959 1.7661675-1.1729024 1.8461175-2.6332007 3.5662533-4.3406172 5.1125584-.2449982.2216794-.5523816.3313078-.8585536.3313078zm-41.1872571 1.4811941c-.2873959 0-.576306-.096303-.8152474-.293755-1.6453341-1.3615725-3.2182892-2.9345276-4.6749534-4.6758622-.4533527-.5420851-.3815794-1.3491558.1605056-1.8025085.5423879-.4536555 1.3491558-.3815794 1.8025084.1602028 1.3567268 1.6217125 2.8182365 3.0841307 4.3436456 4.3463711.5445078.4503243.6205208 1.2570922.1701965 1.8016-.2531749.3058688-.6184009.4639518-.9866553.4639518zm30.1623378 4.790942c-.536331 0-1.0360184-.339788-1.2143916-.876422-.2228908-.670792.1402153-1.395187.8107048-1.618078 1.9833044-.658982 3.8727282-1.489371 5.615577-2.468455.6159781-.3461473 1.3963989-.127193 1.7425459.489088s.1271931 1.396398-.4890879 1.742546c-1.8848811 1.058428-3.924211 1.955443-6.0616614 2.665604-.1341585.044518-.270134.065717-.4036868.065717zm-18.8893919.96697c-.1011489 0-.203509-.012113-.3061721-.037249l-.1862471-.046638c-2.0917214-.532091-4.1283257-1.304335-6.054696-2.294927-.6283947-.323131-.8758156-1.09477-.5523817-1.723164.3231312-.628395 1.0947695-.875816 1.7231642-.552685 1.7546596.902466 3.6098623 1.605965 5.5144281 2.090207l.1662596.041793c.6862372.168682 1.1059746.861582.9375951 1.547819-.1435465.583877-.6665526.974844-1.2419501.974844zm7.4995495.880964c-.4091379 0-.8231213-.007268-1.2298365-.021804-.7065276-.024833-1.2589092-.617493-1.2337734-1.323717.024833-.706528.6217322-1.264664 1.3237171-1.233774.3773397.013325.7613418.019988 1.141407.019988h.0118108c1.6459397 0 3.3227692-.122954 4.9841539-.365529.6974423-.103269 1.3488529.381882 1.4509102 1.081444.1020574.69926-.3818822 1.348853-1.0814445 1.450911-1.7831266.260443-3.5844237.392481-5.3533168.392481zm-45.1699164 1.370658c-.61628102 0-1.15957742-.44669-1.26163477-1.074782-.35311237-2.175609-.59356796-4.354548-.71530996-6.475645-.04027783-.705619.49877879-1.3103922 1.20439785-1.3509729.70259065-.036038 1.31039214.4987788 1.3509728 1.2043979.11629087 2.033273.3473584 4.12348.68623725 6.212173.11326246.697443-.36038055 1.35491-1.05812575 1.468172-.06935054.011206-.13839824.016657-.20653742.016657zm3.19527326 12.348939c-.52694299 0-1.02057349-.32828-1.20651774-.853405-.72833212-2.059924-1.36914325-4.148617-1.90456578-6.207934-.17807039-.684117.23227889-1.382468.91639626-1.560539.68411736-.177767 1.38246824.232582 1.56023579.916397.51725208 1.989058 1.13656151 4.007492 1.84096921 5.998973.23561014.66625-.1135653 1.397307-.77981506 1.632918-.14112381.049968-.28527603.07359-.42670268.07359zm5.19069124 11.649074c-.45516968 0-.8955002-.242878-1.12687057-.671398-1.02996155-1.905171-1.99390381-3.860312-2.86457111-5.811515-.2880016-.645354.00181705-1.40185.64717079-1.690154.64535374-.288305 1.40215289.001817 1.69015449.64717.84432015 1.892453 1.7791897 3.789144 2.7785643 5.637382.3361533.622035.1044801 1.398519-.5169492 1.734369-.1938181.104783-.4021726.154146-.6074987.154146zm6.8826629 10.7457c-.3891505 0-.7731526-.176556-1.0248133-.511801-1.289799-1.720136-2.5323548-3.511439-3.6937492-5.324244-.3812766-.595082-.2077488-1.386708.3873334-1.767682.5944765-.381579 1.386708-.208051 1.7676817.387334 1.1277791 1.76011 2.333994 3.499022 3.5862407 5.168886.42428.565707.3095033 1.367629-.2559004 1.791607-.230159.172619-.4996874.2559-.7667929.2559zm8.4047406 9.607624c-.3231311 0-.6462622-.121742-.8951974-.365528-1.5272261-1.495428-3.0259852-3.082314-4.4541824-4.716443-.4651635-.532091-.4106522-1.340373.1214391-1.805537.5317885-.465163 1.3403734-.410955 1.8055369.121439 1.3848909 1.584463 2.8376182 3.122592 4.3176012 4.571988.5051385.494236.513618 1.304638.019079 1.809474-.2504493.2559-.5823629.384607-.9142764.384607zm9.8259726 8.140664c-.2504494 0-.5036243-.07359-.7253037-.226525l-.2792193-.193818c-1.6553278-1.155641-3.3027817-2.412127-4.89633-3.734633-.5435992-.451233-.6187037-1.258001-.1674709-1.801903.4512327-.543902 1.2583035-.618703 1.8022055-.167471 1.5387341 1.277383 3.129254 2.49026 4.7264364 3.60532l.2674084.185642c.5817572.401566.7280293 1.198341.3267652 1.780098-.2483294.359775-.6480793.55329-1.0544916.55329zm11.1169828 6.24488c-.1735278 0-.3500839-.035432-.5190691-.110537-1.9739163-.877633-3.9293594-1.858837-5.8115149-2.916357-.6159782-.34645-.8349321-1.126568-.4884822-1.742546.346147-.615978 1.1265677-.835235 1.7425459-.488785 1.8125022 1.018757 3.6955663 1.963923 5.5971037 2.808849.6456565.287396.9366865 1.043589.6495935 1.689246-.2119886.476974-.6798776.76013-1.1701769.76013zm56.3087042 2.703157c-.56601 0-1.083262-.377945-1.235591-.950617-.182007-.682906.224102-1.383983.907008-1.56599 2.035393-.542085 4.070484-1.148675 6.048034-1.802206.670792-.221982 1.394885.142336 1.616564.813128.221982.671095-.142335 1.394885-.813127 1.616867-2.025097.669278-4.108642 1.290102-6.192792 1.845209-.110234.029678-.221074.043609-.330096.043609zm-44.2265677 1.380348c-.0987261 0-.1992692-.01181-.2995095-.035735-2.1114061-.506653-4.2125155-1.111426-6.2442745-1.79736-.6698838-.225919-1.0293558-.951829-.8034366-1.62141.2259192-.669884.9524343-1.029961 1.6217125-.803436 1.9593799.661404 3.9859906 1.244675 6.0232006 1.73346.6871458.165049 1.1105172.855829.9457718 1.542974-.140821.586906-.6650384.981507-1.2434643.981507zm31.7171225 1.169571c-.6274862 0-1.1750223-.461832-1.2655717-1.100826-.0987261-.699865.3885447-1.347339 1.088107-1.446065 2.0544719-.290121 4.1452848-.651713 6.2152017-1.074479.6928997-.140518 1.3685375.305264 1.5099642.997558.1414266.692294-.3052635 1.368537-.9978604 1.509964-2.1204913.433365-4.2633928.80374-6.3693477 1.101129-.0605682.00848-.1208335.012719-.1804931.012719zm-19.1053175.747714c-.0299812 0-.0599624-.001211-.0902465-.003331-2.1722771-.151117-4.3418285-.389453-6.4480863-.707739-.6986537-.105691-1.1795649-.757707-1.0738735-1.456664.1056915-.698957.7583134-1.179565 1.4563614-1.073873 2.0387243.308291 4.1395309.538753 6.2433659.685328.7050134.04906 1.2368018.660496 1.1877416 1.365207-.0469403.675032-.6090128 1.191072-1.2752626 1.191072zm6.3793415.20139c-.7034992 0-1.2755655-.56813-1.2795197-1.27284-.0036168-.706528.5660267-1.282531 1.2728572-1.286468 2.06386-.011205 4.1801115-.097515 6.2900033-.256506.7059219-.056329 1.3191745.474854 1.3721717 1.179868.0533.704407-.4751572 1.318871-1.1795649 1.372171-2.1692487.163534-4.3454626.252267-6.4686795.263775z" fill="#52d1bd" mask="url(#a)" transform="translate(0 33.406165)"/><path d="m115.026203 199.160132c-.505441 0-.983929-.301327-1.185924-.798289-.265894-.654439.04906-1.400941.703802-1.667138 1.767984-.718642 2.749189-1.19077 2.855183-1.242253.635663-.308292 1.401547-.043307 1.710142.592659.308292.635663.043003 1.401245-.59266 1.709839-.113868.055117-1.165331.561164-3.009329 1.310695-.157477.0639-.320708.094487-.481214.094487" fill="#52d1bd"/><path d="m106.785148 121.58095c-10.049469 0-18.1961893 8.14672-18.1961893 18.196189v159.16101c0 10.049469 8.1467203 18.19619 18.1961893 18.19619h27.216605v32.465745c0 5.20129 5.605886 8.472879 10.134265 5.914783l67.943847-38.380528h119.63544c10.049469 0 18.19619-8.146721 18.19619-18.19619v-159.16101c0-10.049469-8.146721-18.196189-18.19619-18.196189z" fill="#55c1a5"/><path d="m358.637762 131.567973v159.268822c-.01696 3.181948-.853103 6.167655-2.307647 8.765424-1.906686 3.41241-4.883914 6.146456-8.475606 7.750604h-.00424c-2.264946 1.015123-4.773073 1.573864-7.409 1.573864h-119.633926l-67.944755 38.380831c-4.525956 2.555068-10.134871-.716824-10.134871-5.916298v-32.464533h-27.213879c-10.049469 0-18.1964926-8.147023-18.1964926-18.196492v-159.162222c0-3.03295.7422628-5.894796 2.0559861-8.411403 3.0368875-5.813937 9.1239875-9.785089 16.1405065-9.785089h225.038271c9.998289.05966 18.085653 8.185484 18.085653 18.196492" fill="#fff"/><path d="m219.371333 176.295046h-81.966891c-3.71949 0-6.762435-3.042945-6.762435-6.762133 0-3.71949 3.042945-6.762435 6.762435-6.762435h81.966891c3.719188 0 6.762132 3.042945 6.762132 6.762435 0 3.719188-3.042944 6.762133-6.762132 6.762133" fill="#44a088"/><path d="m187.609117 204.26627h-50.204947c-3.719188 0-6.762132-3.042945-6.762132-6.762132 0-3.719491 3.042944-6.762435 6.762132-6.762435h50.204947c3.719188 0 6.762435 3.042944 6.762435 6.762435 0 3.719187-3.043247 6.762132-6.762435 6.762132" fill="#44a088"/><path d="m318.551391 204.26627h-111.372732c-3.719187 0-6.762132-3.042945-6.762132-6.762132 0-3.719491 3.042945-6.762435 6.762132-6.762435h111.372732c3.719188 0 6.762133 3.042944 6.762133 6.762435 0 3.719187-3.042945 6.762132-6.762133 6.762132" fill="#44a088"/><path d="m219.371333 232.237494h-81.966891c-3.71949 0-6.762435-3.042945-6.762435-6.762132 0-3.719491 3.042945-6.762435 6.762435-6.762435h81.966891c3.719188 0 6.762132 3.042944 6.762132 6.762435 0 3.719187-3.042944 6.762132-6.762132 6.762132" fill="#44a088"/><path d="m318.551391 232.237494h-80.327613c-3.719188 0-6.762435-3.042945-6.762435-6.762132 0-3.719491 3.043247-6.762435 6.762435-6.762435h80.327613c3.719188 0 6.762133 3.042944 6.762133 6.762435 0 3.719187-3.042945 6.762132-6.762133 6.762132" fill="#44a088"/><path d="m198.059911 260.208748h-60.655681c-3.719187 0-6.762132-3.042944-6.762132-6.762132 0-3.719491 3.042945-6.762435 6.762132-6.762435h60.655681c3.719188 0 6.762132 3.042944 6.762132 6.762435 0 3.719188-3.042944 6.762132-6.762132 6.762132" fill="#44a088"/><path d="m278.285103 260.208748h-60.65568c-3.719188 0-6.762132-3.042944-6.762132-6.762132 0-3.719491 3.042944-6.762435 6.762132-6.762435h60.65568c3.719188 0 6.762133 3.042944 6.762133 6.762435 0 3.719188-3.042945 6.762132-6.762133 6.762132" fill="#44a088"/><path d="m11.4010475 0h140.9339305c6.296666 0 11.401048 5.10438165 11.401048 11.4010475v99.7248695c0 6.296666-5.104685 11.40135-11.401351 11.40135h-17.052965v20.342119c0 3.258567-3.512347 5.308799-6.349663 3.705863l-42.5712394-24.047982h-74.9597601c-6.29666585 0-11.4010475-5.104382-11.4010475-11.401047v-99.7251725c0-6.29666585 5.10438165-11.4010475 11.4010475-11.4010475" fill="#41d0c2" mask="url(#b)" transform="translate(236.264095 225.47524)"/><g fill="#fff"><path d="m312.555053 263.351236h-53.114339c-2.410007 0-4.381804-1.971796-4.381804-4.381803 0-2.41031 1.971797-4.382107 4.381804-4.382107h53.114339c2.410007 0 4.381803 1.971797 4.381803 4.382107 0 2.410007-1.971796 4.381803-4.381803 4.381803"/><path d="m291.973265 281.4765h-32.53237c-2.41031 0-4.382106-1.971796-4.382106-4.381803 0-2.41031 1.971796-4.382107 4.382106-4.382107h32.53237c2.410007 0 4.381804 1.971797 4.381804 4.382107 0 2.410007-1.971797 4.381803-4.381804 4.381803"/><path d="m376.823351 281.4765h-72.169082c-2.410007 0-4.381803-1.971796-4.381803-4.381803 0-2.41031 1.971796-4.382107 4.381803-4.382107h72.169082c2.410008 0 4.381804 1.971797 4.381804 4.382107 0 2.410007-1.971796 4.381803-4.381804 4.381803"/><path d="m312.555053 299.601764h-53.114339c-2.410007 0-4.381804-1.971796-4.381804-4.381803 0-2.41031 1.971797-4.382107 4.381804-4.382107h53.114339c2.410007 0 4.381803 1.971797 4.381803 4.382107 0 2.410007-1.971796 4.381803-4.381803 4.381803"/><path d="m376.823351 299.601764h-52.051973c-2.410007 0-4.382106-1.971796-4.382106-4.381803 0-2.41031 1.972099-4.382107 4.382106-4.382107h52.051973c2.410008 0 4.381804 1.971797 4.381804 4.382107 0 2.410007-1.971796 4.381803-4.381804 4.381803"/><path d="m298.745331 317.726998h-39.304496c-2.41031 0-4.382107-1.971796-4.382107-4.381803 0-2.41031 1.971797-4.382107 4.382107-4.382107h39.304496c2.410007 0 4.381803 1.971797 4.381803 4.382107 0 2.410007-1.971796 4.381803-4.381803 4.381803"/><path d="m350.730952 317.726998h-39.304496c-2.410007 0-4.382106-1.971796-4.382106-4.381803 0-2.41031 1.972099-4.382107 4.382106-4.382107h39.304496c2.410007 0 4.381803 1.971797 4.381803 4.382107 0 2.410007-1.971796 4.381803-4.381803 4.381803"/></g><path d="m9.07303062 44.0684406c-.02331874.0102966-.04663748.0205932-.06965338.0308898.02271306-.0102966.04633464-.0205932.06965338-.0308898m.49847595-.2116857c-.06511077.0263471-.12840449.0526943-.19169822.0790414.06299089-.0263471.12658745-.0526943.19169822-.0790414m.86339913-.3179829c-.2565062.0847955-.5054413.1762534-.74347417.2698312.23773003-.0938807.48696797-.1850357.74347417-.2698312m.8812667-.251055c-.2825505.0669278-.562981.1477863-.8355377.2362158.2728595-.0887323.5529872-.1689851.8355377-.2362158m.8870207-.1595971c-.2837618.0333125-.5708549.085704-.8561309.1523289.285276-.0666249.5720662-.1190164.8561309-.1523289m19.6062161 2.7461604c-.0175647.0096909-.0336153.0196846-.0511801.0293755.0181705-.0499687.0384608-.0987261.0578426-.1480891-.0021199.039975-.0045426.0781329-.0066625.1187136m-18.31672-2.7364695c-.0860068-.0139306-.1729221-.0251358-.2613516-.0330096.0884295.0078738.1753448.019079.2613516.0330096m1.2319564.5208862c-.3476612-.2798249-.7634617-.4433589-1.2168143-.5190691.4536555.0757102.8694559.2383357 1.2168143.5190691m-2.0684027-.5663123c-.138701.0051483-.2792192.0166563-.420343.032404.3364561-.0375523.6674611-.0481517.9842326-.020896-.1838244-.0157478-.3721913-.0193819-.5638896-.011508m39.0164943 105.5618223c-.2334903-.213805-.5339084-.382185-.9109452-.47758-1.9378782-.476368-6.2903062-3.557773-7.5710199-4.283985-.1711051-.097515-.31768-.181402-.45093-.249238l-.003634-.000606c-.2262221-.122954-.4000527-.205326-.5493533-.250752.0632938-4.944482-4.9741601-21.912955-4.7473323-38.258181.2162283-15.4309502-1.3191745-29.4179553-1.8936635-34.0568707.3294908-.2619573.4803055-.631423.3939959-1.1401956-.215017-1.266783-.6947168-2.8170251-1.2516411-4.510208l-.0333124-.1041772c.7183383-.6823003-.1904869-1.6995426-.7328748-2.1986242-.6438395-1.9406038-1.2922217-3.9850821-1.7189243-5.9644495-.5030186-2.3267259-.9815071-4.8942102-1.0136082-7.2439519.1592943-.0814642.331005-.1701965.5093782-.2622601 0 .0972119.0012114.1947266.0018171.2922413.0003028.0681392.0009085.1359755.001817.2041147.0018171.1832187.0048455.3667402.0087824.5508674.0012114.0460318.0012114.0917608.0024227.1380954.0006057.0302841.0021199.060871.0030284.0917608.0042398.1535403.0096909.3070806.0154449.4606209.0033313.0854011.0066625.1708022.0102966.2562033.0066625.1496033.0148392.298601.0233187.4475987.0051483.0887323.0099938.1774647.0157478.266197.009388.1447579.0202903.2880016.0314954.4315482.0072682.0911551.0142335.1823101.0221074.2728595.0121136.1383983.0260443.2749795.039975.4118635.0096909.0935778.0187761.1871556.0293755.2798249.0148392.1305244.0317983.2586261.0484546.3870306.0127193.0956976.0245301.192001.0381579.2861845.0178676.1226505.0378551.2425755.0575398.3628033.0157477.0960005.0308897.1926067.0478488.2870931.0205932.1147766.0436091.226222.0663221.3382731.0193818.095092.0378551.1907897.0584483.283459.0236216.1066.0499687.209263.076013.3131374.0230159.0926693.0451233.1865499.0699563.2767965.0269528.0987261.056934.1923039.0860068.2876988.0269528.0890351.0532999.1795845.0823727.2655913.030284.0902466.0638994.175042.0966062.2619573.0311926.0838869.0617795.1698937.095092.2501465.0345238.0823727.0720761.1583858.1087198.2368215.0357352.0769216.0699563.1565687.1081142.2295534.0387636.0748016.0811613.1423351.1223477.2125942.039975.068442.0784357.1399124.1205306.2041147.0442148.0669278.0920636.1253761.1383983.1874584.0442147.0587512.0860067.1208335.1320385.175042.0517858.0602653.1078114.1111426.1623227.1656539.045729.045729.0890352.0963034.1368841.1377926.064505.0560256.1341584.100846.2026004.148392.0427006.0299812.0826756.0654136.1271932.0920636.1150795.0690477.2353073.1271931.3609862.1729221 2.3361139.8485599 3.1462131-1.0656968 3.3488136-3.0014552.0793442-.757102.0651107-1.5163238.0118107-2.1165543-.0433062-.4848481-.1108397-.8630963-.1759505-1.0535831-.0708647-.209263-.1817044-.5178578-.3082919-.8924719-.0051483-.0154448-.0105994-.0321011-.0157477-.0478488-.0381579-.1132625-.0775273-.2328846-.1178051-.3570493-.0142335-.0439119-.0281642-.0878238-.0427005-.1326443-.0199875-.0629909-.039975-.1265874-.0599625-.1916982-.0193818-.0623852-.0387636-.1265875-.0581454-.1907897-.02665-.0890352-.0533-.1795846-.0796472-.2716482-.0184733-.0635966-.0366437-.1281017-.0548142-.1932124-.016959-.0617796-.034221-.1241648-.0511801-.1874585-.0260443-.0978176-.0514829-.1968465-.0763158-.2964811-.017262-.0690477-.0339182-.139004-.0502716-.2086573-.0166562-.0699563-.0327068-.1402153-.0481517-.2107772-.0145364-.0651108-.0290727-.1302216-.0423977-.1956352-.0224102-.1087198-.0436091-.2171368-.0632937-.3258567-.0124165-.0681392-.0233188-.1359755-.034221-.2038118-.0081767-.0499688-.0154449-.0999375-.0230159-.1496034-.0251358-.1689852-.0448205-.3361533-.0605682-.5018072l2.9478523-.3858192c.7262123-.095092 1.2377104-.7607361 1.1426184-1.4869483l-.1847329-1.4130552c.2919385-.340393.5027157-.6423253.5790316-.8431087.3228283-.8437145-.1592943-4.5392808-1.0438923-5.3832981-.2807334-.2680141-.5199776-.23773-.7159156-.0566312-.0854011-.0714704-.1783732-.1326443-.2795221-.180796-.2819447-.2964811-.6944139-.4615293-1.1314132-.4045953l-2.4887457.3258567c-.5905395-1.3403733-1.4003358-2.866691-2.4511934-4.1922251.6123441-.2295534 1.0154252-.6108299 1.3818626-1.065394.2628658-.325251.5063498-.6868429.7979855-1.055703 1.1404984-1.4466705-5.0577442-2.8930381-1.7428488-8.6791144 2.3703349-4.137411 2.3700321-9.3586892 2.0063203-12.0600291.3343362-1.0723593.4164061-1.8600482.4164061-1.8600482.7498338-2.8303501-3.0350705-8.25937709-8.9586365-9.59005955-.190184-.04330624-.3806709-.08206986-.5760032-.11568519-6.870852-1.20560922-10.0049515 5.54471217-13.1390509 6.267896-3.13409939.72348667-5.66524278 4.33940584-5.78607626 7.47350524-.06480793 1.7143817-.56388957 4.1128809-1.67289257 6.1331318-.00242273.0048455-.00484545.0096909-.00726818.0145364-1.31614611 2.5892888-3.35093343 4.6504233-4.89633002 10.9307357-.98877521 4.0147605-.70864747 7.455032-.02392443 10.1500122.14384938.5657066.43185098 1.080536.83038947 1.5069358.00181705.0021199.00393693.0045427.00605682.0063597.23863855.2555976.49181345.5520788.76406733.9018599.17110505.2241022.35190101.4675862.53996514.7328747 1.40427278 1.9890584 3.17649713 1.4578756 4.67131931-.0033312.04996874.188367.09266929.3752197.15051188.5651009 0 0 .14536358-.0863096.3933902-.2189539l5.83362231 10.3056724s.378551.5856941 1.1017348 1.1789592h.0003028c-.4987787 1.7707101-1.3567267 4.5713818-2.1459299 5.9523359-1.2053063 2.1092861-.0890351 2.651674-.0890351 2.651674s-.0048455 0-.0145364.0024227c-.0820699.0242273-.486968.2122914-.8800554 1.6323119-.0554198.1950295-.108417.4121664-.1614141.6556504-.4821226 2.2301196-2.92211087 4.1274172-.9042826 4.4287438.1650482.0245301.3615919.0360381.5808486.0384608-4.15830698 7.8650784-1.73982037 21.717925-1.31826597 34.6892021.07934427 2.444531.08661247 4.857869-.03391817 7.19156-.63808557 12.391337-3.8621287 25.253592-3.73735829 30.346163-.18806414.331005-.31768.264077-.41307485.622035v.003331c-.08661247.323737-.14415222 1.006643-.19563516 2.664393-.121742 3.940867.84008038 5.755792 2.32793722 6.627671 1.48482843.869153 5.69461832.7889 6.75910382.400961.4618322-.169893.7216696-.808282.7985911-1.603239.0993318-1.039047-.1123539-2.343988-.5869054-3.222529-.3173772-.586603-.6123441-1.423654-.8752099-2.337628-.1929096-.661101-.369163-1.360967-.5275487-2.034484 1.0896212-5.792436 4.7630801-33.112008 7.371145-40.386849 1.2240825-3.417559 1.9766419-6.5095633 2.6877121-9.4440906.8764213 1.4394023 1.8306726 3.0901875 2.6668161 4.7833704 1.4054841 2.8400412 2.4760263 5.7933442 2.2758486 8.0352752-.4606209 5.153744 4.654663 29.758045 6.6658288 36.506549-.6941111.089944-.9709076.629001-.9709076.629001-.3906647.429731-.6041674 1.465446-.694414 2.483597-.0481517.539965-.062688 1.075993-.0563284 1.51057.0090853.44245.0463347.781026.0963034.914579.1938181.511801 17.1501772 1.824313 18.1229019 1.579012.3658317-.090246.6038645-.501504.6559532-1.007854.0590539-.576003-.1281017-1.271023-.6420225-1.747089" fill="#4076a3" mask="url(#c)" transform="translate(77.866233 228.712259)"/><path d="m106.788449 328.462977c1.405484 2.840041 2.476026 5.793042 2.275849 8.035275-.528155 5.906304 6.267896 37.36268 7.321479 38.206395 1.05116.844017 3.683755-.241061 5.91872-1.205306 2.237085-.964246-4.558965-20.728242-4.296099-39.653066.264985-18.924824-2.104744-35.680097-2.104744-35.680097l-10.918622-1.687429s-1.130505 6.692479-2.138359 12.78927c-.812219 4.908443-1.545094 9.428645-1.545094 9.751776 0 .448507 3.19164 4.795181 5.48687 9.443182" fill="#15315e"/><path d="m101.301428 319.019795c0 .448507 3.191942 4.795181 5.48687 9.443182l2.992067-25.270248s-3.910584 3.380007-6.93354 6.07529c-.812522 4.908443-1.545397 9.428645-1.545397 9.751776" fill="#122c51"/><path d="m110.450279 263.390878c2.647131.404898 3.558379-.228948 4.320327-1.174114.262563-.325553.506047-.687145.797985-1.056006 1.140196-1.446367-5.058047-2.892735-1.743151-8.678811 3.314895-5.786076 1.993601-13.693552 1.526014-13.862235-1.704388-.612344-7.541038 6.98896-11.101841 12.748386-1.350064 2.184391-2.372151 4.10319-2.719207 5.212193-1.265875 4.03808 5.363916 6.268199 8.919873 6.810587" fill="#1f3a6f"/><path d="m110.450279 263.390878c2.647131.404898 3.558379-.228948 4.320327-1.174114-6.171896-3.302781-3.085948-12.145733-2.922111-12.526404 0 0-5.494138 1.267995-7.598882 1.677738-1.350064 2.184391-2.372151 4.10319-2.719207 5.212193-1.265875 4.03808 5.363916 6.268199 8.919873 6.810587" fill="#15315e"/><path d="m87.4969148 374.589628c2.507219 1.205306 5.7788081.602653 6.3042369 0 .5281544-.602653 4.7373386-33.389712 7.6327993-41.465871 2.892735-8.076461 3.155601-14.344357 6.446269-20.974148 3.288549-6.62979 1.314027-14.705949 1.314027-14.705949s-9.9564973-6.786359-15.9836349.662919c-.2507521.306172-.4893907.634148-.7231838.988472-5.0168606 7.630074-2.3821457 22.179454-1.9409067 35.757322.0796472 2.444531.0869154 4.857566-.0336153 7.191257-.7882946 15.308603-5.5256332 31.340692-3.0159915 32.545998" fill="#1f3a6f"/><path d="m90.5466125 334.852221c.5690379-5.877534-.6438395-21.19825 1.8031141-27.683283 2.8788046-7.632799 13.0500154-8.358406 13.0500154-8.358406s-6.8033182-.477277-12.1893418-.704105c-.2504494.306475-.4893908.634149-.7231839.988473-5.0168606 7.630376-2.3818428 22.179454-1.9406038 35.757321" fill="#15315e"/><path d="m81.1881959 269.825882c.1438494.565706.4318509 1.080536.8300866 1.507238.0021199.00212.0042398.00424.0060568.00636.2386386.255295.4918135.551776.7643702.901557.171105.224102.351901.467586.5399651.732875 2.8930382 4.098344 7.3529746-2.49026 7.7145665-5.906607.3615919-3.416044 3.616222-5.865421 5.7088519-7.996511 1.2028837-1.224689 2.1092862-3.674065 2.2876594-5.829383.0121136-.152026.0218045-.301327.02665-.45093.036038-1.077507-.1277988-2.051443-.5496561-2.714362-.1277988-.2026-.279522-.376128-.4581981-.516041-1.5211693-1.193495-1.7165016-3.79944-.5832714-4.624076.2386386-.173528.5351197-.269831.8942889-.252872.1568715.004543.3279766.031193.5087726.08419.4724316.135067.8173673.185641 1.0920439.178373.3061718-.009691.5233088-.091458.7256068-.211988.28467-.168986.540268-.414892.976358-.638995.465467-.238638 1.135653-.457895 2.268581-.532697 3.180131-.212291 2.362764 3.488424 5.88238 2.745858h.002422c.482426-.103572 1.043892-.28679 1.709537-.576306.303749-.132644.588116-.284368.855828-.450627 3.379703-2.112012 3.857283-6.719129 3.857283-6.719129.749531-2.830047-3.035373-8.259377-8.958637-9.59006-.190486-.043306-.380973-.082069-.576306-.115685-6.8708516-1.205609-10.0049511 5.544712-13.1387476 6.267896-3.1340995.723487-5.6655457 4.339709-5.7860763 7.473808-.0651108 1.714079-.5641924 4.112578-1.6731954 6.132829-.0024228.004846-.0048455.009691-.0072682.014537-1.3161461 2.589289-3.3509335 4.650423-4.89633 10.930735-.9884724 4.014761-.7086475 7.455335-.0236216 10.150013" fill="#1f3a6f"/><path d="m82.7886186 272.241007c.1711051.224102.351901.467586.5399652.732874 2.8930381 4.098345 7.3529746-2.490259 7.7145665-5.906606.3615919-3.416045 3.6162219-5.865421 5.7088519-7.996512 1.2031864-1.224688 2.109589-3.674064 2.2879622-5.829382-1.072965 1.166845-3.3366999 3.11714-6.3381551 2.977228-3.8475923-.180796-11.6996485 6.16705-9.9131907 16.022398" fill="#15315e"/><path d="m94.5785743 257.785568s4.7806449 6.535607 8.3968667 5.730353c3.616222-.807373 5.231575-3.497811 5.231575-3.497811s-1.634735-.130222-2.596557-1.407907c-.508773-.672609-.831601-1.661082-.634149-3.11502l-6.0631753-4.445401c.0024227.224103-.2071431 1.588703-.7979855 3.042339-.6459595 1.591126-1.750117 3.283703-3.5365749 3.693447" fill="#fdc8aa"/><path d="m98.1152097 254.092182c2.7361663 4.161032 5.9596043 4.590158 7.4953093 4.517779-.508772-.67261-.831903-1.661082-.634148-3.114718l-6.0631758-4.4454c.0024228.224102-.2071431 1.588703-.7979855 3.042339" fill="#fbb188"/><path d="m95.785304 247.117879c0 1.902143 1.0342014 3.442694 2.309464 3.442694.062688 0 .1229533-.004845.1856414-.012113 1.1017348 3.324586 3.7609796 5.670088 6.8660066 5.670088.62688 0 1.234379-.096303 1.815531-.274677 3.215866-.99574 5.597709-4.568353 5.597709-8.825992 0-1.222265-.197755-2.389111-.554502-3.454808-1.10658-3.314895-3.760677-5.646163-6.858738-5.646163-3.105027 0-5.7642718 2.345804-6.8660066 5.670391-.0626881-.007268-.1229534-.012114-.1856414-.012114-1.2752626 0-2.309464 1.540551-2.309464 3.442694" fill="#fdc8aa"/><path d="m95.6382446 277.120469c.1447579 2.916962.2677112 6.099213.2677112 6.099213s-1.3670233 5.424485-2.5723297 7.533771c-1.2056092 2.109589-.0893381 2.651977-.0893381 2.651977s-.0048454 0-.0145363.002422c-.081767.024228-.486968.212292-.8797525 1.632312-.0554199.19503-.1087199.412167-.161717.655651-.4821226 2.230119-2.921808 4.127114-.9039798 4.428743 2.020251.301327 8.4089804-1.205609 12.7168906-.872787 4.310636.330097 13.049713 2.591712 12.507325-.602653-.219257-1.292222-.713493-2.878502-1.284953-4.611962v-.002423c.718641-.682301-.190487-1.699543-.732875-2.198624-.643537-1.940604-1.292222-3.985082-1.718924-5.96445-.520584-2.408493-1.019665-5.077126-1.019665-7.492887 0-1.115968.108417-2.179242.373705-3.138642.255598-.937898.660496-1.774344 1.258304-2.466335 0 0 2.328845-1.849146 3.695869-1.849146 0 0-2.933922-11.410436-9.963765-10.928313-7.032569.482425-12.536398-2.210738-12.536398-2.210738s-3.2352483.181099-4.6816159 2.198927c-1.4466705 2.020251-3.597143 7.485316-1.7479971 13.550914 0 0 4.942059-2.94331 7.1434087-1.16412.0048455.004543.0118108.016656.0166563.036038.089338.306172.2147141 2.427572.3279766 4.713112" fill="#5693db"/><path d="m95.3103891 272.407327c.0890352.306172.2144113 2.427572.3279766 4.713111l3.1313738 4.893908-2.984496-14.182641s-.3494783 4.259759-.4748544 4.575622" fill="#3177bc"/><path d="m110.582863 271.966116v.004848c.024227.113262.482122 3.365469 1.169268 6.408111 0-1.116271.108417-2.179545.373705-3.138945-.552078-1.231956-1.509055-3.276435-1.542973-3.274014" fill="#3177bc"/><path d="m115.223686 294.034733v.002423s-1.174114 1.547819-8.437751.735297c-6.624945-.740143 4.50082 2.427572 8.977716.952131z" fill="#3177bc"/><path d="m92.349878 295.040043c3.5174959 1.152309 8.674269-2.157741 5.8969161-1.453636-2.8521547.723184-5.0026272-.180796-5.0026272-.180796s-.0045426 0-.0142335.002423c-.0820699.023924-.486968.211989-.8800554 1.632009" fill="#3177bc"/><path d="m112.282496 279.550554c.096303 3.837901.694414 7.741216 2.733744 8.481359 2.336114.84856 3.146213-1.065696 3.348813-3.001455.079345-.757102.065111-1.516627.012114-2.116857-.043609-.484545-.111143-.863096-.176253-1.053583-.228948-.675032-.872485-2.384266-1.120814-4.013852-.130222-.846137-.154449-1.673195.043306-2.319155.007268-.024227.014536-.046032.019382-.067533.539965-1.803417-.159294-.908826 1.07993-1.822496.270134-.197755.516041-2.121703-.607498-2.177123-.496659-.026347-.925785.103572-1.263149.183219-.13749.031192-.258021.052997-.361895.05542-.224102.002422-.368557-.093881-.417012-.426703-.050574-.359169-.007268-.694111.125376-.998163.185642-.429126.549656-.790718 1.070542-1.060549.889444-.460621.298904-1.374291-.981204-.90186-.144758.052998-.298904.115988-.455775.188065-.30375.139912-.624458.31344-.937595.51604-.294362.188064-.581152.404898-.836749.641114-.569038.533-.98605 1.176537-.993318 1.885487-.004846.532697-.19291 2.509642-.267409 4.9251-.029072.978781-.041186 2.027519-.014536 3.083525" fill="#fdc8aa"/><path d="m115.016361 288.031823c2.336114.848559 3.146213-1.065697 3.348511-3.001456-.525429.776181-1.386103 1.357333-2.798855 1.202884-3.278857-.354324-1.595971-14.107839-1.171691-17.218014-.954554.612345-1.81765 1.499668-1.829764 2.526601-.019382 1.533283-1.53086 15.043617 2.451799 16.489985" fill="#fbb188"/><path d="m118.377016 282.913662c-.043307-.484546-.11084-.863097-.175951-1.053584-.349478-1.026933-1.653814-4.442977-1.07781-6.333309.576306-1.892452-.154146-.964245 1.099615-1.89003.269831-.197452.515738-2.121399-.607802-2.176819-.496356-.02665-.925784.103571-1.263149.183218-.115685.64596-.23137 1.453636-.34221 2.456645-.578729 5.253076 1.128082 7.731526 2.367307 8.813879" fill="#ffd6bb"/><path d="m112.282496 279.550554c1.236802-1.157155 3.524461-1.574166 4.797604-1.704388-.130222-.846137-.154449-1.673195.043306-2.319155.007268-.024227.014536-.046032.019382-.067533-.272557-.11084-.554502-.226828-.672609-.287093-.262866-.132342-1.728616.675032-1.841878.735297-.086916.046032-1.61293.39551-2.331269.559347-.029072.978781-.041186 2.027519-.014536 3.083525" fill="#ea9165"/><path d="m106.961825 255.943871c3.21617-.99574 5.598013-4.568353 5.598013-8.825992 0-1.222265-.197755-2.389111-.554502-3.454808h-1.422443c0 .332822 2.876079 6.931118-3.621068 12.2808" fill="#ffd6bb"/><path d="m113.370361 243.992199s-1.502394 2.794009-3.679516 2.288568c-2.17682-.505442-2.964811-1.163515-3.801258-2.288568-.836446-1.125054-3.701926-.605379-4.197979.079041-.49575.68442-2.5926199 1.388525-3.3993878.542994-.7631588-.799803-2.3521645 2.747372-.4475987 4.578347 1.9045658 1.831278.5384509 4.00083.176859 4.282169s-2.3285429-1.848237-2.128668-2.691952c.2001778-.844017-1.2047007-4.339709-1.2053069-4.701301-.000908-.361591 1.1241456-3.134099 1.5260153-3.736752.4015669-.602653 3.4554135-4.339406 4.3796841-4.741276.923967-.401869 3.334882-1.486645 4.218875-1.486645.883992 0 3.817005.763462 4.459936 1.205609.642931.441845 4.098345 6.669766 4.098345 6.669766" fill="#1f3a6f"/><path d="m113.557819 269.656594c.188064 1.634431.622035 5.185543.622035 5.185543l2.309464-.723184-.499082-2.420304-.291635-1.424866-.366438-1.774344c-.303749.139912-.624457.31344-.937898.515738-.294058.188064-.580848.405201-.836446.641417" fill="#ea9165"/><path d="m116.382385 277.047817 3.187097-.417315c.726212-.094789 1.23771-.760433 1.142921-1.486645l-.897015-6.852682c-.095092-.725909-.760736-1.23771-1.486948-1.142618l-3.187097.417315c-.726212.095092-1.23771.760736-1.142618 1.486645l.896712 6.852682c.095092.725909.760736 1.23771 1.486948 1.142618" fill="#3db29c"/><path d="m116.775079 277.333971 3.187399-.417314c.725909-.094789 1.237408-.760434 1.142618-1.486646l-.897014-6.852681c-.095092-.72591-.760736-1.237711-1.486948-1.142619l-3.187097.417315c-.726212.095092-1.23771.760736-1.142618 1.486645l.896711 6.852682c.095092.726212.760736 1.23771 1.486949 1.142618" fill="#52d1bd"/><path d="m88.5432298 273.316213 5.8342279 10.306278s.378551.585694 1.1017349 1.178959c.8028309.653228 2.0323646 1.318569 3.6401464 1.19077 3.054755-.241061 10.728135-6.429613 12.133619-7.111913.149604-.072379.318286-.156569.501505-.250752 1.523592-.778604 4.033233-2.150473 5.325455-2.080517 1.446671.08207 4.098345-2.531446 4.419053-3.37516.323131-.843715-.158991-4.539584-1.043892-5.383298-.431548-.412167-.76649-.125377-.993318.342512-.236216.489391-.354324 1.178657-.332519 1.46575 0 0-.040884 1.325837-.923362 1.788578-.884901.460621-1.162 1.053583-1.767076-.356747v-.002422c-.016959-.038461-.033918-.074499-.050574-.11084-.56177-1.234379-1.046315-.966668-1.273143.699259-.006965.062688-.016656.127799-.023924.19291-.122954 1.046315-1.248916 1.976642-2.767662 2.808545-1.219843.667764-2.695284 1.270417-4.10319 1.820074-3.16287 1.236801-8.6791148 3.736752-9.4310685 2.622904-.7183384-1.062972-3.2425164-6.176438-3.4787323-6.653716 0-.002422-.0024227-.002422-.0024227-.002422-.0048454-.014537-.0096909-.024227-.0121136-.029073-.0024227-.002423-.0024227-.004845-.0024227-.004845-.5569243-.448205-1.2873763-.597808-2.0684027-.566313-1.1550348.043307-2.4206065.474855-3.399388.894289-.5351196.228948-.9836269.458198-1.2825307.61719" fill="#fdc8aa"/><path d="m88.5432298 273.316213 5.8342279 10.306278s.378551.585694 1.1017349 1.178959c.8028309.653228 2.0323646 1.318569 3.6401464 1.19077 3.054755-.241061 10.728135-6.429613 12.133619-7.111913.149604-.072379.318286-.156569.501505-.250752 1.523592-.778604 4.033233-2.150473 5.325455-2.080517 1.446671.08207 4.098345-2.531446 4.419053-3.37516.323131-.843715-.158991-4.539584-1.043892-5.383298-.431548-.412167-.76649-.125377-.993318.342512 3.10533 2.709517-.161414 7.364786-1.58628 7.352975-1.477863-.012114-3.888476 1.115968-5.06259 1.598394-1.174113.482122-8.659732 6.096791-12.71689 7.302097-4.0574615 1.205609-5.3039542-2.372152-5.3039542-2.372152l-4.9662863-9.315383c-.5351196.228948-.9836269.458198-1.2825307.61719" fill="#fbb188"/><path d="m93.2250274 271.804613c2.2564668 1.535706 3.5293066 8.126733 6.0271375 8.592199 2.7434351.513618 14.2840921-5.602857 15.6701941-6.718826.850983-.684723 1.270417-1.914256 1.46575-2.760394-.56177-1.234379-1.046315-.96697-1.27284.698957-.007268.062688-.016959.127799-.024227.19291-.122954 1.046315-1.248613 1.976944-2.767663 2.808545-1.219842.667764-2.695283 1.270417-4.10319 1.820073-3.162869 1.236802-8.6788111 3.736753-9.4310676 2.623207-.7183384-1.063274-3.2425165-6.176741-3.4787323-6.654018 0-.002422-.0024227-.002422-.0024227-.002422-.0048455-.014537-.0096909-.023925-.0121137-.02877-.0024227-.002423-.0024227-.004846-.0024227-.004846-.5569242-.448507-1.2873762-.597807-2.0684026-.566615" fill="#ffd6bb"/><path d="m132.883635 379.113494c-.052089.50635-.290424.917911-.655953 1.007854-.973028.245301-17.929387-1.067211-18.122902-1.579012-.049969-.133552-.087521-.472128-.096303-.914276-.00636-.434879.008176-.970908.056328-1.510873.090246-1.01815.303446-2.053866.694414-2.483597 0 0 .566615-1.112334 2.122005-.411258.416406.187156.884598.294664 1.362481.336759 1.313723.11508 2.708911-.273768 3.337306-.879752.738326-.712888.870667-.788598 1.724072-.32404l.003634.000303c.13325.067836.279825.151723.45093.249238 1.280714.726212 5.633142 3.807617 7.57102 4.284288.377037.095092.677455.263472.910643.477278.51392.476065.701379 1.171388.642325 1.747088" fill="#fff"/><path d="m132.883635 379.113494c-.052089.50635-.290424.917911-.655953 1.007854-.973028.245301-17.929387-1.067211-18.122902-1.579012-.049969-.133552-.087521-.472128-.096303-.914276 5.409039 1.191679 16.281327 1.442734 18.875158 1.485434" fill="#9fb8d6"/><path d="m118.243796 373.559091c-.468192 1.044498-1.606571 2.595043-4.1789 2.558096.090246-1.01815.303446-2.053866.694414-2.483597 0 0 .566615-1.112032 2.122005-.411258.416406.187156.884598.294664 1.362481.336759" fill="#d7e3f4"/><path d="m132.241461 377.366496c-1.575075.423069-4.259759-.169288-7.351158-1.087501-3.04143-.902465-2.210434-2.890918-1.585371-3.923908l.003937.000606c.13325.067836.279522.151723.450627.249238 1.281017.726212 5.633142 3.807617 7.57102 4.284288.37734.095092.677455.263472.910945.477277" fill="#d7e3f4"/><path d="m9.89573512 12.7359698c-.07692156.7952599-.33675897 1.4333455-.79828834 1.6032391-1.06478825.3879391-5.27457819.4681919-6.75940662-.4009612-1.487554-.8718786-2.44967921-2.6868035-2.32763437-6.62767083.05118009-1.65744769.10902269-2.34035369.19563515-2.66439335v-.00333124c.11841076-.44547882.28830444-.22107379.56086116-.94274341l.28557887-.42004019s.01271932-.10569143.04784885-.27558512c.15414597-.78890028.77284972-3.00448356 2.77038762-3.00448356 2.43060025 0 3.14560737 1.03238428 3.52718678 2.83458987.23742718 1.11899675.59629353 2.83428703 1.03571553 4.34152568.26286581.91367069.55783275 1.75072266.8752099 2.33732528.47455153.87854117.68623725 2.18348217.58690547 3.22252897" fill="#ecf3fe" mask="url(#d)" transform="translate(86.156553 368.369036)"/><path d="m9.89573512 8.08978624c-.07692156.79525994-.33675897 1.4333455-.79828834 1.60323918-1.06478825.38793908-5.27457819.46819188-6.75940662-.40096121-1.487554-.87187866-2.44967921-2.68680356-2.32763437-6.62767087.05118009-1.65744769.10902269-2.34035369.19563515-2.66439334.07692157 2.08415037.42004019 6.39357493 1.94302656 7.86204996 1.57749772 1.52298637 5.89025353.682906 7.74666762.22773628" fill="#9fb8d6" mask="url(#e)" transform="translate(86.156553 373.015219)"/><path d="m94.5901428 375.545121c-1.9015373.429731-4.5980318.192304-5.7267195-.359169-.9457718-.461832-1.407604-2.209224-1.6062676-3.812463.1538432-.7889.7725469-3.004484 2.7703877-3.004484 2.4302974 0 3.1453045 1.032688 3.5268839 2.83459.2374272 1.118997.5962935 2.834287 1.0357155 4.341526" fill="#d7e3f4"/><path d="m237.395024 105.323608c-.65777.372797-2.304921 1.399427-3.557471 2.186511-.350387-.417012-.704105-.746503-1.066605-.860068 2.171974-1.1193 5.326667-2.724356 8.592502-4.316996-2.442714 1.803114-4.167998 2.472393-4.167998 2.543257 0 .02453.013325.076013.043912.150209.031798.07571.08419.177162.15566.297087zm-8.12219 2.797946c.118411.0106.238941.012417.359169.015445-.161414.084493-.326765.170197-.497265.257112zm104.549426 5.164042c-.315863-.753468-2.319761-1.40609-5.113164-1.933336-.877027-.165351-1.339465-.582363-1.558419-1.073268-.170197-.379459-.19503-.803739-.158083-1.19501h1.400639s2.001777-7.483802 2.42424-19.9251072c.049666-1.4593898-.076013-2.8978836-.334942-4.2985223-1.352789-7.2975547-6.3536-13.5978546-9.301149-16.783437-.629909-.7801179-1.349156-1.5129926-2.163495-2.1710657-.005754-.0078738-.013628-.0115079-.019079-.0172619-.005754-.005754-.011508-.0093881-.015142-.013325-.006057-.005754-.011508-.0096909-.017262-.015142h-.001817c-1.36248-1.0962837-2.991461-1.9887556-4.936305-2.5650616v-3.5832123-3.4457226c.220468-.4533527.40399-.9276014.552685-1.4157808.840686-.1886698 1.481497-.3715856 1.481497-.3715856 3.673156-1.4975478 1.033898-9.593088-3.316712-14.4430834-4.350914-4.8499953-9.093704-1.9614998-12.874066-.285276-3.780058 1.6762238-5.919932-.6774549-8.095237 2.3894139s2.460581 7.9525994 2.460581 7.9525994c.725304.6065901 1.463933.8739985 2.198927.9048883-.002119 1.1822905.198967 2.3945622.626881 3.5850293 1.129293 3.1359165 3.57019 5.3893549 6.388427 6.2818267.38703.1223477.782237.2135028 1.181079.2831562l-.133553.0847954.140215 1.0408638c-1.078719-.001817-2.168946.0533-3.085948.2171369-.599321.10448-1.124447.2549919-1.52238.466072-.236216.1247704-.424583.271951-.560559.441239-.093275.0366437-.177161.1044801-.232884.2113829l-1.130202 2.4224235-6.433853 13.7977296c-.171105.3313079-.648685.3237368-.810402-.013325l-4.449034-7.0501338c-.083887-.171105-.262563-.2740709-.452747-.2549919l-.723487.0693505c-.077527-.4076237-.166865-.9375951-.23561-1.5284375-.110537-.9400178-.167471-2.0208566-.032404-2.9399784.05118-.3522039.060871-.696231.041792-1.0275389l.163534-.1580829c.140821-.135067.199875-.332822.155963-.523006l-.367043-1.6041477-1.436676-6.2569938c-.091458-.391876-.549959-.5517759-.861885-.325251-.001514.0009085-.002726.0024227-.00424.0033313-.196847-.2534778-.569946-.3116232-.812825-.0660193l-3.489029 3.5302152c-.139004.1405181-.195635.3494782-.149603.5505645l.387333 1.6886403c-.104177.2316732-.195332.4712203-.258928.7250009-.586906 2.2915963.337667 5.3499855.823727 6.7064095v.0051483c.034523.5817571.099634 1.1804734.206537 1.7816124l-.132039.0124164c-.304657.030587-.493024.3406959-.378853.6223379.759524 1.8570198 3.56807 7.4650257 6.460502 11.677844 1.819165 2.6471314 3.670734 4.7440011 5.069252 5.018072 2.739801.5336055 6.800593-5.2488367 9.181528-8.9931603-.128102 2.9872216-.400962 5.3923832-.907917 6.2033909-.464255.7422628-1.179565 1.5908227-1.940907 2.4757235-.431851.059054-1.126567.29103-1.002706 1.1701769-.597504.7080417-1.164725 1.4175977-1.60021 2.0914185-.216834.3343363-.396116.6586787-.535423.9715133l-26.759618-9.315383s-4.068364-1.0432865-7.856599.7458969c-1.12354-.4109549-1.791001-.6544389-1.791001-.6544389s-5.297897-.9497088-10.515541 3.2425164c-5.219461 4.1901053-24.592792 14.6759683-24.592792 14.6759683s.180795.279825.515132.707133l-3.184977 2.837012c-.479094-.425491-.967879-.600533-1.479377-.224102-.983627.721064-5.035334 2.805517-8.014682 4.013852-1.107186.449113-2.065677.77497-2.663182.866731-1.502393.227433-2.365792 1.119299-2.530235 1.866105-.079041.357352-.003331.679877.240153.882478.575397.485453 12.312295.43609 18.378499.334033 1.757386.048757 3.955707.067534 6.188552.067534 5.021403 0 10.2127-.096909 10.899543-.154146 1.138076-.095092 1.665019-.639297 1.781007-1.436677.021199-.150512.030587-.312229.024833-.481517-.03089-.896712.915488-3.156207-1.314329-2.806123l.626275-.705013c.13325.074801.264985.149603.406412.224708 0 0 9.009514-6.373285 14.387664-11.7674853 3.993561 1.9091084 14.825874 8.6127923 24.931671 12.3468193 6.627974 2.448771 12.939479 4.144376 16.796762 3.487818 7.237289-1.233168 10.365029-1.668048 11.679661-2.755852.001212 0 .002726.000606.003937.000606.377037.022713.711676-.022713.993621-.144758 1.950294-.842806 1.002706-1.634432 1.476349-2.056895.057237-.049666.127496-.093275.209565-.136884.024531-.011508.037856-.019079.037856-.019079.477579-.234096 1.326442-.432153 2.315823-1.322505.294967-.264683.601442-.592054.915488-.999072.563284-.732572 1.978762-3.430884 3.575338-6.759104.213806-.4448731.431246-.9036769.649594-1.3682347.024227-.0511801.048152-.1017545.072379-.1532374.427611-.9106423.859462-1.8482374 1.286468-2.7940092.04694-.1044801.09388-.2083545.14082-.3128346.193213-.4303368.385214-.8606735.574187-1.2897989.015445-.0354324.031798-.0711676.047243-.1066l-1.233168 16.1574648h.524823c.026347.149301.053603.313743.078436.487271.076013.517555.131433 1.103552.083584 1.505119-.106297.883084-4.111972 3.016294-2.056895 2.700128 2.056895-.315862 4.216756-.15778 4.216756-.15778 5.800309 1.527832 10.490708.420343 10.174845-.333124z" fill="#4076a3"/><path d="m287.827617 68.503709-.382488.268317-3.727667 2.6259326-.932447.6565588s-1.868528-4.3748382-1.092347-7.4059717c.184733-.7346918.529063-1.3909478 1.092347-1.8857897.043609-.0381579.087521-.074196.13113-.108417.144758-.1105369.285579-.1941209.424583-.2549919l.009388-.003937c.884901-.3767339 1.685914.2113829 2.357615 1.1514008 1.303427 1.8191646 2.119886 4.9568981 2.119886 4.9568981" fill="#fdc8aa"/><path d="m287.445159 68.772026-3.72797 2.6259326c-.983627-1.4612069-1.702874-4.9360022-2.024491-6.7494129.184733-.7346918.529063-1.3909478 1.092347-1.8857897.043609-.0381579.087521-.074196.13113-.108417l.42428-.2549919.009691-.003937 1.64594-.9875638.711676 2.1389646z" fill="#efa57f"/><path d="m327.002346 113.618872s-2.159861-.158083-4.216756.15778c-2.055077.315863 1.950295-1.817045 2.056895-2.700129.047546-.401567-.007571-.987564-.083584-1.505118-.089338-.620218-.207446-1.145647-.207446-1.145647l6.14252-.658376s-.669884 1.438797-.188367 2.511762c.218954.491207.681089.907916 1.558419 1.073267 2.793403.527246 4.797301 1.179868 5.113164 1.933336.315863.753771-4.374839 1.860957-10.174845.333125" fill="#fdc8aa"/><path d="m330.505608 110.279295c-1.465144-.182613-4.296705-.532697-5.746707-.708042-.089338-.620218-.207446-1.145344-.207446-1.145344l6.14252-.658376s-.669884 1.438494-.188367 2.511762" fill="#efa57f"/><path d="m241.038017 105.180304c-.118713-.039369-5.41661 3.320952-5.41661 3.320952s4.151341 3.518707 4.309424 3.518707c.158386 0 2.846704-.791323 2.846704-.791323l2.773719-3.122591z" fill="#fdc8aa"/><path d="m245.575935 112.364263c.005754.169288-.003937.331005-.024833.481517-.115988.797077-.643234 1.341585-1.781007 1.436677-.686843.056934-5.877837.154146-10.899846.154146-4.846361 0-9.537062-.087521-9.887146-.382488-.232279-.192304-.304658-.498779-.230462-.839172.158083-.709859.978176-1.556602 2.407282-1.773436.569038-.087521 1.480285-.397933 2.532657-.82403 2.207407-.896409 5.033214-2.296744 6.616466-3.196787.449113-.254992.797077-.468192 1.004523-.620521.979993-.721064 1.874584.685026 2.778261 1.88579.278008.363409.551776.709858.831601.970604 1.202581 1.128385 3.870608.338576 3.870608.338576 4.058673-1.615655 2.745858 1.316752 2.781896 2.369124" fill="#ecf3fe"/><path d="m245.551223 112.845689c-.115988.79738-.643234 1.341585-1.781006 1.436677-.687146.057237-5.87814.154146-10.899846.154146-4.846665 0-9.537366-.087521-9.88745-.382488-.231976-.192304-.304355-.498476-.230159-.839172.334942.18655 1.046618.336759 2.49662.329188 1.368235-.009388 4.473564.045729 7.877798.047546 5.036848.003937 10.732375-.114171 12.424043-.745897" fill="#9fb8d6"/><path d="m238.091891 108.685989c-1.900932 1.170177-3.509016 1.878219-4.858172 2.274031-2.981771.873393-4.701906.222588-5.541078-.342512 2.207406-.896409 5.033214-2.296745 6.616163-3.197091.449113-.254992.79738-.467889 1.004826-.620218.979992-.721064 1.874281.685026 2.778261 1.88579" fill="#d7e3f4"/><path d="m312.005699 109.744599c-20.796683 5.95597-48.787955-16.8555129-48.787955-16.8555129-2.635623 5.377544-17.92333 16.1889609-17.92333 16.1889609-3.337608-1.775556-4.473867-3.514771-4.700089-4.051405-.030587-.074196-.043912-.125376-.043912-.150209 0-.104783 3.7525-1.50421 8.034064-5.945673 4.306093-4.4620563 9.145186-9.4095664 11.259318-11.4170981 4.216755-4.0074923 10.332625-2.4375656 10.332625-2.4375656l28.992464 10.0924725z" fill="#15315e"/><path d="m259.489865 96.7235048-18.895752 8.3032892c-.030284-.074196-.043609-.125679-.043609-.150209 0-.104783 3.7525-1.504513 8.033761-5.9456736l10.572475-6.3938778z" fill="#122c51"/><path d="m233.23384 110.95996c.135067.660193.108417 1.689852-.1066 2.631686-.066625.294967-.152329.582363-.256809.844926-4.846664 0-9.537365-.087521-9.887449-.382488-.232279-.192304-.304355-.498778-.230159-.839172.15778-.709858.977873-1.556601 2.406979-1.773435.569037-.087521 1.480588-.397933 2.53296-.82403 2.207104-.896409 5.032911-2.296745 6.616163-3.196788-.662313.92851-1.569927 2.405162-1.217723 3.099576.058751.114171.1066.264683.142638.439725" fill="#184b68"/><path d="m288.758126 73.3712995-5.891162.4739458c-.198058-.8355377-.302841-1.6765266-.350387-2.4851116-.060871-1.0393496-.02665-2.0247935.030587-2.8812273.034221-.553593.07995-1.0523718.112051-1.4748347.034524-.426097.057237-.776181.049666-1.027236-.005754-.1941209.114171-.3749169.3198-.5463248.595385-.4890879 1.908502-.8694559 2.936041-1.1093058.068442-.0151421.136884-.030587.203509-.045729.69078-.154146 1.206518-.235913 1.206518-.235913s.020896.032404.059054.093275c.091155.154146.281642.4909049.467889.9551599.2132.5308799.418829 1.2255967.464558 1.9960237.018776.3313078.009388.6756378-.042095 1.0275388-.135067.9191218-.07783 2.0002635.032404 2.9402813.150209 1.289799.401567 2.3194577.401567 2.3194577" fill="#fdc8aa"/><path d="m226.686331 103.124439-4.704935 4.190711s-.55329 3.914217 3.1235 3.953586c3.676791.039673 5.930532 0 5.930532 0l2.055683-4.063215z" fill="#fdc8aa"/><path d="m232.063269 112.2573c.00636.177161-.003028.347964-.025438.506047-.123256.838263-.676546 1.410632-1.872162 1.511781-1.423352.117199-21.112546.392482-21.862077-.240153-.243484-.2026-.319497-.525126-.240456-.882478.164443-.746503 1.028145-1.638369 2.530235-1.866105.597808-.091761 1.556299-.417617 2.663182-.86673 2.979651-1.208032 7.031358-3.292486 8.014985-4.013852 1.031173-.758919 1.970282.721366 2.922413 1.983304.29103.382791.579032.746503.872788 1.021482 1.265268 1.186228 4.070786.354324 4.070786.354324 4.270055-1.698331 2.887889 1.385496 2.925744 2.49238" fill="#ecf3fe"/><path d="m232.037952 112.763407c-.123256.838263-.676849 1.410633-1.872465 1.511781-1.423351.1172-21.112243.392179-21.862077-.240455-.243484-.202298-.319194-.524823-.240153-.882175.350993.195938 1.100524.35402 2.625024.344632 3.564739-.025438 18.366992.37946 21.349671-.733783" fill="#9fb8d6"/><path d="m224.194012 108.389084c-6.417499 3.950255-9.653051 2.893946-10.937398 2.030547 2.979347-1.208032 7.031054-3.292485 8.014681-4.013852 1.031173-.758919 1.970585.721367 2.922717 1.983305" fill="#d7e3f4"/><path d="m313.982796 108.241297c-.15778 3.004787-1.897298 3.084434-12.572436 4.903599-3.856981.656559-10.169091-1.038744-16.796762-3.487818-11.721756-4.330926-24.429259-12.6632878-26.297787-12.8670996-2.926653-.315863-25.066738 11.3556216-25.066738 11.3556216-3.122592.055117-5.678265-2.397591-6.951408-3.906646-.565101-.669884-.877027-1.153218-.877027-1.153218s19.373332-10.4858629 24.592793-14.6759682c5.217644-4.1919223 10.515238-3.2425164 10.515238-3.2425164s9.154878 3.3397283 17.04812 6.2775869c5.632536 2.0971725 10.621838 5.6361701 11.181488 5.9632382 1.343402.7916258 4.270055.3158629 5.613457-.7116759 1.345219-1.0275388 5.272761-3.4251294 5.272761-3.4251294s10.4259 8.6049188 13.497312 13.0539528c.549959.79526.865822 1.45939.840989 1.916073" fill="#1f3a6f"/><path d="m313.982796 108.241297c-.15778 3.004787-1.897298 3.084434-12.572436 4.903599-3.856981.656559-10.169091-1.038744-16.796762-3.487818 18.857594 3.988414 26.261748-1.054189 28.528209-3.331854.549959.79526.865822 1.45939.840989 1.916073" fill="#15315e"/><path d="m304.837518 78.2404041c.007571.102663-.019079.2056289-.078133.29103-.875209 1.2692058-7.217604 12.6808528-11.017651 11.9407098-1.398518-.2740709-3.250087-2.3709406-5.069252-5.0177691-2.892432-4.2131212-5.700978-9.8208243-6.4602-11.6781469-.114171-.2816419.074196-.5917509.378551-.6223378l6.724883-.6432339c.190184-.0187761.369163.0838869.452747.254992l4.449034 7.0504366c.161717.336759.639297.34433.810705.013325l6.43355-13.7980325 1.130505-2.4221207c.21108-.4055038.820093-.2798249.854314.175042z" fill="#f4b545"/><path d="m304.837518 78.2404041c.007571.102663-.019079.2056289-.078133.29103-.875209 1.2692058-7.217604 12.6808528-11.017651 11.9407098-1.398518-.2740709-3.250087-2.3709406-5.069252-5.0177691 5.47839 3.5411174 9.325983-.0572369 11.364101-2.8791075 1.836124-2.5423485 1.64594-11.8892269 1.425169-16.54389l1.130505-2.4221207c.21108-.4055038.820093-.2798249.854314.175042z" fill="#e59d29"/><path d="m329.086042 82.6227527c-.019079.403384-.146575.9951349-.359775 1.7298267-.601139 2.0684026-1.88579 5.2670071-3.337609 8.5743315-.900043 2.0475066-1.864893 4.1368053-2.77069 6.024412-1.596274 3.3282201-3.012055 6.0265321-3.575339 6.7591041-.314046.407321-.62052.734389-.915185.999071-.989683.890655-1.838243 1.08841-2.315823 1.322506 0 0-.013325.007571-.038158.019079-.081767.043609-.152329.087521-.209263.136884-.473946.422463.473643 1.214089-1.476652 2.056895-.281642.122045-.616584.167774-.993318.144758-2.222548-.127496-5.940828-2.572633-9.39079-5.073189-4.032325-2.926654-6.11587-7.090109-6.958979-9.1984866-.119622-.3007209-.13113-.633543-.056934-.9933178.1066-.5233089.391876-1.0999178.784055-1.7049937.435788-.673518 1.002706-1.3833768 1.600211-2.0911157-.123559-.8791469.570855-1.1114258 1.002706-1.1704797.761342-.884598 1.476652-1.7334608 1.941209-2.4754207 1.581132-2.5308406.896106-20.5589533.580243-23.5101369-.056934-.5366338.249238-.9306297.789809-1.2162086.39763-.21108.922756-.3612891 1.522078-.466072.917305-.163534 2.007532-.2189539 3.086553-.2168923 1.22166.0018753 2.426361.0760713 3.34518.1520844.98393.0820698 1.640488.1656539 1.640488.1656539.228342.0093881.454867.0227131.677455.039975.53088.0381579 1.042681.096909 1.53934.175042.260746.039975.515738.0857039.766793.136884.081767.0172619.163837.0345239.245604.0514829.403384.087521.79526.188367 1.174114.300721 1.94454.5766088 3.573521 1.4690807 4.936002 2.5650615h.001817c.005754.005754.011508.0093881.017262.0151421.003634.0039369.009388.007571.015142.013325.005754.0057539.013325.0096909.019079.0172619.814339.6583759 1.533586 1.3909478 2.163494 2.1710657 1.218026 1.4996676 2.118069 3.1740744 2.785833 4.8484811.178979.4491129.338879.8982258.485151 1.3437047 1.174114 3.5926003 1.341585 6.9644298 1.278897 8.3535605" fill="#f4b545"/><path d="m322.618089 98.9514137c1.03511-9.0900694-2.31007-20.8366582-2.31007-20.8366582l5.499286-.3594721 2.919083 6.597084c-.974239 3.3491164-3.739175 9.6666783-6.108299 14.5990463" fill="#e59d29"/><path d="m334.172435 89.1591474c-.422463 12.4410026-2.424241 19.9251076-2.424241 19.9251076h-7.592522l1.232865-16.1574652.297087-3.8990753-5.375727-10.9071142-.001817-.005754 1.621107-9.8816952.390059-2.3730605s0-.0018171.00212 0c.005451.005754.011205.0096909.016959.0154449.003937.003634.009691.007571.015142.013325.175345.15778 1.019968.9303269 2.182876 2.1883276 2.94755 3.1852795 7.94836 9.4858823 9.30115 16.783437.258928 1.4003358.384305 2.8391325.334942 4.2985223" fill="#f4b545"/><path d="m318.127323 106.709468c-.989381.890655-1.838243 1.08841-2.315823 1.322506 0 0-.013325.007571-.038158.019079-.1599.07783-.827664.372797-1.80584.412772-1.503302.064808-3.739175-.467889-6.001699-3.29188-3.08625-3.853346.39975.582363 5.516548 1.680161 1.453939.310109 3.040825.352204 4.644972-.142638" fill="#e59d29"/><path d="m297.471461 93.4197237c.435788-.6735179 1.002706-1.3833767 1.600211-2.0914185 0 0 .093275 3.5929032 4.803055 6.3272528 4.488706 2.606854-1.480589 2.736469-6.403266-4.2358343" fill="#e59d29"/><path d="m333.837493 84.8605342c-1.560236-4.1976763-3.739176-7.7160807-6.030166-10.591554-1.984819-2.4908656-4.053222-4.4965802-5.87814-6.03592-1.904869-1.6117187-3.543238-2.7173905-4.545943-3.3412425-.660193-.4112578-1.044801-.6129498-1.044801-.6129498l-.129313-1.2843478c.403384.087521.795563.188367 1.174114.3007209 1.944843.576306 3.573521 1.4687779 4.936002 2.5650616h.00212c.005451.0054511.011205.009388.016959.015142.003937.0039369.009691.007571.015142.013325.005754.005754.013325.0093881.019079.0172619.814641.6583759 1.533888 1.3909478 2.163494 2.1710657 2.947853 3.1855824 7.948663 9.4858823 9.301453 16.783437" fill="#e59d29"/><path d="m313.657423 62.6310203c-1.701056.8885349-3.583212 1.6765266-5.183423 1.8991146-2.883044.4015669-4.428138-.8182758-5.088331-1.5738636.39763-.21108.922756-.3612891 1.522381-.466072.917002-.163534 2.007532-.218651 3.086251-.216834 1.221659.001817 2.42636.076013 3.345482.1520261.983627.0820698 1.640186.1656539 1.640186.1656539.228342.0096909.454866.0227131.677454.039975" fill="#e59d29"/><path d="m317.383244 55.1831354v11.466764s-1.661082 3.3606243-5.259437 2.5290235c-2.841252-.6547418-3.512953-2.6680274-3.668916-3.4841834-.041792-.2171368-.047546-.350084-.047546-.350084l-.314046-2.3367196-.099029-.7346917-.140821-1.0408639z" fill="#fdc8aa"/><path d="m317.383244 55.1831354v4.5289841c-1.615656 2.8636626-4.599244 6.6125289-8.928353 5.98262-.041792-.2171368-.047546-.350084-.047546-.350084l-.553896-4.1122752z" fill="#fbb188"/><path d="m312.432644 60.7751816c-1.867619.6710952-3.824273.6592844-5.626479.089338-2.818236-.8924718-5.259133-3.146213-6.388426-6.2821295-1.15019-3.197696-.665947-6.5568061 1.01603-9.0558484 1.019665-1.5208665 2.485415-2.7222359 4.2961-3.3727379 4.783673-1.723467 10.163034 1.0502518 12.013392 6.1909744 1.851871 5.1425396-.525126 10.7072392-5.310617 12.4304034" fill="#fdc8aa"/><path d="m306.806165 60.8644591c-2.818236-.8924719-5.259133-3.1462131-6.388426-6.2821296-1.15019-3.1976959-.665947-6.5568061 1.01603-9.0558483l1.069331 2.1147372s-2.874867 8.0722215 4.303065 13.2232407" fill="#ffd6bb"/><path d="m297.591931 50.0927147s-4.63619-4.8857306-2.460581-7.9525993c2.175305-3.0668688 4.314875-.7131901 8.095237-2.3894139 3.780059-1.6762239 8.523151-4.5647194 12.874065.285276 4.350611 4.8499954 6.989869 12.9452327 3.31641 14.4430833 0 0-4.992634 1.426683-5.420548.4279141-.427914-.9984661 2.460582-3.7443236.499385-5.6343531-1.9615-1.8903322-2.995701 1.390645-2.853063 1.7116562.142638.3210113-1.390948.4993845-1.604754-.4636492-.214108-.9627309-.160808-5.1710067-2.18439-4.4578166-2.023886.7131901-6.339064 7.3108797-10.261761 4.0299025" fill="#1f3a6f"/><path d="m277.576789 91.4448989c-5.200685-1.3415848-11.055809-2.8485206-14.771968-3.7924753-7.992272-2.0284277-12.785636 3.1722573-12.785636 3.1722573l-23.721217 13.4143331c-.565404-.669884-.87733-1.153218-.87733-1.153218s19.373332-10.4858623 24.592793-14.6759676c5.217644-4.1922252 10.515238-3.2425164 10.515238-3.2425164s9.154878 3.3394255 17.04812 6.2775869" fill="#254a84"/><path d="m287.894726 67.3437682-3.489028 3.5302152c-.307081.3104118-.826756.140821-.92851-.3031436l-1.913046-8.3359958c-.046031-.2010863.010903-.4100465.149907-.5505646l3.489028-3.5302152c.306778-.3104118.826453-.140821.92851.3031436l1.912743 8.3359958c.046032.2010863-.0106.4100465-.149604.5505646" fill="#326497"/><path d="m288.529753 66.926181-.163534.1580829-.74408.713493-.378551.365226-.519674.4966589-.993318.9554627-.722881.6944139c-.043912.0417921-.091458.074196-.141124.0972119-.306172.1520261-.700168-.013325-.781935-.3730998l-.224708-.9760559-.467889-2.0417527-.363409-1.5853716-.542388-2.3670036-.205629-.8924719c-.043609-.1883669.015445-.3882419.155963-.5214918l3.522342-3.3833374c.019079-.019079.039975-.0360381.060871-.0493631.312229-.2265249.77073-.0666249.862188.325251l1.436676 6.2566909.367043 1.6041477c.043912.1901841-.015142.3882419-.155963.5233089" fill="#52d1bd"/><path d="m286.114992 69.8356937s-.31768 1.1417098-.31768 1.1968269c0 .0514829-1.59476.7822377-1.950598.8564337-.020896.005754-.036038.0075711-.047546.0075711-.220771 0-.665947-.032404-.856131-2.3464105-.190487-2.3155208.951223-3.4896346 1.491794-3.1719546.325251.1923039.395813.639297.458501 1.1665428.039975.34433.076013.7210639.175042 1.0844729.253175.9209389 1.046618 1.2065177 1.046618 1.2065177" fill="#fdc8aa"/><path d="m283.846775 71.8889241c-.020896.0057539-.036038.007571-.047546.007571-.220771 0-.665947-.032404-.856434-2.3461077-.190184-2.3158236.951526-3.4899373 1.491794-3.1722574.325554.192304.395813.639297.458803 1.1665428-.588116.3864249-1.581434 1.4824057-1.046617 4.3442513" fill="#ffd6bb"/><path d="m166.218503 36.8475787c-5.530782-22.3178526-28.106655-35.92660955-50.424507-30.39582805-22.317853 5.53078145-35.9263071 28.10665445-30.3958285 50.42450705 5.5307815 22.3178527 28.1069575 35.9266096 50.4248095 30.3958281 22.317853-5.5307815 35.926307-28.1066545 30.395526-50.4245071" fill="#4076a3"/><path d="m82.052512 31.6278753c5.5307815 22.3178526-8.0776726 44.8937256-30.395828 50.4245071-22.3178527 5.5307815-44.89372563-8.0776726-50.42450713-30.3955253-5.53078149-22.3178526 8.07767261-44.89372554 30.39582803-50.42480988 22.3178527-5.5307815 44.8937256 8.07797545 50.4245071 30.39582808" fill="#41d0c2" mask="url(#f)" transform="translate(88.549187)"/><path d="m115.485037 45.2868735c.869759 3.5099249-1.270417 7.0607332-4.780644 7.930492-3.509925.8700616-7.060431-1.2704172-7.930492-4.780342-.869759-3.5102277 1.270417-7.0607332 4.780644-7.9307948 3.509925-.8697588 7.060734 1.27072 7.930492 4.7806448" fill="#fff"/><path d="m136.54707 40.0673215c.869759 3.5099249-1.270417 7.0607332-4.780342 7.930492-3.510228.8700616-7.060733-1.2704172-7.930795-4.780342-.869759-3.5102277 1.270417-7.0607332 4.780645-7.9307948 3.509925-.8697588 7.060733 1.27072 7.930492 4.7806448" fill="#fff"/><path d="m157.609102 34.8477089c.869759 3.5099249-1.270417 7.0607332-4.780645 7.930492-3.509925.8700616-7.06043-1.2704171-7.930492-4.780342-.869758-3.5102277 1.270418-7.0607332 4.780645-7.9307948 3.509925-.8697588 7.060733 1.27072 7.930492 4.7806448" fill="#fff"/></g></svg>