<svg height="371" viewBox="0 0 450 371" width="450" xmlns="http://www.w3.org/2000/svg" xmlns:xlink="http://www.w3.org/1999/xlink"><mask id="a" fill="#fff"><path d="m0 0h103.454128v103.453994h-103.454128z" fill="#fff" fill-rule="evenodd"/></mask><mask id="b" fill="#fff"><path d="m0 0h450v1.86692745h-450z" fill="#fff" fill-rule="evenodd"/></mask><g fill="none" fill-rule="evenodd"><path d="m406.489681 241.306023h-69.687999c-1.522302 0-2.767629-1.245681-2.767629-2.767629v-8.459792c0-1.522302 1.245327-2.767983 2.767629-2.767983h69.688353c1.522303 0 2.767629 1.245327 2.767629 2.767629v8.460146c0 1.521948-1.245681 2.767629-2.767983 2.767629" fill="#52c5ba"/><path d="m352.263603 241.305704-.893618 8.188838-12.93638 118.54582c-.035773.413692-.327978.727149-.675791.727149-.664104 0-1.181573-.688189-1.111089-1.4798l10.259423-121.396329.388545-4.585678z" fill="#fdadac"/><path d="m352.263603 241.305704-.893618 8.188838c-.613808-3.262076-4.463837-3.60316-4.463837-3.60316l.388545-4.585678z" fill="#15152a"/><path d="m405.533691 368.767546c-.347813 0-.640018-.313457-.676146-.727149l-12.936025-118.54582-.557493-5.10846-.335771-3.080378h4.968556l.388191 4.585679.304248 3.5982 9.955529 117.798129c.070484.791611-.446631 1.479799-1.111089 1.479799" fill="#fdadac"/><path d="m396.689357 249.489725c-1.264099-3.902449-5.323099-5.100669-5.323099-5.100669s0-.001416-.002125-.002833l-.33577-3.080377h4.968556l.38819 4.585678z" fill="#15152a"/><path d="m145.107972 105.593396h-54.2439646c-11.6931784 0-21.1723245-9.4791466-21.1723245-21.1719707v-54.2443193c0-11.6928241 9.4791461-21.17197027 21.1723245-21.17197027h54.2439646c11.693179 0 21.171971 9.47914617 21.171971 21.17197027v54.2443193c0 11.6928241-9.478792 21.1719707-21.171971 21.1719707" fill="#52c5ba"/><path d="m153.770714 32.7803205v47.1637374c0 3.0159149-1.091255 5.7775224-2.896553 7.9129247-2.246618 2.6546427-5.60645 4.3423507-9.358722 4.3423507h-47.166217c-3.0956073 0-5.9230939-1.1465081-8.0783308-3.040708-2.5621994-2.2462633-4.1762363-5.5416329-4.1762363-9.2145674v-47.1637374c0-6.7681876 5.4863795-12.2570464 12.2545671-12.2570464h47.166217c6.768896 0 12.255275 5.4888588 12.255275 12.2570464" fill="#eef4f4"/><path d="m112.925239 64.4096347s-7.694745-.385357-7.911154-4.8254638c-.215701-4.4408151-6.5712589-7.6791603-4.730541-11.2437131 2.257597-4.3717484.198345-8.5745488 3.047791-11.513959 3.139881-3.2386994 7.107501-1.4794453 9.2004-3.3665615 2.092546-1.8871161 5.920261-3.6265358 9.694847-1.2952672 3.773878 2.3312685 6.655202 1.0763788 9.136292 3.3215795 2.74071 2.4803819 1.701521 5.6029075 3.962306 7.2984077 2.072357 1.5538249 1.227618 5.8005447-.517823 9.2503405-1.258078 2.4871114 1.641309 4.8180258-3.336456 7.6756184-2.07094 1.1900733-1.622183 4.1826117-7.912216 4.6990185-2.833154.2327018-8.981511-1.0944424-10.633446 0" fill="#12123c"/><path d="m113.155249 60.4720506s-.224556 6.9378439-1.112861 10.0458477l-7.028161 4.9030311 26.456816 3.9591188-6.309513-8.717641s-1.904826-9.3024061-.90566-12.7437013c.999165-3.4412953-11.100621 2.5533447-11.100621 2.5533447" fill="#f0807d"/><path d="m113.1165 61.429811c0-.0021245 2.092192 5.0365608 6.032893 4.9256998 3.941055-.110861 4.837506-4.5676146 4.837506-4.5676146z" fill="#ed6966"/><path d="m118.697732 64.4092805c-2.855468-.0502947-8.110916-3.852508-8.110916-8.5610896v-7.3472858c0-1.7192308 1.198573-3.1260674 2.664559-3.1260674h10.893421c1.465278 0 2.663852 1.4068366 2.663852 3.1260674v6.9314685c0 4.9373874-4.83609 9.0346396-8.110916 8.9769069" fill="#f0807d"/><path d="m134.159263 72.4316141c-.001417-.0003542-.003188-.0003542-.004605-.0007084-3.202218-.8050704-6.212111-1.4447348-8.992845-1.7684631-2.457714 3.2599508-4.217676 4.1301919-6.46394 5.017434-3.610951-.4994058-6.655201-5.0599366-6.655201-5.1619429-3.932201.4016498-6.582593 1.2343469-7.664639 1.5715343 0 0-.004604 0-.01098.001771-.317707.0400232-7.3494105 1.1309238-18.0961972 17.1784952 2.1552369 1.8938458 4.9827235 3.0407081 8.0786849 3.0407081h4.8566324 3.9233459 33.416266c-.00248-.0378982-.003542-.0740254-.005667-.1112152h4.975639c3.751919 0 7.112105-1.6877081 9.358368-4.3423507-7.551298-12.964715-16.714862-15.4252623-16.714862-15.4252623" fill="#ac4949"/><path d="m110.586709 51.4801969s1.982039-6.0498933 8.47573-5.1063352c6.4944.9435581 7.056143 2.3309143 7.746457 3.940701.690667 1.6097866 2.02277-5.8834248 2.02277-5.8834248l-7.660034-2.275661s-9.269113 1.0544191-9.934987 2.6085982l-.666228 1.554179z" fill="#12123c"/><path d="m126.209042 53.7509701c-.201887 1.0002282-.953475 1.6388301-2.233158 1.8984502-.974019.1997623-1.903055.0910264-1.91191.0885471h-.01275c-.94958 0-1.623955-.5543049-2.120527-1.7429615-.066587-.1554887-.206492-.5302201-.239431-.9226609v-.0021252c.065525.0265642.131404.056316.19622.0906723.066233.0350646.148405.0099173.183824-.056316.035065-.0665874.009209-.148405-.056316-.1834696-.107319-.0566702-.215347-.1002354-.323728-.1384877v-.0031877c.013105-.1838238.059858-.3612723.159739-.5096772.201533-.3060189.596453-.4593825 1.170593-.4593825h3.446253c.612038 0 1.146863.2242013 1.466341.614517.283705.3460422.378981.8050704.27485 1.3260817zm-8.502649-.6563113c-.037898.3857113-.174969.7469835-.23766.9003471-.496572 1.1886566-1.170593 1.7429615-2.119818 1.7429615h-.01523c-.009563.0024793-.936474.1112152-1.912264-.0885471-1.279328-.2596201-2.028791-.898222-2.230679-1.8984502-.104131-.5210113-.011334-.9800395.275205-1.3260817.318769-.3903157.853594-.614517 1.463507-.614517h3.448379c.574493 0 .969059.1533636 1.171301.4593825.104131.1551345.150884.3414377.161864.5344704v.0014167c-.175323.0556076-.287247.105194-.302477.1119236-.068004.0311686-.097756.1119236-.066942.1799277.023023.0499406.072255.0793383.123612.0793383.018772 0 .037898-.0038961.056316-.0123966.002479-.0014168.071546-.0315228.184886-.0704835zm8.403122-.8139251c-.36446-.443444-.960559-.6963345-1.641664-.6963345h-3.446253c-.655957 0-1.112861.1863031-1.361501.5589094-.115111.1707188-.173198.3680018-.192678.5698892 0 .0007084 0 .0010626-.000355.0021252-.578035-.1445089-1.141549-.0711919-1.532219.0269183v-.0024793c-.018064-.2107422-.077567-.4168799-.197637-.5964534-.246161-.3726063-.704835-.5589094-1.359375-.5589094h-3.448379c-.678626 0-1.277558.2528905-1.638476.6963345-.330812.4012956-.441673.9269113-.321603 1.5145099.392086 1.9494534 2.634099 2.1980937 3.756168 2.1980937.346397 0 .583703-.024439.627976-.0290434 1.049107-.0021252 1.787236-.6010579 2.323831-1.882866.091026-.2195968.239431-.6297471.261745-1.0576068v-.0003541c.372607-.099527.944975-.1887825 1.519115-.0311686.017709.4395479.168593.8652824.262099 1.0891295.536242 1.2818081 1.274724 1.8807408 2.323831 1.882866.044273.0046044.284059.0290434.630101.0290434 1.119944 0 3.364082-.2486403 3.756523-2.1956143.117591-.590078.00673-1.1156937-.321249-1.5169893z" fill="#12123c"/><path d="m77.7633117 103.343732-63.138346-7.2810524c-9.0608496-1.0452102-15.55985394-9.2382981-14.51464375-18.2995018l7.28105249-63.1379919c1.0452102-9.06155791 9.23758966-15.56020806 18.29879336-14.51499786l63.1387002 7.28105249c9.061558 1.04521019 15.559854 9.23794377 14.514998 18.29950177l-7.2810525 63.1379918c-1.0452102 9.061558-9.2379438 15.5598539-18.2995018 14.5149979" fill="#52c5ba" mask="url(#a)" transform="translate(202.772272)"/><path d="m292.857482 31.4699294-5.404562 46.8534683c-.210033 1.8318628-.815696 3.5192167-1.720647 4.9940575v.0021251c-1.396919 2.2799112-3.507883 4.0430615-5.990036 5.0142463-1.416754.5567843-2.956057.8535942-4.550613.8409053h-.002479c-.434236-.0025412-.871658-.0294595-1.314748-.0804627l-19.863952-2.290891-3.927596-.4522987-12.836145-1.4812162-1.647685-.1909076-8.57809-.9892484c-4.614722-.5319911-8.33618-3.5634903-9.961905-7.586363-.106257-.2620994-.204013-.5259699-.290435-.7940905-.350292-1.0689409-.554305-2.1956144-.592203-3.3577068-.022314-.6053081.002479-1.2194709.073317-1.8407175l5.404562-46.8531141c.773547-6.723914 6.854964-11.5476069 13.578878-10.7715799l46.853468 5.4024368c6.72356.7763811 11.545482 6.8549638 10.770871 13.5813571" fill="#eef4f4"/><path d="m273.013577 42.2834098c-.004604-.037544-.010625-.0754421-.020189-.110861-.150175-.8560735-.321248-1.7054175-.507552-2.5416565 0-.0003542-.000354-.0010625-.000354-.0017709 1.042023-6.6991208-1.528677-9.5623805-3.753689-11.0149074-.000354 0-.000354-.0007084-.000354-.0007084-1.195032-2.3351646-2.47259-3.9807243-3.683561-4.5396337-2.209073-1.0200628-4.746125-.9378911-6.504317-.6853547.414401-.5079063 1.294913-.7540673 1.294913-.7540673-1.108964-.0708376-3.461838 1.2219503-3.461838 1.2219503-15.736594-4.5881575-16.239896 18.0544033-15.481932 23.2414936.758671 5.1874444-4.537155 7.3472857-12.121747 12.1242257-6.890028 4.3398714-10.600507 9.0194095-12.596713 12.7295338.038253 1.1620924.241911 2.2887659.592203 3.3577067.248641-.2242013.496927-.392795.745213-.4834672-.01523.0463986-.204013.5567842-.454424 1.2775578 1.625371 4.0228727 5.346829 7.0540177 9.961551 7.5863629l8.578091.9892485 1.648039.1909075 12.836144 1.4812162c1.348041-1.9115552 2.816153-3.8896978 4.341997-5.8526103 3.712603-4.7857947 7.770895-9.4826881 11.303925-12.9002527 1.163863-1.1287987 2.270702-2.1155677 3.28864-2.9231175.037544-.0286892.075442-.0595036.112986-.0885471.494801-.8780332.893972-1.8959709 1.213095-2.9493274 1.086651-3.5510937 1.290309-7.5048996 1.308373-7.8973405.002125 3.6679759-.321603 6.2117575-.740608 7.9749078-.166115.7005848-.348168 1.2772036-.530221 1.7539413.450528-.4901969.849344-1.0420225 1.204595-1.6494557 2.674478-4.5842615 2.707771-12.2729849 1.427734-19.5359738" fill="#060632"/><path d="m266.646154 66.0211214c.047815.0286893-5.180007 2.0209995-8.773603.5780356-3.379666-1.3540625-5.138212-6.1419823-5.089334-6.1465868 1.512031-.1232576 2.172592-2.1045879 3.147673-10.8360422l.653124.208617 10.977363 3.5202793s-.663041 3.5057575-1.054773 6.8354834c-.330104 2.7956096-.466467 5.4679617.13955 5.8402137" fill="#fc9290"/><path d="m252.67611 28.8168098s5.060645-6.3867266 12.512417-1.3597296c0 0-4.120629-.3598555-12.512417 1.3597296" fill="#a13934"/><path d="m267.561377 53.3453889s-.663041 3.5061117-1.055128 6.8354833c-6.265948-.9017638-8.927674-7.0196613-9.922235-10.3554084z" fill="#eb9090"/><path d="m269.322615 55.3487851s-14.898584 1.5038843-15.692321-7.7889587c-.793382-9.2924889-3.250388-15.3565498 6.22805-16.7095497 9.478792-1.3526458 11.632258 2.0351669 12.651258 5.0723331 1.019709 3.0371662.668354 18.7957198-3.186987 19.4261753" fill="#fc9290"/><path d="m266.634359 30.049917s-3.16609 11.247255-9.299218 13.3879701c-6.132773 2.140361-8.993908.6899592-8.993908.6899592s4.48686-4.2254685 4.922511-10.9777176c0 0 9.851753-8.0298069 13.370615-3.1002117" fill="#060632"/><path d="m265.696327 31.0204642s3.2557 2.1771966 4.199258 4.4808384c.943204 2.3039961 1.687708 7.1475235 3.094191 6.8620476 0 0 2.453109-7.6699515-1.358667-11.5709834-4.042353-4.1358588-5.934782.2280974-5.934782.2280974" fill="#060632"/><path d="m279.398675 65.2895806c-1.548158-1.9398903-4.710707-2.9493275-7.813044-3.4703387-.226326-.0354189-.450174-.0711919-.674021-.1044856-.190907-.0265642-.379336-.0531283-.568118-.0775673-1.308372-.1707188-2.561137-.259266-3.632203-.3060188-.160093-.2263265-.257495-.3658767-.286184-.4083794-.008501-.0085005-.011334-.0131049-.011334-.0131049l-12.598484-1.0200628-.133175-.0109799s-.008855 0-.024439-.0021251c-.008855 0-.01771-.0024793-.028689-.0024793-.94958-.1020063-14.000717-1.3969194-16.523955 3.2068224-1.650164 3.0091853-1.683104 8.7668732-.902827 15.1557249-.234827 2.1669251-.430339 4.3713942-.603183 6.4426884l1.647685.1905534 12.836145 1.4812162 3.927596.4522987 19.863952 2.2912452c.44309.0510031.880512.0775673 1.314748.0796924h.002479c1.594556.013105 3.133859-.283705 4.550613-.8404892 2.481799-.9711848 4.593117-2.7343351 5.990036-5.0142463v-.0021251c-1.90943-7.819419-4.300202-15.4748487-6.333598-18.0278392" fill="#a13934"/><path d="m284.644737 223.65334h-54.21315c-11.686803 0-21.160637-9.473833-21.160637-21.160282v-54.213505c0-11.686449 9.473834-21.160282 21.160637-21.160282h54.21315c11.686095 0 21.159928 9.473833 21.159928 21.160282v54.213505c0 11.686449-9.473833 21.160282-21.159928 21.160282" fill="#52c5ba"/><path d="m293.303299 150.881776v47.136819c0 1.177677-.166468 2.317809-.476737 3.395605-1.419233 4.927824-5.849777 8.579861-11.172876 8.837711-.199408.010979-.398816.01523-.600703.01523h-47.137528c-.083588 0-.167885 0-.252536-.004251-.079693 0-.162218-.002479-.241557-.006729-5.342224-.210742-9.804645-3.845779-11.255047-8.768998-.325853-1.10011-.498697-2.264327-.498697-3.468568v-47.136819c0-6.766417 5.484254-12.250671 12.247837-12.250671h47.137528c6.766062 0 12.250316 5.484254 12.250316 12.250671" fill="#eef4f4"/><path d="m250.43091 172.720754s-.271309 8.383287-1.343791 12.138393l-8.491669 5.924511 31.966218 4.783669-7.623553-10.533565s-2.301516-11.239817-1.094442-15.397636c1.207074-4.157818-13.412763 3.084628-13.412763 3.084628" fill="#fc9290"/><path d="m250.384582 173.878772c0-.002832 2.527843 6.085313 7.289199 5.951076 4.761355-.133883 5.845172-5.518611 5.845172-5.518611z" fill="#ea8989"/><path d="m247.542467 168.951622s-1.537532-7.676327-2.610723-10.00122c-1.072837-2.324539-1.967517-12.696949 9.925424-13.233898 0 0 4.56053.536949 7.064289-.983228 0 0 0 1.520177-.626205 2.056773 0 0 4.11319-.983936 7.332409 2.593014 3.218865 3.576595-2.145673 16.095032-1.877553 19.046131z" fill="#12123c"/><path d="m257.127976 177.478426c-3.449796-.061275-9.800395-4.655099-9.800395-10.344074v-8.877735c0-2.077315 1.448985-3.77742 3.219573-3.77742h13.162707c1.769879 0 3.218864 1.700105 3.218864 3.77742v8.375495c0 5.965243-5.843755 10.915735-9.800749 10.846314" fill="#fc9290"/><path d="m247.327652 162.996828s.018418-5.334078 4.243178-6.154379c4.225468-.819946 13.681238 2.599744 15.02255-1.2896 1.341312-3.889698-18.277896-3.822756-19.265728-1.341312-.987478 2.48109 0 8.785291 0 8.785291" fill="#12123c"/><path d="m278.651195 210.267141h-44.735775c-.083589 0-.167886 0-.252537-.004251 1.131278-10.248089 3.559595-22.607496 5.502673-23.421421 0 0 .221367-.081817.649581-.214992.006376-.002125.01098-.002125.01098-.002125 1.013333-.316999 3.166445-.909202 6.293575-1.388419.00673 0 .015584-.002125.022314-.002125.902472-.139551 1.884991-.265996 2.945077-.374732 0 .123966 3.676831 5.499839 8.041141 6.103022 2.712375-1.073191 4.843528-1.986643 7.810919-5.927698.977914.115111 1.980267.248286 3.005289.407671 2.492424.38394 5.118377.905305 7.861213 1.597035.324082.080047.652415.164344.980394.252891h.002125c.130695.030814.25962.066233.390316.102006 0 0 .031522.134946.108735.937891v.002125c.168594 1.820883.570244 7.069957 1.36398 21.933122" fill="#c13f3c"/><path d="m239.519957 186.681801c-.011334.002479-.022669.004604-.033648.008855-.167886.037898-.394212.09811-.682876.197637-.017355.006729-.035419.01098-.048169.015584-.015939.00673-.029398.01098-.040378.013105-.017355.007084-.026918.008855-.026918.008855-2.359604.818529-8.269239 3.816735-16.521476 14.561396 1.450402 4.92322 5.912468 8.558257 11.254693 8.768999.079693.00425.161864.006729.241911.006729.084297.004251.168594.004251.252536.004251h4.448608 7.427332c.128216-7.568654.219597-14.153018.276975-18.666441.024793-1.993727.042149-3.581554.055608-4.674934.011334-1.095505.017709-1.691958.017709-1.691958-.006375 0-.015584.002125-.021959.002125-2.339769.279809-5.211884 1.046627-6.599948 1.445797" fill="#1a165e"/><path d="m277.178409 187.393968c-.600704-.224202-1.010854-.315228-1.2177-.350293-.003896 0-.006022 0-.008147-.002479-1.579326-.39917-5.147421-1.257369-8.008201-1.601286v.002125c0 .064817.008855 1.428088.026564 3.781316v.00248c.013105 1.50778.030814 3.42394.050649 5.663827.040023 4.171278.097756 9.469584.175677 15.377447h8.48246 4.37352c.201887 0 .400941-.00425.600703-.01523 5.322745-.257495 9.753642-3.909886 11.172876-8.837711-7.717413-10.106059-13.228586-13.126579-15.648401-14.020196" fill="#1a165e"/><path d="m265.571121 164.216759c-.226326 1.12207-1.07142 1.840718-2.510134 2.133278-1.095859.223847-2.137881.102006-2.148861.099881h-.015939c-1.066107 0-1.825133-.623018-2.384042-1.960433-.072963-.175678-.230577-.594329-.268121-1.037773v-.000708c.073671.029398.147342.062691.220305.100944.07438.039315.166823.010979.206138-.0634.039669-.07438.010626-.166469-.063046-.206138-.12184-.064462-.245098-.113694-.367647-.156905v-.002125c.017709-.206492.070837-.403775.181344-.57414.228806-.342146.67225-.516761 1.317581-.516761h3.876593c.687126 0 1.288184.252536 1.647685.69173.319124.390316.425735.907077.308144 1.49255zm-9.560255-.738483c-.042149.432465-.195512.840136-.26635 1.011209-.558555 1.337415-1.317581 1.960433-2.384043 1.960433h-.015584c-.01098.002125-1.055127.123966-2.150987-.099881-1.436942-.29256-2.282036-1.011208-2.508008-2.133278-.117945-.585473-.011334-1.102234.30779-1.49255.359501-.439194.960205-.69173 1.648039-.69173h3.874467c.647103 0 1.090901.174615 1.319352.516761.117591.174969.170719.385357.181699.600704v.002833c-.197283.062692-.323374.117945-.340729.126091-.076151.035065-.109799.125383-.074734.201888.025856.056316.080401.089255.138488.089255.021251 0 .042857-.004958.063399-.013813.003188-.002125.080401-.035419.207201-.079338zm9.449748-.915931c-.408379-.499052-1.080275-.785236-1.845322-.785236h-3.876593c-.736003 0-1.250993.212867-1.530448.630101-.128216.194804-.195158.414401-.219243.640727v.002126c-.649581-.161156-1.281808-.07863-1.721001.031168v-.002479c-.022314-.237306-.086422-.467529-.222077-.671542-.276975-.417234-.791611-.630101-1.52974-.630101h-3.874467c-.765402 0-1.436943.286184-1.845322.785236-.370127.452299-.494447 1.042023-.361627 1.705418.441673 2.188884 2.965266 2.468339 4.225115 2.468339.38819 0 .656311-.026918.707314-.031523 1.179802-.001771 2.009311-.676146 2.612494-2.117338.104486-.24439.268121-.707669.29256-1.189011v-.000354c.418651-.111924 1.061857-.212159 1.707542-.035773v.000708c.020189.494447.191262.973664.297519 1.22443.603183 1.441192 1.432692 2.115567 2.612494 2.117338.051003.004605.319478.031523.707314.031523 1.259495 0 3.783442-.279455 4.22476-2.468339.133175-.663395.008855-1.253119-.361272-1.705418z" fill="#ac4949"/><path d="m129.283611 235.263036h-62.8734135c-13.553022 0-24.5403027-10.987281-24.5403027-24.540303v-62.873413c0-13.553022 10.9872807-24.540302 24.5403027-24.540302h62.8734135c13.553376 0 24.540302 10.98728 24.540302 24.540302v62.873413c0 13.553022-10.986926 24.540303-24.540302 24.540303" fill="#52c5ba"/><path d="m139.324748 150.866227v54.666158c0 5.958867-3.668685 11.06166-8.871005 13.170852-.306019.12432-.616642.237307-.933995.339313-1.38594.452653-2.865031.696689-4.4015.696689h-54.6665121c-7.8466915 0-14.2068539-6.360871-14.2068539-14.206854v-54.666158c0-7.846337 6.3601624-14.2065 14.2068539-14.2065h54.6665121c7.845629 0 14.2065 6.360163 14.2065 14.2065" fill="#eef4f4"/><path d="m98.2554604 151.15018c-1.5269065-.366585-3.305641-.45407-5.3758727-.15726 0 0-3.705874.364814-7.1886093 2.717688-2.770108 1.870824-6.7678334 5.909989-2.2979748 16.988651l2.1187555 3.810359c-.7069602 8.300053-4.1025652 8.300761-4.1025652 8.300761s1.4847581.732108 2.2016356.732108c0 0 1.0473353-.399879 1.2545356-.978977 0 0-.2072003.90991-.4753209 1.199282 0 0 5.7633548.545805 8.6414904-1.629621 1.5648047-1.18299 3.2769518-3.95841 4.382374-6.787314l4.3593514.306727c.047462 1.875074-.624788 4.019331-2.7205213 6.259573 0 0 5.3772893.527387 7.1967553-.961621 0 0-.35773.725732-.68925 1.051939 0 0 6.011641.21641 8.493439-1.658664 2.481445-1.875074.886888-32.632447-15.7982226-29.193631" fill="#15115b"/><path d="m119.085851 219.739274h-42.5621204c-.516761-3.302453-.8341138-6.382831-.6343515-9.338888.2504112-3.712603 1.8895955-7.054726 3.8231104-9.769226 3.151569-4.426293 7.0858946-7.189672 7.0858946-7.189672s.099527-.020189.2684749-.048878c.3038937-.053128.8291552-.137425 1.3898356-.188428h.0070837c.5302202-.279455.7448584-2.20624.8093207-4.463838.0180636-.627976.024439-1.280037.0226681-1.929618-.0024794-.561389-.0092089-1.126674-.0226681-1.683458-.0063754-.25962-.013105-.516761-.0201888-.771423-.0017709-.073317-.003896-.144509-.0063753-.215346-.0021252-.108736-.0067296-.214993-.0109799-.321603-.0021251-.082172-.0046044-.164344-.0088547-.245807-.0021251-.128925-.0092089-.253245-.0134592-.377565-.0063754-.167885-.0131049-.332583-.0201887-.494093-.0014168-.035773-.0038961-.069067-.0038961-.104486-.0070837-.153009-.013105-.301768-.0201887-.448048-.0088547-.177449-.0177094-.350647-.0265642-.514282l-.0070837-.126445c-.013105-.26387-.02621-.510031-.0396691-.731753-.0021252-.060212-.0067296-.12007-.0085006-.177803-.0042502-.068713-.0067295-.132821-.0116882-.195158-.0038961-.061629-.0063754-.121487-.0106256-.177094-.0109799-.186303-.0223139-.343563-.0311686-.470362 0-.02869-.0024793-.055608-.0042503-.081818-.0021251-.031169-.0046044-.059858-.0067296-.084297-.0070837-.11759-.0109798-.179928-.0109798-.179928l7.1829423-1.421358h.0024793l4.9232195-.975789.576265-.112986.144155-.02869v.008855c-.006376 1.844614.095276 3.552511.275204 5.104564.150884 1.315456.359147 2.521822.603183 3.608473v.002479c.895743 3.969744 2.290891 6.360517 3.297141 6.754728h.002479c.035773.015939.066942.026919.100235.035773 4.900906 1.004479 12.345948 13.713824 12.96684 27.353268" fill="#fc9290"/><path d="m89.0112829 179.41056s.2755586 3.810713.2837049 7.400768c6.776334-.190908 10.3578878-6.372559 11.8252902-9.798979z" fill="#e75755"/><path d="m86.748479 182.809954s16.032341.264579 16.043321-9.722119c.010626-9.986344 2.087941-16.678027-8.1481057-17.269168-10.2353386-.59114-12.2287113 3.217448-13.0429906 6.549654-.8146335 3.332205.9779143 20.115426 5.1477753 20.441633" fill="#fc9290"/><path d="m87.3417092 155.573746s4.3894578 11.716201 11.1261226 13.448536c6.7366652 1.731982 9.6590742-.072254 9.6590742-.072254s-5.16761-4.105044-6.240093-11.270632c0 0-11.2337957-7.681639-14.5451038-2.10565" fill="#15115b"/><path d="m88.4298471 156.524919s-3.2783686 2.615682-4.0777719 5.158755c-.7986951 2.542719-1.1581964 7.777979-2.6843945 7.600531 0 0-3.3070578-7.963574.4094419-12.468851 3.940701-4.776586 6.3527245-.290435 6.3527245-.290435" fill="#15115b"/><path d="m87.820395 156.920618s3.1278384 12.269443 11.6276534 16.198456c0 0-8.499815-7.537839-9.2220053-15.636713-.7211278-8.099227-2.4056481-.561743-2.4056481-.561743" fill="#15115b"/><path d="m128.369096 213.675886c-.273079-.652061-.543325-1.294913-.807196-1.927139-.133175-.317353-.265995-.630102-.397045-.940371-.002125-.018063-.00673-.024439-.00673-.024439-3.705874-8.797687-6.639617-15.439784-6.927926-15.925376-.82703-1.39692-12.117496-2.783213-13.771911-2.774359-1.202115 0-1.860552-3.976474-2.126901-6.154024-.077568-.598579-.756547-.913807-1.255244-.572015-.117591.079338-.237307.159739-.357022.234827-.148759.095277-.294685.188783-.443444.281934-.148759.091027-.297164.179574-.446278.265996-.099527.057733-.199054.115111-.298935.170719-.11334.064462-.226326.12432-.339312.184178-.102007.055253-.206138.108381-.308499.162218-.103777.05242-.206137.104131-.310269.15478-.104131.051358-.205783.099881-.308498.148405-.081817.037898-.161864.075797-.243682.113695-.1508838.068358-.299643.134946-.4505273.196929-.1062565.046752-.2146382.091026-.3212489.1353-.0754421.031168-.1505301.062337-.2259723.091026-.4129837.161864-.8252591.310269-1.2332842.443444-3.4420036 1.130924-6.6598059 1.237535-8.5161077.798695-.0442736-.011688-.0910265-.022668-.1353-.033648-.9446207-.244036-1.8049445.596453-1.6009319 1.552762.2482861 1.130924.3127484 2.368105-.3262076 2.993601-2.8671557.638602-9.8467938 2.419462-11.1544577 4.903386-.9389536 1.780859-1.0250214 12.263776-1.5325735 21.582829h1.0951508 13.4106382 36.0886181c1.536824 0 3.015915-.244036 4.401854-.696689.317353-.102006.627622-.214993.933995-.339313-.705543-1.716043-1.403649-3.399501-2.084753-5.027351" fill="#96b5f4"/><path d="m113.024836 219.739274h-6.786251c1.716752-2.8413 3.353457-4.906219 4.299848-5.02133.8118-.097048 1.676729 2.035875 2.486403 5.02133" fill="#6d89cf"/><path d="m106.458182 192.085265s-8.4541246 5.353913-14.8507684 4.086627c0 0-1.5354071-.969768.58264-1.945912 1.9884141-.913098 6.6144698-3.616618 5.598303-6.283658 1.7571291-.572368 3.5705744-1.413212 5.2880344-2.584159.499405-.341083 1.17803-.026564 1.254181.572369.267766 2.177551.926203 6.154733 2.12761 6.154733" fill="#6d89cf"/><path d="m364.98499 77.375731s-4.822984 5.7219148-10.964967 3.3283091c0 0-1.321477-3.1958426-1.339895-5.551196-.002125-.2897261-.006021-.5709518-.010625-.8380099-.032586-2.6528717-.122195-4.1411717-.122195-4.1411717s.002125-.0007083.006375-.0017709c.279455-.1161738 9.389182-3.8564041 9.381745-3.5457808-.156552 7.1744417 3.049562 10.7496202 3.049562 10.7496202" fill="#fc9290"/><path d="m361.020417 68.3368411c-.878387 1.6285586-3.892177 4.8141298-8.350702 5.9779931-.032939-2.6528717-.122549-4.1411717-.122549-4.1411717s.002125-.0007083.00673-.0017709c.252182-.0672958 8.727558-2.3146217 8.466521-1.8350505" fill="#ea8888"/><path d="m350.639613 69.8978206s10.244902 2.4084816 11.646426-3.9941835c1.401523-6.4030192 3.667976-10.4046406-2.813319-12.213127-6.482004-1.8084863-8.292615.3556052-9.280093 2.379084-.987477 2.0231246-2.182155 13.0369694.446986 13.8282265" fill="#fc9290"/><path d="m361.93564 67.6480154c.140259.0896096 2.344019.766818 6.518839-7.5495274.655249-1.3055387 1.10188-4.1298376-.425735-6.6254496-1.527615-2.4952578-6.944219-4.457462-11.444183-5.3110562-4.500673-.8539484-5.581302 1.678145-6.64068 4.2233434-1.112506 2.6716436-4.32535 4.8711541-4.32535 4.8711541 3.880489 2.1676335 8.554714-.9329325 10.174064-.4232552 1.61935.5100314 2.191364 3.0619593 2.312851 3.8801347.121132.8181754.308144 1.4975089 2.344373.7671722 2.03623-.7306908.920536 2.8855735.594329 3.5769495 0 0-.276622 1.8421342.891492 2.5905345" fill="#a83f3f"/><path d="m388.326507 227.325283h6.203611c1.299872 0 2.745315-1.302351 3.106941-3.68604.361627-2.385459 3.034687-3.685331 3.613431-5.637263.578744-1.951225-2.385459-4.698665-2.385459-4.698665l-.49551-.636831-.515344-.663749-4.913657 1.156071s-.121487 1.170239-.197283 2.660664c-.05242 1.076025-.081818 2.319935-.020189 3.410835.144863 2.602223-.72892 5.403854-3.039999 5.910343-2.313205.50649-1.356542 2.184635-1.356542 2.184635" fill="#12123c"/><path d="m345.141758 227.325283h16.4432c.15726-.030815.276975-.065171.34923-.101298 1.09763-.549701.754067-4.752855.622309-6.051664-.025502-.240494-.043919-.381461-.043919-.381461s-5.781773-4.624639-6.57728-1.083463c-.025502.110507-.0549.218889-.085714.325499v.001771c-1.00377 3.313788-5.49063 4.81838-8.081873 5.237739-1.980622.321958-2.494549 1.475904-2.625953 2.052877" fill="#12123c"/><path d="m348.455723 132.500811s.878033 10.956112 1.910492 24.125902c1.402587 17.889706 3.089232 39.864975 3.256763 44.027753.287955 7.228986 1.445798 18.792177 1.445798 18.792177s2.74496 2.747086 8.239486 1.58889c0 0 4.895239-16.506246 6.293929-33.971633.022314-.285831.043565-.57414.065171-.862449 1.300934-17.779553 3.324059-55.218338 3.324059-55.218338z" fill="#1a165e"/><path d="m348.455723 132.500811s.878033 10.956112 1.910492 24.125902l19.235976 30.437187c.022314-.285831.043565-.57414.065171-.862449 1.300934-17.779553 3.324059-55.218338 3.324059-55.218338z" fill="#0e0e38"/><path d="m352.465596 133.801887s15.828329 39.678318 26.236158 58.325278c10.40712 18.646253 13.659632 23.850344 13.659632 23.850344s5.962409-2.385105 6.504318-4.011539c0 0-3.979662-35.997945-10.949383-44.773673-3.938222-4.958285-8.564277-19.838805-8.781395-25.042542-.216763-5.204091-1.409316-15.50283-1.409316-15.50283z" fill="#1a165e"/><path d="m388.562396 126.592912.167177 2.551927s-1.682749 4.533259 3.032562 6.858506c0 0 2.018166.814279 2.100338-.756901.081463-1.571534-.176032-.980393-.012397-3.193717.163635-2.212616-.706252-4.303744-2.169759-5.007871l-1.200699-1.38594z" fill="#fc9290"/><path d="m390.403893 128.450843c-1.751816.562451-2.032334.434943-2.032334.434943s-8.527441-15.524435-9.390953-16.945085c-.863511-1.421713-18.104344-17.409072-18.104344-17.409072l4.430898-16.522184s19.608937 25.393189 21.726275 29.036725c3.499383 6.021559 5.549425 20.005274 5.549425 20.005274s-.802945.957371-2.178967 1.399399" fill="#0b0754"/><path d="m345.114131 101.018166c.061629 3.392771.258912 7.207027.524553 11.081495.016293.229514.032586.459028.048878.688896.170365 2.399627.354543 4.805275.566348 7.150711.084651.940725.175323 1.87047.269537 2.783568l.014168.123257c.007438.341438.048878.712628.086776 1.050878.864574 8.785645 1.770588 15.726676 1.938828 15.833287.200825.133883.426797.201533.674729.172136 2.303996-.289372 9.17844.23341 14.806495-.99102 4.749313-1.001645 8.838419-2.900803 13.172269-5.46194.575202-.339667 1.886054-1.240368 1.779443-1.913326-.10484-.739546-.298581-1.808841-.544388-3.152632-.853594-4.673163-2.327372-12.712533-2.83032-22.120487-.097756-1.752525-.240494-3.48309-.425026-5.184965-.483467-4.432669-1.257015-8.6432616-2.295141-12.3834919-1.929619-6.9484695-4.765606-12.269443-8.323075-14.3510086-.46505-.2603286-2.965974 1.3310403-5.262887 2.8051727-2.121589 1.3600837-4.355101 1.7358777-6.527339 1.5463869l-1.911555 2.114151c-2.314976 2.691124-4.780128 6.2737405-5.452732 11.3666165-.050649.3765024-.094214.776027-.130341 1.2010532-.186658 2.0744819-.23164 4.7004352-.17922 7.6412622" fill="#211d63"/><path d="m345.114131 101.018166c.061629 3.392771.258912 7.207027.524553 11.081495.016293.229514.032586.459028.048878.688896 13.160936-8.238069 15.188311-23.3126851 15.188311-23.3126851-6.474566.283705-11.618091 1.7727133-15.582522 3.9010319-.186658 2.0744819-.23164 4.7004352-.17922 7.6412622" fill="#0b0754"/><path d="m306.226362 86.5114914-2.395731-1.2297423s-1.545679-5.0974806-7.322493-4.3678523c0 0-2.350748.4756751-1.367521 1.9420154.983935 1.4663403.817821.7785063 2.159133 2.8724685 1.342374 2.0943165 3.525946 3.4590047 5.30716 3.2167398l2.005061.5298659z" fill="#ea8888"/><path d="m303.880855 87.1771533c.678625-1.8350505 1.733398-1.7160432 1.733398-1.7160432s19.568559 4.8764669 21.324626 5.0857923c1.755712.2093254 21.071735-7.5420894 21.071735-7.5420894s7.603364-3.4126059 11.164375-.2968099c3.094899 2.7074167 3.235512 6.1373779 2.51155 9.0172844-.863157 3.4320863-3.767503 5.9677216-7.278219 6.4150617-7.880339 1.0037701-23.602766 2.8933658-26.898489 2.4346918-7.334889-1.0211256-23.953413-10.6146747-23.953413-10.6146747s-.208617-1.3416659.324437-2.783213" fill="#211d63"/><path d="m139.768971 233.37553s.555721-6.064769-6.219904-6.064769c0 0 2.053231.557139 3.115442 1.671061 0 0-4.321454-2.537052-9.024723 1.361501-4.702914 3.898198-1.780505 13.675925-3.211072 15.532227-1.430213 1.856656-6.999827 2.2282-6.319077 8.230632.681105 6.00314 17.67613 13.520791 16.584521 18.487576 0 0 6.660869-9.790832 1.898096-14.25892 0 0 2.321352 2.18676 2.557595 4.785795 0 0 .630157-5.074813-2.598681-6.69735-2.857592-1.436234-5.198424-6.689558-4.950492-7.628157.246869-.938954 8.168295-15.419596 8.168295-15.419596" fill="#12123c"/><path d="m133.615973 261.906722c-1.044502-5.031601-7.568653-6.591801-10.655406-2.483215-.554659.739191-.945683 1.612266-1.072837 2.643309-.704835 5.711289 8.427207 28.974034 9.73487 31.080747 2.380855 3.834798 16.399989 16.979795 16.399989 16.979795l2.583805-1.566221s-9.943841-16.834578-11.483853-18.409655c-1.780151-1.821591-3.52205-18.691588-5.506568-28.24476" fill="#ea8989"/><path d="m132.112762 258.785082s1.986997 2.066336 2.894782 4.541759c0 0-3.170341 9.103352-10.578547 10.244902 0 0 5.861465-14.790203 7.683765-14.786661" fill="#9e332e"/><path d="m137.852067 232.522574c.091735-.369419-8.027682 3.669392-8.439249 4.126295-3.807526 4.223698-2.722292 9.735933-.54297 9.789061 1.397273.033648 1.126319 2.357125 1.126319 2.357125l15.567646-6.585427s-1.87472-10.93061-7.711746-9.687054" fill="#12123c"/><path d="m120.736193 364.505844-3.369041-.494801s-11.327302-9.0017-13.013947-25.798026c-.172136-1.709668-.208263-3.444483-.080401-5.193112.014876-.201887-.007438-.403774-.117591-.573431 0-.001417-.001416-.002125-.003896-.004604-.362335-.556076-1.265161-1.948037-2.486403-3.928659-1.204241-1.950516-3.2649093-5.63868-5.5324239-9.777727-4.0845015-7.453188-8.8391276-16.366695-10.4705197-19.205516-5.1970075-9.048453-2.6921866-15.133057-2.6921866-15.133057s14.498351-1.433754 18.4709292-4.908698l1.430567 2.205532s3.141652 13.906502 2.993247 13.970964c.15478.472842.311686.95383.471425 1.444027 2.478965 7.651533 5.330536 17.214622 6.884715 25.003581.874137 4.382728 1.337062 8.200526 1.088067 10.802394-.085005.891847.018418 2.263265.256433 3.95664 1.403294 9.980323 6.171026 27.634493 6.171026 27.634493" fill="#1a165e"/><path d="m127.802678 368.768219h-14.054907s-.336834-2.142132.397045-3.767503c.703772-1.559137 1.706126-1.609078.128216-4.052978.892909.919473 3.763961 1.299517 5.79594 1.026438.248995.403775 1.605182 3.1119 2.436817 3.709416.918411.659499 5.013892.423963 5.296889 3.084627" fill="#0e0e38"/><path d="m106.335881 297.1087c-1.227972 6.771376-4.127358 18.04059-10.2034617 21.627103-4.0841473-7.453188-8.8391276-16.366695-10.4705197-19.20587-5.1970075-9.048453-2.6921867-15.133057-2.6921867-15.133057s14.4983511-1.433755 18.4712831-4.908698l1.430567 2.205886s3.141298 13.906148 2.992893 13.97061c.15478.472842.311686.95383.471425 1.444026" fill="#0e0e38"/><path d="m96.478426 285.442618.0474612-2.628787c-5.2373849.659853-18.0582994-6.258511-18.0582994-6.258511s-5.4792957 3.644246-6.2291127 14.051366c-.3662309 5.080125-2.6822693 26.563073-2.9383476 32.978134-.0935057 2.325248-.1246743 3.984266-.1353 4.647661.0010626.002834.0010626.004605.0007084.006022-.0028335.202241-.0981102.381106-.2224304.540845-1.0838167 1.377794-2.0238329 2.83705-2.8381122 4.350497-7.9919088 14.868833-3.8124848 35.073514-3.8124848 35.073514l1.8559476-.471779s6.757562-20.944935 11.1739381-30.005076c.7494628-1.53647 1.4305672-2.731856 1.9997481-3.42394 1.6611439-2.01675 3.4118976-5.441752 5.137858-9.564152 3.2624301-7.793209 6.4302918-18.076717 8.6889517-26.039228.1593848.029043 5.329474-13.256566 5.329474-13.256566" fill="#1a165e"/><path d="m127.127488 267.897856c-8.561798-1.964683-3.091711-13.995758-2.595493-13.784307 1.186177-.241557 3.791588-2.324893 6.122148-6.393102l.314873.273788 5.258637 4.610471s-1.215575 1.793256-2.238117 3.549323c-.79905 1.374959-1.478383 2.730084-1.370356 3.19478.423256.333291-3.208239 9.074308-5.491692 8.549047" fill="#fc9290"/><path d="m136.22744 252.605804s-1.216283 1.791131-2.237763 3.549323c-3.269513-2.015333-3.273764-6.063353-3.021582-8.159794z" fill="#ea8989"/><path d="m136.373401 254.914971s-7.938426-4.417439-5.111648-9.319053c2.827133-4.90126 3.706228-8.771832 8.894381-6.158983 5.187799 2.613557 5.085438 5.046123 4.539988 6.911988-.545804 1.865156-6.185193 9.588944-8.322721 8.566048" fill="#fc9290"/><path d="m146.036796 243.489949c-.363397-2.17578-1.468819-2.383689-2.239888-2.238471-2.931618-4.848486-7.721308-2.956057-7.721308-2.956057-2.558304 3.21001-6.257094 3.757939-6.257094 3.757939s.921244 1.714273 4.716728 2.775067c1.159613.324083 2.475777.127862 3.74448-.298935-2.633037 1.468111-5.386852 2.030563-5.386852 2.030563 5.00185.457611 9.760726-4.114962 10.25411-4.604451.230931.708732.635769 2.192073.39315 3.276952-.329041 1.474133-1.637768 4.143651-.838719 4.488985 0 0 3.880489-2.967745 3.335393-6.231592" fill="#12123c"/><path d="m73.4691384 368.768219h-14.0549071s-.3368332-2.142132.3973995-3.767503c.7034183-1.559137 1.8049444-2.267869 1.541074-4.154631.8932634.919474 2.3486238 1.949454 4.3809573 1.675666.2489945.403775 1.6069531 2.564325 2.4382334 3.161841.9187649.659499 5.0146005.423963 5.2972429 3.084627" fill="#0e0e38"/><path d="m128.134729 277.43601c-1.808132.631164-4.346601.976852-6.943511 1.25914-3.695248.403066-7.511275.679333-9.50996 1.476258-.72892.290788-1.216637.65029-1.368584 1.108964-.8667 2.60541-4.684851 6.625095-4.684851 6.625095-24.4733614-1.113568-27.1602352-11.350324-27.1602352-11.350324 16.4658681-19.147075 44.3454602-24.689062 44.3454602-24.689062s1.991247-.844031 7.006556 3.141298c3.346373 2.661018 2.905408 3.682143 2.905408 3.682143s.731753 16.890186-4.590283 18.746488" fill="#b35656"/><path d="m121.19136 278.695044c-3.695602.40342-7.511275.679333-9.50996 1.476257-.816759-12.205689 4.943408-21.386608 4.943408-21.386608s3.757231 15.291379 4.566552 19.910351" fill="#9e332e"/><path d="m225.637539 368.388458h-57.817018c-12.463538 0-22.566765-10.10358-22.566765-22.566764v-57.817019c0-12.463538 10.103227-22.566764 22.566765-22.566764h57.817018c12.463184 0 22.566765 10.10358 22.566765 22.567118v57.81631c0 12.463539-10.103581 22.567119-22.566765 22.567119" fill="#52c5ba"/><path d="m234.871339 290.77829v50.271033c0 3.441649-1.332811 6.570904-3.508591 8.903944-2.384043 2.559012-5.783544 4.159943-9.556005 4.159943h-50.270679c-3.876593 0-7.358265-1.689124-9.751163-4.37281-2.05996-2.308955-3.310954-5.353559-3.310954-8.691077v-50.271033c0-7.214111 5.847652-13.062117 13.062117-13.062117h50.270679c7.214111 0 13.064596 5.848006 13.064596 13.062117" fill="#eef4f4"/><path d="m186.828293 315.556926s-7.296282-13.233898-.604245-19.077654c6.692391-5.843756 18.474117-2.356416 20.64175 0 2.167988 2.356416 5.054978 9.058016-.931516 18.587811z" fill="#12123c"/><path d="m189.853098 321.002574s-.263516 8.171482-1.309789 11.832374l-8.277738 5.774335 31.159731 4.662891-7.430875-10.26757s-2.243429-10.956112-1.067169-15.00909c1.176614-4.052979-13.07416 3.00706-13.07416 3.00706" fill="#f0807d"/><path d="m189.807798 322.13123c.000354-.002479 2.464443 5.931595 7.105375 5.8009 4.641285-.130696 5.69783-5.379061 5.69783-5.379061z" fill="#ed6966"/><path d="m196.381359 325.639893c-3.362666-.05915-9.553172-4.537509-9.553172-10.083038v-8.652824c0-2.02525 1.41215-3.682144 3.13811-3.682144h12.830478c1.725606 0 3.137755 1.656894 3.137755 3.682144v8.162981c0 5.815067-5.696059 10.640531-9.553171 10.572881" fill="#f0807d"/><path d="m231.362677 349.953338c-2.384042 2.559011-5.783543 4.159943-9.556005 4.159943h-50.270679c-3.876592 0-7.358265-1.689125-9.750808-4.373165 10.773705-14.317361 17.603875-15.219479 17.781324-15.240022 1.272953-.394566 4.37104-1.294913 9.005596-1.769525 0 .119716 3.610597 5.408812 7.866172 5.996765 2.643663-1.044856 4.62641-2.069169 7.518359-5.910343 3.278014.381461 6.916946 1.137653 10.687283 2.086878l-.00248-.017709s6.384602 1.600932 16.721238 15.067178" fill="#567bcb"/><path d="m186.828293 310.412551s2.334457-7.12521 9.983157-6.013766c7.647991 1.111089 8.30997 2.745669 9.122832 4.640931.813217 1.895971 2.381918-6.928989 2.381918-6.928989l-9.021181-2.680498s-10.916797 1.242139-11.70097 3.072585l-.784882 1.830446z" fill="#12123c"/><path d="m195.756003 296.626898s-8.082581-7.345161-4.614721-8.91457c3.467505-1.569055 4.614721 8.91457 4.614721 8.91457" fill="#12123c"/><path d="m195.430186 296.820568s-10.220109-3.850737-7.574321-6.587197c2.645434-2.735752 7.574321 6.587197 7.574321 6.587197" fill="#12123c"/><path d="m196.099141 297.034002s-1.672478-9.473833 2.367042-9.404766c4.039519.069066-2.367042 9.404766-2.367042 9.404766" fill="#12123c"/><path d="m196.666374 296.415554s4.377416-10.191065 8.452708-9.23759c4.075293.953475-8.452708 9.23759-8.452708 9.23759" fill="#12123c"/><path d="m196.441571 297.034002s6.967595-8.630156 10.633446-6.611282c3.666205 2.019229-10.633446 6.611282-10.633446 6.611282" fill="#12123c"/><path d="m124.995096 256.423389s-9.262028.915223-10.005116 6.933239c-.742379 6.018725 8.880568 30.532464 10.258361 32.752163 2.509071 4.04129 17.282627 17.892893 17.282627 17.892893l2.722647-1.650518s-10.479021-17.73953-12.101558-19.399611c-2.546615-2.606473-5.020622-34.443413-8.156961-36.528166" fill="#fc9290"/><path d="m115.257676 266.977781c.024085.136716 8.548339 2.784275 14.033656 0 0 0 1.17378-12.656571-5.375164-11.9698-6.548945.687126-10.426955 2.749565-10.592007 5.884842-.165052 3.13563 1.933515 6.084958 1.933515 6.084958" fill="#b35656"/><path d="m142.530897 314.001826s-1.143675 4.343768 0 6.310222c1.144029 1.9661 2.722647 3.485569 2.722647 3.485569v-11.446309z" fill="#fc9290"/><path d="m342.430374 368.388458h-72.314306l23.767817-102.950547h68.828738l3.164674 1.390898z" fill="#15152a"/><path d="m338.944522 368.388458h-72.314307l23.768172-102.950547h72.314307z" fill="#eef4f4"/><g fill="#04b7a7"><path d="m343.296082 279.910831h-33.374118c-.737066 0-1.479445.603183-1.64981 1.340958-.17001.73742.293623 1.340249 1.031043 1.340249h33.373763c.737421 0 1.480154-.602829 1.650165-1.340249.170718-.737775-.293623-1.340958-1.031043-1.340958"/><path d="m342.57839 287.053077h-35.236087c-.224909 0-.452298.184532-.50401.409442-.052065.225618.08961.409796.31452.409796h35.23644c.225264 0 .452299-.184178.504365-.409796.051711-.22491-.089964-.409442-.315228-.409442"/><path d="m342.142596 288.940583h-35.236086c-.225264 0-.452299.184178-.50401.409796-.052066.225264.089964.409442.314873.409442h35.236087c.225264 0 .451944-.184178.504364-.409442.051712-.225618-.089964-.409796-.315228-.409796"/><path d="m294.600054 282.59218h9.016576c.737067 0 1.480154-.602829 1.650164-1.34025.170365-.737774-.293622-1.340957-1.031042-1.340957h-9.016576c-.737421 0-1.480508.603183-1.650519 1.340957-.170364.737421.293977 1.34025 1.031397 1.34025"/><path d="m337.798935 300.692096h-33.373409c-.737775 0-1.480154.603891-1.650164 1.340958-.170365.73742.293268 1.340603 1.031043 1.340603h33.373409c.73742 0 1.480153-.603183 1.650518-1.340603.170719-.737067-.294331-1.340958-1.031397-1.340958"/><path d="m337.081243 307.834661h-35.235732c-.225264 0-.452299.184178-.504365.409442-.052065.225618.090319.409796.314874.409796h35.236086c.225264 0 .451945-.184178.504365-.409796.052065-.225264-.089964-.409442-.315228-.409442"/><path d="m336.645414 309.722167h-35.235732c-.225618 0-.452299.184178-.50401.409087-.052066.225618.089609.410151.314519.410151h35.236086c.225264 0 .452299-.184533.504365-.410151.051711-.224909-.089964-.409087-.315228-.409087"/><path d="m289.102518 303.373763h9.01693c.737775 0 1.480154-.603183 1.650164-1.340603.170719-.737066-.293622-1.340958-1.031397-1.340958h-9.016221c-.737421 0-1.480154.603892-1.650165 1.340958-.170364.73742.293623 1.340603 1.030689 1.340603"/><path d="m333.419324 321.474034h-33.373764c-.73742 0-1.479799.602829-1.650164 1.340603-.17001.737421.293623 1.340604 1.031043 1.340604h33.373763c.737421 0 1.480154-.603183 1.650164-1.340604.170365-.737774-.293976-1.340603-1.031042-1.340603"/><path d="m332.701596 328.616245h-35.235732c-.225264 0-.452653.184178-.504364.409442-.052066.225263.089609.409796.314873.409796h35.236087c.225263 0 .451944-.184533.504364-.409796.051357-.225264-.089964-.409442-.315228-.409442"/><path d="m332.265803 330.50375h-35.235732c-.225618 0-.452299.184533-.504365.409442-.052065.225264.089964.409442.314874.409442h35.236086c.225264 0 .451945-.184178.504364-.409442.051712-.224909-.090318-.409442-.315227-.409442"/><path d="m284.722907 324.155347h9.01693c.73742 0 1.480153-.603183 1.650164-1.340603.170719-.737775-.293977-1.340604-1.031043-1.340604h-9.016576c-.73742 0-1.480153.602829-1.650518 1.340604-.170365.73742.294331 1.340603 1.031043 1.340603"/><path d="m328.309482 343.102695h-33.374117c-.737067 0-1.479446.603183-1.650165 1.340603-.169656.737421.294331 1.340958 1.031043 1.340958h33.374118c.73742 0 1.480153-.603537 1.650164-1.340958.170719-.73742-.293977-1.340603-1.031043-1.340603"/><path d="m327.59179 350.244941h-35.236086c-.225264 0-.452299.184532-.504011.409796-.052419.225264.08961.409442.31452.409442h35.23644c.225618 0 .451591-.184178.50401-.409442.052066-.225264-.089609-.409796-.314873-.409796"/><path d="m327.155996 352.132447h-35.236086c-.225264 0-.451944.184532-.50401.409088-.052066.225618.089964.41015.314873.41015h35.236087c.225264 0 .452298-.184532.50401-.41015.052066-.224556-.08961-.409088-.314874-.409088"/><path d="m289.249187 343.102695h-9.016576c-.73742 0-1.480508.603183-1.650518 1.340603-.170365.737421.293976 1.340958 1.031397 1.340958h9.016576c.73742 0 1.479799-.603537 1.650164-1.340958.170365-.73742-.293622-1.340603-1.031043-1.340603"/><path d="m337.765039 273.028382h-28.023392c-1.917576 0-3.33681-1.783693-2.905408-3.652037l1.055482-4.571157h34.501853l-1.284996 5.563947c-.359147 1.556659-1.74544 2.659247-3.343539 2.659247"/></g><path d="m342.393716 264.805259 2.374125.632581h-2.520405z" fill="#fa7269"/><path d="m449.403405 1.86692745h-448.80673909c-.32797853 0-.59680759-.42006753-.59680759-.93328663s.26882906-.93364082.59680759-.93364082h448.80673909c.328333 0 .596808.42042172.596808.93364082s-.268475.93328663-.596808.93328663" fill="#0e0e38" mask="url(#b)" transform="translate(0 368.315283)"/></g></svg>