<svg height="410" viewBox="0 0 290 410" width="290" xmlns="http://www.w3.org/2000/svg"><g fill="none" fill-rule="evenodd" transform="translate(0 .000113)"><path d="m258.661178 152.380542h-42.23988l13.625477-55.8653572h42.23988z" stroke="#04b7a7" stroke-width=".907"/><path d="m190.078559 186.899018-9.53851-25.208034h-23.844585l9.53851 25.208034" fill="#246da7"/><path d="m103.555315 166.687405h135.575299l2.37195-12.717262h-135.576425" fill="#c8d9da"/><path d="m118.543565 86.2957391-12.616975 67.6744039h135.575298l12.616976-67.6744039z" fill="#246da7"/><path d="m209.608672 197.118238 13.486878 210.401613c.077751 1.213583 1.086252 2.158983 2.303215 2.158983 1.301474 0 2.344907-1.074984 2.306596-2.376458l-6.287642-210.184138z" fill="#cee9e8"/><path d="m235.951749 197.118238 13.486878 210.401613c.077751 1.213583 1.086252 2.158983 2.303215 2.158983 1.301474 0 2.344907-1.074984 2.306596-2.376458l-6.287642-210.184138z" fill="#cee9e8"/><path d="m114.612888 197.118238-13.486879 210.401613c-.07775 1.213583-1.086252 2.158983-2.3032146 2.158983-1.3014742 0-2.3449072-1.074984-2.3065954-2.376458l6.287642-210.184138z" fill="#cee9e8"/><path d="m88.2699233 197.118238-13.4868784 210.401613c-.0777504 1.213583-1.0862521 2.158983-2.3032149 2.158983-1.3014742 0-2.3449072-1.074984-2.3065954-2.376458l6.2876415-210.184138z" fill="#cee9e8"/><path d="m75.6229746 200.751436h173.9547024v-11.809047h-173.9547024z" fill="#cee9e8"/><path d="m285.231308 193.030482h-237.9951193c-2.6344993 0-4.7698184-2.135319-4.7698184-4.768691 0-2.634499 2.1353191-4.768692 4.7698184-4.768692h237.9951193c2.6345 0 4.768692 2.134193 4.768692 4.768692 0 2.633372-2.134192 4.768691-4.768692 4.768691" fill="#83d7cf"/><path d="m44.0909031 48.2525781s7.2612118 1.858122 11.3752224 13.007981c4.1140107 11.1498589 1.3713369 34.8445769-1.3713368 37.6311965-2.7426738 2.7877464-11.0721086 1.7229044-22.6242414-2.0902464-12.2056869-4.0283725-16.3298389-16.7174642-18.5113575-25.0874644-4.17711241-16.0278518 9.760493-32.5210792 31.1317133-23.4614667" fill="#ff8d68"/><path d="m15.5190937 178.800355c-.0101413.084511-.02479.178037-.0360581.263675h51.0087736c-1.2744306-9.208352-2.9184573-17.078045-3.5855332-19.079273 0 0 3.7173708.464249 8.3632393-11.149859 4.6447417-11.614108-5.8076173-23.229342-5.8076173-23.229342s-2.3234976-8.362113-6.5039905-11.149859c0 0-1.3938732-4.18162-11.1498589-6.503991-9.7571126-2.323497-24.6232156-3.251995-34.8445769 2.787747-7.89786372 5.110117-6.5039905 24.622088-1.858122 36.237323 4.6458684 11.614108 5.1101172 26.015962 4.413744 31.823579" fill="#ff8d68"/><path d="m48.4888717 80.858394s-1.0456866-4.5298063-4.8779929-2.4395598c-3.833433 2.0913732.6963732 12.8930456 3.8323063 12.1955455 3.135933-.6963732 1.7420598-8.0139259 1.0456866-9.7559857" fill="#fa6157"/><path d="m23.8815443 90.645818s3.4841196 11.498046-2.7877465 19.511971c0 0 11.149859 6.969367 22.6490314.6975l1.7420598-1.045686s.6963732-6.968239-3.1359331-16.3760386c0 0-6.6200526-9.4077991-18.4674116-2.7877464" fill="#ff8d68"/><path d="m55.6110343 278.49451c10.6642006.818302 10.9752022 6.00279 10.8242087 11.132063-.1509936 5.129273-10.0647338 41.771124-24.8767495 67.593273 0 0-2.8936673-.281704-10.9177346-3.588914l1.2394993-6.40145s3.3781988-14.917936 4.6841802-22.832702c1.3048547-7.914766 4.3776859-21.664193 6.7068177-27.969864 2.605202-7.056131 3.8751253-13.220949 7.3220599-15.612056 3.4469347-2.392234 5.0177183-2.32035 5.0177183-2.32035" fill="#ff8d68"/><path d="m102.481683 248.095461c10.426443 2.383219 9.967828 7.557565 9.061867 12.607961-.905962 5.051522-14.733139 44.777473-33.1960434 68.129638 0 0-2.5443538-.993853-9.9914906-5.450416l2.3561754-10.366721s5.543942-14.255368 8.0037845-21.890683c2.4598426-7.635315 7.5282676-20.779641 10.7633606-26.672897 3.6193377-6.594135 3.9348466-12.947132 7.6972902-14.804128 3.7624433-1.855868 5.3050563-1.552754 5.3050563-1.552754" fill="#ff8d68"/><path d="m78.347732 328.833398s-2.2705372 7.720953-1.3623223 10.900832c.9082148 3.178752 3.6328595 10.900833 4.9963087 12.263155 1.3623223 1.362322 3.6328595 5.904524 1.8164297 7.266846-1.8164297 1.362322-15.897141-7.720953-18.6217856-11.35494-2.7257715-3.632859-6.3586311-3.178752-7.2668459-7.720953-.9082149-4.542201 4.086967-6.812739 6.358631-9.084403 2.2705372-2.270537 4.086967-7.720953 4.086967-7.720953s9.0844025 2.725771 9.9926174 5.450416" fill="#ff8d68"/><path d="m59.2717262 335.192029s2.2705372-3.179879 6.358631-.454107c4.0880939 2.724644 4.5422013 9.083275 7.266846 10.900832 2.7257714 1.81643 4.9963087-.454107 6.8127384 0 1.8175566.454107 5.9045236 10.900832 4.0880939 13.625477-1.8164298 2.724645-14.5336919-5.904524-18.1676783-9.084403-3.6328595-3.178752-14.9877992-9.99149-6.358631-14.987799" fill="#201360"/><path d="m41.7854345 356.084803s-2.2705372 7.720953-1.3623223 10.900832c.9082149 3.178752 3.6328595 10.900832 4.9963087 12.263155 1.3623223 1.362322 3.6328595 5.904523 1.8164298 7.266846-1.8164298 1.362322-15.897141-7.720954-18.6217857-11.35494-2.7257715-3.633987-6.358631-3.178752-7.2668459-7.720954-.9082149-4.542201 4.086967-6.812738 6.358631-9.084402 2.2705372-2.270537 4.086967-7.720953 4.086967-7.720953s9.0844025 2.725771 9.9926174 5.450416" fill="#ff8d68"/><path d="m22.7094287 362.443434s2.2705373-3.179879 6.3586311-.454108c4.0880938 2.724645 4.5422012 9.083276 7.2668459 10.900833 2.7257715 1.816429 4.9963087-.454108 6.8127385 0 1.8175566.454107 5.9045236 10.900832 4.0880938 13.625477-1.8164298 2.724644-14.5336919-5.904524-18.1676782-9.084403-3.6328596-3.178752-14.9877993-9.991491-6.3586311-14.987799" fill="#201360"/><path d="m60.8022824 140.807225s12.6800771 14.516789 22.7842494 18.991382c10.1041723 4.475719 31.7108972-30.298996 35.4564392-30.274206 2.325751-1.746567 1.923477-7.47756-2.5883-8.169426-4.511777-.690739-22.5340961 17.729346-27.3365922 18.762638-2.9781786.641159-13.371943-10.005013-13.371943-10.005013z" fill="#ff8d68"/><path d="m64.8926298 137.879978-3.524685 3.560744c1.8738974 2.074471 8.1390026 8.810585 14.8232839 13.82267 5.6960624-6.272993 6.4848346-13.909435 6.2087643-18.984621-3.3917206-2.826058-6.6538572-6.165945-6.6538572-6.165945z" fill="#fa6157"/><path d="m113.873921 122.955168s4.906163-5.115751 7.670246-7.455024c2.76521-2.338147 6.857812-2.065457 6.857812-2.065457s6.501736.291846 7.562072.108175c1.010755.15212.890185 3.235093-2.579286 3.399608-3.470597.165642-5.071805 1.64628-5.071805 1.64628l-.876664 1.246261s3.823292-.227618 5.844802.07775c2.020384.305368 8.269714-.014649 9.718801-.485658 1.449087-.469883 3.806389-.113809 3.940481 1.283445.132964 1.39838-2.76521 2.339273-2.76521 2.339273s-5.496616 6.749637-9.068627 7.587989c-3.570885.839479-15.031746-1.369083-16.06391-1.113296-1.031038.255788-4.615445-3.38496-5.168712-6.569346" fill="#ff8d68"/><path d="m146.940154 120.711111s-.512702 1.875024-3.628352 1.978692c-3.116777.103667-10.832096 1.006248-10.832096 1.006248" stroke="#e66657" stroke-width=".906"/><path d="m144.17562 123.049934s-1.627124 1.64966-2.233352 2.246874c-.607355.597213-8.22126.825957-8.22126.825957" stroke="#e66657" stroke-width=".906"/><path d="m141.941817 125.296582s-1.948267 2.6345-3.228332 3.130299c-1.280064.4958-6.021712-.047326-6.021712-.047326" stroke="#e66657" stroke-width=".906"/><path d="m69.2638929 189.851167s.9082149 4.996309.4541074 12.489645c-.0991599 1.635012 41.3316647 35.200651 48.1444037 47.009698 6.812738 11.809047.908215 17.712444-1.362322 29.521491-2.271664 11.809047-5.904524 24.52631-14.988927 24.980417-9.0832752.454107-11.5814296 10.446725-26.5692288 9.084403-14.9889261-1.362323-11.5825569 21.34643-27.9338053 24.526309-16.3501217 3.178752-21.3464304-17.485954-20.4382155-27.932679s7.9485705-26.116248 2.0440469-40.195833c-5.9045236-14.079584-7.9485705-19.075893-15.2154164-29.522618-7.26684591-10.446725-7.72095335-20.438215-6.35863102-27.250954 1.36232233-6.812738 5.90452362-18.167678 5.90452362-18.167678l2.2705372-6.358631z" fill="#201360"/><path d="m64.7220297 215.51297c-10.2191077-7.494463-31.3390478-7.494463-45.6462493-4.768692-14.30720151 2.724645-6.1310139 8.856786-6.1310139 8.856786s-1.654168 6.074673-2.6559088 14.970897c.8631422 1.725157 1.8817852 3.475105 3.1100163 5.239701 7.2668459 10.446725 9.3108928 15.443034 15.2154164 29.522618 3.7049758 8.836503 2.3122294 18.298389.5363651 26.703321 12.1076538 9.531749 25.1032398 5.719725 36.9336965-3.539334 15.6695239-12.263155-.6805978-15.669524 4.7686916-32.70137 5.4504161-17.032973 23.1639869-15.669524 16.3512484-29.296128-6.8127385-13.625477-12.2631546-7.493336-22.4822623-14.987799" fill="#201337"/><path d="m18.6217857 108.096953s-2.9522618 11.35494 11.3549397 12.035537c14.3072015.681725 17.0318462-12.263154 22.4822623-11.58143 5.4504162.681725 9.5373832 2.044047 10.9008323 4.768692 1.3623224 2.725771 14.9877993 15.669524 17.0318462 19.757618 2.0440469 4.088093-4.0880938 22.482262-10.2191077 25.888631-6.1321407 3.406369 4.086967 26.570356 2.0440469 30.65845-2.0440469 4.086967-6.8138653 4.768692-6.8138653 4.768692s-51.7772631 2.044047-54.5019078-5.450416c-2.04404692-6.131014.6805977-6.812739.6805977-10.900833 0-4.086967-.6805977-20.438215-5.4504161-35.426014-4.76869157-14.988927-1.36232233-24.52631 2.04404691-28.614403 3.40636919-4.088094 7.04035559-5.904524 10.44672489-5.904524" fill="#ffc249"/><path d="m70.1723331 158.966227c6.1321408-3.40637 12.2631547-21.800538 10.2191077-25.888632-.4856583-.971317-1.6361389-2.450828-3.1100162-4.166971 1.376971 4.555723 2.8204242 13.970283-6.0126981 19.924387-11.9972257 8.087169-17.4476418 14.899907-11.3155011 24.438417 6.1310139 9.537383 4.0880938 18.394169-18.3952953 17.031846-17.0893139-1.035545-23.9437446-6.398069-30.738454-8.613393-.6152424 1.729665-1.19104611 3.43454.0811308 7.251071 2.7246447 7.494463 54.5030347 5.450416 54.5030347 5.450416s4.7686915-.681724 6.8127384-4.768691c2.0440469-4.088094-8.1750608-27.252081-2.0440469-30.65845" fill="#ffa70c"/><path d="m47.0085716 134.44003s5.9045236 12.263155 19.984108 20.892323" stroke="#ff820c" stroke-width="1.209"/><path d="m16.6914346 184.514447s20.7796412 10.219107 41.5581555 3.746668" stroke="#ff820c" stroke-width="1.209"/><path d="m48.7118689 124.901971s-.6817246-4.768692 5.1101173-10.219108" stroke="#ff820c" stroke-width="1.209"/><path d="m41.5818186 46.0777077s6.1558039 0 11.872149 7.4753071c5.716345 7.4753072.8800444 18.4674117-2.6378798 22.8653803-3.5179241 4.3968418-2.6761915 6.6031504-4.6357271 12.9753033-1.9606624 6.371026-7.2364218 8.1299881-3.2790388 19.5626786 3.957383 11.43269 3.0773385 12.312734 2.1984209 26.383304-.8800445 14.07057.8789176 26.382178-2.1984209 30.339561-3.0784654 3.958509-7.6950366 5.057157-18.2488091 3.078465-10.5526457-1.978691-11.872149 4.616571-17.14903521 0-5.27575943-4.616571-6.5952627-3.957383-6.5952627-13.191652 0-9.233143 1.31950327-18.467412.65918822-29.021184-.65918822-10.552646 2.63900654-15.829532 1.9786915-28.3608695-.65918823-12.532464.66031504-32.3193789 4.61769802-40.2341449 3.95738297-7.9147659 16.04926137-17.1490352 33.41802597-11.8721489" fill="#41100f"/><path d="m21.1198273 201.205994s14.3072016 3.406369 41.5581555 2.724645" stroke="#14113e" stroke-width="1.209"/><path d="m32.9289872 398.778339h8.1750608v-158.966902h-8.1750608z" fill="#cee9e8"/><path d="m8.17506081 242.764825h62.67809549v-9.53851h-62.67809549z" fill="#cee9e8"/><path d="m65.6303572 225.050804c-3.0615631-6.124253-9.3210341-9.992617-16.1675771-9.992617h-43.12105133c-3.50214872 0-6.34172877 2.83958-6.34172877 6.342855v3.552856c0 6.449903 5.2284331 11.678336 11.6783364 11.678336h62.5811891c3.0108563 0 5.4504161-2.43956 5.4504161-5.449289 0-3.010857-2.4395598-5.450416-5.4504161-5.450416h-7.5271408c-.4665024 0-.8935662-.263676-1.1020275-.681725" fill="#83d7cf"/><path d="m11.6788998 236.632797h62.5811891c3.0097295 0 5.4504161-2.440686 5.4504161-5.450416 0-.155501-.0326777-.301987-.0461995-.454107h-78.12901669c2.0113692 3.523558 5.79634912 5.904523 10.14361099 5.904523" fill="#04b7a7"/><path d="m40.9406595 397.870237h-3.0840995-.77187-3.0840994l-31.61624481 10.900833h70.17255851z" fill="#cee9e8"/><path d="m59.6123631 378.340124h-44.2839269c-1.6924798 0-3.0649435-1.372464-3.0649435-3.06607 0-1.69248 1.3724637-3.066071 3.0649435-3.066071h44.2839269c1.6936067 0 3.0660704 1.373591 3.0660704 3.066071 0 1.693606-1.3724637 3.06607-3.0660704 3.06607" fill="#cee9e8"/><path d="m59.6123631 342.913321h-44.2839269c-1.6924798 0-3.0649435-1.372464-3.0649435-3.066071 0-1.69248 1.3724637-3.064943 3.0649435-3.064943h44.2839269c1.6936067 0 3.0660704 1.372463 3.0660704 3.064943 0 1.693607-1.3724637 3.066071-3.0660704 3.066071" fill="#cee9e8"/><path d="m197.614263 104.47153h-106.8177896c-4.8689783 0-8.8150931-3.947241-8.8150931-8.8150928v-63.26066c0-4.8689784 3.9461148-8.8150932 8.8150931-8.8150932h106.8177896c4.867852 0 8.815093 3.9461148 8.815093 8.8150932v63.26066c0 4.8678518-3.947241 8.8150928-8.815093 8.8150928" fill="#eef4f4"/><path d="m96.1520116 76.6767743s-1.2980938-3.8717448-1.6507876-4.7777061c-.3526939-.9048344-4.4362805-3.9010421-5.0594105-2.8249314-.6242569 1.0761107 1.4288045 5.2802667 1.4288045 5.2802667s-.67271 2.5556221.4743902 3.3601697c1.1459734.8034209 3.2993216 2.0508079 3.2993216 2.0508079z" fill="#f9b08d"/><path d="m126.387454 104.707373c8.072521-7.0234531 17.297775-18.272472 19.363232-21.9030779 2.970291-5.2205454 3.618211-10.7881505 3.618211-10.7881505.511575-2.7009815-5.343369-7.3006505-12.237238-4.9298265-6.893869 2.3696972-10.874916 11.4236756-10.874916 11.4236756s-7.283748 15.0283647-9.335682 14.5765109c-2.051935-.4518538-18.2296536-17.9186515-19.6933895-17.6617372-2.3381462 1.222597-5.4605575 5.2509695-5.4605575 5.2509695s8.571701 15.3314786 16.413223 24.0316361z" fill="#04b7a7"/><path d="m178.499495 104.707373c.608481-13.4271568 1.014136-28.0104286.221983-32.9639183-3.422145-7.3254404-24.190518-8.6133928-24.190518-8.6133928s-14.02437 2.4339258-19.599863 4.9106706c-3.532573 2.5713975-3.624972 4.6154444-3.764697 7.6815148 0 0-2.26265 10.9413977-1.902068 28.9851257z" fill="#0aa899"/><path d="m147.553481 56.8637173.536365 10.7250487c.067609 1.3420396 1.058082 2.4654767 2.385473 2.6705574 2.078978.3233967 5.237447.2974799 7.997023-1.8615024.838353-.6580614 1.198934-1.7555817.974698-2.796761-1.079492-5.0053233-3.005223-15.26725-3.005223-15.26725z" fill="#f9a47c"/><path d="m157.273521 56.3066187c2.196168-3.272278 4.48248-10.5515189-.811308-14.8030012-5.235194-4.2052829-11.042812-2.8361996-14.345514 3.7692044-.037185.0732432-.169022.5543942-.20508.629891 0 0-.096907 2.6277384-.153248 4.5185381-.055214 1.8896729 1.408522 10.3047458 1.798401 11.5836837.166769.5003069 2.501535.6118619 3.001842.555521.500307-.0552141 4.596288-2.2423668 6.598643-3.4097497 2.001228-1.1673829 3.56187-2.0181301 4.116264-2.8440873" fill="#f9b08d"/><path d="m142.006046 45.4968333s-2.635626-4.945602.715529-7.859552 8.88721-2.3302585 11.6558.5825647c2.767464 2.91395 3.05931 3.3511552 3.05931 3.3511552s2.184899.4372051 3.496514 2.623231c1.310489 2.1848991-1.456975 7.7209534-2.76859 9.3232879-1.311616 1.6034612-.934132 1.6451535-.934132 1.6451535l-.813562-.7707432s-.874411-4.2244387-.729051-6.7011835c-.14536-1.3116156-2.184899-3.2057957-4.95349-3.6430009-2.76859-.4372052-3.033393 2.0237642-8.728328 1.4490873" fill="#243fa7"/><path d="m157.314425 51.8675212s.448473-1.7860057 2.304342-1.2811914c1.863756.5690428.00338 5.9191722-1.902068 5.5473224-1.850235-.4405856-.402274-4.266131-.402274-4.266131" fill="#f9b08d"/><path d="m158.990228 63.5707603s-2.525198 4.0790792-5.8279 5.2453353c-.582565.1938126-1.16513 1.456975-1.16513 1.456975l-1.165129-1.7488207s-2.91395-1.456975-2.91395-3.982173l-.388752.388752-.388752 3.3015753s-.096906 3.1088894.291846 4.2740187l2.815917-1.8457271s2.234479.6805978 3.691454.0980331c0 0 1.360069 2.3302586 2.039539 2.525198.679471.1938126 4.370925-4.5658644 4.661644-6.216652.388752-1.6507876-.290719-3.302702-.290719-3.302702z" fill="#d1dbe0"/><path d="m182.840334 104.707373h15.552335c-3.050295-10.3791155-11.518329-25.5922783-14.440166-29.1902065-3.788361-4.6616439-8.74185-7.2837482-8.74185-7.2837482-2.331386-1.456975-8.74185 2.3302585-9.032569 9.6151335-.291846 7.284875 6.701183 14.2779043 6.701183 14.2779043s8.230275 8.8646729 9.961067 12.5809169" fill="#04b7a7"/><path d="m197.614376 23.5802333h-26.956855c-.339172 2.024891-.525097 4.1016156-.525097 6.2222861 0 20.2714465 16.158563 36.757913 36.297045 37.3089267v-34.7161197c0-4.8689783-3.947242-8.8150931-8.815093-8.8150931" fill="#81d8d0"/><path d="m255.481862 147.384458h-42.23988l13.625477-55.8653565h42.23988z" fill="#eef4f4"/><g stroke="#04b7a7" stroke-width=".907"><path d="m230.955666 99.467334h29.06851"/><path d="m229.252368 109.34603h29.068511"/><path d="m229.933755 104.236364h13.625477"/><path d="m225.505362 118.54334h29.068511"/><path d="m223.802177 128.422036h18.394169"/><path d="m224.483451 123.312369h13.625477"/></g><path d="m121.495827 26.342739c0-14.5483404-11.794399-26.342739-26.3427391-26.342739-14.5494673 0-26.3438659 11.7943986-26.3438659 26.342739 0 14.5483405 11.7943986 26.342739 26.3438659 26.342739 4.2706382 0 8.2911231-1.0389257 11.8586271-2.8429605 1.677831 2.2344791 5.181107 5.15519 12.213575 5.568732l-4.411491-11.5791764c4.143308-4.6537562 6.682028-10.7678678 6.682028-17.4893341" fill="#017bff"/><path d="m84.4793093 26.7969591 8.1750608 8.1750609 16.0109499-16.0098228" stroke="#fff" stroke-linecap="round" stroke-linejoin="round" stroke-width="4.837"/></g></svg>