<svg height="409" viewBox="0 0 408 409" width="408" xmlns="http://www.w3.org/2000/svg" xmlns:xlink="http://www.w3.org/1999/xlink"><mask id="a" fill="#fff"><path d="m0 0h241.463789v83.841h-241.463789z" fill="#fff" fill-rule="evenodd"/></mask><mask id="b" fill="#fff"><path d="m0 0h150.4547v12.6338h-150.4547z" fill="#fff" fill-rule="evenodd"/></mask><g fill="none" fill-rule="evenodd"><g transform="translate(166.395211)"><path d="m217.988889 83.841h-214.54200008c-2.255 0-3.902-2.131-3.334-4.313l20.02799998-76.951c.395-1.518 1.766-2.577 3.334-2.577h214.5420001c2.255 0 3.903 2.131 3.334 4.313l-20.028 76.95c-.395 1.518-1.765 2.578-3.334 2.578" fill="#ceeff1" mask="url(#a)"/><g stroke="#04b7a7" stroke-linecap="round" stroke-linejoin="round" stroke-width="3.446"><path d="m32.871189 16.4618h74.653"/><path d="m27.128589 50.917h74.653"/><path d="m58.521189 37.9006h74.653"/><path d="m30.956989 27.9468h22.396"/><path d="m27.894289 37.9006h22.396"/><path d="m119.392189 16.4618h26.607"/></g><path d="m132.429889 67.0812h-39.7320001c-.2 0-.346-.189-.296-.383l1.778-6.832c.036-.135.157-.229.297-.229h39.7310001c.2 0 .347.189.296.383l-1.778 6.832c-.035.135-.157.229-.296.229z" stroke="#84aee5" stroke-width="1.149"/><path d="m83.0439889 67.0812h-39.732c-.2 0-.346-.189-.296-.383l1.779-6.832c.035-.135.156-.229.296-.229h39.731c.201 0 .347.189.296.383l-1.778 6.832c-.035.135-.157.229-.296.229z" stroke="#84aee5" stroke-width="1.149"/><path d="m202.262089 57.1753c-2.036-2.713-10.299-4.685-12.582-7.398-1.166-1.386-1.166-3.961-.887-6.15.812-.518 1.488-1.038 1.89-1.521.685-1.002 1.459-2.403 2.234-3.94.234.23.547.409.951.396 1.084-.032 5.214-5.653 4.149-6.956-.609-.745-1.592-.099-2.323.591 1.093-2.502 1.862-4.421 1.862-4.421h-.042c.104-.316.2-.634.28-.955 1.638-6.572-2.36-11.899-8.932-11.899-6.571 0-13.227 5.327-14.865 11.899-.08.321-.143.639-.197.955h-.041s-.188 1.919-.343 4.421c-.387-.69-1.048-1.336-2.028-.591-1.715 1.303-.388 6.924.68 6.956.398.013.8-.166 1.148-.396.009 1.537.084 2.938.27 3.94.197.591.774 1.236 1.522 1.867-.818 2.109-2.063 4.491-3.823 5.804-3.636 2.713-12.882 4.685-16.271 7.398-3.048 2.44-5.768 9.566-6.284 10.974h54.444c.186-1.408 1.02-8.534-.812-10.974" fill="#81d8d0"/></g><path d="m347.0575 145.0948h-214.542c-2.255 0-3.902-2.131-3.334-4.313l20.028-76.95c.395-1.519 1.766-2.578 3.334-2.578h214.542c2.255 0 3.903 2.131 3.335 4.313l-20.028 76.95c-.396 1.518-1.766 2.578-3.335 2.578z" stroke="#04b7a7" stroke-width="1.149"/><path d="m343.0377 139.3522h-214.542c-2.255 0-3.902-2.131-3.334-4.313l20.028-76.951c.395-1.518 1.766-2.577 3.335-2.577h214.541c2.255 0 3.903 2.131 3.335 4.313l-20.028 76.95c-.396 1.518-1.766 2.578-3.335 2.578" fill="#81d8d0"/><path d="m165.9596 55.5111h90.732" stroke="#04b7a7" stroke-width="1.149"/><path d="m325.7171 127.8671h-48.237c-2.22 0-3.571-1.8-3.018-4.02l12.17-48.811c.554-2.22 2.802-4.02 5.022-4.02h48.238c2.22 0 3.571 1.8 3.017 4.02l-12.17 48.811c-.554 2.22-2.802 4.02-5.022 4.02" fill="#eef4f4"/><path d="m302.0435 128.0586 4.221-16.931-6.92-2.93s-12.899 4.721-13.997 5.861c-.92.955-5.552 10.831-7.025 14z" fill="#023f61"/><path d="m325.9279 128.0586c.107-3.169.4-13.045-.044-14-.53-1.14-11.074-5.861-11.074-5.861l-8.382 2.93-4.221 16.931z" fill="#023f61"/><path d="m306.4094 128.0586 6.613-14.652-14.203.814-1.389 13.838z" fill="#bebecf"/><path d="m301.906 105.1045-3.092 1.953-2.031 4.884-.525 6.675 4.353-1.791 3.381 4.07 4.515-3.744 2.77 2.604 4.185-8.953-.736-5.535-1.75-.814z" fill="#dee0e8"/><path d="m302.8573 92.288s-1.039-2.361-3.169-.79c-2.13 1.57.363 7.635 1.906 5.81 1.542-1.825 1.263-5.02 1.263-5.02" fill="#fb8e74"/><path d="m318.036 92.1623s2.024-2.502 3.552-1.1c1.527 1.402-3.494 7.812-4.319 6.097-.825-1.716.767-4.997.767-4.997" fill="#fb8e74"/><path d="m313.291 109.8321 2.179-11.557-12.611 1.093-2.785 10.855s2.205 5.138 4.567 7.417c0 0 7.335-6.336 8.65-7.808" fill="#fb8877"/><path d="m323.518 87.4966c-.47 1.406-1.628 1.757-1.714 2.577-.085.82-.611 2.929-1.41 3.749-.8.82-1.215 1.054-1.215 1.054s-10.82 3.045-16.314-1.172c0 0-.36-1.6.017-3.514.373-1.894-.546-2.225.521-3.162 1.066-.938 1.39-1.758 1.415-2.812s.108-2.342 1.204-3.397c1.096-1.054 2.079-.703 3.146-1.64 0 0 1.578-2.649 3.662-2.95s6.478-1.406 9.091 1.808c2.614 3.214 1.411 6.027 2.165 7.031.754 1.005-.568 2.428-.568 2.428" fill="#713336"/><path d="m302.7716 90.2979s-5.105 14.063 4.51 15.117c8.497.197 11.513-10.171 12.729-15.488 1.216-5.318.465-10.885-6.336-10.702-6.801.182-10.155 7.923-10.903 11.073" fill="#fba990"/><path d="m305.442 85.2537s.629 1.127.046 2.264-2.165 1.574-2.402 3.075c-.237 1.5-.931 4.619-1.356 4.756-.425.136-.124-3.046-.053-4.137.072-1.092.885-5.602 3.153-8.467 2.268-2.866 3.669-4.076 7.707-4.732 4.037-.657 7.097 1.042 8.221 3.505 1.124 2.464-.674 8.739-.674 8.739s.269-2.983-.73-3.682c-.999-.7-1.825-1.218-1.659-1.627.165-.409-3.196 1.074-6.555-.006-3.36-1.08-4.446-.589-5.005-.243s-.693.555-.693.555" fill="#713336"/><path d="m295.928 112.1047c-.081.326-4.693 11.314-4.693 11.314l4.051 2.035-1.138 2.279" stroke="#022755" stroke-width=".488"/><path d="m315.8704 112.1047c-.081.326-.949 11.314-.949 11.314l-5.065 2.035.001 2.279" stroke="#022755" stroke-width=".488"/><path d="m325.7171 127.8671h-48.237c-2.22 0-3.571-1.8-3.018-4.02l12.17-48.811c.554-2.22 2.802-4.02 5.022-4.02h48.238c2.22 0 3.571 1.8 3.017 4.02l-12.17 48.811c-.554 2.22-2.802 4.02-5.022 4.02z" stroke="#fff" stroke-width="1.149"/><path d="m157.92 73.8872h74.653" stroke="#03685f" stroke-linecap="round" stroke-linejoin="round" stroke-width="3.446"/><path d="m152.1775 108.3425h74.653" stroke="#03685f" stroke-linecap="round" stroke-linejoin="round" stroke-width="3.446"/><path d="m183.5701 95.326h74.653" stroke="#03685f" stroke-linecap="round" stroke-linejoin="round" stroke-width="3.446"/><path d="m156.0058 85.3723h22.396" stroke="#03685f" stroke-linecap="round" stroke-linejoin="round" stroke-width="3.446"/><path d="m152.9431 95.326h22.396" stroke="#03685f" stroke-linecap="round" stroke-linejoin="round" stroke-width="3.446"/><path d="m244.441 73.8872h26.607" stroke="#03685f" stroke-linecap="round" stroke-linejoin="round" stroke-width="3.446"/><path d="m257.4788 124.5067h-39.732c-.2 0-.346-.189-.296-.383l1.779-6.832c.035-.135.156-.229.296-.229h39.731c.2 0 .347.189.296.383l-1.778 6.832c-.035.135-.157.229-.296.229z" stroke="#03685f" stroke-width="1.149"/><path d="m208.0929 124.5067h-39.732c-.2 0-.346-.189-.296-.383l1.779-6.832c.035-.135.156-.229.296-.229h39.731c.201 0 .347.189.296.383l-1.778 6.832c-.035.135-.157.229-.296.229z" stroke="#03685f" stroke-width="1.149"/><path d="m253.8205 46.8972h46.515" stroke="#04b7a7" stroke-width="1.149"/><path d="m345.3348 249.2263h-214.542c-2.255 0-3.902-2.131-3.334-4.313l20.028-76.95c.395-1.519 1.766-2.578 3.334-2.578h214.542c2.255 0 3.903 2.131 3.335 4.313l-20.029 76.95c-.395 1.518-1.765 2.578-3.334 2.578" fill="#ceeff1"/><path d="m160.217 181.8471h74.653" stroke="#04b7a7" stroke-linecap="round" stroke-linejoin="round" stroke-width="3.446"/><path d="m154.4745 216.3023h74.653" stroke="#04b7a7" stroke-linecap="round" stroke-linejoin="round" stroke-width="3.446"/><path d="m185.8671 203.2859h74.653" stroke="#04b7a7" stroke-linecap="round" stroke-linejoin="round" stroke-width="3.446"/><path d="m158.3029 193.3322h22.396" stroke="#04b7a7" stroke-linecap="round" stroke-linejoin="round" stroke-width="3.446"/><path d="m155.2402 203.2859h22.396" stroke="#04b7a7" stroke-linecap="round" stroke-linejoin="round" stroke-width="3.446"/><path d="m246.7381 181.8471h26.607" stroke="#04b7a7" stroke-linecap="round" stroke-linejoin="round" stroke-width="3.446"/><path d="m259.7758 232.4665h-39.732c-.2 0-.346-.189-.296-.383l1.779-6.832c.035-.135.156-.229.296-.229h39.731c.201 0 .347.189.296.383l-1.778 6.832c-.035.135-.157.229-.296.229z" stroke="#04b7a7" stroke-width="1.149"/><path d="m210.3899 232.4665h-39.732c-.2 0-.346-.189-.296-.383l1.779-6.832c.035-.135.156-.229.296-.229h39.731c.201 0 .347.189.296.383l-1.778 6.832c-.035.135-.157.229-.296.229z" stroke="#04b7a7" stroke-width="1.149"/><path d="m329.608 222.5607c-2.036-2.713-10.299-4.686-12.582-7.398-1.166-1.386-1.166-3.961-.887-6.15.812-.518 1.488-1.038 1.89-1.521.685-1.002 1.459-2.403 2.234-3.94.234.23.547.408.951.396 1.084-.032 5.214-5.653 4.149-6.956-.609-.745-1.592-.099-2.323.591 1.093-2.502 1.862-4.421 1.862-4.421h-.042c.104-.316.2-.634.28-.956 1.638-6.571-2.361-11.898-8.932-11.898s-13.227 5.327-14.865 11.898c-.08.322-.143.64-.197.956h-.041s-.188 1.919-.343 4.421c-.387-.69-1.048-1.336-2.028-.591-1.715 1.303-.388 6.924.68 6.956.398.012.8-.166 1.148-.396.009 1.537.084 2.938.27 3.94.197.59.774 1.236 1.522 1.867-.818 2.109-2.063 4.49-3.823 5.804-3.636 2.712-12.882 4.685-16.271 7.398-3.048 2.44-5.768 9.566-6.284 10.974h54.444c.186-1.408 1.02-8.534-.812-10.974" fill="#81d8d0"/><g transform="translate(105.141311 267.9854)"><path d="m217.988889 83.841h-214.54200008c-2.255 0-3.902-2.131-3.334-4.313l20.02799998-76.95c.395-1.519 1.766-2.578 3.335-2.578h214.5410001c2.255 0 3.903 2.131 3.335 4.313l-20.028 76.95c-.396 1.519-1.766 2.578-3.335 2.578" fill="#ceeff1"/><g stroke="#04b7a7"><path d="m32.871189 16.4618h74.653" stroke-linecap="round" stroke-linejoin="round" stroke-width="3.446"/><path d="m27.128689 50.9171h74.653" stroke-linecap="round" stroke-linejoin="round" stroke-width="3.446"/><path d="m58.521289 37.9007h74.653" stroke-linecap="round" stroke-linejoin="round" stroke-width="3.446"/><path d="m30.956989 27.9469h22.396" stroke-linecap="round" stroke-linejoin="round" stroke-width="3.446"/><path d="m27.894389 37.9007h22.396" stroke-linecap="round" stroke-linejoin="round" stroke-width="3.446"/><path d="m119.392289 16.4618h26.607" stroke-linecap="round" stroke-linejoin="round" stroke-width="3.446"/><path d="m132.429989 67.0813h-39.7320001c-.2 0-.346-.189-.296-.383l1.779-6.832c.035-.135.156-.229.296-.229h39.7310001c.201 0 .347.189.296.383l-1.778 6.832c-.035.135-.157.229-.296.229z" stroke-width="1.149"/><path d="m83.0440889 67.0813h-39.732c-.2 0-.346-.189-.296-.383l1.779-6.832c.035-.135.156-.229.296-.229h39.731c.201 0 .347.189.296.383l-1.778 6.832c-.035.135-.157.229-.296.229z" stroke-width="1.149"/></g><path d="m202.262189 57.1754c-2.036-2.713-10.299-4.686-12.582-7.398-1.166-1.386-1.166-3.961-.887-6.15.812-.518 1.488-1.038 1.89-1.521.685-1.002 1.459-2.403 2.234-3.94.234.23.547.409.95.396 1.085-.032 5.215-5.653 4.15-6.956-.609-.745-1.592-.099-2.323.591 1.093-2.502 1.862-4.421 1.862-4.421h-.042c.104-.316.2-.634.28-.956 1.638-6.571-2.361-11.898-8.932-11.898s-13.227 5.327-14.865 11.898c-.08.322-.143.64-.197.956h-.041s-.188 1.919-.343 4.421c-.387-.69-1.048-1.336-2.028-.591-1.715 1.303-.388 6.924.68 6.956.398.013.8-.166 1.148-.396.009 1.537.084 2.938.27 3.94.197.59.774 1.236 1.522 1.867-.818 2.109-2.063 4.49-3.823 5.804-3.636 2.712-12.882 4.685-16.271 7.398-3.048 2.44-5.768 9.566-6.284 10.974h54.444c.186-1.408 1.02-8.534-.812-10.974" fill="#81d8d0"/></g><path d="m280.2362 352.2093h38.284" stroke="#04b7a7" stroke-width="1.149"/><path d="m150.0719 249.6091h91.115" stroke="#04b7a7" stroke-width="1.149"/><path d="m262.0515 249.6091h22.204" stroke="#04b7a7" stroke-width="1.149"/><path d="m357.952 165.7679h7.696c2.264 0 3.881 2.19 3.215 4.353l-3.254 10.578" stroke="#04b7a7" stroke-width="1.149"/><path d="m114.1953 30.4654h-3.926c-.986 0-1.585-.799-1.34-1.785l.979-3.926c.246-.985 1.244-1.784 2.23-1.784h3.926c.986 0 1.585.799 1.339 1.784l-.978 3.926c-.246.986-1.244 1.785-2.23 1.785" fill="#81d8d0"/><path d="m111.3254 41.9762h-3.926c-.986 0-1.586-.799-1.34-1.785l.979-3.926c.246-.985 1.244-1.784 2.23-1.784h3.926c.985 0 1.585.799 1.34 1.784l-.979 3.926c-.246.986-1.244 1.785-2.23 1.785" fill="#bddee0"/><path d="m123.8178 41.9762h-3.926c-.986 0-1.586-.799-1.34-1.785l.979-3.926c.246-.985 1.244-1.784 2.23-1.784h3.926c.985 0 1.585.799 1.339 1.784l-.978 3.926c-.246.986-1.244 1.785-2.23 1.785" fill="#81d8d0"/><path d="m136.3101 41.9762h-3.926c-.986 0-1.585-.799-1.34-1.785l.979-3.926c.246-.985 1.244-1.784 2.23-1.784h3.926c.986 0 1.585.799 1.34 1.784l-.979 3.926c-.246.986-1.244 1.785-2.23 1.785" fill="#bddee0"/><path d="m108.3887 53.7548h-3.926c-.986 0-1.586-.799-1.34-1.785l.979-3.926c.246-.985 1.244-1.784 2.23-1.784h3.926c.985 0 1.585.799 1.339 1.784l-.979 3.926c-.245.986-1.243 1.785-2.229 1.785" fill="#bddee0"/><path d="m105.2517 66.3364h-3.926c-.986 0-1.586-.799-1.34-1.785l.979-3.926c.246-.985 1.244-1.784 2.23-1.784h3.926c.985 0 1.585.799 1.34 1.784l-.979 3.926c-.246.986-1.244 1.785-2.23 1.785" fill="#bddee0"/><path d="m120.881 53.7548h-3.926c-.986 0-1.586-.799-1.34-1.785l.979-3.926c.246-.985 1.244-1.784 2.23-1.784h3.926c.986 0 1.585.799 1.339 1.784l-.978 3.926c-.246.986-1.244 1.785-2.23 1.785" fill="#bddee0"/><path d="m115.4081 75.7057h-3.926c-.986 0-1.586-.799-1.34-1.785l.979-3.926c.246-.985 1.244-1.784 2.23-1.784h3.926c.985 0 1.585.799 1.34 1.784l-.979 3.926c-.246.986-1.244 1.785-2.23 1.785" fill="#81d8d0"/><path d="m185.1967 29.6523c-2.323 7.739-10.256 13.987-18.063 14.234-8.394.267-13.631-6.247-11.9-14.439l.242-.973h-.009c2.233-8.117 10.498-14.633 18.665-14.633.423 0 .836.022 1.241.056 7.802.66 12.294 7.527 9.824 15.755m-8.029-22.044v-.001c-.019-.002-.039-.002-.058-.003-.061-.005-.119-.012-.179-.016l-.001.005c-.405-.025-.812-.043-1.229-.043-11.642 0-23.424 9.333-26.525 20.924l-.138.554h-.006c-.014.058-.024.116-.037.173l-.089.355h.012c-2.555 11.749 4.983 21.1 17.052 20.611 11.005-.445 22.103-9.229 25.406-20.115 3.582-11.807-2.938-21.655-14.208-22.444" fill="#eef4f4"/><path d="m176.0212 11.236c-.361 1.447.315 2.703 1.632 3.052 6.365 1.684 9.761 7.976 7.543 15.364-2.323 7.74-10.255 13.987-18.062 14.235-7.657.243-12.69-5.154-12.203-12.32.1-1.478-.95-2.538-2.453-2.538-1.948 0-3.889 1.757-4.019 3.674-.692 10.225 6.541 17.909 17.51 17.464 11.005-.445 22.104-9.228 25.407-20.115 3.188-10.509-1.625-19.47-10.669-21.869-1.869-.496-4.174 1-4.686 3.053" fill="#81d8d0"/><path d="m220.7215 41.7054c-.02.001-.039.003-.059.004-.248.016-.496.027-.744.031-.085.001-.17.006-.255.006-8.299 0-13.35-6.727-11.281-15.027 2.07-8.299 10.475-15.026 18.774-15.026.085 0 .168.005.252.006.247.004.491.015.732.031.021.001.042.003.063.005 7.669.543 12.213 7.041 10.233 14.984-.016.063-.035.124-.051.186-2.056 7.861-9.783 14.266-17.664 14.8m9.471-36.244v-.002c-.019-.002-.038-.002-.056-.003-.074-.005-.149-.009-.223-.013-.391-.024-.786-.041-1.189-.041-11.773 0-23.697 9.544-26.633 21.317-2.935 11.774 4.23 21.318 16.003 21.318.402 0 .804-.017 1.206-.041.075-.004.151-.007.227-.012.021-.002.042-.002.063-.004l.001-.002c11.208-.757 22.199-9.883 25.085-21.073.016-.062.035-.123.051-.186 2.811-11.274-3.644-20.497-14.535-21.258" fill="#fff"/><path d="m237.4702 29.5296c-2.643 6.026-8.565 10.778-14.874 11.94-1.575.29-3.001 1.568-3.383 3.098-.494 1.982.946 3.459 2.984 3.089 8.991-1.633 17.441-8.412 21.185-17.008.847-1.943-.18-3.743-2.156-3.743h-.001c-1.535 0-3.093 1.115-3.755 2.624" fill="#81d8d0"/><path d="m173.6376 80.4805h-39.732c-.2 0-.346-.189-.296-.383l1.779-6.832c.035-.135.156-.229.296-.229h39.731c.201 0 .347.189.296.383l-1.778 6.832c-.035.135-.157.229-.296.229" fill="#fff"/><path d="m365.2559 100.4943c-2.429 9.743-12.296 17.64-22.039 17.64-9.742 0-15.671-7.897-13.242-17.64 2.429-9.742 12.296-17.64 22.039-17.64 9.742 0 15.671 7.898 13.242 17.64" fill="#017bff"/><path d="m373.6908 119.4447c-.665 2.666-3.365 4.828-6.032 4.828-2.666 0-4.289-2.162-3.624-4.828s3.365-4.828 6.032-4.828c2.666 0 4.289 2.162 3.624 4.828" fill="#017bff"/><path d="m343.0668 109.4591c-.555 0-1.057-.212-1.375-.635l-4.559-6.073c-.636-.847-.294-2.221.765-3.067 1.058-.848 2.431-.848 3.067 0l3.407 4.539 12.175-9.745c1.058-.847 2.431-.847 3.067 0s.293 2.221-.765 3.067l-14.09 11.279c-.529.423-1.137.635-1.692.635" fill="#fff"/><path d="m150.4547 6.317c0 3.489-33.68 6.317-75.227 6.317s-75.228-2.828-75.228-6.317 33.681-6.317 75.228-6.317 75.227 2.828 75.227 6.317" fill="#eef4f4" mask="url(#b)" transform="translate(0 395.4696)"/><path d="m44.9423 381.4652s1.596-3.42 7.524-2.508c5.927.912 6.611 2.052 7.295 5.016s2.736 6.156 4.104 6.84 6.384 4.104 10.488 4.788 4.56 3.191 3.648 4.331-16.416 2.052-19.836 1.596c0 0-11.627-.228-14.363-1.14-2.736-.911.912-17.783 1.14-18.923" fill="#2d2737"/><path d="m38.3584 301.323s-1.734-9.442 8.237-12.611c9.971-3.17 11.858 1.438 14.877 10.05s-2.594 82.179-2.594 82.179-11.482 1.96-14.427.222c0 0-8.747-47.89-8.138-61.033.608-13.142 2.045-18.807 2.045-18.807" fill="#293366"/><path d="m43.2323 378.2733s12.996-1.14 17.1-1.824l-.228 5.928s-10.26 1.824-16.644.912z" fill="#51598d"/><path d="m40.0404 116.9934s-8.208.456-13.224 19.151c-5.015 18.696-8.207 41.495-6.383 47.423s21.431 21.887 28.727 21.887c7.295 0 7.751-5.472 6.383-10.032-1.367-4.559-15.503-16.871-15.503-16.871s11.4-36.479 10.944-46.055c-.456-9.575-5.928-15.503-10.944-15.503" fill="#6da0d0"/><path d="m142.8135 111.4158-1.361.139 3.051-6.041s7.756-.489 8.999 2.786l-3.556 7.889z" fill="#ff8d68"/><path d="m147.1733 94.2518s-.303-6.173 1.894-7.05c2.196-.877 4.656.832 4.656.832s3.554-.363 4.688 1.154c1.135 1.517 1.042 3.812 1.042 3.812s2.005.449 2.526 2.355-.41 5.593-.41 5.593-2.322 2.848-5.006 2.142-9.39-8.838-9.39-8.838" fill="#ff7759"/><path d="m143.1102 99.2371s-.823-8.079.047-9.147c.871-1.068 9.772-13.382 9.772-13.382s1.846 2.098.784 4.492-5.253 9.655-5.253 9.655l-.021 6.206s-2.744 1.913-5.329 2.176" fill="#ff7759"/><path d="m143.769 105.7003s-2.127-12.975-.676-14.755c1.451-1.781 8.565-.742 9.924-.228 1.358.515 5.117 5.356 5.638 7.262s-3.022 8.797-5.152 10.321c-2.13 1.523-8.501-.113-9.734-2.6" fill="#ff8d68"/><path d="m138.7614 114.2574 2.736-5.016s6.384-1.14 9.576 3.876c.912 1.824.456 1.824.456 1.824l-2.052 4.104z" fill="#dee0e8"/><path d="m73.8098 59.3658s6.746 1.726 10.567 12.084c3.821 10.357 1.274 32.368-1.274 34.957-2.547 2.589-10.286 1.6-21.016-1.942-11.338-3.742-15.17-15.53-17.196-23.305-3.88-14.889 9.067-30.21 28.919-21.794" fill="#ff8d68"/><path d="m49.6161 116.5374 5.472-19.607s10.943-3.192 17.783 4.104l2.28 3.191v12.768s-11.399 2.28-25.535-.456" fill="#ff8d68"/><path d="m34.3406 222.0981s-4.104 23.939 0 51.298c4.104 27.36 12.312 30.095 19.835 30.095 7.524 0 9.576-21.887 10.944-31.463 1.368-9.575 6.84-42.406-3.42-49.93-10.259-7.524-21.887-8.208-27.359 0" fill="#293366"/><path d="m63.0677 254.2451s-8.208-21.887 6.156-31.463c14.363-9.576 25.307-8.208 28.727 7.524 3.42 15.731 4.104 69.766-.684 80.709-4.788 10.944-21.887-6.155-34.199-56.77" fill="#293366"/><path d="m86.9727 60.3022s3.237 4.208 1.295 9.063-9.063 6.797-9.063 6.797 2.265 3.237 0 7.768l-1.619 2.59s2.266 5.179 1.619 6.473c-.648 1.295-2.913.971-2.913.971s-2.59-7.121-3.561-6.473c-.971.647-3.56 3.884-3.56 6.797s.971 5.179.323 7.121c-.647 1.942-10.681 1.942-14.889 1.295-4.207-.648-10.681-13.595-12.299-19.421 0 0-2.266-8.092.971-14.889 0 0-.648-5.826 4.855-11.652 5.502-5.827 22.981-3.884 25.894-1.619 0 0-.324-3.237 2.913-2.589 3.237.647 8.092 3.56 10.034 7.768" fill="#c53a45"/><path d="m77.2624 89.7567s-.971-4.208-4.531-2.266c-3.561 1.942.647 11.976 3.56 11.329s1.618-7.445.971-9.063" fill="#ff7759"/><path d="m46.7208 116.4337s1.527-5.368 2.895-5.824 18.24-2.28 27.36 3.192c4.103 3.192 3.647 5.472 3.647 5.472s-27.221-5.224-33.902-2.84" fill="#dee0e8"/><path d="m43.2323 115.1694s28.271-1.824 48.335 6.84c9.119 4.56 29.981 25.193 29.981 25.193l16.415-34.199s9.234-3.306 12.882 5.358c0 0-10.374 40.355-19.038 53.122-5.472 4.56-31.577-10.259-31.577-10.259s4.104 52.894 2.736 76.605c-1.824 4.56-37.391 6.84-43.774 6.384-6.384-.456-28.728-7.752-29.184-9.12s3.192-56.086 2.28-62.47-3.647-37.847-2.736-42.406c.912-4.56 5.016-13.224 13.68-15.048" fill="#6da0d0"/><path d="m73.3274 382.8332s1.596-3.42 7.524-2.508 6.611 2.052 7.295 5.016 2.736 6.156 4.104 6.84 6.384 4.104 10.488 4.787c4.104.685 4.56 3.192 3.648 4.332s-16.416 2.052-19.835 1.596c0 0-11.628-.228-14.364-1.14s.912-17.783 1.14-18.923" fill="#3e3343"/><path d="m76.0633 302.8076s-.684-9.576 9.576-11.628c10.259-2.052 11.627 2.736 13.679 11.628s-11.627 81.394-11.627 81.394-11.628.683-14.364-1.368c0 0-3.42-48.563-1.368-61.559 2.052-12.995 4.104-18.467 4.104-18.467" fill="#293366"/><path d="m72.4154 383.9731s8.892 2.508 16.415 1.14l.685-5.244-17.328-1.14z" fill="#51598d"/><g stroke-width="1.026"><path d="m60.3318 249.1153s9.576 30.779 16.757 45.827" stroke="#2a2e59"/><path d="m79.8252 301.0977s5.814-3.42 11.628 0" stroke="#2a2e59"/><path d="m78.7992 304.8596s4.788-2.736 12.996 3.078" stroke="#2a2e59"/><path d="m42.8903 296.9938s3.762-3.42 12.312.342" stroke="#2a2e59"/><path d="m45.6262 300.4137s5.472-2.736 10.602 1.368" stroke="#2a2e59"/><path d="m58.2798 305.8855-2.052 69.766" stroke="#2a2e59"/><path d="m86.551 247.4053s7.752 4.56 10.944-2.736" stroke="#2a2e59"/><path d="m94.3027 248.3173s3.648 28.271 2.736 46.967" stroke="#2a2e59"/><path d="m29.5527 142.0726 3.648 39.215" stroke="#524b81"/><path d="m92.1368 155.7522s27.017 19.493 39.671 15.731" stroke="#524b81"/><path d="m124.2838 150.9643s5.472 3.078 5.13 10.26" stroke="#524b81"/><path d="m122.9159 148.2284s5.814-1.71 9.234 4.104" stroke="#524b81"/><path d="m91.1108 124.6311s-14.363 7.524-4.788 24.965" stroke="#524b81"/><path d="m70.7625 101.8888s2.394 6.156 10.431 5.13" stroke="#e66657"/><path d="m148.1661 89.2352 2.679-2.3940027s1.88-.0099973 2.878 1.1920027" stroke="#e66657"/><path d="m151.358 89.6342c0-.171 3.819-2.223 3.819-2.223s3.477.855 3.99 2.679.114 2.793.114 2.793" stroke="#e66657"/><path d="m155.8608 92.9401c.171-.057 4.845.228 4.845.228s1.71 1.14 1.653 3.363-.789 4.416-.789 4.416-1.662 2.367-4.512 2.31" stroke="#e66657"/><path d="m158.5398 97.728s.57.912-.171 2.565-1.638 5.982-4.866 8.007" stroke="#e66657"/></g><path d="m61.5287 68.0319c-6.669-3.249-15.219.684-15.219.684s1.026-4.446 5.814-5.985" stroke="#a03a45" stroke-width="1.368"/><path d="m46.6522 71.4518s1.71-.171 3.933 3.249" stroke="#a03a45" stroke-width="1.368"/><path d="m76.0633 56.1192s8.436 1.368 8.664 9.804" stroke="#a03a45" stroke-width="1.368"/></g></svg>