<svg height="431" viewBox="0 0 497 431" width="497" xmlns="http://www.w3.org/2000/svg" xmlns:xlink="http://www.w3.org/1999/xlink"><mask id="a" fill="#fff"><path d="m0 0h22v12h-22z" fill="#fff" fill-rule="evenodd"/></mask><g fill="none" fill-rule="evenodd"><path d="m449.8187 210s26.789233 31.013395 18.63776 45.747403c-8.15188 14.73441-34.45646 7.454001-34.45646 7.454001z" fill="#04b7a7"/><path d="m489.34587 292 5.65413-8.78954-170.346276-109.21046-5.653724 8.78954z" fill="#060423"/><path d="m495.779939 289.208787.265157-.416269c1.795873-2.821331.984638-6.577125-1.812041-8.388567l-65.463871-42.403951-6.769184 10.632585 65.463467 42.403952c2.796679 1.811848 6.520195.993581 8.316472-1.82775" fill="#080435"/><path d="m320.113076 174.305354c-17.847927 27.795299-54.854536 35.85985-82.649351 18.008628-27.798466-17.851629-35.85975-54.85469-18.008577-82.653234 17.848333-27.7952985 54.854536-35.8598499 82.649757-18.0082216 27.79806 17.8512226 35.859749 54.8546896 18.008171 82.6528276m-15.518914-86.1725242c-29.703137-19.0735423-69.385211-10.427243-88.46154 19.2759772-19.073083 29.699976-10.427214 69.385406 19.275924 88.458543 29.703543 19.073136 69.385211 10.427243 88.4587-19.275978 19.073083-29.700381 10.427214-69.385406-19.273084-88.4585422" fill="#060423"/><path d="m320.500992 174.428755c-17.884943 27.847606-55.086843 35.954201-82.930885 18.069724-27.848106-17.881227-35.951072-55.083003-18.070191-82.926953 17.881287-27.8480129 55.083187-35.9546079 82.930886-18.0697246 27.844449 17.8808206 35.951071 55.0825976 18.07019 82.9269536" fill="#eef4f4"/><path d="m402 405.517461s2.114361 14.819322 2.01502 14.98385c-.09934.164527.795915 1.677629.795915 1.677629l3.710562.82106 3.478503-1.416042s-2.184296-14.012466-1.753954-15.722843c.429945-1.711166-8.246046-.343654-8.246046-.343654" fill="#ffa089"/><path d="m410.645967 422.305152s-4.444362 1.310252-8.081834-1.305152c0 0-14.814407 4.715338-14.543424 8.771235 0 0-.673217 1.177657 5.657123 1.175304 6.330742-.001962 16.163263.125141 16.432631-.005885.269367-.131025 1.478492.568038.535504-8.635502" fill="#080435"/><path d="m454 404.551202s4.274236 14.478375 4.204652 14.658412c-.069969.180037 1.015313 1.551668 1.015313 1.551668l3.67143.238718 3.108605-1.960443s-4.218107-13.661225-4.067406-15.438038c.150702-1.777213-7.932594.949683-7.932594.949683" fill="#ffa089"/><path d="m20.6076947.06653174s-4.0641734 2.04778993-7.9665497-.06653174c0 0-13.49278899 7.1829793-12.59858442 11.3087638 0 0-.46222169 1.316757 5.61774102.3155155 6.0803554-1.0008333 15.544315-2.42126564 15.7822982-2.59841151.2383761-.17714587 1.5087984.3506182-.8349051-8.95933605" fill="#080435" mask="url(#a)" transform="translate(445 419)"/><path d="m446.806121 283.895871-54.978734-1.895871s-6.458452 40.100031 4.907925 135h17.049363s3.616958-97.7454 6.716806-103.361939c3.099847-5.616538 13.949515 61.126007 30.998878 101.276399l15.499641-4.692971s-13.949516-70.39295-16.016349-88.642944c-2.066431-18.249994-4.17753-37.682674-4.17753-37.682674" fill="#080435"/><path d="m425.274144 174.999711c.130608.003571.262059-.025884.380449-.093273.347585-.197704.449965-.645328.228353-.999232-.668629-1.067959-2.674935-2.739295-5.48764-1.423648-.364017.170481-.501366.606501-.307139.975132.194648.368185.647141.528848 1.010737.358813 2.310075-1.080901 3.475856.728337 3.524307.806437.146197.233406.39688.367738.650933.375771" fill="#080435"/><path d="m421.128547 170.617465.012019.005332c.027646-.155456.055691-.310911.090148-.465956 1.527694-6.867521 8.932985-10.819124 16.260549-8.48196 6.105168 1.947499 10.141358 7.846192 9.426992 13.78221-.265233 2.203448-1.12103 4.144385-2.384293 5.734214-1.802142 2.497131-3.373107 4.625106-4.916027 6.334706-2.551365 2.82732-3.966476 6.451195-4.120327 10.269902l-.157457 3.733392c-8.702209 1.928631-11.941097-2.692784-11.941097-2.692784l1.540515-5.956937c.134219-.692781-.321725-1.392946-1.044505-1.622643-.004808-.00164-.009215-.003281-.013622-.004512-10.968309-3.503284-3.345463-11.634136-2.752895-20.634964" fill="#ffa089"/><path d="m440.636308 169.118516 5.363692 7.782494c-.404627 1.537465-1.120659 2.914986-2.071533 4.094176-1.784724 2.433954-3.340556 4.508833-4.867825 6.175453-1.054411 1.15-1.900559 2.441151-2.553913 3.819472-.003967.0008-.00833.001999-.012694.002799-1.909682.209927-11.003482-4.298105-11.132408-6.080286-.128925-1.78218 3.119597-7.348645-.19914-7.951635-3.121977-.567403-1.944988-10.455165-1.944988-10.455165l8.417438-.505824z" fill="#080435"/><path d="m425.985819 178.385188c-.029599-.418148-.241592-.818281-.57438-1.130646-.685175-.641977-1.988328-1.580988-3.414677-1.141378-2.093125.64466-.787172 5.286441 2.956694 4.859095 0 0 1.188757-.366406 1.032363-2.587071" fill="#f37d6a"/><path d="m448.937758 170.452239c-.168252-1.388925-.510299-2.760727-.849574-4.129344-.16944-.684507-.341255-1.369015-.490108-2.056708-.103723-.482221-.080365-1.447062-.563347-1.78832-.612438-.432446-1.279111 1.040897-1.333744 1.399278-.128663.846177.194381 1.73098.16271 2.585917.08472-2.303194-2.477065-4.379016-4.342485-5.604678-2.051486-1.347512-4.366634-2.399957-6.624773-3.373559-.520196-.224187-1.05781-.445985-1.619178-.478637-2.006356-.116275-1.267235 1.432328-.804047 2.442962.014648.032255-1.552669-.307809-1.72488-.352009-2.179358-.564649-4.506381-.428464-6.505215.392626-.701908.287899-1.363039.935772-.748622 1.685983.366591.447578 1.053059.729106 1.631054.759767-1.368185-.072074-2.804068.020308-4.049924.508503-.781481.306216-1.919656.927012-2.06178 1.801063-.139748.862503.806818 1.589618 1.558607 1.954768 1.973497.959664 4.289436 1.066781 6.371406 1.71983 2.315148.726717 4.53449 1.751288 6.569349 3.055794 1.680145 1.076736 3.227271 2.332661 4.905041 3.413379 1.412129.909491 2.909769 1.68877 4.432351 2.409115 1.013471.479434 2.711826 1.744519 3.614052.941347 1.954495-1.739341 2.779523-4.758103 2.473107-7.287077" fill="#080435"/><path d="m337.220154 186.143472c-.813473.700031 1.317755 3.497384 1.366428 3.562282-.057849-.001187-3.830386-.155914-4.989356-.379497-1.167348-.224769-3.35842-.100909-3.590214.734063-.229799.819539 5.263838 1.50374 5.44656 1.526297-.165567-.003958-3.796075-.403636-4.170696.308662-.37462.712298 4.530955 2.038755 4.70849 2.070017-.122878-.008705-1.478933-.151561-2.316344-.108427-1.039283.053818-1.00976 1.174896-.085377 1.488703 1.112691.377518 2.218201.707549 2.339883.716651-.097345.000791-.774375.00277-1.551942.01662-1.047661.018599-2.033883.922822.714132 1.492264 2.207828.45785 5.192824.618513 8.458287.13415.800707-.119112 1.533591-.282941 2.149181-.4994l.199878-2.979385.100936-1.494638s-.418506-.373165-1.038485-.903828c-1.239958-1.066468-3.286209-2.770048-4.378553-3.381041-1.638516-.916886-2.537765-3.011438-3.362808-2.303493" fill="#ffa089"/><path d="m443.372584 204.634844c-5.760741-3.136625-12.109462-5.031115-18.629031-5.714964-5.186216-.54438-11.678058-.907163-16.469977-.102659-6.579101 1.10471-24.036249 6.303925-31.092829 6.15464-8.601151-.182005-31.581727-12.971861-31.581727-12.971861l-2.59902 6.493701s10.638695 19.856976 25.646467 22.964153c15.007773 3.107586 27.331713 3.222924 27.331713 3.222924l-6.14566 63.696516s28.63897 11.508457 59.084695-1.791423c0 0-3.666927-30.013685-3.451633-57.084203.098269-12.342409 13.691545-16.272087-2.092998-24.866824" fill="#04b7a7"/><path d="m445.5 250c-.27628 0-.5-.13609-.5-.304154v-17.391692c0-.168064.22372-.304154.5-.304154s.5.13609.5.304154v17.391692c0 .168064-.22372.304154-.5.304154" fill="#060423"/><g fill="#04b7a7"><path d="m444.998935.83833619-.024733-.81290149c1.029078-.03075188 2.055724-.03398892 3.079936-.00768797l-.021084.81330612c-1.008805-.02630094-2.020854-.02265927-3.034119.00728334zm-6.058506.49324387-.105827-.80642742c1.027862-.13433713 2.058562-.24399184 3.063718-.32653634l.066497.81087835c-.992181.08092598-2.009501.18936679-3.024388.32208541zm15.132074.02549168c-.984882-.1501177-1.998147-.26988815-3.010196-.35769284l.06974-.81006909c1.030295.08861395 2.06059.21121682 3.063313.36335766zm-21.126111 1.02695072-.174756-.79428852c1.00921-.22133256 2.024908-.42243363 3.019521-.59763838l.141509.80116723c-.983261.1731816-1.988011.37185489-2.986274.59075967zm27.032567.29821225c-.954473-.28850113-1.940571-.54665502-2.929508-.76798758l.178811-.79347926c1.007994.22578349 2.01315.48879294 2.987084.78295888zm-32.928074 1.23290734-.233956-.77891258c.985288-.29537984 1.981929-.57416985 2.962351-.82908669l.205573.78700518c-.970691.25248906-1.957601.52885129-2.933968.82099409zm38.566109.95290345c-.901761-.43335864-1.835555-.83798855-2.775835-1.20215548l.294775-.75827645c.960149.37185489 1.91381.78498203 2.835034 1.22805178zm-44.339977.99579421-.287071-.76110886c.958527-.36012063 1.933678-.70769772 2.896259-1.03302017l.261527.77041535c-.954877.32249004-1.920297.6668301-2.870715 1.02371368zm49.56038 2.04783199c-.825533-.57376521-1.683098-1.12082486-2.548773-1.62539836l.410739-.70243753c.885138.51590314 1.760949 1.07429242 2.603917 1.66060117zm-55.19355.28202705-.336944-.74087737c.923657-.41838733 1.873263-.82949132 2.822059-1.22198234l.311805.75139775c-.940281.38884935-1.881372.79631167-2.79692 1.21146196zm-5.444627 2.72761025-.410739-.7020329c.039736-.0234685 1.004345-.58388097 2.737316-1.44614731l.363705.72752458c-1.705805.84931823-2.680956 1.41539543-2.690282 1.42065563zm65.320119.8124969c-.731059-.6955589-1.494556-1.368863-2.268189-2.00089496l.516566-.62919951c.789447.64498008 1.567946 1.33163707 2.314007 2.04095327zm4.081037 4.4650911c-.633341-.7946932-1.293849-1.5695595-1.963682-2.3035581l.602526-.5478689c.681592.7473514 1.354669 1.5363797 1.998958 2.3448303zm3.477296 4.9579303c-.536435-.8679312-1.096792-1.7196772-1.665258-2.5317694l.668212-.465729c.577792.8246357 1.146258 1.6897345 1.690397 2.5706138zm2.918155 5.3172417c-.38479-.789433-.795934-1.5893863-1.220865-2.3776054l-.173135-.3188484.715246-.3896586.175973.3245132c.429391.7963117.845807 1.6063808 1.235867 2.4059295zm2.374827 5.5794418c-.339782-.9359089-.71484-1.8843615-1.113821-2.8198658l.749711-.3184438c.405062.9488572.785391 1.9114717 1.130445 2.8607335zm1.724456 5.8032023c-.222602-.9674702-.482507-1.9523394-.772822-2.9270928l.780932-.231853c.295586.9913433.559951 1.9928023.786203 2.9772669zm.945552 5.9703143c-.084337-.9909386-.208005-2.0004903-.367354-3.0007354l.80526-.1278631c.161782 1.020072.287882 2.0494505.374653 3.0598114zm.861215 6.092108-.81337-.0586713c.064064-.8849257.096096-1.7912967.096096-2.6932167l-.001216-.3208716.814991-.0084972.001622.3293688c0 .9213423-.033248 1.8471355-.098123 2.751888zm-.954067 6.0912987-.791879-.1926038c.237604-.9715165.437094-1.9677153.591983-2.961891l.80526.1254353c-.158538 1.0164303-.362083 2.0352884-.605364 3.0290595zm-1.962872 5.835168-.748494-.3220854c.398981-.921747.76228-1.8673671 1.079762-2.8105594l.772417.2589631c-.324375.9646378-.695784 1.9312986-1.103685 2.8736817zm-2.90153 5.4362029-.686458-.4382142c.543733-.8493182 1.057867-1.725342 1.527399-2.6037935l.7193.3827799c-.479668.8970645-1.004344 1.7917012-1.560241 2.6592278zm-3.701114 4.924346-.615095-.5337068c.664967-.7635367 1.305607-1.5537789 1.904078-2.3488767l.651588.4883883c-.61023.8104737-1.263034 1.6160919-1.940571 2.3941952zm-4.340943 4.366766-.5413-.6081587c.760658-.6741135 1.50226-1.3729093 2.204125-2.0777746l.578198.5729559c-.71403.7170042-1.4682 1.427939-2.241023 2.1129774zm-4.832776 3.8108046-.469126-.6652116c.833642-.5859041 1.652283-1.1952768 2.43362-1.8103143l.505213.6381014c-.793095.6247486-1.624305 1.2426185-2.469707 1.8374245zm-5.200535 3.2835717-.403035-.7072931c.888786-.5037642 1.765814-1.0281646 2.607566-1.5586344l.435473.6874662c-.852294.5373485-1.740675 1.068223-2.640004 1.5784613zm-5.473821 2.7980158-.340999-.7388542c.927306-.4264799 1.847719-.8723821 2.735694-1.3263768l.371815.7242875c-.898518.4584457-1.829067.9096081-2.76651 1.3409435zm-344.864504.9051572c-.93501-.1282677-1.942598-.2071706-2.993977-.2342808l.021489-.8133061c1.081384.0283241 2.118572.1096547 3.083181.2419687zm-9.042752.0772843-.094069-.8076413c1.063138-.1234122 2.097082-.21324 3.072638-.2670558l.045007.8120923c-.959338.0530065-1.976252.1408112-3.023576.2626048zm-5.929568 1.0953331-.218547-.7833635c.973935-.2706974 1.984362-.5001225 3.002492-.6826106l.143941.8007626c-.993397.1776325-1.978279.4013928-2.927886.6652115zm354.16108.2787901-.28545-.7619182c.955689-.3568836 1.908539-.7319755 2.832196-1.1147554l.312211.7509931c-.932172.3864216-1.893943.7651552-2.858957 1.1256805zm-333.564511.2500612c-.829182-.4365956-1.745135-.8039996-2.722719-1.0916915l.230712-.7801264c1.029078.3030678 1.995309.6907032 2.872337 1.152386zm-26.1770276 1.6484623-.3730308-.7230736c.9102762-.4673476 1.8562335-.8930183 2.8111112-1.2652778l.2968027.7574672c-.9293332.3621438-1.849746.7760802-2.7348831 1.2308842zm353.9182046.0570528-.235172-.7789126c.977989-.2941659 1.954762-.604517 2.902342-.9225562l.26031.77082c-.956094.3212762-1.941382.6340551-2.92748.9306488zm-5.930379 1.5934326-.189353-.7910515c.992181-.2367085 1.986389-.4883883 2.954647-.747756l.211249.7853866c-.975151.261391-1.976658.5150939-2.976543.7534209zm-317.441472.5086198c-.58874-.8104737-1.250059-1.5384029-1.96571-2.1635561l.537245-.6118004c.761064.6652115 1.463741 1.4384593 2.088162 2.2978932zm232.067301.0060695-.006893-.8133061c1.012049-.0080926 2.035045-.0089019 3.066151-.0020232l-.005271.8129015c-1.027457-.0068787-2.045993-.0060695-3.053987.0024278zm9.160338.1254352c-1.027862-.0356074-2.045587-.0635268-3.053176-.0849722l.017436-.8133062c1.011237.0214454 2.032612.0497695 3.064123.085377zm-15.263446.0218501-.032842-.8129015c1.012048-.040463 2.043154-.0740473 3.064123-.0983251l.019462.8133061c-1.016508.0242778-2.043154.0570528-3.050743.0979205zm21.365337.2686742c-1.025834-.0615037-2.042343-.1165334-3.049526-.1646843l.038519-.8124969c1.010833.0485556 2.031396.1035852 3.060474.1654936zm-27.458307.0861862-.062443-.811283c1.001507-.076475 2.030991-.1456667 3.059258-.205552l.04744.8120923c-1.023402.0594806-2.047615.1282676-3.044255.2047427zm91.562021.2464196-.147185-.7999533c1.003129-.1841066 2.009501-.3823753 2.991545-.5883319l.167864.795907c-.988937.2075752-2.002202.4066531-3.012224.5923782zm-58.009526.1076316c-1.023402-.0857816-2.038695-.165089-3.045472-.2379224l.058793-.8108784c1.010021.0728334 2.028152.1525455 3.055203.2383271zm-39.626004.230639-.094879-.8076413c1.001101-.1173427 2.026935-.2261881 3.049932-.3249178l.077849.8096645c-1.016914.0979204-2.037477.2067658-3.032902.3228946zm-249.3771446.0198269-.5104845-.6340551c.8076927-.6470032 1.6478228-1.2555666 2.4976842-1.8091003l.4456096.6813967c-.8279661.5389671-1.646201 1.1317499-2.4328093 1.7617587zm295.0867936.326941c-1.021375-.1080362-2.03464-.210003-3.039796-.305091l.077039-.8096645c1.007994.0954927 2.024503.1974594 3.048716.3059003zm45.864132.2771714-.109071-.8060227c1.012859-.1363603 2.028152-.2852641 3.0179-.4422605l.127722.8031903c-.99583.1578057-2.01761.3075188-3.036551.4450929zm-97.614041.2176909-.130966-.8027857c.994613-.161852 2.015177-.316016 3.033713-.4576364l.112315.8056181c-1.012049.1408112-2.02653.2937613-3.015062.454804zm57.837608.1602335c-1.010021-.0987297-2.02653-.2051474-3.048715-.3196576l.090419-.808046c1.018537.113701 2.031396.2201187 3.037768.3180391zm33.678596.3087326-.073795-.8100691c1.008805-.091851 2.029774-.1954362 3.035335-.308328l.09123.808046c-1.011237.113701-2.037883.2180955-3.05277.3103511zm-27.569.1982687c-1.012455-.0691917-2.030991-.1460714-3.056825-.2314483l.067713-.8104738c1.021374.0849723 2.036261.161852 3.044255.2302345zm21.449268.2338761-.041763-.8120923c1.017725-.0517926 2.042749-.1141056 3.046283-.1849158l.057576.8116876c-1.00921.0708102-2.039099.1335278-3.062096.1853205zm-15.326698.0882093c-1.013671-.037226-2.034234-.0829492-3.062502-.1375742l.04298-.8120922c1.023807.0542204 2.040316.0999436 3.049121.1367649zm9.195208.1092501-.011759-.8133062c1.018131-.014162 2.044777-.0376306 3.052365-.0700009l.02595.8129015c-1.012049.0323703-2.043965.0562435-3.066556.0704056zm-3.06534.0157805c-1.020158-.0036416-2.051264-.0161852-3.065745-.0372259l.01703-.8133062c1.00921.0210408 2.036261.0335843 3.051553.037226zm-82.189624.0161852-.172324-.7950978c.986504-.2132399 1.998553-.417578 3.008574-.6073495l.150835.7991441c-1.002318.1885576-2.007474.3916818-2.987085.6033032zm-5.915376 1.4546446-.218547-.7833636c.968258-.2690788 1.967737-.5304698 2.97046-.7768894l.194625.7898376c-.994614.2443965-1.985983.5033596-2.946538.7704154zm-235.7712529.7627273-.6126625-.5361346c.6880796-.7829589 1.4041364-1.5335474 2.1274917-2.2303201l.5660337.5850949c-.7071366.6813968-1.4073802 1.4153954-2.0808629 2.1813598zm42.5599709.033989c-.353162-1.0249276-.723355-1.9317032-1.132067-2.7725242l.733492-.3548604c.422904.8703589.80526 1.8070772 1.169371 2.8627566zm187.403356 1.0253322-.270853-.7671784c.948795-.3342243 1.930029-.6599513 2.914911-.968684l.244092.7760802c-.975962.3059002-1.94787.6287949-2.88815.9597822zm-5.653849 2.2371988-.330862-.74371c.920818-.407867 1.874479-.8068319 2.835034-1.1863747l.300046.7562537c-.950012.375496-1.893537.77001-2.804218 1.173831zm-227.9643684 1.516957-.6803757-.44752c.5765758-.872787 1.174236-1.718868 1.7763563-2.51437l.650371.490006c-.5915782.78215-1.1791016 1.613664-1.7463516 2.471884zm47.7860514 1.071056c-.242876-1.112732-.473182-2.079393-.703488-2.956226l.788231-.206766c.233549.888162.466288 1.866153.711596 2.98981zm174.738961.115724-.396954-.710125c.877839-.489603 1.793792-.971112 2.721503-1.431581l.362894.727929c-.916358.454804-1.820552.930649-2.687443 1.413777zm-5.137283 3.224496-.470343-.663998c.825128-.583072 1.686748-1.156837 2.561748-1.70511l.433446.68868c-.862025.540585-1.711481 1.105853-2.524851 1.680428zm-220.448609.824636-.7233553-.374688c.4829126-.928221.9816386-1.834592 1.4823918-2.693621l.7047038.409081c-.4942658.848104-.9869097 1.742741-1.4637403 2.659228zm52.066985 1.822048c-.124479-.615442-.24612-1.225624-.366544-1.830546l-.233549-1.168975.799178-.159829.233955 1.170189c.120018.603708.241659 1.213486.366138 1.828118zm163.659947 1.14227-.55022-.599661c.745656-.681397 1.533886-1.354701 2.341173-2.001704l.510079.634055c-.793501.636078-1.568351 1.298052-2.301032 1.96731zm-218.3117919 2.539053-.7501162-.318039c.4111448-.964638.8320208-1.908235 1.2520859-2.80449l.7379521.344745c-.4156049.887353-.8328317 1.822048-1.2399218 2.777784zm214.1443899 1.83702-.630503-.515903c.643072-.781745 1.331152-1.557825 2.045181-2.306391l.590362.561222c-.700244.733594-1.374943 1.494703-2.00504 2.261072zm-158.155311.468966c-.23801-.936314-.468721-1.913495-.70592-2.987787l.795934-.174801c.235171 1.065796.464261 2.03448.699838 2.962701zm99.801136 3.266173-.218953-.783364c1.048541-.292143 2.11776-.409485 3.159003-.352028l-.045818.812092c-.951634-.053006-1.931651.05503-2.894232.3233zm-158.0097479.100348-.7667404-.275553c.3555956-.985274.7180842-1.95153 1.077329-2.872468l.759442.29538c-.3564065.914059-.7168678 1.873841-1.0700306 2.852641zm212.9056839 1.108686-.703893-.4107c.514945-.878451 1.075708-1.751238 1.666475-2.594891l.667806.466133c-.578198.825445-1.126796 1.680024-1.630388 2.539458zm-46.678312.645384c-.768362-.645384-1.606465-1.15886-2.491197-1.525859l.312616-.751398c.961771.39937 1.871236.956141 2.703257 1.654937zm-106.2347.762728c-.336944-.930244-.66213-1.91309-.96542-2.921024l.780526-.233876c.299236.993367.61915 1.962051.951229 2.878133zm92.961698.358502-.554275-.596425c.804854-.744923 1.644579-1.38262 2.496468-1.8965l.421687.696368c-.804855.484747-1.599978 1.089264-2.36388 1.796557zm-154.9018338 2.903624-.7772825-.244396c.3138324-.993367.6333413-1.97419.9496065-2.91455l.772417.258964c-.3146433.935504-.6325304 1.911471-.944741 2.899982zm171.5195428.764751c-.356406-.933481-.817829-1.811933-1.371698-2.611482l.670644-.462492c.590767.853365 1.083006 1.790083 1.462524 2.784259zm40.72685 0-.76228-.288097c.363299-.95614.772417-1.909853 1.215999-2.834837l.735114.351219c-.433851.904348-.833643 1.83702-1.188833 2.771715zm-60.3507 1.243023-.798367-.161852c.207194-1.019263.613068-2.010606 1.206268-2.946515l.68889.434977c-.540083.851746-.909059 1.751643-1.096791 2.67339zm-87.47693.362953c-.470748-.888972-.920818-1.822049-1.337639-2.774143l.746467-.325727c.409117.933481.850266 1.848754 1.311689 2.720327zm-66.1724128 3.476985-.7833646-.223356c.281395-.985274.5676555-1.965692.8595926-2.940041l.7809318.232662c-.2911262.971517-.5761703 1.948293-.8571598 2.930735zm212.3428938.711744-.799988-.156997c.199085-1.008337.44196-2.016675.722139-2.996689l.784175.223356c-.274502.958568-.512106 1.944247-.706326 2.93033zm-37.446611.091446-.812153-.066764c.03041-.372259.046223-.750184.046223-1.122443.000406-.613015-.042168-1.230075-.125289-1.833783l.807287-.111273c.088392.640934.132993 1.29522.132993 1.945056 0 .394514-.016624.794693-.049061 1.189207zm-105.414033.910013c-.617122-.809665-1.209917-1.659792-1.762165-2.526509l.68808-.436191c.539678.847699 1.119498 1.678809 1.722834 2.47067zm84.294004.462896c-.475614-1.014002-.799583-2.021935-.963392-2.996689l.803638-.134337c.151645.90192.453719 1.839448.898112 2.786282zm-155.3989376 3.700746-.7870138-.210003c.2639598-.986488.5311634-1.970548.8016107-2.951776l.7857974.216073c-.2700419.9788-.5364345 1.961646-.8003943 2.945706zm75.2350336.396941c-.752144-.703246-1.479149-1.440887-2.160741-2.193094l.604554-.545441c.666184.735617 1.377375 1.457073 2.1133 2.144539zm138.044492.424457-.814585-.028324c.036492-1.030997.113125-2.065231.228278-3.074378l.80972.091851c-.11272.988106-.187732 2.0013-.223413 3.010851zm-38.539348.070811-.720517-.380353c.470748-.888567.851483-1.811932 1.132067-2.743795l.780932.234281c-.295992.982441-.697406 1.954362-1.192482 2.889867zm-15.772714.49122c-.741196-.79793-1.404947-1.604762-1.973414-2.398241l.662941-.473013c.548598.76556 1.190454 1.545687 1.908133 2.318934zm-78.925199 2.846167c-.856349-.584286-1.689586-1.197705-2.476195-1.824072l.508052-.636078c.770795.614228 1.588219 1.215508 2.427944 1.788464zm83.520776 1.285105c-.842158-.647408-1.643363-1.309787-2.38091-1.96812l.543328-.606541c.72295.64579 1.508747 1.295221 2.335091 1.93049zm7.388036.296593-.56279-.587927c.740385-.70527 1.416301-1.449789 2.009906-2.21373l.643884.498099c-.617934.795907-1.321421 1.570774-2.091 2.303558zm-172.5109128.1048-.7886357-.205148c.2570668-.985274.5153501-1.972571.7748498-2.959058l.7882302.206361c-.2594997.986083-.5173775 1.972571-.7744443 2.957845zm214.9678958 1.004291-.814586-.021041c.002838-.123817.00446-.249252.00446-.375901 0-.411104-.015813-.835965-.047034-1.263659-.033654-.462088-.059199-.923366-.07785-1.38343l.814586-.032775c.01784.451567.043385.903943.076228 1.357533.032437.446712.049467.891805.049467 1.322331 0 .133933-.001622.265842-.005271.396942zm-128.070786.424052c-.924062-.468561-1.8315-.964233-2.696769-1.472044l.413172-.700819c.851078.499314 1.743513.986488 2.652979 1.447766zm-133.2287466 1.637942-.1484013-.799549c1.0355658-.19139 2.07843-.303877 3.0998045-.335033l.0243281.812901c-.9796112.029943-1.9807123.138384-2.9757313.321681zm8.8748884.48151c-.9463629-.298213-1.926785-.517117-2.9136946-.650241l.1090709-.806022c1.033133.139597 2.0593731.368617 3.0499319.680587zm204.9954042.034798-.41155-.701629c.483318-.282836.954472-.575383 1.409002-.876428-.308561-.200292-.612257-.401393-.910276-.602898l.457368-.673305c.384384.260177.778905.519545 1.181535.777294.128533-.091041.255039-.182892.380329-.274743l.483723.654286c-.040141.029538-.080282.059076-.120424.088614.210844.130696.423715.260582.637396.389254l-.421281.696368c-.316265-.19058-.629692-.383184-.939064-.577407-.559141.379948-1.143421.748566-1.746758 1.100594zm-75.024595.323299c-.967041-.369427-1.92273-.761109-2.840305-1.164929l.32843-.74452c.90541.398561 1.848529.784983 2.803407 1.149554zm-144.5417151 1.032616-.349919-.734404c.949201-.450353 1.919081-.840821 2.8824735-1.159669l.2566614.772034c-.931766.308732-1.8700194.685848-2.7892159 1.122039zm150.3630231.905966c-.994614-.287287-1.980307-.592783-2.930319-.908394l.257472-.771225c.93947.311565 1.915026.614228 2.899503.898279zm-99.8822301.074047-.7882302-.207575c.2590942-.982037.5173775-1.968524.7752552-2.956631l.7886357.204743c-.2582832.98932-.516161 1.976213-.7756607 2.959463zm177.1896111.068383c-.929333-.449544-1.851774-.921343-2.742182-1.402043l.388033-.715386c.879461.475036 1.791359.94117 2.709744 1.385858zm-13.683336.235494-.290721-.759895c.965014-.367404 1.902051-.764346 2.784756-1.1799l.347486.735617c-.901356.424052-1.85745.829086-2.841521 1.204178zm51.338764.796312-.688485-.435382c.506835-.797525.894057-1.698232 1.151124-2.676222l.788635.206361c-.278556 1.059321-.699432 2.036907-1.251274 2.905243zm-109.014591.320062c-1.015292-.220118-2.020042-.454399-2.986273-.696772l.198679-.788624c.957716.239945 1.953952.472608 2.960729.690703zm51.79451.712554-.197463-.789029c1.001101-.249656 1.984767-.523591 2.923021-.813711l.240848.776485c-.952445.294975-1.950302.572956-2.966406.826255zm-213.2251928.050983-.4991314-.642552c.8222896-.635674 1.6790439-1.23048 2.5455295-1.768233l.4302018.690703c-.8429684.522782-1.6762056 1.101403-2.4765999 1.720082zm238.4436948.332606c-.94758-.363763-1.906512-.75504-2.850848-1.163311l.32397-.746138c.933793.403416 1.882183.790647 2.819626 1.150363zm-70.986538.031156c-1.019347-.163066-2.035856-.338675-3.020738-.521568l.149618-.799953c.977989.182083 1.9872.356479 2.999654.517926zm39.737508.791456-.12529-.803595c1.015292-.157805 2.022475-.335438 2.993977-.528851l.159349.797526c-.982855.195436-2.001391.375496-3.028036.53492zm-33.664405.030752c-1.018536-.114915-2.041532-.241564-3.041011-.376306l.109476-.806427c.993397.134337 2.010717.260177 3.023577.375092zm6.105135.577002c-.997452-.077284-2.025313-.165493-3.055608-.2622l.076633-.810069c1.025429.096707 2.048831.184511 3.041823.261391zm21.458189.112488-.068524-.810474c1.029078-.086186 2.048426-.188558 3.029659-.303473l.094879.807642c-.989748.116128-2.018015.219309-3.056014.306305zm-15.334808.253702c-1.010832-.041676-2.041532-.093874-3.063718-.154973l.048657-.812092c1.017319.061099 2.042749.112892 3.04831.154164zm9.20494.079308-.022301-.812902c1.03881-.028324 2.063022-.069191 3.045066-.121793l.043791.812092c-.988937.053007-2.020854.094279-3.066556.122603zm-3.068584.043295h-.278151c-.913925 0-1.853395-.009711-2.791649-.029133l.016625-.812497c.932577.018613 1.866775.028324 2.776646.028324h.273286zm52.386494.034799c-.973124-.277981-1.962872-.585095-2.942483-.913655l.2595-.77082c.967852.324918 1.945842.627986 2.906801.90192zm21.323979.594401-.321942-.746947c.948796-.407867 1.799874-.910417 2.5285-1.494298l.509673.634055c-.785391.629604-1.699722 1.170594-2.716231 1.60719zm-15.316967.794693c-.986505-.171563-2.003013-.379138-3.022766-.616251l.184893-.791861c1.004751.233876 2.006663.438214 2.977759.606945zm-196.2818932.050174-.7853919-.217286c.2708528-.975967.5388673-1.958814.8044489-2.946515l.7874193.210812c-.2663926.990129-.535218 1.974999-.8064763 2.952989zm-58.39553256.409081-.61347341-.534921c.67834832-.774461 1.40089269-1.524241 2.14817061-2.229106l.55995161.59076c-.72862639.687061-1.43333015 1.418228-2.09464881 2.173267zm263.92291176.118961-.061226-.811283c1.048135-.078498 2.04802-.219714 2.970866-.418792l.172729.794693c-.959743.207576-1.996931.354052-3.082369.435382zm-3.100616.067169c-.991369-.026706-2.029774-.097921-3.086829-.212026l.087176-.808856c1.035565.111678 2.052074.181679 3.021549.20798zm-264.3377052 4.705846-.7055147-.406653c.51088995-.882903 1.07651812-1.756904 1.6814767-2.597724l.66172413.473821c-.58914532.81978-1.14017663 1.671122-1.63768613 2.530556zm60.2063537.583476-.7797154-.236304c.2939644-.966256.5826578-1.942628.866891-2.926688l.7833646.225379c-.2854496.987701-.5753594 1.967715-.8705402 2.937613zm-62.64321769 4.907352-.77768804-.243183c.3036957-.966661.67388818-1.941819 1.10003528-2.897959l.74443964.330987c-.41357758.927412-.77241695 1.873032-1.06678688 2.810155zm60.75251939.92377-.7699842-.266651c.319509-.91851.6455054-1.891241.9686636-2.890677l.7752552.250466c-.32478 1.004696-.6523983 1.982687-.9739346 2.906862zm-61.79011255 4.963595-.81458565-.027515c.03487027-1.014812.14637403-2.054711.33126753-3.090563l.8024216.142429c-.17840601.998627-.28585509 1.999277-.31910348 2.975649zm59.61761385.775271-.7529545-.311161c.3730307-.900301.7501162-1.852395 1.1186868-2.829577l.7630912.286478c-.3722199.985274-.7521436 1.945866-1.1288235 2.85426zm-59.65248412 5.356086c-.29842461-.984869-.51494463-2.011415-.644289-3.0501l.8089091-.100349c.1236678.993367.33045659 1.973785.61590622 2.915359zm57.07208432.219309-.7233553-.374687c.4492588-.864694.8981121-1.78199 1.3331795-2.726396l.7407904.340293c-.4407439.955736-.8952738 1.884362-1.3506146 2.76079zm-3.1521099 5.281635-.6710499-.461683c.5534641-.799954 1.1012517-1.656555 1.6295768-2.545527l.7010545.414341c-.5376508.905157-1.0959806 1.777539-1.6595814 2.592869zm-51.12224372.047341c-.62361012-.844867-1.17464143-1.737481-1.63768613-2.653158l.72781545-.366595c.44236582.875619.96947451 1.728984 1.56591825 2.53703zm4.38676064 4.386998c-.84377936-.640125-1.63403692-1.324759-2.34847192-2.034479l.57495394-.576193c.6888905.684229 1.45157621 1.344989 2.26656733 1.962859zm42.81825468.315206-.5773868-.573765c.6860522-.687466 1.3631842-1.43765 2.0127442-2.229511l.6305031.515499c-.6661843.811688-1.3611568 1.581698-2.0658605 2.287777zm-37.5086484 2.85952c-.9552831-.450353-1.8752905-.937527-2.7348831-1.446957l.4168213-.699605c.8372919.496886 1.7341876.971517 2.666359 1.411754zm32.6892531.97273-.4261471-.693535c.8336427-.509429 1.6551213-1.086027 2.4413242-1.714013l.509268.634865c-.8129637.649026-1.6624196 1.245855-2.5244451 1.772683zm-26.9210622 1.215509c-1.0083995-.304282-1.9920654-.636079-2.9222095-.987297l.2878825-.760705c.9135199.34434 1.8789397.670472 2.8703095.969089zm21.2903251 1.272561-.2282786-.780936c.9556886-.278385 1.8967803-.621107 2.7965143-1.018858l.3300511.74371c-.9325769.411913-1.9077279.767583-2.8982868 1.056084zm-15.3039924.16873c-1.027051-.192199-2.040316-.407462-3.011007-.63972l.1897592-.791051c.9581214.229425 1.9576005.441856 2.9716765.631627zm6.1152717.797931c-.9982628-.053816-2.0338286-.154569-3.0783147-.299427l.1123147-.805618c1.0217799.141621 2.0346395.24035 3.010196.292952zm3.0985881.016994-.0368976-.812092c1.0181307-.046128 2.0232864-.147286 2.9878953-.30145l.1289389.803191c-.995019.158615-2.0309903.263414-3.0799366.310351z"/><path d="m271 152c0-4.418203 3.581705-8 7.999796-8 4.418499 0 8.000204 3.581797 8.000204 8s-3.581705 8-8.000204 8c-4.418091 0-7.999796-3.581797-7.999796-8"/><path d="m292 175h-26c0-7.17917 5.820521-13 12.999801-13s13.000199 5.82083 13.000199 13"/></g><path d="m292 152c0-4.418203 3.581797-8 8-8 4.418612 0 8 3.581797 8 8s-3.581388 8-8 8c-4.418203 0-8-3.581797-8-8" fill="#3ab8ad"/><path d="m313 175h-26c0-7.17917 5.820521-13 12.999801-13s13.000199 5.82083 13.000199 13" fill="#3ab8ad"/></g></svg>