<svg height="337" viewBox="0 0 400 337" width="400" xmlns="http://www.w3.org/2000/svg"><g fill="#81d8d0" opacity=".3"><path d="m259.374391 336.99633c-4.805584.004386-9.468339-1.918674-13.21628-5.450798l-238.15359282-223.074993c-7.40778602-6.939474-10.01106095-18.7981089-6.38346766-29.078455 3.62759328-10.2803461 12.61039938-16.5008569 22.02666028-15.2532603l357.4777642 47.3983223c7.688243 1.020015 14.297715 6.864237 17.257329 15.259262 2.959613 8.395024 1.802097 18.015428-3.022273 25.118869l-119.324171 175.676671c-3.505703 5.192009-8.635032 8.520418-14.243839 9.242793-.802857.106634-1.610155.161589-2.41813.161589zm-238.3350987-262.7191403c-5.2614861.11918-9.8951001 4.0978641-11.58733859 9.9495469-1.69223852 5.8516828-.08013247 12.3212339 4.03141449 16.1784904l238.1535928 223.076712c5.389437 5.036897 13.233849 3.999499 17.534369-2.318864l119.325635-175.67667c2.831959-4.168871 3.511537-9.815451 1.774314-14.742689-1.737223-4.927237-5.616892-8.356987-10.12945-8.954753l-357.4763005-47.3983226c-.5397776-.0744078-1.0827534-.1134507-1.6262362-.1134507z"/><path d="m262.30628 274.474769c-6.651912.187492-12.880945-3.817366-16.32891-10.498414l-113.832565-240.1438991c-2.519236-5.0394967-2.290178-11.3442543.585423-16.11360372 3.512538-5.84199752 10.25661-8.74753218 17.193872-7.38840863l143.472529 27.94708525c9.356523 1.8247651 15.916187 10.855806 14.620939 20.1359909l-29.639964 212.2019693c-.971802 6.951977-5.772271 12.129017-12.528051 13.512196-1.170301.235944-2.355849.353389-3.543273.347084zm-115.795196-264.1734103c-2.529866-.1675499-4.978869 1.0754872-6.607961 3.3539939-.941199 1.5315653-.9779 3.5867638-.092204 5.1632949l113.832565 240.1490545c2.038735 4.295586 6.927017 5.769831 10.69275 4.994908 1.445995-.295537 4.861938-1.374588 5.371256-5.024118l29.639964-212.2019693c.504927-3.6082926-2.881745-7.4176186-7.393892-8.2956365l-143.47253-27.9470852c-.651024-.1276364-1.309908-.1920021-1.969948-.1924423z"/><path d="m259.374391 336.99633c-4.805584.004386-9.468339-1.918674-13.21628-5.450798l-238.15359282-223.074993c-7.40778602-6.939474-10.01106095-18.7981089-6.38346766-29.078455 3.62759328-10.2803461 12.61039938-16.5008569 22.02666028-15.2532603l357.4777642 47.3983223c7.688243 1.020015 14.297715 6.864237 17.257329 15.259262 2.959613 8.395024 1.802097 18.015428-3.022273 25.118869l-119.324171 175.676671c-3.505703 5.192009-8.635032 8.520418-14.243839 9.242793-.802857.106634-1.610155.161589-2.41813.161589zm-238.3350987-262.7191403c-5.2614861.11918-9.8951001 4.0978641-11.58733859 9.9495469-1.69223852 5.8516828-.08013247 12.3212339 4.03141449 16.1784904l238.1535928 223.076712c5.389437 5.036897 13.233849 3.999499 17.534369-2.318864l119.325635-175.67667c2.831959-4.168871 3.511537-9.815451 1.774314-14.742689-1.737223-4.927237-5.616892-8.356987-10.12945-8.954753l-357.4763005-47.3983226c-.5397776-.0744078-1.0827534-.1134507-1.6262362-.1134507z"/><path d="m262.30628 274.474769c-6.651912.187492-12.880945-3.817366-16.32891-10.498414l-113.832565-240.1438991c-2.519236-5.0394967-2.290178-11.3442543.585423-16.11360372 3.512538-5.84199752 10.25661-8.74753218 17.193872-7.38840863l143.472529 27.94708525c9.356523 1.8247651 15.916187 10.855806 14.620939 20.1359909l-29.639964 212.2019693c-.971802 6.951977-5.772271 12.129017-12.528051 13.512196-1.170301.235944-2.355849.353389-3.543273.347084zm-115.795196-264.1734103c-2.529866-.1675499-4.978869 1.0754872-6.607961 3.3539939-.941199 1.5315653-.9779 3.5867638-.092204 5.1632949l113.832565 240.1490545c2.038735 4.295586 6.927017 5.769831 10.69275 4.994908 1.445995-.295537 4.861938-1.374588 5.371256-5.024118l29.639964-212.2019693c.504927-3.6082926-2.881745-7.4176186-7.393892-8.2956365l-143.47253-27.9470852c-.651024-.1276364-1.309908-.1920021-1.969948-.1924423z"/></g></svg>