<svg height="17" viewBox="0 0 17 17" width="17" xmlns="http://www.w3.org/2000/svg"><path d="m592.868811 144.188289c-.051378-.084433-.187755-.135622-.392133-.237056-.204756-.101244-1.210778-.592733-1.397778-.659977-.187567-.067623-.324322-.101623-.460511.101244-.136189.203244-.528322.660167-.647889.795789-.119378.135811-.238378.152811-.443133.051189-.204378-.101622-.8636-.316011-1.645034-1.007345-.608033-.537955-1.018677-1.202089-1.138055-1.405522-.119189-.203244-.012467-.312989.089722-.413855.092178-.091045.204756-.237245.306944-.355678.102567-.118622.136567-.202867.204378-.338678.068567-.135244.034378-.253678-.017-.355489-.051-.101622-.460511-1.100467-.630889-1.506767-.170377-.406111-.340566-.338488-.460133-.338488-.119189 0-.255756-.017-.392133-.017-.136378 0-.358134.050811-.5457.253677-.187378.203434-.7157.694545-.7157 1.693011 0 .998845.7327 1.963878.835266 2.099312.102189.135055 1.414778 2.251555 3.494634 3.064155 2.079666.8126 2.079666.541356 2.4548.507545.374755-.034 1.210022-.491112 1.381155-.964845.170189-.4743.170189-.880789.119189-.965222m-4.2143-8.869656c-3.8692 0-7.016467 3.123467-7.016467 6.962256 0 1.523578.496589 2.934389 1.336578 4.082078l-.876633 2.585511 2.696389-.856989c1.107833.7276 2.434966 1.151844 3.860322 1.151844 3.868633 0 7.016467-3.1229 7.016467-6.962066 0-3.838789-3.147645-6.962634-7.016656-6.962634m8.345489 6.962256c0 4.573567-3.736033 8.281078-8.345489 8.281078-1.463322 0-2.838055-.373811-4.0341-1.030389l-4.620411 1.468422 1.506389-4.443233c-.7599-1.247611-1.197556-2.711123-1.197556-4.275878 0-4.573567 3.736411-8.280889 8.345678-8.280889 4.609833 0 8.345489 3.707322 8.345489 8.280889" fill="#2bc78b" transform="translate(-580 -134)"/></svg>