<svg height="25" viewBox="0 0 32 25" width="32" xmlns="http://www.w3.org/2000/svg"><path d="m13.7060547 18.5253906c0 1.4583334-.5867513 2.734375-1.7602539 3.828125s-2.55777997 1.640625-4.15283205 1.640625c-2.50651042 0-4.43196615-.8317057-5.77636719-2.4951172-1.34440104-1.6634114-2.01660156-3.9648437-2.01660156-6.9042968 0-2.734375 1.15641276-5.4915365 3.46923828-8.27148441 2.31282552-2.77994792 5.09847005-4.88769531 8.35693362-6.32324219l1.5039062 2.42675781c-2.5748698 1.25325521-4.59147133 2.71158854-6.04980466 4.375-1.45833334 1.66341146-2.30143229 3.68001299-2.52929688 6.04980469h1.9140625c1.41276042 0 2.56347656.1595052 3.45214844.4785156.8886719.3190104 1.6064453.7633464 2.1533203 1.3330078.5240886.546875.8943685 1.1507162 1.1108399 1.8115235.2164713.6608073.324707 1.344401.324707 2.0507812zm16.8505859 0c0 1.4583334-.5867513 2.734375-1.7602539 3.828125s-2.5577799 1.640625-4.152832 1.640625c-2.5065104 0-4.4319662-.8317057-5.7763672-2.4951172-1.344401-1.6634114-2.0166016-3.9648437-2.0166016-6.9042968 0-2.734375 1.1564128-5.4915365 3.4692383-8.27148441 2.3128255-2.77994792 5.0984701-4.88769531 8.3569336-6.32324219l1.5039063 2.42675781c-2.5748698 1.25325521-4.5914714 2.71158854-6.0498047 4.375-1.4583334 1.66341146-2.3014323 3.68001299-2.5292969 6.04980469h1.9140625c1.4127604 0 2.5634766.1595052 3.4521484.4785156.8886719.3190104 1.6064454.7633464 2.1533204 1.3330078.5240885.546875.8943684 1.1507162 1.1108398 1.8115235.2164713.6608073.324707 1.344401.324707 2.0507812z" fill="#3f544e" transform="translate(.460938 .841797)"/></svg>