<svg height="254" viewBox="0 0 480 254" width="480" xmlns="http://www.w3.org/2000/svg"><g fill="none" fill-rule="evenodd"><path d="m430.139238 151.866408c0 .935742-.760291 1.694408-1.697658 1.694408-.935742 0-1.696032-.758666-1.696032-1.694408 0-.937367.76029-1.697658 1.696032-1.697658.937367 0 1.697658.760291 1.697658 1.697658" fill="#dee5ff"/><path d="m442.289265 151.866408c0 .935742-.76029 1.694408-1.697657 1.694408-.935742 0-1.696033-.758666-1.696033-1.694408 0-.937367.760291-1.697658 1.696033-1.697658.937367 0 1.697657.760291 1.697657 1.697658" fill="#dee5ff"/><path d="m454.440917 151.866408c0 .935742-.76029 1.694408-1.696033 1.694408-.937366 0-1.696032-.758666-1.696032-1.694408 0-.937367.758666-1.697658 1.696032-1.697658.935743 0 1.696033.760291 1.696033 1.697658" fill="#dee5ff"/><path d="m466.590944 151.866408c0 .935742-.758665 1.694408-1.696032 1.694408s-1.696033-.758666-1.696033-1.694408c0-.937367.758666-1.697658 1.696033-1.697658s1.696032.760291 1.696032 1.697658" fill="#dee5ff"/><path d="m430.139238 161.480509c0 .937366-.760291 1.696032-1.697658 1.696032-.935742 0-1.696032-.758666-1.696032-1.696032 0-.937367.76029-1.696033 1.696032-1.696033.937367 0 1.697658.758666 1.697658 1.696033" fill="#dee5ff"/><path d="m442.289265 161.480509c0 .937366-.76029 1.696032-1.697657 1.696032-.935742 0-1.696033-.758666-1.696033-1.696032 0-.937367.760291-1.696033 1.696033-1.696033.937367 0 1.697657.758666 1.697657 1.696033" fill="#dee5ff"/><path d="m454.440917 161.480509c0 .937366-.76029 1.696032-1.696033 1.696032-.937366 0-1.696032-.758666-1.696032-1.696032 0-.937367.758666-1.696033 1.696032-1.696033.935743 0 1.696033.758666 1.696033 1.696033" fill="#dee5ff"/><path d="m466.590944 161.480509c0 .937366-.758665 1.696032-1.696032 1.696032s-1.696033-.758666-1.696033-1.696032c0-.937367.758666-1.696033 1.696033-1.696033s1.696032.758666 1.696032 1.696033" fill="#dee5ff"/><path d="m430.139238 171.096234c0 .937367-.760291 1.696033-1.697658 1.696033-.935742 0-1.696032-.758666-1.696032-1.696033 0-.937366.76029-1.697657 1.696032-1.697657.937367 0 1.697658.760291 1.697658 1.697657" fill="#dee5ff"/><path d="m442.289265 171.096234c0 .937367-.76029 1.696033-1.697657 1.696033-.935742 0-1.696033-.758666-1.696033-1.696033 0-.937366.760291-1.697657 1.696033-1.697657.937367 0 1.697657.760291 1.697657 1.697657" fill="#dee5ff"/><path d="m454.440917 171.096234c0 .937367-.76029 1.696033-1.696033 1.696033-.937366 0-1.696032-.758666-1.696032-1.696033 0-.937366.758666-1.697657 1.696032-1.697657.935743 0 1.696033.760291 1.696033 1.697657" fill="#dee5ff"/><path d="m466.590944 171.096234c0 .937367-.758665 1.696033-1.696032 1.696033s-1.696033-.758666-1.696033-1.696033c0-.937366.758666-1.697657 1.696033-1.697657s1.696032.760291 1.696032 1.697657" fill="#dee5ff"/><path d="m430.139238 180.71196c0 .937367-.760291 1.696033-1.697658 1.696033-.935742 0-1.696032-.758666-1.696032-1.696033s.76029-1.697657 1.696032-1.697657c.937367 0 1.697658.76029 1.697658 1.697657" fill="#dee5ff"/><path d="m442.289265 180.71196c0 .937367-.76029 1.696033-1.697657 1.696033-.935742 0-1.696033-.758666-1.696033-1.696033s.760291-1.697657 1.696033-1.697657c.937367 0 1.697657.76029 1.697657 1.697657" fill="#dee5ff"/><path d="m454.440917 180.71196c0 .937367-.76029 1.696033-1.696033 1.696033-.937366 0-1.696032-.758666-1.696032-1.696033s.758666-1.697657 1.696032-1.697657c.935743 0 1.696033.76029 1.696033 1.697657" fill="#dee5ff"/><path d="m466.590944 180.71196c0 .937367-.758665 1.696033-1.696032 1.696033s-1.696033-.758666-1.696033-1.696033.758666-1.697657 1.696033-1.697657 1.696032.76029 1.696032 1.697657" fill="#dee5ff"/><path d="m343.339403 32.9442982c-4.290443 0-7.779982 3.4895385-7.779982 7.7799814v23.3838073c0 4.2888183 3.489539 7.7799814 7.779982 7.7799814h127.256063c4.290443 0 7.779982-3.4911631 7.779982-7.7799814v-23.3838073c0-4.2904429-3.489539-7.7799814-7.779982-7.7799814zm127.256063 40.5683225h-127.256063c-5.185571 0-9.404534-4.2205871-9.404534-9.4045338v-23.3838073c0-5.1855713 4.218963-9.4045338 9.404534-9.4045338h127.256063c5.185571 0 9.404534 4.2189625 9.404534 9.4045338v23.3838073c0 5.1839467-4.218963 9.4045338-9.404534 9.4045338z" fill="#c9d5ff"/><path d="m448.506427 44.6362018h-70.370736c-.448377 0-.812276-.3638997-.812276-.8122762 0-.450001.363899-.8122762.812276-.8122762h70.370736c.450001 0 .812276.3622752.812276.8122762 0 .4483765-.362275.8122762-.812276.8122762" fill="#c9d5ff"/><path d="m448.506427 63.0959907h-70.370736c-.448377 0-.812276-.3638997-.812276-.8122762 0-.450001.363899-.8122762.812276-.8122762h70.370736c.450001 0 .812276.3622752.812276.8122762 0 .4483765-.362275.8122762-.812276.8122762" fill="#c9d5ff"/><path d="m459.249592 53.865284h-81.113901c-.448377 0-.812276-.3622752-.812276-.8122762 0-.4483765.363899-.8122762.812276-.8122762h81.113901c.448377 0 .812276.3638997.812276.8122762 0 .450001-.363899.8122762-.812276.8122762" fill="#c9d5ff"/><path d="m370.992534 51.7874815c0 5.7395436-4.652718 10.3906371-10.390637 10.3906371-5.739544 0-10.392262-4.6510935-10.392262-10.3906371 0-5.7395437 4.652718-10.3906372 10.392262-10.3906372 5.737919 0 10.390637 4.6510935 10.390637 10.3906372" fill="#c9d5ff"/><path d="m359.680775 56.1461556c-.199819 0-.401264-.0747294-.558846-.2225637l-5.177448-4.8931518c-.324911-.3070405-.339532-.8220236-.030867-1.146934.308665-.3265351.822024-.341156 1.148559-.0324911l4.599108 4.3473022 6.460845-6.5274515c.316787-.3184123.830146-.3200368 1.148558-.0064982.320037.3167877.323286.8317708.006498 1.1485585l-7.01969 7.0911713c-.159207.1608306-.368774.2420583-.576717.2420583" fill="#fff"/><path d="m9.40615841 64.0041155c-4.2904429 0-7.78160601 3.4911631-7.78160601 7.781606v23.3821828c0 4.2904429 3.49116311 7.7799817 7.78160601 7.7799817h127.25606359c4.290443 0 7.779981-3.4895388 7.779981-7.7799817v-23.3821828c0-4.2904429-3.489538-7.781606-7.779981-7.781606zm127.25606359 40.5683225h-127.25606359c-5.18719582 0-9.40615841-4.218962-9.40615841-9.4045337v-23.3821828c0-5.1871958 4.21896259-9.4061584 9.40615841-9.4061584h127.25606359c5.185571 0 9.404534 4.2189626 9.404534 9.4061584v23.3821828c0 5.1855717-4.218963 9.4045337-9.404534 9.4045337z" fill="#c9d5ff"/><path d="m114.574807 75.6960192h-70.3723607c-.450001 0-.8122762-.3638998-.8122762-.8122762 0-.450001.3622752-.8122762.8122762-.8122762h70.3723607c.448377 0 .812276.3622752.812276.8122762 0 .4483764-.363899.8122762-.812276.8122762" fill="#c9d5ff"/><path d="m114.574807 94.1558081h-70.3723607c-.450001 0-.8122762-.3638997-.8122762-.8122762 0-.450001.3622752-.8122762.8122762-.8122762h70.3723607c.448377 0 .812276.3622752.812276.8122762 0 .4483765-.363899.8122762-.812276.8122762" fill="#c9d5ff"/><path d="m125.314723 84.9251014h-81.1122767c-.450001 0-.8122762-.3622752-.8122762-.8122762 0-.4483765.3622752-.8122762.8122762-.8122762h81.1122767c.450001 0 .812276.3638997.812276.8122762 0 .450001-.362275.8122762-.812276.8122762" fill="#c9d5ff"/><path d="m26.6686522 73.2689379c-5.2830444 0-9.5799855 4.2969411-9.5799855 9.5783609 0 5.2830445 4.2969411 9.5799856 9.5799855 9.5799856 5.2814199 0 9.578361-4.2969411 9.578361-9.5799856 0-5.2814198-4.2969411-9.5783609-9.578361-9.5783609zm0 20.7828989c-6.1781728 0-11.2045379-5.0263652-11.2045379-11.204538 0-6.1781727 5.0263651-11.2029133 11.2045379-11.2029133 6.1765483 0 11.2029134 5.0247406 11.2029134 11.2029133 0 6.1781728-5.0263651 11.204538-11.2029134 11.204538z" fill="#c9d5ff"/><path d="m25.7459065 87.2059729c-.19982 0-.4012645-.0747294-.5572215-.2225636l-5.175824-4.8931519c-.326535-.3070404-.341156-.8220235-.032491-1.146934.3070404-.326535.8220235-.3427805 1.1485585-.032491l4.5991079 4.3473022 6.4608449-6.525827c.3167877-.3200368.8301463-.3216614 1.1485585-.0064982.3200369.3151632.3216614.8301463.0064983 1.1485585l-7.019691 7.0895467c-.1592061.1608307-.3687734.2420583-.5783406.2420583" fill="#c9d5ff"/><path d="m157.568587 130.277731h165.294957v-119.8318591h-165.294957zm166.107234 1.624552h-166.919511c-.448376 0-.812276-.362275-.812276-.812276v-121.45641126c0-.45000101.3639-.8122762.812276-.8122762h166.919511c.450001 0 .812276.36227519.812276.8122762v121.45641126c0 .450001-.362275.812276-.812276.812276z" fill="#c9d5ff"/><path d="m176.398773 8.82131954h3.465171v-5.46499428c0-.95523681-.778161-1.73177286-1.733398-1.73177286-.955236 0-1.731773.77653605-1.731773 1.73177286zm4.277447 1.62455236h-5.089723c-.450001 0-.812276-.3638997-.812276-.81227616v-6.27727048c0-1.85036518 1.50596-3.35632526 3.356325-3.35632526 1.85199 0 3.35795 1.50596008 3.35795 3.35632526v6.27727048c0 .44837646-.3639.81227616-.812276.81227616z" fill="#c9d5ff"/><path d="m300.571436 8.82131954h3.465171v-5.46499428c0-.95523681-.778161-1.73177286-1.733398-1.73177286s-1.731773.77653605-1.731773 1.73177286zm4.277447 1.62455236h-5.089723c-.450001 0-.812276-.3638997-.812276-.81227616v-6.27727048c0-1.85036518 1.50596-3.35632526 3.356325-3.35632526 1.85199 0 3.35795 1.50596008 3.35795 3.35632526v6.27727048c0 .44837646-.3639.81227616-.812276.81227616z" fill="#c9d5ff"/><path d="m172.3114 41.4309599h18.008163v-18.0097879h-18.008163zm18.820439 1.6245524h-19.632716c-.450001 0-.812276-.3622752-.812276-.8122762v-19.6327158c0-.450001.362275-.8122762.812276-.8122762h19.632716c.448377 0 .812276.3622752.812276.8122762v19.6327158c0 .450001-.363899.8122762-.812276.8122762z" fill="#c9d5ff"/><path d="m172.3114 61.0653002h18.008163v-18.0097879h-18.008163zm18.820439 1.6245524h-19.632716c-.450001 0-.812276-.3622751-.812276-.8122762v-19.6343403c0-.4483765.362275-.8122762.812276-.8122762h19.632716c.448377 0 .812276.3638997.812276.8122762v19.6343403c0 .4500011-.363899.8122762-.812276.8122762z" fill="#c9d5ff"/><path d="m172.3114 80.6996406h18.008163v-18.0081634h-18.008163zm18.820439 1.6245524h-19.632716c-.450001 0-.812276-.3638998-.812276-.8122762v-19.6343404c0-.4483764.362275-.8122762.812276-.8122762h19.632716c.448377 0 .812276.3638998.812276.8122762v19.6343404c0 .4483764-.363899.8122762-.812276.8122762z" fill="#c9d5ff"/><path d="m172.3114 100.333981h18.008163v-18.009788h-18.008163zm18.820439 1.624552h-19.632716c-.450001 0-.812276-.363899-.812276-.812276v-19.6343402c0-.4483765.362275-.8122762.812276-.8122762h19.632716c.448377 0 .812276.3638997.812276.8122762v19.6343402c0 .448377-.363899.812276-.812276.812276z" fill="#c9d5ff"/><path d="m172.3114 119.966697h18.008163v-18.008164h-18.008163zm18.820439 1.624552h-19.632716c-.450001 0-.812276-.362275-.812276-.812276v-19.632716c0-.450001.362275-.812276.812276-.812276h19.632716c.448377 0 .812276.362275.812276.812276v19.632716c0 .450001-.363899.812276-.812276.812276z" fill="#c9d5ff"/><path d="m191.944115 41.4309599h18.009788v-18.0097879h-18.009788zm18.822065 1.6245524h-19.634341c-.448376 0-.812276-.3622752-.812276-.8122762v-19.6327158c0-.450001.3639-.8122762.812276-.8122762h19.634341c.448376 0 .812276.3622752.812276.8122762v19.6327158c0 .450001-.3639.8122762-.812276.8122762z" fill="#c9d5ff"/><path d="m211.578456 41.4309599h18.008163v-18.0097879h-18.008163zm18.820439 1.6245524h-19.632715c-.448377 0-.812277-.3622752-.812277-.8122762v-19.6327158c0-.450001.3639-.8122762.812277-.8122762h19.632715c.450001 0 .812277.3622752.812277.8122762v19.6327158c0 .450001-.362276.8122762-.812277.8122762z" fill="#c9d5ff"/><path d="m231.211172 41.4309599h18.009787v-18.0097879h-18.009787zm18.822064 1.6245524h-19.634341c-.448376 0-.812276-.3622752-.812276-.8122762v-19.6327158c0-.450001.3639-.8122762.812276-.8122762h19.634341c.450001 0 .812276.3622752.812276.8122762v19.6327158c0 .450001-.362275.8122762-.812276.8122762z" fill="#c9d5ff"/><path d="m250.845512 41.4309599h18.009788v-18.0097879h-18.009788zm18.822064 1.6245524h-19.63434c-.448377 0-.812277-.3622752-.812277-.8122762v-19.6327158c0-.450001.3639-.8122762.812277-.8122762h19.63434c.450001 0 .812276.3622752.812276.8122762v19.6327158c0 .450001-.362275.8122762-.812276.8122762z" fill="#c9d5ff"/><path d="m270.479852 41.4309599h18.009788v-18.0097879h-18.009788zm18.822064 1.6245524h-19.63434c-.448376 0-.812276-.3622752-.812276-.8122762v-19.6327158c0-.450001.3639-.8122762.812276-.8122762h19.63434c.450001 0 .812276.3622752.812276.8122762v19.6327158c0 .450001-.362275.8122762-.812276.8122762z" fill="#c9d5ff"/><path d="m290.114192 41.4309599h18.008164v-18.0097879h-18.008164zm18.82044 1.6245524h-19.632716c-.448376 0-.812276-.3622752-.812276-.8122762v-19.6327158c0-.450001.3639-.8122762.812276-.8122762h19.632716c.450001 0 .812276.3622752.812276.8122762v19.6327158c0 .450001-.362275.8122762-.812276.8122762z" fill="#c9d5ff"/><path d="m191.944115 61.0653002h18.009788v-18.0097879h-18.009788zm18.822065 1.6245524h-19.634341c-.448376 0-.812276-.3622751-.812276-.8122762v-19.6343403c0-.4483765.3639-.8122762.812276-.8122762h19.634341c.448376 0 .812276.3638997.812276.8122762v19.6343403c0 .4500011-.3639.8122762-.812276.8122762z" fill="#c9d5ff"/><path d="m211.578456 61.0653002h18.008163v-18.0097879h-18.008163zm18.820439 1.6245524h-19.632715c-.448377 0-.812277-.3622751-.812277-.8122762v-19.6343403c0-.4483765.3639-.8122762.812277-.8122762h19.632715c.450001 0 .812277.3638997.812277.8122762v19.6343403c0 .4500011-.362276.8122762-.812277.8122762z" fill="#c9d5ff"/><path d="m231.211172 61.0653002h18.009787v-18.0097879h-18.009787zm18.822064 1.6245524h-19.634341c-.448376 0-.812276-.3622751-.812276-.8122762v-19.6343403c0-.4483765.3639-.8122762.812276-.8122762h19.634341c.450001 0 .812276.3638997.812276.8122762v19.6343403c0 .4500011-.362275.8122762-.812276.8122762z" fill="#c9d5ff"/><path d="m250.845512 61.0653002h18.009788v-18.0097879h-18.009788zm18.822064 1.6245524h-19.63434c-.448377 0-.812277-.3622751-.812277-.8122762v-19.6343403c0-.4483765.3639-.8122762.812277-.8122762h19.63434c.450001 0 .812276.3638997.812276.8122762v19.6343403c0 .4500011-.362275.8122762-.812276.8122762z" fill="#c9d5ff"/><path d="m270.479852 61.0653002h18.009788v-18.0097879h-18.009788zm18.822064 1.6245524h-19.63434c-.448376 0-.812276-.3622751-.812276-.8122762v-19.6343403c0-.4483765.3639-.8122762.812276-.8122762h19.63434c.450001 0 .812276.3638997.812276.8122762v19.6343403c0 .4500011-.362275.8122762-.812276.8122762z" fill="#c9d5ff"/><path d="m290.114192 61.0653002h18.008164v-18.0097879h-18.008164zm18.82044 1.6245524h-19.632716c-.448376 0-.812276-.3622751-.812276-.8122762v-19.6343403c0-.4483765.3639-.8122762.812276-.8122762h19.632716c.450001 0 .812276.3638997.812276.8122762v19.6343403c0 .4500011-.362275.8122762-.812276.8122762z" fill="#c9d5ff"/><path d="m191.944115 80.6996406h18.009788v-18.0081634h-18.009788zm18.822065 1.6245524h-19.634341c-.448376 0-.812276-.3638998-.812276-.8122762v-19.6343404c0-.4483764.3639-.8122762.812276-.8122762h19.634341c.448376 0 .812276.3638998.812276.8122762v19.6343404c0 .4483764-.3639.8122762-.812276.8122762z" fill="#c9d5ff"/><path d="m211.578456 80.6996406h18.008163v-18.0081634h-18.008163zm18.820439 1.6245524h-19.632715c-.448377 0-.812277-.3638998-.812277-.8122762v-19.6343404c0-.4483764.3639-.8122762.812277-.8122762h19.632715c.450001 0 .812277.3638998.812277.8122762v19.6343404c0 .4483764-.362276.8122762-.812277.8122762z" fill="#c9d5ff"/><path d="m231.211172 80.6996406h18.009787v-18.0081634h-18.009787zm18.822064 1.6245524h-19.634341c-.448376 0-.812276-.3638998-.812276-.8122762v-19.6343404c0-.4483764.3639-.8122762.812276-.8122762h19.634341c.450001 0 .812276.3638998.812276.8122762v19.6343404c0 .4483764-.362275.8122762-.812276.8122762z" fill="#c9d5ff"/><path d="m250.845512 80.6996406h18.009788v-18.0081634h-18.009788zm18.822064 1.6245524h-19.63434c-.448377 0-.812277-.3638998-.812277-.8122762v-19.6343404c0-.4483764.3639-.8122762.812277-.8122762h19.63434c.450001 0 .812276.3638998.812276.8122762v19.6343404c0 .4483764-.362275.8122762-.812276.8122762z" fill="#c9d5ff"/><path d="m270.479852 80.6996406h18.009788v-18.0081634h-18.009788zm18.822064 1.6245524h-19.63434c-.448376 0-.812276-.3638998-.812276-.8122762v-19.6343404c0-.4483764.3639-.8122762.812276-.8122762h19.63434c.450001 0 .812276.3638998.812276.8122762v19.6343404c0 .4483764-.362275.8122762-.812276.8122762z" fill="#c9d5ff"/><path d="m290.114192 80.6996406h18.008164v-18.0081634h-18.008164zm18.82044 1.6245524h-19.632716c-.448376 0-.812276-.3638998-.812276-.8122762v-19.6343404c0-.4483764.3639-.8122762.812276-.8122762h19.632716c.450001 0 .812276.3638998.812276.8122762v19.6343404c0 .4483764-.362275.8122762-.812276.8122762z" fill="#c9d5ff"/><path d="m191.944115 100.333981h18.009788v-18.009788h-18.009788zm18.822065 1.624552h-19.634341c-.448376 0-.812276-.363899-.812276-.812276v-19.6343402c0-.4483765.3639-.8122762.812276-.8122762h19.634341c.448376 0 .812276.3638997.812276.8122762v19.6343402c0 .448377-.3639.812276-.812276.812276z" fill="#c9d5ff"/><path d="m211.578456 100.333981h18.008163v-18.009788h-18.008163zm18.820439 1.624552h-19.632715c-.448377 0-.812277-.363899-.812277-.812276v-19.6343402c0-.4483765.3639-.8122762.812277-.8122762h19.632715c.450001 0 .812277.3638997.812277.8122762v19.6343402c0 .448377-.362276.812276-.812277.812276z" fill="#c9d5ff"/><path d="m231.211172 100.333981h18.009787v-18.009788h-18.009787zm18.822064 1.624552h-19.634341c-.448376 0-.812276-.363899-.812276-.812276v-19.6343402c0-.4483765.3639-.8122762.812276-.8122762h19.634341c.450001 0 .812276.3638997.812276.8122762v19.6343402c0 .448377-.362275.812276-.812276.812276z" fill="#c9d5ff"/><path d="m250.845512 100.333981h18.009788v-18.009788h-18.009788zm18.822064 1.624552h-19.63434c-.448377 0-.812277-.363899-.812277-.812276v-19.6343402c0-.4483765.3639-.8122762.812277-.8122762h19.63434c.450001 0 .812276.3638997.812276.8122762v19.6343402c0 .448377-.362275.812276-.812276.812276z" fill="#c9d5ff"/><path d="m270.479852 100.333981h18.009788v-18.009788h-18.009788zm18.822064 1.624552h-19.63434c-.448376 0-.812276-.363899-.812276-.812276v-19.6343402c0-.4483765.3639-.8122762.812276-.8122762h19.63434c.450001 0 .812276.3638997.812276.8122762v19.6343402c0 .448377-.362275.812276-.812276.812276z" fill="#c9d5ff"/><path d="m290.114192 100.333981h18.008164v-18.009788h-18.008164zm18.82044 1.624552h-19.632716c-.448376 0-.812276-.363899-.812276-.812276v-19.6343402c0-.4483765.3639-.8122762.812276-.8122762h19.632716c.450001 0 .812276.3638997.812276.8122762v19.6343402c0 .448377-.362275.812276-.812276.812276z" fill="#c9d5ff"/><path d="m191.944115 119.945577h18.009788v-18.009787h-18.009788zm18.822065 1.624553h-19.634341c-.448376 0-.812276-.3639-.812276-.812276v-19.634341c0-.450001.3639-.812276.812276-.812276h19.634341c.448376 0 .812276.362275.812276.812276v19.634341c0 .448376-.3639.812276-.812276.812276z" fill="#c9d5ff"/><path d="m211.578456 119.945577h18.008163v-18.009787h-18.008163zm18.820439 1.624553h-19.632715c-.448377 0-.812277-.3639-.812277-.812276v-19.634341c0-.450001.3639-.812276.812277-.812276h19.632715c.450001 0 .812277.362275.812277.812276v19.634341c0 .448376-.362276.812276-.812277.812276z" fill="#c9d5ff"/><path d="m231.211172 119.945577h18.009787v-18.009787h-18.009787zm18.822064 1.624553h-19.634341c-.448376 0-.812276-.3639-.812276-.812276v-19.634341c0-.450001.3639-.812276.812276-.812276h19.634341c.450001 0 .812276.362275.812276.812276v19.634341c0 .448376-.362275.812276-.812276.812276z" fill="#c9d5ff"/><path d="m239.793682 36.9439462h-55.980451c-1.733398 0-3.137011-1.4052379-3.137011-3.1370107 0-1.7333974 1.403613-3.1386353 3.137011-3.1386353h55.980451c1.731773 0 3.137011 1.4052379 3.137011 3.1386353 0 1.7317728-1.405238 3.1370107-3.137011 3.1370107" fill="#c9d5ff"/><path d="m296.620525 75.7902432h-33.631484c-1.731773 0-3.138635-1.4052378-3.138635-3.1386352s1.406862-3.1370107 3.138635-3.1370107h33.631484c1.733397 0 3.138635 1.4036133 3.138635 3.1370107s-1.405238 3.1386352-3.138635 3.1386352" fill="#c9d5ff"/><path d="m217.764751 94.5521989h-33.631484c-1.733397 0-3.138635-1.4052378-3.138635-3.1386352 0-1.7333975 1.405238-3.1370107 3.138635-3.1370107h33.631484c1.733398 0 3.138636 1.4036132 3.138636 3.1370107 0 1.7333974-1.405238 3.1386352-3.138636 3.1386352" fill="#c9d5ff"/><path d="m203.662012 111.75296c0 1.497837-1.213541 2.714627-2.713003 2.714627s-2.714627-1.21679-2.714627-2.714627c0-1.499462 1.215165-2.714627 2.714627-2.714627s2.713003 1.215165 2.713003 2.714627" fill="#c9d5ff"/><path d="m306.661883 252.185768c-.045487 0-.087726-.00325-.131588-.009748-.443503-.07148-.744045-.48899-.670941-.932493l14.692452-90.69876c.071481-.445128.49224-.74567.930869-.672565.441878.073105.744045.48899.67094.932493l-14.692452 90.700385c-.063357.398015-.409387.680688-.79928.680688" fill="#ff6652"/><path d="m364.240894 247.60453c0 2.082676-1.68791 3.768961-3.770586 3.768961-2.081052 0-3.768962-1.686285-3.768962-3.768961s1.68791-3.770586 3.768962-3.770586c2.082676 0 3.770586 1.68791 3.770586 3.770586" fill="#ff6652"/><path d="m390.09727 244.64622h-30.911983c-.448376 0-.812276-.362275-.812276-.812276 0-.448377.3639-.812277.812276-.812277h30.911983c.450001 0 .812276.3639.812276.812277 0 .450001-.362275.812276-.812276.812276" fill="#ff6652"/><path d="m362.473381 247.242255-.757041-4.324559h-7.396587v4.324559l2.872208 1.658668h2.548923z" fill="#ffcec8"/><path d="m362.473381 247.242255.68881 3.409935-21.418099-.027617v-.282672c0-.737547.467871-1.395491 1.164804-1.637549l11.410857-3.934666 1.739895 2.038813s2.691883 1.955961 6.413733.433756" fill="#426bff"/><path d="m341.744092 250.624573v1.259028l21.695898-.022744-.277799-1.208667z" fill="#426bff"/><path d="m299.289664 247.60453 2.706505-3.288094-5.715176-5.357774-1.182674 1.263902-1.692783 1.806502.96011 3.174375 1.860113 1.741521z" fill="#ffcec8"/><path d="m299.289664 247.60453-2.12004 2.524554-15.254547-14.234328.194946-.206318c.505236-.539351 1.296393-.698558 1.968957-.396391l11.019339 4.930517-.126715 2.678887s.560471 3.268599 4.31806 4.703079" fill="#426bff"/><path d="m281.915077 235.894756-.861013.919497 15.251298 14.26357.864262-.948739z" fill="#426bff"/><path d="m349.311257 90.8189775.539352 9.0958689c.12834 2.1817736 2.040438 3.8160736 4.215713 3.5886366.147835-.014621.303792-.034116.464622-.05686l.588088 5.55597s.758666 3.872932 6.568066 3.115891c5.807775-.758666 4.883404-4.462645 4.883404-4.462645l-1.263902-10.4393742s2.831595.1640798 3.11427-2.8624613c0 0 .021117-2.6090312-3.452176-1.3467539l-.630327-5.114091s-12.107789-4.511382-15.02711 2.9258189" fill="#ffcec8"/><path d="m364.338367 87.8931586s-8.208863 5.8516378-15.02711 2.9258189c0 0-2.777984-1.5368266-1.957585-6.3357544 0 0 1.364624-4.9873759 8.415181-4.293692 0 0 4.212465.5052358 5.411384 1.9575857 0 0 .443503-2.0843008 3.980154-1.3906169 0 0 1.767513.1900726 2.334482 4.3586741.568593 4.1669769.568593 8.1812459.568593 8.1812459s-1.330509-1.0218435-3.094772-.2891703z" fill="#384b61"/><path d="m404.866076 175.995884 16.364116-55.132434h-51.123039l10.837389 55.132434z" fill="#fda74c"/><path d="m381.232088 173.339741-78.992236 71.623267-8.216986-7.721498 43.04414-55.047958 18.259969-9.066627z" fill="#293545"/><path d="m390.42543 159.826714.737546 8.126012c.393142 4.319684-3.008671 8.043158-7.344601 8.043158h-29.263062l9.27132 66.921812h-13.930537l-17.884697-64.40538c-1.405238-5.101094-.708305-10.551468 1.938091-15.13433l2.048561-3.551272z" fill="#384b61"/><path d="m403.564809 180.086507h-48.351553l-.657943-4.090623h50.310763z" fill="#fda74c"/><path d="m410.655981 252.185768c-.389893 0-.735923-.282673-.79928-.680688l-14.830539-91.548401c-.073105-.441879.229062-.859389.67094-.930869.433756-.07148.862638.227437.932493.67094l14.830539 91.546777c.073105.443503-.229062.861013-.67094.932493-.045487.006498-.087726.009748-.133213.009748" fill="#ff6652"/><path d="m354.901342 107.511253-9.191717.986104c-3.440802.368773-6.639546 1.947838-9.022764 4.457772-2.2695 2.389716-3.66499 5.476366-3.954161 8.759586l-.938991 10.590457-1.769138 25.003486h59.984973l-1.012096-9.407783 6.670412-1.645671c3.01192-.87076 5.115716-1.838994 5.789905-4.9029.357402-1.618054.237185-3.307588-.347654-4.859036l-7.940812-21.070444c-1.14531-3.037913-3.307589-5.586836-6.119689-7.209764-2.311738-1.333757-4.954885-1.981954-7.620776-1.868235l-13.032159.555597s.0926 3.604881-5.733045 3.801452c0 0-4.625101.177077-5.762288-3.190621" fill="#ff6652"/><path d="m420.957268 161.144226h-124.182411c-1.803253 0-3.26535-1.460472-3.26535-3.263725v-.222564c0-1.803253 1.462097-3.26535 3.26535-3.26535h124.182411c1.804877 0 3.26535 1.462097 3.26535 3.26535v.222564c0 1.803253-1.460473 3.263725-3.26535 3.263725" fill="#426bff"/><path d="m344.882728 132.306797c-.269676 0-.487366-.21769-.487366-.485741v-11.513203c0-.269676.21769-.487366.487366-.487366.269675 0 .487365.21769.487365.487366v11.513203c0 .268051-.21769.485741-.487365.485741" fill="#ff361c"/><path d="m354.530944 103.446623s5.049109-.37852 7.523303-3.270224c0 0-1.837369 4.06463-7.355974 4.854163z" fill="#ff9b8f"/><path d="m363.4936 147.95611-2.485565 2.202893-7.087922.791157 1.085201 1.804878h10.575836l-.750543-.549099z" fill="#ffcec8"/><path d="m364.830607 152.693305c-.207943 0-.39964-.134838-.464622-.341156l-1.674914-5.323658c-.074729-.233936.038989-.487366.263178-.588088l21.392106-9.740817-6.49821-17.931809c-.090975-.251806.040614-.531229.292419-.623828.25668-.089351.532854.038989.625453.292419l6.649293 18.354193c.086101.23881-.024368.503612-.256679.609208l-21.408352 9.748938 1.418234 4.501635 23.744458-4.230334c.259929-.042239.518233.129964.56372.394766.048737.264802-.12834.518232-.393142.565344l-24.166841 4.305064c-.027618.004874-.056859.008123-.086101.008123" fill="#ff361c"/><path d="m374.642903 244.093872c-.450001 0-.812276-.3639-.812276-.812276v-63.195089c0-.450001.362275-.812276.812276-.812276.448377 0 .812276.362275.812276.812276v63.195089c0 .448376-.363899.812276-.812276.812276" fill="#ff6652"/><path d="m393.760636 247.60453c0 2.082676-1.68791 3.768961-3.770586 3.768961-2.081052 0-3.770587-1.686285-3.770587-3.768961s1.689535-3.770586 3.770587-3.770586c2.082676 0 3.770586 1.68791 3.770586 3.770586" fill="#ff6652"/><path d="m368.299026 154.818219h-14.378913v-2.742244h11.638293c1.512458 0 2.74062 1.228162 2.74062 2.742244" fill="#293545"/><path d="m355.658384 154.818219h-41.489444l-6.594058-20.791021c-.586464-1.853615.797655-3.742969 2.74062-3.742969h35.460729c1.250906 0 2.360475.810652 2.738996 2.004698z" fill="#293545"/><path d="m329.6493 144.359351c-.932493.6352-2.316612.230686-3.089899-.9065-.774911-1.135562-.646572-2.571667.287546-3.206867.932493-.6352 2.314987-.230686 3.089899.904876.774911 1.137187.644947 2.571666-.287546 3.208491" fill="#44576e"/><path d="m227.947446 31.8217324.298917 8.9691539 6.274022 7.302363.084476 2.5814138 6.243155 3.5398997 5.820772-5.0393616-1.059209-9.4857615s1.510834-.4678711 1.660293-2.2093912c.05361-.6319509-.170578-1.2882701-.690435-1.6554189-.558846-.3963908-1.492963-.5214814-2.852714.9292439l-.30704-7.7507395-15.158699.5068604z" fill="#ffcec8"/><path d="m243.726723 36.7538735s2.092424 10.6261973-12.538295 11.8494853c-.393142.0341156-.794406.0373647-1.190797.0227437-.94549-.0536102-1.68791-.8333954-1.697657-1.7805094l-.053611-6.0547068s1.795131-1.5676931 3.437553-.261553c1.640798 1.3077647 4.01102 1.981954 6.89785-.2777984 0 0 2.623652-1.5904368 2.474193-4.6380971-.063357-1.3240103-.177076-2.5472982-.519857-3.4862895-.558846-1.5319529-2.50181-1.9965749-3.783582-.990977-1.471845 1.1534322-4.667339 2.8949524-8.805074.6855611 0 0-2.618779-1.4620971-1.479968-3.9444132 1.138812-2.4806915 3.786832-3.1808736 6.870233-2.4368286 3.081776.7424205 4.980877 2.7926056 8.948034 1.9559611 0 0 2.457948-.8285217 3.10452-1.9348419l.337907 10.1144633s-1.003974.0373647-2.001449 1.1778004" fill="#384b61"/><path d="m256.341373 224.521265 1.47022 21.770626h8.424928v-22.607271z" fill="#ffcec8"/><path d="m257.811593 246.291891v5.0816h18.887046s.833395-2.024192-1.10957-2.725999c-1.944589-.703431-7.870956-1.736646-9.352548-3.803077 0 0-.878883 1.611556-2.777984 1.116068-1.897478-.497113-3.471669-2.314987-5.646944.331408" fill="#2e3e52"/><path d="m233.732477 224.503395-1.343505 21.788496h-8.426553l-.54585-22.607271z" fill="#ffcec8"/><path d="m232.388972 246.291891v5.0816h-18.888671s-.83502-2.024192 1.111194-2.725999c1.942965-.703431 7.869332-1.736646 9.350924-3.803077 0 0 .880507 1.611556 2.777984 1.116068 1.897478-.497113 3.471669-2.314987 5.648569.331408" fill="#2e3e52"/><path d="m236.966961 240.690435-16.7865-1.221664v-4.954884l16.7865.838269z" fill="#2e3e52"/><path d="m254.216458 240.690435 15.160323-1.221664v-4.954884l-15.160323.838269z" fill="#2e3e52"/><path d="m238.316964 183.411966 4.574739-47.776461 3.806327.34278 4.322933 47.433681h17.152025l-1.32401-71.694746h-42.672118l-1.876358 71.694746z" fill="#2e3e52"/><path d="m251.020963 183.411966 5.32041 53.217088 11.825117-.968233v-52.654993z" fill="#2e3e52"/><path d="m222.300502 182.286151.553972 52.702105 12.161399.737547 3.301091-53.439652z" fill="#2e3e52"/><path d="m201.533848 124.629162-.729424 1.736647-2.342604 3.648744-2.079427.56372c-.264802.069856-.493864.222564-.657944.432131l-1.868235 2.386467c-.229062.194947-.203069.537727-.011372.696933.162455.133214.438629.129965.615705-.042238.225813-.196571.450001-.394766.674189-.592962l-1.320761 2.50506c-.061733.120217-.03574.2713.064982.370398.0926.0926.232311.125091.352528.081228-.173827.354152-.347654.70668-.521481 1.062457-.061733.191697.021119.409387.194946.521481.159206.103972.367149.102347.516608-.008122.838269-.956862 1.673289-1.915348 2.509933-2.873834l1.619679-.622203-1.61643 1.533577-1.980329 2.563544c-.063358.112094-.058484.250181.012996.355777.090975.133213.276174.193322.437005.133213 2.035564-1.387368 4.071128-2.773111 6.106692-4.158854l2.020944-1.518956.285921.311914-.396391 1.575815c-.129964.514984-.126715 1.060833.009747 1.588813.160831.628702.779786 1.055959 1.421484.984478l.086101-2.207766s.683937-2.493688.709929-2.581414c.027618-.08935 1.025093-3.931417 1.025093-3.931417l1.090075-2.52293z" fill="#ffcec8"/><path d="m220.419017 68.9508776c.076607 14.3772888.425886 36.1073014 1.777513 46.4475774 0 0 44.548476 2.477443 47.339457-2.836468 0 0-2.622027-12.458693-3.362823-29.6334605-.469496-10.8406382-3.455423-19.6278422-5.593334-24.6363372-1.213541-2.8380931-3.642247-4.8769063-6.514455-5.5137309l-6.649293-1.473469c-.307041 1.4507253-1.465347 2.5570455-2.864086 2.6333995-3.973655.2193145-10.556342-2.3864675-10.556342-2.3864675l-.895128.2274373c-7.471317 1.9039754-12.723494 9.0146413-12.681509 17.1715189" fill="#426bff"/><path d="m209.918163 94.787759 12.382339 9.953633c-4.204342 8.134133-13.602378 26.519193-13.602378 26.519193l-9.627097-5.15308z" fill="#ff6652"/><path d="m240.521481 145.106645-6.525827-93.5547236-3.517156.8951283c-4.3538 1.1095693-7.914819 4.4269053-9.518252 8.8684316l-11.336127 34.1757089 8.025289 8.1731228.810652 44.956239 17.488306 1.388992c2.620403.207943 4.795679-2.121665 4.573115-4.902899" fill="#ff6652"/><path d="m247.416082 51.3049894 12.081796 94.0388406c.700182 2.859212 3.747842 4.254702 6.18792 2.82997l13.889923-8.109766-12.177645-51.9076979-8.915543-35.4168669c-1.423108-.8366445-11.066451-1.4344798-11.066451-1.4344798" fill="#ff6652"/><path d="m219.96602 105.703127c-.006498 0-.012997 0-.019495 0-.357401-.011372-.640073-.31029-.630326-.669316l.955237-32.8955616c.011371-.3590261.302166-.6335754.669315-.6303549.357402.0097759.640074.3103181.630327.6677196l-.955237 32.8955619c-.009748.352528-.298918.631951-.649821.631951" fill="#e34934"/><path d="m223.790216 94.5911882 12.141905-1.8633616c.792781-.1202169 1.337006-.8626374 1.215165-1.6554189l-3.08665-20.1282043c-.121841-.7927816-.862637-1.3370066-1.655418-1.2151652l-12.141905 1.861737c-.792782.1218415-1.338631.8642619-1.215165 1.6570435l3.086649 20.1282043c.120217.791157.862638 1.335382 1.655419 1.2151652" fill="#2e3e52"/><path d="m240.552348 84.1680599s-.285921-1.676538-1.822748-2.2743733l-3.364448-2.2028931.303791 1.9770803s-4.215713-1.9283437-6.675286-.7716624c-2.461196 1.1550568.022744 5.6436951 2.916072 6.2512777l4.24658 1.6229278 7.788104.9666087z" fill="#ffcec8"/><path d="m240.138087 81.2341183 25.045724 4.3911652c-5.101094-12.3482229-7.2585-24.5014994-8.247852-29.6854461-.196571-1.0299662 1.527079-2.1736511 1.546574-3.2003682l1.790256.2664266c3.385568.5019867 6.308137 2.6366485 7.820596 5.7070526l14.075122 28.6132414c.974731 3.5675171-.271301 7.2487528-3.184123 9.3915375-2.339355 1.7220255-5.378893 2.3458536-8.350199 1.7139027-10.83414-2.3036153-32.505669-6.9075968-32.505669-6.9075968z" fill="#ff6652"/><path d="m266.987065 87.1718573c-.040614 0-.082853-.0048736-.125091-.0129964l-14.744438-2.8803314c-.352528-.0698557-.581589-.4110117-.513358-.7635396.068231-.3509033.404513-.5783407.763539-.5133586l13.587757 2.6561432-9.495509-24.5632323c-.129964-.3346578.037365-.711554.372022-.8415182.337907-.1332133.70993.0373647.841519.3720225l9.919517 25.6630543c.086101.2209392.043862.4694957-.107221.6514455-.126715.1478343-.308665.232311-.498737.232311" fill="#e34934"/><path d="m268.172988 98.5583451c-.043863 0-.087726-.0032491-.134838-.0146209l-13.808696-2.9339417c-.349278-.0747294-.575091-.4207591-.500362-.7716624.07473-.3492787.415886-.5767161.770038-.5003621l13.808696 2.9355662c.350903.0747294.576716.4191345.501986.7700378-.064982.3054159-.334657.5149831-.636824.5149831" fill="#e34934"/><path d="m233.995654 51.5519214-.36065-2.1037954 13.063026-2.6756378.718052 4.5325012.571842 8.322582-7.450197.8577636-4.927268-1.4361043-1.218414-1.8276214z" fill="#426bff"/><g fill="#87a1ff"><path d="m28.4767791 187.130567c-.1754517-.147835-.3411561-.282672-.4987376-.406138.0048736.095848.0211191.194946.0877258.274549.1072205.12509.2599284.152708.4110118.131589"/><path d="m31.3229949 190.850792c.1640798.194946.4532501.219314.6481964.055234.0194946-.016245.0162455-.042238.0308665-.060108-.1819499-.232311-.3622752-.456499-.5426005-.67094-.0259929.014621-.0584839.004873-.0828522.025993-.1949463.164079-.2193146.454874-.0536102.649821"/><path d="m28.785444 189.089777c-.1949463.16408-.2193146.454874-.0552348.648196.1657044.194947.4564993.219315.649821.055235.1949463-.16408.2193146-.454875.0552348-.649821-.1640798-.193322-.4548747-.21769-.649821-.05361"/><path d="m34.6094644 194.718851c-.0194947-.032491-.0373647-.063358-.0568594-.095849.014621.025993.0064982.05686.0243683.079603.0081228.009748.0243683.008123.0324911.016246"/><path d="m32.041047 192.941591c-.1949463.164079-.21769.454874-.0536102.649821.1640798.193321.4548747.21769.649821.05361.1933217-.16408.21769-.454875.0536102-.649821-.1640798-.193322-.4548747-.21769-.649821-.05361"/><path d="m35.29665 196.793404c-.1933217.16408-.21769.454875-.0536102.648197.1640798.194946.4548747.219314.6481964.055235.0552348-.045488.0649821-.113719.090975-.175452-.0990977-.204694-.1981954-.411012-.2972931-.610832-.1348379-.027617-.2745494-.012996-.3882681.082852"/><path d="m26.1406727 188.626779c.1640798.194947.4548747.219315.6481964.055235.1949463-.16408.2193146-.456499.0552348-.649821-.1640798-.194946-.4548747-.219314-.649821-.05361-.0081227.004874-.0048736.016246-.0129964.024368-.0129964.207943-.0292419.415886-.0406138.623828"/><path d="m29.3962757 192.478593c.1640798.194946.4548747.219315.649821.055235.1933217-.16408.2193145-.456499.0536102-.649821-.1640798-.194946-.4548747-.219315-.649821-.055235-.1933217.165705-.21769.454875-.0536102.649821"/><path d="m27.5247913 193.458198c-.1949462.16408-.2193145.45325-.0552347.648197.1640798.194946.4564992.219314.6498209.055234.1949463-.164079.2193146-.456499.0552348-.649821-.1640798-.194946-.4548747-.219314-.649821-.05361"/><path d="m26.8587249 190.717578c-.1933218.16408-.2176901.454875-.0536103.649821.1640798.194947.4564993.21769.649821.053611.1949463-.16408.2193146-.454875.0536102-.649821-.1640798-.193322-.4548747-.219315-.6498209-.053611"/><path d="m32.7071135 195.680586c-.1949463.16408-.2193146.454875-.0552348.649821s.4548747.219314.649821.05361c.1933217-.16408.2193146-.45325.0536102-.649821-.1640798-.193322-.4548747-.21769-.6481964-.05361"/><path d="m30.7803944 197.308387c-.1949463.16408-.2193146.454875-.0552348.649821.1657043.194947.4564992.219315.6498209.055235.1949463-.165704.2193146-.456499.0552348-.649821-.1640798-.194946-.4548747-.219314-.6498209-.055235"/><path d="m30.1159524 194.569392c-.1949463.16408-.2193145.454875-.0552348.649821.1640798.193322.4548747.21769.649821.05361s.2193146-.454874.0552348-.649821c-.1657044-.193321-.4564992-.21769-.649821-.05361"/><path d="m28.1892333 196.197194c-.1933218.164079-.21769.454874-.0536103.648196.1640798.194946.4548747.219315.6481965.055235.1949462-.16408.2193145-.454875.0552347-.649821-.1640798-.193322-.4548746-.21769-.6498209-.05361"/><path d="m35.961092 199.5324c-.1933218.164079-.2176901.454874-.0536103.649821.1640798.193321.4564993.21769.649821.05361.1949463-.16408.2193146-.454875.0536102-.648197-.1640798-.194946-.4532501-.219314-.6498209-.055234"/><path d="m34.0359974 201.160201c-.1933218.16408-.21769.454875-.0536103.649821.1640798.194946.4548747.21769.649821.05361.1933217-.164079.21769-.454874.0536102-.649821-.1640798-.193321-.4548746-.21769-.6498209-.05361"/><path d="m33.3715554 198.421206c-.1949462.16408-.2193145.454874-.0536102.649821.1640798.193322.4548747.21769.6481964.05361.1949463-.16408.2193146-.454875.0552348-.649821s-.4564992-.21769-.649821-.05361"/><path d="m31.4448363 200.049007c-.1933217.16408-.21769.454875-.0536102.649821.1640798.193322.4548746.21769.6498209.053611.1949463-.16408.2193146-.454875.0552348-.649821-.1657043-.193322-.4564992-.21769-.6514455-.053611"/><path d="m37.2916004 205.012015c-.1933217.16408-.21769.454875-.0536102.649821.1640798.193322.4548746.219314.6498209.05361.1949463-.16408.21769-.454875.0536102-.648196-.1640797-.194947-.4548746-.219315-.6498209-.055235"/><path d="m36.6271585 202.271395c-.1949463.16408-.2193146.456499-.0552348.649821.1657043.194946.4564992.219315.6498209.055235.1949463-.16408.2193146-.454875.0552348-.649821-.1657043-.194946-.4548747-.219315-.6498209-.055235"/><path d="m34.7020639 203.900821c-.1949463.16408-.2193146.454875-.0552348.648196.1640798.194947.4548746.219315.6498209.055235.1933218-.16408.2193146-.454874.0536103-.649821-.1640798-.194946-.4548747-.219314-.6481964-.05361"/><path d="m37.9560423 207.75101c-.1933217.16408-.21769.456499-.0536102.649821.1640798.194947.4564992.219315.649821.055235.1949462-.165704.2193145-.454875.0536102-.649821-.1640798-.194946-.4532501-.219315-.649821-.055235"/><path d="m25.9782175 194.999898c.0032491.285922.0016245.573467.0081227.85614.0714803-.016246.1478343-.016246.2079427-.066607.1933218-.16408.2193146-.456499.0536103-.649821-.0698558-.084477-.1689535-.120217-.2696757-.139712"/><path d="m28.8536752 198.936189c-.1933217.165704-.21769.454875-.0536102.649821s.4564992.219314.6498209.055235c.1949463-.16408.2193146-.4565.0536103-.649821-.1640798-.194947-.4548747-.219315-.649821-.055235"/><path d="m26.9285806 200.565615c-.1949463.16408-.21769.45325-.0536102.648196.1640798.194947.4548747.219315.6498209.055235.1933218-.16408.2176901-.456499.0536103-.649821-.1640798-.194946-.4548747-.219314-.649821-.05361"/><path d="m26.2641387 197.824995c-.1949463.16408-.2193146.454875-.0536102.649821.1640797.194946.4532501.21769.6481964.05361.1949462-.16408.2193145-.454874.0552347-.649821-.1640797-.193321-.4564992-.219314-.6498209-.05361"/><path d="m32.1109028 202.788003c-.1949463.164079-.2193146.454874-.0552348.649821.1657043.194946.4548747.219314.649821.05361.1949462-.16408.2193145-.45325.0552347-.649821-.1640798-.193322-.4564992-.21769-.6498209-.05361"/><path d="m30.8340046 204.471039c-.1640798-.194946-.4548747-.219315-.649821-.055235-.1933217.16408-.21769.454875-.0536102.649821s.4548747.219315.649821.055235c.1949462-.165704.21769-.456499.0536102-.649821"/><path d="m29.5197417 201.676809c-.1949463.16408-.2193146.454875-.0552348.649821.1657044.193322.4564992.21769.649821.05361.1949463-.16408.2193145-.454875.0552348-.649821-.1657044-.193322-.4548747-.21769-.649821-.05361"/><path d="m27.5946471 203.30461c-.1949463.16408-.2193146.454875-.0552348.648197.1640798.194946.4548747.219314.649821.055235.1933217-.16408.2193146-.454875.0536102-.649821-.1640798-.193322-.4548747-.21769-.6481964-.053611"/><path d="m35.3665058 206.639816c-.1949463.16408-.2193146.454875-.0536102.649821.1640798.193322.4548746.21769.6481964.053611.1949463-.16408.2193145-.454875.0552348-.648197-.1640798-.194946-.4564993-.219314-.649821-.055235"/><path d="m34.0359974 208.971049c.1949463-.16408.2193145-.454875.0552348-.649821-.1657044-.193322-.4564993-.21769-.649821-.05361-.1949463.16408-.2193146.454875-.0552348.649821s.4548747.21769.649821.05361"/><path d="m32.7217345 206.178444c.1640798.193321.4548747.21769.6498209.05361.1933218-.16408.2176901-.454875.0536103-.649821s-.4548747-.21769-.649821-.05361c-.1949463.164079-.2193146.454874-.0536102.649821"/><path d="m31.4448363 207.859855c.1949463-.16408.2193146-.454874.0536102-.649821-.1640798-.193321-.4532501-.21769-.6498209-.05361-.1933218.16408-.2176901.454875-.0536103.649821.1640798.193322.4564993.21769.649821.05361"/><path d="m38.566874 211.141451c.1657044.193322.4564992.219315.649821.055235.1949463-.165704.2193146-.456499.0552348-.649821-.1640798-.194946-.4548747-.219315-.649821-.055235-.1933217.16408-.2193146.454875-.0552348.649821"/><path d="m37.2916004 212.822863c.1949463-.16408.2193146-.454875.0552348-.648197-.1657044-.194946-.4564993-.219314-.649821-.055234-.1949463.164079-.2193146.454874-.0552348.649821.1640798.193321.4548747.219314.649821.05361"/><path d="m36.6807687 209.434047c-.1640798-.194947-.4548747-.219315-.649821-.055235-.1933217.16408-.21769.456499-.0536102.649821.1640798.194946.4548747.219314.649821.055235.1933217-.16408.21769-.454875.0536102-.649821"/><path d="m34.7004393 211.711669c.1949463-.16408.2193146-.454875.0552348-.649821s-.4548747-.219315-.649821-.05361c-.1949463.16408-.2193145.454875-.0552348.648196.1640798.194947.4548747.219315.649821.055235"/><path d="m40.5472034 216.674677c.1949463-.16408.2193146-.454875.0552348-.649821-.1657044-.193322-.4548747-.219315-.649821-.053611-.1949463.16408-.2193146.454875-.0552348.649821.1640798.193322.4564993.21769.649821.053611"/><path d="m39.8827615 213.935681c.1949463-.165704.21769-.454874.0536102-.649821-.1640798-.194946-.4548747-.219314-.649821-.055234-.1933217.165704-.21769.456499-.0536102.64982.1640798.194947.4548747.219315.649821.055235"/><path d="m37.9560423 215.563483c.1949463-.165705.2193146-.454875.0552348-.649821s-.4548747-.219315-.649821-.055235c-.1949462.16408-.21769.456499-.0536102.649821.1640798.194946.4548747.219315.6481964.055235"/><path d="m40.6170592 218.710241c-.1933218.165704-.2193146.456499-.0552348.649821.1657043.194946.4564992.219314.6498209.055235.0536103-.045488.061733-.112095.0893504-.170578-.0129964-.162456-.0259928-.321662-.0373647-.480868-.1640798-.191697-.4532501-.216065-.6465718-.05361"/><path d="m28.259089 206.043606c-.1949463.165704-.2193145.454874-.0536102.649821.1640798.194946.4548747.219314.6481964.055234.1949463-.164079.2193146-.456499.0552348-.649821-.1640798-.194946-.4564992-.219314-.649821-.055234"/><path d="m27.0812885 208.033682c.0016246.012997.0032491.022744.0064983.035741 0-.012997-.0064983-.022744-.0064983-.035741"/><path d="m32.1092782 210.598851c.1949463-.16408.2193146-.45325.0552348-.649821-.1640798-.193322-.4548747-.21769-.649821-.053611-.1933217.16408-.2193145.454875-.0552347.649821.1657043.194947.4564992.219315.6498209.053611"/><path d="m30.1841836 212.228277c.1949463-.165705.2193146-.4565.0552348-.649821-.1657043-.194947-.4564992-.219315-.649821-.055235-.1949462.16408-.2193145.454875-.0552347.649821s.4548746.219314.6498209.055235"/><path d="m28.923531 208.784226c-.1933218.164079-.2176901.454874-.0536103.649821.1640798.193321.4548747.21769.649821.05361.1933217-.16408.21769-.454875.0536102-.649821-.1640798-.193322-.4548746-.21769-.6498209-.05361"/><path d="m27.5036722 210.392532c.0422383.21769.0861012.432131.1299642.646572.1332133-.168953.1575815-.402889.0146209-.573467-.0373647-.043863-.0958486-.047112-.1445851-.073105"/><path d="m35.3665058 214.450664c.1933217-.164079.2193146-.454874.0536102-.648196-.1640798-.194946-.4548747-.219315-.6498209-.055235-.1949463.16408-.2193146.454875-.0536103.649821.1640798.193322.4548747.21769.649821.05361"/><path d="m33.4397866 216.078466c.1949463-.16408.2193146-.454875.0552348-.649821-.1657043-.193322-.4548746-.21769-.6498209-.05361-.1949463.164079-.2193146.454874-.0552348.649821.1640798.194946.4564992.21769.6498209.05361"/><path d="m32.7753447 213.339471c.1933217-.16408.21769-.454875.0536102-.649821-.1640798-.194947-.4548746-.21769-.6498209-.053611-.1933218.16408-.21769.454875-.0536103.649821.1640798.193322.4548747.21769.649821.053611"/><path d="m30.8486256 214.967272c.1949462-.16408.2193145-.454875.0552347-.649821-.1640797-.193322-.4564992-.21769-.6498209-.05361-.1949463.16408-.21769.454875-.0536102.649821.1640797.193322.4532501.21769.6481964.05361"/><path d="m38.6221088 218.304103c.1933217-.165705.21769-.4565.0536102-.649821-.1640798-.194947-.4548746-.219315-.6498209-.055235-.1933218.16408-.21769.454875-.0536103.649821.1640798.193322.4548747.219314.649821.055235"/><path d="m36.6953897 219.93028c.1949462-.16408.2193145-.454875.0552347-.648197-.1640798-.194946-.4548746-.219314-.6498209-.055235-.1949463.16408-.2193146.454875-.0552348.649821.1657043.193322.4548747.219315.649821.053611"/><path d="m36.0309477 217.191284c.1949463-.16408.2193146-.454874.0552348-.649821-.1657043-.194946-.4564992-.219314-.649821-.055234-.1949462.164079-.2193145.456499-.0552347.64982.1640798.194947.4548746.219315.6498209.055235"/><path d="m34.1594634 218.169265c-.1640798-.194946-.4548747-.219315-.649821-.05361-.1933217.164079-.2193146.454874-.0552348.648196.1657044.194946.4564992.219315.649821.055235.1949463-.16408.2193145-.454875.0552348-.649821"/><path d="m41.2278909 222.099057c.0633575.076354.1527079.102347.2420583.125091-.0129965-.27455-.0243683-.549099-.0373647-.822024-.0503612.01787-.1072205.011372-.1510834.048737-.1933217.164079-.21769.454874-.0536102.648196"/><path d="m39.9526172 223.782093c.1933218-.164079.21769-.454874.0536103-.649821-.1640798-.193321-.4548747-.219314-.649821-.05361-.1949463.16408-.21769.454875-.0536102.649821.1640798.193322.4548746.219315.6498209.05361"/><path d="m39.2865507 221.043098c.1933218-.165704.2193146-.454875.0552348-.649821-.1657043-.194946-.4564992-.219315-.6498209-.055235-.1949463.165705-.2193146.4565-.0552348.649821.1657043.194947.4548746.219315.6498209.055235"/><path d="m37.3614561 222.6709c.1933218-.165705.2176901-.454875.0536103-.649821-.1640798-.194947-.4548747-.219315-.649821-.055235s-.2193146.456499-.0536102.649821c.1640798.194946.4548747.219314.6498209.055235"/><path d="m40.6170592 226.522713c.1933217-.16408.21769-.456499.0536102-.649821-.1640798-.194946-.4548747-.219314-.649821-.055234-.1933217.165704-.21769.456499-.0536102.64982.1640798.194947.4548747.219315.649821.055235"/><path d="m28.3126993 213.206257c-.0633576-.074729-.152708-.100722-.2388092-.123466.0584838.258304.1153432.521482.1770762.774912.0016245-.001625.0048736 0 .0064982-.001625.1949463-.16408.2209391-.456499.0552348-.649821"/><path d="m31.514692 217.706267c.1933218-.164079.2176901-.45325.0536103-.649821-.1640798-.193321-.4548747-.21769-.649821-.05361-.1933217.16408-.21769.454875-.0536102.649821s.4548747.219315.6498209.05361"/><path d="m29.6432077 218.685872c-.0211192-.025992-.0552348-.022743-.0812276-.042238.047112.154333.094224.313539.1429606.466247.0438629-.144586.0438629-.298918-.061733-.424009"/><path d="m28.9787657 215.945253c-.0601084-.069856-.1462097-.090975-.2274373-.115344.0649821.242059.1332133.477619.1981954.714803.1527079-.168953.1787008-.420759.0292419-.599459"/><path d="m34.8239053 220.909885c-.1640798-.194947-.4548747-.219315-.649821-.055235-.1933217.16408-.21769.454875-.0536102.649821.1640798.193322.4548747.21769.649821.05361.1949462-.16408.2193145-.454875.0536102-.648196"/><path d="m32.8452005 223.185883c.1933217-.16408.21769-.454875.0536102-.649821-.1640798-.193322-.4548747-.21769-.649821-.053611-.1949463.16408-.21769.454875-.0536102.649821.1640798.194947.4548747.21769.649821.053611"/><path d="m32.179134 220.446887c.1933217-.16408.2193146-.454874.0552348-.649821-.1657044-.194946-.4564993-.21769-.649821-.05361-.1949463.16408-.2193146.454875-.0552348.649821.1657044.193322.4548747.21769.649821.05361"/><path d="m38.0258981 225.411519c.1949463-.165704.2193145-.456499.0552348-.649821-.1657044-.194946-.4564993-.219314-.649821-.055234-.1949463.164079-.2193146.454874-.0552348.649821.1640798.193321.4548747.219314.649821.055234"/><path d="m35.4509825 226.984086c.1640798.193322.4548747.219315.6481964.05361.1965709-.164079.2193146-.454874.0552348-.648196-.1640798-.194946-.4548747-.219315-.649821-.055235-.1933217.16408-.2193145.454875-.0536102.649821"/><path d="m35.434737 224.298701c.1949463-.16408.2193146-.454875.0552348-.649821-.1657044-.194946-.4548747-.219315-.649821-.055235s-.2193146.4565-.0552348.649821c.1640798.194947.4564993.219315.649821.055235"/><path d="m33.5096424 225.926503c.1933217-.16408.21769-.454875.0536102-.649821-.1640798-.194947-.4548746-.219315-.6498209-.053611-.1933218.16408-.2176901.454875-.0536103.648197.1640798.194946.4548747.219314.649821.055235"/><path d="m41.2815011 229.261709c.1949463-.16408.2193146-.454875.0552348-.649821-.1657044-.193322-.4564993-.219315-.649821-.053611-.1949463.16408-.2193146.454875-.0552348.648197.1657044.196571.4564993.219314.649821.055235"/><path d="m39.3564065 230.88951c.1933217-.16408.2193146-.454875.0536102-.649821-.1640798-.193322-.4548747-.219314-.6498209-.05361-.1949463.16408-.2176901.454875-.0536103.649821.1640798.193322.4548747.219314.649821.05361"/><path d="m38.6919646 228.150515c.1933217-.165705.21769-.454875.0536102-.649821s-.4548747-.219315-.649821-.055235c-.1949463.165704-.2193145.456499-.0536102.649821.1640798.194946.4548747.219315.649821.055235"/><path d="m36.7652454 229.778316c.1949463-.165704.21769-.454874.0536102-.649821-.1640798-.194946-.4548746-.219314-.6498209-.055234-.1933218.164079-.21769.456499-.0536103.649821.1640798.194946.4548747.219314.649821.055234"/><path d="m41.4407072 231.269655c-.0292419.014621-.0633575.006499-.0893504.027618-.1949462.165704-.21769.454874-.0536102.649821.0276174.032491.0731049.032491.1072205.055235.0113718-.245308.0243683-.490615.0357401-.732674"/><path d="m40.0760832 232.980309c-.1640798-.194946-.4564992-.219315-.649821-.055235-.1754516.147835-.188448.389893-.0779785.578341l.7180522.038989c.1250905-.167329.1510834-.394766.0097473-.562095"/><path d="m34.1740843 228.665498c.1949463-.16408.2193146-.454875.0552348-.648197-.1657043-.194946-.4564992-.219314-.649821-.055234-.1949462.164079-.2193145.454874-.0552347.649821.1657043.194946.4564992.21769.6498209.05361"/><path d="m37.4296873 232.518936c.1949463-.165704.2193146-.456499.0552348-.649821-.1657043-.194946-.4548746-.219314-.6498209-.055235-.1949463.16408-.2193146.454875-.0552348.649821.1640798.193322.4564992.219315.6498209.055235"/><path d="m34.893761 230.756297c-.1023468-.120217-.2485565-.151084-.3947662-.134838.1348379.248557.2631775.482492.3850189.698558.1267151-.168954.1510834-.396391.0097473-.56372"/></g><path d="m60.9483325 176.908883c1.9120981 6.218787 2.6236521 12.2475 2.5602946 17.925311l-3.037913 1.621303 2.8121002 3.08665c-1.7691376 20.341021-12.9119425 35.035097-12.9119425 35.035097l-5.611204-1.483216c-9.1787211-45.688912 16.1886647-56.185145 16.1886647-56.185145" fill="#dee5ff"/><path d="m47.6643675 233.685365c-.0113719 0-.0243683 0-.0357402-.003249-.0958486-.019495-.1575816-.113719-.1364624-.209568l10.6521901-50.944338c.0194946-.095849.1120941-.157582.2095673-.136463.094224.019495.155957.113719.1364624.207943l-10.6538147 50.945963c-.01787.082852-.0909749.139712-.1722025.139712" fill="#859fff"/><path d="m46.145411 233.610635s12.1711466-25.573704-5.7509155-47.986028c0 0-17.5565378 13.649489.9324931 47.986028z" fill="#426bff"/><path d="m43.7345752 233.44818c-.0601084 0-.1120941-.045487-.1169678-.10722l-4.0402618-42.663995c-.0064982-.064983.0406138-.123466.1055959-.12834.0698558-.006498.123466.040614.1283397.105596l4.0402618 42.66562c.0048736.064982-.0406138.121841-.1072205.128339-.0016245 0-.0064982 0-.0097473 0" fill="#fff"/><path d="m38.1656096 252.102915h13.4659148l3.7299724-18.771703h-20.924235z" fill="#fff"/><path d="m38.4076679 251.808871h12.9834228l3.61138-18.183615h-20.2078074zm13.2238565.588088h-13.4659148c-.1397115 0-.2599284-.099097-.2875458-.237184l-3.7299723-18.771703c-.0162455-.087726.0064982-.175452.061733-.243683.0568593-.068231.1397115-.108845.2274373-.108845h20.9226104c.0893504 0 .1722026.040614.2290619.108845.0552348.068231.076354.155957.0601084.243683l-3.7283477 18.771703c-.0276174.138087-.1478343.237184-.2891704.237184z" fill="#426bff"/><path d="m53.8522876 204.092518c-.0893504 0-.1640798-.066606-.1754517-.155957l-1.7268992-14.49913c-.0113719-.097473.0568593-.185199.1527079-.196571.0990977-.011372.185199.058484.1965709.154333l1.7285237 14.49913c.0113719.097473-.0584839.185199-.1543324.196571-.0081228.001624-.014621.001624-.0211192.001624" fill="#859fff"/><path d="m51.5324267 215.219078c-.0146209 0-.0292419-.001625-.0454874-.004874-.0942241-.021119-.1494588-.133213-.1283397-.227437.0406138-.201445 2.6090312-2.774736 7.6353963-7.651642.0698558-.066607.1819499-.064982.2485565.003249.0682312.069856.0666067.18195-.0032491.250181-2.9258188 2.838093-7.349475 7.180522-7.5509195 7.507057-.0162456.081227-.0796031.123466-.1559571.123466" fill="#859fff"/><path d="m54.485863 237.732125h-13.0272857z" fill="#fff"/><path d="m54.485863 238.026169h-13.0272857c-.1624552 0-.294044-.131589-.294044-.294044s.1315888-.294044.294044-.294044h13.0272857c.1624552 0 .294044.131589.294044.294044s-.1315888.294044-.294044.294044" fill="#426bff"/><path d="m104.122437 247.64027c0 2.160655-1.751267 3.911922-3.911922 3.911922-2.1606548 0-3.9119223-1.751267-3.9119223-3.911922s1.7512675-3.913547 3.9119223-3.913547c2.160655 0 3.911922 1.752892 3.911922 3.913547" fill="#426bff"/><path d="m131.842175 245.097845h-31.271009c-.448377 0-.8122767-.363899-.8122767-.812276 0-.450001.3638997-.812276.8122767-.812276h31.271009c.450001 0 .812276.362275.812276.812276 0 .448377-.362275.812276-.812276.812276" fill="#426bff"/><path d="m115.802969 244.197843c-.448377 0-.812276-.363899-.812276-.812276v-65.579931c0-.450001.363899-.812276.812276-.812276.448376 0 .812276.362275.812276.812276v65.579931c0 .448377-.3639.812276-.812276.812276" fill="#426bff"/><path d="m135.643627 247.64027c0 2.160655-1.751267 3.911922-3.911922 3.911922s-3.913547-1.751267-3.913547-3.911922 1.752892-3.913547 3.913547-3.913547 3.911922 1.752892 3.911922 3.913547" fill="#426bff"/><path d="m92.973134 187.239412h48.215091v-4.867159h-49.5488486z" fill="#3661ff"/><path d="m91.6751166 182.372253-16.9814463-57.211862h53.0530077l-11.246776 57.211862z" fill="#426bff"/><path d="m154.43645 239.122742 5.279795 9.553992 3.379069.157582 2.2695 1.39549c.245307.149459.407762.414261.428881.69206.032491.430506-.279423.761915-.698557.74242l-5.971855-.290795-4.105244-6.600556s-.877258-.614081-.969857.279423c-.071481.70668.256679 4.11824.398015 5.507233.032491.32491-.18195.57834-.474369.565344-.279423-.014621-.52798-.268051-.562096-.578341l-.687185-6.251277s-1.825997-4.283945 1.713903-5.172575" fill="#ff6652"/><path d="m159.716245 248.676734 3.379069.157582-1.757766-14.22783-6.901098 4.516256z" fill="#ffcdc7"/><path d="m161.337548 234.606486-.623828-5.926367-12.096417-.458124 5.819147 10.900747z" fill="#ffcdc7"/><path d="m121.448288 235.64295-.255054 10.912119 2.839717 1.838993 1.255779 2.349103c.136463.25343.144586.562095.02112.813901-.188449.388268-.625453.516607-.976356.287546l-5.013369-3.258853-.216066-7.770234s-.450001-.973107-.979605-.248556c-.419134.575091-1.853614 3.686109-2.431955 4.958134-.134838.295668-.450001.407762-.695308.248556-.233936-.152708-.318412-.497113-.191697-.781409l2.555421-5.747667s.579965-4.618602 4.087373-3.601633" fill="#ff6652"/><path d="m121.193234 246.555069 2.839717 1.838993 5.651818-13.173495-8.236481.422383z" fill="#ffcdc7"/><path d="m129.684769 235.220567 2.449825-5.434128-10.21681-6.491711-.469496 12.348222z" fill="#ffcdc7"/><path d="m121.336194 159.994043c5.401637 1.289895 11.901471 2.74062 17.254371 4.21084 5.146582 1.411736 10.754537 1.673289 15.73379 3.583763 2.501811.96011 4.844416 2.571666 6.1733 4.89965 1.029966 1.806502 1.387367 3.915171 1.618054 5.983226.809027 7.242255.628702 14.616098 1.018594 21.892468.45325 8.416806.9065 16.835237 1.384119 25.252043.108845 1.900726.216065 3.803077.323286 5.705428l-19.596976.620579-6.826369-58.571612z" fill="#ff4d36"/><path d="m149.271997 123.085837s.14621 1.637549.830147 2.25163c.051985.047112.105596.094224.159206.139711.008123.380146.086101.758666.255055 1.116068.23556.501987.404513 1.020219.586463 1.5417-.2713.115343-.48899.209567-.510109.21769-.060109.027618-2.643147 1.090075-2.643147 1.090075l-1.67004.994226-1.882856-4.277447z" fill="#ffcdc7"/><path d="m146.325059 124.944325 2.34098-1.871484 2.693508-3.52203c.464622.133214.74567.521482.657944.908125l-.263177 1.150183c-.147835.649821.402889 1.309389 1.221663 1.390617.011372 0 .021119.001625.032491.003249z" fill="#ffcdc7"/><path d="m148.505209 124.752628.224188-.836644 2.490439-.968234.376896.331409 2.857588-.992601c.131588.068231.394766.229061.549098.532853.206318.39964.095849.789532.053611.921121-.198196.076354-.396391.152708-.592962.230686.040614.003249.490615.03899.664442.378521.12834.248557.060108.560471-.172203.810652.084477.014621.419135.081227.59946.352528.269676.402889-.061733.880507-.079603.904875-.207943.081228-.415885.162456-.622203.243683.295668.011372.537726.152708.623828.367149.103971.256679-.022744.575092-.318413.787908-.875633.198195-1.751267.398015-2.625276.596211l-7.216262 2.063181z" fill="#ffcdc7"/><path d="m154.464067 123.971218-2.224012.864262c-.566969.222564-.796031.774912-.516608 1.242783l.248557.412636.224188-.214441 1.375996-.57834z" fill="#ffcdc7"/><path d="m151.972004 126.817434c-.014621 0-.029242-.001624-.043863-.003249-.097474-.014621-.185199-.07148-.23556-.155957l-.246932-.412636c-.175452-.29242-.212817-.625453-.107221-.938992.116968-.34278.402889-.625452.783034-.773287l2.225637-.865886c.165705-.064982.354153.01787.419135.185199s-.01787.355777-.185199.420759l-2.224013.864262c-.199819.079603-.347654.21769-.402889.380145-.043862.129964-.027617.266427.048737.394766l.043863.073105c.008123-.003249.016245-.006498.024368-.009747l1.377621-.576716c.16083-.069856.354152.006498.425632.173827.068232.165704-.009747.355777-.175451.425633l-1.320761.552348-.18195.173827c-.060109.060108-.141336.092599-.224188.092599" fill="#ff9284"/><path d="m154.956306 125.160391-2.506684.974731c-.469496.18195-.70668.6352-.513359.977981.165705.294044.596211.404513 1.000725.25343l1.916972-.705056z" fill="#ffcdc7"/><path d="m152.56659 127.759675c-.389893 0-.737547-.175452-.914623-.487366-.123466-.220939-.141336-.480868-.051986-.729424.112094-.315163.378521-.573467.731049-.70993l2.506684-.974731c.16408-.066607.355777.016245.420759.185199.064982.165704-.01787.355777-.185199.420759l-2.506684.974731c-.170578.066607-.307041.190073-.355777.323286-.025993.071481-.022744.136463.008123.191698.073104.129964.326535.209567.605958.108845l1.916971-.706681c.170578-.066606.355777.024369.41751.191697.061733.168954-.024368.355777-.193321.41751l-1.915348.706681c-.162455.060108-.326535.087726-.484116.087726" fill="#ff9284"/><path d="m153.240779 127.256063-.579965.212817c-.238809.08935-.375272.311914-.302167.497113.048737.123466.149459.219314.279423.276174.139712.060108.315163.074729.495489.03574z" fill="#ffcdc7"/><path d="m152.935363 128.623936c-.149459 0-.294044-.027617-.425633-.082852-.214441-.094224-.375271-.256679-.454874-.458124-.060109-.154332-.053611-.328159.01787-.48899.086101-.193322.258304-.349279.475994-.430506l.581589-.212817c.167329-.063357.354153.024369.415886.193322.061733.167329-.024368.354153-.193322.415886l-.579965.212816c-.07473.029242-.107221.077978-.108845.092599.016245.032492.064982.061733.102347.077979.081227.034116.188448.040614.295668.016245.177076-.03574.349279.071481.388268.246932.038989.173828-.07148.347655-.245307.388268-.089351.019495-.180325.029242-.269676.029242" fill="#ff9284"/><path d="m153.60143 122.533489-2.860837 1.064082.149459.313539c.281047.601084 1.094948.92437 1.837368.734298l.953613-.34603z" fill="#ffcdc7"/><path d="m152.296914 125.019055c-.737547 0-1.421483-.375272-1.702531-.969858l-.14621-.311914c-.038989-.082852-.042238-.177076-.008122-.263178.034115-.082852.102346-.149459.186823-.180325l2.860837-1.064082c.172202-.061733.355777.022744.419134.191697.061733.167329-.024368.354153-.191697.41751l-2.529428.938992c.21769.456499.869136.705055 1.462097.552347l.922746-.337906c.167329-.060109.354153.025992.415886.194946.061733.167329-.024369.354152-.193322.415885l-.953612.347654c-.180326.045488-.362276.068232-.542601.068232" fill="#ff9284"/><path d="m127.004258 131.267083.641698 2.907949 16.394983-8.566265 3.601632 5.702179-16.72964 13.306709c-3.505784 2.790981-8.476915 2.782858-11.972951-.019495l-2.2695-2.011196 7.026189-10.174571c.854515-1.286646 1.544949-2.438454 1.18105-3.93954l-.116968-.484117z" fill="#384b61"/><path d="m112.193213 111.452418s6.663914 0 4.82817-13.1361312l-5.601457-5.7947784s-7.85471-1.9949504-8.819695 9.4646426c0 0-1.97708-.544225-2.373471 1.371122-.3963903 1.913723 1.278523 2.750367 2.88683 2.685385l-.191697 11.204538s.459748 4.932141 5.15308 6.418606c1.822748.576717 3.820947.464622 5.578713-.290794 1.621303-.695309 4.758314-2.571667 4.618603-5.084849l-5.564092-.240434z" fill="#ffcdc7"/><path d="m102.908896 116.806942c-.077978-.060108-.693683-.090975-.792781-.089411-3.5398998.069917-7.1626517.065043-10.6180746.930929-2.0160695 1.970582-4.1750997 3.564268-4.1750997 6.382867l8.1357584 10.653814s-4.8574116 5.02799 1.6196788 2.500187l.961735 17.472061c8.8830521 0 14.6648341-.055235 22.0078111-.090975l5.767161-16.575308c.726175-2.159031.818775-4.480516.268051-6.689907l.921122-.034116c-.630327-1.650545-1.283397-3.292968-1.853615-4.964632-.885381-2.59441-2.399464-5.322034-4.194594-7.396587-.498737-.575092-1.060833-1.119317-1.744769-1.450725-.989353-.480868-2.185023-.295669-3.182498.076354-.737547.274549-.592962 1.2704-.708305 1.894228-.16408.880507-.623828 1.583938-1.43448 2.014445-.862637.458123-1.879607.526355-2.857588.505236-1.749643-.037365-3.522029-.341157-5.07835-1.143685-1.556322-.800905-2.375096-2.110294-2.919321-3.772211-.024368-.079603-.05361-.16408-.121842-.222564" fill="#384b61"/><path d="m102.600231 101.986151s6.11644-.063358 8.884678-6.1797976c0 0 1.350003 2.8332193 5.632323 3.2523539.61733.0601084-.485741-6.7045278-.755417-7.1870199-3.085025-5.5121063-16.5281962-3.2994659-16.7377635 3.4830404l.6027085 8.0025452s.311915-1.821123 2.373471-1.371122" fill="#ff6652"/><path d="m122.416522 148.203042c-.045488 0-.090975-.006498-.136463-.019495-.258304-.076354-.407762-.346029-.331408-.604333.034115-.116968 3.434303-11.752012 4.019142-13.626746.242059-.774911-.495488-2.027441-.773287-2.404337l-7.323482-10.63432c-.151083-.220939-.095849-.524731.126715-.677439.220939-.151083.524731-.095848.677439.125091l7.31211 10.621324c.131589.177076 1.34188 1.881231.911374 3.258852-.58159 1.868235-3.980154 13.493532-4.014269 13.6105-.063358.212816-.256679.350903-.467871.350903" fill="#212b38"/><path d="m97.0783779 137.672693c-.2696757 0-.4873657-.219314-.4873657-.487365v-9.675835c0-.269675.21769-.487365.4873657-.487365.2680511 0 .4857412.21769.4857412.487365v9.675835c0 .268051-.2176901.487365-.4857412.487365" fill="#194bff"/><path d="m112.193213 111.452418s-3.442426.287545-5.565716-2.641523c0 0 1.15993 4.257952 5.778533 4.680336z" fill="#ff887a"/><path d="m105.035436 87.4772732c0 4.0256408-3.263726 7.2893666-7.2909916 7.2893666-4.0256409 0-7.2893667-3.2637258-7.2893667-7.2893666 0-4.0272654 3.2637258-7.2909912 7.2893667-7.2909912 4.0272656 0 7.2909916 3.2637258 7.2909916 7.2909912" fill="#ff6652"/><path d="m128.841626 145.801954 1.569318-.514984 3.827446-.295668 1.510833 1.091699c.190073.138087.420759.214441.656319.21769l2.683761.027618c.261553.05361.487366-.136463.497113-.344406.006498-.173827-.141336-.355777-.359026-.385019-.259928-.050361-.519857-.099097-.779785-.147834l2.474193-.393141c.118592-.019495.211192-.113719.227437-.229062.016246-.107221-.03574-.21769-.131588-.27455.341156-.064982.683936-.128339 1.026717-.193321.168953-.05686.279423-.219315.266426-.391518-.011371-.159206-.12509-.295668-.282672-.339531-1.12419-.069856-2.24838-.138087-3.370946-.207943l-1.30614-.758666 1.946214.295669 2.868959.014621c.112094-.014621.207943-.087726.243683-.188448.045488-.12834-.009747-.281048-.141336-.357402-2.066431-.646572-4.132861-1.293144-6.200916-1.938091l-2.152532-.570218.066606-.347654 1.32401-.534478c.432131-.175451.815526-.45325 1.116068-.810651.355777-.424009.326535-1.051086-.066607-1.439354l-1.603433 1.059208s-2.124914.809028-2.201268.836645c-.077979.027617-3.32221 1.311014-3.32221 1.311014l-2.224012.428882z" fill="#ffcdc7"/><path d="m138.150312 144.802854c-.01787 0-.037365-.003249-.053611-.009748l-2.357225-.844767c-.084477-.030866-.12834-.123466-.099098-.207942.030867-.086102.123466-.12834.207943-.097474l2.327984.833396 2.836468-.084477c.090975.009747.16408.068231.167329.157582.003249.08935-.068231.164079-.157582.167329l-2.867335.086101c-.001624 0-.003249 0-.004873 0" fill="#ff887a"/><path d="m138.283525 145.57939c-.003249 0-.004874 0-.008123 0l-1.229786-.068231c-.016245 0-.030866-.003249-.045487-.008123l-1.712279-.615705c-.086101-.030867-.129964-.123466-.099097-.207943.030866-.084477.121841-.129964.207942-.097473l1.691159.607582 1.205418.066607c.089351.004874.157582.079603.152708.170578-.004873.086101-.076354.152708-.162455.152708" fill="#ff887a"/><path d="m129.182782 146.338056-2.365348-6.795503-24.428394 3.832319 2.599284 10.492984z" fill="#384b61"/><path d="m98.2350592 133.497594c-.7684133-.099098-1.426357-.307041-2.1866475-.459749-2.5001862-.50686-3.0362885-.294044-5.1222138 1.233036l9.6693361 16.550939c1.372747 2.352352 4.332681 3.242607 6.776008 2.038814l4.873657-2.401089-7.596407-18.112134c-2.256503 1.042962-4.111742 1.444227-6.4137328 1.150183" fill="#384b61"/><path d="m92.276201 136.57937-3.2344838-5.239182c-1.3142629-2.128164-2.0713044-4.59261-1.9299683-7.089547.1624552-2.888454 1.3516276-5.632323 4.3862915-6.602181 3.9460378-1.260652 8.199116.703432 9.7976756 4.524379l5.421131 14.406531z" fill="#384b61"/><path d="m108.632195 142.526856c-.19982 0-.388268-.125091-.458124-.324911l-2.217514-6.257775-4.659217-12.382339c-.094224-.251805.032492-.532853.285922-.628702.251805-.092599.532853.032491.627077.285922l4.660841 12.390461 2.220763 6.267523c.08935.25343-.042238.531229-.297293.620579-.05361.019495-.107221.029242-.162455.029242" fill="#212b38"/><path d="m108.939235 143.067832c-.233936 0-.440254-.168954-.480868-.406138-.043862-.266427.134838-.516608.39964-.562095l17.876575-3.037913c.269676-.040614.518232.133213.56372.398015.043863.266427-.134838.518232-.39964.562095l-17.876575 3.039538c-.027617.004873-.056859.006498-.082852.006498" fill="#212b38"/><path d="m106.562515 152.412257c-2.747118 0-5.365897-1.419859-6.8426149-3.822572l-1.7935059-2.916071c-.141336-.230687-.0698557-.531229.1592062-.67094.232311-.141336.5296041-.068231.6693156.159206l1.793506 2.917696c1.556321 2.531053 4.555245 3.819323 7.463194 3.206866l12.913567-2.724374c.266426-.050361.523105.113719.57834.376896.055235.263178-.113718.521482-.376896.576716l-12.913567 2.724375c-.549099.115343-1.103071.172202-1.650545.172202" fill="#212b38"/><path d="m147.658817 171.539737-25.040851-10.856883h-25.2829088s-9.5588664 14.611224.0162455 21.536691h12.5659133c0 .048736-.001625.094224-.001625.14296h26.89284l-20.147698 40.30677 19.650585 11.26952 19.213582-40.904605c1.965708-3.929792 2.15903-8.319333.839893-12.218259-1.41336-4.179973-4.675462-7.479439-8.705976-9.276194" fill="#ff6652"/><path d="m187.241036 161.218956h-124.18241c-1.8048777 0-3.2669748-1.462097-3.2669748-3.265351v-.222563c0-1.803253 1.4620971-3.263726 3.2669748-3.263726h124.18241c1.803253 0 3.265351 1.460473 3.265351 3.263726v.222563c0 1.803254-1.462098 3.265351-3.265351 3.265351" fill="#fda74c"/><path d="m186.454753 252.476562c-.389893 0-.732673-.279423-.79928-.675813l-15.238301-89.985582c-.07473-.441879.222563-.861013.664441-.937367.441879-.07473.862638.224188.937367.666066l15.238302 89.985582c.074729.441879-.222564.861013-.666067.935743-.045487.008122-.090975.011371-.136462.011371" fill="#426bff"/><path d="m62.0660245 252.476562c-.0454875 0-.0893504-.003249-.1364624-.011371-.4418782-.07473-.7391713-.493864-.6644419-.935743l15.236677-89.985582c.0747294-.441878.497113-.739171.9373667-.666066.4418783.076354.7391713.495488.6644419.937367l-15.2366769 89.985582c-.0682312.39639-.4110118.675813-.8009044.675813" fill="#426bff"/><path d="m121.371935 154.467316h14.921513v-2.846216h-12.076922c-1.570942 0-2.844591 1.273649-2.844591 2.846216" fill="#2d57f0"/><path d="m134.488571 154.467316h43.055512l6.84099-21.577305c.609207-1.921845-.825273-3.88268-2.841342-3.88268h-36.799361c-1.299642 0-2.448201.841518-2.841342 2.081051z" fill="#2d57f0"/><path d="m164.211381 142.824149c-.67094 1.15993-2.056683 1.61643-3.096397 1.015345-1.039713-.601084-1.338631-2.027441-.669315-3.188996.67094-1.161555 2.058308-1.61643 3.096397-1.015345 1.039713.599459 1.338631 2.027441.669315 3.188996" fill="#7895ff"/><path d="m451.078094 253.209236h-432.0708309c-.4483765 0-.8122762-.3639-.8122762-.812277 0-.450001.3638997-.812276.8122762-.812276h432.0708309c.450001 0 .812276.362275.812276.812276 0 .448377-.362275.812277-.812276.812277" fill="#c9d5ff"/></g></svg>