<svg height="202" viewBox="0 0 450 202" width="450" xmlns="http://www.w3.org/2000/svg" xmlns:xlink="http://www.w3.org/1999/xlink"><defs><path id="a" d="m.53091191 6.68566129c1.1797653 3.14636539 4.720035 10.22544411 11.01227889 13.76571381 6.2927308 3.5392959 17.3050097 11.7986267 18.8781924 12.978392 1.5736696 1.1802522 5.5063829 3.1463654 9.0456787 2.7534349 3.5402697-.3939043 3.9332002-1.967087 3.9332002-2.7534349 0-.7863479.7863479-1.9661132 1.1797653-2.3595306.3934174-.3934174 2.3600175-3.1468522 2.752948-5.1129654.3939043-1.9666001 1.1802522-2.3595306 1.5731827-2.752948.3934174-.3934174 1.1802522-1.1797653.3934174-2.3600175-.4883634-.7323017-.8642523-.6972447-1.2084925-.6626746-.210342.0209368-.4080245.0423605-.6125237-.1115008-.5385144-.4055899-8.4044278-9.4517556-8.4044278-9.4517556l-5.24589-4.8773046s-2.227093-3.77495681-4.980041-3.38153941c-2.752948.3929305-2.752948 1.9661132-4.3261307 1.9661132-1.5731827 0-8.258844 0-10.6188615-.7863479-2.3600175-.7868348-8.2593309-3.53929589-11.01227889-3.53929589-2.7534349 0-3.5397828 3.53929589-2.3600175 6.68566129"/><path id="b" d="m.02991957 3.93320019c-.3934174 3.1463654 3.14636539 9.43909621 7.47249609 11.79862681 4.32661764 2.3600175 6.29273074 3.1463654 8.65274824 2.3600175 2.3595306-.7868348 5.1129655-2.3600175 5.1129655-4.3266176 0-1.9661132-10.1416968-12.82696535-10.1416968-12.82696535s-2.83718214-.93826155-5.59013014-.93826155c-2.7534349 0-5.11296549.7868348-5.50638289 3.93320019"/><linearGradient id="c"><stop offset="0" stop-color="#4d9cff"/><stop offset="1" stop-color="#1769d4"/></linearGradient><linearGradient id="d" x1="49.997767%" x2="49.997767%" xlink:href="#c" y1="4750.18101%" y2="1369.14225%"/><linearGradient id="e" x1="49.997767%" x2="49.997767%" xlink:href="#c" y1="111.979404%" y2="26.735179%"/><linearGradient id="f" x1="49.997767%" x2="49.997767%" xlink:href="#c" y1="266.391589%" y2="-3114.64717%"/><linearGradient id="g" x1="5239.40026%" x2="3945.28681%" xlink:href="#c" y1="50.008589%" y2="50.008589%"/><linearGradient id="h" x1="110.821568%" x2="81.821668%" xlink:href="#c" y1="50.008589%" y2="50.008589%"/><linearGradient id="i" x1="288.895078%" x2="-1005.21247%" xlink:href="#c" y1="50.008589%" y2="50.008589%"/><linearGradient id="j" x1="50.01617%" x2="50.01617%" xlink:href="#c" y1="4750.17793%" y2="1369.13916%"/><linearGradient id="k" x1="50.01617%" x2="50.01617%" xlink:href="#c" y1="111.979378%" y2="26.735113%"/><linearGradient id="l" x1="50.01617%" x2="50.01617%" xlink:href="#c" y1="266.388192%" y2="-3114.65057%"/><linearGradient id="m" x1="-5138.31359%" x2="-3844.46713%" xlink:href="#c" y1="50.013178%" y2="50.013178%"/><linearGradient id="n" x1="-10.821902%" x2="18.177998%" xlink:href="#c" y1="50.013178%" y2="50.013178%"/><linearGradient id="o" x1="-188.888108%" x2="1105.22535%" xlink:href="#c" y1="50.013178%" y2="50.013178%"/><mask id="p" fill="#fff"><path d="m14.4802765 9.12974489c159.4109775-21.86290609 259.3273115 2.40724711 259.3273115 2.40724711 20.929027 5.0832644 22.095646 7.162339 21.939837 7.908274-.861331 4.1260137-49.257027 1.4256512-56.16569 1.0317468-9.673345-.5519285-14.088211-1.180005-18.252865-1.6582159l-.453574-.0515631c-3.246952-.3651191-6.452282-.6336107-12.009332-.697468-30.290706-.3481355-38.956113 6.4344195-63.18634 5.1577605-17.708653-.9329056-14.696185-4.6406698-34.664553-6.877014-38.0723845-4.2633203-72.586971 6.5775689-101.36146116.6879935-2.51582637-.5151431-9.70494507-1.9865631-9.65360984-3.7822603.03825487-1.3272969 4.01863053-2.3838758 8.29634145-3.1641103l.38960049-.070169c.13007224-.0231358.26031609-.04601768.39063012-.06864548l.39105118-.06712105c.19552943-.03317925.39098854-.0657865.58603496-.09782119l.3894414-.06330584" fill="#fff" fill-rule="evenodd"/></mask><mask id="q" fill="#fff"><path d="m0 201.804624h449.999879v-201.804624h-449.999879z" fill="#fff" fill-rule="evenodd"/></mask><mask id="r" fill="#fff"><use fill="#fff" fill-rule="evenodd" xlink:href="#a"/></mask><mask id="s" fill="#fff"><use fill="#fff" fill-rule="evenodd" xlink:href="#b"/></mask><mask id="t" fill="#fff"><path d="m0 5.89980029 53.0952812 12.58546161-7.0790787-8.2593309-40.11640221-10.225931z" fill="#fff" fill-rule="evenodd"/></mask><mask id="u" fill="#fff"><path d="m0 201.804624h449.999879v-201.804624h-449.999879z" fill="#fff" fill-rule="evenodd"/></mask><mask id="v" fill="#fff"><path d="m2.35953059 88.6601168v4.9259948h-2.35953059v-4.9259948zm0-9.8510159v4.925508h-2.35953059v-4.925508zm0-9.8510159v4.925508h-2.35953059v-4.925508zm0-9.8510159v4.925508h-2.35953059v-4.925508zm0-9.8515028v4.925508h-2.35953059v-4.925508zm0-9.8510158v4.9255079h-2.35953059v-4.9255079zm0-9.8510159v4.9255079h-2.35953059v-4.9255079zm0-9.8510159v4.9255079h-2.35953059v-4.9255079zm0-9.85101591v4.92550791h-2.35953059v-4.92550791zm0-9.85150279v4.92550794h-2.35953059v-4.92550794z" fill="#fff" fill-rule="evenodd"/></mask><mask id="w" fill="#fff"><path d="m105.293201 0v2.35953059h-4.57786v-2.35953059zm-9.1557191 0v2.35953059h-4.5783463v-2.35953059zm-9.1562057 0v2.35953059h-4.5783463v-2.35953059zm-9.1562057 0v2.35953059h-4.5778594v-2.35953059zm-9.1557188 0v2.35953059h-4.5778594v-2.35953059zm-9.1557188 0v2.35953059h-4.5783463v-2.35953059zm-9.1562057 0v2.35953059h-4.5778594v-2.35953059zm-9.1562057 0v2.35953059h-4.5778594v-2.35953059zm-9.1552319 0v2.35953059h-4.5783463v-2.35953059zm-9.1562057 0v2.35953059h-4.5783463v-2.35953059zm-9.1562057 0v2.35953059h-4.5778594v-2.35953059zm-9.1557188 0v2.35953059h-4.5778594v-2.35953059z" fill="#fff" fill-rule="evenodd"/></mask><mask id="x" fill="#fff"><path d="m2.35953059 88.6601168v4.9259948h-2.35953059v-4.9259948zm0-9.8510159v4.925508h-2.35953059v-4.925508zm0-9.8510159v4.925508h-2.35953059v-4.925508zm0-9.8510159v4.925508h-2.35953059v-4.925508zm0-9.8515028v4.925508h-2.35953059v-4.925508zm0-9.8510158v4.9255079h-2.35953059v-4.9255079zm0-9.8510159v4.9255079h-2.35953059v-4.9255079zm0-9.8510159v4.9255079h-2.35953059v-4.9255079zm0-9.85150281v4.92550791h-2.35953059v-4.92550791zm0-9.85101589v4.92550794h-2.35953059v-4.92550794z" fill="#fff" fill-rule="evenodd"/></mask><mask id="y" fill="#fff"><path d="m4.5778594 0v2.35953059h-4.5778594v-2.35953059zm9.1557188 0v2.35953059h-4.5783463v-2.35953059zm9.1562057 0v2.35953059h-4.5783463v-2.35953059zm9.1557188 0v2.35953059h-4.5778594v-2.35953059zm9.1562057 0v2.35953059h-4.5778594v-2.35953059zm9.1557188 0v2.35953059h-4.5783463v-2.35953059zm9.1557188 0v2.35953059h-4.5778594v-2.35953059zm9.1562057 0v2.35953059h-4.5778594v-2.35953059zm9.1562057 0v2.35953059h-4.5783463v-2.35953059zm9.1557188 0v2.35953059h-4.5783463v-2.35953059zm9.1557188 0v2.35953059h-4.5778594v-2.35953059zm9.156206 0v2.35953059h-4.57786v-2.35953059z" fill="#fff" fill-rule="evenodd"/></mask></defs><g fill="none" fill-rule="evenodd"><g><path d="m14.4802765 9.12974489c-5.495671.75372542-14.42303242 2.13555531-14.4802765 4.12650061-.05133523 1.7956972 7.13778347 3.2671172 9.65360984 3.7822603 28.77449016 5.8895754 63.28907666-4.9513138 101.36146116-.6879935 19.968368 2.2363442 16.9559 5.9441084 34.664553 6.877014 24.230227 1.276659 32.895634-5.505896 63.18634-5.1577605 12.923372.1485053 13.127871 1.4037405 30.715771 2.407247 6.908663.3939044 55.304359 3.0942669 56.16569-1.0317468.155809-.745935-1.01081-2.8250096-21.939837-7.908274 0 0-99.916334-24.2701532-259.3273115-2.40724711" mask="url(#p)" transform="translate(154.241255 178.416907)"/><path d="m227.282539 82.9615534h-72.048943c-2.151136 0-3.895222-1.7440856-3.895222-3.8952218v-54.7439338c0-2.1511362 1.744086-3.8952218 3.895222-3.8952218h72.048943c2.151136 0 3.895222 1.7440856 3.895222 3.8952218v54.7439338c0 2.1511362-1.744086 3.8952218-3.895222 3.8952218" fill="#f0f2f5"/><path d="m156.844513 28.2934303h23.991158v-3.5397828h-23.991158z" fill="#d3d6db" mask="url(#q)"/><path d="m223.930117 68.0162691h-64.164041c-1.613596 0-2.921417-1.3078207-2.921417-2.9214164v-29.5540214c0-1.6131087 1.307821-2.9214164 2.921417-2.9214164h64.164041c1.613595 0 2.921416 1.3083077 2.921416 2.9214164v29.5540214c0 1.6135957-1.307821 2.9214164-2.921416 2.9214164" fill="#fff" mask="url(#q)"/><g fill="#d3d6db"><path d="m160.777714 45.9918574h35.396854v-1.5731827h-35.396854z" mask="url(#q)"/><path d="m160.777714 51.104336h35.396854v-1.5731827h-35.396854z" mask="url(#q)"/><path d="m160.777714 56.2173015h23.59774v-1.5731827h-23.59774z" mask="url(#q)"/><path d="m217.35654 64.0833123h-3.821212c-2.420394 0-4.382125-1.961731-4.382125-4.3821245v-3.8212125c0-2.4203935 1.961731-4.3821245 4.382125-4.3821245h3.821212c2.419907 0 4.382125 1.961731 4.382125 4.3821245v3.8212125c0 2.4203935-1.962218 4.3821245-4.382125 4.3821245" mask="url(#q)"/></g><path d="m178.397847 40.0922519h-15.575531c-1.129128 0-2.044505-.9153772-2.044505-2.0445046v-1.0234695c0-1.1296143.915377-2.0449914 2.044505-2.0449914h15.575531c1.129127 0 2.044504.9153771 2.044504 2.0449914v1.0234695c0 1.1291274-.915377 2.0445046-2.044504 2.0445046" fill="#40cd8a" mask="url(#q)"/></g><g transform="translate(119.168767 154.005871)"><use fill="#f7723e" xlink:href="#a"/><path d="m.53091191 6.68566129c1.1797653 3.14636539 4.720035 10.22544411 11.01227889 13.76571381 6.2927308 3.5392959 17.3050097 11.7986267 18.8781924 12.978392 1.5736696 1.1802522 5.5063829 3.1463654 9.0456787 2.7534349 3.5402697-.3939043 3.9332002-1.967087 3.9332002-2.7534349 0-.7863479.7863479-1.9661132 1.1797653-2.3595306.3934174-.3934174 2.3600175-3.1468522 2.752948-5.1129654.3939043-1.9666001 1.1802522-2.3595306 1.5731827-2.752948.3934174-.3934174 1.1802522-1.1797653.3934174-2.3600175-.4883634-.7323017-.8642523-.6972447-1.2084925-.6626746-.210342.0209368-.4080245.0423605-.6125237-.1115008-.5385144-.4055899-8.4044278-9.4517556-8.4044278-9.4517556l-5.24589-4.8773046s-2.227093-3.77495681-4.980041-3.38153941c-2.752948.3929305-2.752948 1.9661132-4.3261307 1.9661132-1.5731827 0-8.258844 0-10.6188615-.7863479-2.3600175-.7868348-8.2593309-3.53929589-11.01227889-3.53929589-2.7534349 0-3.5397828 3.53929589-2.3600175 6.68566129" mask="url(#r)"/></g><g transform="translate(144.840682 159.511767)"><use fill="#c4c4c4" xlink:href="#b"/><path d="m.02991957 3.93320019c-.3934174 3.1463654 3.14636539 9.43909621 7.47249609 11.79862681 4.32661764 2.3600175 6.29273074 3.1463654 8.65274824 2.3600175 2.3595306-.7868348 5.1129655-2.3600175 5.1129655-4.3266176 0-1.9661132-10.1416968-12.82696535-10.1416968-12.82696535s-2.83718214-.93826155-5.59013014-.93826155c-2.7534349 0-5.11296549.7868348-5.50638289 3.93320019" mask="url(#s)"/></g><g transform="translate(146.837494 20.239119)"><path d="m.22835738 139.885366c.93241871-.453793 2.08199604-.612524 3.31093851-.612524.39633882 0 .79365144.020937 1.18512123.054047.20449914-.033597.32719863-.054047.32719863-.054047s-1.51231986-2.360017-3.08550256-2.360017c-1.57318269 0-1.96611319.393417-1.96611319.786348 0 .393417.06037594 2.010421.22640977 2.185219.0004869.000487.0014607.000487.00194761.000974" fill="#a05708"/><path d="m14.9450409 138.879279s-2.752948 1.179765-3.9332002 1.179765c-1.17976533 0-2.75294803 0-3.14636543 1.179765-.39293049 1.180253-1.17976529 8.259331 1.5731827 10.619349 2.75343493 2.35953 5.50638293 3.146365 7.47298303 2.752948 1.9661132-.393418 7.0790786-2.752948 7.0790786-2.752948z" fill="#f2dad4"/><path d="m14.1584495 137.699416c-.2215407 1.992893 5.3530086 14.585171 10.2254441 15.731827 6.6861482 1.573183 23.20481-6.292731 28.3177755-9.439096 4.9790672-3.064079 31.4636539-12.978879 32.2500018-13.372296.7868348-.392931 1.5731827-1.573183 1.9666001-.786348.3934174.786348 0 4.719548 2.752948 7.079078 2.752948 2.360018 21.23821 14.159132 23.59774 16.518662 2.360018 2.359531 12.978879 11.012279 16.518662 12.978879s20.844793 4.326131 30.677306 3.146366c9.832027-1.179766 16.518175-10.225931 16.518175-10.225931l-20.057958-35.396368s-6.888212-5.554586-9.540371-6.710493c-2.65216-1.15542-6.584873.417763-6.97829 1.597528-.393418 1.179765-1.179766 2.752948-2.752948 1.573182-1.573183-1.179765-36.183202-20.4513746-47.1954812-23.2048095-11.0122789-2.752948-25.5643406 9.4395835-28.710706 11.4056965-3.1463654 1.9666-35.0034367 24.384575-37.3634542 24.777992-2.3595306.393418-9.8320267.786348-10.2254441 4.326131" fill="#8c8a88"/><path d="m138.046806 25.2166099s.786348 8.2593308 1.573183 9.0456787c.786348.7868348 1.9666.3934174 1.9666 3.1463654 0 2.7534349.393417 9.0461657 1.179765 9.4390962.786835.3934174 3.539783-1.1797653 3.9332-1.1797653.392931 0 4.326131 3.1463654 5.112479 4.7195481.786835 1.5731827 3.539783 5.8993134 5.8998 6.2927308 2.359531.3934174 5.505896-4.3261307 7.079079-3.1463654s2.360017 3.5397828 2.360017 4.7195481 18.878193-4.3261307 18.878193-11.4056963c0-2.0050654-5.112966-12.5854616-6.292731-14.9449922-1.180252-2.3600175-2.753435-12.5854615-3.146365-15.3388964-.393418-2.752948-5.112966-10.61886152-12.978879-13.37180951-7.865914-2.75294799-26.350689 12.97887901-25.564341 22.02455781" fill="#f2dad4"/><path d="m162.037915.43890933c5.189896 1.29759576 12.978879 9.43909619 14.158644 13.37229637 1.179766 3.9327133 4.114328 14.1279694 3.932714 16.1247575-.392931 4.3266176-7.865427 10.225931-9.045679 8.2593309-1.179765-1.9666001-4.87487-8.6318115-5.112479-11.0122789-.393417-3.9327133-2.360017-7.8659135-5.112965-7.8659135-.786835 0-3.146365 3.5397828-3.539783 5.5063829-.469374 2.3458973 1.9666 7.0790787 3.539783 8.258844 1.573183 1.1802522 5.638333 3.4998568 6.292731 5.8998003 1.179765 4.3261307-1.179766 13.3718094-2.360018 14.5520616-1.179765 1.1797653-4.85442 3.7024084-7.079078 3.1463654-3.146366-.7868348-5.112966-5.5063828-7.025033-7.7466223-.802416-.9402091-2.414064-1.6929607-3.229139-2.8191667-.862305-1.1919379 8.486228-5.5351102 8.287571-7.9194728-.786834-9.4390962-3.528097-20.7532548-9.439096-20.0579577-6.686148.7863479-7.472496 7.0790787-11.799113 7.8659135-2.353688.4279875-12.192045 1.9666001-14.158645-10.225931-.626157-3.8825623 9.832514.3934174 18.878193-5.505896 2.375598-1.54932445 11.799113-12.58546156 22.811392-9.83251357" fill="#1c2b6b"/><path d="m145.068966 40.5593529c-.581362.5156299-2.453503-.6451461-4.182495-2.592757-1.728991-1.9480978-2.659462-3.9448859-2.0781-4.4610028.580875-.51563 2.453502.6451461 4.182494 2.5932439 1.728992 1.9476109 2.658976 3.9448859 2.078101 4.4605159" fill="#4ee2ff"/><path d="m139.470364 36.0888555c.276073.4445422.614471.9153771 1.003993 1.391568l.442108-3.298766c-.403643-.2916547-.778071-.5107609-1.104296-.6441723z" fill="#6ceeff"/><path d="m141.633624 34.7518206-.471322 3.5164115c.233226.2492942.467426.4849551.699679.7021137l.477165-3.5626672c-.237122-.2366347-.47327-.4547671-.705522-.655858" fill="#6ceeff"/><path d="m165.184281 61.0065893c0-2.0055524 3.146365-4.3261307 5.112965-6.2927308 1.966113-1.9666001 15.33841-11.0122789 15.731827-12.5854616s13.37181 4.3261307 18.091358 16.1252444c4.719548 11.7986267 10.225931 49.5550117-3.539296 74.7259347-13.765714 25.17141-24.777993 31.857071-25.17141 29.497541-.392931-2.360018 0-4.326131-4.326131-6.686148-4.326131-2.359531-12.585462-12.192045-14.552062-15.731827-1.966113-3.539783-11.012279-20.451376-10.225444-22.417976.786348-1.9666 8.652262-28.7107056 12.585462-36.5766191s7.472496-13.3718095 7.472496-15.731827c0-2.3595305-1.179765-2.7529479-1.179765-4.3261306" fill="#dd6900"/></g><path d="m0 5.89980029 53.0952812 12.58546161-7.0790787-8.2593309-40.11640221-10.225931z" mask="url(#t)" transform="translate(248.70066 117.035347)"/><g><path d="m269.545744 113.496002s-3.932713 3.539783-4.719548 6.686148l2.752948-.786834 5.112966-2.359531 3.539782-1.9666-1.573182-1.573183z" fill="#c6b3af"/><path d="m284.884154 111.529548c-1.966113-.786348-3.932713-1.179765-5.899314-.786348-1.9666.392931-5.899313-1.573182-7.865913-1.180252-1.9666.393417-8.652748 0-9.045679.393417-.393417.393418-.786835.786835-.786835 1.966601 0 1.179765 1.573183 1.573182 1.9666 1.573182.393418 0 7.865914.393418 9.832514 1.179766 0 0-3.539783.393417-5.506383 2.360017-1.966113 1.966113-5.112965 4.719548-5.112965 5.112479 0 .393417 0 1.9666.393417 1.9666h.786835s.39293.786835.786348.786835c0 0 1.9666-1.180253 2.360017-1.180253.392931 0-1.179765.786835-.786835 1.573183.393418.786835 1.179766 1.180252 1.966601 1.180252.786347 0 5.505896-2.360017 7.079078-1.9666 1.57367.393418 4.326618.786348 5.506383 1.573183 1.179765.786348 5.112966 1.573183 5.899314 1.179765.786834-.393417 4.461976-14.622176 4.461976-14.622176s-4.068559-.322816-6.035159-1.109651z" fill="#f2dad4"/><path d="m334.046381 76.1328401c-7.959886.9952292-10.225931 14.9454791-9.439096 20.4513751 0 0 7.472496 27.1375228 4.719548 27.1375228s-19.665027-6.686148-22.417975-7.472496c-2.752948-.786834-12.192044-5.112965-13.765227-5.112965s-5.112966 4.719548-6.292731 7.865913c-1.180252 3.146366-2.752948 10.618862-.786835 10.618862 1.9666 0 9.439096 0 11.012279 1.180252 1.573183 1.179765 12.192531 9.832027 18.091845 12.192044 5.899313 2.359531 27.137523 8.259331 30.676819 7.079079 3.539783-1.179765 8.259331-7.079079 8.259331-9.439096 0-2.359531-.392931-31.463654-2.752948-38.93615-2.359531-7.4724964-1.573183-27.530941-17.30501-25.5643409" fill="#ffac00"/><path d="m250.274232 122.935147-29.890471-46.8025504h8.227195c.265362 0 .512709.1343852.658292.3564128l26.173456 40.0302206c.19817.30334.164087.702601-.08326.967476z" fill="#4ee2ff"/><path d="m248.723788 122.920297-29.065658-45.4621077c-.366638-.5730845.044795-1.3253492.725485-1.3253492l29.890471 46.8025509c-.370533.556042-1.190477.547765-1.550298-.015094" fill="#1c80ff"/><path d="m234.265601 97.8690054 1.917423 3.0022426-2.748079-18.0110191-1.90379-2.9116782z" fill="#6ceeff"/><path d="m237.523029 102.969457 3.085989 4.832023-2.780214-18.2213605-3.063592-4.6854649z" fill="#6ceeff"/><path d="m300.558137 137.405068-51.210968-11.599483c-.374428-.06768-.64612-.393905-.64612-.773689v-2.096603l52.640027 12.295268c.570163.132924.799982.819944.425553 1.269355l-.463531.634921c-.181615.217646-.465966.320869-.744961.270231" fill="#1c80ff"/><path d="m79.0903359 115.20245h-72.04845658c-2.15162313 0-3.89522178-1.744085-3.89522178-3.895222v-54.7434465c0-2.1516232 1.74359865-3.8952218 3.89522178-3.8952218h72.04845658c2.1511363 0 3.8952218 1.7435986 3.8952218 3.8952218v54.7434465c0 2.151137-1.7440855 3.895222-3.8952218 3.895222" fill="#f0f2f5"/><path d="m8.65226138 60.534181h23.99115782v-3.5397828h-23.99115782z" fill="#d3d6db" mask="url(#u)"/><path d="m75.7379133 100.257215h-64.1640408c-1.61359564 0-2.92141635-1.3078212-2.92141635-2.9214168v-29.5540215c0-1.6131087 1.30782071-2.9214163 2.92141635-2.9214163h64.1640408c1.6135956 0 2.9214163 1.3083076 2.9214163 2.9214163v29.5540215c0 1.6135956-1.3078207 2.9214168-2.9214163 2.9214168" fill="#fff" mask="url(#u)"/><g fill="#d3d6db"><path d="m12.5854616 78.2326081h35.3968541v-1.5731827h-35.3968541z" mask="url(#u)"/><path d="m12.5854616 83.3455736h35.3968541v-1.5731827h-35.3968541z" mask="url(#u)"/><path d="m12.5854616 88.4580522h23.5977404v-1.5731827h-23.5977404z" mask="url(#u)"/></g><path d="m30.2056434 72.3331486h-15.5755312c-1.1291274 0-2.0445045-.9153771-2.0445045-2.0445045v-1.0234695c0-1.1296143.9153771-2.0449915 2.0445045-2.0449915h15.5755312c1.1291274 0 2.0445045.9153772 2.0445045 2.0449915v1.0234695c0 1.1291274-.9153771 2.0445045-2.0445045 2.0445045" fill="#ffac00" mask="url(#u)"/><path d="m51.8369298 72.3331486h-15.5755312c-1.1291274 0-2.0445045-.9153771-2.0445045-2.0445045v-1.0234695c0-1.1296143.9153771-2.0449915 2.0445045-2.0449915h15.5755312c1.1291274 0 2.0445046.9153772 2.0445046 2.0449915v1.0234695c0 1.1291274-.9153772 2.0445045-2.0445046 2.0445045" fill="#1c80ff" mask="url(#u)"/><path d="m95.3745053 49.1528299h1.1797653v-2.3595306h-1.1797653z" fill="url(#d)" mask="url(#u)"/><g mask="url(#u)"><path d="m0 4.92550794h2.35953059v-4.92550794h-2.35953059zm0 9.85150276h2.35953059v-4.92550791h-2.35953059zm0 9.8510159h2.35953059v-4.9255079h-2.35953059zm0 9.8510159h2.35953059v-4.9255079h-2.35953059zm0 9.8510159h2.35953059v-4.9255079h-2.35953059zm0 9.8510159h2.35953059v-4.925508h-2.35953059zm0 9.8515028h2.35953059v-4.925508h-2.35953059zm0 9.8510159h2.35953059v-4.925508h-2.35953059zm0 9.8510159h2.35953059v-4.925508h-2.35953059zm0 9.8515027h2.35953059v-4.9259948h-2.35953059z" fill="url(#e)" fill-rule="evenodd" mask="url(#v)" transform="translate(95.374505 54.078338)"/></g><path d="m95.3745053 154.949488h1.1797653v-2.359531h-1.1797653z" fill="url(#f)" mask="url(#u)"/><path d="m0 127.811965h2.35953059v-1.179766h-2.35953059z" fill="url(#g)" mask="url(#u)"/><g mask="url(#u)"><path d="m100.715341 2.35953059h4.57786v-2.35953059h-4.57786zm-9.1562054 0h4.5783463v-2.35953059h-4.5783463zm-9.1562057 0h4.5783463v-2.35953059h-4.5783463zm-9.1557188 0h4.5778594v-2.35953059h-4.5778594zm-9.1557188 0h4.5778594v-2.35953059h-4.5778594zm-9.1562057 0h4.5783463v-2.35953059h-4.5783463zm-9.1557188 0h4.5778594v-2.35953059h-4.5778594zm-9.1562057 0h4.5778594v-2.35953059h-4.5778594zm-9.1557188 0h4.5783463v-2.35953059h-4.5783463zm-9.1562057 0h4.5783463v-2.35953059h-4.5783463zm-9.1557188 0h4.5778594v-2.35953059h-4.5778594zm-9.1557188 0h4.5778594v-2.35953059h-4.5778594z" fill="url(#h)" fill-rule="evenodd" mask="url(#w)" transform="translate(6.937877 126.632199)"/></g><path d="m116.808937 127.811965h2.359531v-1.179766h-2.359531z" fill="url(#i)" mask="url(#u)"/><path d="m141.309395 2.3600175h1.179765v-2.3595306h-1.179765z" fill="url(#j)" mask="url(#u)"/><g mask="url(#u)"><path d="m0 4.92550794h2.35953059v-4.92550794h-2.35953059zm0 9.85101586h2.35953059v-4.92550791h-2.35953059zm0 9.8515028h2.35953059v-4.9255079h-2.35953059zm0 9.8510159h2.35953059v-4.9255079h-2.35953059zm0 9.8510159h2.35953059v-4.9255079h-2.35953059zm0 9.8510159h2.35953059v-4.925508h-2.35953059zm0 9.8515028h2.35953059v-4.925508h-2.35953059zm0 9.8510159h2.35953059v-4.925508h-2.35953059zm0 9.8510159h2.35953059v-4.925508h-2.35953059zm0 9.8515027h2.35953059v-4.9259948h-2.35953059z" fill="url(#k)" fill-rule="evenodd" mask="url(#x)" transform="translate(141.309395 7.285525)"/></g><path d="m141.309395 108.156676h1.179765v-2.359531h-1.179765z" fill="url(#l)" mask="url(#u)"/><path d="m235.503648 11.0122789h2.360018v-1.17976532h-2.360018z" fill="url(#m)" mask="url(#u)"/><g mask="url(#u)"><path d="m0 2.35953059h4.5778594v-2.35953059h-4.5778594zm9.1552319 0h4.5783463v-2.35953059h-4.5783463zm9.1562057 0h4.5783463v-2.35953059h-4.5783463zm9.1562057 0h4.5778594v-2.35953059h-4.5778594zm9.1562057 0h4.5778594v-2.35953059h-4.5778594zm9.1552319 0h4.5783463v-2.35953059h-4.5783463zm9.1562057 0h4.5778594v-2.35953059h-4.5778594zm9.1562057 0h4.5778594v-2.35953059h-4.5778594zm9.1557188 0h4.5783463v-2.35953059h-4.5783463zm9.1557188 0h4.5783463v-2.35953059h-4.5783463zm9.1562057 0h4.5778594v-2.35953059h-4.5778594zm9.1562054 0h4.57786v-2.35953059h-4.57786z" fill="url(#n)" fill-rule="evenodd" mask="url(#y)" transform="translate(125.633075 9.832514)"/></g><path d="m118.695198 11.0122789h2.359531v-1.17976532h-2.359531z" fill="url(#o)" mask="url(#u)"/></g></g></svg>