<svg height="281" viewBox="0 0 300 281" width="300" xmlns="http://www.w3.org/2000/svg"><g fill="none" fill-rule="evenodd"><g fill="#c9d5ff"><path d="m243.879466 120.260971h-242.88723903c-.54770929 0-.99222697-.444518-.99222697-.992227s.44451768-.992227.99222697-.992227h242.88723903c.54771 0 .992227.444518.992227.992227s-.444517.992227-.992227.992227"/><path d="m243.879466 102.992253h-242.88723903c-.54770929 0-.99222697-.442534-.99222697-.992227 0-.54771.44451768-.992227.99222697-.992227h242.88723903c.54771 0 .992227.444517.992227.992227 0 .549693-.444517.992227-.992227.992227"/><path d="m243.879466 85.725519h-242.88723903c-.54770929 0-.99222697-.4445177-.99222697-.992227 0-.5496938.44451768-.992227.99222697-.992227h242.88723903c.54771 0 .992227.4425332.992227.992227 0 .5477093-.444517.992227-.992227.992227"/><path d="m242.841597 68.4568008h-241.84937003c-.54770929 0-.99222697-.4445177-.99222697-.9922269 0-.5477093.44451768-.992227.99222697-.992227h241.84937003c.547709 0 .992227.4445177.992227.992227 0 .5477092-.444518.9922269-.992227.9922269"/><path d="m243.879466 51.1880827h-242.88723903c-.54770929 0-.99222697-.4425332-.99222697-.992227 0-.5477093.44451768-.992227.99222697-.992227h242.88723903c.54771 0 .992227.4445177.992227.992227 0 .5496938-.444517.992227-.992227.992227"/><path d="m243.879466 31.7622631h-242.88723903c-.54770929 0-.99222697-.4445177-.99222697-.9922269 0-.5496938.44451768-.992227.99222697-.992227h242.88723903c.54771 0 .992227.4425332.992227.992227 0 .5477092-.444517.9922269-.992227.9922269"/></g><path d="m145.359266 64.09894v66.183523z" fill="#fff"/><path d="m145.359266 131.272706c-.547709 0-.992227-.442534-.992227-.992227v-66.181539c0-.5477093.444518-.992227.992227-.992227.549694 0 .992227.4445177.992227.992227v66.181539c0 .549693-.442533.992227-.992227.992227" fill="#c9d5ff"/><path d="m1.71655265 99.1979767c-.29965254 0-.59533618-.1349429-.78981266-.3909374-.33338826-.4345954-.2500412-1.057714.18653867-1.3891178 2.98660317-2.2801375 5.36397898-5.3084142 7.66396109-8.2354838 3.57003265-4.546384 7.26111695-9.2455709 13.31767035-11.3232941 9.4400474-3.2366444 19.4119284 1.464527 28.2090127 5.6140201l1.6609879.7818749c10.0611815 4.7091092 19.04282 7.2730237 27.4569047 7.8326397 10.4064764.6905899 20.1878498-1.8296666 26.8337856-6.9197909 4.748799-3.6375041 8.060852-8.7375507 11.265745-13.6709032 5.173472-7.9675825 10.52356-16.2090197 22.021486-18.8562812 11.2459-2.5817746 22.765655 2.3337178 32.681972 7.148003 14.430949 7.0071069 26.821879 10.7220046 40.381653 6.1021959 13.474442-4.5920264 22.09491-15.8180823 30.457399-27.8994379.311559-.4524555.928724-.5655694 1.38118-.2520256.450471.3115592.5616.9307089.250041 1.3811799-6.85232 9.9024251-16.238787 23.4661678-31.449626 28.647577-15.038192 5.127829-29.020654.0535803-41.887854-6.1934807-9.61071-4.6674357-20.751435-9.4440163-31.370248-6.9991691-10.716051 2.4666763-15.615668 10.0135546-20.80303 18.0009817-3.294194 5.0742487-6.701501 10.3231294-11.720185 14.1670166-7.022983 5.3798546-17.2965006 8.0548985-28.1732926 7.3246195-8.6661103-.5774761-17.8779455-3.2009242-28.1653547-8.0152094l-1.6689257-.7838594c-8.4537738-3.9907368-18.0386863-8.5113229-26.7186878-5.5326575-5.5009063 1.8872157-8.852649 6.1537916-12.4008527 10.6723932-2.37539132 3.0243078-4.83214529 6.1537917-8.02116276 8.5867322-.17860085.1369273-.39093742.2024143-.59930509.2024143" fill="#c9d5ff"/><path d="m243.879466 131.272706h-242.88723903c-.54770929 0-.99222697-.442534-.99222697-.992227v-113.937423c0-.5477092.44451768-.9922269.99222697-.9922269.54770928 0 .99222696.4445177.99222696.9922269v112.945196h241.89501207c.54771 0 .992227.444517.992227.992227 0 .549693-.444517.992227-.992227.992227" fill="#c9d5ff"/><path d="m150.723245 54.5358565c0 2.9627897-2.401189 5.363979-5.363979 5.363979-2.960805 0-5.361994-2.4011893-5.361994-5.363979 0-2.9627898 2.401189-5.363979 5.361994-5.363979 2.96279 0 5.363979 2.4011892 5.363979 5.363979" fill="#c9d5ff"/><path d="m154.924334 54.5358565c0 5.2826163-4.282451 9.5630835-9.565068 9.5630835-5.280632 0-9.563083-4.2804672-9.563083-9.5630835 0-5.2826164 4.282451-9.5630835 9.563083-9.5630835 5.282617 0 9.565068 4.2804671 9.565068 9.5630835" fill="#fff"/><path d="m145.359266 45.9649999c-4.724985 0-8.568872 3.8438873-8.568872 8.5708566 0 4.7269692 3.843887 8.5708565 8.568872 8.5708565 4.72697 0 8.572841-3.8438873 8.572841-8.5708565 0-4.7269693-3.845871-8.5708566-8.572841-8.5708566zm0 19.126167c-5.818419 0-10.553326-4.734907-10.553326-10.5553104s4.734907-10.5553105 10.553326-10.5553105c5.822388 0 10.557295 4.7349071 10.557295 10.5553105s-4.734907 10.5553104-10.557295 10.5553104z" fill="#c9d5ff"/><path d="m147.589792 54.5358565c0 1.2323459-.996195 2.2305262-2.230526 2.2305262-1.230361 0-2.228542-.9981803-2.228542-2.2305262s.998181-2.2305263 2.228542-2.2305263c1.234331 0 2.230526.9981804 2.230526 2.2305263" fill="#fff"/><path d="m164.705708 33.4907225h-38.690899c-2.933023 0-5.312383-2.3773758-5.312383-5.3103987v-14.2682238c0-2.9330229 2.37936-5.3123832 5.312383-5.3123832h38.690899c2.933023 0 5.312383 2.3793603 5.312383 5.3123832v14.2682238c0 2.9330229-2.37936 5.3103987-5.312383 5.3103987" fill="#c9d5ff"/><path d="m147.157182 38.7495254 3.03423-5.2588029h-9.664291l3.038199 5.2588029c.795766 1.3831644 2.792127 1.3831644 3.591862 0" fill="#c9d5ff"/><path d="m270.590216 110.697887-4.584088 6.632045 1.099387 14.530172s5.203238-4.758721 4.155447-9.465845l6.673718-5.280632s-4.713078-5.348104-7.344464-6.41574" fill="#ffcec8"/><path d="m250.628594 39.5353692-9.475767 6.3026257-10.652549-5.6100513 1.19861-.9346778z" fill="#ffcec8"/><path d="m211.536836 274.147436.787828-6.963449-9.668259-1.522076-1.023979 5.371916v3.113609l3.490655 2.085661h3.091779z" fill="#ffcec8"/><path d="m211.536836 274.147436v4.32214l-25.180736-.069456v-.355217c0-.928724.567554-1.756242 1.4169-2.057879l13.859426-4.953197 2.113444 2.565899s3.27038 2.462708 7.790966.54771" fill="#426bff"/><path d="m186.3561 278.40012v1.585579l25.180736.005953v-1.522076z" fill="#426bff"/><path d="m261.65422 274.147436v-5.292539h9.90441v5.292539l-3.48867 2.085661h-3.093764z" fill="#ffcec8"/><path d="m271.560614 272.377303v1.770133l-3.490654 2.085661h-3.093764l-3.321976-2.085661v-1.770133z" fill="#426bff"/><path d="m263.408477 272.881354h6.395895c2.407143 0 4.359846 1.950718 4.359846 4.355876v2.754422h-15.113601v-2.754422c0-2.405158 1.952702-4.355876 4.35786-4.355876" fill="#426bff"/><path d="m259.050617 279.991652h15.113601v-1.54192h-15.113601z" fill="#426bff"/><path d="m265.492154 103.905101 8.219608 165.932101h-17.028599l-14.569861-135.905328-4.371752-.442533-21.910356 138.457335-16.677351-3.510499 15.060021-164.531076z" fill="#426bff"/><path d="m228.428508 39.7774726 3.27038-.4842068 9.638493 5.6497404 9.291213-5.407637 3.464857.6290719 10.086979 1.9765161c6.409786.9525379 10.444181 3.9708923 14.851653 8.5609343l16.19116 22.7815311c5.897797 6.1537917 6.346284 15.8915071 1.277988 22.702153l-19.165856 23.8412294-9.193975-8.408131 11.720185-18.7034784c3.202909-3.7903071 3.953032-7.5508473-.635025-12.8017124l-9.436079-11.6527135-.756077 39.7089233-59.27167 5.983129 1.583594-45.5253581-16.681319 6.763019c-2.984619-5.6318803-3.302132-11.4661749-.835455-20.0667982z" fill="#fda74c"/><path d="m188.423901 37.0786152-.430626-5.1536269s1.095418-1.7026614.506035-3.5184368c-.404828-1.250206-.952538-3.1929864-1.256159-4.2864205-.125021-.450471-.642963-.6449475-1.156937-.4345954l-.091285 1.1390766-2.559945-6.1776051c-.11113-.2698858-.474285-.3393417-.777906-.1488341-.23615.1488341-.36514.4147509-.305606.6409786l1.301802 5.084171c-.057549-.0158756-.462378-.1210517-.916818.1408963-.428642.2460722-.577476.6310563-.601289.6945588.013891.1369273.027782.2718702.043658.4068131-.283777-.0734248-.607243.0059533-.827518.2083676-.174632.1607408-.230196.3472795-.246072.4207043-.039689.2837769-.077394.5675538-.117083.8513307-.162725-.2004298-.474284-.2460723-.756077-.1111294-.27187.130974-.458409.4008597-.456424.6667765-.273855 1.1291543-.543741 2.2583086-.815611 3.3854784l2.294029 4.5721819 1.389118 4.2090268z" fill="#ffcec8"/><path d="m194.665009 75.3904829c-1.752273.257979-3.472795-.0099223-5.020669-.7024967-2.696873-1.2045636-4.850005-3.7089444-5.689429-6.9455888l-4.613856-29.6477418 10.991891-2.4686607 7.598474 38.3198055c-1.121217.8255328-2.222589 1.293864-3.266411 1.4446825" fill="#fda74c"/><path d="m235.114133 34.9731096.174632 4.8539743 12.142874 1.272035-.05358-1.0557295-.460394-11.5177706s4.736892-3.3676184 3.58194-7.1995989c0 0-.333389-3.5184368-3.349759-1.5002472l-.331403-9.3110579-16.659491.9981804-.488176 10.6287352s-1.276004 12.8652149 5.443357 12.8314792" fill="#ffcec8"/><path d="m246.641826 20.7664039s-.686621-8.6065767-6.634029-8.2017481c-5.947409.406813-8.983623 3.4608876-9.961959 9.4261561l-.531834 1.3454598s-4.28642.3413261-4.455099-4.4293012c-.170663-4.7706272 3.056059-5.4731239 3.056059-5.4731239s-3.024308-11.85314337 7.332557-13.23630776c0 0 7.566723-2.13924134 10.083011 7.66197664 0 0 4.584089-5.24491175 8.453774 1.45262028 3.869685 6.69753204-3.484701 12.01388414-3.484701 12.01388414s-1.200595-3.5422503-3.857779-.559616" fill="#384b61"/><path d="m235.114133 34.9731096s3.220769-.0555647 5.768808-2.3674536c0 0-1.587563 3.8756386-5.68943 4.5979798z" fill="#ff897a"/></g></svg>