<svg height="331" viewBox="0 0 170 331" width="170" xmlns="http://www.w3.org/2000/svg"><g fill="none" fill-rule="evenodd"><path d="m67.9592363 159.958102h96.6494347c2.3735 0 4.29553-1.922031 4.29553-4.295531v-150.27124199c0-2.37349972-1.92203-4.29553043-4.29553-4.29553043h-96.6494347c-2.3713081 0-4.2955304 1.92203071-4.2955304 4.29553043v150.27124199c0 2.3735 1.9242223 4.295531 4.2955304 4.295531" fill="#fff"/><path d="m67.9592363 2.19159716c-1.7642357 0-3.1997319 1.43330454-3.1997319 3.19973185v150.27124199c0 1.766428 1.4354962 3.199732 3.1997319 3.199732h96.6494347c1.764236 0 3.199732-1.433304 3.199732-3.199732v-150.27124199c0-1.76642731-1.435496-3.19973185-3.199732-3.19973185zm96.6494347 158.86230284h-96.6494347c-2.9739974 0-5.391329-2.417331-5.391329-5.391329v-150.27124199c0-2.97399734 2.4173316-5.39132901 5.391329-5.39132901h96.6494347c2.973997 0 5.391329 2.41733167 5.391329 5.39132901v150.27124199c0 2.973998-2.417332 5.391329-5.391329 5.391329z" fill="#c9d5ff"/><path d="m114.699429 92.991659c-13.053153-.135879-23.7437637 10.335572-23.8818343 23.388725-.1358791 13.053153 10.3355723 23.743764 23.3865333 23.879643 13.053153.135879 23.745955-10.335573 23.881834-23.386534.135879-13.053152-10.335572-23.7459549-23.386533-23.881834" fill="#c9d5ff"/><path d="m113.724168 117.92546.300249-28.7230724c15.61513.4558522 28.054635 13.3292934 27.892457 29.0167464z" fill="#c9d5ff"/><path d="m114.616148 117.055396 26.413129.273949c-.304632-14.379068-11.779835-26.323273-26.132604-27.2064866zm-1.779577 1.740128.317782-30.4982661.896363.0241076c16.016192.4690018 28.91155 13.8837675 28.744988 29.9065345l-.008766.881022z" fill="#fff"/><path d="m133.435393 70.2231562h17.026518v-33.0207944h-17.026518z" fill="#c9d5ff"/><path d="m116.476814 70.2231562h17.02871v-7.4821127h-17.02871z" fill="#e3e9ff"/><path d="m94.5192023 70.2231562h17.0265187v-29.051812h-17.0265187z" fill="#c9d5ff"/><path d="m77.5584318 70.2209646h17.02871v-16.995836h-17.02871z" fill="#e3e9ff"/><path d="m164.37417 72.046565h-95.9590815v-2.1915972h95.9590815l-.006575 1.0957986z" fill="#c9d5ff"/><path d="m62.5350333 310.952571 8.6151685 14.793281 5.3080483.127113 3.6051773 2.106125c.3901043.227926.6552876.635563.6969279 1.071691.0679395.67282-.4120203 1.205378-1.0673078 1.187845l-9.3756527-.241075-6.6712217-10.206268s-1.4004306-.931429-1.5122021.471193c-.0876638 1.11114.5500909 6.44987.8196574 8.623935.0635563.506259-.2651833.913896-.7254187.902938-.4361278-.01315-.8349985-.403254-.8985548-.887597l-1.3018087-9.778907s-3.0156377-6.649305 2.5071871-8.170274" fill="#ff6652"/><path d="m71.1502018 325.745852 5.3080483.127113-5.2576416-23.17614-8.6655752 8.255746z" fill="#ffcec8"/><path d="m33.169823 221.680053c1.0848406 3.876935 22.3674406 64.79457 29.3652103 89.272518l9.1258106-6.224136s-13.4717477-82.404053-13.9232168-83.160154z" fill="#ffcec8"/><path d="m22.2469028 310.88244 8.4946305 14.86122 5.3058568.173137 3.5898361 2.134615c.3879127.230118.6509044.642138.6881615 1.076074.0613647.675012-.4229782 1.203187-1.0782658 1.17908l-9.373461-.317782-6.5857495-10.261058s-1.3916642-.942386-1.5165852.460236c-.0986219 1.111139.4974925 6.452062.7473346 8.628318.0613647.50845-.271758.913896-.7298018.896363-.4383195-.01315-.832807-.409829-.8919801-.89198l-1.2229112-9.792056s-2.9586562-6.673414 2.5729351-8.146167" fill="#ff6652"/><path d="m30.7415333 325.74366 5.3058568.173137-3.7607808-23.219972-10.0397065 8.185615z" fill="#ffcec8"/><path d="m33.4108987 258.152613.021916.002191c0-.039449 0-.081089 0-.122729-.0613648-17.269786 5.5754231-43.408965.4799597-47.509444l-22.343333 10.89443c.190669 1.911073 2.2157047 17.026518 4.5672885 35.056788-.0043832.098622-.0065748.199435-.010958.300249l17.278552 1.428921c.0021916-.017533.0043832-.035065.0065748-.050406" fill="#ffcec8"/><path d="m32.2866093 302.696825c1.3609819-25.972618.0284908-23.592544 1.2798928-46.203252l-17.3311503.427362c1.4113885 19.80108 5.4110533 40.724258 6.011551 53.961505z" fill="#ffcec8"/><path d="m0 241.987392c4.47962459-5.222576 3.76954711-10.190927 5.37379623-17.416623 3.13398394-14.111694 3.20192345-28.674857 4.04349676-43.106524.83938171-14.429476 2.85126791-29.233715 10.04408981-41.774034.6158388-1.073882 1.3149583-2.176256 2.4041821-2.763604 1.4004305-.756101 3.1054931-.498699 4.6724851-.221351 5.0231407.885405 19.150176 2.789903 19.150176 2.789903s3.6314765 29.338911 6.5747914 39.439983c0 0 10.1383285 31.589681 11.9179054 53.339091 0 0-13.8793848-7.355-41.7849914 8.494631 0 0-8.6896828 3.734481-17.33334196 2.358158z" fill="#ff6652"/><path d="m28.6310253 237.494618 3.4583403-11.218786 2.1368072 11.700937z" fill="#ffcec8"/><path d="m49.5958437 54.9279996c-1.3127667-3.7695471-2.8249687-5.0998466-3.6205185-6.6887545l-16.9454292.3396975-2.1258493 14.0569042-2.9805721 20.2415914 14.2541479.2016269.5259833-8.5384625s.1051967.0284907.2739497.0745143c1.1199061.3199731 2.2989854.4054454 3.4276579.6837783 1.2492104.3068236 2.480888.7144607 3.7717387.8152741.3681884.0284908.7736338.021916 1.0629247-.2060101.2016269-.157795.3177815-.3988707.4207866-.63118 1.1396305-2.5422527 1.8672408-5.3759878 1.9987366-8.1636994.2038186-4.3042968-.0635563-12.1852802-.0635563-12.1852802" fill="#ffcec8"/><path d="m34.3094535 65.1474171c-1.7050626.528175-3.2501386.4273615-3.8813185-1.6108239-.63118-2.0381853-.1117715-5.2401088 1.5932911-5.7682837 1.702871-.5303665 3.5986025.6947363 4.2297825 2.7329217.63118 2.0381853-.2388841 4.118011-1.9417551 4.6461859" fill="#ffcec8"/><path d="m22.8583584 56.3087058s-.4207867 11.424796-12.2641777 19.2838634c-11.84339108 7.861259-10.5941807 29.1241348 8.2776624 32.0718328l-.3988706-18.4685892s1.4333045-6.1561965 5.6477458-7.6530573c0 0 8.0563112-1.7751937 8.6655752-12.8076938 0 0-1.2535936-4.7119339 3.7783135-6.2811175 5.0319071-1.5669919 7.9291985-5.7880081 7.2936353-10.9689437l-10.6292462 2.5641686z" fill="#ff6652"/><path d="m18.0938261 90.9359409 1.3741315 29.4769821-4.8741121 19.963258 31.0943805-.881022c-.2301177-5.739793 3.0813856-28.878676 3.0813856-28.878676l1.5735667-1.209761c1.9066896-1.466179 3.5153219-6.03785 3.5153219-6.03785l-10.3881706-13.5287297s-2.7394964-4.4401758-7.7604455-3.960216z" fill="#384b61"/><path d="m38.131599 82.6517036 5.3387306 7.1884387s-4.2495068 3.2282226-7.7604455-3.960216c0 0-.6991195-1.9636711-2.4282896-2.9608478z" fill="#ffcec8"/><path d="m76.3925022 111.922675-2.6803234-5.251066-34.8968015 17.574417 2.3647333 8.106718c.8591061 2.94989 4.3919607 4.146502 6.8706571 2.329668z" fill="#ffcec8"/><path d="m32.8673826 106.09741c-1.1396305-.050407-2.132424-.276141-3.2610966-.407637-3.7300983-.436128-.6246052 2.169681-3.4955975 4.661527l16.0293417 23.728423 13.3271023-4.828089-13.3424435-25.621962c-3.1800075 1.803684-5.8471812 2.616767-9.2573064 2.467738" fill="#ffcec8"/><path d="m25.1157034 81.1658008c-3.5854529.8875968-6.8114839 4.1596514-7.0657092 7.9949464-.135879 2.0250358.3966791 4.025964.9226624 5.9830602 1.071691 3.9777489 2.143382 7.9554976 3.215073 11.9354386.5369413 1.996545 1.0629247 4.001856 1.5976744 5.998401.146837.547899 1.0892238 2.625533.7254186 3.094535 3.2084983-4.142118 8.2645129-7.074475 13.5243461-6.094832 1.1527801.212585 2.4830796.821849 3.6270933 1.093607 4.3349792 1.025668 3.0638528.53475 6.642731-1.847516-2.0250358-3.077002-.3725715-6.013743-2.3997989-9.092937-1.7225954-2.6167666-3.5460042-5.1918932-5.2970903-7.7626367-3.3334193-4.8982196-6.4915108-11.7776431-13.5002385-11.5760162-.675012.0197244-1.3412575.1117715-1.9921619.2739497" fill="#384b61"/><path d="m47.0338666 110.945223c-.0679395.059173-.1512202.107388-.2432673.135879-.3440807.10958-.7144606-.081089-.8240405-.427361l-3.6358597-11.5431427c-1.1440137-3.6380513-2.8622259-7.0481765-5.1042298-10.1339453l-2.9235906-4.0281555c-.2125849-.2936741-.1599866-.7122691.1446454-.9182792.2914825-.212585.7035027-.1468371.9182792.146837l2.9235907 4.0281555c2.3230929 3.1997319 4.107053 6.7369697 5.2948987 10.5130916l3.6358597 11.5409506c.0810891.252034-.0021916.517217-.1862858.68597" fill="#212b38"/><path d="m22.8583584 56.3087058s-.5610489-9.9761503 7.9248153-12.632366c8.4880558-2.6584074 19.3583777-.2520337 19.0734701 8.6590003-.2849077 8.9088425-6.3074167 14.8217716-17.0703503 16.3997216l-7.6662069 2.5817014z" fill="#ff6652"/><path d="m73.7121788 106.671609 2.3187098-2.64745s.4361279-1.871624 2.334051-2.842501c1.3018087-.668438 3.2632882-1.7554697 4.3612783-2.3691169.4536607-.2542253 1.0278591-.0898555 1.2798928.3638051l-.8130826.8766388 6.8947647-2.9739973c.304632-.1314958.653096.0306824.7517178.3462724.0745143.2476505-.0284907.5150253-.2520336.6443296l-5.0209491 2.9170153c.0569815.021916.4690018.181903.6355631.637755.1556034.429553-.0241075.79555-.0569815.854723-.113963.089856-.2323093.179711-.3506555.269567.2892908.111771.4887261.35723.5106421.633371.0175328.21916-.0832807.385721-.1271126.449278-.190669.227926-.3813379.455852-.5720069.683778.2914824-.050407.5807733.098622.7056943.361613.1161546.252034.0569815.558858-.1512202.749527-.6596707.977452-1.3171499 1.952713-1.9768206 2.927973l-5.4307778 1.968055-2.3603501 1.40043z" fill="#ffcec8"/><g fill="#ff9d91"><path d="m78.7528523 102.511957c-.0591731 0-.1183462-.026299-.1621782-.074514-.0810891-.089856-.0723227-.227926.0175328-.309015.0394487-.035066.9577279-.848149 2.3888409-1.312767 1.3412575-.43832 1.9549047-.9007465 1.9592878-.9051297.0964303-.0767059.2345009-.0569816.3090152.0394487.0723228.09643.05479.234501-.0394487.306824-.0262992.021916-.6684371.512833-2.0929753.97526-1.3390659.436128-2.2244711 1.214145-2.2332375 1.222912-.0416403.037257-.0942387.056981-.146837.056981"/><path d="m83.8351661 102.319097c-.0723227 0-.1446454-.035066-.1840942-.100814-.0679395-.103005-.0372571-.238884.065748-.30244l1.7313617-1.113332c.1051967-.065748.2388841-.035065.3024404.065748.0657479.100814.0350656.236693-.0679395.302441l-1.7313617 1.113331c-.0350656.021916-.0767059.035066-.1161547.035066"/><path d="m84.2033544 104.449329c-.0591731 0-.1183462-.024108-.1621782-.070131-.0810891-.087664-.0767059-.227926.010958-.309015l1.5932912-1.48152c.0898554-.081089.2279261-.078898.3112068.010958.0810891.087664.0767059.227926-.010958.309015l-1.5932912 1.48152c-.0416403.039449-.0964302.059173-.1490286.059173"/><path d="m84.1836301 106.57737c-.0482152 0-.0942387-.015341-.1358791-.046024-.0942386-.074514-.1117714-.212585-.0372571-.306823l1.4223465-1.843134c.0723227-.09643.2082018-.116154.3090152-.039448.0942387.074514.1139631.212585.0372572.306823l-1.4223466 1.843134c-.0438319.054789-.1073882.085472-.1731361.085472"/></g></g></svg>