<svg height="409" viewBox="0 0 650 409" width="650" xmlns="http://www.w3.org/2000/svg" xmlns:xlink="http://www.w3.org/1999/xlink"><defs><path id="a" d="m.15733716 5.88539299c5.41443248-2.86301574 18.37726514-8.85083177 24.35275864-4.13230532 0 0 8.9009218 9.91152113 18.9129565 3.12466384l6.9234247-1.36458222c.9920262-.53425196 2.1435631-.92865883 3.5190707-1.11985329 4.3035143-.59652673 7.4751574.95487978 10.9341384 6.33673085l2.2600429 5.56007925c-7.276258 9.0511515-18.4402946 14.8441941-30.9577859 14.8441941-16.0236741 0-29.83080096-9.4947361-36.1019431-23.16519743"/><mask id="b" fill="#fff"><path d="m79.3992376 39.6985262c0-21.9250887-17.7734375-39.6985262-39.6996188-39.6985262-21.9250888 0-39.6996188 17.7734375-39.6996188 39.6985262 0 21.9250888 17.77453 39.6985263 39.6996188 39.6985263 21.9261813 0 39.6996188-17.7734375 39.6996188-39.6985263" fill="#fff" fill-rule="evenodd"/></mask><mask id="c" fill="#fff"><path d="m79.398145 39.6996188c0-21.9250888-17.7734375-39.6996188-39.6996188-39.6996188-21.9239962 0-39.6985262 17.77453-39.6985262 39.6996188 0 21.9250887 17.77453 39.6996188 39.6985262 39.6996188 21.9261813 0 39.6996188-17.7745301 39.6996188-39.6996188" fill="#fff" fill-rule="evenodd"/></mask><mask id="d" fill="#fff"><use fill="#fff" fill-rule="evenodd" xlink:href="#a"/></mask><mask id="e" fill="#fff"><path d="m79.3992376 39.6985262c0-21.9250887-17.7734375-39.6985262-39.6996188-39.6985262-21.9250888 0-39.6996188 17.7734375-39.6996188 39.6985262 0 21.9261813 17.77453 39.6996188 39.6996188 39.6996188 21.9261813 0 39.6996188-17.7734375 39.6996188-39.6996188" fill="#fff" fill-rule="evenodd"/></mask><mask id="f" fill="#fff"><path d="m6.1925156 14.6072572c-1.74915622-5.27478221-3.67421136-9.76075064-6.1925156-14.6072572l1.15481457.01748064c2.53687742 4.76019591 4.09483918 9.84706123 5.03770103 14.58977656z" fill="#fff" fill-rule="evenodd"/></mask><mask id="g" fill="#fff"><path d="m.19447209 1.23894014c-.06555239-.21086019-.13001224-.41844275-.19447209-.62602531l.77351818-.61291483s.26002447.12017938.63913578.45777418z" fill="#fff" fill-rule="evenodd"/></mask><mask id="h" fill="#fff"><path d="m38.0433284 19.0222105c0 10.5058627-8.5163477 19.0211179-19.0211179 19.0211179-10.50586274 0-19.0222105-8.5152552-19.0222105-19.0211179 0-10.50586274 8.51634776-19.0222105 19.0222105-19.0222105 10.5047702 0 19.0211179 8.51634776 19.0211179 19.0222105" fill="#fff" fill-rule="evenodd"/></mask></defs><g fill="none" fill-rule="evenodd"><path d="m372.102668 335.993135h-255.7734v-306.5699456c0-15.6888715 12.078027-29.04517063 27.766899-29.04517063l228.006501.63913579z" fill="#83a2c6"/><path d="m372.102668 335.993135h-251.05035l40.327829-332.43254779 210.722521 27.90892929z" fill="#7a94b8"/><path d="m478.486547 27.3134951c0-15.0846971-12.229891-27.3134951-27.313495-27.3134951h-282.699044v.18463923l-26.955142-.13656748c16.47113 0 26.889589 11.62790115 26.889589 25.67468535l.065553-.0786629v319.9229678c0 21.118794 17.120098 38.238893 38.238893 38.238893h207.313797l65.58298-.911178z" fill="#d4e3ed"/><path d="m270.083487 67.5757718c0-21.9250887-17.773438-39.6985262-39.699619-39.6985262-21.925089 0-39.699619 17.7734375-39.699619 39.6985262 0 21.9250888 17.77453 39.6985262 39.699619 39.6985262 21.926181 0 39.699619-17.7734374 39.699619-39.6985262" fill="#bbccda"/><g transform="translate(190.684249 27.877246)"><path d="m123.12268 46.5258075-5.802478 15.2715213c-3.953902 9.8623568-13.881811 20.0360875-23.0569604 16.7082112l-29.3106578-10.6325973c-3.3202285-1.604941-6.7726543-2.7466451-10.0284229-3.0536488-.20649-.0732002-.3266694-.111439-.3266694-.111439l-8.0257974-3.9320508-17.5221533 3.3125807-6.2121813 4.6290911c-15.59709823 2.9870038-48.7272752 13.4786636-48.7272752 13.4786636 6.8480395 4.845414 12.7575873 13.6720431 12.7575873 13.6720431s-1.2859194 2.1064167-3.0776846 5.0540894c4.6869957 5.905177 9.88420755 11.979699 18.16893687 15.611301 1.89555655.83033 5.75986983 1.743693 8.11975583 2.462585l-5.94560163 61.642188 64.57237993 1.042283s9.8437836-43.860011 11.7273222-71.907692l1.151537.435923c15.070494 5.287893 31.6628958-.083033 43.0657338-12.9804654 9.305162-10.5255284 13.897106-44.288286 13.897106-44.288286z" fill="#49bdb2" mask="url(#b)"/><path d="m45.6681637 45.4758767 2.6242806 19.0713748s-25.198338 20.3103149-23.716854 3.9779374l3.1902162-22.3795853z" fill="#e8847a" mask="url(#b)"/><path d="m43.9954853 25.7380527 2.2080229 21.067445s-20.9713015 25.9882442-19.1281868.5888789l4.4564698-22.2604985z" fill="#0d1024" mask="url(#b)"/><path d="m22.0933399 34.9197572 3.6403426-1.0248024.8467183 4.337383-3.63925 1.0248024c-1.1209459.315744-2.2189484-.3987771-2.4527519-1.5972932-.234896-1.1963311.4839951-2.4232533 1.604941-2.7400898" fill="#e8847a" mask="url(#b)"/><path d="m22.0933399 34.9197572.1671586.5943416 2.9957441-.8434407.6096372 3.1213862-3.0918876.8707542c-.1256421.0360538-.2480066.0524419-.3660009.0524419-.6107297-.0032776-1.1635548-.4315532-1.3143253-1.1733877-.0218508-.1136242-.0327762-.2261558-.0327762-.3397799-.0043702-.7767958.5200489-1.5055198 1.1996087-1.687974l-.1671586-.5943416-.1671586-.5932492c-1.2760865.368186-2.0954914 1.5776275-2.0998615 2.8755648 0 .1911945.0185732.384574.0557195.576861v-.0010925c.2414513 1.2717163 1.3023075 2.1741542 2.525952 2.1708855.2316185 0 .4676071-.0316926.7003181-.097245l4.187705-1.179943-1.0859845-5.5522872-4.2838486 1.2072564z" fill="#e8847a" mask="url(#b)"/><path d="m22.4189167 36.0166671 1.5033348-.4228129.3496127 1.7895802-1.5022422.4239055c-.4632369.1300122-.9166409-.163881-1.0127844-.6588016-.0961435-.4949205.1999348-1.0007664.6620791-1.1318712" fill="#b85c44" mask="url(#b)"/><path d="m50.8402471 33.7627575-3.70808.5047534-.3059112-4.4499146 3.7080801-.5047534c1.1417041-.1551407 2.1359153.714521 2.2200409 1.9436283.0852181 1.2291073-.7724257 2.3511457-1.9141298 2.5062863" fill="#e8847a" mask="url(#b)"/><path d="m50.8402471 33.7627575-.083033-.6118223-3.0547413.4162577-.220693-3.2164372 3.1355892-.4271831.1791766-.0120179c.6817448.0021851 1.2760864.5408072 1.3416388 1.3875255l.0043702.1256421c.0043702.8729393-.6413209 1.6377172-1.3853405 1.7262129l.1660661 1.2236446c1.4355973-.20649 2.4494742-1.5000572 2.4538444-2.9498575l-.0065553-.2108602c-.0895882-1.4213942-1.1996087-2.5379699-2.5740237-2.5368782-.1147167 0-.2294334.0087411-.3452426.0240367l-4.280571.5823237.3911293 5.6844846 4.3614189-.5932491z" fill="#e8847a" mask="url(#b)"/><path d="m50.6883841 30.7353297-1.5328333.1802691.097236 1.8409295 1.5328334-.180269c.4719772-.0557196.8325153-.5124012.8052018-1.0215247-.026221-.5069385-.4304607-.8740319-.9024379-.8194049" fill="#b85c44" mask="url(#b)"/><path d="m36.7661494 50.204389-.0797554.0185732c-8.7457811.3692784-12.4626015-5.5184186-12.6068168-12.9706326l-.0109254-.5692132c-.1442152-7.452214 3.8981821-19.3663605 10.8030336-19.9093528l-.0196657-.0786629c6.9048515-.5429923 14.0762828 10.5725077 14.2194055 18.0225366l.0120179.5692132c.1431228 7.452214-2.4986385 14.287143-12.3172937 14.9175385" fill="#e8847a" mask="url(#b)"/><path d="m36.7661494 50.204389-.1453078-.5998044-.0786628.0185732.1442152.5998044-.0251284-.6161925c-.2523767.0109254-.5003832.0152956-.7440196.0152956-3.9571792-.0076478-6.6590301-1.3634897-8.4628133-3.5562171-1.7994131-2.196005-2.6909255-5.3031882-2.7575705-8.8255365l-.0120179-.5692132c-.0021851-.1245496-.0032776-.2501917-.0032776-.3780188-.0032777-3.6261396.9887485-8.3142279 2.7990869-12.0944156.9024379-1.8911864 2.0080882-3.554032 3.2656015-4.7536407 1.2607909-1.2017938 2.6505016-1.9359805 4.1735021-2.0561599l.7221688-.0568121-.190102-.783351-.5998043.1464003.0491643.6150999c.1464003-.0120179.2938932-.0174806.4413861-.0174806 1.5197228-.0010926 3.0962578.6107297 4.6170732 1.6836038 2.2812231 1.604941 4.4018428 4.2368694 5.9412314 7.1266372 1.5437587 2.8875826 2.5073788 6.0373749 2.5543581 8.6266942l.0109254.5703058c.0032776.1846392.0054627.3681859.0054627.5528251.0010925 3.539829-.6806523 6.8436694-2.4560295 9.2942361-1.7764697 2.4461967-4.6334613 4.1330781-9.2887734 4.4411743l-.0535345.0032777-.0524419.0131104.1453078.5998044.0393315.6150999c4.9153365-.3059112 8.2191769-2.1807095 10.2108769-4.9492053 1.9938852-2.7641257 2.687648-6.3290831 2.689833-10.0174975 0-.192287-.002185-.384574-.0065552-.576861l-.0109254-.5703057c-.0808479-3.8195192-1.8693356-8.399446-4.501264-12.0955082-1.3186955-1.8452997-2.8515289-3.4666288-4.5165595-4.6422016-1.6639381-1.1733878-3.4731841-1.9075745-5.3283166-1.9097596-.1791766 0-.3594456.0076478-.5386222.0218508l-.7221688.0568121.190102.783351.5998043-.1464003-.0480717-.6150999c-1.8704282.1464003-3.5278111 1.0532083-4.9295396 2.3937547-2.1053242 2.0157359-3.6949696 5.0158502-4.7842318 8.2257321-1.0848921 3.2109745-1.6617531 6.6328092-1.6628456 9.5149292 0 .1354749.0010925.2687648.0043702.4020546l.0109253.5692133c.0732002 3.7080801 1.0029516 7.0927684 3.0372607 9.5837591 2.032124 2.4942684 5.1786387 4.0172689 9.4176931 4.008566.261117 0 .5266042-.0055002.795369-.0164256l.0600897-.0032776.1387525-.0327762-.1453078-.5998043.0393315.6150999z" fill="#e8847a" mask="url(#b)"/><path d="m37.4085628 45.3425869-.0098328.0010925c-3.0394458.2720424-5.5599351-1.6344395-5.6309502-4.2576276l-.0098328-.3583531 11.0160788-.9876559.0098328.3594456c.0699226 2.6220955-2.33585 4.9699635-5.3752958 5.2430985" fill="#fffffe" mask="url(#b)"/><path d="m34.1003634 34.2511228c.002174.5440848-.3190327.9865634-.7178097.987658-.3976845.0010905-.7232614-.4381105-.7254576-.9821953-.002174-.5440848.3190327-.9865634.7178098-.987658.398777-.0010905.7232613.4381105.7254575.9821953" fill="#0d1024" mask="url(#b)"/><path d="m40.5878647 33.55736c-.0021961.5451774-.3266805.987656-.7254575.9865655-.398777-.0021871-.7199837-.4457583-.7178097-.9920282.0021961-.5462699.3266805-.987656.7254575-.9865654.398777.0021871.7199837.4457582.7178097.9920281" fill="#0d1024" mask="url(#b)"/><path d="m38.2378005 38.2705767-2.5598207.135475c-.315744.0174806-.5462699-.3714636-.4348309-.7287241l.9974889-3.1956789c.1267346-.4064248.5823237-.4501264.7735182-.0753853l1.5623319 3.060204c.1758989.3441501-.0098329.7866287-.3386874.8041093" fill="#b85c44" mask="url(#b)"/><g fill="#0d1024"><path d="m29.9858474 31.4869971c-.7101509.6129148.220693-1.9021118 1.2367551-2.2866858 1.0171545-.3856666 2.1096943.014203 2.442919.8915125 0 0-1.975312-.080848-3.6796741 1.3951733" mask="url(#b)"/><path d="m41.8541073 29.5466464c.8303302.4359234-.6478761-1.8026907-1.7251204-1.9458134-1.0783368-.1442152-2.0517897.4927355-2.1752467 1.4235794 0 0 1.9042969-.5266042 3.9003671.522234" mask="url(#b)"/><path d="m47.1594806 20.7353129c-.0830331-.1944721-.1726213-.3780188-.2611171-.5571953.8871424-.4042397 1.4170242-.6740971 1.4170242-.6740971s-1.042283-14.84433824-2.7346272-15.07267906c-.6642642-.08958827-18.859422 4.19098268-23.4491817 16.26354746-.1256421.327762-.1016062.6413209.0327762.9373992-.1147167.2414513-.2206931.4872727-.3124664.7374643-.6839299 1.8573177-.7778884 3.8970895-.5047534 5.8221447.1300122.9155483 1.7917653 6.1542767 2.6461314 6.2374708.3856665.0380778 2.4702325-6.7378541 3.7222831-10.4623223 2.0845659.2687648 4.5351327.287338 6.9977174-.042609 2.7969019-.3736486 5.5938038-1.1930535 7.9241912-2.0255688 1.756804 2.3675337 5.4637916 7.1004162 6.0832616 7.1233595.5943417.0240359-1.0084142-7.0042727-1.5612393-8.2869144" mask="url(#b)"/></g></g><path d="m290.34136 38.5852282.711243 2.1894498c.098329.3048186.382389.5113086.702503.5113086h2.301982c.715613 0 1.013877.9155483.434831 1.3372687l-1.862781 1.3525643c-.258932.1879168-.367093.5211415-.268765.8259601l.712336 2.1894497c.220693.6806523-.558287 1.2465879-1.137334.8259601l-1.86278-1.3536568c-.258932-.1879168-.609637-.1879168-.868569 0l-1.861688 1.3536568c-.580139.4206278-1.359119-.1453078-1.137334-.8259601l.710151-2.1894497c.099421-.3048186-.00874-.6380433-.267672-.8259601l-1.862781-1.3525643c-.579046-.4217204-.280782-1.3372687.434831-1.3372687h2.301982c.320114 0 .603082-.20649.702503-.5113086l.711243-2.1894498c.221786-.6806523 1.185406-.6806523 1.406099 0" fill="#395577"/><path d="m305.416224 38.5852282.710151 2.1894498c.099421.3048186.383481.5113086.703596.5113086h2.300888c.716706 0 1.013877.9155483.434831 1.3372687l-1.861688 1.3525643c-.260024.1879168-.368186.5211415-.268764.8259601l.711243 2.1894497c.221786.6806523-.558288 1.2465879-1.137334.8259601l-1.86278-1.3536568c-.25784-.1879168-.609637-.1879168-.867477 0l-1.86278 1.3536568c-.579046.4206278-1.35912-.1453078-1.137334-.8259601l.711243-2.1894497c.099421-.3048186-.00874-.6380433-.268765-.8259601l-1.861687-1.3525643c-.579046-.4217204-.281876-1.3372687.43483-1.3372687h2.300889c.320114 0 .604175-.20649.703596-.5113086l.710151-2.1894498c.221785-.6806523 1.185405-.6806523 1.407191 0" fill="#395577"/><path d="m320.489996 38.5852282.711243 2.1894498c.098329.3048186.382389.5113086.702503.5113086h2.301982c.715613 0 1.013877.9155483.43483 1.3372687l-1.86278 1.3525643c-.258932.1879168-.367093.5211415-.267672.8259601l.710151 2.1894497c.221785.6806523-.557196 1.2465879-1.137334.8259601l-1.861688-1.3536568c-.258932-.1879168-.609637-.1879168-.868569 0l-1.862781 1.3536568c-.579046.4206278-1.358027-.1453078-1.137334-.8259601l.711244-2.1894497c.099421-.3048186-.00874-.6380433-.267672-.8259601l-1.862781-1.3525643c-.579046-.4217204-.280782-1.3372687.434831-1.3372687h2.300889c.321207 0 .605267-.20649.703596-.5113086l.711243-2.1894498c.220693-.6806523 1.184313-.6806523 1.406099 0" fill="#395577"/><path d="m335.563767 38.5852282.711244 2.1894498c.099421.3048186.382389.5113086.703595.5113086h2.300889c.715614 0 1.013877.9155483.434831 1.3372687l-1.861688 1.3525643c-.260024.1879168-.368186.5211415-.268765.8259601l.711244 2.1894497c.220693.6806523-.558288 1.2465879-1.137334.8259601l-1.86278-1.3536568c-.258932-.1879168-.609638-.1879168-.86857 0l-1.861687 1.3536568c-.580139.4206278-1.35912-.1453078-1.137334-.8259601l.711243-2.1894497c.098329-.3048186-.009833-.6380433-.268765-.8259601l-1.861688-1.3525643c-.579046-.4217204-.281875-1.3372687.433739-1.3372687h2.301981c.320114 0 .604175-.20649.702503-.5113086l.712336-2.1894498c.220693-.6806523 1.184313-.6806523 1.405006 0" fill="#395577"/><path d="m350.637539 38.5852282.712336 2.1894498c.098329.3048186.382389.5113086.702503.5113086h2.301981c.715614 0 1.012785.9155483.433739 1.3372687l-1.861688 1.3525643c-.258932.1879168-.367093.5211415-.268765.8259601l.711244 2.1894497c.220693.6806523-.558288 1.2465879-1.137334.8259601l-1.861688-1.3536568c-.258932-.1879168-.61073-.1879168-.869662 0l-1.861688 1.3536568c-.579046.4206278-1.358027-.1453078-1.137334-.8259601l.711244-2.1894497c.099421-.3048186-.008741-.6380433-.268765-.8259601l-1.861688-1.3525643c-.579046-.4217204-.281875-1.3372687.434831-1.3372687h2.300889c.320114 0 .604174-.20649.703595-.5113086l.711244-2.1894498c.220693-.6806523 1.184313-.6806523 1.405006 0" fill="#bbccda"/><path d="m363.286965 63.2143529h-80.850131c-2.127175 0-3.851202-1.7240278-3.851202-3.8512028v-1.7415084c0-2.1260825 1.724027-3.8501103 3.851202-3.8501103h80.850131c2.127175 0 3.851203 1.7240278 3.851203 3.8501103v1.7415084c0 2.127175-1.724028 3.8512028-3.851203 3.8512028" fill="#fffffe"/><path d="m447.676924 102.744628v-1.63881h-28.152565v-26.5137556h26.513756v28.1525656h1.638809v-1.63881 1.63881h1.63881v-31.430185h-33.068995v33.068995h33.068995v-1.63881z" fill="#fffffe"/><path d="m183.906132 122.910728h261.585713v-1.09254h-261.585713z" fill="#fffffe"/><path d="m279.093663 76.7716794h117.714608v-3.2776195h-117.714608z" fill="#fffffe"/><path d="m279.093663 89.8515659h117.714608v-3.2776194h-117.714608z" fill="#fffffe"/><path d="m279.093663 102.93036h117.714608v-3.2776196h-117.714608z" fill="#fffffe"/><path d="m270.083487 180.928961c0-21.925088-17.773438-39.698526-39.699619-39.698526-21.925089 0-39.699619 17.773438-39.699619 39.698526 0 21.926182 17.77453 39.699619 39.699619 39.699619 21.926181 0 39.699619-17.773437 39.699619-39.699619" fill="#bbccda"/><g transform="translate(190.975957 141.472979)"><path d="m25.7948647 19.0866703c.7647779-3.7594294 3.0296129-10.80631114 9.1074118-12.35006988 5.8811418-1.49350191 11.0554103-1.1143906 16.7770412 2.85808412 11.0586879 7.68055486 4.3013292 47.30697346 4.3013292 47.30697346s-4.1691319 9.0298414-34.7132671-2.7641257c0 0 3.5147005-30.0787133 4.5274849-35.050862" fill="#0d1024" mask="url(#c)"/><path d="m30.784494 33.3268341s-2.9181738 22.7357533-3.2066043 24.5624799c0 0 9.8536165 11.7513581 19.9344812 1.6453649 0 0-1.7043621-5.5129558-4.8060826-19.7083255z" fill="#f0ac82" mask="url(#c)"/><path d="m30.784494 33.3268341-.6522463-.0841255c0 .0043701-.1824541 1.4213942-.4599592 3.5813454-.4173502 3.2393805-1.0499308 8.1426992-1.604941 12.4057895-.5550102 4.2587201-1.0346352 7.8979702-1.1384265 8.5567717-.0294985.1879169.0229434.3791113.1453078.5244191.0229434.0273135 1.2586059 1.5000572 3.3224136 2.9848188 2.0627151 1.4814839 4.968871 2.9946516 8.3459115 2.9979484 2.9028783.0054435 6.1105751-1.1526487 9.235239-4.2947932.1715287-.1715287.2338035-.4260905.1627884-.657709 0-.0010925-.0251284-.0808479-.0775703-.2567468-.3627232-1.2312924-2.003718-6.9900697-4.7143093-19.3980442-.0404239-.1857318-.1606033-.3463351-.3277619-.4370159l-11.9217943-6.4995193c-.1911945-.1048838-.4195353-.1070689-.6129149-.0087403-.194472.0994211-.3255768.2862454-.3539829.5014758l.6522463.0841255-.3146515.576861 11.9217944 6.5006119.3146514-.5779536-.6424134.1409376c3.1049981 14.2095727 4.8126378 19.7400092 4.8202856 19.76186l.6282104-.1944721-.4654219-.4643294c-2.9378396 2.936747-5.7511296 3.9025522-8.3043951 3.9080149-2.9684306.0043701-5.6451531-1.3569345-7.577856-2.7499227-.9658052-.6937628-1.742601-1.3908032-2.2746679-1.9119447-.2665797-.2600245-.4708847-.4763473-.6085447-.6249328l-.1529556-.1715287-.0469792-.0535345-.5036608.422813.6500612.1016062c.1474928-.9428619.947232-7.0654549 1.7131024-12.9837431.7658704-5.9128254 1.495687-11.5962174 1.495687-11.5962174l-.6522463-.0841256-.3146515.576861z" fill="#f0ac82" mask="url(#c)"/><path d="m38.7502017 64.8225715s-.9592499 4.8202856 9.1216148-5.2857075c0 0-.8281452-4.5646313-1.5033348-7.1375626z" fill="#0d1024" mask="url(#c)"/><path d="m43.4798065 40.0306583c-.8194048 2.9728008-5.9008075 5.4528662-8.7097273 4.8563395-3.4229272-.7254465-4.940465-6.8240036-4.6170732-9.3423079.2709499-2.1173421 6.1313334-3.2557686 8.8998292-2.4920833 2.7695884.7636854 5.2474687 4.0041584 4.4269713 6.9780517" fill="#0d1024" mask="url(#c)"/><path d="m26.3957616 21.9950113 3.9451612.6883001-.7680554 4.3996578-3.9462538-.6883001c-1.2149043-.2119527-2.0277539-1.3700449-1.8158012-2.5838567v-.0010925c.2119528-1.2138117 1.3689524-2.0266613 2.5849492-1.8147086" fill="#f0ac82" mask="url(#c)"/><path d="m26.3957616 21.9950113-.1103465.6303955 3.3158583.5779535-.548455 3.1399594-3.3158583-.5779535c-.7746107-.1343824-1.3208806-.8106646-1.3208806-1.5677947l.0251284-.2764125.0087403-.054627v-.0568121h-.6391358l.6303955.1103465c.1332899-.7735182.809572-1.3186955 1.5667021-1.3186955l.2775051.0240359.220693-1.260791c-.1671586-.028406-.3332246-.042609-.4981981-.042609-1.37223 0-2.5816716.9821933-2.827493 2.3773666l-.0098329.054627v.056812h.6402283l-.6303954-.1103465c-.0294986.1671586-.0426091.3332247-.0426091.4971056 0 1.37223.9821933 2.5816716 2.3784592 2.827493l4.5766492.7986466.9887485-5.6604487-4.5766492-.7986466z" fill="#f0ac82" mask="url(#c)"/><path d="m26.0341309 23.1378079 1.6289769.2840604-.3168366 1.8168937-1.6289768-.2851529c-.5014758-.0874032-.837978-.5659356-.7505748-1.0674114.0884957-.5014758.5659356-.835793 1.0674113-.7483898" fill="#d9755d" mask="url(#c)"/><path d="m26.0341309 23.1378079-.1081614.6238403 1.0051366.1748063-.0994211.5692133-1.0062292-.1758989c-.1398451-.0229434-.2392662-.1485855-.2392662-.2840604l.0043702-.0502568c.0229433-.1398451.1474929-.2381737.2840603-.2392662l.0502569.0054627.2185079-1.2476805-.2687648-.0229433c-.7440196 0-1.3973584.5309743-1.5306482 1.2870119l-.0240359.2676722c0 .7440196.5320669 1.398451 1.2881044 1.5317408l2.2528171.3933143.534252-3.0645741-2.2528171-.3922218z" fill="#d9755d" mask="url(#c)"/><path d="m52.113056 31.2269726-3.8217042-1.2017938 1.3416389-4.2609052 3.8206117 1.2028863c1.1766653.370371 1.8300041 1.6235142 1.4596331 2.8001795-.370371 1.1755729-1.6246067 1.8300042-2.8001795 1.4596332" fill="#f0ac82" mask="url(#c)"/><path d="m52.113056 31.2269726.1911945-.6096372-3.2109745-1.0105993.9570649-3.0405383 3.2109745 1.0105993c.6806522.2130453 1.1154831.8434408 1.1165756 1.5197229-.0010925.1584183-.0240358.3190216-.0742927.479625-.2130452.6795597-.8445332 1.1143906-1.5197228 1.1154831-.1584183-.0010925-.3190217-.0240359-.479625-.0742927l-.1911945.6096372-.192287.6107298c.2851529.0895882.576861.1321984.8631065.1321984 1.2214595.0010914 2.3522382-.7844447 2.7400898-2.0102743.0895882-.2862455.1321984-.5768611.1321984-.8631065.0010914-1.222552-.7844447-2.3522382-2.0113669-2.7400898l-4.4302489-1.3940808-1.7251203 5.4801796 4.4313414 1.3951734z" fill="#f0ac82" mask="url(#c)"/><path d="m53.1323957 28.1798791-1.5688872-.522234-.5834163 1.7480637 1.5688872.5233265c.4829026.1606034 1.0051366-.0994211 1.16574-.5823237.1616959-.4839951-.0994212-1.0051366-.5823237-1.1668325" fill="#d9755d" mask="url(#c)"/><path d="m53.1323957 28.1798791.1999347-.5998043-2.169784-.7232614-.9832858 2.9498575 2.169784.7221688c.1616959.054627.3288545.0808479.4916429.0808479.6522463 0 1.2564208-.4118875 1.4749288-1.0630412.0535344-.1616959.0797575-.3288545.0797575-.4916429.0010904-.6533388-.4118896-1.2575133-1.0630434-1.4749287l-.1999347.5998043-.2010274.6008969c.1223645.0393314.1977497.1540481.1988423.2742275l-.0152956.0906808c-.0393314.1212719-.1540481.1966572-.2742275.1977497l-.0917733-.0152956-.9679903-.3222992.1824542-.548455.9690828.3233918z" fill="#d9755d" mask="url(#c)"/><path d="m44.1047393 13.1607345.002185.0010925c7.0905834 2.2495394 9.8798375 9.6329234 7.630298 16.7256918l-.1715287.5418998c-2.2484469 7.0905833-9.8700046 11.6442892-15.7926629 9.6613294l-.0469792-.0294985c-4.6225359-1.7917653-10.7932007-10.4774567-8.5436612-17.5691326l.1715287-.5408072c2.2495395-7.0916759 9.660237-11.0401147 16.7508203-8.7905752" fill="#f0ac82" mask="url(#c)"/><path d="m44.1047393 13.1607345-.3550755.5320668.0021851.0010926.0753853.0502568.0863106.0273135c2.6078925.8292377 4.5777418 2.3708114 5.9150105 4.3450308 1.3350836 1.9742194 2.0310315 4.3909175 2.0310315 6.9605711 0 1.5077049-.2403588 3.0678517-.7320017 4.6170732l-.1715287.5418997c-.9013454 2.8438811-2.7171465 5.2736896-4.9382799 6.9856995-2.2200409 1.7131024-4.8388588 2.6974808-7.3101839 2.6952957-.9384916 0-1.8573176-.1409376-2.732442-.4337383l-.2021199.6074521.3343172-.5451773-.0469792-.0294986-.0491643-.0305911-.054627-.0207583c-1.7819324-.6806523-3.9910479-2.6275582-5.6910398-5.1644356-1.7087323-2.5335998-2.9247291-5.6462457-2.9214514-8.6212316 0-1.0204322.1409376-2.0244762.4479413-2.993559l.1715287-.5408073c1.7382309-5.4779945 6.6928989-8.9752144 12.0944156-8.976307 1.2695313 0 2.5652835.1933796 3.8533879.6019895l.1933796-.6096372-.3550755.5320668.3550755-.5320668.1933795-.6096373c-1.4126539-.4479413-2.8406035-.6620793-4.240147-.6620793-5.956527-.0010923-11.4093931 3.863221-13.31369 9.8689123l-.1715287.5408072c-.3507053 1.1056502-.508031 2.2429842-.508031 3.3803181.0032776 3.3224135 1.3252507 6.6360868 3.1399593 9.3357526 1.8245415 2.6985733 4.1254303 4.7940647 6.2897517 5.6429681l.2316184-.5965267-.3354097.5451773.0469792.0284061.0622748.0382389.0699225.0240358c1.013877.3397799 2.0714555.4992907 3.1377743.4992907 2.811105-.0021851 5.6757443-1.1012801 8.0913498-2.9618754 2.414513-1.8627803 4.3876399-4.4958013 5.3763884-7.6117248l.1715287-.5418997c.5298818-1.6704934.7920914-3.3595599.7920914-5.0038323 0-2.799087-.7593152-5.4714394-2.250632-7.6772772-1.4891317-2.2058379-3.7157279-3.938606-6.588015-4.8475991l-.1933796.6096372.3539829-.5320669-.0010925-.0010925-.0753852-.0502569-.0863107-.0273135z" fill="#f0ac82" mask="url(#c)"/><path d="m37.1638339 34.9197572.520049.1245495c1.8343743.4381085 3.6774889-.6948553 4.1155974-2.5303222l-7.1670611-1.7098248c-.4381085 1.8343743.6948553 3.6785815 2.5314147 4.1155975" fill="#fffffe" mask="url(#c)"/><path d="m41.4017958 27.847747c-.1245495.520049.0928659 1.0171546.4872728 1.1122055.3944068.095051.8150346-.249099.9406767-.769148.1245496-.5200489-.0939584-1.0171545-.4883653-1.1122055-.3944068-.095051-.8139421.2501916-.9395842.769148" fill="#0d1024" mask="url(#c)"/><path d="m35.8385831 26.5039231c-.1638809.5091235.0163881 1.0226172.4020547 1.1460742.3856665.123457.8314228-.1879168.9953037-.6970404.1627885-.5091235-.0174806-1.0204322-.4031472-1.1460742-.3856665-.123457-.8303302.1879168-.9942112.6970404" fill="#0d1024" mask="url(#c)"/><path d="m37.5899244 30.0808984 1.866058.508031c.2305259.0633673.4643294-.1944721.4413861-.4829026l-.2108602-2.5783939c-.0262209-.327762-.3550754-.4337383-.5582878-.1802691l-1.6562904 2.0714555c-.1868243.2338035-.1223644.5976192.1179943.6620791" fill="#e07c78" mask="url(#c)"/><path d="m34.6728432 23.9386396c-.5987119.1901019.6402283-1.1089279 1.3667673-1.0772442.7265389.0316836 1.2924745.5681207 1.265161 1.1952385 0 0-1.1930534-.5735834-2.6319283-.1179943" fill="#0d1024" mask="url(#c)"/><path d="m44.9853264 26.3564302c.4446636.4424786-.0589972-1.2804567-.7199838-1.5841827-.659894-.3048186-1.4093763-.0895883-1.6715859.4807175 0 0 1.3219732.0393314 2.3915697 1.1034652" fill="#0d1024" mask="url(#c)"/><path d="m35.8495085 12.3751983c-5.3665555 8.893274 17.5887983 14.2849579 17.5887983 14.2849579s3.6501755-17.26540644-15.4616233-17.76688221c-12.3456997-.32448432-1.5994783 2.61007761-2.127175 3.48192431" fill="#0d1024" mask="url(#c)"/><path d="m37.4828555 12.1490426s-5.5479171 7.8793971-6.9562009 9.2243135c-1.6082186 1.5350185-4.1221527-.2436363-4.1221527-.2436363s.8008317-12.30636836 11.0783536-8.9806772" fill="#0d1024" mask="url(#c)"/><g fill="#f6c45b"><path d="m58.3525508 37.2577923c0 2.5729313-2.0856585 4.6585897-4.6585897 4.6585897-2.5740238 0-4.6596822-2.0856584-4.6596822-4.6585897 0-2.5740237 2.0856584-4.6596822 4.6596822-4.6596822 2.5729312 0 4.6585897 2.0856585 4.6585897 4.6596822" mask="url(#c)"/><path d="m53.910284 31.9841027c0 .5145863-.4184428.933029-.933029.933029-.5156788 0-.933029-.4184427-.933029-.933029 0-.5156788.4173502-.933029.933029-.933029.5145862 0 .933029.4173502.933029.933029" mask="url(#c)"/><path d="m27.1408738 33.8195696c-1.2400327 2.2550021-4.0729884 3.0776846-6.326898 1.8376519-2.2550022-1.2400327-3.0776847-4.0740809-1.837652-6.3279905 1.2389402-2.2550022 4.0729884-3.0765921 6.326898-1.837652 2.2550022 1.2400327 3.0776846 4.0729884 1.837652 6.3279906" mask="url(#c)"/><path d="m25.789402 27.0578407c-.249099.451219-.8161272.6161925-1.2673461.368186-.4523115-.2490991-.6161925-.8150347-.368186-1.2673462.2480066-.4523115.8150347-.6161925 1.2673462-.3681859.451219.2480065.6161925.8161272.3681859 1.2673461" mask="url(#c)"/><path d="m78.4181368 83.6557726-10.0218676-24.6608084c-3.458981-5.3829436-6.630624-6.932165-10.9341383-6.3367308-1.3755076.1911944-2.5270446.5856013-3.5190707 1.1198533l-6.9234247 1.3645822c-10.0120348 6.7868572-18.9129566-3.1246638-18.9129566-3.1246638-7.660889-6.0493929-24.0413383 5.4987528-24.0413383 5.4987528l1.86496545 10.6293197s7.05671455 26.4110572 7.10369375 27.3025697c.4359234 8.2869147-.0961435 22.6975147.0185732 22.4790067.1136242-.220693 44.5515881 5.715075 44.893553 5.056274.3408724-.659894.4020547-5.645153 1.208349-23.7900543.1070689-2.3850144.1507705-4.7459929.1474929-7.0654549z" mask="url(#c)"/></g></g><g transform="translate(194.572541 191.737896)"><use fill="#fe8c60" xlink:href="#a"/><g fill="#fffffe"><path d="m31.8770917 69.4228179c-7.6871101-6.2012559-15.3906082-12.7411991-20.8981013-21.0455942-2.56965366-3.8752387-4.68808833-8.0738691-5.99695102-12.5467271-.25346923-.8631064-1.9654791-6.0439301-1.31978808-6.7180272 1.21708934-1.2728089 4.65968226 1.1482593 5.99258082 1.7720996 9.21994338 4.3100695 16.94310728 9.8765598 22.91383728 18.2191937 5.9270284 8.2836368 11.1624791 17.4249173 13.3890753 27.4336744.1496779.6740971 1.1843131.3878517 1.0346352-.2851529-2.4942684-11.212736-8.6769512-21.7808735-15.7653494-30.7233117-7.2981659-9.209018-17.3812157-14.0708201-27.95044575-18.6332664-.33868734-.1464003-.83797803.0142031-.80738691.4643295 1.27390141 18.6441917 14.92737136 31.7524842 28.64967126 42.821005.5320669.4304606 1.2957522-.3255769.7582226-.7582227" mask="url(#d)"/><path d="m-2.59035398-5.97116873c14.24453398 23.46775493 30.99098398 48.61146593 59.25061858 55.77852703.4839951.1223645.797554-.3736486.6063596-.7888137-5.9936734-12.9607997-13.5977504-25.0868989-22.7914729-36.0221298-8.7414109-10.39879386-19.5586475-22.22990738-32.15672395-27.8958188-.62493277-.2807827-1.17120267.643506-.54189975.9275663 11.9786064 5.38622123 22.3063851 16.51483165 30.7648283 26.3444122 4.5045416 5.2354508 8.6671182 10.7669798 12.4407507 16.5519781 3.4699064 5.3195762 7.727534 11.3165272 9.8153776 17.3528096.5877864 1.6967143 1.2662536 1.5710723-.3616307 1.8300042-1.1012801.1748064-3.0033919-.9373992-4.1013944-1.346009-3.4666288-1.2913821-6.7934125-2.9280067-9.9748884-4.8104528-5.7030578-3.3726704-10.9090099-7.5505426-15.6080236-12.2135024-10.6741139-10.5943585-18.6573022-23.46994006-26.41542733-36.25047067-.35835306-.58887895-1.28701189-.05025683-.92647375.54189974" mask="url(#d)"/><path d="m46.9366603 4.27576208c3.7495966 16.89612802 17.6816642 30.74079242 35.8975803 28.54369482.6773747-.0808479.6850225-1.1559071 0-1.0717815-17.7657897 2.141378-31.2116771-11.3056019-34.8618525-27.75706621-.149678-.67409706-1.1843132-.38785163-1.0357278.28515289" mask="url(#d)"/></g></g><path d="m290.34136 151.93951.711243 2.18945c.098329.303726.382389.510216.702503.510216h2.301982c.715613 0 1.013877.916641.434831 1.338361l-1.862781 1.352565c-.258932.187917-.367093.521141-.268765.82596l.712336 2.18945c.220693.680652-.558287 1.246587-1.137334.824867l-1.86278-1.352564c-.258932-.187917-.609637-.187917-.868569 0l-1.861688 1.352564c-.580139.42172-1.359119-.144215-1.137334-.824867l.710151-2.18945c.099421-.304819-.00874-.638043-.267672-.82596l-1.862781-1.352565c-.579046-.42172-.280782-1.338361.434831-1.338361h2.301982c.320114 0 .603082-.20649.702503-.510216l.711243-2.18945c.221786-.680652 1.185406-.680652 1.406099 0" fill="#395577"/><path d="m305.416224 151.93951.710151 2.18945c.099421.303726.383481.510216.703596.510216h2.300888c.716706 0 1.013877.916641.434831 1.338361l-1.861688 1.352565c-.260024.187917-.368186.521141-.268764.82596l.711243 2.18945c.221786.680652-.558288 1.246587-1.137334.824867l-1.86278-1.352564c-.25784-.187917-.609637-.187917-.867477 0l-1.86278 1.352564c-.579046.42172-1.35912-.144215-1.137334-.824867l.711243-2.18945c.099421-.304819-.00874-.638043-.268765-.82596l-1.861687-1.352565c-.579046-.42172-.281876-1.338361.43483-1.338361h2.300889c.320114 0 .604175-.20649.703596-.510216l.710151-2.18945c.221785-.680652 1.185405-.680652 1.407191 0" fill="#395577"/><path d="m320.489996 151.93951.711243 2.18945c.098329.303726.382389.510216.702503.510216h2.301982c.715613 0 1.013877.916641.43483 1.338361l-1.86278 1.352565c-.258932.187917-.367093.521141-.267672.82596l.710151 2.18945c.221785.680652-.557196 1.246587-1.137334.824867l-1.861688-1.352564c-.258932-.187917-.609637-.187917-.868569 0l-1.862781 1.352564c-.579046.42172-1.358027-.144215-1.137334-.824867l.711244-2.18945c.099421-.304819-.00874-.638043-.267672-.82596l-1.862781-1.352565c-.579046-.42172-.280782-1.338361.434831-1.338361h2.300889c.321207 0 .605267-.20649.703596-.510216l.711243-2.18945c.220693-.680652 1.184313-.680652 1.406099 0" fill="#395577"/><path d="m335.563767 151.93951.711244 2.18945c.099421.303726.382389.510216.703595.510216h2.300889c.715614 0 1.013877.916641.434831 1.338361l-1.861688 1.352565c-.260024.187917-.368186.521141-.268765.82596l.711244 2.18945c.220693.680652-.558288 1.246587-1.137334.824867l-1.86278-1.352564c-.258932-.187917-.609638-.187917-.86857 0l-1.861687 1.352564c-.580139.42172-1.35912-.144215-1.137334-.824867l.711243-2.18945c.098329-.304819-.009833-.638043-.268765-.82596l-1.861688-1.352565c-.579046-.42172-.281875-1.338361.433739-1.338361h2.301981c.320114 0 .604175-.20649.702503-.510216l.712336-2.18945c.220693-.680652 1.184313-.680652 1.405006 0" fill="#395577"/><path d="m350.637539 151.93951.712336 2.18945c.098329.303726.382389.510216.702503.510216h2.301981c.715614 0 1.012785.916641.433739 1.338361l-1.861688 1.352565c-.258932.187917-.367093.521141-.268765.82596l.711244 2.18945c.220693.680652-.558288 1.246587-1.137334.824867l-1.861688-1.352564c-.258932-.187917-.61073-.187917-.869662 0l-1.861688 1.352564c-.579046.42172-1.358027-.144215-1.137334-.824867l.711244-2.18945c.099421-.304819-.008741-.638043-.268765-.82596l-1.861688-1.352565c-.579046-.42172-.281875-1.338361.434831-1.338361h2.300889c.320114 0 .604174-.20649.703595-.510216l.711244-2.18945c.220693-.680652 1.184313-.680652 1.405006 0" fill="#395577"/><path d="m363.286965 176.568635h-80.850131c-2.127175 0-3.851202-1.724028-3.851202-3.851203v-1.741508c0-2.126083 1.724027-3.85011 3.851202-3.85011h80.850131c2.127175 0 3.851203 1.724027 3.851203 3.85011v1.741508c0 2.127175-1.724028 3.851203-3.851203 3.851203" fill="#fffffe"/><path d="m447.676924 216.09891v-1.63881h-28.152565v-26.514848h26.513756v28.153658h1.638809v-1.63881 1.63881h1.63881v-31.431277h-33.068995v33.070087h33.068995v-1.63881z" fill="#fffffe"/><path d="m183.906132 236.263917h261.585713v-1.09254h-261.585713z" fill="#fffffe"/><path d="m279.093663 190.125961h117.714608v-3.277619h-117.714608z" fill="#fffffe"/><path d="m279.093663 203.204755h117.714608v-3.277619h-117.714608z" fill="#fffffe"/><path d="m279.093663 216.284642h117.714608v-3.277619h-117.714608z" fill="#fffffe"/><path d="m270.083487 295.009782c0-21.925088-17.773438-39.699618-39.699619-39.699618-21.925089 0-39.699619 17.77453-39.699619 39.699618 0 21.926182 17.77453 39.699619 39.699619 39.699619 21.926181 0 39.699619-17.773437 39.699619-39.699619" fill="#fdfcfa"/><g transform="translate(190.684249 255.311256)"><path d="m34.0151342 10.6741139s-15.8210689 6.1783125-20.6883337 23.3169844c-4.86726481 17.1375794-11.64756682 32.6833282-24.1899238 33.6076169-12.5412643.9253812-25.720572 9.7793237-26.4733319 12.5084882-.7527599 2.7280719 40.4272503 61.8825466 74.7537583 47.2993256l4.4149534-31.1789009.5877864 24.2532909s1.0837995 4.542781 13.2175465-3.433852c12.1337471-7.975541 15.8702332-116.9126846-21.6224552-106.3729531" fill="#8d4c5b" mask="url(#e)"/><path d="m42.7456198 10.4184596c-8.0684065-1.7994131-16.4940734.0065552-22.9083746 5.3337793-7.6892951 6.3848026-9.5280396 16.3236371-11.07398345 25.6703152-.83251533 5.0300532-1.6224216 10.1529723-3.51797816 14.9164459-3.15744003 7.9296539-9.35541833 10.9614518-17.65325809 11.1449985-10.5626748.2338035-20.0601233-.6303955-27.4926716 8.1940485-.9166409 1.0881697.6500612 2.6712598 1.5743498 1.5732573 8.4223894-10.0000168 19.3412322-6.2078111 30.5747264-7.8848597 8.27708155-1.2367551 13.07223874-6.3290831 15.72492538-14.0227484 3.12903402-9.0811908 2.84497362-19.0025448 6.39135782-27.9602786 4.4378967-11.2105509 15.9499886-17.45878604 27.7887499-14.8192099 1.3962659.3113739 1.9927926-1.8343743.5921566-2.1457481" fill="#8d4c5b" mask="url(#e)"/><path d="m46.9977847 36.2581184s2.7488301 23.7212242 3.2022341 25.528285c0 0-7.1976522 8.0771468-17.6379625 2.2604649 0 0 1.1427966-7.0381414 2.9837262-21.5558103z" fill="#f0ad9b" mask="url(#e)"/><path d="m46.9977847 36.2581184-.657709.0764778s.6872075 5.9313986 1.4312271 12.0889529c.3725561 3.0798697.7582227 6.2154589 1.0805219 8.6966168.1606034 1.2411252.3059112 2.3183695.424998 3.1454221.1212719.8336079.2086751 1.3875256.2807827 1.6825113l.6424134-.1616959-.4949205-.4402935-.0054627.0065552c-.0874032.095051-1.0641338 1.1427967-2.7313495 2.153396-1.6683083 1.0116918-4.0139912 1.9851448-6.8687977 1.9840523-2.1238974-.0010926-4.5405955-.5331595-7.2151329-2.0222912l-.3222992.5790461.6533388.1059763c.0010925-.0076477 1.1460742-7.0534369 2.9880963-21.5787536l-.6577089-.083033.3168365.5812312 11.4520022-6.2329396-.3168365-.5812312-.657709.0764778.657709-.0764778-.3168366-.5812312-11.4509096 6.2329396c-.1868243.1016062-.313559.287338-.3408725.4981982-.9199185 7.2544642-1.6650306 12.6395929-2.1807094 16.210013-.2578394 1.78521-.4577742 3.1170161-.5932491 4.0019733-.135475.8838647-.20649 1.3186955-.20649 1.3197881-.0447942.2742275.0884957.5495475.3310395.6850224 2.853714 1.590738 5.5107708 2.1916349 7.8597314 2.1894557 3.2634163 0 5.9084552-1.1460802 7.7297191-2.2834141 1.8223563-1.1384265 2.8351407-2.2713902 2.8646393-2.3041664.1464003-.1627885.2010273-.3889442.1474929-.6008969-.040424-.1573258-.13766-.7396495-.2534692-1.5492215-.4129801-2.8602692-1.1471668-8.840832-1.7764698-14.0981336-.3146514-2.6286507-.6041745-5.078125-.8139421-6.8698902-.2108602-1.7917653-.341965-2.9236366-.341965-2.9269142-.0251284-.2174154-.1584182-.4107949-.3528903-.5113086s-.4293682-.0983286-.6216552.0065552z" fill="#f0ad9b" mask="url(#e)"/><path d="m37.028359 21.0543345h-.0010926c-4.5679089 1.0051366-6.1826827 7.9875585-4.5132819 15.5807101l.1278272.5801387c1.6650306 7.5767635 6.4077459 11.4465395 10.29391 11.6890833 3.1213862.1944721 6.5683493-7.1681536 4.900041-14.7602127l.3834815-1.1679251c-1.6694009-7.5909665-6.6218838-12.9258384-11.1908852-11.9217943" fill="#0d1024" mask="url(#e)"/><g fill="#f0ad9b"><path d="m27.7417707 34.3188603 3.8206116-1.2968448-1.4465227-4.2598127-3.8206116 1.2968448c-1.1755729.398777-1.8059683 1.675956-1.4060988 2.8526214.3987771 1.1766654 1.6759561 1.8059683 2.8526215 1.4071913" mask="url(#e)"/><path d="m27.7417707 34.3188603.20649.6096372 4.4302489-1.5033348-1.8605953-5.4801796-4.4291564 1.5044273c-1.2050714.4097024-1.9643865 1.5328333-1.9643865 2.7389972 0 .3091888.0502568.6238403.1540481.930844.4107949 1.2039788 1.5339259 1.963294 2.7400898 1.963294.3091888 0 .6227477-.0502568.9297514-.1540481l-.20649-.6096372-.2064901-.6107298c-.1726213.0589972-.3463351.0863107-.5167713.0863107-.6675418-.0010926-1.2935671-.4206279-1.5197229-1.0892622-.0589971-.1726213-.0863106-.3452426-.0863106-.5167714.0010925-.6675418.4217204-1.2935671 1.0903547-1.5197228l3.209882-1.0892622 1.0324501 3.0394457-3.2109745 1.0892622z" mask="url(#e)"/><path d="m53.9168392 23.7343347-3.8796088 1.1034652 1.2312924 4.3275501 3.8796088-1.1045577c1.1952385-.3397799 1.8879088-1.5841827 1.5481289-2.7794213-.3397799-1.194146-1.5841827-1.8868162-2.7794213-1.5470363" mask="url(#e)"/><path d="m53.9168392 23.7343347-.1758989-.6194701-4.5001714 1.2793641 1.5841827 5.5664903 4.5001714-1.2804567c1.2717164-.3638157 2.1020466-1.5197228 2.1020466-2.7826988 0-.2622096-.0360538-.5287893-.111439-.7920914-.3627233-1.2717163-1.5197229-2.1020466-2.7816064-2.1020466-.2622095 0-.5298818.0360538-.7931839.1114391l.1758989.6194701.1769915.61947c.1474929-.042609.2949857-.0622747.4402935-.0622747.6970404.0010925 1.3427314.4610518 1.5426662 1.1668325.0415165.1474928.0611822.2949857.0611822.439201 0 .6981329-.4599592 1.3438239-1.1657399 1.5437587l-3.2612313.9275663-.878402-3.0875175 3.2612313-.9275663z" mask="url(#e)"/></g><path d="m54.3986493 24.8410775-1.6016634.4555891.508031 1.7863026 1.6016634-.4555891c.493828-.1398451.7800734-.6544314.6391358-1.1471668-.1398451-.4927355-.6533388-.7800735-1.1471668-.6391358" fill="#e78186" mask="url(#e)"/><path d="m54.3986493 24.8410775-.1748064-.617285-1.6027559.4555891c-.1616959.0458867-.3026335.1573257-.384574.3048186s-.1026987.3255769-.0568121.4883653l.5080311 1.78521c.097236.3408724.4523114.5386221.7931839.4413861l1.6016633-.4555891c.6904852-.1966572 1.1406116-.823775 1.1406116-1.5087975 0-.1431227-.0196658-.2884305-.0600897-.4304606-.1977497-.6893927-.8226825-1.1406116-1.50989-1.1406116-.1420302 0-.2884305.0196657-.4315533.0600897h.0021851l.1748064.617285.1769914.6161924.0775704-.0109254c.1223644 0 .2414513.0830331.27532.2097677l.0109254.0786628c0 .123457-.0819405.2403588-.2075826.2742275l-.9854709.2807828-.1562332-.5517326.9843784-.2796902.0010925-.0010926z" fill="#e78186" mask="url(#e)"/><path d="m26.6459532 31.2728593 1.5688872-.5615655.6260253 1.7480637-1.5677946.5615655c-.4829026.1737138-1.013877-.0775703-1.1875908-.5604729-.1726213-.4829026.0786629-1.013877.5604729-1.1875908" fill="#e78186" mask="url(#e)"/><path d="m26.6459532 31.2728593.2174155.6041745.9636201-.3452426.1933795.5397147-.9636201.3452426-.0010925.0010925-.0961435.0163881c-.1158093 0-.2294334-.0732002-.2698574-.1901019l-.0174806-.0972361c.0010925-.1169017.0732002-.2283408.1901019-.2698573l-.2163229-.6041745-.2152303-.6041745c-.6413209.2305259-1.042283.8336079-1.0411927 1.4782063 0 .1769915.0295008.3572606.0928681.5309744.2305259.6391358.8314228 1.0400979 1.4771139 1.0400979.1758989 0 .3561679-.0305911.5309743-.0928659h-.0010925l1.5677946-.5615655c.1616959-.0579046.2906156-.1748063.3638157-.329947.0732002-.1551406.0819405-.3288545.0240359-.4905504l-.6271178-1.7480636c-.0568121-.1595109-.1769915-.2917082-.3299471-.3638158-.1529555-.0721076-.3310395-.0808479-.4905503-.0240359l-1.5677946.562658z" fill="#e78186" mask="url(#e)"/><path d="m37.0742456 16.4612972-.0010925.0010925c-7.2916106 1.7207502-10.692687 8.7567066-9.0189161 15.8451048l.1278272.5418997c1.673771 7.0883983 10.6118391 12.7095155 15.3108528 11.4356141 4.8181005-1.3077701 11.4520022-10.4643462 9.7793237-17.5527444l-.1289196-.5418998c-1.6726785-7.0883982-8.7774648-11.4498171-16.0690755-9.7290669" fill="#f0ad9b" mask="url(#e)"/><path d="m37.0742456 16.4612972-.4490338-.4490339-.0010926.0010926.4490339.4490338-.1464003-.6183775c-3.1716431.7472972-5.6724667 2.4735101-7.3593481 4.7689362-1.687974 2.2943336-2.5685611 5.14477-2.5685611 8.1470693 0 1.2149043.1442152 2.4538444.4370159 3.6927846l.1278272.5429923c.8062943 3.3945211 3.1388668 6.3902653 5.8844193 8.5633269 2.7542929 2.1665065 5.9193807 3.5321812 8.5840853 3.5420141.5670281 0 1.113298-.0644599 1.6267917-.2032124 1.2039789-.3288545 2.4319936-1.0608562 3.6261396-2.0638077 1.7863026-1.5066124 3.4928498-3.637065 4.7678437-6.0417451 1.2728089-2.4057727 2.1162496-5.0879579 2.1184347-7.7078683 0-.8445333-.0884957-1.6814188-.2818753-2.497546l-.1278271-.5429923c-1.4945945-6.3356383-7.1342849-10.595451-13.4906815-10.5932668-1.099095 0-2.2200409.1267355-3.3431718.3922227l-.1748064.0415165-.1278271.1278271.4490338.4490339.1453078.6183775c1.02808-.2425438 2.0496047-.358353 3.0514637-.358353 5.7882759.0021851 10.896992 3.8643133 12.255019 9.6154428l.1278271.5418997c.1682512.7112434.246914 1.4498003.246914 2.2058379.0054627 3.1246638-1.3766001 6.5377581-3.2951 9.2811256-.9570649 1.37223-2.0452345 2.5762088-3.1388669 3.4972199-1.0925398.9221036-2.1949124 1.5546841-3.1399594 1.8092459-.3889441.1048838-.823775.1584183-1.2946596.1584183-2.2233185.0098328-5.2267104-1.2291073-7.7974566-3.2688791-2.5794865-2.0332166-4.7285123-4.845414-5.434293-7.8586388l-.1289197-.5418997c-.2698573-1.1449818-.4020546-2.2866859-.4020546-3.4010765 0-2.7553853.8062944-5.3370569 2.3216471-7.3943093 1.5164452-2.0572525 3.7353935-3.6010112 6.6273464-4.2849411l.1758989-.0415165.1289197-.1289197-.4490339-.4490339.1453078.6183775z" fill="#f0ad9b" mask="url(#e)"/><path d="m42.1130392 38.2847797.5353445-.1409376c1.8911864-.5025683 3.0175949-2.4440115 2.5161192-4.3351979l-7.3866616 1.9611089c.5025683 1.8911864 2.442919 3.017595 4.3351979 2.5150266" fill="#fffffe" mask="url(#e)"/><path d="m42.5074461 29.7433036c.1409376.5353445.5856013.8838647.9920261.7757032.4064248-.1070689.6216552-.6282104.479625-1.1635549-.1409376-.536437-.5856013-.8838647-.9920261-.7757032-.4064249.1059763-.6216552.6282104-.479625 1.1635549" fill="#0d1024" mask="url(#e)"/><path d="m36.7661494 31.2510085c.0994211.5451774.5167713.9253812.9308439.8478109.4129801-.0764778.6664493-.5801387.5659356-1.1242235-.1005136-.5451773-.5178638-.9253812-.9308439-.8489034-.4140725.0764778-.6675418.5801386-.5659356 1.125316" fill="#0d1024" mask="url(#e)"/><path d="m40.1235242 33.6567811 1.9545537-.4544965c.2403588-.0557195.327762-.4053323.163881-.6566164l-1.4585406-2.2517246c-.1857318-.2862454-.5375296-.220693-.5976193.1103466l-.4960131 2.7051285c-.0557195.3048186.1824542.6063596.4337383.5473624" fill="#e78186" mask="url(#e)"/><path d="m34.4412247 29.481094c-.453404.4676071.0382389-1.3285284.7177987-1.6562903.6795597-.327762 1.4596331-.1169018 1.742601.4697921 0 0-1.3711375.0644598-2.4603997 1.1864982" fill="#0d1024" mask="url(#e)"/><path d="m45.045416 26.6197323c.6249328.1868243-.6828373-1.139519-1.4355973-1.0925398-.7527599.0458866-1.3307134.6107297-1.2902895 1.2607909 0 0 1.2269222-.6140074 2.7258868-.1682511" fill="#0d1024" mask="url(#e)"/><path d="m50.4403776 60.4469496c-2.40031 3.8533879-10.1191037 7.013013-17.6357775-4.3428457 0 0-12.1665232-7.7952715-20.9636537 6.6448271-7.94057931 13.0329073-8.03016757 13.4382396-8.03016757 13.4382396l16.47440767 14.1134291 1.1427966 30.6173353 47.2381435 1.540481s-5.0300533-21.859536-4.145096-25.3982725c.1474928-.5921566 14.5089285-24.1331117 14.5089285-24.1331117s-18.8375712-28.135085-28.5895815-12.4800822" fill="#49bdb2" mask="url(#e)"/><path d="m26.7672252 28.8332179s8.3480966-2.6013373 10.3070204-12.3719207c0 0 8.8878113 8.3896131 15.8964542 6.8764455 0 0-7.0086429-12.9028951-16.6459365-8.9205875s-9.4777827 9.8765598-9.5575381 14.4160627" fill="#8d4c5b" mask="url(#e)"/></g><path d="m290.34136 266.020331.711243 2.18945c.098329.303726.382389.510216.702503.510216h2.301982c.715613 0 1.013877.916641.434831 1.337269l-1.862781 1.353657c-.258932.187917-.367093.521141-.268765.82596l.712336 2.18945c.220693.680652-.558287 1.246587-1.137334.824867l-1.86278-1.352564c-.258932-.187917-.609637-.187917-.868569 0l-1.861688 1.352564c-.580139.42172-1.359119-.144215-1.137334-.824867l.710151-2.18945c.099421-.304819-.00874-.638043-.267672-.82596l-1.862781-1.353657c-.579046-.420628-.280782-1.337269.434831-1.337269h2.301982c.320114 0 .603082-.20649.702503-.510216l.711243-2.18945c.221786-.680652 1.185406-.680652 1.406099 0" fill="#395577"/><path d="m305.416224 266.020331.710151 2.18945c.099421.303726.383481.510216.703596.510216h2.300888c.716706 0 1.013877.916641.434831 1.337269l-1.861688 1.353657c-.260024.187917-.368186.521141-.268764.82596l.711243 2.18945c.221786.680652-.558288 1.246587-1.137334.824867l-1.86278-1.352564c-.25784-.187917-.609637-.187917-.867477 0l-1.86278 1.352564c-.579046.42172-1.35912-.144215-1.137334-.824867l.711243-2.18945c.099421-.304819-.00874-.638043-.268765-.82596l-1.861687-1.353657c-.579046-.420628-.281876-1.337269.43483-1.337269h2.300889c.320114 0 .604175-.20649.703596-.510216l.710151-2.18945c.221785-.680652 1.185405-.680652 1.407191 0" fill="#395577"/><path d="m320.489996 266.020331.711243 2.18945c.098329.303726.382389.510216.702503.510216h2.301982c.715613 0 1.013877.916641.43483 1.337269l-1.86278 1.353657c-.258932.187917-.367093.521141-.267672.82596l.710151 2.18945c.221785.680652-.557196 1.246587-1.137334.824867l-1.861688-1.352564c-.258932-.187917-.609637-.187917-.868569 0l-1.862781 1.352564c-.579046.42172-1.358027-.144215-1.137334-.824867l.711244-2.18945c.099421-.304819-.00874-.638043-.267672-.82596l-1.862781-1.353657c-.579046-.420628-.280782-1.337269.434831-1.337269h2.300889c.321207 0 .605267-.20649.703596-.510216l.711243-2.18945c.220693-.680652 1.184313-.680652 1.406099 0" fill="#395577"/><path d="m335.563767 266.020331.711244 2.18945c.099421.303726.382389.510216.703595.510216h2.300889c.715614 0 1.013877.916641.434831 1.337269l-1.861688 1.353657c-.260024.187917-.368186.521141-.268765.82596l.711244 2.18945c.220693.680652-.558288 1.246587-1.137334.824867l-1.86278-1.352564c-.258932-.187917-.609638-.187917-.86857 0l-1.861687 1.352564c-.580139.42172-1.35912-.144215-1.137334-.824867l.711243-2.18945c.098329-.304819-.009833-.638043-.268765-.82596l-1.861688-1.353657c-.579046-.420628-.281875-1.337269.433739-1.337269h2.301981c.320114 0 .604175-.20649.702503-.510216l.712336-2.18945c.220693-.680652 1.184313-.680652 1.405006 0" fill="#bbccda"/><path d="m350.637539 266.020331.712336 2.18945c.098329.303726.382389.510216.702503.510216h2.301981c.715614 0 1.012785.916641.433739 1.337269l-1.861688 1.353657c-.258932.187917-.367093.521141-.268765.82596l.711244 2.18945c.220693.680652-.558288 1.246587-1.137334.824867l-1.861688-1.352564c-.258932-.187917-.61073-.187917-.869662 0l-1.861688 1.352564c-.579046.42172-1.358027-.144215-1.137334-.824867l.711244-2.18945c.099421-.304819-.008741-.638043-.268765-.82596l-1.861688-1.353657c-.579046-.420628-.281875-1.337269.434831-1.337269h2.300889c.320114 0 .604174-.20649.703595-.510216l.711244-2.18945c.220693-.680652 1.184313-.680652 1.405006 0" fill="#bbccda"/><path d="m363.286965 290.648364h-80.850131c-2.127175 0-3.851202-1.722936-3.851202-3.850111v-1.741508c0-2.126083 1.724027-3.85011 3.851202-3.85011h80.850131c2.127175 0 3.851203 1.724027 3.851203 3.85011v1.741508c0 2.127175-1.724028 3.850111-3.851203 3.850111" fill="#fffffe"/><path d="m447.676924 330.179731v-1.63881h-28.152565v-26.514848h26.513756v28.153658h1.638809v-1.63881 1.63881h1.63881v-31.431277h-33.068995v33.070087h33.068995v-1.63881z" fill="#fffffe"/><path d="m183.906132 350.344738h261.585713v-1.092539h-261.585713z" fill="#fffffe"/><path d="m279.093663 304.206782h117.714608v-3.277619h-117.714608z" fill="#fffffe"/><path d="m279.093663 317.285576h117.714608v-3.277619h-117.714608z" fill="#fffffe"/><path d="m279.093663 330.365463h117.714608v-3.277619h-117.714608z" fill="#fffffe"/><path d="m201.707976 383.95017c10.23382 0 25.068326-13.745243 25.068326-23.979063h282.295896s-1.089262 23.979063-28.33939 23.979063z" fill="#bfd1e2"/><path d="m568.105402 186.113063-20.196691-86.9880193c-.284061-2.2713902 3.827167-7.7100534 5.818867-8.8506649 5.453958-3.1246639 12.189466-3.5747903 18.344836-2.2954262 20.0634 4.1680394 37.115762 84.3790344 33.764942 82.4463314 0 0-30.109304 15.724925-39.851482 9.327012" fill="#040a1a"/><path d="m569.708157 106.666846c-.00874.302633.230526.552825.53316.551733 1.265161-.005463 4.18552-.27532 4.597407 3.033983.417351 3.346449-2.770681 5.228895-4.689181 5.333779-.553917.030591-1.832189.144215-2.20693.552825-1.153722 1.254236-1.695622 3.997603-2.584949 7.41616-1.961109 7.550543 3.97029 10.998598 3.97029 10.998598s-19.777156 9.724697-19.593609-.022943l1.470558-18.024722c-1.543758-1.543758-7.539617-2.20693-3.769262-14.989646 3.491757-11.840946 12.179634-10.9975053 14.387657-10.6063761 1.863873.3299471 8.333893.7363719 7.884859 15.7566091" fill="#e89e96"/><path d="m555.71163 89.7455895s12.13921 16.0494095 14.253274 17.3812155c0 0 8.275989-19.5881459-14.253274-17.3812155" fill="#040a1a"/><path d="m573.402034 111.211812s-1.989515-4.194261-4.512189 1.426857" fill="#e46f63"/><path d="m558.712837 106.681049c-1.640995-.036054-3.001207 1.264069-3.037261 2.905063-.037146 1.640995 1.261884 3.001207 2.902878 3.037261 1.640995.037146 3.001207-1.262976 3.038354-2.902878.037146-1.640995-1.262976-3.001207-2.903971-3.039446" fill="#e8897d"/><path d="m546.331083 107.789977c1.360212-.245822 2.405773-1.421394 2.438549-2.855899.025129-1.107836-.558288-2.085659-1.444338-2.617726 0 0-1.269531 3.287453-.994211 5.473625" fill="#e8897d"/><path d="m548.831907 106.259329 4.530762 2.256094s-2.216763 1.612589-3.414186.729817c-1.197424-.88168-1.116576-2.985911-1.116576-2.985911" fill="#fffffe"/><path d="m552.299628 102.969691-.715613 3.233918-1.57435-.695948c-.290616-.127827-.337595-.520049-.086311-.713428z" fill="#e46f63"/><path d="m558.113032 101.758065c.393315.548455.166067-1.36786-.479624-1.8092463-.646784-.4402935-1.479299-.3452426-1.858411.2130453 0 0 1.394081.276413 2.338035 1.596201" fill="#000105"/><path d="m549.569371 98.5241468c-.650061.1824542.726539-1.1712027 1.50552-1.1100204.780074.0611822 1.370045.6555239 1.317603 1.3285284 0 0-1.260791-.657709-2.823123-.218508" fill="#000105"/><path d="m555.50077 104.135431c-.218508.5419-.608545.895883-.870754.788814-.263302-.105976-.298264-.630395-.079756-1.172295.218508-.540807.607452-.89479.871847-.788814.26221.107069.297171.631488.078663 1.172295" fill="#000105"/><path d="m551.304324 102.137176c-.208675.517864-.581231.855459-.832515.753852-.250192-.101606-.28406-.601989-.075385-1.119853.208675-.516771.581231-.854366.832515-.75276.250192.101606.284061.603082.075385 1.118761" fill="#000105"/><path d="m551.204903 116.506259s5.646246 1.078337 8.497775.894791c2.850436-.183547-11.421411 16.205642-8.497775-.894791" fill="#000105"/><path d="m650 402.570326c0-1.873706-26.395762-3.392336-58.957818-3.392336-32.560964 0-58.956725 1.51863-58.956725 3.392336 0 1.872613 26.395761 3.391243 58.956725 3.391243 32.562056 0 58.957818-1.51863 58.957818-3.391243" fill="#748fb3"/><path d="m554.303346 377.473594-2.053975 14.585407s-3.294007 9.672254-6.353119 5.92812c-3.059111-3.743041-6.086539-5.722723-6.086539-5.722723l-1.004044-15.164452z" fill="#e89c96"/><path d="m546.297215 378.019864-.52879 19.837245s9.680995 1.454171 6.083262-5.02459l2.117342-13.755076z" fill="#e8897d"/><path d="m603.052472 376.353741 4.539503 14.549352s3.453518 3.028521 4.700106 2.949858c2.268113-.14203 3.457889-4.055508 3.457889-4.055508l.373648-13.443702z" fill="#e89c96"/><path d="m609.591323 372.465392 3.173828 24.069744s6.507167 1.717473 2.909433-4.761288l.794277-18.515272z" fill="#e8897d"/><path d="m538.801299 392.189013-12.215688 9.900595c-.62384.46433-.178084 1.245496.714521 1.253144l18.031277.145379c.435924.004299.823775-.192359.969083-.490622l1.35912-2.788162c.393314-.806294 1.175572-.870754 1.104557-.01748l.665357 2.692018c-.034961.423905 4.275108.308096 4.313347-.078663.237081-2.392662-.262209-10.219617-.690485-12.399234-.062275-.312467-.382389-.562658-.808479-.62384l-.002185-.001093c-.382389-.05572-.774611.050257-1.007322.277505-1.217089 1.177758-5.108716 4.720865-7.183449 4.003066-1.389711-.480718-3.190217-1.341639-3.751782-1.836559-.380204-.33541-1.080522-.347428-1.497872-.036054" fill="#e46a8a"/><path d="m615.918221 389.29269 6.935443 11.619161c.741834 1.129686.328854 2.47788-1.009507 3.274341-2.168692 1.291382-3.940791 3.866499-5.305374 3.903645-2.466954.06883-6.299584-2.528137-8.533828-3.502683-1.498965-.652246-2.673445-1.610403-2.487713-2.864639l1.724028-11.654122c.021851-.144215.27532-.195565.400962-.083033l2.655964 2.406865c.870754.789906 3.231733.682838 3.817334-.261117.419535-.673004 1.400636-2.847159 1.400636-2.847159.089588-.115809.323392-.110346.402055.008741" fill="#e46a8a"/><path d="m579.128036 184.693854c5.600359 9.899503 8.560049 17.151782 11.777579 29.73784 3.732116 14.598517 44.121127 138.071903 45.881209 164.623898-4.599593 1.108928-35.148098.947232-38.054254.786628-9.247257-26.499552-32.641812-112.563283-36.606639-129.256198-.609637-2.565284-4.574464-2.002626-4.265275.617285 2.249539 19.062634 14.375639 99.359939 20.418476 128.685893-2.412328 1.228014-37.434784.954879-40.22076.606359-3.029613-32.698623-19.111799-156.482291 5.165528-196.606907 11.101297-1.530649 24.647698.469792 35.904136.805202" fill="#2c4566"/><path d="m544.472673 188.15502c-.006555.016388-9.903873 24.510038-9.903873 59.08783.001092 34.567959 11.32199 122.048714 11.32199 122.055269l.429368-.05572c-.001093-.00437-.176992-1.366767-.487273-3.826074-2.166506-17.214057-10.832532-87.985508-10.831439-118.173475 0-17.247926 2.469139-31.98301 4.938279-42.404748 1.23457-5.211414 2.46914-9.3434 3.394522-12.171986.462144-1.413746.84781-2.503008 1.117668-3.237195.268765-.734187.42172-1.111113.42172-1.112205z" fill="#fffffe"/><path d="m613.356215 369.223826-39.490944-182.160254-.423905.091774 39.492036 182.160253z" fill="#fffffe"/><path d="m566.514664 188.077449c.001092.007648.07757 7.337498 1.743693 14.684828.8347 3.675304 2.063808 7.354978 3.898182 10.136584 1.827819 2.778329 4.293682 4.673885 7.551635 4.672793.512401 0 1.043376-.046979 1.594016-.144215l-.074293-.426091c-.527697.092866-1.033543.136568-1.519723.136568-3.075499-.001093-5.398239-1.765545-7.191097-4.477229-2.683278-4.063155-4.087191-10.219617-4.80499-15.351276-.360538-2.566376-.551732-4.877098-.652246-6.545406-.101606-1.668309-.111439-2.688741-.112532-2.692018z" fill="#fffffe"/><path d="m0 14.6072572h6.1925156v-14.6072572h-6.1925156z" fill="#b2b5b1" mask="url(#f)" transform="translate(581.722818 189.46279)"/><path d="m576.873033 214.097377-6.006783-4.523115c-1.639903-3.745226-2.601338-8.309857-3.154163-12.264851-.360538-2.566376-.551732-4.877098-.652246-6.545406-.037146-.59762-.061182-1.111113-.07757-1.525186l6.93435.104884 5.072662 23.397832zm2.505194-1.604941-5.018035-23.142178 7.362626.112532c2.518304 4.846506 4.443359 9.332475 6.192515 14.607257.134383.67519.255655 1.341639.366001 2.00044l-4.706661 3.733209zm-9.199185-3.436037-25.800327-19.427543c.025128-.06883.049164-.135475.0732-.199935.074293-.204305.140937-.381296.196657-.529882l21.89996.333225c.093959 2.347868.440294 7.934024 1.709825 13.530013.489458 2.157766 1.115483 4.315532 1.920685 6.294122m-26.161958-19.699586-.632581-.476347.80411.012018c-.050257.136567-.108162.290616-.171529.464329" fill="#1f324b"/><path d="m544.378715 189.628856-.361631-.272043c.063367-.173713.121272-.327762.171529-.464329l.459959.006555c-.05572.148586-.122364.325577-.196657.529882-.024036.06446-.048072.131105-.0732.199935" fill="#b9bbb7"/><path d="m578.989283 212.741535-5.072662-23.397832.443571.006555 5.018035 23.142178z" fill="#b9bbb7"/><path d="m570.86625 209.574262-.687208-.517863c-.805202-1.97859-1.431227-4.136356-1.920685-6.294122-1.269531-5.595989-1.615866-11.182145-1.709825-13.530013l.433739.006555c.016388.414073.040424.927566.07757 1.525186.100514 1.668308.291708 3.97903.652246 6.545406.552825 3.954994 1.51426 8.519625 3.154163 12.264851" fill="#b9bbb7"/><path d="m537.229134 218.879424c.552825.096143 1.082707.14313 1.590738.14313 2.393755.00327 4.286034-1.054308 5.734742-2.742282 4.337383-5.066107 4.968871-15.760979 4.977611-21.94694 0-2.791439-.135475-4.660775-.135475-4.664052l-.431553.030591c0 .002185.033868.462144.067737 1.273901.032776.811757.066645 1.970942.066645 3.35956.001093 4.100302-.294986 10.206507-1.745878 15.260596-.723262 2.527045-1.737139 4.788602-3.126849 6.404468-1.392989 1.614774-3.143237 2.58932-5.40698 2.591505-.48181 0-.986563-.043702-1.515353-.13766z" fill="#fffffe"/><path d="m564.630032 130.676501s2.897416-.835793 2.416698-.219601c-.478532.616193-1.507704 1.301215-2.535784 1.986238z" fill="#b0243f"/><path d="m576.160697 369.240214-39.457074.005463v.432646l39.457074-.005463" fill="#fffffe"/><path d="m635.512922 368.898249-40.765937.347428.003277.432646 40.76703-.346335" fill="#fffffe"/><path d="m592.715953 244.035153c0-.242544.242544-2.826401.242544-2.826401l-1.17011 3.714636z" fill="#c1564d"/><path d="m585.389381 247.709364-.81722.635858s.847811 1.543759 1.211627 1.421395c0 0-.60636-.726539-.394407-2.057253" fill="#c1564d"/><path d="m499.398851 157.3596s29.875501 41.42911 36.876496 36.49083c0 0 8.03126-5.670282 3.99214-28.814645-.006555-2.248447-.018573-3.807501.061183-4.159299 0 0 1.736045-22.851563 5.492197-27.584445.411888-.520049 1.657383-1.484762 1.49241-1.527371-11.472761-2.867917-15.861493 25.972949-19.024396 39.315045-.131105.552825-22.02888-20.773552-22.02888-20.773552s-11.470575-15.165545-12.271407-14.299161c-1.158092 1.256421 3.285267 8.019242 3.285267 8.019242s-.289523.773519-1.159185 1.160278c-.869661.385666-1.352564.964712-1.64318 2.12499-.289523 1.159184-1.448707 1.836559-1.640994 2.512841-.194472.67519 4.12106 5.76424 6.568349 7.535247" fill="#e89e96"/><path d="m505.873242 150.21002s-2.319462-6.569442-3.285267-6.377155c-.966898.193379-5.216878 2.029939-5.120734 3.672026.097236 1.64318 3.768169.289523 3.768169.289523s-.676282 3.672027 1.159185 4.154929c1.835467.482903 3.478647-1.739323 3.478647-1.739323" fill="#e89e96"/><path d="m500.172369 147.504891s.097236 1.64318-1.255328 1.931611c0 0-.290616 1.739323-2.029939 1.353656 0 0 .483995.773519-.579046.965806 0 0 4.540595 4.927354 3.864313-4.251073" fill="#e8897d"/><path d="m501.054049 144.340896c-.795369.579046-1.620237 1.080522-2.448382 1.571072-.388944.263302-.888235.455589-1.193053.713429-.158419.125642-.276413.278597-.296079.381296-.016388.098329.002185.169344.116902.278598.228341.233803.685023.432645 1.098003.524419.432645.107069.895882.117994 1.370045.160603.226155.050257.477439-.072107.875124.211953.196657.185732.158418.461052.124549.568121l-.093958.353982c-.15077.463237-.27532.931937-.446849 1.391896l-.043701-.00874.264394-1.426857c.017481-.226156.164974-.504753.005463-.667542-.179177-.136567-.449034-.0732-.68393-.084125-.95051.002185-2.001533-.057905-2.777236-.714522-.184639-.170436-.287338-.451218-.209768-.70141.075385-.249099.26221-.432646.453404-.582324.397685-.296078.852181-.465422 1.277179-.698133l2.58932-1.311047z" fill="#e46f63"/><path d="m497.194106 143.818662c.237081.020758.415165.098329.582323.184639.168252.086311.290616.213045.435924.320114.101606.145308.229433.267673.310281.433739.079755.166066.150771.339779.162788.569213l-.031683.028406c-.515679-.485088-1.012785-.987656-1.49241-1.506613z" fill="#e46f63"/><path d="m495.231904 146.258303c.446849.282968.840163.594342 1.242218.893698.400962.299356.773518.62384 1.182128.90353.366001.320114.790999.61947 1.158092.903531.180269.13766.371464.243636.573584.278597.207582.054627.438108.028406.650061-.115809l.034961.026221c-.340872.446849-1.000766.363816-1.420302.107069-.444663-.253469-.857643-.55064-1.264068-.855459-.798647-.62821-1.533926-1.338361-2.18945-2.112972z" fill="#e46f63"/><path d="m499.016462 149.440872c.027314.575768.005463 1.293567-.648969 1.775377-.313559.237081-.756037.243636-1.094724.159511-.350706-.084126-.645691-.246914-.913364-.426091-.503661-.410795-.902438-.849996-1.261883-1.325251-.352891-.477439-.68393-.973453-.933029-1.526278l.033869-.027313c.368185.454496.753852.895882 1.149351 1.325251.398777.42609.797554.859828 1.266254 1.200701.446849.331039 1.065226.616192 1.58746.323392.510216-.294986.659894-.934122.772426-1.48804z" fill="#e46f63"/><path d="m497.006189 150.499543c.105976.374741.076478.768055-.031684 1.143889-.061182.187917-.116902.385667-.289523.586694l-.371463.226156c-.108162.037146-.218508.062274-.328855.07757-.437016.095051-.877309-.121272-1.17448-.233804-.148586-.085218-.327762-.157325-.514586-.293893-.174807-.152955-.269858-.334317-.323392-.525511l.033869-.029499c.22397.292801.553917.42172.908993.494921.340872.113624.685022.201027 1.035727.176991.170437-.017481.358353-.039331.475255-.159511.12018-.121272.20649-.278598.278598-.439201.139845-.323392.248006-.673004.257839-1.02371z" fill="#e46f63"/><path d="m547.313277 131.76467s-7.430364-1.040098-10.393332 5.014758-9.533502 33.108326-9.533502 33.108326l-18.292394-17.519968-7.08512 12.883229s26.022113 32.849394 33.493992 30.531025c7.47188-2.318369 11.895574-55.762139 11.810356-64.01737" fill="#04b7a7"/><path d="m546.119131 133.041849c.323391.783351-9.206833 23.497254-8.821167 31.183271.386759 7.743922 5.675744 20.773552 5.263857 21.9382 0 0 6.008969 4.739437 39.154441-.479625 10.189027-8.914033 1.236755-39.214532-2.185079-48.809216 0 0-6.524648-3.263416-9.333568-3.470999 0 0-11.005153 3.517978-24.078484-.361631" fill="#04b7a7"/><path d="m570.280648 133.368519-4.694643-6.140074s-5.592712 3.975752-13.989972 6.909222l.144215 2.199282c.28406 4.328643 5.023498 6.84804 8.766539 4.656405 3.90146-2.283408 8.08261-5.125104 9.773861-7.624835" fill="#fbe2e3"/><path d="m550.468531 126.891943s-1.401728 5.320669 1.240033 7.350608l-.75713 1.844207c-.878402 2.536877-4.626906 2.096584-4.853062-.579046-.088495-1.049931-.084125-2.012459.06883-2.761941z" fill="#fbe2e3"/><path d="m574.09252 254.999882 42.826467-27.440229-17.771252-27.735216-36.995583 23.705929c-3.220807 2.061622-4.158206 6.344379-2.094399 9.565186z" fill="#fe8c60"/><path d="m0 1.23894014h1.41265396v-1.23894014h-1.41265396z" fill="#839ea6" mask="url(#g)" transform="translate(588.504212 205.281674)"/><path d="m588.38731 206.719456c-.033868-.21523-.06883-.431553-.105976-.648969l.222878-.175899c.06446.207583.12892.415166.194472.626026z" fill="#426074"/><path d="m583.574673 209.803696 4.706661-3.733209c.037146.217416.072108.433739.105976.648969z" fill="#3c596a"/><path d="m584.073963 248.246894c-1.131871 0 .235989-6.334546.025129-9.725789-.00437-.06009-.008741-.087404-.014203-.087404-.053535 0-.183547 2.426531-.25784 3.54857l-.166066 2.734627c-1.628977-.745112-1.5962-3.886164-1.84967-4.943743-.341965-1.418117-.06446-2.328202.101607-2.67126.742927-1.550314 2.161043-4.631276 2.381736-7.395402.130013-1.627884-1.009506-7.670722-1.953461-18.924974l1.233478-.977823 4.812637-3.08424.311374-.198842 1.218182-.781166c1.57872 1.401728 5.229988 6.544313.928659 22.319495-.280783 1.035728-.524419 2.215671-.315744 3.268879l1.199609 8.411464c.178084.901346.300448 2.109695-.463237 2.618818-.957065.636951-6.407746 5.646246-7.069825 5.866939-.043702.014203-.085218.021851-.122365.021851" fill="#838b6f"/><path d="m590.157225 157.644753c12.799104 71.487064 4.484876 85.061871 3.646898 85.620159-1.048838.698133-7.021754 6.188146-7.748293 6.43069-1.476021.491643.134383-6.796691-.107068-10.635875-.042609-.68393-.205398 2.430901-.297171 3.793298l-.181362 2.996836c-1.786302-.817219-1.750249-4.25872-2.028846-5.418997-.373649-1.553592-.06883-2.55108.111439-2.925822.815034-1.699991 2.369719-5.077032 2.61117-8.106645.14203-1.784117-11.987347-59.841682-14.121077-68.372233-2.897416-11.59294.750575-24.907723 4.831211-25.357849 5.063922-.55938 12.223335 16.055965 13.283099 21.976438" fill="#e89e96"/><path d="m599.142272 225.2828c-.515679-2.18945 2.239707-43.893879-7.061085-71.176783-4.157113-12.19493-10.143139-18.997082-15.207061-18.437702-4.080636.450126-7.728627 13.764909-4.831211 25.357849 2.13373 8.530551 6.616421 46.607748 10.352907 66.060419z" fill="#04b7a7"/><path d="m582.225386 78.641015 8.525088-8.5239956h32.102097c6.534481 0 11.831114-5.2966329 11.831114-11.8311135v-2.566376c0-6.5344806-5.296633-11.8311135-11.831114-11.8311135h-28.796072c-6.53448 0-11.831113 5.2966329-11.831113 11.8311135z" fill="#649cd9"/><path d="m617.634601 56.6744097c0 1.6300694 1.320881 2.95095 2.95095 2.95095 1.628977 0 2.949857-1.3208806 2.949857-2.95095 0-1.6289769-1.32088-2.9498575-2.949857-2.9498575-1.630069 0-2.95095 1.3208806-2.95095 2.9498575" fill="#faf9f6"/><path d="m606.815179 56.6744097c0 1.6300694 1.321973 2.95095 2.95095 2.95095 1.63007 0 2.95095-1.3208806 2.95095-2.95095 0-1.6289769-1.32088-2.9498575-2.95095-2.9498575-1.628977 0-2.95095 1.3208806-2.95095 2.9498575" fill="#faf9f6"/><path d="m595.995758 56.6744097c0 1.6300694 1.32088 2.95095 2.949857 2.95095 1.631162 0 2.952043-1.3208806 2.952043-2.95095 0-1.6289769-1.320881-2.9498575-2.952043-2.9498575-1.628977 0-2.949857 1.3208806-2.949857 2.9498575" fill="#faf9f6"/><path d="m137.361752 382.965792c0-2.181802-30.749533-3.950624-68.6814224-3.950624-37.9307969 0-68.6803296 1.768822-68.6803296 3.950624 0 2.182894 30.7495327 3.951716 68.6803296 3.951716 37.9318894 0 68.6814224-1.768822 68.6814224-3.951716" fill="#748fb3"/><path d="m129.061727 371.961731-2.104232-4.158207-12.533616.452312-.281876 3.705895 5.88879 10.218525 10.600914-8.175476z" fill="#e69899"/><path d="m121.415041 368.220875-.525512 9.652589s-3.256861-1.847485-7.06327-5.258394l.523327-5.464884z" fill="#da7274"/><path d="m129.817764 371.818489s-3.680766-.069803-7.965707 3.17941c-2.551081 1.934888-6.403376-2.05616-7.584412-3.087518-.240358-.208675-.567028-.020758-.607452.350706l-1.481484 13.493959h37.299309c.433738 0 .784444-.456682.784444-1.021525v-2.839511c0-.440293-.215231-.83033-.536437-.969083z" fill="#2c4566"/><path d="m131.782151 372.297141-6.005691 3.473184.265487.458866 6.004599-3.474276" fill="#fffffe"/><path d="m134.398784 373.636594-6.005692 3.473184.265488.458867 6.004598-3.473184" fill="#fffffe"/><path d="m68.2902929 371.961731-2.1042317-4.158207-11.502259-1.726213-1.3132329 5.88442 5.8898821 10.218525 10.6009137-8.175476z" fill="#e69899"/><path d="m59.3937413 367.953202 1.044468 9.117245s-3.2557686-1.848577-7.0621773-5.259487l1.0455606-4.660774z" fill="#da7274"/><path d="m69.047423 371.818489s-3.6818592-.069803-7.9668003 3.17941c-2.5499879 1.934888-6.4033758-2.05616-7.5844113-3.087518-.2392662-.208675-.5659356-.020758-.6074521.350706l-1.481484 13.493959h37.2993088c.4337384 0 .7855362-.456682.7855362-1.021525v-2.839511c0-.440293-.2163229-.83033-.5364371-.969083z" fill="#2c4566"/><path d="m71.8541577 372.565905-6.0045987 3.473184.2654871.457775 6.0045988-3.473184" fill="#fffffe"/><path d="m74.4707905 373.904267-6.0045987 3.473184.2654871.458866 6.0045988-3.473184" fill="#fffffe"/><path d="m90.0034289 83.9223524c.5113086.1616958 1.2509581.4971056 1.9294253 1.1864982l-.9570649-.5156788zm21.7131361-27.9438906c1.690159 1.0182471 2.376274 2.6603345 2.416698 4.4619326-.760408-3.5474767-4.110135-5.2682269-7.47625-4.3614189 1.526278-.9319365 3.43713-1.0783368 5.059552-.1005137zm1.928333 11.5732742c2.590412-4.1276154 3.442593-10.2960951-1.087077-13.0460178-2.359886-1.4334122-5.424461-1.1034652-7.530877.6424134-.976731.8106645-1.708733 1.8321892-2.301982 2.9487649-.922103-1.2946597-2.276853-2.181802-3.9648266-2.1468407-1.4432451.0305911-3.1246638 1.139519-4.1898901 2.5849492-1.4476153-.453404-3.1093683-.4960131-4.349401-.1846393-3.2033267.8062944-3.7736325 5.0125727-2.003718 7.4806201-2.2812231 3.0547413-2.9312843 7.330942.3091888 17.9919454l.0349613.1125316 4.4105831 2.3751816.1289197-.2523767.1300123-.2501916-.3430575-.1846393 4.3952876-14.2128503c.5681207-.3944068 4.2161114-2.8121974 6.1291484-1.3285284 1.945813 1.5087975 4.168039 2.9575053 5.908455 2.2659276.773518-.3080962 1.471651-1.0772443 1.98296-1.7808399 1.106743-.6762821 1.859503-1.7589891 2.341313-3.0154098z" fill="#040a1a"/><path d="m126.732432 208.642326s4.797342 57.379098 5.247469 73.232943c.451219 15.853845-2.73135 86.529152-2.73135 86.529152l-19.954147.352891s-13.9397152-118.568975-33.3213712-156.803498z" fill="#13877d"/><path d="m102.271558 211.724381c.001093.003277.214138 1.035728.586694 2.867917 1.306678 6.412116 4.572279 22.58389 7.511211 38.264021 1.469466 7.840066 2.856992 15.557767 3.876332 21.868277 1.020432 6.308325 1.671585 11.225846 1.670493 13.410926 0 10.190119 2.014643 80.122499 2.014643 80.124684l.52879-.015296s-.030592-1.092539-.086311-3.02415c-.385667-13.523457-1.92724-68.191964-1.92724-77.085238-.002185-2.589319-.856551-8.631064-2.137008-16.285398-3.840278-22.945521-11.518647-60.230627-11.518647-60.232812z" fill="#fffffe"/><path d="m108.275065 361.302913h21.146107v-.52879h-21.146107z" fill="#fffffe"/><path d="m126.773948 208.642326s-11.092556 47.8303-22.357734 81.669535c-9.1030417 27.345179-29.2669563 79.710612-29.2669563 79.710612l-22.3763076-.557196 19.434098-78.340566c1.0346352-4.081729 1.6868814-8.253046 1.9523686-12.462602.9996739-15.889899-2.2670201-47.998551-3.6326949-68.57326z" fill="#04b7a7"/><path d="m87.6479131 209.555689c0 .00437.1551406 1.842022.3889442 4.943743.7014105 9.302976 2.1042316 29.925758 2.1042316 46.012314 0 4.8181-.1256421 9.230868-.4337383 12.803474-.3048186 3.57042-.8030167 6.31488-1.5033348 7.740644-1.1952385 2.448382-3.5081453 9.153299-6.326898 17.876136-8.4497028 26.154311-21.3700785 70.314769-21.371171 70.315862l.508031.148585c.0010925-.003277.3594456-1.226922.9963963-3.392336 2.2309663-7.577856 7.8717493-26.657971 13.4688307-44.895738 2.7990869-9.11943 5.5872485-18.027999 7.9329315-25.183042 2.3434978-7.150673 4.2521649-12.563115 5.2671344-14.636756.7604077-1.564517 1.2433102-4.32755 1.5557766-7.927469.3091888-3.597733.4359234-8.021427.4359234-12.84936-.0010925-21.485888-2.4953609-50.997573-2.4964534-51.000851z" fill="#040a1a"/><path d="m55.0170268 362.639089h22.4516929v-.529882h-22.4516929z" fill="#040a1a"/><path d="m106.497502 208.837891-16.7082109 21.911978.4206278.320114 16.7093041-21.910886" fill="#040a1a"/><path d="m99.955374 118.366855s-.6347657-5.148048 4.12543-5.89753c4.760196-.74839 17.592076-4.150559 50.214222 6.990069 0 0 5.651708-31.5864177 5.706335-34.1418683.143123-6.6491973 2.250632-15.2824468 7.397587-19.8394303.421721-.3736486.727632 16.4897032.912271 25.4889536 0 0 4.342846 45.309811-.953787 49.863517-5.29554 4.554798-72.6691924-6.939813-67.402058-22.463711" fill="#e69899"/><path d="m109.601408 110.530067s-18.4125734-3.055834-17.8761364 11.302324c.5353445 14.355973 36.4110744 24.099243 46.1608994 21.767763l-3.01978-31.891237z" fill="#2c4566"/><path d="m137.744141 143.136917c-2.862455 3.433853-30.875175-3.774725-33.946305-8.45298 0 0-.478532-15.679039.714521-16.002431 12.161061-3.297285 33.231784 24.455411 33.231784 24.455411" fill="#040a1a"/><path d="m137.744141 143.136917-.215231-.180269c-.192287.235989-.605267.451219-1.213811.588879-.60636.138753-1.397359.207583-2.324925.20649-4.178965.002185-11.094742-1.373323-17.249019-3.227363-3.077684-.926473-5.969637-1.972034-8.238842-3.01978-2.268113-1.04119-3.917848-2.116249-4.470673-2.974985l-.233804.154048.280783-.008741c0-.001092-.024036-.77461-.048072-1.984052-.022943-1.209442-.046979-2.852621-.046979-4.587575 0-2.164321.037147-4.470672.156233-6.25042.058998-.889327.138753-1.64755.242544-2.179617.050257-.265487.109254-.475255.163881-.604174l.067738-.12455.006555-.00874-.020758-.019666.015295.024036.005463-.00437-.020758-.019666.015295.024036-.057904-.093958.028406.105976.029498-.012018-.057904-.093958.028406.105976c.655524-.178084 1.340546-.26221 2.050697-.26221 2.988096-.003277 6.438337 1.512076 9.908243 3.817335 5.208138 3.453518 10.459976 8.656192 14.400767 12.993575 1.972035 2.169784 3.616307 4.121061 4.767844 5.531529.575769.704689 1.02808 1.273902 1.336176 1.666124.308097.392221.470885.607452.470885.607452l.223971-.169344-.215231-.180269.215231.180269.22397-.170436c-.00437-.005463-4.703384-6.195793-10.954896-12.392679-3.125757-3.099536-6.639365-6.201256-10.157343-8.534921-3.519071-2.33148-7.041419-3.906922-10.219617-3.9102-.754945 0-1.490224.089588-2.197098.281875-.243636.079756-.326669.25784-.410795.440294-.13766.331039-.230526.816127-.310281 1.44106-.233803 1.869335-.296078 4.961223-.296078 7.811659 0 3.47974.093958 6.588015.093958 6.589108l.003278.079755.043701.065553c.703596 1.055393 2.398125 2.105324 4.703384 3.177105 6.913592 3.186939 19.294253 6.294122 25.72385 6.299585.95488 0 1.78084-.06883 2.450567-.221786.667541-.15514 1.191961-.387851 1.519723-.776795l.143122-.171529-.135475-.178084z" fill="#040a1a"/><path d="m83.4099512 108.907645s-25.0563078 2.557636-26.6339353 23.308244c-1.5776275 20.748424 11.3820797 78.214925 11.3820797 78.214925l62.7620414-1.997163-3.429482-71.313351c-.254562-5.290077-1.885724-10.411904-4.721957-14.842153-2.619911-4.090469-5.687763-8.727208-7.430364-8.945716l-28.0968457-7.223873z" fill="#2c4566"/><path d="m78.2356827 116.71712c-15.2234496-6.107298-20.6708531 5.122919-21.4596668 15.498769-1.5776275 20.748424 11.3820797 78.214925 11.3820797 78.214925l62.7620414-1.997163" fill="#223752"/><path d="m111.401913 181.22067c.142031 1.093632-.031683 2.019013-.387851 2.068177-.356168.048072-.759315-.799739-.901346-1.893371-.140937-1.093632.032777-2.017921.388945-2.065993.356168-.049164.759315.797554.900252 1.891187" fill="#fffffe"/><path d="m91.2980886 90.1389038-1.4650959 14.1046892 14.5362423 12.123914 2.141378-6.295214-1.127501-11.6563076-11.7185822-10.6085615s-1.8026907 1.2826417-2.0277539 1.7491562c-.2261557.465422-.3386873.5823237-.3386873.5823237" fill="#e69899"/><path d="m93.6645298 87.8074239 11.7185822 10.6085615.828145 6.9343496s-10.6380602-2.930191-11.0084312-11.721859" fill="#040a1a"/><g fill="#fffffe"><path d="m106.524816 125.471641c.140937 1.093632-.032776 2.017921-.388944 2.065993-.356168.049164-.759316-.798647-.900253-1.891187-.14203-1.093632.031683-2.020106.387851-2.068177.356168-.048072.759316.799739.901346 1.893371"/><path d="m107.500454 136.62101c.14203 1.093632-.032776 2.017921-.388944 2.067085-.355076.048072-.759316-.798647-.900253-1.892279-.14203-1.093632.031684-2.019013.387851-2.067085.356168-.049165.759316.798646.901346 1.892279"/><path d="m108.476092 147.771471c.140938 1.093632-.032776 2.017921-.388944 2.065993-.356168.048071-.759315-.798647-.900253-1.891187-.14203-1.093632.031684-2.020106.387852-2.068178.356168-.048071.759315.79974.901345 1.893372"/><path d="m109.45173 158.92084c.140938 1.093632-.032776 2.019013-.388944 2.067085s-.759315-.798647-.900253-1.892279c-.14203-1.093632.031684-2.019014.387852-2.067085.356168-.048072.759315.798646.901345 1.892279"/><path d="m110.427368 170.071301c.140938 1.09254-.032776 2.019013-.388944 2.067085s-.759315-.799739-.901346-1.892279c-.140937-1.093632.032777-2.020106.388945-2.067085.356168-.048072.759315.798646.901345 1.892279"/><path d="m112.378644 192.371131c.140938 1.09254-.032776 2.019013-.388944 2.067085s-.759315-.799739-.901345-1.893371c-.140938-1.09254.032776-2.017921.388944-2.065993s.759315.798646.901345 1.892279"/><path d="m113.354282 203.520499c.140938 1.093633-.032776 2.019014-.388944 2.068178-.356168.048072-.759315-.799739-.901345-1.893371-.140938-1.093633.032776-2.017921.388944-2.067086.356168-.048071.759315.798647.901345 1.892279"/><path d="m89.3828663 103.194754-7.7450147 3.611937 19.3510654 16.438354 3.380318-6.877538z"/><path d="m106.510613 108.55694c.337595.116902 3.380318 2.215671 3.380318 2.215671l.112532 10.374757-5.634228-4.779861z"/></g><path d="m123.519272 180.529092 13.967029-43.829419c.774611-2.429809 2.530322-4.390918 4.811546-5.376389l28.599414-12.352255c.846718-.366001 1.714195.47307 1.419209 1.371138l-14.112337 42.940091c-.759315 2.310722-2.411235 4.193168-4.561353 5.197212l-28.673707 13.400001c-.844534.394407-1.740416-.439201-1.449801-1.350379" fill="#2c4566"/><path d="m125.920675 183.095468 13.967029-43.828327c.77461-2.429808 2.530322-4.39201 4.811545-5.376388l28.598322-12.353348c.847811-.366001 1.715287.47307 1.420302 1.37223l-14.112337 42.938999c-.760408 2.310722-2.411235 4.193168-4.562446 5.198305l-28.672615 13.397815c-.844533.3955-1.740416-.438108-1.4498-1.349286" fill="#fffffe"/><path d="m133.074626 151.014129 10.529898 3.120294-13.300579 5.388406z" fill="#040a1a"/><path d="m133.074626 151.014129 10.529898 3.120294-13.300579 5.388406 2.770681-8.5087-2.770681 8.5087 13.300579-5.388406z" fill="#151c34"/><path d="m145.562355 141.913273 24.754767-10.588896-.220693-.516772-24.754767 10.588896" fill="#151c34"/><path d="m145.559078 146.578417 20.444697-8.445332-.214138-.518957-20.444697 8.445333" fill="#151c34"/><path d="m134.3671 172.663898 26.479887-11.596218-1.724028 5.545732-26.97153 12.100971z" fill="#f6bb5f"/><path d="m143.719241 158.728553c-1.545944 1.388618-29.304103 29.85802-42.611238 42.684437-3.5889928 3.458981-9.3423074 2.61117-11.8606116-1.741508l-23.3748891-39.176293 22.1490594-17.184558c.1573257.242544 11.7316924 19.918093 14.3974893 29.787005.87731 3.245936 2.39594 2.997929 5.030053 1.384248l20.210894-12.458231s-.033868-3.534367.415165-4.86945c.854367-2.540155 4.906597-5.951065 4.906597-5.951065l-1.754619 5.388407c-.315744.908993-1.351472 1.564517.281875 1.760081l12.834065-9.512744s1.171203-.093958.062275 1.166833-2.309629 2.583856-2.155581 2.678907 3.664378-2.363163 3.818426-1.418116-2.863546 3.213159-2.740089 3.30821c.122364.095051 3.417464-2.614447 3.602103-1.732768.18464.882772-2.309629 2.584949-2.433086 2.930192-.122364.346335 2.709499-1.827819 2.832956-1.354749.123457.471977-2.726979 3.517978-3.610844 4.311162" fill="#e69899"/><path d="m82.1579006 125.893361s-6.3105099-17.717718-18.4803108-10.257856c-12.1698008 7.460954-3.1541624 43.830512 3.6064739 51.290374l26.1422924-18.184233z" fill="#2c4566"/><path d="m92.5261033 83.8764657c-.1409376.3736486-.6008969.4829026-.8816796.2075825-.9548798-.9373991-2.853714-2.2211334-3.5354588 1.5087975-.9253812 5.063922 4.3603263 4.1931678 4.7820467 4.8760051.8532736 1.3820629 3.5933634 6.0275421 7.6772774 7.8313254 2.488805 1.0980025 6.175035 1.2728088 8.893274-1.3372688s3.934236-.8226824 2.793624-28.726149c0 0-1.244403 2.402495-3.035076 3.0230576-1.790672.6183776-4.660774-1.8638729-6.699454-2.4341786-1.65629-.4621444-4.8672644-1.6759561-6.8283734 4.0850063-.9013453 2.6461314-2.3358501 8.7720021-3.1661803 10.965822" fill="#e69899"/><path d="m111.500242 82.1666409c-.001093-.0054627-.050257-.2676723-.158418-.5408072-.054627-.1365675-.122365-.2775051-.217416-.396592-.091773-.1147166-.227248-.2239706-.409702-.2250632-.189009.0010926-.353983.1158093-.506939.3070037-.154048.1933796-.311373.4807175-.483995.904623l.332132.1343824c.163881-.4042397.311374-.6664493.431554-.8161273.122364-.151863.201027-.1737138.227248-.1715287l.130012.0917733c.089588.1081615.173714.3091888.225063.4785325.053535.1682511.078663.301541.078663.301541z" fill="#151c34"/><path d="m103.3346 82.1644558-12.6439636.3375948.0054627.1791765.0174807-.1791765c-.0043702 0-.0928659-.0087403-.2392663-.0087403-.3222992.0010925-.9253812.040424-1.5262781.3146515-.5998043.2720424-1.1985161.7964615-1.4563555 1.7229352l.34415.0961435c.232711-.8194048.7320017-1.2476804 1.2618835-1.4924093.5276967-.2425439 1.084892-.2829679 1.3766001-.2829679.1321974 0 .2032125.0076478.204305.0076478l.0109254.0010926 12.6548881-.3375948z" fill="#151c34"/><path d="m115.174453 81.0828414h-.183546c0 1.2192744-.217416 2.3227396-.558288 3.1039056-.170436.3911292-.371464.7014105-.582324.9046229-.211953.2053975-.422813.301541-.633673.301541-.211953 0-.422813-.0961435-.634766-.301541-.640228-.6107297-1.144981-2.1807094-1.139519-4.0085285-.001092-1.2192744.216323-2.3227396.558288-3.1049981.169344-.3900367.371464-.700318.581231-.904623.211953-.2043049.423906-.3004484.634766-.3004484s.42172.0961435.633673.3004484c.641321.6118223 1.144982 2.181802 1.140612 4.0096211h.367093c-.001092-1.262976-.221785-2.4068652-.588879-3.2513984-.184639-.4217204-.405332-.7702406-.663172-1.0215248-.256746-.2501916-.560472-.4053322-.889327-.4053322-.329947 0-.633673.1551406-.89042.4053322-.764778.7538525-1.246588 2.3773667-1.250958 4.2729232 0 1.262976.220693 2.4068652.588879 3.2513985.183547.4217203.40424.7702405.662079 1.0215247.256747.2490991.560473.4042397.89042.4042397.328855 0 .632581-.1551406.889327-.4042397.764778-.7538525 1.246588-2.3773666 1.252051-4.2729232z" fill="#151c34"/><path d="m109.865802 81.6127232h-.179176c.001093 1.4585407-.363816 2.7772362-.941769 3.7168204-.580139.9439544-1.356935 1.4945945-2.186172 1.4935019-.828146.0010926-1.604941-.5495475-2.18508-1.4935019-.577954-.9395842-.941769-2.2582797-.941769-3.7168204 0-1.4574481.363815-2.7761436.941769-3.7157279.580139-.9439543 1.356934-1.4945944 2.18508-1.4924093.829237-.0021851 1.606033.548455 2.186172 1.4924093.577953.9395843.942862 2.2582798.941769 3.7157279h.358353c0-1.5175378-.375834-2.8941379-.994211-3.9036447-.617285-1.0062292-1.493502-1.661753-2.492083-1.6628456-.997489.0010926-1.873706.6566164-2.489899 1.6628456-.61947 1.0095068-.995303 2.3861069-.995303 3.9036447 0 1.5186303.375833 2.8952305.995303 3.9047373.616193 1.0073217 1.49241 1.6628455 2.489899 1.6639381.998581-.0010926 1.874798-.6566164 2.492083-1.6639381.618377-1.0095068.994211-2.386107.994211-3.9047373z" fill="#151c34"/><path d="m112.163414 88.3143624s-1.63881.8161272-5.646246.439201c0 0 2.155581 2.9203589 3.734301 2.3555158 1.577628-.5659356 1.911945-2.7947168 1.911945-2.7947168" fill="#fffffe"/><path d="m88.9021488 85.2148269 2.7914392 2.1053242s-1.0411905-5.0901429-2.7914392-2.1053242" fill="#da7274"/><path d="m108.890164 82.3971668c0 .6107297-.241451 1.1045577-.539714 1.1045577-.297171 0-.538622-.493828-.538622-1.1045577 0-.6096372.241451-1.1034652.538622-1.1034652.298263 0 .539714.493828.539714 1.1034652" fill="#040a1a"/><path d="m112.399402 81.8574521c0 .6085447-.241451 1.1034652-.539714 1.1034652-.297171 0-.538622-.4949205-.538622-1.1034652 0-.6096372.241451-1.1034652.538622-1.1034652.298263 0 .539714.493828.539714 1.1034652" fill="#040a1a"/><path d="m104.356124 77.6402485c-.799739.5582878.451219-1.9643866 1.536111-2.2462618 1.087077-.2807828 2.158859.2698573 2.39594 1.2301998 0 0-2.012458-.3233918-3.932051 1.016062" fill="#040a1a"/><path d="m112.565468 77.3725762c-1.144981-.1485854-1.967664.054627-1.967664.054627.148586-.9089931.993119-1.5459438 1.98733-1.5710722" fill="#040a1a"/><path d="m110.748575 81.8246759 1.64318 4.6760704-.096144.163881-1.940351.1474928-.117994-.1289197.296078-4.8224707c.007648-.1289196.172622-.1562331.215231-.0360538" fill="#da7274"/><path d="m77.0797756 51.7241118-8.5392911-8.5403836h-32.1589091c-6.5454059 0-11.8507792-5.3053733-11.8507792-11.8507792v-2.5718387c0-6.545406 5.3053733-11.8518718 11.8507792-11.8518718h28.8463284c6.545406 0 11.8518718 5.3064658 11.8518718 11.8518718z" fill="#04b7a7"/><path d="m41.6093784 29.7192677c0 1.6322545-1.3241583 2.9553202-2.9564127 2.9553202-1.6322545 0-2.9564127-1.3230657-2.9564127-2.9553202 0-1.633347 1.3241582-2.9564127 2.9564127-2.9564127 1.6322544 0 2.9564127 1.3230657 2.9564127 2.9564127" fill="#faf9f6"/><path d="m52.4473732 29.7192677c0 1.6322545-1.3230657 2.9553202-2.9564127 2.9553202-1.6322545 0-2.9553202-1.3230657-2.9553202-2.9553202 0-1.633347 1.3230657-2.9564127 2.9553202-2.9564127 1.633347 0 2.9564127 1.3230657 2.9564127 2.9564127" fill="#faf9f6"/><path d="m63.285368 29.7192677c0 1.6322545-1.3230657 2.9553202-2.9564127 2.9553202-1.6322544 0-2.9553201-1.3230657-2.9553201-2.9553202 0-1.633347 1.3230657-2.9564127 2.9553201-2.9564127 1.633347 0 2.9564127 1.3230657 2.9564127 2.9564127" fill="#faf9f6"/><path d="m647.050143 105.764408c0 10.505863-8.516348 19.021118-19.021118 19.021118-10.505863 0-19.022211-8.515255-19.022211-19.021118 0-10.5058627 8.516348-19.0222104 19.022211-19.0222104 10.50477 0 19.021118 8.5163477 19.021118 19.0222104" fill="#a3bed9"/><path d="m625.995808 116.273548v-.382388h-6.495149v-6.112761h6.11276v6.495149h.382389v-.382388.382388h.382389v-7.259927h-7.643409v7.642316h7.643409v-.382389z" fill="#fffffe"/><path d="m620.202069 112.121897 1.494595 2.717147 6.979144-7.80729c.140938-.157325.126735-.399869-.030591-.540807s-.39987-.126735-.539715.030591l-6.258068 7.002088-.974545-1.771007c-.101606-.184639-.334317-.252377-.520049-.150771-.184639.101606-.252377.334317-.150771.520049" fill="#fffffe"/><path d="m625.995808 102.532675v-.383481h-6.495149v-6.1116678h6.11276v6.4951488h.382389v-.383481.383481h.382389v-7.2610192h-7.643409v7.6434082h7.643409v-.382389z" fill="#fffffe"/><path d="m620.202069 98.3810241 1.494595 2.7171469 6.979144-7.8072898c.140938-.1584183.126735-.3998696-.030591-.5408072-.157326-.1409377-.39987-.1267347-.539715.0305911l-6.258068 7.000995-.974545-1.7699145c-.101606-.1846392-.334317-.2523767-.520049-.1507704-.184639.1016062-.252377.3343171-.150771.5200489" fill="#fffffe"/><g fill="#d3e2ec" transform="translate(609.006814 86.742198)"><path d="m37.070968 13.0023162h-14.3778238c-.5047534 0-.9122707-.4075174-.9122707-.9122708.0010925-.5036608.4075173-.9100856.9122707-.9111781h13.6622103c.2687647.5921565.508031 1.2007012.7156135 1.8234489" mask="url(#h)"/><path d="m37.2960312 13.7255775h-14.602887c-.9035304-.002185-1.6344395-.7320016-1.6355321-1.6355321 0-.9035304.7320017-1.6344395 1.6355321-1.6344395h13.3158751c.121272.2381737.2359886.479625.3463352.7232614h-13.6622103c-.5047534.0010925-.9111782.4075173-.9122707.9111781 0 .5047534.4075173.9122708.9122707.9122708h14.3778238c.0797554.2392662.1551407.4807175.2250632.7232613" mask="url(#h)"/><path d="m36.451498 26.6514159h-13.7201149c-.5244191-.0010925-.9494171-.4260905-.9505096-.9505096.0010925-.5255116.4260905-.9505096.9505096-.9505096h14.4335433c-.2043049.6489686-.4424786 1.2837342-.7134284 1.9010192" mask="url(#h)"/><path d="m36.1160882 27.3746773h-13.3847051c-.9242887 0-1.673771-.7494823-1.673771-1.673771 0-.9253812.7494823-1.673771 1.673771-1.673771h14.6465886c-.0666449.2425439-.1365675.4839952-.2130453.7232614h-14.4335433c-.5244191 0-.9494171.424998-.9505096.9505096.0010925.5244191.4260905.9494171.9505096.9505096h13.7201149c-.1070689.2436364-.2196005.4850877-.3354098.7232614" mask="url(#h)"/></g></g></svg>